<svg id="Calque_1" data-name="Calque 1" xmlns="http://www.w3.org/2000/svg" width="200" viewBox="0 0 540 512"><defs><style>.cls-1{fill:#262262;}.cls-2{fill:#5561a6;}.cls-3{fill:#8dc63f;}</style></defs><title>logo SDSC</title><path class="cls-1" d="M213.52,694.83a130.5,130.5,0,0,1-113-195.76L177.9,365a64.59,64.59,0,0,1,111.88,0l-77.39,134A64.59,64.59,0,0,0,268.33,596H423.12A123.23,123.23,0,0,0,529.84,411.1,189.15,189.15,0,0,1,366,694.83Z" transform="translate(-24.38 -183.14)"/><path class="cls-2" d="M367.17,499.06,289.78,365a64.59,64.59,0,0,0-111.88,0L100.5,499.07a130.5,130.5,0,0,0,113,195.76A189.14,189.14,0,0,1,49.72,411.11l77.39-134.05a129.32,129.32,0,0,1,218.61-8.94l77.39,134a64.6,64.6,0,0,1-55.94,96.89Z" transform="translate(-24.38 -183.14)"/><path class="cls-3" d="M127.11,277.06a187.83,187.83,0,0,1,325.33,0l77.39,134A123.23,123.23,0,0,1,423.12,596H268.33a64.59,64.59,0,0,1-55.94-96.89H367.17a64.59,64.59,0,0,0,55.94-96.89l-77.39-134a129.32,129.32,0,0,0-218.61,8.94Z" transform="translate(-24.38 -183.14)"/><path class="cls-1" d="M974.6,265.55h161.87c52.44,0,95.81,42.86,95.81,95.81V528.76c0,52.95-43.37,95.81-95.81,95.81H974.6Zm164.89,294c15.13,0,27.23-12.61,27.23-27.73V358.33c0-15.13-12.1-27.73-27.23-27.73h-99.34V559.52Z" transform="translate(-24.38 -183.14)"/><path class="cls-1" d="M648.68,540.36l61.52-16.14,3,9.58c5,16.64,12.6,25.72,27.73,25.72h73.12c14.62,0,26.72-12.61,26.72-27.73V514.14c0-11.09-7.06-21.68-17.14-24.2L710.2,459.18c-35.8-9.58-60.51-45.89-60.51-85.22V357.32c0-52.94,38.83-91.77,91.78-91.77h70.59a95.41,95.41,0,0,1,94.8,83.7l-61,16.64-3-9.58c-5-16.64-12.61-25.72-27.23-25.72H742.47c-15.13,0-27.23,12.61-27.23,27.73v12.61c0,17.14,9.58,27.23,26.72,31.77l94.3,24.2c39.33,10.08,68.58,44.37,68.58,87.24v13.11c0,54-40.34,97.32-94.3,97.32H744.49A96.05,96.05,0,0,1,648.68,540.36Z" transform="translate(-24.38 -183.14)"/><path class="cls-1" d="M1304.05,540.36l61.52-16.14,3,9.58c5,16.64,12.6,25.72,27.73,25.72h73.12c14.62,0,26.72-12.61,26.72-27.73V514.14c0-11.09-7.06-21.68-17.14-24.2l-113.46-30.76c-35.8-9.58-60.51-45.89-60.51-85.22V357.32c0-52.94,38.83-91.77,91.78-91.77h70.59a95.41,95.41,0,0,1,94.8,83.7l-61,16.64-3-9.58c-5-16.64-12.61-25.72-27.23-25.72h-73.12c-15.13,0-27.23,12.61-27.23,27.73v12.61c0,17.14,9.58,27.23,26.72,31.77l94.3,24.2c39.33,10.08,68.58,44.37,68.58,87.24v13.11c0,54-40.34,97.32-94.3,97.32h-66.06A96.05,96.05,0,0,1,1304.05,540.36Z" transform="translate(-24.38 -183.14)"/><path class="cls-1" d="M1628.6,528.76V361.35a95.76,95.76,0,0,1,95.81-95.81H1791c48.91,0,88.75,36.31,95.3,83.7l-61.52,16.64-3.53-9.58c-6.05-16.64-12.1-25.72-27.23-25.72h-73.12c-15.13,0-27.23,12.61-27.23,27.73V531.79c0,15.13,12.1,27.73,27.23,27.73H1793c15.13,0,23.7-8.57,28.24-25.72l2.52-9.58,61.52,16.14c-6.05,47.9-45.89,84.21-94.8,84.21h-66.06A95.76,95.76,0,0,1,1628.6,528.76Z" transform="translate(-24.38 -183.14)"/></svg>
