<svg width="24" height="25" viewBox="0 0 24 25" fill="none" xmlns="http://www.w3.org/2000/svg">
<path d="M0 10.3417C0 7.73154 1.03689 5.22826 2.88258 3.38258C4.72826 1.53689 7.23154 0.5 9.84173 0.5C12.4519 0.5 14.9552 1.53689 16.8009 3.38258C18.6466 5.22826 19.6835 7.73154 19.6835 10.3417C19.6835 12.9519 18.6466 15.4552 16.8009 17.3009C14.9552 19.1466 12.4519 20.1835 9.84173 20.1835C7.23154 20.1835 4.72826 19.1466 2.88258 17.3009C1.03689 15.4552 0 12.9519 0 10.3417ZM9.22662 1.82494C8.40237 2.07591 7.58428 2.83372 6.9052 4.10699C6.72887 4.43751 6.56689 4.79509 6.41927 5.17974C7.28657 5.37288 8.23014 5.49591 9.22662 5.53281V1.82494ZM5.22719 4.85373C5.4027 4.38051 5.59994 3.93845 5.81892 3.52756C6.03303 3.12616 6.27861 2.74237 6.55336 2.37977C5.50588 2.8135 4.55436 3.4498 3.75339 4.25216C4.19955 4.47934 4.69081 4.67904 5.22719 4.85373ZM4.31683 9.72662C4.36111 8.41029 4.54811 7.15916 4.8532 6.02613C4.18697 5.81401 3.54233 5.53927 2.92791 5.20558C1.94786 6.52098 1.36628 8.09022 1.25236 9.72662H4.31683ZM6.03913 6.3546C5.74865 7.45649 5.58358 8.58767 5.54704 9.72662H9.22662V6.76303C8.10712 6.72612 7.03314 6.58465 6.03913 6.3546ZM10.4568 6.7618V9.72662H14.1352C14.099 8.58772 13.9344 7.45654 13.6443 6.3546C12.6503 6.58465 11.5763 6.72366 10.4568 6.7618ZM5.54827 10.9568C5.59133 12.1711 5.76479 13.3115 6.03913 14.3289C7.0861 14.0912 8.15352 13.9548 9.22662 13.9217V10.9568H5.54827ZM10.4568 10.9568V13.9204C11.5763 13.9573 12.6503 14.0988 13.6443 14.3289C13.9187 13.3115 14.0921 12.1711 14.1364 10.9568H10.4568ZM6.41927 15.5037C6.56689 15.8884 6.72887 16.2459 6.9052 16.5765C7.58428 17.8497 8.4036 18.6063 9.22662 18.8585V15.1519C8.23014 15.1888 7.28657 15.3106 6.41927 15.5037ZM6.55459 18.3037C6.27942 17.9411 6.03343 17.5573 5.81892 17.1559C5.59282 16.7269 5.39515 16.2834 5.22719 15.8285C4.72115 15.9912 4.22842 16.1928 3.75339 16.4313C4.55436 17.2337 5.50711 17.8699 6.55459 18.3037ZM4.8532 14.6573C4.53423 13.4482 4.35387 12.2067 4.3156 10.9568H1.25236C1.36628 12.5932 1.94786 14.1625 2.92791 15.4779C3.50612 15.1605 4.15198 14.8849 4.8532 14.6573ZM13.1301 18.3037C14.177 17.8702 15.1281 17.2343 15.9288 16.4325C15.4542 16.194 14.9619 15.9925 14.4563 15.8297C14.2883 16.2843 14.0906 16.7273 13.8645 17.1559C13.6504 17.5573 13.4048 17.9411 13.1301 18.3037ZM10.4568 15.1506V18.8585C11.2811 18.6075 12.0992 17.8497 12.7783 16.5765C12.9554 16.2459 13.1174 15.8884 13.2642 15.5037C12.3411 15.3011 11.4014 15.1821 10.4568 15.1506ZM14.8303 14.6573C15.5315 14.8849 16.1773 15.1605 16.7555 15.4779C17.7356 14.1625 18.3172 12.5932 18.4311 10.9568H15.3679C15.3296 12.2067 15.1492 13.4482 14.8303 14.6573ZM18.4311 9.72662C18.3172 8.09022 17.7356 6.52098 16.7555 5.20558C16.1773 5.52297 15.5315 5.79854 14.8303 6.02613C15.1353 7.15793 15.3223 8.41029 15.3679 9.72662H18.4311ZM13.8645 3.52756C14.0827 3.93927 14.2803 4.38133 14.4575 4.85373C14.9627 4.69088 15.4546 4.48935 15.9288 4.25093C15.128 3.44959 14.1769 2.81414 13.1301 2.381C13.3983 2.72915 13.6443 3.11544 13.8645 3.52756ZM13.2642 5.17974C13.1238 4.81278 12.9615 4.45455 12.7783 4.10699C12.0992 2.83372 11.2811 2.07714 10.4568 1.82494V5.53158C11.4533 5.49468 12.3969 5.37288 13.2642 5.17974Z" fill="black"/>
<circle cx="16.9209" cy="17.4208" r="7.07914" fill="black"/>
<path d="M18.5754 13.1899C18.5883 13.1481 18.5928 13.1042 18.5887 13.0606C18.5846 13.0171 18.5719 12.9748 18.5514 12.9361C18.5308 12.8975 18.5029 12.8633 18.4691 12.8354C18.4353 12.8075 18.3964 12.7865 18.3545 12.7737C18.3126 12.7608 18.2685 12.7563 18.2249 12.7605C18.1813 12.7646 18.1389 12.7772 18.1001 12.7977C18.0614 12.8182 18.027 12.8461 17.9991 12.8798C17.9712 12.9135 17.9501 12.9523 17.9373 12.9941L15.2671 21.6518C15.2411 21.7362 15.2497 21.8275 15.2911 21.9055C15.3326 21.9836 15.4034 22.042 15.488 22.068C15.5727 22.094 15.6642 22.0853 15.7424 22.044C15.8206 22.0026 15.8792 21.932 15.9053 21.8476L18.5754 13.1899ZM14.8212 14.8542C14.8522 14.8851 14.8769 14.9219 14.8937 14.9623C14.9106 15.0028 14.9192 15.0461 14.9192 15.0899C14.9192 15.1337 14.9106 15.1771 14.8937 15.2176C14.8769 15.258 14.8522 15.2948 14.8212 15.3257L12.7204 17.4208L14.8212 19.516C14.8838 19.5785 14.919 19.6633 14.919 19.7517C14.919 19.8402 14.8838 19.925 14.8212 19.9875C14.7585 20.05 14.6735 20.0852 14.5848 20.0852C14.4962 20.0852 14.4112 20.05 14.3485 19.9875L12.0121 17.6566C11.981 17.6257 11.9564 17.5889 11.9396 17.5485C11.9227 17.508 11.9141 17.4646 11.9141 17.4208C11.9141 17.377 11.9227 17.3337 11.9396 17.2932C11.9564 17.2528 11.981 17.216 12.0121 17.1851L14.3485 14.8542C14.3795 14.8232 14.4164 14.7986 14.4569 14.7818C14.4975 14.765 14.5409 14.7564 14.5848 14.7564C14.6287 14.7564 14.6722 14.765 14.7128 14.7818C14.7533 14.7986 14.7902 14.8232 14.8212 14.8542ZM19.0214 14.8542C18.9903 14.8851 18.9656 14.9219 18.9488 14.9623C18.932 15.0028 18.9233 15.0461 18.9233 15.0899C18.9233 15.1337 18.932 15.1771 18.9488 15.2176C18.9656 15.258 18.9903 15.2948 19.0214 15.3257L21.1221 17.4208L19.0214 19.516C18.9903 19.547 18.9657 19.5837 18.9489 19.6242C18.9321 19.6646 18.9235 19.708 18.9235 19.7517C18.9235 19.7955 18.9321 19.8389 18.9489 19.8793C18.9657 19.9198 18.9903 19.9565 19.0214 19.9875C19.0524 20.0185 19.0892 20.043 19.1298 20.0598C19.1703 20.0765 19.2138 20.0852 19.2577 20.0852C19.3016 20.0852 19.345 20.0765 19.3856 20.0598C19.4261 20.043 19.4629 20.0185 19.494 19.9875L21.8304 17.6566C21.8615 17.6257 21.8861 17.5889 21.903 17.5485C21.9198 17.508 21.9285 17.4646 21.9285 17.4208C21.9285 17.377 21.9198 17.3337 21.903 17.2932C21.8861 17.2528 21.8615 17.216 21.8304 17.1851L19.494 14.8542C19.463 14.8232 19.4261 14.7986 19.3856 14.7818C19.345 14.765 19.3016 14.7564 19.2577 14.7564C19.2138 14.7564 19.1703 14.765 19.1297 14.7818C19.0892 14.7986 19.0524 14.8232 19.0214 14.8542Z" fill="white"/>
</svg>
