<svg width="16" height="56" viewBox="0 0 16 56" fill="none" xmlns="http://www.w3.org/2000/svg">
<path d="M8 0L8 40" stroke="#6C757D" stroke-width="1.11111"/>
<path d="M16 48C16 52.4183 12.4183 56 8 56C3.58172 56 0 52.4183 0 48C0 43.5817 3.58172 40 8 40C12.4183 40 16 43.5817 16 48ZM6.25 45C5.55964 45 5 45.5596 5 46.25V49.75C5 50.4404 5.55964 51 6.25 51C6.94036 51 7.5 50.4404 7.5 49.75V46.25C7.5 45.5596 6.94036 45 6.25 45ZM9.75 45C9.05964 45 8.5 45.5596 8.5 46.25V49.75C8.5 50.4404 9.05964 51 9.75 51C10.4404 51 11 50.4404 11 49.75V46.25C11 45.5596 10.4404 45 9.75 45Z" fill="#6C757D"/>
</svg>
