<svg width="16" height="56" viewBox="0 0 16 56" fill="none" xmlns="http://www.w3.org/2000/svg">
<path d="M8 0L8 40" stroke="#6C757D" stroke-width="1.11111"/>
<path d="M16 48C16 52.4183 12.4183 56 8 56C3.58172 56 0 52.4183 0 48C0 43.5817 3.58172 40 8 40C12.4183 40 16 43.5817 16 48ZM5.35355 44.6464C5.15829 44.4512 4.84171 44.4512 4.64645 44.6464C4.45118 44.8417 4.45118 45.1583 4.64645 45.3536L7.29289 48L4.64645 50.6464C4.45118 50.8417 4.45118 51.1583 4.64645 51.3536C4.84171 51.5488 5.15829 51.5488 5.35355 51.3536L8 48.7071L10.6464 51.3536C10.8417 51.5488 11.1583 51.5488 11.3536 51.3536C11.5488 51.1583 11.5488 50.8417 11.3536 50.6464L8.70711 48L11.3536 45.3536C11.5488 45.1583 11.5488 44.8417 11.3536 44.6464C11.1583 44.4512 10.8417 44.4512 10.6464 44.6464L8 47.2929L5.35355 44.6464Z" fill="#6C757D"/>
</svg>
