<svg
      width="213"
      height="80"
      viewBox="0 0 213 80"
      fill="none"
      xmlns="http://www.w3.org/2000/svg"
    >
      <g>
        <path
          d="M0 65.1199V52.0799L32.69 0.569946H43.93V18.6199H37.28L16.67 51.2399V51.8499H63.13V65.1199H0ZM37.59 78.8799V61.1399L37.9 55.3699V0.569946H53.43V78.8799H37.6H37.59Z"
          fill="#006e58"
        />
        <path
          d="M149.1 65.1199V52.0799L181.8 0.569946H193.04V18.6199H186.39L165.78 51.2399V51.8499H212.24V65.1199H149.11H149.1ZM186.69 78.8799V61.1399L187 55.3699V0.569946H202.53V78.8799H186.7H186.69Z"
          fill="#006e58"
        />
        <path
          d="M87.09 24.68C93.9052 24.68 99.43 19.1552 99.43 12.34C99.43 5.52481 93.9052 0 87.09 0C80.2748 0 74.75 5.52481 74.75 12.34C74.75 19.1552 80.2748 24.68 87.09 24.68Z"
          fill="#006e58"
        />
        <path
          d="M124.59 24.68C131.405 24.68 136.93 19.1552 136.93 12.34C136.93 5.52481 131.405 0 124.59 0C117.775 0 112.25 5.52481 112.25 12.34C112.25 19.1552 117.775 24.68 124.59 24.68Z"
          fill="#006e58"
        />
        <path
          d="M78.86 12.01C78.86 12.01 87.52 15.97 92.89 7.64001Z"
          fill="#006e58"
        />
        <path
          d="M78.86 12.01C78.86 12.01 87.52 15.97 92.89 7.64001"
          stroke="white"
          strokeWidth="2"
          strokeMiterlimit="10"
        />
        <path
          d="M118.57 8.17004C118.57 8.17004 123.71 16.19 132.73 12.1Z"
          fill="#006e58"
        />
        <path
          d="M118.57 8.17004C118.57 8.17004 123.71 16.19 132.73 12.1"
          stroke="white"
          strokeWidth="2"
          strokeMiterlimit="10"
        />
        <path
          d="M106.01 79.46C125.434 79.46 141.18 63.7139 141.18 44.29C141.18 24.8661 125.434 9.12 106.01 9.12C86.5861 9.12 70.84 24.8661 70.84 44.29C70.84 63.7139 86.5861 79.46 106.01 79.46Z"
          fill="#006e58"
        />
        <path
          d="M92.89 50.09C92.89 50.09 106.66 36.73 118.57 50.09Z"
          fill="#006e58"
        />
        <path
          d="M92.89 50.09C92.89 50.09 106.66 36.73 118.57 50.09"
          stroke="white"
          strokeWidth="2"
          strokeMiterlimit="10"
        />
        <path
          d="M125.41 26.84C125.41 28.73 123.88 30.26 121.99 30.26C120.1 30.26 118.57 28.73 118.57 26.84L121.99 19.08L125.41 26.84Z"
          fill="white"
        />
      </g>
      <defs>
        <clipPath id="clip0_1_2049">
          <rect width="212.23" height="79.45" fill="white" />
        </clipPath>
      </defs>
    </svg>