<svg width="16" height="16" viewBox="0 0 16 16" fill="none" xmlns="http://www.w3.org/2000/svg">
<path d="M16 8C16 12.4183 12.4183 16 8 16C3.58172 16 0 12.4183 0 8C0 3.58172 3.58172 0 8 0C12.4183 0 16 3.58172 16 8ZM6.79062 5.09313C6.63821 4.98427 6.43774 4.96972 6.27121 5.05542C6.10467 5.14112 6 5.31271 6 5.5V10.5C6 10.6873 6.10467 10.8589 6.27121 10.9446C6.43774 11.0303 6.63821 11.0157 6.79062 10.9069L10.2906 8.40687C10.422 8.31301 10.5 8.16148 10.5 8C10.5 7.83853 10.422 7.68699 10.2906 7.59313L6.79062 5.09313Z" fill="#6C757D"/>
</svg>
