<?xml version="1.0" encoding="UTF-8" standalone="no"?>
<svg
   xmlns:dc="http://purl.org/dc/elements/1.1/"
   xmlns:cc="http://creativecommons.org/ns#"
   xmlns:rdf="http://www.w3.org/1999/02/22-rdf-syntax-ns#"
   xmlns:svg="http://www.w3.org/2000/svg"
   xmlns="http://www.w3.org/2000/svg"
   xmlns:sodipodi="http://sodipodi.sourceforge.net/DTD/sodipodi-0.dtd"
   xmlns:inkscape="http://www.inkscape.org/namespaces/inkscape"
   version="1.1"
   id="svg2"
   xml:space="preserve"
   width="214.2"
   height="214.28"
   viewBox="0 0 214.2 214.28"
   sodipodi:docname="RENKU_Symbole_CMJN_GREEN_FUCHSIA_PROD.eps"><metadata
     id="metadata8"><rdf:RDF><cc:Work
         rdf:about=""><dc:format>image/svg+xml</dc:format><dc:type
           rdf:resource="http://purl.org/dc/dcmitype/StillImage" /></cc:Work></rdf:RDF></metadata><defs
     id="defs6" /><sodipodi:namedview
     pagecolor="#ffffff"
     bordercolor="#666666"
     borderopacity="1"
     objecttolerance="10"
     gridtolerance="10"
     guidetolerance="10"
     inkscape:pageopacity="0"
     inkscape:pageshadow="2"
     inkscape:window-width="640"
     inkscape:window-height="480"
     id="namedview4" /><g
     id="g10"
     inkscape:groupmode="layer"
     inkscape:label="ink_ext_XXXXXX"
     transform="matrix(1.3333333,0,0,-1.3333333,0,214.28)"><g
       id="g12"
       transform="scale(0.1)"><path
         d="m 1112.2,1298.06 c 0,-34.14 -27.67,-61.81 -61.82,-61.81 -34.14,0 -61.814,27.67 -61.814,61.81 0,34.14 27.674,61.81 61.814,61.81 34.15,0 61.82,-27.67 61.82,-61.81"
         style="fill:#f24ea0;fill-opacity:1;fill-rule:nonzero;stroke:none"
         id="path14" /><path
         d="m 1359.34,1050.81 c 0,-34.14 -27.68,-61.814 -61.81,-61.814 -34.14,0 -61.81,27.674 -61.81,61.814 0,34.14 27.67,61.81 61.81,61.81 34.13,0 61.81,-27.67 61.81,-61.81"
         style="fill:#f24ea0;fill-opacity:1;fill-rule:nonzero;stroke:none"
         id="path16" /><path
         d="m 988.629,927.184 c 0,-34.137 -27.68,-61.809 -61.816,-61.809 -34.133,0 -61.809,27.672 -61.809,61.809 0,34.136 27.676,61.812 61.809,61.812 34.136,0 61.816,-27.676 61.816,-61.812"
         style="fill:#00a878;fill-opacity:1;fill-rule:nonzero;stroke:none"
         id="path18" /><path
         d="m 741.48,1421.68 c 0,-34.13 -27.667,-61.81 -61.808,-61.81 -34.141,0 -61.817,27.68 -61.817,61.81 0,34.14 27.676,61.82 61.817,61.82 34.141,0 61.808,-27.68 61.808,-61.82"
         style="fill:#00a878;fill-opacity:1;fill-rule:nonzero;stroke:none"
         id="path20" /><path
         d="m 247.199,1298.06 c 0,-34.14 -27.672,-61.81 -61.812,-61.81 -34.145,0 -61.821,27.67 -61.821,61.81 0,34.14 27.676,61.81 61.821,61.81 34.14,0 61.812,-27.67 61.812,-61.81"
         style="fill:#00a878;fill-opacity:1;fill-rule:nonzero;stroke:none"
         id="path22" /><path
         d="m 741.48,1298.06 c 0,-34.14 -27.667,-61.81 -61.808,-61.81 -34.141,0 -61.817,27.67 -61.817,61.81 0,34.14 27.676,61.81 61.817,61.81 34.141,0 61.808,-27.67 61.808,-61.81"
         style="fill:#00a878;fill-opacity:1;fill-rule:nonzero;stroke:none"
         id="path24" /><path
         d="m 247.199,1174.43 c 0,-34.13 -27.672,-61.81 -61.812,-61.81 -34.145,0 -61.821,27.68 -61.821,61.81 0,34.14 27.676,61.82 61.821,61.82 34.14,0 61.812,-27.68 61.812,-61.82"
         style="fill:#00a878;fill-opacity:1;fill-rule:nonzero;stroke:none"
         id="path26" /><path
         d="m 741.48,1174.43 c 0,-34.13 -27.667,-61.81 -61.808,-61.81 -34.141,0 -61.817,27.68 -61.817,61.81 0,34.14 27.676,61.82 61.817,61.82 34.141,0 61.808,-27.68 61.808,-61.82"
         style="fill:#00a878;fill-opacity:1;fill-rule:nonzero;stroke:none"
         id="path28" /><path
         d="m 247.199,1050.81 c 0,-34.14 -27.672,-61.814 -61.812,-61.814 -34.145,0 -61.821,27.674 -61.821,61.814 0,34.14 27.676,61.81 61.821,61.81 34.14,0 61.812,-27.67 61.812,-61.81"
         style="fill:#00a878;fill-opacity:1;fill-rule:nonzero;stroke:none"
         id="path30" /><path
         d="m 370.766,1050.81 c 0,-34.14 -27.676,-61.814 -61.805,-61.814 -34.145,0 -61.816,27.674 -61.816,61.814 0,34.14 27.671,61.81 61.816,61.81 34.129,0 61.805,-27.67 61.805,-61.81"
         style="fill:#00a878;fill-opacity:1;fill-rule:nonzero;stroke:none"
         id="path32" /><path
         d="m 494.34,1050.81 c 0,-34.14 -27.676,-61.814 -61.817,-61.814 -34.128,0 -61.804,27.674 -61.804,61.814 0,34.14 27.676,61.81 61.804,61.81 34.141,0 61.817,-27.67 61.817,-61.81"
         style="fill:#00a878;fill-opacity:1;fill-rule:nonzero;stroke:none"
         id="path34" /><path
         d="m 741.48,1050.81 c 0,-34.14 -27.667,-61.814 -61.808,-61.814 -34.141,0 -61.817,27.674 -61.817,61.814 0,34.14 27.676,61.81 61.817,61.81 34.141,0 61.808,-27.67 61.808,-61.81"
         style="fill:#00a878;fill-opacity:1;fill-rule:nonzero;stroke:none"
         id="path36" /><path
         d="m 865.055,1050.81 c 0,-34.14 -27.676,-61.814 -61.809,-61.814 -34.141,0 -61.816,27.674 -61.816,61.814 0,34.14 27.675,61.81 61.816,61.81 34.133,0 61.809,-27.67 61.809,-61.81"
         style="fill:#00a878;fill-opacity:1;fill-rule:nonzero;stroke:none"
         id="path38" /><path
         d="m 988.629,1050.81 c 0,-34.14 -27.68,-61.814 -61.816,-61.814 -34.133,0 -61.809,27.674 -61.809,61.814 0,34.14 27.676,61.81 61.809,61.81 34.136,0 61.816,-27.67 61.816,-61.81"
         style="fill:#00a878;fill-opacity:1;fill-rule:nonzero;stroke:none"
         id="path40" /><path
         d="m 1112.2,1050.81 c 0,-34.14 -27.67,-61.814 -61.82,-61.814 -34.14,0 -61.814,27.674 -61.814,61.814 0,34.14 27.674,61.81 61.814,61.81 34.15,0 61.82,-27.67 61.82,-61.81"
         style="fill:#00a878;fill-opacity:1;fill-rule:nonzero;stroke:none"
         id="path42" /><path
         d="m 494.34,927.184 c 0,-34.137 -27.676,-61.809 -61.817,-61.809 -34.128,0 -61.804,27.672 -61.804,61.809 0,34.136 27.676,61.812 61.804,61.812 34.141,0 61.817,-27.676 61.817,-61.812"
         style="fill:#00a878;fill-opacity:1;fill-rule:nonzero;stroke:none"
         id="path44" /><path
         d="m 865.055,927.184 c 0,-34.137 -27.676,-61.809 -61.809,-61.809 -34.141,0 -61.816,27.672 -61.816,61.809 0,34.136 27.675,61.812 61.816,61.812 34.133,0 61.809,-27.676 61.809,-61.812"
         style="fill:#00a878;fill-opacity:1;fill-rule:nonzero;stroke:none"
         id="path46" /><path
         d="m 1112.2,927.184 c 0,-34.137 -27.67,-61.809 -61.82,-61.809 -34.14,0 -61.814,27.672 -61.814,61.809 0,34.136 27.674,61.812 61.814,61.812 34.15,0 61.82,-27.676 61.82,-61.812"
         style="fill:#00a878;fill-opacity:1;fill-rule:nonzero;stroke:none"
         id="path48" /><path
         d="m 494.34,803.559 c 0,-34.141 -27.676,-61.809 -61.817,-61.809 -34.128,0 -61.804,27.668 -61.804,61.809 0,34.14 27.676,61.816 61.804,61.816 34.141,0 61.817,-27.676 61.817,-61.816"
         style="fill:#00a878;fill-opacity:1;fill-rule:nonzero;stroke:none"
         id="path50" /><path
         d="m 741.48,803.559 c 0,-34.141 -27.667,-61.809 -61.808,-61.809 -34.141,0 -61.817,27.668 -61.817,61.809 0,34.14 27.676,61.816 61.817,61.816 34.141,0 61.808,-27.676 61.808,-61.816"
         style="fill:#00a878;fill-opacity:1;fill-rule:nonzero;stroke:none"
         id="path52" /><path
         d="m 865.055,803.559 c 0,-34.141 -27.676,-61.809 -61.809,-61.809 -34.141,0 -61.816,27.668 -61.816,61.809 0,34.14 27.675,61.816 61.816,61.816 34.133,0 61.809,-27.676 61.809,-61.816"
         style="fill:#00a878;fill-opacity:1;fill-rule:nonzero;stroke:none"
         id="path54" /><path
         d="m 988.629,803.559 c 0,-34.141 -27.68,-61.809 -61.816,-61.809 -34.133,0 -61.809,27.668 -61.809,61.809 0,34.14 27.676,61.816 61.809,61.816 34.136,0 61.816,-27.676 61.816,-61.816"
         style="fill:#00a878;fill-opacity:1;fill-rule:nonzero;stroke:none"
         id="path56" /><path
         d="m 1112.2,803.559 c 0,-34.141 -27.67,-61.809 -61.82,-61.809 -34.14,0 -61.814,27.668 -61.814,61.809 0,34.14 27.674,61.816 61.814,61.816 34.15,0 61.82,-27.676 61.82,-61.816"
         style="fill:#00a878;fill-opacity:1;fill-rule:nonzero;stroke:none"
         id="path58" /><path
         d="m 494.34,679.934 c 0,-34.141 -27.676,-61.817 -61.817,-61.817 -34.128,0 -61.804,27.676 -61.804,61.817 0,34.14 27.676,61.816 61.804,61.816 34.141,0 61.817,-27.676 61.817,-61.816"
         style="fill:#00a878;fill-opacity:1;fill-rule:nonzero;stroke:none"
         id="path60" /><path
         d="m 741.48,679.934 c 0,-34.141 -27.667,-61.817 -61.808,-61.817 -34.141,0 -61.817,27.676 -61.817,61.817 0,34.14 27.676,61.816 61.817,61.816 34.141,0 61.808,-27.676 61.808,-61.816"
         style="fill:#00a878;fill-opacity:1;fill-rule:nonzero;stroke:none"
         id="path62" /><path
         d="m 865.055,679.934 c 0,-34.141 -27.676,-61.817 -61.809,-61.817 -34.141,0 -61.816,27.676 -61.816,61.817 0,34.14 27.675,61.816 61.816,61.816 34.133,0 61.809,-27.676 61.809,-61.816"
         style="fill:#00a878;fill-opacity:1;fill-rule:nonzero;stroke:none"
         id="path64" /><path
         d="m 1112.2,679.934 c 0,-34.141 -27.67,-61.817 -61.82,-61.817 -34.14,0 -61.814,27.676 -61.814,61.817 0,34.14 27.674,61.816 61.814,61.816 34.15,0 61.82,-27.676 61.82,-61.816"
         style="fill:#00a878;fill-opacity:1;fill-rule:nonzero;stroke:none"
         id="path66" /><path
         d="m 1112.2,556.309 c 0,-34.137 -27.67,-61.821 -61.82,-61.821 -34.14,0 -61.814,27.684 -61.814,61.821 0,34.14 27.674,61.808 61.814,61.808 34.15,0 61.82,-27.668 61.82,-61.808"
         style="fill:#00a878;fill-opacity:1;fill-rule:nonzero;stroke:none"
         id="path68" /><path
         d="m 1235.77,556.309 c 0,-34.137 -27.67,-61.821 -61.81,-61.821 -34.14,0 -61.82,27.684 -61.82,61.821 0,34.14 27.68,61.808 61.82,61.808 34.14,0 61.81,-27.668 61.81,-61.808"
         style="fill:#00a878;fill-opacity:1;fill-rule:nonzero;stroke:none"
         id="path70" /><path
         d="m 1359.34,556.309 c 0,-34.137 -27.68,-61.821 -61.81,-61.821 -34.14,0 -61.81,27.684 -61.81,61.821 0,34.14 27.67,61.808 61.81,61.808 34.13,0 61.81,-27.668 61.81,-61.808"
         style="fill:#00a878;fill-opacity:1;fill-rule:nonzero;stroke:none"
         id="path72" /><path
         d="m 1482.91,556.309 c 0,-34.137 -27.67,-61.821 -61.81,-61.821 -34.13,0 -61.81,27.684 -61.81,61.821 0,34.14 27.68,61.808 61.81,61.808 34.14,0 61.81,-27.668 61.81,-61.808"
         style="fill:#00a878;fill-opacity:1;fill-rule:nonzero;stroke:none"
         id="path74" /><path
         d="m 741.48,432.691 c 0,-34.14 -27.667,-61.82 -61.808,-61.82 -34.141,0 -61.817,27.68 -61.817,61.82 0,34.129 27.676,61.797 61.817,61.797 34.141,0 61.808,-27.668 61.808,-61.797"
         style="fill:#00a878;fill-opacity:1;fill-rule:nonzero;stroke:none"
         id="path76" /><path
         d="m 865.055,432.691 c 0,-34.14 -27.676,-61.82 -61.809,-61.82 -34.141,0 -61.816,27.68 -61.816,61.82 0,34.129 27.675,61.797 61.816,61.797 34.133,0 61.809,-27.668 61.809,-61.797"
         style="fill:#00a878;fill-opacity:1;fill-rule:nonzero;stroke:none"
         id="path78" /><path
         d="m 370.766,309.059 c 0,-34.137 -27.676,-61.809 -61.805,-61.809 -34.145,0 -61.816,27.672 -61.816,61.809 0,34.14 27.671,61.812 61.816,61.812 34.129,0 61.805,-27.672 61.805,-61.812"
         style="fill:#00a878;fill-opacity:1;fill-rule:nonzero;stroke:none"
         id="path80" /><path
         d="m 494.34,309.059 c 0,-34.137 -27.676,-61.809 -61.817,-61.809 -34.128,0 -61.804,27.672 -61.804,61.809 0,34.14 27.676,61.812 61.804,61.812 34.141,0 61.817,-27.672 61.817,-61.812"
         style="fill:#00a878;fill-opacity:1;fill-rule:nonzero;stroke:none"
         id="path82" /><path
         d="m 617.914,309.059 c 0,-34.137 -27.676,-61.809 -61.816,-61.809 -34.141,0 -61.805,27.672 -61.805,61.809 0,34.14 27.664,61.812 61.805,61.812 34.14,0 61.816,-27.672 61.816,-61.812"
         style="fill:#00a878;fill-opacity:1;fill-rule:nonzero;stroke:none"
         id="path84" /><path
         d="m 741.48,309.059 c 0,-34.137 -27.667,-61.809 -61.808,-61.809 -34.141,0 -61.817,27.672 -61.817,61.809 0,34.14 27.676,61.812 61.817,61.812 34.141,0 61.808,-27.672 61.808,-61.812"
         style="fill:#00a878;fill-opacity:1;fill-rule:nonzero;stroke:none"
         id="path86" /><path
         d="m 865.055,309.059 c 0,-34.137 -27.676,-61.809 -61.809,-61.809 -34.141,0 -61.816,27.672 -61.816,61.809 0,34.14 27.675,61.812 61.816,61.812 34.133,0 61.809,-27.672 61.809,-61.812"
         style="fill:#00a878;fill-opacity:1;fill-rule:nonzero;stroke:none"
         id="path88" /><path
         d="m 988.629,309.059 c 0,-34.137 -27.68,-61.809 -61.816,-61.809 -34.133,0 -61.809,27.672 -61.809,61.809 0,34.14 27.676,61.812 61.809,61.812 34.136,0 61.816,-27.672 61.816,-61.812"
         style="fill:#00a878;fill-opacity:1;fill-rule:nonzero;stroke:none"
         id="path90" /><path
         d="m 370.766,185.43 c 0,-34.129 -27.676,-61.801 -61.805,-61.801 -34.145,0 -61.816,27.672 -61.816,61.801 0,34.14 27.671,61.82 61.816,61.82 34.129,0 61.805,-27.68 61.805,-61.82"
         style="fill:#00a878;fill-opacity:1;fill-rule:nonzero;stroke:none"
         id="path92" /><path
         d="m 741.48,1545.3 c 0,-34.13 -27.667,-61.8 -61.808,-61.8 -34.141,0 -61.817,27.67 -61.817,61.8 0,34.15 27.676,61.82 61.817,61.82 34.141,0 61.808,-27.67 61.808,-61.82"
         style="fill:#00a878;fill-opacity:1;fill-rule:nonzero;stroke:none"
         id="path94" /><path
         d="m 247.199,1421.68 c 0,-34.13 -27.672,-61.81 -61.812,-61.81 -34.145,0 -61.821,27.68 -61.821,61.81 0,34.14 27.676,61.82 61.821,61.82 34.14,0 61.812,-27.68 61.812,-61.82"
         style="fill:#00a878;fill-opacity:1;fill-rule:nonzero;stroke:none"
         id="path96" /><path
         d="m 617.914,1421.68 c 0,-34.13 -27.676,-61.81 -61.816,-61.81 -34.141,0 -61.805,27.68 -61.805,61.81 0,34.14 27.664,61.82 61.805,61.82 34.14,0 61.816,-27.68 61.816,-61.82"
         style="fill:#00a878;fill-opacity:1;fill-rule:nonzero;stroke:none"
         id="path98" /><path
         d="m 865.055,1421.68 c 0,-34.13 -27.676,-61.81 -61.809,-61.81 -34.141,0 -61.816,27.68 -61.816,61.81 0,34.14 27.675,61.82 61.816,61.82 34.133,0 61.809,-27.68 61.809,-61.82"
         style="fill:#00a878;fill-opacity:1;fill-rule:nonzero;stroke:none"
         id="path100" /><path
         d="m 123.629,1298.06 c 0,-34.14 -27.6759,-61.81 -61.8165,-61.81 -34.1406,0 -61.80859375,27.67 -61.80859375,61.81 0,34.14 27.66799375,61.81 61.80859375,61.81 34.1406,0 61.8165,-27.67 61.8165,-61.81"
         style="fill:#00a878;fill-opacity:1;fill-rule:nonzero;stroke:none"
         id="path102" /><path
         d="m 370.766,1298.06 c 0,-34.14 -27.676,-61.81 -61.805,-61.81 -34.145,0 -61.816,27.67 -61.816,61.81 0,34.14 27.671,61.81 61.816,61.81 34.129,0 61.805,-27.67 61.805,-61.81"
         style="fill:#00a878;fill-opacity:1;fill-rule:nonzero;stroke:none"
         id="path104" /><path
         d="m 1235.77,1298.06 c 0,-34.14 -27.67,-61.81 -61.81,-61.81 -34.14,0 -61.82,27.67 -61.82,61.81 0,34.14 27.68,61.81 61.82,61.81 34.14,0 61.81,-27.67 61.81,-61.81"
         style="fill:#00a878;fill-opacity:1;fill-rule:nonzero;stroke:none"
         id="path106" /><path
         d="m 988.629,1174.43 c 0,-34.13 -27.68,-61.81 -61.816,-61.81 -34.133,0 -61.809,27.68 -61.809,61.81 0,34.14 27.676,61.82 61.809,61.82 34.136,0 61.816,-27.68 61.816,-61.82"
         style="fill:#00a878;fill-opacity:1;fill-rule:nonzero;stroke:none"
         id="path108" /><path
         d="m 1112.2,1174.43 c 0,-34.13 -27.67,-61.81 -61.82,-61.81 -34.14,0 -61.814,27.68 -61.814,61.81 0,34.14 27.674,61.82 61.814,61.82 34.15,0 61.82,-27.68 61.82,-61.82"
         style="fill:#00a878;fill-opacity:1;fill-rule:nonzero;stroke:none"
         id="path110" /><path
         d="m 1235.77,1174.43 c 0,-34.13 -27.67,-61.81 -61.81,-61.81 -34.14,0 -61.82,27.68 -61.82,61.81 0,34.14 27.68,61.82 61.82,61.82 34.14,0 61.81,-27.68 61.81,-61.82"
         style="fill:#00a878;fill-opacity:1;fill-rule:nonzero;stroke:none"
         id="path112" /><path
         d="m 1359.34,1174.43 c 0,-34.13 -27.68,-61.81 -61.81,-61.81 -34.14,0 -61.81,27.68 -61.81,61.81 0,34.14 27.67,61.82 61.81,61.82 34.13,0 61.81,-27.68 61.81,-61.82"
         style="fill:#00a878;fill-opacity:1;fill-rule:nonzero;stroke:none"
         id="path114" /><path
         d="m 1235.77,1050.81 c 0,-34.14 -27.67,-61.814 -61.81,-61.814 -34.14,0 -61.82,27.674 -61.82,61.814 0,34.14 27.68,61.81 61.82,61.81 34.14,0 61.81,-27.67 61.81,-61.81"
         style="fill:#00a878;fill-opacity:1;fill-rule:nonzero;stroke:none"
         id="path116" /><path
         d="m 741.48,927.184 c 0,-34.137 -27.667,-61.809 -61.808,-61.809 -34.141,0 -61.817,27.672 -61.817,61.809 0,34.136 27.676,61.812 61.817,61.812 34.141,0 61.808,-27.676 61.808,-61.812"
         style="fill:#00a878;fill-opacity:1;fill-rule:nonzero;stroke:none"
         id="path118" /><path
         d="m 1235.77,927.184 c 0,-34.137 -27.67,-61.809 -61.81,-61.809 -34.14,0 -61.82,27.672 -61.82,61.809 0,34.136 27.68,61.812 61.82,61.812 34.14,0 61.81,-27.676 61.81,-61.812"
         style="fill:#00a878;fill-opacity:1;fill-rule:nonzero;stroke:none"
         id="path120" /><path
         d="m 617.914,803.559 c 0,-34.141 -27.676,-61.809 -61.816,-61.809 -34.141,0 -61.805,27.668 -61.805,61.809 0,34.14 27.664,61.816 61.805,61.816 34.14,0 61.816,-27.676 61.816,-61.816"
         style="fill:#00a878;fill-opacity:1;fill-rule:nonzero;stroke:none"
         id="path122" /><path
         d="m 617.914,679.934 c 0,-34.141 -27.676,-61.817 -61.816,-61.817 -34.141,0 -61.805,27.676 -61.805,61.817 0,34.14 27.664,61.816 61.805,61.816 34.14,0 61.816,-27.676 61.816,-61.816"
         style="fill:#00a878;fill-opacity:1;fill-rule:nonzero;stroke:none"
         id="path124" /><path
         d="m 988.629,679.934 c 0,-34.141 -27.68,-61.817 -61.816,-61.817 -34.133,0 -61.809,27.676 -61.809,61.817 0,34.14 27.676,61.816 61.809,61.816 34.136,0 61.816,-27.676 61.816,-61.816"
         style="fill:#00a878;fill-opacity:1;fill-rule:nonzero;stroke:none"
         id="path126" /><path
         d="m 1482.91,679.934 c 0,-34.141 -27.67,-61.817 -61.81,-61.817 -34.13,0 -61.81,27.676 -61.81,61.817 0,34.14 27.68,61.816 61.81,61.816 34.14,0 61.81,-27.676 61.81,-61.816"
         style="fill:#00a878;fill-opacity:1;fill-rule:nonzero;stroke:none"
         id="path128" /><path
         d="m 617.914,556.309 c 0,-34.137 -27.676,-61.821 -61.816,-61.821 -34.141,0 -61.805,27.684 -61.805,61.821 0,34.14 27.664,61.808 61.805,61.808 34.14,0 61.816,-27.668 61.816,-61.808"
         style="fill:#00a878;fill-opacity:1;fill-rule:nonzero;stroke:none"
         id="path130" /><path
         d="m 741.48,556.309 c 0,-34.137 -27.667,-61.821 -61.808,-61.821 -34.141,0 -61.817,27.684 -61.817,61.821 0,34.14 27.676,61.808 61.817,61.808 34.141,0 61.808,-27.668 61.808,-61.808"
         style="fill:#00a878;fill-opacity:1;fill-rule:nonzero;stroke:none"
         id="path132" /><path
         d="m 865.055,556.309 c 0,-34.137 -27.676,-61.821 -61.809,-61.821 -34.141,0 -61.816,27.684 -61.816,61.821 0,34.14 27.675,61.808 61.816,61.808 34.133,0 61.809,-27.668 61.809,-61.808"
         style="fill:#00a878;fill-opacity:1;fill-rule:nonzero;stroke:none"
         id="path134" /><path
         d="m 1606.49,556.309 c 0,-34.137 -27.68,-61.821 -61.82,-61.821 -34.14,0 -61.81,27.684 -61.81,61.821 0,34.14 27.67,61.808 61.81,61.808 34.14,0 61.82,-27.668 61.82,-61.808"
         style="fill:#00a878;fill-opacity:1;fill-rule:nonzero;stroke:none"
         id="path136" /><path
         d="m 1482.91,432.691 c 0,-34.14 -27.67,-61.82 -61.81,-61.82 -34.13,0 -61.81,27.68 -61.81,61.82 0,34.129 27.68,61.797 61.81,61.797 34.14,0 61.81,-27.668 61.81,-61.797"
         style="fill:#00a878;fill-opacity:1;fill-rule:nonzero;stroke:none"
         id="path138" /><path
         d="m 247.199,185.43 c 0,-34.129 -27.672,-61.801 -61.812,-61.801 -34.145,0 -61.821,27.672 -61.821,61.801 0,34.14 27.676,61.82 61.821,61.82 34.14,0 61.812,-27.68 61.812,-61.82"
         style="fill:#00a878;fill-opacity:1;fill-rule:nonzero;stroke:none"
         id="path140" /><path
         d="m 494.34,185.43 c 0,-34.129 -27.676,-61.801 -61.817,-61.801 -34.128,0 -61.804,27.672 -61.804,61.801 0,34.14 27.676,61.82 61.804,61.82 34.141,0 61.817,-27.68 61.817,-61.82"
         style="fill:#00a878;fill-opacity:1;fill-rule:nonzero;stroke:none"
         id="path142" /><path
         d="M 370.766,61.8086 C 370.766,27.6719 343.09,0 308.961,0 c -34.145,0 -61.816,27.6719 -61.816,61.8086 0,34.1406 27.671,61.8204 61.816,61.8204 34.129,0 61.805,-27.6798 61.805,-61.8204"
         style="fill:#00a878;fill-opacity:1;fill-rule:nonzero;stroke:none"
         id="path144" /></g></g></svg>
