<svg width="27" height="24" viewBox="0 0 27 24" fill="none" xmlns="http://www.w3.org/2000/svg">
<g clip-path="url(#clip0_363_10228)">
<path d="M0.389507 18.0859C0.257781 18.1116 0.141838 18.192 0.0714224 18.3064C0.0012091 18.4206 -0.0184182 18.5602 0.0178013 18.6896C0.180688 19.2691 0.413181 19.8289 0.708401 20.354C0.774162 20.4708 0.886666 20.5557 1.01697 20.5867C1.14728 20.6177 1.28569 20.5926 1.39698 20.518C1.99268 20.1183 2.79355 20.1964 3.30144 20.7037C3.80891 21.2102 3.88702 22.0091 3.48739 22.6029C3.41252 22.7141 3.38723 22.8526 3.41799 22.983C3.44874 23.1136 3.53352 23.2266 3.65129 23.293C4.17556 23.5873 4.73605 23.8192 5.318 23.9826C5.36028 23.9943 5.40379 24.0002 5.44709 24.0002C5.53572 24.0002 5.62394 23.9757 5.70063 23.9285C5.81455 23.8583 5.89488 23.7424 5.92078 23.6112C6.05918 22.9087 6.68078 22.3986 7.3987 22.3986C8.11661 22.3986 8.73862 22.9085 8.87662 23.6112C8.90252 23.7426 8.98264 23.8583 9.09677 23.9285C9.21089 23.9988 9.3503 24.0184 9.4798 23.9824C10.0611 23.8194 10.6216 23.5873 11.1465 23.2926C11.2635 23.2266 11.3482 23.1138 11.3792 22.983C11.41 22.8526 11.3847 22.7139 11.31 22.6031C10.9104 22.0091 10.9885 21.2102 11.496 20.7037C12.0038 20.1962 12.8047 20.1181 13.4002 20.518C13.5117 20.593 13.6507 20.6179 13.7814 20.5867C13.9119 20.5553 14.0242 20.4702 14.089 20.3542C14.3846 19.8293 14.6171 19.2691 14.7798 18.6896C14.816 18.5606 14.7964 18.421 14.7262 18.3068C14.656 18.1926 14.5402 18.1122 14.4087 18.0863C14.4087 18.0863 14.4083 18.0863 14.4081 18.0863C13.7043 17.9488 13.1936 17.3285 13.1936 16.6116C13.1936 15.8947 13.7041 15.2748 14.4079 15.1371C14.5396 15.1114 14.6556 15.031 14.726 14.9166C14.7962 14.8024 14.8158 14.6628 14.7796 14.5336C14.6173 13.9548 14.385 13.3949 14.0888 12.8678C14.0228 12.7513 13.9103 12.6671 13.78 12.6363C13.6497 12.6055 13.5113 12.6306 13.4002 12.7052C12.8049 13.1047 12.004 13.0267 11.4958 12.5192C10.9883 12.0126 10.9102 11.2137 11.3098 10.6197C11.3847 10.5085 11.41 10.37 11.3792 10.2396C11.3484 10.109 11.2635 9.99616 11.1457 9.92954C10.6196 9.63468 10.0591 9.4028 9.47919 9.24059C9.3497 9.20434 9.20967 9.22439 9.09535 9.29527C8.98123 9.36595 8.9013 9.48199 8.87641 9.6122C8.73841 10.3145 8.11702 10.8242 7.39849 10.8242C6.67997 10.8242 6.05857 10.3145 5.92098 9.612C5.89508 9.48057 5.81495 9.36493 5.70083 9.29466C5.58671 9.22419 5.44729 9.20455 5.318 9.2408C4.73828 9.40301 4.17759 9.63468 3.65048 9.93014C3.53373 9.99596 3.44895 10.1086 3.41799 10.239C3.38703 10.3694 3.41212 10.5079 3.48719 10.6199C3.88702 11.2137 3.80891 12.0124 3.30123 12.5192C2.79315 13.0265 1.99227 13.1045 1.39677 12.705C1.28569 12.6304 1.14728 12.6053 1.01718 12.6361C0.88707 12.6669 0.774567 12.7513 0.707996 12.8686C0.412776 13.3931 0.180486 13.9532 0.0178013 14.5336C-0.0184182 14.6628 0.0012091 14.8026 0.0716247 14.9168C0.141838 15.031 0.257781 15.1112 0.389507 15.1371C1.09306 15.2746 1.60357 15.8947 1.60357 16.6114C1.60357 17.3281 1.09306 17.9486 0.389304 18.0863L0.389507 18.0859ZM7.3987 13.5438C9.09312 13.5438 10.4719 14.9198 10.4719 16.6112C10.4719 18.3026 9.09333 19.679 7.3987 19.679C5.70407 19.679 4.3259 18.3028 4.3259 16.6112C4.3259 14.9196 5.70427 13.5438 7.3987 13.5438Z" fill="#1D1D1B"/>
<path d="M9.23943 16.611C9.23943 17.6225 8.41366 18.4458 7.39871 18.4458C6.38375 18.4458 5.55859 17.6223 5.55859 16.611C5.55859 15.5997 6.38375 14.7775 7.39871 14.7775C8.41366 14.7775 9.23943 15.6003 9.23943 16.611Z" fill="#1D1D1B"/>
<path d="M12.3462 8.86331C12.2144 8.88903 12.0985 8.96943 12.0281 9.08384C11.9579 9.19806 11.9382 9.33759 11.9745 9.467C12.1374 10.0466 12.3698 10.6063 12.6651 11.1314C12.7308 11.2483 12.8433 11.3331 12.9736 11.3641C13.1039 11.3951 13.2424 11.37 13.3536 11.2955C13.9493 10.8957 14.7502 10.9739 15.2581 11.4812C15.7656 11.9877 15.8437 12.7866 15.4441 13.3803C15.3692 13.4915 15.3439 13.63 15.3747 13.7604C15.4054 13.8911 15.4902 14.0041 15.608 14.0705C16.1322 14.3647 16.6927 14.5966 17.2747 14.76C17.317 14.7718 17.3605 14.7776 17.4038 14.7776C17.4924 14.7776 17.5806 14.7531 17.6573 14.706C17.7712 14.6357 17.8515 14.5199 17.8774 14.3886C18.0158 13.6861 18.6374 13.176 19.3554 13.176C20.0733 13.176 20.6953 13.6859 20.8333 14.3886C20.8592 14.5201 20.9393 14.6357 21.0534 14.706C21.1676 14.7762 21.307 14.7959 21.4365 14.7598C22.0178 14.5968 22.5783 14.3647 23.1032 14.0701C23.2201 14.0041 23.3049 13.8913 23.3359 13.7604C23.3666 13.63 23.3413 13.4913 23.2667 13.3805C22.867 12.7866 22.9451 11.9877 23.4526 11.4812C23.9605 10.9737 24.7614 10.8955 25.3569 11.2955C25.4684 11.3704 25.6074 11.3953 25.7381 11.3641C25.8686 11.3327 25.9809 11.2477 26.0457 11.1316C26.3413 10.6067 26.5738 10.0466 26.7365 9.467C26.7727 9.338 26.7531 9.19847 26.6828 9.08425C26.6126 8.97003 26.4969 8.88964 26.3654 8.86371C26.3654 8.86371 26.365 8.86371 26.3648 8.86371C25.661 8.72621 25.1503 8.10592 25.1503 7.38903C25.1503 6.67214 25.6608 6.05225 26.3646 5.91454C26.4963 5.88883 26.6122 5.80843 26.6826 5.69401C26.7529 5.57979 26.7725 5.44026 26.7363 5.31106C26.574 4.73229 26.3417 4.17234 26.0455 3.64521C25.9795 3.52876 25.867 3.44452 25.7367 3.41373C25.6064 3.38295 25.468 3.40806 25.3569 3.48259C24.7616 3.88214 23.9607 3.80418 23.4524 3.29668C22.9449 2.79 22.8668 1.99109 23.2665 1.39713C23.3413 1.28595 23.3666 1.14743 23.3359 1.01702C23.3051 0.886396 23.2201 0.773597 23.1024 0.706971C22.5763 0.412115 22.0158 0.180239 21.4359 0.0180279C21.3064 -0.0182216 21.1663 0.00182705 21.052 0.0727059C20.9379 0.143382 20.858 0.259421 20.8331 0.389636C20.6951 1.09194 20.0737 1.60167 19.3552 1.60167C18.6366 1.60167 18.0152 1.09194 17.8776 0.389433C17.8517 0.258004 17.7716 0.14237 17.6575 0.0720984C17.5434 0.00162453 17.404 -0.018019 17.2747 0.0182304C16.6949 0.180442 16.1343 0.412115 15.6071 0.707578C15.4904 0.773394 15.4056 0.885991 15.3747 1.01641C15.3437 1.14682 15.3688 1.28534 15.4439 1.39733C15.8437 1.99109 15.7656 2.7898 15.2579 3.29668C14.7498 3.80397 13.9489 3.88194 13.3534 3.48239C13.2424 3.40786 13.1039 3.38275 12.9738 3.41353C12.8437 3.44431 12.7312 3.52876 12.6647 3.64601C12.3694 4.17052 12.1372 4.73066 11.9745 5.31106C11.9382 5.44026 11.9579 5.58 12.0283 5.69421C12.0985 5.80843 12.2144 5.88862 12.3462 5.91454C13.0497 6.05205 13.5602 6.67214 13.5602 7.38883C13.5602 8.10551 13.0497 8.72601 12.346 8.86371L12.3462 8.86331ZM19.3554 4.32098C21.0498 4.32098 22.4286 5.69705 22.4286 7.38842C22.4286 9.07979 21.05 10.4563 19.3554 10.4563C17.6607 10.4563 16.2826 9.08 16.2826 7.38842C16.2826 5.69685 17.6609 4.32098 19.3554 4.32098Z" fill="#1D1D1B"/>
<path d="M21.1961 7.38822C21.1961 8.39977 20.3703 9.22297 19.3554 9.22297C18.3404 9.22297 17.5153 8.39956 17.5153 7.38822C17.5153 6.37688 18.3404 5.55469 19.3554 5.55469C20.3703 5.55469 21.1961 6.37749 21.1961 7.38822Z" fill="#1D1D1B"/>
</g>
<defs>
<clipPath id="clip0_363_10228">
<rect width="26.7541" height="24" fill="white"/>
</clipPath>
</defs>
</svg>
