<svg width="94" height="134" viewBox="0 0 94 134" fill="none" xmlns="http://www.w3.org/2000/svg">
<g clip-path="url(#clip0_388_451)">
<path d="M32.9018 42.9459C27.0885 42.9459 22.3667 38.2216 22.3667 32.4182C22.3667 26.6149 27.0944 21.8905 32.9018 21.8905C38.7092 21.8905 43.4369 26.6149 43.4369 32.4182C43.4369 38.2216 38.7092 42.9459 32.9018 42.9459ZM32.9018 24.6843C28.6352 24.6843 25.1624 28.1546 25.1624 32.4182C25.1624 36.6818 28.6352 40.1521 32.9018 40.1521C37.1683 40.1521 40.6411 36.6818 40.6411 32.4182C40.6411 28.1546 37.1683 24.6843 32.9018 24.6843Z" fill="#006E58"/>
<path d="M38.1086 52.6175C37.7876 52.6175 37.4665 52.53 37.1864 52.3609C36.7719 52.1042 36.4801 51.6843 36.3867 51.206C36.0598 49.5436 34.5948 48.3421 32.8963 48.3421C31.2036 48.3421 29.7327 49.5495 29.4058 51.206C29.3124 51.6843 29.0206 52.1042 28.6062 52.3609C28.1918 52.6175 27.684 52.6875 27.217 52.5533C25.6294 52.11 24.1001 51.4743 22.6643 50.6694C22.2382 50.4302 21.9288 50.0219 21.8179 49.5495C21.707 49.077 21.7946 48.5754 22.0689 48.1671C23.0145 46.7614 22.8277 44.8716 21.6312 43.6759C20.4346 42.4801 18.5435 42.2935 17.1368 43.2384C16.734 43.5125 16.2262 43.6 15.7534 43.4892C15.2807 43.3784 14.8721 43.0693 14.6328 42.6435C13.8273 41.2086 13.1911 39.6804 12.7475 38.0939C12.6132 37.6273 12.6891 37.1198 12.9401 36.7057C13.1969 36.2916 13.6172 35.9999 14.0958 35.9066C15.7593 35.58 16.9617 34.116 16.9617 32.4186C16.9617 30.7213 15.7534 29.2573 14.0958 28.9306C13.6172 28.8373 13.1969 28.5457 12.9401 28.1315C12.6833 27.7174 12.6132 27.21 12.7475 26.7433C13.1911 25.1568 13.8273 23.6286 14.6328 22.1938C14.8721 21.768 15.2807 21.4589 15.7534 21.348C16.2262 21.2372 16.734 21.3247 17.1368 21.5988C18.5435 22.5438 20.4346 22.3571 21.6312 21.1614C22.8277 19.9657 23.0145 18.0759 22.0689 16.6702C21.7946 16.2677 21.707 15.7602 21.8179 15.2878C21.9288 14.8153 22.2382 14.407 22.6643 14.1679C24.1001 13.363 25.6294 12.7272 27.217 12.2839C27.684 12.1498 28.1918 12.2256 28.6062 12.4764C29.0206 12.733 29.3124 13.153 29.4058 13.6313C29.7327 15.2936 31.1978 16.4952 32.8963 16.4952C34.5948 16.4952 36.0598 15.2878 36.3867 13.6313C36.4801 13.153 36.7719 12.733 37.1864 12.4764C37.6008 12.2198 38.1086 12.1498 38.5755 12.2839C40.1632 12.7272 41.6924 13.363 43.1283 14.1679C43.5544 14.407 43.8637 14.8153 43.9746 15.2878C44.0855 15.7602 43.998 16.2677 43.7236 16.6702C42.7781 18.0759 42.9648 19.9657 44.1614 21.1614C45.358 22.3571 47.2491 22.5438 48.6558 21.5988C49.0585 21.3247 49.5663 21.2372 50.0391 21.348C50.5119 21.4589 50.9205 21.768 51.1598 22.1938C51.9653 23.6286 52.6015 25.1568 53.0451 26.7433C53.1793 27.21 53.1035 27.7174 52.8525 28.1315C52.5956 28.5457 52.1754 28.8373 51.6968 28.9306C50.0333 29.2573 48.8309 30.7213 48.8309 32.4186C48.8309 34.116 50.0391 35.58 51.6968 35.9066C52.1754 35.9999 52.5956 36.2916 52.8525 36.7057C53.1093 37.1198 53.1793 37.6273 53.0451 38.0939C52.6015 39.6804 51.9653 41.2086 51.1598 42.6435C50.9205 43.0693 50.5119 43.3784 50.0391 43.4892C49.5663 43.6 49.0585 43.5125 48.6558 43.2384C47.2491 42.2935 45.358 42.4801 44.1614 43.6759C42.9648 44.8716 42.7781 46.7614 43.7236 48.1671C43.998 48.5696 44.0855 49.077 43.9746 49.5495C43.8637 50.0219 43.5544 50.4302 43.1283 50.6694C41.6924 51.4743 40.1632 52.11 38.5755 52.5533C38.4179 52.5942 38.2603 52.6175 38.1027 52.6175H38.1086ZM32.9021 45.5365C35.5404 45.5365 37.8693 47.1697 38.809 49.5495C39.5036 49.3103 40.1865 49.0303 40.8461 48.7095C39.8305 46.3589 40.3207 43.5592 42.1885 41.6986C44.0505 39.8379 46.8522 39.3421 49.2044 40.357C49.5255 39.6979 49.8056 39.0155 50.0449 38.3214C47.6635 37.3765 46.0292 35.0492 46.0292 32.4186C46.0292 29.788 47.6635 27.4549 50.0391 26.5159C49.7998 25.8218 49.5196 25.1393 49.1986 24.4802C46.8464 25.4951 44.0447 25.0052 42.1827 23.1387C40.3207 21.278 39.8246 18.4783 40.8402 16.1277C40.1807 15.8069 39.4978 15.5269 38.8032 15.2878C37.8576 17.6676 35.5287 19.2949 32.8963 19.2949C30.2639 19.2949 27.9291 17.6617 26.9894 15.2878C26.2948 15.5269 25.6119 15.8069 24.9523 16.1277C25.9679 18.4783 25.4776 21.278 23.6098 23.1387C21.7479 24.9993 18.9462 25.4951 16.5939 24.4802C16.2729 25.1393 15.9928 25.8218 15.7534 26.5159C18.1349 27.4608 19.7634 29.788 19.7634 32.4186C19.7634 35.0492 18.129 37.3823 15.7476 38.3214C15.9869 39.0155 16.2671 39.6979 16.5881 40.357C18.9404 39.3421 21.7421 39.8321 23.604 41.6986C25.466 43.5592 25.9621 46.3589 24.9465 48.7095C25.606 49.0303 26.289 49.3103 26.9835 49.5495C27.9291 47.1697 30.258 45.5365 32.8904 45.5365H32.9021Z" fill="#006E58"/>
<path d="M52.0706 56.8463C51.6211 56.2163 50.7456 56.0763 50.1152 56.5255C45.078 60.1301 39.1244 62.0374 32.8965 62.0374C28.8983 62.0374 25.0168 61.2558 21.3687 59.7101C17.8433 58.217 14.6739 56.0822 11.9539 53.3641C9.23393 50.646 7.09764 47.473 5.60341 43.95C4.05664 40.2987 3.2745 36.4199 3.2745 32.4186C3.2745 27.6358 4.40101 23.0162 6.55481 18.8516L6.74743 21.6047C6.79996 22.3746 7.4712 22.9579 8.24166 22.9054C9.01213 22.8529 9.59581 22.1821 9.54328 21.4122L9.05298 14.3079C9.05298 14.2671 9.04715 14.2321 9.04131 14.1912C9.02964 14.1212 9.01796 14.0571 8.99462 13.9871V13.9754C8.98294 13.9463 8.97127 13.9113 8.95959 13.8821C8.94792 13.8529 8.93625 13.8296 8.92457 13.8004C8.92457 13.7946 8.91874 13.7829 8.9129 13.7771C8.9129 13.7713 8.9129 13.7654 8.90123 13.7596C8.88955 13.7363 8.87788 13.7188 8.86621 13.6955C8.84869 13.6663 8.83118 13.643 8.81367 13.6138C8.81367 13.6138 8.80784 13.6021 8.802 13.6021C8.76114 13.5438 8.72028 13.4971 8.67359 13.4446C8.62689 13.3921 8.57436 13.3455 8.52183 13.3047C8.49265 13.2813 8.4693 13.2638 8.44011 13.2463C8.41093 13.2288 8.38758 13.2113 8.3584 13.1938C8.3584 13.1938 8.35256 13.1938 8.34673 13.1938C8.31754 13.1763 8.28836 13.1647 8.25917 13.153C8.25917 13.153 8.2475 13.153 8.24166 13.1472C8.18329 13.118 8.11909 13.0947 8.05488 13.0772C8.05488 13.0772 8.04905 13.0772 8.04321 13.0772C8.04321 13.0772 8.04321 13.0772 8.03737 13.0772C8.00819 13.0655 7.97317 13.0597 7.94398 13.0538C7.94398 13.0538 7.93815 13.0538 7.93231 13.0538C7.89729 13.048 7.8681 13.0422 7.83308 13.0364C7.79806 13.0364 7.76304 13.0305 7.73386 13.0305C7.73386 13.0305 7.72802 13.0305 7.72218 13.0305C7.65214 13.0305 7.5821 13.0305 7.51206 13.0364C7.44201 13.0422 7.37197 13.0597 7.30193 13.0772C7.26691 13.0888 7.23772 13.0947 7.2027 13.1063C7.17352 13.118 7.14433 13.1297 7.11515 13.1413C7.11515 13.1413 7.10348 13.1413 7.09764 13.1472C7.06845 13.1588 7.04511 13.1705 7.02176 13.1822L0.752982 16.3902C0.0642331 16.746 -0.198425 17.5917 0.157623 18.2742C0.408607 18.7525 0.893066 19.0266 1.40087 19.0266C1.61684 19.0266 1.83864 18.9741 2.04293 18.8691L3.88737 17.9125C1.64602 22.3863 0.472813 27.3208 0.472813 32.4186C0.472813 36.7932 1.33083 41.0395 3.02352 45.0349C4.65784 48.8962 6.99258 52.3609 9.96937 55.3414C12.9462 58.3161 16.4133 60.6551 20.2773 62.2882C24.2755 63.9797 28.5247 64.8372 32.8965 64.8372C39.7081 64.8372 46.2279 62.749 51.7437 58.8002C52.3741 58.3511 52.5142 57.4762 52.0647 56.8463H52.0706Z" fill="#006E58"/>
<path d="M65.6411 46.5573C65.285 45.869 64.4387 45.6065 63.7558 45.9623L61.9113 46.9189C64.1527 42.451 65.3259 37.5165 65.3259 32.4186C65.3259 28.0441 64.4679 23.7978 62.7752 19.8024C61.1409 15.9411 58.8061 12.4764 55.8293 9.49587C52.8525 6.52116 49.3854 4.18222 45.5214 2.54904C41.5232 0.857539 37.274 0.00012207 32.9022 0.00012207C26.0906 0.00012207 19.5708 2.08825 14.055 6.03704C13.4246 6.48616 13.2845 7.36107 13.734 7.99101C14.1834 8.62095 15.0589 8.76094 15.6893 8.31181C20.7265 4.70716 26.6801 2.79985 32.908 2.79985C36.9062 2.79985 40.7878 3.58144 44.4358 5.12712C47.9612 6.62031 51.1307 8.7551 53.8506 11.4732C56.5706 14.1912 58.7069 17.3643 60.2011 20.8873C61.7479 24.5386 62.53 28.4174 62.53 32.4186C62.53 37.2015 61.4035 41.8211 59.2497 45.9856L59.0571 43.2326C59.0046 42.4627 58.3333 41.8794 57.5629 41.9319C56.7924 41.9844 56.2087 42.6551 56.2612 43.4251L56.7515 50.5294C56.7515 50.5702 56.7574 50.6052 56.7632 50.646C56.7749 50.716 56.7866 50.7802 56.8099 50.8502V50.8618C56.8216 50.891 56.8333 50.926 56.8449 50.9552C56.8566 50.9843 56.8683 51.0077 56.88 51.0368C56.88 51.0427 56.8858 51.0543 56.8916 51.0602C56.8916 51.066 56.8916 51.0718 56.9033 51.0777C56.9091 51.0893 56.915 51.101 56.9208 51.1127C56.9266 51.1243 56.9383 51.1418 56.9442 51.1535C56.9558 51.171 56.9675 51.1885 56.9792 51.206C56.985 51.2176 56.9909 51.2235 56.9967 51.2351C57.0142 51.2585 57.0317 51.2818 57.0492 51.3051C57.0492 51.3051 57.0492 51.311 57.0551 51.3168C57.1193 51.3985 57.1951 51.4743 57.2769 51.5326C57.2769 51.5326 57.2827 51.5326 57.2885 51.5384C57.3119 51.5559 57.3352 51.5734 57.3586 51.5909C57.3644 51.5909 57.3761 51.6026 57.3819 51.6084C57.3994 51.6201 57.4228 51.6318 57.4403 51.6434C57.452 51.6493 57.4636 51.6551 57.4753 51.6609C57.4928 51.6726 57.5162 51.6784 57.5337 51.6901C57.5454 51.6901 57.557 51.7018 57.5687 51.7076C57.5862 51.7193 57.6096 51.7251 57.6271 51.7309C57.6387 51.7309 57.6504 51.7426 57.6621 51.7426C57.6854 51.7484 57.7088 51.7601 57.7321 51.7659C57.738 51.7659 57.7438 51.7659 57.7555 51.7718C57.773 51.7718 57.7963 51.7834 57.8139 51.7893C57.8255 51.7893 57.8372 51.7893 57.8489 51.7951C57.8722 51.7951 57.8956 51.8009 57.9189 51.8068C57.9248 51.8068 57.9364 51.8068 57.9423 51.8068C58.0065 51.8126 58.0707 51.8184 58.1349 51.8184C58.3158 51.8184 58.4909 51.7834 58.666 51.7134C58.6777 51.7134 58.6894 51.7076 58.6952 51.7018C58.7069 51.7018 58.7186 51.6901 58.7244 51.6901C58.7419 51.6843 58.7536 51.6784 58.7711 51.6668L65.0224 48.4237C65.7111 48.0679 65.9738 47.2222 65.6177 46.5398L65.6411 46.5573Z" fill="#006E58"/>
</g>
<path d="M43.8536 72.9047H28.006C26.7688 72.9047 25.7378 73.9027 25.7378 75.1648C25.7378 76.427 26.7393 77.425 28.006 77.425H30.4509L34.3097 125.505C34.6926 130.202 38.6103 133.812 43.3234 133.812H71.5132C76.2263 133.812 80.1735 130.202 80.527 125.505L84.3858 77.425H86.8307C88.0679 77.425 89.0988 76.427 89.0988 75.1648C89.0988 73.9027 88.0973 72.9047 86.8307 72.9047H43.8241H43.8536ZM79.8789 77.425L76.0496 125.153C75.8728 127.501 73.8993 129.292 71.5427 129.292H43.3528C40.9963 129.292 39.0227 127.472 38.8459 125.153L35.0166 77.425H79.9084H79.8789ZM45.9744 81.916C47.2116 81.8573 48.3015 82.7966 48.3604 84.0294L50.6286 122.364C50.6875 123.597 49.7154 124.654 48.4488 124.713C47.241 124.771 46.2101 123.832 46.0923 122.629L43.8241 84.2936C43.7357 83.0608 44.7078 81.9747 45.945 81.916H45.9744ZM68.8916 81.916C70.1288 81.9747 71.1009 83.0608 71.0125 84.2936L68.7444 122.629C68.6855 123.861 67.6545 124.83 66.3878 124.801C65.1212 124.771 64.1786 123.715 64.208 122.452C64.208 122.423 64.208 122.394 64.208 122.364L66.4762 84.0294C66.5351 82.7966 67.625 81.828 68.8622 81.916M57.433 81.916C58.6702 81.916 59.7012 82.914 59.7012 84.1762V122.511C59.7012 123.744 58.6997 124.771 57.433 124.771C56.1664 124.771 55.1649 123.773 55.1649 122.511V84.1762C55.1649 82.9434 56.1664 81.916 57.433 81.916Z" fill="#DC3545"/>
<path d="M84.3854 31.8988L89.0984 44.5793C89.5402 45.7534 88.9216 47.0449 87.7728 47.4852L83.5311 49.0409L77.2569 32.1337L81.4986 30.5779C82.6768 30.1376 83.9729 30.7541 84.4148 31.8988M68.361 21.1556L83.9435 63.101L85.5342 67.3572L86.3884 69.6467C86.8302 70.8208 88.1263 71.4079 89.3046 70.9676C90.4829 70.5273 91.072 69.2358 90.6301 68.0617L85.1218 53.2678L89.3635 51.7121C92.8688 50.4205 94.6657 46.5166 93.3696 43.0236L88.6565 30.3431C87.3605 26.8501 83.4427 25.0596 79.9374 26.3511L75.6956 27.9068L70.1873 13.1129C69.7454 11.9388 68.4494 11.3518 67.2711 11.7921C66.0928 12.2324 65.5037 13.5239 65.9455 14.698L66.7998 16.9875L68.3904 21.2437L68.361 21.1556Z" fill="#DC3545"/>
<defs>
<clipPath id="clip0_388_451">
<rect width="65.7988" height="64.8312" fill="white"/>
</clipPath>
</defs>
</svg>
