<svg width="244" height="135" viewBox="0 0 244 135" fill="none" xmlns="http://www.w3.org/2000/svg">
<g clip-path="url(#clip0_27_1402)">
<path d="M95.3776 100.368C110.071 79.2392 104.793 50.2414 83.5891 35.5999C62.3853 20.9585 33.2852 26.2178 18.5921 47.347C3.89893 68.4762 9.17683 97.474 30.3806 112.115C51.5843 126.757 80.6845 121.498 95.3776 100.368Z" stroke="#007C6C" stroke-linecap="round" stroke-linejoin="round" stroke-dasharray="3.97 3.97"/>
<path d="M54.3342 51.9302C55.6786 51.3129 57.6029 50.9058 59.7644 50.9058C61.9259 50.9058 63.8502 51.3129 65.1945 51.9302C66.6179 52.5869 67.132 53.3092 67.132 53.8608C67.132 54.4124 66.6048 55.1479 65.1945 55.7915C63.8502 56.4087 61.9259 56.8159 59.7644 56.8159C57.6029 56.8159 55.6786 56.4087 54.3342 55.7915C52.9108 55.1348 52.3968 54.4124 52.3968 53.8608C52.3968 53.3092 52.924 52.5737 54.3342 51.9302ZM67.1583 56.3431V58.2606C67.1583 58.8122 66.6311 59.5477 65.2209 60.1912C63.8765 60.7954 61.9522 61.2156 59.7907 61.2156C57.6292 61.2156 55.705 60.8085 54.3606 60.1912C52.9372 59.5345 52.4232 58.8122 52.4232 58.2606V56.3431C52.8317 56.6451 53.2799 56.8947 53.7543 57.118C55.3491 57.8272 57.4974 58.2606 59.8039 58.2606C62.1104 58.2606 64.2719 57.8272 65.8535 57.118C66.328 56.921 66.7761 56.6451 67.1847 56.3431H67.1583ZM68.6345 53.8608C68.6345 52.3767 67.3428 51.2735 65.814 50.5774C64.2192 49.8682 62.0709 49.4348 59.7644 49.4348C57.4579 49.4348 55.2964 49.8682 53.7148 50.5774C52.1991 51.2735 50.8943 52.3636 50.8943 53.8608V67.1126C50.8943 68.5967 52.1859 69.6999 53.7148 70.396C55.3096 71.1052 57.4579 71.5386 59.7644 71.5386C62.0709 71.5386 64.2324 71.1183 65.814 70.396C67.3297 69.6999 68.6345 68.6098 68.6345 67.1126V53.8608ZM67.1583 60.7691V62.6866C67.1583 63.2382 66.6311 63.9737 65.2209 64.6172C63.8765 65.2214 61.9522 65.6416 59.7907 65.6416C57.6292 65.6416 55.705 65.2345 54.3606 64.6172C52.9372 63.9605 52.4232 63.2382 52.4232 62.6866V60.7691C52.8317 61.0712 53.2799 61.3207 53.7543 61.544C55.3491 62.2532 57.4974 62.6866 59.8039 62.6866C62.1104 62.6866 64.2719 62.2532 65.8535 61.544C66.328 61.347 66.7761 61.0712 67.1847 60.7691H67.1583ZM67.1583 65.182V67.0995C67.1583 67.6511 66.6311 68.3866 65.2209 69.0301C63.8765 69.6343 61.9522 70.0545 59.7907 70.0545C57.6292 70.0545 55.705 69.6474 54.3606 69.0301C52.9372 68.3734 52.4232 67.6511 52.4232 67.0995V65.182C52.8317 65.484 53.2799 65.7336 53.7543 65.9569C55.3491 66.6661 57.4974 67.0995 59.8039 67.0995C62.1104 67.0995 64.2719 66.6661 65.8535 65.9569C66.328 65.7336 66.7893 65.484 67.1847 65.182H67.1583Z" fill="black"/>
<path d="M62.2552 97.8715H41.655C40.6533 97.8715 39.8362 97.0572 39.8362 96.0591V78.2368C39.8362 77.2386 40.6402 76.4375 41.655 76.4375H62.2552C63.2569 76.4375 64.0741 77.2386 64.0741 78.2368V96.0591C64.0741 97.0572 63.2701 97.8715 62.2552 97.8715ZM41.655 77.1598C41.0619 77.1598 40.5611 77.6458 40.5611 78.2499V96.0722C40.5611 96.6632 41.0487 97.1623 41.655 97.1623H62.2552C62.8483 97.1623 63.3492 96.6763 63.3492 96.0722V78.2499C63.3492 77.6589 62.8615 77.1598 62.2552 77.1598H41.655Z" fill="black" stroke="black" stroke-width="0.56" stroke-miterlimit="10"/>
<path d="M61.8204 80.6272H40.2053V81.3627H61.8204V80.6272Z" fill="black" stroke="black" stroke-width="0.56" stroke-miterlimit="10"/>
<path d="M60.9241 78.5256H60.2915V79.2611H60.9241V78.5256Z" fill="black" stroke="black" stroke-width="0.56" stroke-miterlimit="10"/>
<path d="M58.4463 78.5256H57.7874V79.2611H58.4463V78.5256Z" fill="black" stroke="black" stroke-width="0.56" stroke-miterlimit="10"/>
<path d="M55.942 78.5256H55.283V79.2611H55.942V78.5256Z" fill="black" stroke="black" stroke-width="0.56" stroke-miterlimit="10"/>
<path d="M52.6471 84.4883L50.5383 93.8394L51.25 93.997L53.3588 84.6459L52.6471 84.4883Z" fill="black" stroke="black" stroke-width="0.56" stroke-miterlimit="10"/>
<path d="M55.9684 92.5787L55.4939 92.0271L58.6834 89.2953L55.4939 86.5504L55.9684 85.9988L59.7906 89.2953L55.9684 92.5787Z" fill="black" stroke="black" stroke-width="0.56" stroke-miterlimit="10"/>
<path d="M47.9418 92.5787L44.1196 89.2953L47.9418 85.9988L48.4295 86.5504L45.2399 89.2953L48.4295 92.0271L47.9418 92.5787Z" fill="black" stroke="black" stroke-width="0.56" stroke-miterlimit="10"/>
<path d="M74.5786 80.7715C74.1701 80.7715 73.8406 81.0998 73.8406 81.507C73.8406 81.9141 74.1701 82.2424 74.5786 82.2424H81.9858C82.3943 82.2424 82.7238 81.9141 82.7238 81.507C82.7238 81.0998 82.3943 80.7715 81.9858 80.7715H74.5786Z" fill="black"/>
<path d="M73.8406 84.462C73.8406 84.0549 74.1701 83.7266 74.5786 83.7266H81.9858C82.3943 83.7266 82.7238 84.0549 82.7238 84.462C82.7238 84.8692 82.3943 85.1975 81.9858 85.1975H74.5786C74.1701 85.1975 73.8406 84.8692 73.8406 84.462Z" fill="black"/>
<path d="M73.8406 87.4171C73.8406 87.01 74.1701 86.6816 74.5786 86.6816H77.5441C77.9527 86.6816 78.2822 87.01 78.2822 87.4171C78.2822 87.8243 77.9527 88.1526 77.5441 88.1526H74.5786C74.1701 88.1526 73.8406 87.8243 73.8406 87.4171Z" fill="black"/>
<path d="M80.4964 70.4353H72.3512C70.7169 70.4353 69.3857 71.7618 69.3857 73.3904V91.1075C69.3857 92.7361 70.7169 94.0626 72.3512 94.0626H84.2C85.8343 94.0626 87.1655 92.7361 87.1655 91.1075V77.0809L80.4964 70.4353ZM80.4964 71.9063V74.8613C80.4964 76.0827 81.4849 77.0809 82.7238 77.0809H85.6893V91.1075C85.6893 91.9218 85.0303 92.5785 84.2132 92.5785H72.3644C71.5472 92.5785 70.8883 91.9218 70.8883 91.1075V73.3904C70.8883 72.5761 71.5472 71.9194 72.3644 71.9194H80.5096L80.4964 71.9063Z" fill="black"/>
<path d="M37.911 66.3095C42.2636 56.3865 37.7196 44.8263 27.7616 40.4891C17.8036 36.1518 6.20266 40.6798 1.85006 50.6028C-2.50253 60.5257 2.04151 72.0859 11.9995 76.4232C21.9574 80.7605 33.5584 76.2324 37.911 66.3095Z" fill="#001A2F" stroke="#001A2F" stroke-width="0.29" stroke-miterlimit="10"/>
<path d="M25.121 50.0915C25.121 50.6693 24.6465 51.1421 24.0666 51.1421C23.4867 51.1421 23.0122 50.6693 23.0122 50.0915C23.0122 49.5136 23.4867 49.0408 24.0666 49.0408C24.6465 49.0408 25.121 49.5136 25.121 50.0915Z" fill="#FF35A1"/>
<path d="M29.3122 54.268C29.3122 54.8458 28.8377 55.3187 28.2578 55.3187C27.6778 55.3187 27.2034 54.8458 27.2034 54.268C27.2034 53.6901 27.6778 53.2173 28.2578 53.2173C28.8377 53.2173 29.3122 53.6901 29.3122 54.268Z" fill="#FF35A1"/>
<path d="M23.0253 56.3561C23.0253 56.934 22.5508 57.4068 21.9709 57.4068C21.391 57.4068 20.9165 56.934 20.9165 56.3561C20.9165 55.7782 21.391 55.3054 21.9709 55.3054C22.5508 55.3054 23.0253 55.7782 23.0253 56.3561Z" fill="#00AA73"/>
<path d="M18.8209 48.0031C18.8209 48.581 18.3465 49.0538 17.7666 49.0538C17.1866 49.0538 16.7122 48.581 16.7122 48.0031C16.7122 47.4252 17.1866 46.9524 17.7666 46.9524C18.3465 46.9524 18.8209 47.4252 18.8209 48.0031Z" fill="#00AA73"/>
<path d="M10.4386 50.0915C10.4386 50.6693 9.96414 51.1421 9.38423 51.1421C8.80431 51.1421 8.32983 50.6693 8.32983 50.0915C8.32983 49.5136 8.80431 49.0408 9.38423 49.0408C9.96414 49.0408 10.4386 49.5136 10.4386 50.0915Z" fill="#00AA73"/>
<path d="M18.8209 50.0915C18.8209 50.6693 18.3465 51.1421 17.7666 51.1421C17.1866 51.1421 16.7122 50.6693 16.7122 50.0915C16.7122 49.5136 17.1866 49.0408 17.7666 49.0408C18.3465 49.0408 18.8209 49.5136 18.8209 50.0915Z" fill="#00AA73"/>
<path d="M10.4386 52.1796C10.4386 52.7575 9.96414 53.2303 9.38423 53.2303C8.80431 53.2303 8.32983 52.7575 8.32983 52.1796C8.32983 51.6017 8.80431 51.1289 9.38423 51.1289C9.96414 51.1289 10.4386 51.6017 10.4386 52.1796Z" fill="#00AA73"/>
<path d="M18.8209 52.1796C18.8209 52.7575 18.3465 53.2303 17.7666 53.2303C17.1866 53.2303 16.7122 52.7575 16.7122 52.1796C16.7122 51.6017 17.1866 51.1289 17.7666 51.1289C18.3465 51.1289 18.8209 51.6017 18.8209 52.1796Z" fill="#00AA73"/>
<path d="M10.4386 54.268C10.4386 54.8458 9.96414 55.3187 9.38423 55.3187C8.80431 55.3187 8.32983 54.8458 8.32983 54.268C8.32983 53.6901 8.80431 53.2173 9.38423 53.2173C9.96414 53.2173 10.4386 53.6901 10.4386 54.268Z" fill="#00AA73"/>
<path d="M12.5341 54.268C12.5341 54.8458 12.0596 55.3187 11.4797 55.3187C10.8998 55.3187 10.4253 54.8458 10.4253 54.268C10.4253 53.6901 10.8998 53.2173 11.4797 53.2173C12.0596 53.2173 12.5341 53.6901 12.5341 54.268Z" fill="#00AA73"/>
<path d="M14.6298 54.268C14.6298 54.8458 14.1553 55.3187 13.5754 55.3187C12.9955 55.3187 12.521 54.8458 12.521 54.268C12.521 53.6901 12.9955 53.2173 13.5754 53.2173C14.1553 53.2173 14.6298 53.6901 14.6298 54.268Z" fill="#00AA73"/>
<path d="M18.8209 54.268C18.8209 54.8458 18.3465 55.3187 17.7666 55.3187C17.1866 55.3187 16.7122 54.8458 16.7122 54.268C16.7122 53.6901 17.1866 53.2173 17.7666 53.2173C18.3465 53.2173 18.8209 53.6901 18.8209 54.268Z" fill="#00AA73"/>
<path d="M20.9298 54.268C20.9298 54.8458 20.4554 55.3187 19.8754 55.3187C19.2955 55.3187 18.821 54.8458 18.821 54.268C18.821 53.6901 19.2955 53.2173 19.8754 53.2173C20.4554 53.2173 20.9298 53.6901 20.9298 54.268Z" fill="#00AA73"/>
<path d="M23.0253 54.268C23.0253 54.8458 22.5508 55.3187 21.9709 55.3187C21.391 55.3187 20.9165 54.8458 20.9165 54.268C20.9165 53.6901 21.391 53.2173 21.9709 53.2173C22.5508 53.2173 23.0253 53.6901 23.0253 54.268Z" fill="#00AA73"/>
<path d="M25.121 54.268C25.121 54.8458 24.6465 55.3187 24.0666 55.3187C23.4867 55.3187 23.0122 54.8458 23.0122 54.268C23.0122 53.6901 23.4867 53.2173 24.0666 53.2173C24.6465 53.2173 25.121 53.6901 25.121 54.268Z" fill="#00AA73"/>
<path d="M14.6298 56.3561C14.6298 56.934 14.1553 57.4068 13.5754 57.4068C12.9955 57.4068 12.521 56.934 12.521 56.3561C12.521 55.7782 12.9955 55.3054 13.5754 55.3054C14.1553 55.3054 14.6298 55.7782 14.6298 56.3561Z" fill="#00AA73"/>
<path d="M20.9298 56.3561C20.9298 56.934 20.4554 57.4068 19.8754 57.4068C19.2955 57.4068 18.821 56.934 18.821 56.3561C18.821 55.7782 19.2955 55.3054 19.8754 55.3054C20.4554 55.3054 20.9298 55.7782 20.9298 56.3561Z" fill="#00AA73"/>
<path d="M25.121 56.3561C25.121 56.934 24.6465 57.4068 24.0666 57.4068C23.4867 57.4068 23.0122 56.934 23.0122 56.3561C23.0122 55.7782 23.4867 55.3054 24.0666 55.3054C24.6465 55.3054 25.121 55.7782 25.121 56.3561Z" fill="#00AA73"/>
<path d="M14.6298 58.4574C14.6298 59.0353 14.1553 59.5081 13.5754 59.5081C12.9955 59.5081 12.521 59.0353 12.521 58.4574C12.521 57.8795 12.9955 57.4067 13.5754 57.4067C14.1553 57.4067 14.6298 57.8795 14.6298 58.4574Z" fill="#00AA73"/>
<path d="M18.8209 58.4574C18.8209 59.0353 18.3465 59.5081 17.7666 59.5081C17.1866 59.5081 16.7122 59.0353 16.7122 58.4574C16.7122 57.8795 17.1866 57.4067 17.7666 57.4067C18.3465 57.4067 18.8209 57.8795 18.8209 58.4574Z" fill="#00AA73"/>
<path d="M20.9298 58.4574C20.9298 59.0353 20.4554 59.5081 19.8754 59.5081C19.2955 59.5081 18.821 59.0353 18.821 58.4574C18.821 57.8795 19.2955 57.4067 19.8754 57.4067C20.4554 57.4067 20.9298 57.8795 20.9298 58.4574Z" fill="#00AA73"/>
<path d="M23.0253 58.4574C23.0253 59.0353 22.5508 59.5081 21.9709 59.5081C21.391 59.5081 20.9165 59.0353 20.9165 58.4574C20.9165 57.8795 21.391 57.4067 21.9709 57.4067C22.5508 57.4067 23.0253 57.8795 23.0253 58.4574Z" fill="#00AA73"/>
<path d="M25.121 58.4574C25.121 59.0353 24.6465 59.5081 24.0666 59.5081C23.4867 59.5081 23.0122 59.0353 23.0122 58.4574C23.0122 57.8795 23.4867 57.4067 24.0666 57.4067C24.6465 57.4067 25.121 57.8795 25.121 58.4574Z" fill="#00AA73"/>
<path d="M14.6298 60.5458C14.6298 61.1237 14.1553 61.5965 13.5754 61.5965C12.9955 61.5965 12.521 61.1237 12.521 60.5458C12.521 59.9679 12.9955 59.4951 13.5754 59.4951C14.1553 59.4951 14.6298 59.9679 14.6298 60.5458Z" fill="#00AA73"/>
<path d="M18.8209 60.5458C18.8209 61.1237 18.3465 61.5965 17.7666 61.5965C17.1866 61.5965 16.7122 61.1237 16.7122 60.5458C16.7122 59.9679 17.1866 59.4951 17.7666 59.4951C18.3465 59.4951 18.8209 59.9679 18.8209 60.5458Z" fill="#00AA73"/>
<path d="M20.9298 60.5458C20.9298 61.1237 20.4554 61.5965 19.8754 61.5965C19.2955 61.5965 18.821 61.1237 18.821 60.5458C18.821 59.9679 19.2955 59.4951 19.8754 59.4951C20.4554 59.4951 20.9298 59.9679 20.9298 60.5458Z" fill="#00AA73"/>
<path d="M25.121 60.5458C25.121 61.1237 24.6465 61.5965 24.0666 61.5965C23.4867 61.5965 23.0122 61.1237 23.0122 60.5458C23.0122 59.9679 23.4867 59.4951 24.0666 59.4951C24.6465 59.4951 25.121 59.9679 25.121 60.5458Z" fill="#00AA73"/>
<path d="M25.121 62.6339C25.121 63.2118 24.6465 63.6846 24.0666 63.6846C23.4867 63.6846 23.0122 63.2118 23.0122 62.6339C23.0122 62.0561 23.4867 61.5833 24.0666 61.5833C24.6465 61.5833 25.121 62.0561 25.121 62.6339Z" fill="#00AA73"/>
<path d="M27.2165 62.6339C27.2165 63.2118 26.742 63.6846 26.1621 63.6846C25.5821 63.6846 25.1077 63.2118 25.1077 62.6339C25.1077 62.0561 25.5821 61.5833 26.1621 61.5833C26.742 61.5833 27.2165 62.0561 27.2165 62.6339Z" fill="#00AA73"/>
<path d="M29.3122 62.6339C29.3122 63.2118 28.8377 63.6846 28.2578 63.6846C27.6778 63.6846 27.2034 63.2118 27.2034 62.6339C27.2034 62.0561 27.6778 61.5833 28.2578 61.5833C28.8377 61.5833 29.3122 62.0561 29.3122 62.6339Z" fill="#00AA73"/>
<path d="M31.4079 62.6339C31.4079 63.2118 30.9334 63.6846 30.3535 63.6846C29.7736 63.6846 29.2991 63.2118 29.2991 62.6339C29.2991 62.0561 29.7736 61.5833 30.3535 61.5833C30.9334 61.5833 31.4079 62.0561 31.4079 62.6339Z" fill="#00AA73"/>
<path d="M18.8209 64.7223C18.8209 65.3002 18.3465 65.773 17.7666 65.773C17.1866 65.773 16.7122 65.3002 16.7122 64.7223C16.7122 64.1444 17.1866 63.6716 17.7666 63.6716C18.3465 63.6716 18.8209 64.1444 18.8209 64.7223Z" fill="#00AA73"/>
<path d="M20.9298 64.7223C20.9298 65.3002 20.4554 65.773 19.8754 65.773C19.2955 65.773 18.821 65.3002 18.821 64.7223C18.821 64.1444 19.2955 63.6716 19.8754 63.6716C20.4554 63.6716 20.9298 64.1444 20.9298 64.7223Z" fill="#00AA73"/>
<path d="M12.5341 66.8105C12.5341 67.3883 12.0596 67.8611 11.4797 67.8611C10.8998 67.8611 10.4253 67.3883 10.4253 66.8105C10.4253 66.2326 10.8998 65.7598 11.4797 65.7598C12.0596 65.7598 12.5341 66.2326 12.5341 66.8105Z" fill="#00AA73"/>
<path d="M14.6298 66.8105C14.6298 67.3883 14.1553 67.8611 13.5754 67.8611C12.9955 67.8611 12.521 67.3883 12.521 66.8105C12.521 66.2326 12.9955 65.7598 13.5754 65.7598C14.1553 65.7598 14.6298 66.2326 14.6298 66.8105Z" fill="#00AA73"/>
<path d="M16.7252 66.8105C16.7252 67.3883 16.2508 67.8611 15.6708 67.8611C15.0909 67.8611 14.6165 67.3883 14.6165 66.8105C14.6165 66.2326 15.0909 65.7598 15.6708 65.7598C16.2508 65.7598 16.7252 66.2326 16.7252 66.8105Z" fill="#00AA73"/>
<path d="M18.8209 66.8105C18.8209 67.3883 18.3465 67.8611 17.7666 67.8611C17.1866 67.8611 16.7122 67.3883 16.7122 66.8105C16.7122 66.2326 17.1866 65.7598 17.7666 65.7598C18.3465 65.7598 18.8209 66.2326 18.8209 66.8105Z" fill="#00AA73"/>
<path d="M20.9298 66.8105C20.9298 67.3883 20.4554 67.8611 19.8754 67.8611C19.2955 67.8611 18.821 67.3883 18.821 66.8105C18.821 66.2326 19.2955 65.7598 19.8754 65.7598C20.4554 65.7598 20.9298 66.2326 20.9298 66.8105Z" fill="#00AA73"/>
<path d="M23.0253 66.8105C23.0253 67.3883 22.5508 67.8611 21.9709 67.8611C21.391 67.8611 20.9165 67.3883 20.9165 66.8105C20.9165 66.2326 21.391 65.7598 21.9709 65.7598C22.5508 65.7598 23.0253 66.2326 23.0253 66.8105Z" fill="#00AA73"/>
<path d="M12.5341 68.8986C12.5341 69.4765 12.0596 69.9493 11.4797 69.9493C10.8998 69.9493 10.4253 69.4765 10.4253 68.8986C10.4253 68.3207 10.8998 67.8479 11.4797 67.8479C12.0596 67.8479 12.5341 68.3207 12.5341 68.8986Z" fill="#00AA73"/>
<path d="M18.8209 45.9149C18.8209 46.4928 18.3465 46.9656 17.7666 46.9656C17.1866 46.9656 16.7122 46.4928 16.7122 45.9149C16.7122 45.3371 17.1866 44.8643 17.7666 44.8643C18.3465 44.8643 18.8209 45.3371 18.8209 45.9149Z" fill="#00AA73"/>
<path d="M10.4386 48.0031C10.4386 48.581 9.96414 49.0538 9.38423 49.0538C8.80431 49.0538 8.32983 48.581 8.32983 48.0031C8.32983 47.4252 8.80431 46.9524 9.38423 46.9524C9.96414 46.9524 10.4386 47.4252 10.4386 48.0031Z" fill="#00AA73"/>
<path d="M16.7252 48.0031C16.7252 48.581 16.2508 49.0538 15.6708 49.0538C15.0909 49.0538 14.6165 48.581 14.6165 48.0031C14.6165 47.4252 15.0909 46.9524 15.6708 46.9524C16.2508 46.9524 16.7252 47.4252 16.7252 48.0031Z" fill="#00AA73"/>
<path d="M20.9298 48.0031C20.9298 48.581 20.4554 49.0538 19.8754 49.0538C19.2955 49.0538 18.821 48.581 18.821 48.0031C18.821 47.4252 19.2955 46.9524 19.8754 46.9524C20.4554 46.9524 20.9298 47.4252 20.9298 48.0031Z" fill="#00AA73"/>
<path d="M8.34292 50.0915C8.34292 50.6693 7.86844 51.1421 7.28853 51.1421C6.70861 51.1421 6.23413 50.6693 6.23413 50.0915C6.23413 49.5136 6.70861 49.0408 7.28853 49.0408C7.86844 49.0408 8.34292 49.5136 8.34292 50.0915Z" fill="#00AA73"/>
<path d="M12.5341 50.0915C12.5341 50.6693 12.0596 51.1421 11.4797 51.1421C10.8998 51.1421 10.4253 50.6693 10.4253 50.0915C10.4253 49.5136 10.8998 49.0408 11.4797 49.0408C12.0596 49.0408 12.5341 49.5136 12.5341 50.0915Z" fill="#00AA73"/>
<path d="M27.2165 50.0915C27.2165 50.6693 26.742 51.1421 26.1621 51.1421C25.5821 51.1421 25.1077 50.6693 25.1077 50.0915C25.1077 49.5136 25.5821 49.0408 26.1621 49.0408C26.742 49.0408 27.2165 49.5136 27.2165 50.0915Z" fill="#00AA73"/>
<path d="M23.0253 52.1796C23.0253 52.7575 22.5508 53.2303 21.9709 53.2303C21.391 53.2303 20.9165 52.7575 20.9165 52.1796C20.9165 51.6017 21.391 51.1289 21.9709 51.1289C22.5508 51.1289 23.0253 51.6017 23.0253 52.1796Z" fill="#00AA73"/>
<path d="M25.121 52.1796C25.121 52.7575 24.6465 53.2303 24.0666 53.2303C23.4867 53.2303 23.0122 52.7575 23.0122 52.1796C23.0122 51.6017 23.4867 51.1289 24.0666 51.1289C24.6465 51.1289 25.121 51.6017 25.121 52.1796Z" fill="#00AA73"/>
<path d="M27.2165 52.1796C27.2165 52.7575 26.742 53.2303 26.1621 53.2303C25.5821 53.2303 25.1077 52.7575 25.1077 52.1796C25.1077 51.6017 25.5821 51.1289 26.1621 51.1289C26.742 51.1289 27.2165 51.6017 27.2165 52.1796Z" fill="#00AA73"/>
<path d="M29.3122 52.1796C29.3122 52.7575 28.8377 53.2303 28.2578 53.2303C27.6778 53.2303 27.2034 52.7575 27.2034 52.1796C27.2034 51.6017 27.6778 51.1289 28.2578 51.1289C28.8377 51.1289 29.3122 51.6017 29.3122 52.1796Z" fill="#00AA73"/>
<path d="M27.2165 54.268C27.2165 54.8458 26.742 55.3187 26.1621 55.3187C25.5821 55.3187 25.1077 54.8458 25.1077 54.268C25.1077 53.6901 25.5821 53.2173 26.1621 53.2173C26.742 53.2173 27.2165 53.6901 27.2165 54.268Z" fill="#00AA73"/>
<path d="M18.8209 56.3561C18.8209 56.934 18.3465 57.4068 17.7666 57.4068C17.1866 57.4068 16.7122 56.934 16.7122 56.3561C16.7122 55.7782 17.1866 55.3054 17.7666 55.3054C18.3465 55.3054 18.8209 55.7782 18.8209 56.3561Z" fill="#00AA73"/>
<path d="M27.2165 56.3561C27.2165 56.934 26.742 57.4068 26.1621 57.4068C25.5821 57.4068 25.1077 56.934 25.1077 56.3561C25.1077 55.7782 25.5821 55.3054 26.1621 55.3054C26.742 55.3054 27.2165 55.7782 27.2165 56.3561Z" fill="#00AA73"/>
<path d="M16.7252 58.4574C16.7252 59.0353 16.2508 59.5081 15.6708 59.5081C15.0909 59.5081 14.6165 59.0353 14.6165 58.4574C14.6165 57.8795 15.0909 57.4067 15.6708 57.4067C16.2508 57.4067 16.7252 57.8795 16.7252 58.4574Z" fill="#00AA73"/>
<path d="M16.7252 60.5458C16.7252 61.1237 16.2508 61.5965 15.6708 61.5965C15.0909 61.5965 14.6165 61.1237 14.6165 60.5458C14.6165 59.9679 15.0909 59.4951 15.6708 59.4951C16.2508 59.4951 16.7252 59.9679 16.7252 60.5458Z" fill="#00AA73"/>
<path d="M23.0253 60.5458C23.0253 61.1237 22.5508 61.5965 21.9709 61.5965C21.391 61.5965 20.9165 61.1237 20.9165 60.5458C20.9165 59.9679 21.391 59.4951 21.9709 59.4951C22.5508 59.4951 23.0253 59.9679 23.0253 60.5458Z" fill="#00AA73"/>
<path d="M31.4079 60.5458C31.4079 61.1237 30.9334 61.5965 30.3535 61.5965C29.7736 61.5965 29.2991 61.1237 29.2991 60.5458C29.2991 59.9679 29.7736 59.4951 30.3535 59.4951C30.9334 59.4951 31.4079 59.9679 31.4079 60.5458Z" fill="#00AA73"/>
<path d="M16.7252 62.6339C16.7252 63.2118 16.2508 63.6846 15.6708 63.6846C15.0909 63.6846 14.6165 63.2118 14.6165 62.6339C14.6165 62.0561 15.0909 61.5833 15.6708 61.5833C16.2508 61.5833 16.7252 62.0561 16.7252 62.6339Z" fill="#00AA73"/>
<path d="M18.8209 62.6339C18.8209 63.2118 18.3465 63.6846 17.7666 63.6846C17.1866 63.6846 16.7122 63.2118 16.7122 62.6339C16.7122 62.0561 17.1866 61.5833 17.7666 61.5833C18.3465 61.5833 18.8209 62.0561 18.8209 62.6339Z" fill="#00AA73"/>
<path d="M20.9298 62.6339C20.9298 63.2118 20.4554 63.6846 19.8754 63.6846C19.2955 63.6846 18.821 63.2118 18.821 62.6339C18.821 62.0561 19.2955 61.5833 19.8754 61.5833C20.4554 61.5833 20.9298 62.0561 20.9298 62.6339Z" fill="#00AA73"/>
<path d="M33.5033 62.6339C33.5033 63.2118 33.0288 63.6846 32.4489 63.6846C31.869 63.6846 31.3945 63.2118 31.3945 62.6339C31.3945 62.0561 31.869 61.5833 32.4489 61.5833C33.0288 61.5833 33.5033 62.0561 33.5033 62.6339Z" fill="#00AA73"/>
<path d="M31.4079 64.7223C31.4079 65.3002 30.9334 65.773 30.3535 65.773C29.7736 65.773 29.2991 65.3002 29.2991 64.7223C29.2991 64.1444 29.7736 63.6716 30.3535 63.6716C30.9334 63.6716 31.4079 64.1444 31.4079 64.7223Z" fill="#00AA73"/>
<path d="M10.4386 68.8986C10.4386 69.4765 9.96414 69.9493 9.38423 69.9493C8.80431 69.9493 8.32983 69.4765 8.32983 68.8986C8.32983 68.3207 8.80431 67.8479 9.38423 67.8479C9.96414 67.8479 10.4386 68.3207 10.4386 68.8986Z" fill="#00AA73"/>
<path d="M14.6298 68.8986C14.6298 69.4765 14.1553 69.9493 13.5754 69.9493C12.9955 69.9493 12.521 69.4765 12.521 68.8986C12.521 68.3207 12.9955 67.8479 13.5754 67.8479C14.1553 67.8479 14.6298 68.3207 14.6298 68.8986Z" fill="#00AA73"/>
<path d="M12.5341 70.987C12.5341 71.5648 12.0596 72.0376 11.4797 72.0376C10.8998 72.0376 10.4253 71.5648 10.4253 70.987C10.4253 70.4091 10.8998 69.9363 11.4797 69.9363C12.0596 69.9363 12.5341 70.4091 12.5341 70.987Z" fill="#00AA73"/>
<path d="M188.012 88.7698C187.603 88.7698 187.274 89.0981 187.274 89.5053C187.274 89.9124 187.603 90.2407 188.012 90.2407H195.419C195.827 90.2407 196.157 89.9124 196.157 89.5053C196.157 89.0981 195.827 88.7698 195.419 88.7698H188.012Z" fill="#DC3545"/>
<path d="M187.274 92.4603C187.274 92.0532 187.603 91.7249 188.012 91.7249H195.419C195.827 91.7249 196.157 92.0532 196.157 92.4603C196.157 92.8675 195.827 93.1958 195.419 93.1958H188.012C187.603 93.1958 187.274 92.8675 187.274 92.4603Z" fill="#DC3545"/>
<path d="M187.274 95.4022C187.274 94.9951 187.603 94.6667 188.012 94.6667H190.977C191.386 94.6667 191.715 94.9951 191.715 95.4022C191.715 95.8094 191.386 96.1377 190.977 96.1377H188.012C187.603 96.1377 187.274 95.8094 187.274 95.4022Z" fill="#DC3545"/>
<path d="M193.93 78.4336H185.784C184.15 78.4336 182.819 79.7601 182.819 81.3886V99.1058C182.819 100.734 184.15 102.061 185.784 102.061H197.633C199.267 102.061 200.599 100.734 200.599 99.1058V85.0792L193.93 78.4336ZM193.93 79.9046V82.8596C193.93 84.081 194.918 85.0792 196.157 85.0792H199.122V99.1058C199.122 99.9201 198.463 100.577 197.646 100.577H185.798C184.98 100.577 184.321 99.9201 184.321 99.1058V81.3886C184.321 80.5744 184.98 79.9177 185.798 79.9177H193.943L193.93 79.9046Z" fill="#DC3545"/>
<path d="M192.519 96.6238C192.322 96.7683 192.071 96.7814 191.847 96.6763C191.636 96.5712 191.504 96.348 191.504 96.1116" fill="#DC3545"/>
<path d="M195.221 107.761H188.13C187.577 107.761 187.115 108.208 187.115 108.772C187.115 109.337 187.564 109.784 188.13 109.784H189.224L190.951 131.296C191.122 133.398 192.875 135.013 194.984 135.013H207.597C209.706 135.013 211.472 133.398 211.63 131.296L213.357 109.784H214.451C215.004 109.784 215.465 109.337 215.465 108.772C215.465 108.208 215.017 107.761 214.451 107.761H195.208H195.221ZM211.34 109.784L209.627 131.139C209.548 132.189 208.665 132.991 207.61 132.991H194.997C193.943 132.991 193.06 132.176 192.981 131.139L191.267 109.784H211.353H211.34ZM196.17 111.793C196.724 111.767 197.211 112.187 197.238 112.739L198.253 129.891C198.279 130.443 197.844 130.915 197.277 130.942C196.737 130.968 196.276 130.548 196.223 130.009L195.208 112.857C195.168 112.305 195.603 111.819 196.157 111.793H196.17ZM206.424 111.793C206.978 111.819 207.413 112.305 207.373 112.857L206.358 130.009C206.332 130.561 205.871 130.994 205.304 130.981C204.737 130.968 204.315 130.495 204.328 129.93C204.328 129.917 204.328 129.904 204.328 129.891L205.343 112.739C205.37 112.187 205.857 111.754 206.411 111.793M201.297 111.793C201.851 111.793 202.312 112.24 202.312 112.804V129.957C202.312 130.508 201.864 130.968 201.297 130.968C200.73 130.968 200.282 130.521 200.282 129.957V112.804C200.282 112.253 200.73 111.793 201.297 111.793Z" fill="#DC3545"/>
<path d="M213.357 89.4135L215.466 95.0872C215.663 95.6125 215.387 96.1904 214.872 96.3874L212.975 97.0835L210.167 89.5185L212.065 88.8225C212.592 88.6255 213.172 88.9013 213.37 89.4135M206.187 84.6066L213.159 103.374L213.871 105.279L214.253 106.303C214.451 106.829 215.031 107.091 215.558 106.894C216.085 106.697 216.349 106.119 216.151 105.594L213.686 98.9747L215.584 98.2786C217.153 97.7008 217.957 95.954 217.377 94.3911L215.268 88.7174C214.688 87.1545 212.935 86.3533 211.367 86.9312L209.469 87.6273L207.004 81.008C206.806 80.4826 206.226 80.22 205.699 80.417C205.172 80.614 204.908 81.1919 205.106 81.7172L205.488 82.7416L206.2 84.646L206.187 84.6066Z" fill="#DC3545"/>
<path d="M198.041 26.5823C197.554 26.5823 197.158 26.9763 197.158 27.4622C197.158 27.9482 197.554 28.3422 198.041 28.3422H206.898C207.386 28.3422 207.781 27.9482 207.781 27.4622C207.781 26.9763 207.386 26.5823 206.898 26.5823H198.041Z" fill="#001A2F" stroke="#001A2F" stroke-width="0.29" stroke-miterlimit="10"/>
<path d="M197.158 30.982C197.158 30.4961 197.554 30.1021 198.041 30.1021H206.898C207.386 30.1021 207.781 30.4961 207.781 30.982C207.781 31.4679 207.386 31.8619 206.898 31.8619H198.041C197.554 31.8619 197.158 31.4679 197.158 30.982Z" fill="#001A2F" stroke="#001A2F" stroke-width="0.29" stroke-miterlimit="10"/>
<path d="M197.158 34.515C197.158 34.029 197.554 33.635 198.041 33.635H201.587C202.075 33.635 202.47 34.029 202.47 34.515C202.47 35.0009 202.075 35.3949 201.587 35.3949H198.041C197.554 35.3949 197.158 35.0009 197.158 34.515Z" fill="#001A2F" stroke="#001A2F" stroke-width="0.29" stroke-miterlimit="10"/>
<path d="M205.132 14.2236H195.392C193.442 14.2236 191.847 15.7997 191.847 17.7566V38.9279C191.847 40.8717 193.429 42.4608 195.392 42.4608H209.561C211.511 42.4608 213.106 40.8848 213.106 38.9279V22.1694L205.132 14.2236ZM205.132 15.9835V19.5165C205.132 20.9743 206.318 22.1694 207.795 22.1694H211.34V38.9279C211.34 39.8998 210.549 40.6878 209.574 40.6878H195.406C194.43 40.6878 193.639 39.8998 193.639 38.9279V17.7566C193.639 16.7847 194.43 15.9967 195.406 15.9967H205.145L205.132 15.9835Z" fill="#001A2F" stroke="#001A2F" stroke-width="0.29" stroke-miterlimit="10"/>
<path d="M203.986 45.9018H218.339C224.56 45.9018 229.687 41.0161 229.687 34.8827C229.687 29.301 225.43 24.7436 219.973 23.9687C219.143 15.1561 211.485 8.32666 202.272 8.32666C197.752 8.33979 193.376 9.96836 189.949 12.9103C187.326 15.1693 185.428 18.098 184.928 21.0531C179.181 22.3139 174.845 27.3047 174.845 33.3199C174.845 40.32 180.697 45.8887 187.801 45.8887H200.546H203.973L203.986 45.9018Z" stroke="#007C6C" stroke-width="1.06" stroke-miterlimit="10"/>
<path d="M226.326 8.94386C226.339 12.7263 226.365 16.5088 226.378 20.2913C226.378 21.0136 227.406 21.5521 227.921 20.9348C233.206 14.4862 238.491 8.03764 243.776 1.58906C244.501 0.695975 243.236 -0.591115 242.498 0.315102C237.212 6.76369 231.927 13.2123 226.642 19.6609L228.184 20.3044C228.171 16.5219 228.145 12.7395 228.131 8.95699C228.131 7.80124 226.313 7.78811 226.326 8.95699V8.94386Z" fill="#007C6C"/>
<path fill-rule="evenodd" clip-rule="evenodd" d="M146.757 33.2149C147.126 33.3462 147.311 33.7534 147.179 34.1211L144.266 42.0801C144.134 42.4478 143.726 42.6317 143.357 42.5003C142.988 42.369 142.803 41.9619 142.935 41.5941L145.268 35.2375L126.829 43.7874C126.473 43.9582 126.051 43.7874 125.88 43.446C125.709 43.0914 125.88 42.6711 126.223 42.5135L144.661 33.9635L138.282 31.652C137.913 31.5207 137.729 31.1135 137.861 30.7458C137.992 30.3781 138.401 30.1942 138.77 30.3255L146.757 33.228V33.2149Z" fill="black"/>
<path fill-rule="evenodd" clip-rule="evenodd" d="M146.757 119.699C147.126 119.568 147.311 119.161 147.179 118.793L144.266 110.834C144.134 110.466 143.726 110.283 143.357 110.414C142.988 110.545 142.803 110.952 142.935 111.32L145.268 117.677L126.829 109.127C126.473 108.956 126.051 109.127 125.88 109.468C125.709 109.823 125.88 110.243 126.223 110.401L144.661 118.951L138.282 121.262C137.913 121.394 137.729 121.801 137.861 122.168C137.992 122.536 138.401 122.72 138.77 122.589L146.757 119.686V119.699Z" fill="black"/>
</g>
<defs>
<clipPath id="clip0_27_1402">
<rect width="244" height="135" fill="white"/>
</clipPath>
</defs>
</svg>
