<svg width="164" height="111" viewBox="0 0 164 111" fill="none" xmlns="http://www.w3.org/2000/svg">
<path d="M82.652 110.06H37.1857C16.6641 110.06 0 93.8834 0 74.0326C0 54.1818 10.8008 43.9757 26.5906 39.485C28.4936 32.1366 33.3797 24.6862 40.2717 18.7667C49.7867 10.6528 61.9247 6.11111 74.4743 6.11111C99.3162 6.11111 119.941 23.4615 123.541 46.8844C138.251 50.2524 149 63.2142 149 78.064C149 92.9139 134.187 110.111 115.98 110.111H82.652V110.06Z" fill="#001A2F"/>
<path d="M91.9212 40.8177C91.9212 42.4291 90.6491 43.7012 89.0377 43.7012C87.4264 43.7012 86.1543 42.4291 86.1543 40.8177C86.1543 39.2064 87.4264 37.9343 89.0377 37.9343C90.6491 37.9343 91.9212 39.2064 91.9212 40.8177Z" fill="#FF35A1"/>
<path d="M103.37 52.2668C103.37 53.8781 102.098 55.1502 100.487 55.1502C98.8754 55.1502 97.6033 53.8781 97.6033 52.2668C97.6033 50.6555 98.8754 49.3834 100.487 49.3834C102.098 49.3834 103.37 50.6555 103.37 52.2668Z" fill="#FF35A1"/>
<path d="M86.2388 58.0337C86.2388 59.645 84.9667 60.9172 83.3554 60.9172C81.744 60.9172 80.4719 59.645 80.4719 58.0337C80.4719 56.4224 81.744 55.1503 83.3554 55.1503C84.9667 55.1503 86.2388 56.4224 86.2388 58.0337Z" fill="#00AA73"/>
<path d="M74.7898 35.1357C74.7898 36.7471 73.5177 38.0192 71.9064 38.0192C70.2951 38.0192 69.0229 36.7471 69.0229 35.1357C69.0229 33.5244 70.2951 32.2523 71.9064 32.2523C73.5177 32.2523 74.7898 33.5244 74.7898 35.1357Z" fill="#00AA73"/>
<path d="M51.8921 40.8177C51.8921 42.4291 50.62 43.7012 49.0087 43.7012C47.3973 43.7012 46.1252 42.4291 46.1252 40.8177C46.1252 39.2064 47.3973 37.9343 49.0087 37.9343C50.62 37.9343 51.8921 39.2064 51.8921 40.8177Z" fill="#00AA73"/>
<path d="M74.7898 40.8177C74.7898 42.4291 73.5177 43.7012 71.9064 43.7012C70.2951 43.7012 69.0229 42.4291 69.0229 40.8177C69.0229 39.2064 70.2951 37.9343 71.9064 37.9343C73.5177 37.9343 74.7898 39.2064 74.7898 40.8177Z" fill="#00AA73"/>
<path d="M51.8921 46.5848C51.8921 48.1961 50.62 49.4682 49.0087 49.4682C47.3973 49.4682 46.1252 48.1961 46.1252 46.5848C46.1252 44.9735 47.3973 43.7014 49.0087 43.7014C50.62 43.7014 51.8921 44.9735 51.8921 46.5848Z" fill="#00AA73"/>
<path d="M74.7898 46.5848C74.7898 48.1961 73.5177 49.4682 71.9064 49.4682C70.2951 49.4682 69.0229 48.1961 69.0229 46.5848C69.0229 44.9735 70.2951 43.7014 71.9064 43.7014C73.5177 43.7014 74.7898 44.9735 74.7898 46.5848Z" fill="#00AA73"/>
<path d="M51.8921 52.2668C51.8921 53.8781 50.62 55.1502 49.0087 55.1502C47.3973 55.1502 46.1252 53.8781 46.1252 52.2668C46.1252 50.6555 47.3973 49.3834 49.0087 49.3834C50.62 49.3834 51.8921 50.6555 51.8921 52.2668Z" fill="#00AA73"/>
<path d="M57.5742 52.2668C57.5742 53.8781 56.3021 55.1502 54.6908 55.1502C53.0795 55.1502 51.8074 53.8781 51.8074 52.2668C51.8074 50.6555 53.0795 49.3834 54.6908 49.3834C56.3021 49.3834 57.5742 50.6555 57.5742 52.2668Z" fill="#00AA73"/>
<path d="M63.3411 52.2668C63.3411 53.8781 62.069 55.1502 60.4577 55.1502C58.8463 55.1502 57.5742 53.8781 57.5742 52.2668C57.5742 50.6555 58.8463 49.3834 60.4577 49.3834C62.069 49.3834 63.3411 50.6555 63.3411 52.2668Z" fill="#00AA73"/>
<path d="M74.7898 52.2668C74.7898 53.8781 73.5177 55.1502 71.9064 55.1502C70.2951 55.1502 69.0229 53.8781 69.0229 52.2668C69.0229 50.6555 70.2951 49.3834 71.9064 49.3834C73.5177 49.3834 74.7898 50.6555 74.7898 52.2668Z" fill="#00AA73"/>
<path d="M80.4719 52.2668C80.4719 53.8781 79.1998 55.1502 77.5885 55.1502C75.9772 55.1502 74.7051 53.8781 74.7051 52.2668C74.7051 50.6555 75.9772 49.3834 77.5885 49.3834C79.1998 49.3834 80.4719 50.6555 80.4719 52.2668Z" fill="#00AA73"/>
<path d="M86.2388 52.2668C86.2388 53.8781 84.9667 55.1502 83.3554 55.1502C81.744 55.1502 80.4719 53.8781 80.4719 52.2668C80.4719 50.6555 81.744 49.3834 83.3554 49.3834C84.9667 49.3834 86.2388 50.6555 86.2388 52.2668Z" fill="#00AA73"/>
<path d="M91.9212 52.2668C91.9212 53.8781 90.6491 55.1502 89.0377 55.1502C87.4264 55.1502 86.1543 53.8781 86.1543 52.2668C86.1543 50.6555 87.4264 49.3834 89.0377 49.3834C90.6491 49.3834 91.9212 50.6555 91.9212 52.2668Z" fill="#00AA73"/>
<path d="M63.3411 58.0337C63.3411 59.645 62.069 60.9172 60.4577 60.9172C58.8463 60.9172 57.5742 59.645 57.5742 58.0337C57.5742 56.4224 58.8463 55.1503 60.4577 55.1503C62.069 55.1503 63.3411 56.4224 63.3411 58.0337Z" fill="#00AA73"/>
<path d="M80.4719 58.0337C80.4719 59.645 79.1998 60.9172 77.5885 60.9172C75.9772 60.9172 74.7051 59.645 74.7051 58.0337C74.7051 56.4224 75.9772 55.1503 77.5885 55.1503C79.1998 55.1503 80.4719 56.4224 80.4719 58.0337Z" fill="#00AA73"/>
<path d="M91.9212 58.0337C91.9212 59.645 90.6491 60.9172 89.0377 60.9172C87.4264 60.9172 86.1543 59.645 86.1543 58.0337C86.1543 56.4224 87.4264 55.1503 89.0377 55.1503C90.6491 55.1503 91.9212 56.4224 91.9212 58.0337Z" fill="#00AA73"/>
<path d="M63.3411 63.716C63.3411 65.3273 62.069 66.5994 60.4577 66.5994C58.8463 66.5994 57.5742 65.3273 57.5742 63.716C57.5742 62.1046 58.8463 60.8325 60.4577 60.8325C62.069 60.8325 63.3411 62.1046 63.3411 63.716Z" fill="#00AA73"/>
<path d="M74.7898 63.716C74.7898 65.3273 73.5177 66.5994 71.9064 66.5994C70.2951 66.5994 69.0229 65.3273 69.0229 63.716C69.0229 62.1046 70.2951 60.8325 71.9064 60.8325C73.5177 60.8325 74.7898 62.1046 74.7898 63.716Z" fill="#00AA73"/>
<path d="M80.4719 63.716C80.4719 65.3273 79.1998 66.5994 77.5885 66.5994C75.9772 66.5994 74.7051 65.3273 74.7051 63.716C74.7051 62.1046 75.9772 60.8325 77.5885 60.8325C79.1998 60.8325 80.4719 62.1046 80.4719 63.716Z" fill="#00AA73"/>
<path d="M86.2388 63.716C86.2388 65.3273 84.9667 66.5994 83.3554 66.5994C81.744 66.5994 80.4719 65.3273 80.4719 63.716C80.4719 62.1046 81.744 60.8325 83.3554 60.8325C84.9667 60.8325 86.2388 62.1046 86.2388 63.716Z" fill="#00AA73"/>
<path d="M91.9212 63.716C91.9212 65.3273 90.6491 66.5994 89.0377 66.5994C87.4264 66.5994 86.1543 65.3273 86.1543 63.716C86.1543 62.1046 87.4264 60.8325 89.0377 60.8325C90.6491 60.8325 91.9212 62.1046 91.9212 63.716Z" fill="#00AA73"/>
<path d="M63.3411 69.4826C63.3411 71.094 62.069 72.3661 60.4577 72.3661C58.8463 72.3661 57.5742 71.094 57.5742 69.4826C57.5742 67.8713 58.8463 66.5992 60.4577 66.5992C62.069 66.5992 63.3411 67.8713 63.3411 69.4826Z" fill="#00AA73"/>
<path d="M74.7898 69.4826C74.7898 71.094 73.5177 72.3661 71.9064 72.3661C70.2951 72.3661 69.0229 71.094 69.0229 69.4826C69.0229 67.8713 70.2951 66.5992 71.9064 66.5992C73.5177 66.5992 74.7898 67.8713 74.7898 69.4826Z" fill="#00AA73"/>
<path d="M80.4719 69.4826C80.4719 71.094 79.1998 72.3661 77.5885 72.3661C75.9772 72.3661 74.7051 71.094 74.7051 69.4826C74.7051 67.8713 75.9772 66.5992 77.5885 66.5992C79.1998 66.5992 80.4719 67.8713 80.4719 69.4826Z" fill="#00AA73"/>
<path d="M91.9212 69.4826C91.9212 71.094 90.6491 72.3661 89.0377 72.3661C87.4264 72.3661 86.1543 71.094 86.1543 69.4826C86.1543 67.8713 87.4264 66.5992 89.0377 66.5992C90.6491 66.5992 91.9212 67.8713 91.9212 69.4826Z" fill="#00AA73"/>
<path d="M91.9212 75.1648C91.9212 76.7761 90.6491 78.0482 89.0377 78.0482C87.4264 78.0482 86.1543 76.7761 86.1543 75.1648C86.1543 73.5534 87.4264 72.2813 89.0377 72.2813C90.6491 72.2813 91.9212 73.5534 91.9212 75.1648Z" fill="#00AA73"/>
<path d="M97.6031 75.1648C97.6031 76.7761 96.331 78.0482 94.7196 78.0482C93.1083 78.0482 91.8362 76.7761 91.8362 75.1648C91.8362 73.5534 93.1083 72.2813 94.7196 72.2813C96.331 72.2813 97.6031 73.5534 97.6031 75.1648Z" fill="#00AA73"/>
<path d="M103.37 75.1648C103.37 76.7761 102.098 78.0482 100.487 78.0482C98.8754 78.0482 97.6033 76.7761 97.6033 75.1648C97.6033 73.5534 98.8754 72.2813 100.487 72.2813C102.098 72.2813 103.37 73.5534 103.37 75.1648Z" fill="#00AA73"/>
<path d="M109.052 75.1648C109.052 76.7761 107.78 78.0482 106.169 78.0482C104.557 78.0482 103.285 76.7761 103.285 75.1648C103.285 73.5534 104.557 72.2813 106.169 72.2813C107.78 72.2813 109.052 73.5534 109.052 75.1648Z" fill="#00AA73"/>
<path d="M74.7898 80.9317C74.7898 82.543 73.5177 83.8151 71.9064 83.8151C70.2951 83.8151 69.0229 82.543 69.0229 80.9317C69.0229 79.3203 70.2951 78.0482 71.9064 78.0482C73.5177 78.0482 74.7898 79.3203 74.7898 80.9317Z" fill="#00AA73"/>
<path d="M80.4719 80.9317C80.4719 82.543 79.1998 83.8151 77.5885 83.8151C75.9772 83.8151 74.7051 82.543 74.7051 80.9317C74.7051 79.3203 75.9772 78.0482 77.5885 78.0482C79.1998 78.0482 80.4719 79.3203 80.4719 80.9317Z" fill="#00AA73"/>
<path d="M57.5742 86.6137C57.5742 88.225 56.3021 89.4971 54.6908 89.4971C53.0795 89.4971 51.8074 88.225 51.8074 86.6137C51.8074 85.0023 53.0795 83.7302 54.6908 83.7302C56.3021 83.7302 57.5742 85.0023 57.5742 86.6137Z" fill="#00AA73"/>
<path d="M63.3411 86.6137C63.3411 88.225 62.069 89.4971 60.4577 89.4971C58.8463 89.4971 57.5742 88.225 57.5742 86.6137C57.5742 85.0023 58.8463 83.7302 60.4577 83.7302C62.069 83.7302 63.3411 85.0023 63.3411 86.6137Z" fill="#00AA73"/>
<path d="M69.0232 86.6137C69.0232 88.225 67.7511 89.4971 66.1398 89.4971C64.5284 89.4971 63.2563 88.225 63.2563 86.6137C63.2563 85.0023 64.5284 83.7302 66.1398 83.7302C67.7511 83.7302 69.0232 85.0023 69.0232 86.6137Z" fill="#00AA73"/>
<path d="M74.7898 86.6137C74.7898 88.225 73.5177 89.4971 71.9064 89.4971C70.2951 89.4971 69.0229 88.225 69.0229 86.6137C69.0229 85.0023 70.2951 83.7302 71.9064 83.7302C73.5177 83.7302 74.7898 85.0023 74.7898 86.6137Z" fill="#00AA73"/>
<path d="M80.4719 86.6137C80.4719 88.225 79.1998 89.4971 77.5885 89.4971C75.9772 89.4971 74.7051 88.225 74.7051 86.6137C74.7051 85.0023 75.9772 83.7302 77.5885 83.7302C79.1998 83.7302 80.4719 85.0023 80.4719 86.6137Z" fill="#00AA73"/>
<path d="M86.2388 86.6137C86.2388 88.225 84.9667 89.4971 83.3554 89.4971C81.744 89.4971 80.4719 88.225 80.4719 86.6137C80.4719 85.0023 81.744 83.7302 83.3554 83.7302C84.9667 83.7302 86.2388 85.0023 86.2388 86.6137Z" fill="#00AA73"/>
<path d="M57.5742 92.3806C57.5742 93.9919 56.3021 95.264 54.6908 95.264C53.0795 95.264 51.8074 93.9919 51.8074 92.3806C51.8074 90.7692 53.0795 89.4971 54.6908 89.4971C56.3021 89.4971 57.5742 90.7692 57.5742 92.3806Z" fill="#00AA73"/>
<path d="M74.7898 29.3691C74.7898 30.9804 73.5177 32.2525 71.9064 32.2525C70.2951 32.2525 69.0229 30.9804 69.0229 29.3691C69.0229 27.7578 70.2951 26.4857 71.9064 26.4857C73.5177 26.4857 74.7898 27.7578 74.7898 29.3691Z" fill="#00AA73"/>
<path d="M51.8921 35.1357C51.8921 36.7471 50.62 38.0192 49.0087 38.0192C47.3973 38.0192 46.1252 36.7471 46.1252 35.1357C46.1252 33.5244 47.3973 32.2523 49.0087 32.2523C50.62 32.2523 51.8921 33.5244 51.8921 35.1357Z" fill="#00AA73"/>
<path d="M69.0232 35.1357C69.0232 36.7471 67.7511 38.0192 66.1398 38.0192C64.5284 38.0192 63.2563 36.7471 63.2563 35.1357C63.2563 33.5244 64.5284 32.2523 66.1398 32.2523C67.7511 32.2523 69.0232 33.5244 69.0232 35.1357Z" fill="#00AA73"/>
<path d="M80.4719 35.1357C80.4719 36.7471 79.1998 38.0192 77.5885 38.0192C75.9772 38.0192 74.7051 36.7471 74.7051 35.1357C74.7051 33.5244 75.9772 32.2523 77.5885 32.2523C79.1998 32.2523 80.4719 33.5244 80.4719 35.1357Z" fill="#00AA73"/>
<path d="M46.1253 40.8177C46.1253 42.4291 44.8532 43.7012 43.2418 43.7012C41.6305 43.7012 40.3584 42.4291 40.3584 40.8177C40.3584 39.2064 41.6305 37.9343 43.2418 37.9343C44.8532 37.9343 46.1253 39.2064 46.1253 40.8177Z" fill="#00AA73"/>
<path d="M57.5742 40.8177C57.5742 42.4291 56.3021 43.7012 54.6908 43.7012C53.0795 43.7012 51.8074 42.4291 51.8074 40.8177C51.8074 39.2064 53.0795 37.9343 54.6908 37.9343C56.3021 37.9343 57.5742 39.2064 57.5742 40.8177Z" fill="#00AA73"/>
<path d="M97.6031 40.8177C97.6031 42.4291 96.331 43.7012 94.7196 43.7012C93.1083 43.7012 91.8362 42.4291 91.8362 40.8177C91.8362 39.2064 93.1083 37.9343 94.7196 37.9343C96.331 37.9343 97.6031 39.2064 97.6031 40.8177Z" fill="#00AA73"/>
<path d="M86.2388 46.5848C86.2388 48.1961 84.9667 49.4682 83.3554 49.4682C81.744 49.4682 80.4719 48.1961 80.4719 46.5848C80.4719 44.9735 81.744 43.7014 83.3554 43.7014C84.9667 43.7014 86.2388 44.9735 86.2388 46.5848Z" fill="#00AA73"/>
<path d="M91.9212 46.5848C91.9212 48.1961 90.6491 49.4682 89.0377 49.4682C87.4264 49.4682 86.1543 48.1961 86.1543 46.5848C86.1543 44.9735 87.4264 43.7014 89.0377 43.7014C90.6491 43.7014 91.9212 44.9735 91.9212 46.5848Z" fill="#00AA73"/>
<path d="M97.6031 46.5848C97.6031 48.1961 96.331 49.4682 94.7196 49.4682C93.1083 49.4682 91.8362 48.1961 91.8362 46.5848C91.8362 44.9735 93.1083 43.7014 94.7196 43.7014C96.331 43.7014 97.6031 44.9735 97.6031 46.5848Z" fill="#00AA73"/>
<path d="M103.37 46.5848C103.37 48.1961 102.098 49.4682 100.487 49.4682C98.8754 49.4682 97.6033 48.1961 97.6033 46.5848C97.6033 44.9735 98.8754 43.7014 100.487 43.7014C102.098 43.7014 103.37 44.9735 103.37 46.5848Z" fill="#00AA73"/>
<path d="M97.6031 52.2668C97.6031 53.8781 96.331 55.1502 94.7196 55.1502C93.1083 55.1502 91.8362 53.8781 91.8362 52.2668C91.8362 50.6555 93.1083 49.3834 94.7196 49.3834C96.331 49.3834 97.6031 50.6555 97.6031 52.2668Z" fill="#00AA73"/>
<path d="M74.7898 58.0337C74.7898 59.645 73.5177 60.9172 71.9064 60.9172C70.2951 60.9172 69.0229 59.645 69.0229 58.0337C69.0229 56.4224 70.2951 55.1503 71.9064 55.1503C73.5177 55.1503 74.7898 56.4224 74.7898 58.0337Z" fill="#00AA73"/>
<path d="M97.6031 58.0337C97.6031 59.645 96.331 60.9172 94.7196 60.9172C93.1083 60.9172 91.8362 59.645 91.8362 58.0337C91.8362 56.4224 93.1083 55.1503 94.7196 55.1503C96.331 55.1503 97.6031 56.4224 97.6031 58.0337Z" fill="#00AA73"/>
<path d="M69.0232 63.716C69.0232 65.3273 67.7511 66.5994 66.1398 66.5994C64.5284 66.5994 63.2563 65.3273 63.2563 63.716C63.2563 62.1046 64.5284 60.8325 66.1398 60.8325C67.7511 60.8325 69.0232 62.1046 69.0232 63.716Z" fill="#00AA73"/>
<path d="M69.0232 69.4826C69.0232 71.094 67.7511 72.3661 66.1398 72.3661C64.5284 72.3661 63.2563 71.094 63.2563 69.4826C63.2563 67.8713 64.5284 66.5992 66.1398 66.5992C67.7511 66.5992 69.0232 67.8713 69.0232 69.4826Z" fill="#00AA73"/>
<path d="M86.2388 69.4826C86.2388 71.094 84.9667 72.3661 83.3554 72.3661C81.744 72.3661 80.4719 71.094 80.4719 69.4826C80.4719 67.8713 81.744 66.5992 83.3554 66.5992C84.9667 66.5992 86.2388 67.8713 86.2388 69.4826Z" fill="#00AA73"/>
<path d="M109.052 69.4826C109.052 71.094 107.78 72.3661 106.169 72.3661C104.557 72.3661 103.285 71.094 103.285 69.4826C103.285 67.8713 104.557 66.5992 106.169 66.5992C107.78 66.5992 109.052 67.8713 109.052 69.4826Z" fill="#00AA73"/>
<path d="M69.0232 75.1648C69.0232 76.7761 67.7511 78.0482 66.1398 78.0482C64.5284 78.0482 63.2563 76.7761 63.2563 75.1648C63.2563 73.5534 64.5284 72.2813 66.1398 72.2813C67.7511 72.2813 69.0232 73.5534 69.0232 75.1648Z" fill="#00AA73"/>
<path d="M74.7898 75.1648C74.7898 76.7761 73.5177 78.0482 71.9064 78.0482C70.2951 78.0482 69.0229 76.7761 69.0229 75.1648C69.0229 73.5534 70.2951 72.2813 71.9064 72.2813C73.5177 72.2813 74.7898 73.5534 74.7898 75.1648Z" fill="#00AA73"/>
<path d="M80.4719 75.1648C80.4719 76.7761 79.1998 78.0482 77.5885 78.0482C75.9772 78.0482 74.7051 76.7761 74.7051 75.1648C74.7051 73.5534 75.9772 72.2813 77.5885 72.2813C79.1998 72.2813 80.4719 73.5534 80.4719 75.1648Z" fill="#00AA73"/>
<path d="M114.819 75.1648C114.819 76.7761 113.547 78.0482 111.936 78.0482C110.324 78.0482 109.052 76.7761 109.052 75.1648C109.052 73.5534 110.324 72.2813 111.936 72.2813C113.547 72.2813 114.819 73.5534 114.819 75.1648Z" fill="#00AA73"/>
<path d="M109.052 80.9317C109.052 82.543 107.78 83.8151 106.169 83.8151C104.557 83.8151 103.285 82.543 103.285 80.9317C103.285 79.3203 104.557 78.0482 106.169 78.0482C107.78 78.0482 109.052 79.3203 109.052 80.9317Z" fill="#00AA73"/>
<path d="M51.8921 92.3806C51.8921 93.9919 50.62 95.264 49.0087 95.264C47.3973 95.264 46.1252 93.9919 46.1252 92.3806C46.1252 90.7692 47.3973 89.4971 49.0087 89.4971C50.62 89.4971 51.8921 90.7692 51.8921 92.3806Z" fill="#00AA73"/>
<path d="M63.3411 92.3806C63.3411 93.9919 62.069 95.264 60.4577 95.264C58.8463 95.264 57.5742 93.9919 57.5742 92.3806C57.5742 90.7692 58.8463 89.4971 60.4577 89.4971C62.069 89.4971 63.3411 90.7692 63.3411 92.3806Z" fill="#00AA73"/>
<path d="M57.5742 98.0627C57.5742 99.6741 56.3021 100.946 54.6908 100.946C53.0795 100.946 51.8074 99.6741 51.8074 98.0627C51.8074 96.4514 53.0795 95.1793 54.6908 95.1793C56.3021 95.1793 57.5742 96.4514 57.5742 98.0627Z" fill="#00AA73"/>
<path d="M121.125 0.111115C117.742 0.111115 115 2.85337 115 6.23611V42.9861C115 46.3689 117.742 49.1111 121.125 49.1111H157.875C161.258 49.1111 164 46.3689 164 42.9861V6.23611C164 2.85337 161.258 0.111115 157.875 0.111115H121.125ZM141.031 13.8924V23.0799H150.219C151.064 23.0799 151.75 23.7654 151.75 24.6111C151.75 25.4568 151.064 26.1424 150.219 26.1424H141.031V35.3299C141.031 36.1755 140.346 36.8611 139.5 36.8611C138.654 36.8611 137.969 36.1755 137.969 35.3299V26.1424H128.781C127.936 26.1424 127.25 25.4568 127.25 24.6111C127.25 23.7654 127.936 23.0799 128.781 23.0799H137.969V13.8924C137.969 13.0467 138.654 12.3611 139.5 12.3611C140.346 12.3611 141.031 13.0467 141.031 13.8924Z" fill="#006E58"/>
</svg>
