<svg width="255" height="113" viewBox="0 0 255 113" fill="none" xmlns="http://www.w3.org/2000/svg">
<path d="M194.538 94.9149H153.377C134.798 94.9149 119.712 80.2326 119.712 62.2154C119.712 44.1983 129.49 34.935 143.785 30.8591C145.508 24.1895 149.931 17.4273 156.17 12.0546C164.784 4.69026 175.773 0.568085 187.134 0.568085C209.624 0.568085 228.296 16.3157 231.555 37.575C244.872 40.6319 254.603 52.3963 254.603 65.8744C254.603 79.3525 241.193 94.9612 224.71 94.9612H194.538V94.9149Z" fill="#001A2F"/>
<path d="M201.708 35.1665C201.708 36.3244 200.777 37.2508 199.613 37.2508C198.449 37.2508 197.518 36.3244 197.518 35.1665C197.518 34.0086 198.449 33.0823 199.613 33.0823C200.777 33.0823 201.708 34.0086 201.708 35.1665Z" fill="#FF35A1"/>
<path d="M210.043 43.5035C210.043 44.6614 209.112 45.5877 207.948 45.5877C206.784 45.5877 205.853 44.6614 205.853 43.5035C205.853 42.3456 206.784 41.4193 207.948 41.4193C209.112 41.4193 210.043 42.3456 210.043 43.5035Z" fill="#FF35A1"/>
<path d="M197.518 47.672C197.518 48.8299 196.587 49.7562 195.422 49.7562C194.258 49.7562 193.327 48.8299 193.327 47.672C193.327 46.5141 194.258 45.5877 195.422 45.5877C196.587 45.5877 197.518 46.5141 197.518 47.672Z" fill="#00AA73"/>
<path d="M189.137 31.0443C189.137 32.2022 188.205 33.1286 187.041 33.1286C185.877 33.1286 184.946 32.2022 184.946 31.0443C184.946 29.8864 185.877 28.9601 187.041 28.9601C188.205 28.9601 189.137 29.8864 189.137 31.0443Z" fill="#00AA73"/>
<path d="M172.421 35.1665C172.421 36.3244 171.489 37.2508 170.325 37.2508C169.161 37.2508 168.23 36.3244 168.23 35.1665C168.23 34.0086 169.161 33.0823 170.325 33.0823C171.489 33.0823 172.421 34.0086 172.421 35.1665Z" fill="#00AA73"/>
<path d="M189.137 35.1665C189.137 36.3244 188.205 37.2508 187.041 37.2508C185.877 37.2508 184.946 36.3244 184.946 35.1665C184.946 34.0086 185.877 33.0823 187.041 33.0823C188.205 33.0823 189.137 34.0086 189.137 35.1665Z" fill="#00AA73"/>
<path d="M172.421 39.335C172.421 40.4929 171.489 41.4193 170.325 41.4193C169.161 41.4193 168.23 40.4929 168.23 39.335C168.23 38.1771 169.161 37.2508 170.325 37.2508C171.489 37.2508 172.421 38.1771 172.421 39.335Z" fill="#00AA73"/>
<path d="M189.137 39.335C189.137 40.4929 188.205 41.4193 187.041 41.4193C185.877 41.4193 184.946 40.4929 184.946 39.335C184.946 38.1771 185.877 37.2508 187.041 37.2508C188.205 37.2508 189.137 38.1771 189.137 39.335Z" fill="#00AA73"/>
<path d="M172.421 43.5035C172.421 44.6614 171.489 45.5877 170.325 45.5877C169.161 45.5877 168.23 44.6614 168.23 43.5035C168.23 42.3456 169.161 41.4193 170.325 41.4193C171.489 41.4193 172.421 42.3456 172.421 43.5035Z" fill="#00AA73"/>
<path d="M176.611 43.5035C176.611 44.6614 175.68 45.5877 174.516 45.5877C173.352 45.5877 172.421 44.6614 172.421 43.5035C172.421 42.3456 173.352 41.4193 174.516 41.4193C175.68 41.4193 176.611 42.3456 176.611 43.5035Z" fill="#00AA73"/>
<path d="M180.802 43.5035C180.802 44.6614 179.871 45.5877 178.707 45.5877C177.543 45.5877 176.611 44.6614 176.611 43.5035C176.611 42.3456 177.543 41.4193 178.707 41.4193C179.871 41.4193 180.802 42.3456 180.802 43.5035Z" fill="#00AA73"/>
<path d="M189.137 43.5035C189.137 44.6614 188.205 45.5877 187.041 45.5877C185.877 45.5877 184.946 44.6614 184.946 43.5035C184.946 42.3456 185.877 41.4193 187.041 41.4193C188.205 41.4193 189.137 42.3456 189.137 43.5035Z" fill="#00AA73"/>
<path d="M193.327 43.5035C193.327 44.6614 192.396 45.5877 191.232 45.5877C190.068 45.5877 189.136 44.6614 189.136 43.5035C189.136 42.3456 190.068 41.4193 191.232 41.4193C192.396 41.4193 193.327 42.3456 193.327 43.5035Z" fill="#00AA73"/>
<path d="M197.518 43.5035C197.518 44.6614 196.587 45.5877 195.422 45.5877C194.258 45.5877 193.327 44.6614 193.327 43.5035C193.327 42.3456 194.258 41.4193 195.422 41.4193C196.587 41.4193 197.518 42.3456 197.518 43.5035Z" fill="#00AA73"/>
<path d="M201.708 43.5035C201.708 44.6614 200.777 45.5877 199.613 45.5877C198.449 45.5877 197.518 44.6614 197.518 43.5035C197.518 42.3456 198.449 41.4193 199.613 41.4193C200.777 41.4193 201.708 42.3456 201.708 43.5035Z" fill="#00AA73"/>
<path d="M180.802 47.672C180.802 48.8299 179.871 49.7562 178.707 49.7562C177.543 49.7562 176.611 48.8299 176.611 47.672C176.611 46.5141 177.543 45.5877 178.707 45.5877C179.871 45.5877 180.802 46.5141 180.802 47.672Z" fill="#00AA73"/>
<path d="M193.327 47.672C193.327 48.8299 192.396 49.7562 191.232 49.7562C190.068 49.7562 189.136 48.8299 189.136 47.672C189.136 46.5141 190.068 45.5877 191.232 45.5877C192.396 45.5877 193.327 46.5141 193.327 47.672Z" fill="#00AA73"/>
<path d="M201.708 47.672C201.708 48.8299 200.777 49.7562 199.613 49.7562C198.449 49.7562 197.518 48.8299 197.518 47.672C197.518 46.5141 198.449 45.5877 199.613 45.5877C200.777 45.5877 201.708 46.5141 201.708 47.672Z" fill="#00AA73"/>
<path d="M180.802 51.8405C180.802 52.9984 179.871 53.9247 178.707 53.9247C177.543 53.9247 176.611 52.9984 176.611 51.8405C176.611 50.6826 177.543 49.7562 178.707 49.7562C179.871 49.7562 180.802 50.6826 180.802 51.8405Z" fill="#00AA73"/>
<path d="M189.137 51.8405C189.137 52.9984 188.205 53.9247 187.041 53.9247C185.877 53.9247 184.946 52.9984 184.946 51.8405C184.946 50.6826 185.877 49.7562 187.041 49.7562C188.205 49.7562 189.137 50.6826 189.137 51.8405Z" fill="#00AA73"/>
<path d="M193.327 51.8405C193.327 52.9984 192.396 53.9247 191.232 53.9247C190.068 53.9247 189.136 52.9984 189.136 51.8405C189.136 50.6826 190.068 49.7562 191.232 49.7562C192.396 49.7562 193.327 50.6826 193.327 51.8405Z" fill="#00AA73"/>
<path d="M197.518 51.8405C197.518 52.9984 196.587 53.9247 195.422 53.9247C194.258 53.9247 193.327 52.9984 193.327 51.8405C193.327 50.6826 194.258 49.7562 195.422 49.7562C196.587 49.7562 197.518 50.6826 197.518 51.8405Z" fill="#00AA73"/>
<path d="M201.708 51.8405C201.708 52.9984 200.777 53.9247 199.613 53.9247C198.449 53.9247 197.518 52.9984 197.518 51.8405C197.518 50.6826 198.449 49.7562 199.613 49.7562C200.777 49.7562 201.708 50.6826 201.708 51.8405Z" fill="#00AA73"/>
<path d="M180.802 55.9626C180.802 57.1205 179.871 58.0469 178.707 58.0469C177.543 58.0469 176.611 57.1205 176.611 55.9626C176.611 54.8047 177.543 53.8784 178.707 53.8784C179.871 53.8784 180.802 54.8047 180.802 55.9626Z" fill="#00AA73"/>
<path d="M189.137 55.9626C189.137 57.1205 188.205 58.0469 187.041 58.0469C185.877 58.0469 184.946 57.1205 184.946 55.9626C184.946 54.8047 185.877 53.8784 187.041 53.8784C188.205 53.8784 189.137 54.8047 189.137 55.9626Z" fill="#00AA73"/>
<path d="M193.327 55.9626C193.327 57.1205 192.396 58.0469 191.232 58.0469C190.068 58.0469 189.136 57.1205 189.136 55.9626C189.136 54.8047 190.068 53.8784 191.232 53.8784C192.396 53.8784 193.327 54.8047 193.327 55.9626Z" fill="#00AA73"/>
<path d="M201.708 55.9626C201.708 57.1205 200.777 58.0469 199.613 58.0469C198.449 58.0469 197.518 57.1205 197.518 55.9626C197.518 54.8047 198.449 53.8784 199.613 53.8784C200.777 53.8784 201.708 54.8047 201.708 55.9626Z" fill="#00AA73"/>
<path d="M201.708 60.1311C201.708 61.289 200.777 62.2154 199.613 62.2154C198.449 62.2154 197.518 61.289 197.518 60.1311C197.518 58.9732 198.449 58.0469 199.613 58.0469C200.777 58.0469 201.708 58.9732 201.708 60.1311Z" fill="#00AA73"/>
<path d="M205.852 60.1311C205.852 61.289 204.921 62.2154 203.757 62.2154C202.593 62.2154 201.662 61.289 201.662 60.1311C201.662 58.9732 202.593 58.0469 203.757 58.0469C204.921 58.0469 205.852 58.9732 205.852 60.1311Z" fill="#00AA73"/>
<path d="M210.043 60.1311C210.043 61.289 209.112 62.2154 207.948 62.2154C206.784 62.2154 205.853 61.289 205.853 60.1311C205.853 58.9732 206.784 58.0469 207.948 58.0469C209.112 58.0469 210.043 58.9732 210.043 60.1311Z" fill="#00AA73"/>
<path d="M214.234 60.1311C214.234 61.289 213.303 62.2154 212.139 62.2154C210.974 62.2154 210.043 61.289 210.043 60.1311C210.043 58.9732 210.974 58.0469 212.139 58.0469C213.303 58.0469 214.234 58.9732 214.234 60.1311Z" fill="#00AA73"/>
<path d="M189.137 64.2996C189.137 65.4575 188.205 66.3839 187.041 66.3839C185.877 66.3839 184.946 65.4575 184.946 64.2996C184.946 63.1417 185.877 62.2154 187.041 62.2154C188.205 62.2154 189.137 63.1417 189.137 64.2996Z" fill="#00AA73"/>
<path d="M193.327 64.2996C193.327 65.4575 192.396 66.3839 191.232 66.3839C190.068 66.3839 189.136 65.4575 189.136 64.2996C189.136 63.1417 190.068 62.2154 191.232 62.2154C192.396 62.2154 193.327 63.1417 193.327 64.2996Z" fill="#00AA73"/>
<path d="M176.611 68.4681C176.611 69.626 175.68 70.5523 174.516 70.5523C173.352 70.5523 172.421 69.626 172.421 68.4681C172.421 67.3102 173.352 66.3839 174.516 66.3839C175.68 66.3839 176.611 67.3102 176.611 68.4681Z" fill="#00AA73"/>
<path d="M180.802 68.4681C180.802 69.626 179.871 70.5523 178.707 70.5523C177.543 70.5523 176.611 69.626 176.611 68.4681C176.611 67.3102 177.543 66.3839 178.707 66.3839C179.871 66.3839 180.802 67.3102 180.802 68.4681Z" fill="#00AA73"/>
<path d="M184.992 68.4681C184.992 69.626 184.061 70.5523 182.897 70.5523C181.733 70.5523 180.802 69.626 180.802 68.4681C180.802 67.3102 181.733 66.3839 182.897 66.3839C184.061 66.3839 184.992 67.3102 184.992 68.4681Z" fill="#00AA73"/>
<path d="M189.137 68.4681C189.137 69.626 188.205 70.5523 187.041 70.5523C185.877 70.5523 184.946 69.626 184.946 68.4681C184.946 67.3102 185.877 66.3839 187.041 66.3839C188.205 66.3839 189.137 67.3102 189.137 68.4681Z" fill="#00AA73"/>
<path d="M193.327 68.4681C193.327 69.626 192.396 70.5523 191.232 70.5523C190.068 70.5523 189.136 69.626 189.136 68.4681C189.136 67.3102 190.068 66.3839 191.232 66.3839C192.396 66.3839 193.327 67.3102 193.327 68.4681Z" fill="#00AA73"/>
<path d="M197.518 68.4681C197.518 69.626 196.587 70.5523 195.422 70.5523C194.258 70.5523 193.327 69.626 193.327 68.4681C193.327 67.3102 194.258 66.3839 195.422 66.3839C196.587 66.3839 197.518 67.3102 197.518 68.4681Z" fill="#00AA73"/>
<path d="M176.611 72.5903C176.611 73.7482 175.68 74.6745 174.516 74.6745C173.352 74.6745 172.421 73.7482 172.421 72.5903C172.421 71.4324 173.352 70.506 174.516 70.506C175.68 70.506 176.611 71.4324 176.611 72.5903Z" fill="#00AA73"/>
<path d="M189.137 26.8758C189.137 28.0338 188.205 28.9601 187.041 28.9601C185.877 28.9601 184.946 28.0338 184.946 26.8758C184.946 25.7179 185.877 24.7916 187.041 24.7916C188.205 24.7916 189.137 25.7179 189.137 26.8758Z" fill="#00AA73"/>
<path d="M172.421 31.0443C172.421 32.2022 171.489 33.1286 170.325 33.1286C169.161 33.1286 168.23 32.2022 168.23 31.0443C168.23 29.8864 169.161 28.9601 170.325 28.9601C171.489 28.9601 172.421 29.8864 172.421 31.0443Z" fill="#00AA73"/>
<path d="M184.992 31.0443C184.992 32.2022 184.061 33.1286 182.897 33.1286C181.733 33.1286 180.802 32.2022 180.802 31.0443C180.802 29.8864 181.733 28.9601 182.897 28.9601C184.061 28.9601 184.992 29.8864 184.992 31.0443Z" fill="#00AA73"/>
<path d="M193.327 31.0443C193.327 32.2022 192.396 33.1286 191.232 33.1286C190.068 33.1286 189.136 32.2022 189.136 31.0443C189.136 29.8864 190.068 28.9601 191.232 28.9601C192.396 28.9601 193.327 29.8864 193.327 31.0443Z" fill="#00AA73"/>
<path d="M168.277 35.1665C168.277 36.3244 167.345 37.2508 166.181 37.2508C165.017 37.2508 164.086 36.3244 164.086 35.1665C164.086 34.0086 165.017 33.0823 166.181 33.0823C167.345 33.0823 168.277 34.0086 168.277 35.1665Z" fill="#00AA73"/>
<path d="M176.611 35.1665C176.611 36.3244 175.68 37.2508 174.516 37.2508C173.352 37.2508 172.421 36.3244 172.421 35.1665C172.421 34.0086 173.352 33.0823 174.516 33.0823C175.68 33.0823 176.611 34.0086 176.611 35.1665Z" fill="#00AA73"/>
<path d="M205.852 35.1665C205.852 36.3244 204.921 37.2508 203.757 37.2508C202.593 37.2508 201.662 36.3244 201.662 35.1665C201.662 34.0086 202.593 33.0823 203.757 33.0823C204.921 33.0823 205.852 34.0086 205.852 35.1665Z" fill="#00AA73"/>
<path d="M197.518 39.335C197.518 40.4929 196.587 41.4193 195.422 41.4193C194.258 41.4193 193.327 40.4929 193.327 39.335C193.327 38.1771 194.258 37.2508 195.422 37.2508C196.587 37.2508 197.518 38.1771 197.518 39.335Z" fill="#00AA73"/>
<path d="M201.708 39.335C201.708 40.4929 200.777 41.4193 199.613 41.4193C198.449 41.4193 197.518 40.4929 197.518 39.335C197.518 38.1771 198.449 37.2508 199.613 37.2508C200.777 37.2508 201.708 38.1771 201.708 39.335Z" fill="#00AA73"/>
<path d="M205.852 39.335C205.852 40.4929 204.921 41.4193 203.757 41.4193C202.593 41.4193 201.662 40.4929 201.662 39.335C201.662 38.1771 202.593 37.2508 203.757 37.2508C204.921 37.2508 205.852 38.1771 205.852 39.335Z" fill="#00AA73"/>
<path d="M210.043 39.335C210.043 40.4929 209.112 41.4193 207.948 41.4193C206.784 41.4193 205.853 40.4929 205.853 39.335C205.853 38.1771 206.784 37.2508 207.948 37.2508C209.112 37.2508 210.043 38.1771 210.043 39.335Z" fill="#00AA73"/>
<path d="M205.852 43.5035C205.852 44.6614 204.921 45.5877 203.757 45.5877C202.593 45.5877 201.662 44.6614 201.662 43.5035C201.662 42.3456 202.593 41.4193 203.757 41.4193C204.921 41.4193 205.852 42.3456 205.852 43.5035Z" fill="#00AA73"/>
<path d="M189.137 47.672C189.137 48.8299 188.205 49.7562 187.041 49.7562C185.877 49.7562 184.946 48.8299 184.946 47.672C184.946 46.5141 185.877 45.5877 187.041 45.5877C188.205 45.5877 189.137 46.5141 189.137 47.672Z" fill="#00AA73"/>
<path d="M205.852 47.672C205.852 48.8299 204.921 49.7562 203.757 49.7562C202.593 49.7562 201.662 48.8299 201.662 47.672C201.662 46.5141 202.593 45.5877 203.757 45.5877C204.921 45.5877 205.852 46.5141 205.852 47.672Z" fill="#00AA73"/>
<path d="M184.992 51.8405C184.992 52.9984 184.061 53.9247 182.897 53.9247C181.733 53.9247 180.802 52.9984 180.802 51.8405C180.802 50.6826 181.733 49.7562 182.897 49.7562C184.061 49.7562 184.992 50.6826 184.992 51.8405Z" fill="#00AA73"/>
<path d="M184.992 55.9626C184.992 57.1205 184.061 58.0469 182.897 58.0469C181.733 58.0469 180.802 57.1205 180.802 55.9626C180.802 54.8047 181.733 53.8784 182.897 53.8784C184.061 53.8784 184.992 54.8047 184.992 55.9626Z" fill="#00AA73"/>
<path d="M197.518 55.9626C197.518 57.1205 196.587 58.0469 195.422 58.0469C194.258 58.0469 193.327 57.1205 193.327 55.9626C193.327 54.8047 194.258 53.8784 195.422 53.8784C196.587 53.8784 197.518 54.8047 197.518 55.9626Z" fill="#00AA73"/>
<path d="M214.234 55.9626C214.234 57.1205 213.303 58.0469 212.139 58.0469C210.974 58.0469 210.043 57.1205 210.043 55.9626C210.043 54.8047 210.974 53.8784 212.139 53.8784C213.303 53.8784 214.234 54.8047 214.234 55.9626Z" fill="#00AA73"/>
<path d="M184.992 60.1311C184.992 61.289 184.061 62.2154 182.897 62.2154C181.733 62.2154 180.802 61.289 180.802 60.1311C180.802 58.9732 181.733 58.0469 182.897 58.0469C184.061 58.0469 184.992 58.9732 184.992 60.1311Z" fill="#00AA73"/>
<path d="M189.137 60.1311C189.137 61.289 188.205 62.2154 187.041 62.2154C185.877 62.2154 184.946 61.289 184.946 60.1311C184.946 58.9732 185.877 58.0469 187.041 58.0469C188.205 58.0469 189.137 58.9732 189.137 60.1311Z" fill="#00AA73"/>
<path d="M193.327 60.1311C193.327 61.289 192.396 62.2154 191.232 62.2154C190.068 62.2154 189.136 61.289 189.136 60.1311C189.136 58.9732 190.068 58.0469 191.232 58.0469C192.396 58.0469 193.327 58.9732 193.327 60.1311Z" fill="#00AA73"/>
<path d="M218.378 60.1311C218.378 61.289 217.447 62.2154 216.283 62.2154C215.119 62.2154 214.187 61.289 214.187 60.1311C214.187 58.9732 215.119 58.0469 216.283 58.0469C217.447 58.0469 218.378 58.9732 218.378 60.1311Z" fill="#00AA73"/>
<path d="M214.234 64.2996C214.234 65.4575 213.303 66.3839 212.139 66.3839C210.974 66.3839 210.043 65.4575 210.043 64.2996C210.043 63.1417 210.974 62.2154 212.139 62.2154C213.303 62.2154 214.234 63.1417 214.234 64.2996Z" fill="#00AA73"/>
<path d="M172.421 72.5903C172.421 73.7482 171.489 74.6745 170.325 74.6745C169.161 74.6745 168.23 73.7482 168.23 72.5903C168.23 71.4324 169.161 70.506 170.325 70.506C171.489 70.506 172.421 71.4324 172.421 72.5903Z" fill="#00AA73"/>
<path d="M180.802 72.5903C180.802 73.7482 179.871 74.6745 178.707 74.6745C177.543 74.6745 176.611 73.7482 176.611 72.5903C176.611 71.4324 177.543 70.506 178.707 70.506C179.871 70.506 180.802 71.4324 180.802 72.5903Z" fill="#00AA73"/>
<path d="M176.611 76.7588C176.611 77.9167 175.68 78.843 174.516 78.843C173.352 78.843 172.421 77.9167 172.421 76.7588C172.421 75.6009 173.352 74.6745 174.516 74.6745C175.68 74.6745 176.611 75.6009 176.611 76.7588Z" fill="#00AA73"/>
<path d="M1.07056 47.672V99.2224C1.07056 105.892 6.51837 111.311 13.2234 111.311H100.668C106.581 111.311 111.424 106.54 111.424 100.612V47.6257C111.424 41.8361 106.721 37.1582 100.901 37.1582H11.5937C5.77337 37.1582 1.07056 41.8361 1.07056 47.6257V47.672Z" fill="url(#paint0_linear_154_9291)"/>
<path d="M57.9234 106.031C72.1185 106.031 83.6259 94.294 83.6259 79.8157C83.6259 65.3375 72.1185 53.6006 57.9234 53.6006C43.7283 53.6006 32.2209 65.3375 32.2209 79.8157C32.2209 94.294 43.7283 106.031 57.9234 106.031Z" fill="url(#paint1_linear_154_9291)"/>
<path d="M43.5824 68.2366V61.5207H46.1899C46.7021 61.5207 47.1212 61.6133 47.4471 61.7986C47.8196 61.9839 48.0524 62.2154 48.2387 62.586C48.4249 62.9102 48.5181 63.2807 48.5181 63.7439C48.5181 64.2071 48.4249 64.5776 48.2387 64.9018C48.0524 65.226 47.7731 65.4576 47.4006 65.6429C47.0281 65.8281 46.609 65.9208 46.0968 65.9208H44.374V64.7628H45.9106C46.1899 64.7628 46.3762 64.7629 46.5625 64.6702C46.7487 64.5776 46.8884 64.485 46.9349 64.346C47.0281 64.2071 47.0746 64.0218 47.0746 63.7902C47.0746 63.5586 47.0746 63.3734 46.9349 63.2344C46.8418 63.0955 46.7021 62.9565 46.5159 62.8639C46.3296 62.7712 46.0968 62.7249 45.864 62.7249H44.9328V68.2829H43.5359L43.5824 68.2366ZM47.1212 65.1334L48.7509 68.1903H47.2143L45.6312 65.1334H47.1212Z" fill="white"/>
<path d="M49.5422 68.2366V61.5207H54.0122V62.6786H50.9391V64.2997H53.7794V65.4576H50.9391V67.0787H54.0122V68.2366H49.5422Z" fill="white"/>
<path d="M60.6242 61.4744V68.1903H59.4136L56.5267 63.9291H56.4801V68.1903H55.0833V61.4744H56.2939L59.1342 65.6892H59.1808V61.4744H60.5776H60.6242Z" fill="white"/>
<path d="M61.7416 68.2366V61.5207H63.1385V64.485H63.2316L65.6063 61.5207H67.2826L64.8148 64.5313L67.2826 68.2366H65.6063L63.7904 65.4576L63.0919 66.2913V68.1903H61.6951L61.7416 68.2366Z" fill="white"/>
<path d="M72.1251 61.4744H73.522V65.8281C73.522 66.3376 73.4288 66.7545 73.196 67.125C72.9632 67.4955 72.6373 67.7734 72.2182 68.005C71.7992 68.1903 71.3335 68.3292 70.7748 68.3292C70.216 68.3292 69.7504 68.2366 69.3313 68.005C68.9123 67.8197 68.5863 67.4955 68.3535 67.125C68.1207 66.7545 68.0276 66.3376 68.0276 65.8281V61.4744H69.4245V65.7355C69.4245 66.0134 69.471 66.1987 69.6107 66.4302C69.7038 66.6155 69.8901 66.8008 70.0763 66.8934C70.2626 66.986 70.4954 67.0787 70.7748 67.0787C71.0542 67.0787 71.287 67.0324 71.4732 66.8934C71.6595 66.8008 71.8457 66.6155 71.9388 66.4302C72.032 66.245 72.1251 66.0134 72.1251 65.7355V61.4744Z" fill="white"/>
<path d="M40.4626 76.6662V69.9503H41.8595V75.5083H44.6998V76.6662H40.4626Z" fill="white"/>
<path d="M45.6311 76.6662V69.9503H50.1011V71.1082H47.028V72.7293H49.8683V73.8872H47.028V75.5083H50.1011V76.6662H45.6311Z" fill="white"/>
<path d="M55.5489 72.1272C55.5489 71.9882 55.4558 71.8029 55.3626 71.7103C55.2695 71.6177 55.1764 71.4787 55.0833 71.3861C54.9436 71.2935 54.8505 71.2471 54.6642 71.2008C54.5245 71.2008 54.3383 71.1545 54.152 71.1545C53.8261 71.1545 53.5001 71.2471 53.2673 71.4324C53.0345 71.6177 52.8017 71.8493 52.662 72.1735C52.5223 72.4977 52.4292 72.9145 52.4292 73.3777C52.4292 73.8409 52.4758 74.2577 52.662 74.5819C52.8017 74.9061 52.988 75.1841 53.2673 75.323C53.5001 75.5083 53.8261 75.6009 54.152 75.6009C54.478 75.6009 54.7573 75.5546 54.9436 75.4156C55.1764 75.323 55.3626 75.1377 55.4558 74.9062C55.5489 74.6746 55.642 74.443 55.642 74.1651H55.9214H54.1986V73.0998H56.9458V73.9335C56.9458 74.5356 56.8061 75.0451 56.5733 75.462C56.3405 75.8788 55.968 76.203 55.5489 76.4346C55.1298 76.6662 54.6176 76.7588 54.0589 76.7588C53.5001 76.7588 52.8948 76.6199 52.4292 76.342C51.9636 76.0641 51.5911 75.6472 51.3117 75.1377C51.0323 74.6283 50.9392 74.0261 50.9392 73.2851C50.9392 72.544 51.0323 72.2661 51.172 71.8029C51.3117 71.3398 51.5445 71.0156 51.8239 70.6913C52.1033 70.4134 52.4292 70.1819 52.8017 69.9966C53.1742 69.8576 53.5933 69.765 54.0123 69.765C54.4314 69.765 54.7573 69.8113 55.0367 69.9503C55.3626 70.0429 55.642 70.2282 55.8748 70.4134C56.1076 70.5987 56.3405 70.8766 56.4801 71.1545C56.6198 71.4324 56.7595 71.7566 56.8061 72.0808H55.4092L55.5489 72.1272Z" fill="white"/>
<path d="M58.9946 76.6662H57.5046L59.7862 69.9503H61.6021L63.8837 76.6662H62.3937L60.7174 71.4787H60.6709L58.9946 76.6662ZM58.9015 74.0261H62.4403V75.1377H58.9015V74.0261Z" fill="white"/>
<path d="M70.1695 72.3125H68.7726C68.7726 72.1272 68.6795 71.9419 68.6329 71.803C68.5398 71.664 68.4467 71.5251 68.307 71.4324C68.1673 71.3398 68.0276 71.2472 67.8879 71.2009C67.7482 71.1545 67.562 71.1082 67.3757 71.1082C67.0498 71.1082 66.7238 71.2009 66.491 71.3861C66.2582 71.5714 66.0254 71.803 65.8857 72.1272C65.746 72.4514 65.6529 72.8682 65.6529 73.3314C65.6529 73.7946 65.746 74.2114 65.8857 74.5356C66.0254 74.8599 66.2117 75.0914 66.491 75.2767C66.7238 75.462 67.0498 75.5083 67.3757 75.5083C67.7017 75.5083 67.7482 75.5083 67.8879 75.4157C68.0276 75.3693 68.1673 75.2767 68.307 75.1841C68.4467 75.0914 68.5398 74.9525 68.6329 74.8135C68.726 74.6746 68.7726 74.5356 68.8192 74.3504H70.216C70.216 74.6746 70.0763 74.9525 69.9367 75.2304C69.797 75.5083 69.6107 75.7862 69.3313 76.0178C69.0985 76.2494 68.8192 76.4346 68.4467 76.5736C68.1207 76.7125 67.7482 76.7588 67.3292 76.7588C66.9101 76.7588 66.2117 76.6199 65.746 76.342C65.2804 76.0641 64.9079 75.6936 64.6285 75.1841C64.3492 74.6746 64.2095 74.0262 64.2095 73.3314C64.2095 72.6367 64.3492 71.9882 64.6285 71.4788C64.9079 70.9693 65.2804 70.5524 65.746 70.3208C66.2117 70.0893 66.7238 69.904 67.3292 69.904C67.9345 69.904 68.0742 69.9503 68.4001 70.0893C68.726 70.1819 69.0054 70.3672 69.2848 70.5524C69.5176 70.784 69.7504 71.0156 69.8901 71.3398C70.0298 71.664 70.1695 71.9882 70.216 72.3588L70.1695 72.3125Z" fill="white"/>
<path d="M70.7748 69.9503H72.358L73.848 72.8682H73.8945L75.3845 69.9503H76.9676L74.5464 74.304V76.6662H73.1495V74.304L70.7283 69.9503H70.7748Z" fill="white"/>
<path d="M111.424 71.0619V100.797C111.424 106.633 106.628 111.404 100.761 111.404H13.2699C6.51837 111.404 1.07056 105.985 1.07056 99.2687V77.8241C1.58274 77.9167 2.00181 77.963 2.56056 78.0094C3.11931 78.0094 3.63149 77.8704 4.19024 77.7778C4.70243 77.6851 5.21462 77.7778 5.77337 77.6852C6.05274 77.6852 6.28556 77.5925 6.56493 77.5925C6.75118 77.5925 6.89087 77.5925 7.07712 77.5462C7.91524 77.3609 8.75337 77.3609 9.63806 77.3609C9.68462 77.3609 9.73118 77.3609 9.77774 77.3609C9.96399 77.3609 10.1968 77.3609 10.3831 77.3609C10.3831 77.3609 10.4762 77.3609 10.5227 77.3609C10.6624 77.3609 10.8487 77.3609 10.9884 77.3609C11.0815 77.3609 11.1281 77.3609 11.2212 77.3609C11.5937 77.3609 11.9662 77.3609 12.3387 77.3609C12.3852 77.3609 12.4784 77.3609 12.5249 77.3609C12.5249 77.3609 12.5249 77.3609 12.5715 77.3609C13.0837 77.3609 13.5959 77.083 14.1081 76.9904C14.5271 76.8978 14.8996 76.6662 15.3187 76.5735C15.5981 76.5272 15.8774 76.4809 16.1102 76.4346C16.5759 76.342 17.0415 76.2957 17.5071 76.1567C17.7865 76.1104 18.2056 76.0641 18.4849 75.9251C19.3696 75.5083 20.1146 74.7672 21.1856 74.6746C21.2321 74.6746 21.2787 74.6746 21.3718 74.6746C21.3718 74.6746 21.4649 74.6746 21.5115 74.6746C21.7443 74.6746 21.9771 74.6283 22.2099 74.6283C22.2565 74.6283 22.3031 74.6283 22.3962 74.6283C22.4427 74.6283 22.5359 74.6283 22.5824 74.6283H22.7221C22.7687 74.6283 22.8618 74.6283 22.9084 74.6283C23.374 74.6283 23.7931 74.5819 24.2121 74.443C24.2121 74.443 24.2587 74.443 24.3052 74.443C24.5381 74.3504 24.6777 74.2114 24.864 74.1651C25.0037 74.1651 25.1899 74.1651 25.3296 74.1651C25.7021 74.1651 26.0746 74.1651 26.4006 74.2577C26.5868 74.2577 26.6799 74.3967 26.8196 74.443C27.0059 74.5356 27.1921 74.5356 27.3784 74.5819C27.9371 74.7672 28.5424 74.9525 29.1012 75.0451C29.4737 75.0451 29.7065 75.0451 30.079 75.1841C30.4049 75.2767 30.7309 75.3693 31.1034 75.462C31.1034 75.462 31.1965 75.462 31.2431 75.462C31.3827 75.462 31.569 75.462 31.7087 75.462C31.7087 75.462 31.7552 75.462 31.8018 75.462C32.0346 75.462 32.2674 75.462 32.4537 75.462C32.4537 75.462 32.5468 75.462 32.5934 75.462C32.7331 75.462 32.8727 75.462 33.0124 75.462C33.3384 75.462 33.6177 75.4156 33.8971 75.323C33.9902 75.323 34.0834 75.323 34.1765 75.2767C34.4559 75.2304 34.6887 75.1841 34.9681 75.1841C35.3406 75.1841 35.6665 75.1841 36.039 75.1841C36.4115 75.1841 36.6909 75.2767 37.0634 75.2767C37.3427 75.2767 37.529 75.3693 37.8084 75.3693C38.0412 75.3693 38.2274 75.3693 38.4602 75.3693C38.9724 75.462 39.4381 75.5083 39.9968 75.5083C40.5556 75.5083 41.0212 75.6009 41.5334 75.6935C42.0456 75.7862 43.3027 75.9251 44.0012 75.9251H45.0721C45.4912 75.9251 45.8171 75.8325 46.1896 75.8325C46.6087 75.8325 46.8881 75.6935 47.3071 75.6472C47.5865 75.6472 47.7727 75.4156 48.0521 75.3693C48.2384 75.323 48.4246 75.3693 48.6109 75.3693C48.7506 75.3693 48.9368 75.3693 49.0765 75.3693C49.449 75.3693 49.7284 75.1841 50.1009 75.1377C50.6131 75.0914 51.1718 75.2304 51.684 75.2304C52.0565 75.2304 52.3824 75.1377 52.7549 75.1377C54.5243 75.1377 56.2937 75.1377 58.0631 75.1377C59.8324 75.1377 59.134 74.9988 59.6462 74.9062C60.1584 74.8135 60.7637 74.8598 61.3224 74.8598C61.8812 74.8598 62.1605 74.8598 62.6727 75.1841C62.9987 75.3693 63.4177 75.5083 63.7902 75.6009C64.4421 75.7862 65.0474 76.1104 65.6993 76.2493C66.0252 76.342 66.3512 76.342 66.6305 76.5272C66.7702 76.6199 66.8168 76.6662 67.0031 76.7125C67.1893 76.7588 67.329 76.8051 67.5153 76.8978C67.6549 76.9904 67.7946 77.083 67.9809 77.083C68.3534 77.1294 68.819 77.083 69.1915 77.083C69.564 77.083 69.9365 77.083 70.309 76.9904C70.6349 76.8978 70.9143 76.6662 71.2402 76.5272C71.6127 76.342 71.9387 76.1104 72.4043 76.0641C72.7302 76.0641 73.1027 76.0641 73.4752 76.0641C74.0806 76.0641 74.6859 75.9714 75.3377 75.9714C75.7102 75.9714 76.0827 75.9714 76.4552 75.9714C76.8277 75.9714 77.3865 75.9714 77.8055 75.9714C78.178 75.9714 78.5506 75.9251 78.9231 75.8788C79.4352 75.8325 79.8077 75.5546 80.3199 75.462C80.7856 75.3693 81.2512 75.2767 81.7168 75.0914C82.1824 74.9062 82.4618 74.7672 82.974 74.7672C83.4862 74.7672 84.0449 74.7672 84.5106 74.9525C84.9762 75.0914 85.4884 75.2767 86.0005 75.2767C86.2799 75.2767 86.6059 75.2767 86.8852 75.2767C87.3509 75.2767 88.0027 75.3693 88.4684 75.2767C88.7943 75.2304 89.0737 74.9988 89.3531 74.9525C89.5393 74.9525 89.679 74.9525 89.8652 74.9525C90.0515 74.9525 90.1912 74.8598 90.3774 74.8598C91.0759 74.8598 91.8209 74.8598 92.4727 74.6746C92.659 74.6283 92.7987 74.5356 92.9849 74.443C93.1246 74.3967 93.3109 74.3504 93.404 74.2577C93.5437 74.1651 93.6834 74.0261 93.8696 73.9335C94.0093 73.8409 94.149 73.8409 94.3352 73.7946C94.6612 73.6556 94.9871 73.563 95.3596 73.5167C95.8252 73.5167 96.3374 73.424 96.8031 73.2851C97.0824 73.1924 97.3152 73.0998 97.5481 72.9609C97.6877 72.8682 97.874 72.8682 98.0137 72.8219C98.2465 72.7293 98.3396 72.4977 98.619 72.4514C98.8052 72.4514 98.8984 72.4514 99.0846 72.4051C99.5968 72.2661 100.109 72.2198 100.621 72.0808C100.807 72.0345 100.994 71.9419 101.133 71.8493C101.32 71.7566 101.506 71.7103 101.692 71.664C101.925 71.5714 102.018 71.525 102.251 71.4787C102.437 71.4787 102.623 71.3861 102.81 71.3861C103.042 71.3861 103.275 71.3861 103.461 71.3861C103.601 71.3861 103.787 71.2471 103.927 71.2008C104.3 71.0619 104.579 71.0619 104.951 71.2008C105.603 71.4787 106.162 71.7566 106.907 71.7103C107.28 71.7103 107.745 71.6177 108.071 71.4787C108.444 71.3398 108.77 71.0619 109.142 70.9229C109.515 70.784 110.027 70.9229 110.353 70.9229C110.632 70.9692 110.911 71.0619 111.237 71.1545L111.424 71.0619Z" fill="url(#paint2_linear_154_9291)"/>
<path style="mix-blend-mode:multiply" d="M111.424 71.0619V101.584C111.424 107.004 107 111.404 101.552 111.404H12.2921C6.09931 111.404 1.07056 106.401 1.07056 100.241V77.8241C1.58274 77.9167 2.00181 77.963 2.56056 78.0094C3.11931 78.0094 3.63149 77.8704 4.19024 77.7778C4.70243 77.6851 5.21462 77.7778 5.77337 77.6852C6.05274 77.6852 6.28556 77.5925 6.56493 77.5925C6.75118 77.5925 6.89087 77.5925 7.07712 77.5462C7.91524 77.3609 8.75337 77.3609 9.63806 77.3609C9.68462 77.3609 9.73118 77.3609 9.77774 77.3609C9.96399 77.3609 10.1968 77.3609 10.3831 77.3609C10.3831 77.3609 10.4762 77.3609 10.5227 77.3609C10.6624 77.3609 10.8487 77.3609 10.9884 77.3609C11.0815 77.3609 11.1281 77.3609 11.2212 77.3609C11.5937 77.3609 11.9662 77.3609 12.3387 77.3609C12.3852 77.3609 12.4784 77.3609 12.5249 77.3609C12.5249 77.3609 12.5249 77.3609 12.5715 77.3609C13.0837 77.3609 13.5959 77.083 14.1081 76.9904C14.5271 76.8978 14.8996 76.6662 15.3187 76.5735C15.5981 76.5272 15.8774 76.4809 16.1102 76.4346C16.5759 76.342 17.0415 76.2957 17.5071 76.1567C17.7865 76.1104 18.2056 76.0641 18.4849 75.9251C19.3696 75.5083 20.1146 74.7672 21.1856 74.6746C21.2321 74.6746 21.2787 74.6746 21.3718 74.6746C21.3718 74.6746 21.4649 74.6746 21.5115 74.6746C21.7443 74.6746 21.9771 74.6283 22.2099 74.6283C22.2565 74.6283 22.3031 74.6283 22.3962 74.6283C22.4427 74.6283 22.5359 74.6283 22.5824 74.6283H22.7221C22.7687 74.6283 22.8618 74.6283 22.9084 74.6283C23.374 74.6283 23.7931 74.5819 24.2121 74.443C24.2121 74.443 24.2587 74.443 24.3052 74.443C24.5381 74.3504 24.6777 74.2114 24.864 74.1651C25.0037 74.1651 25.1899 74.1651 25.3296 74.1651C25.7021 74.1651 26.0746 74.1651 26.4006 74.2577C26.5868 74.2577 26.6799 74.3967 26.8196 74.443C27.0059 74.5356 27.1921 74.5356 27.3784 74.5819C27.9371 74.7672 28.5424 74.9525 29.1012 75.0451C29.4737 75.0451 29.7065 75.0451 30.079 75.1841C30.4049 75.2767 30.7309 75.3693 31.1034 75.462C31.1034 75.462 31.1965 75.462 31.2431 75.462C31.3827 75.462 31.569 75.462 31.7087 75.462C31.7087 75.462 31.7552 75.462 31.8018 75.462C32.0346 75.462 32.2674 75.462 32.4537 75.462C32.4537 75.462 32.5468 75.462 32.5934 75.462C32.7331 75.462 32.8727 75.462 33.0124 75.462C33.3384 75.462 33.6177 75.4156 33.8971 75.323C33.9902 75.323 34.0834 75.323 34.1765 75.2767C34.4559 75.2304 34.6887 75.1841 34.9681 75.1841C35.3406 75.1841 35.6665 75.1841 36.039 75.1841C36.4115 75.1841 36.6909 75.2767 37.0634 75.2767C37.3427 75.2767 37.529 75.3693 37.8084 75.3693C38.0412 75.3693 38.2274 75.3693 38.4602 75.3693C38.9724 75.462 39.4381 75.5083 39.9968 75.5083C40.5556 75.5083 41.0212 75.6009 41.5334 75.6935C42.0456 75.7862 43.3027 75.9251 44.0012 75.9251H45.0721C45.4912 75.9251 45.8171 75.8325 46.1896 75.8325C46.6087 75.8325 46.8881 75.6935 47.3071 75.6472C47.5865 75.6472 47.7727 75.4156 48.0521 75.3693C48.2384 75.323 48.4246 75.3693 48.6109 75.3693C48.7506 75.3693 48.9368 75.3693 49.0765 75.3693C49.449 75.3693 49.7284 75.1841 50.1009 75.1377C50.6131 75.0914 51.1718 75.2304 51.684 75.2304C52.0565 75.2304 52.3824 75.1377 52.7549 75.1377C54.5243 75.1377 56.2937 75.1377 58.0631 75.1377C59.8324 75.1377 59.134 74.9988 59.6462 74.9062C60.1584 74.8135 60.7637 74.8598 61.3224 74.8598C61.8812 74.8598 62.1605 74.8598 62.6727 75.1841C62.9987 75.3693 63.4177 75.5083 63.7902 75.6009C64.4421 75.7862 65.0474 76.1104 65.6993 76.2493C66.0252 76.342 66.3512 76.342 66.6305 76.5272C66.7702 76.6199 66.8168 76.6662 67.0031 76.7125C67.1893 76.7588 67.329 76.8051 67.5153 76.8978C67.6549 76.9904 67.7946 77.083 67.9809 77.083C68.3534 77.1294 68.819 77.083 69.1915 77.083C69.564 77.083 69.9365 77.083 70.309 76.9904C70.6349 76.8978 70.9143 76.6662 71.2402 76.5272C71.6127 76.342 71.9387 76.1104 72.4043 76.0641C72.7302 76.0641 73.1027 76.0641 73.4752 76.0641C74.0806 76.0641 74.6859 75.9714 75.3377 75.9714C75.7102 75.9714 76.0827 75.9714 76.4552 75.9714C76.8277 75.9714 77.3865 75.9714 77.8055 75.9714C78.178 75.9714 78.5506 75.9251 78.9231 75.8788C79.4352 75.8325 79.8077 75.5546 80.3199 75.462C80.7856 75.3693 81.2512 75.2767 81.7168 75.0914C82.1824 74.9062 82.4618 74.7672 82.974 74.7672C83.4862 74.7672 84.0449 74.7672 84.5106 74.9525C84.9762 75.0914 85.4884 75.2767 86.0005 75.2767C86.2799 75.2767 86.6059 75.2767 86.8852 75.2767C87.3509 75.2767 88.0027 75.3693 88.4684 75.2767C88.7943 75.2304 89.0737 74.9988 89.3531 74.9525C89.5393 74.9525 89.679 74.9525 89.8652 74.9525C90.0515 74.9525 90.1912 74.8598 90.3774 74.8598C91.0759 74.8598 91.8209 74.8598 92.4727 74.6746C92.659 74.6283 92.7987 74.5356 92.9849 74.443C93.1246 74.3967 93.3109 74.3504 93.404 74.2577C93.5437 74.1651 93.6834 74.0261 93.8696 73.9335C94.0093 73.8409 94.149 73.8409 94.3352 73.7946C94.6612 73.6556 94.9871 73.563 95.3596 73.5167C95.8252 73.5167 96.3374 73.424 96.8031 73.2851C97.0824 73.1924 97.3152 73.0998 97.5481 72.9609C97.6877 72.8682 97.874 72.8682 98.0137 72.8219C98.2465 72.7293 98.3396 72.4977 98.619 72.4514C98.8052 72.4514 98.8984 72.4514 99.0846 72.4051C99.5968 72.2661 100.109 72.2198 100.621 72.0808C100.807 72.0345 100.994 71.9419 101.133 71.8493C101.32 71.7566 101.506 71.7103 101.692 71.664C101.925 71.5714 102.018 71.525 102.251 71.4787C102.437 71.4787 102.623 71.3861 102.81 71.3861C103.042 71.3861 103.275 71.3861 103.461 71.3861C103.601 71.3861 103.787 71.2471 103.927 71.2008C104.3 71.0619 104.579 71.0619 104.951 71.2008C105.603 71.4787 106.162 71.7566 106.907 71.7103C107.28 71.7103 107.745 71.6177 108.071 71.4787C108.444 71.3398 108.77 71.0619 109.142 70.9229C109.515 70.784 110.027 70.9229 110.353 70.9229C110.632 70.9692 110.911 71.0619 111.237 71.1545L111.424 71.0619Z" fill="url(#paint3_linear_154_9291)"/>
<path d="M111.424 80.9273C110.586 80.5568 109.468 79.862 108.351 79.9084C107.885 79.9084 107.559 80.0473 107.187 80.1863C106.907 80.2789 106.768 80.3252 106.442 80.3252C106.116 80.3252 105.743 80.3252 105.417 80.2789C104.905 80.2326 104.439 80.001 103.927 79.862C103.415 79.6768 102.996 79.3989 102.437 79.3526C102.158 79.3526 101.832 79.3526 101.553 79.3062C101.18 79.3062 100.808 79.2599 100.435 79.2136C99.7832 79.1673 99.1313 79.1673 98.526 78.982C98.0604 78.8894 97.6413 78.7968 97.1757 78.7504C96.9429 78.7504 96.71 78.7041 96.5238 78.7504C96.3375 78.7968 96.1513 78.9357 95.9185 78.982C95.4063 79.121 94.9872 79.3989 94.3819 79.3989C93.9629 79.3989 93.4972 79.2599 93.0782 79.3062C92.2866 79.3526 91.495 79.5841 90.6569 79.5841C90.005 79.5841 89.26 79.6768 88.6082 79.7231C88.4219 79.7231 88.3288 79.7231 88.1425 79.7231C88.0029 79.7231 87.9563 79.8157 87.8166 79.8157C87.5372 79.862 87.1647 79.8157 86.8854 79.7694C86.5129 79.7694 86.1869 79.7694 85.861 79.6305C85.6282 79.5378 85.3488 79.4452 85.0694 79.3989C84.6038 79.2599 84.1382 79.2599 83.7191 79.0747C83.4397 78.982 83.2069 78.7504 82.9275 78.6578C82.6947 78.6115 82.4619 78.6578 82.2291 78.5652C81.9497 78.5189 81.7169 78.4725 81.4375 78.4725C80.9719 78.4725 80.6925 78.241 80.2269 78.1946C79.9475 78.1946 79.6216 78.1946 79.3422 78.102C79.156 78.0557 78.9232 77.9167 78.7369 77.8241C78.3179 77.6388 77.8988 77.5462 77.5729 77.2683C77.4332 77.1757 77.2935 77.0367 77.1538 76.9904C76.6882 76.8051 75.8966 76.8978 75.3844 76.8515C75.105 76.8515 74.8722 76.8515 74.5929 76.8051C74.2204 76.8051 73.8479 76.6662 73.4753 76.4809C72.0785 75.8325 70.4954 75.8325 69.0519 76.2493C68.7725 76.342 68.5397 76.4346 68.3069 76.5736C68.1207 76.6662 67.9344 76.8515 67.7016 76.9441C67.5154 77.0367 67.236 77.083 67.0497 77.083C66.9566 77.083 66.91 77.083 66.8169 77.083C66.7238 77.083 66.7238 77.1294 66.6772 77.1757C66.2582 77.1757 65.746 77.1294 65.2804 77.083C64.7216 77.083 64.3957 76.8515 63.9766 76.5736C63.2316 76.0641 62.2538 75.5546 61.2294 75.6935C61.0432 75.6935 60.8104 75.8325 60.5775 75.8788C60.1119 75.9714 59.6463 76.0178 59.1807 76.1104C58.9013 76.1567 58.715 76.203 58.4357 76.342C58.2494 76.4346 58.0632 76.5272 57.8769 76.5736C57.6441 76.6199 57.3647 76.6662 57.1319 76.7125C57.0388 76.7125 56.9922 76.8515 56.8991 76.8515C56.7594 76.8515 56.6197 76.8515 56.48 76.8515C55.8282 76.8515 55.2229 76.8515 54.571 76.7588C53.6397 76.6662 52.8482 76.2957 51.9169 76.1567C51.4047 76.1104 50.8925 76.0641 50.3804 76.1567C49.8216 76.1567 49.3094 76.342 48.7507 76.342C48.3316 76.342 47.9125 76.5272 47.4935 76.5736C47.1675 76.5736 46.9347 76.7125 46.6554 76.7588C46.4691 76.7588 46.2829 76.8515 46.1432 76.8978C45.9569 76.9441 45.7707 76.9441 45.5844 76.9904C45.1188 77.1294 44.6066 77.1757 44.0944 77.3609C43.7219 77.4999 43.2563 77.5925 42.9304 77.7778C42.5579 77.9631 42.1388 77.9631 41.7663 78.1483C41.4404 78.2873 41.161 78.4262 40.835 78.5189C40.6488 78.6115 40.5091 78.6578 40.3229 78.7504C40.1366 78.8431 39.9504 78.7968 39.7641 78.8431C39.5779 78.8431 39.3916 78.982 39.1588 79.0283C38.9725 79.0283 38.7863 79.0283 38.6 79.121C38.2741 79.2136 38.181 79.2136 37.855 79.2136C37.2963 79.1673 36.7841 79.2599 36.2719 79.3062C35.1544 79.3062 34.13 79.6305 33.0591 79.7694C32.1744 79.9084 31.2432 79.7694 30.3119 79.7231C30.0791 79.7231 29.9394 79.6768 29.7066 79.5841C29.3341 79.4915 28.8219 79.4915 28.4494 79.4452C27.751 79.3989 26.8663 79.2136 26.1679 79.3062C25.7954 79.3062 25.516 79.4452 25.19 79.5378C24.7244 79.6305 24.3985 79.862 23.8863 79.8157C23.4207 79.8157 22.955 79.8157 22.536 79.6768C21.6047 79.4915 20.7666 79.1673 19.8354 79.121C18.811 79.0283 17.8332 78.7968 16.8088 78.7041C16.576 78.7041 16.3432 78.7041 16.1104 78.6578C15.8775 78.6578 15.7379 78.7041 15.505 78.7968C14.8997 78.982 14.341 79.1673 13.6891 79.2599C12.525 79.4452 11.5007 80.001 10.3832 80.3252C9.91754 80.4642 9.40535 80.6031 8.93973 80.6957C8.61379 80.7884 8.28785 80.9273 7.96191 81.02C7.77566 81.0663 7.54285 81.1589 7.3566 81.2052C7.12379 81.2052 6.79785 81.2052 6.56504 81.1589C6.09941 81.1589 5.72691 81.1126 5.35441 80.9273C5.1216 80.8347 5.1216 80.7884 4.88879 80.7421C4.65598 80.7421 4.46973 80.7421 4.23691 80.6494C3.6316 80.4642 3.02629 80.3715 2.5141 80.0473C2.28129 79.862 2.04848 79.7231 1.86223 79.5378C1.7691 79.4452 1.67598 79.3526 1.58285 79.2599C1.48973 79.1673 1.30348 79.121 1.21035 79.0283C1.07066 78.8894 1.07066 78.7968 0.977539 78.7504V100.01C0.977539 106.309 6.09942 111.404 12.4319 111.404H100.016C106.255 111.404 111.331 106.355 111.331 100.149V80.9736L111.424 80.9273Z" fill="#047255"/>
<path style="mix-blend-mode:multiply" d="M111.424 80.9273C110.586 80.5568 109.468 79.862 108.351 79.9084C107.885 79.9084 107.559 80.0473 107.187 80.1863C106.907 80.2789 106.768 80.3252 106.442 80.3252C106.116 80.3252 105.743 80.3252 105.417 80.2789C104.905 80.2326 104.439 80.001 103.927 79.862C103.415 79.6768 102.996 79.3989 102.437 79.3526C102.158 79.3526 101.832 79.3526 101.553 79.3062C101.18 79.3062 100.808 79.2599 100.435 79.2136C99.7832 79.1673 99.1313 79.1673 98.526 78.982C98.0604 78.8894 97.6413 78.7968 97.1757 78.7504C96.9429 78.7504 96.71 78.7041 96.5238 78.7504C96.3375 78.7968 96.1513 78.9357 95.9185 78.982C95.4063 79.121 94.9872 79.3989 94.3819 79.3989C93.9629 79.3989 93.4972 79.2599 93.0782 79.3062C92.2866 79.3526 91.495 79.5841 90.6569 79.5841C90.005 79.5841 89.26 79.6768 88.6082 79.7231C88.4219 79.7231 88.3288 79.7231 88.1425 79.7231C88.0029 79.7231 87.9563 79.8157 87.8166 79.8157C87.5372 79.862 87.1647 79.8157 86.8854 79.7694C86.5129 79.7694 86.1869 79.7694 85.861 79.6305C85.6282 79.5378 85.3488 79.4452 85.0694 79.3989C84.6038 79.2599 84.1382 79.2599 83.7191 79.0747C83.4397 78.982 83.2069 78.7504 82.9275 78.6578C82.6947 78.6115 82.4619 78.6578 82.2291 78.5652C81.9497 78.5189 81.7169 78.4725 81.4375 78.4725C80.9719 78.4725 80.6925 78.241 80.2269 78.1946C79.9475 78.1946 79.6216 78.1946 79.3422 78.102C79.156 78.0557 78.9232 77.9167 78.7369 77.8241C78.3179 77.6388 77.8988 77.5462 77.5729 77.2683C77.4332 77.1757 77.2935 77.0367 77.1538 76.9904C76.6882 76.8051 75.8966 76.8978 75.3844 76.8515C75.105 76.8515 74.8722 76.8515 74.5929 76.8051C74.2204 76.8051 73.8479 76.6662 73.4753 76.4809C72.0785 75.8325 70.4954 75.8325 69.0519 76.2493C68.7725 76.342 68.5397 76.4346 68.3069 76.5736C68.1207 76.6662 67.9344 76.8515 67.7016 76.9441C67.5154 77.0367 67.236 77.083 67.0497 77.083C66.9566 77.083 66.91 77.083 66.8169 77.083C66.7238 77.083 66.7238 77.1294 66.6772 77.1757C66.2582 77.1757 65.746 77.1294 65.2804 77.083C64.7216 77.083 64.3957 76.8515 63.9766 76.5736C63.2316 76.0641 62.2538 75.5546 61.2294 75.6935C61.0432 75.6935 60.8104 75.8325 60.5775 75.8788C60.1119 75.9714 59.6463 76.0178 59.1807 76.1104C58.9013 76.1567 58.715 76.203 58.4357 76.342C58.2494 76.4346 58.0632 76.5272 57.8769 76.5736C57.6441 76.6199 57.3647 76.6662 57.1319 76.7125C57.0388 76.7125 56.9922 76.8515 56.8991 76.8515C56.7594 76.8515 56.6197 76.8515 56.48 76.8515C55.8282 76.8515 55.2229 76.8515 54.571 76.7588C53.6397 76.6662 52.8482 76.2957 51.9169 76.1567C51.4047 76.1104 50.8925 76.0641 50.3804 76.1567C49.8216 76.1567 49.3094 76.342 48.7507 76.342C48.3316 76.342 47.9125 76.5272 47.4935 76.5736C47.1675 76.5736 46.9347 76.7125 46.6554 76.7588C46.4691 76.7588 46.2829 76.8515 46.1432 76.8978C45.9569 76.9441 45.7707 76.9441 45.5844 76.9904C45.1188 77.1294 44.6066 77.1757 44.0944 77.3609C43.7219 77.4999 43.2563 77.5925 42.9304 77.7778C42.5579 77.9631 42.1388 77.9631 41.7663 78.1483C41.4404 78.2873 41.161 78.4262 40.835 78.5189C40.6488 78.6115 40.5091 78.6578 40.3229 78.7504C40.1366 78.8431 39.9504 78.7968 39.7641 78.8431C39.5779 78.8431 39.3916 78.982 39.1588 79.0283C38.9725 79.0283 38.7863 79.0283 38.6 79.121C38.2741 79.2136 38.181 79.2136 37.855 79.2136C37.2963 79.1673 36.7841 79.2599 36.2719 79.3062C35.1544 79.3062 34.13 79.6305 33.0591 79.7694C32.1744 79.9084 31.2432 79.7694 30.3119 79.7231C30.0791 79.7231 29.9394 79.6768 29.7066 79.5841C29.3341 79.4915 28.8219 79.4915 28.4494 79.4452C27.751 79.3989 26.8663 79.2136 26.1679 79.3062C25.7954 79.3062 25.516 79.4452 25.19 79.5378C24.7244 79.6305 24.3985 79.862 23.8863 79.8157C23.4207 79.8157 22.955 79.8157 22.536 79.6768C21.6047 79.4915 20.7666 79.1673 19.8354 79.121C18.811 79.0283 17.8332 78.7968 16.8088 78.7041C16.576 78.7041 16.3432 78.7041 16.1104 78.6578C15.8775 78.6578 15.7379 78.7041 15.505 78.7968C14.8997 78.982 14.341 79.1673 13.6891 79.2599C12.525 79.4452 11.5007 80.001 10.3832 80.3252C9.91754 80.4642 9.40535 80.6031 8.93973 80.6957C8.61379 80.7884 8.28785 80.9273 7.96191 81.02C7.77566 81.0663 7.54285 81.1589 7.3566 81.2052C7.12379 81.2052 6.79785 81.2052 6.56504 81.1589C6.09941 81.1589 5.72691 81.1126 5.35441 80.9273C5.1216 80.8347 5.1216 80.7884 4.88879 80.7421C4.65598 80.7421 4.46973 80.7421 4.23691 80.6494C3.6316 80.4642 3.02629 80.3715 2.5141 80.0473C2.28129 79.862 2.04848 79.7231 1.86223 79.5378C1.7691 79.4452 1.67598 79.3526 1.58285 79.2599C1.48973 79.1673 1.30348 79.121 1.21035 79.0283C1.07066 78.8894 1.07066 78.7968 0.977539 78.7504V98.6666C0.977539 105.707 6.70473 111.357 13.7357 111.357H101.32C106.814 111.357 111.284 106.911 111.284 101.446V80.9273H111.424Z" fill="url(#paint4_linear_154_9291)"/>
<path d="M111.424 76.8978C111.238 76.8978 111.005 76.9441 110.818 77.0367C110.539 77.1294 110.399 77.1757 110.12 77.222C109.701 77.3146 109.282 77.5462 108.863 77.6388C108.304 77.7315 107.652 77.8704 107.14 78.1483C106.535 78.5189 105.79 79.0283 104.998 79.0283C104.765 79.0283 104.439 78.982 104.207 79.0283C104.02 79.0283 103.927 79.121 103.694 79.121C103.322 79.121 102.949 79.2136 102.53 79.2136C101.925 79.2136 101.227 79.3062 100.668 79.1673C100.202 79.0746 99.5969 79.0746 99.1313 79.121C98.526 79.121 97.9207 79.5378 97.4085 79.7694C97.036 79.9083 96.6169 80.001 96.2444 80.1399C95.6391 80.3252 95.0804 80.5568 94.475 80.6957C94.2422 80.742 94.0094 80.742 93.8232 80.8347C93.6369 80.9273 93.4972 81.0199 93.311 81.0663C92.8454 81.2052 92.5194 81.2052 92.0538 81.2052C91.6347 81.2052 91.2622 81.3442 90.8897 81.3905C90.331 81.4368 89.9119 81.6221 89.3532 81.6221C89.2135 81.6221 89.0272 81.6221 88.8875 81.6221C88.7013 81.6221 88.515 81.761 88.3288 81.8536C87.9563 82.0389 87.5838 82.2705 87.1647 82.3631C86.7922 82.5021 86.4663 82.5484 86.0938 82.641C85.861 82.6873 85.6747 82.8263 85.3954 82.8726C85.2091 82.8726 85.0229 82.9189 84.79 83.0116C84.4175 83.1042 84.0916 83.1042 83.7191 83.1042C83.3466 83.1042 82.7413 83.1042 82.2291 83.0579C81.9032 83.0116 81.6238 82.8726 81.3444 82.78C81.1582 82.7337 80.9719 82.78 80.7391 82.6873C80.5529 82.641 80.4132 82.5021 80.2735 82.4094C80.1804 82.3631 79.9941 82.3168 79.8544 82.2705C79.6216 82.2242 79.4354 82.2242 79.2491 82.1315C79.0629 82.0389 78.9697 81.9926 78.7835 81.9C78.411 81.761 78.0385 81.6221 77.666 81.5294C77.2935 81.4368 76.7813 81.5294 76.4554 81.3905C75.7569 81.1589 75.0585 80.9273 74.36 80.6957C74.0341 80.6031 73.7082 80.5568 73.4288 80.4641C73.3822 80.4641 73.3357 80.3715 73.2891 80.3252C73.196 80.3252 73.1494 80.3252 73.1029 80.3252C72.6838 80.2326 72.3579 80.0473 71.9388 80.0473C71.5663 80.0473 71.1938 80.0473 70.8679 80.1399C70.4954 80.2789 70.2625 80.3715 69.9366 80.6031C69.7504 80.742 69.5175 80.8347 69.3313 80.9736C69.145 81.1126 69.0519 81.2052 68.8657 81.2978C68.0275 81.6221 67.0963 81.2978 66.2582 81.5294C65.5597 81.7147 64.8147 81.8073 64.0697 81.9463C63.93 81.9463 63.7904 82.0389 63.6507 82.0852C63.4179 82.1779 63.185 82.1315 62.9522 82.2242C62.7194 82.3168 62.5797 82.4094 62.3469 82.4558C62.0675 82.5021 61.8347 82.641 61.5554 82.6873C60.9966 82.8263 60.3913 83.0116 59.8325 83.1505C59.6929 83.1505 59.5066 83.1505 59.3669 83.1505C59.1341 83.1505 58.9013 83.2431 58.6685 83.3358C58.4357 83.4284 58.3425 83.4747 58.1563 83.66C57.9235 83.8453 57.7372 83.9379 57.4113 83.9842C56.7594 84.1232 56.1541 84.401 55.5022 84.4474C55.0832 84.4474 54.7572 84.4937 54.3382 84.54C54.1054 84.54 54.0588 84.5863 53.8725 84.6789C53.7329 84.7253 53.4535 84.7716 53.2672 84.8179C53.0344 84.8179 52.8482 84.8179 52.6154 84.9105C52.4291 84.9568 52.3825 85.0495 52.1497 85.0495C51.6841 85.0495 51.3116 85.0032 50.8925 84.9569C50.6132 84.9569 50.3804 84.9569 50.101 84.9569C49.9613 84.9569 49.775 84.8642 49.6354 84.8179C49.4025 84.7716 49.2163 84.6326 48.9835 84.5863C48.7972 84.54 48.5644 84.54 48.3782 84.4937C48.0057 84.4011 47.6332 84.4937 47.2607 84.4011C47.0279 84.3547 46.8882 84.2158 46.7485 84.0768C46.5157 83.8916 46.0966 83.8453 45.8172 83.7063C45.4447 83.521 45.0257 83.2895 44.6532 83.0579C43.815 82.5021 42.7907 82.3631 41.7663 82.3631C41.3472 82.3631 40.9282 82.3631 40.5091 82.3631C40.3229 82.3631 40.2297 82.3168 40.09 82.2242C39.9504 82.1315 39.7641 82.1315 39.5779 82.0389C39.1588 81.9 38.7397 81.8073 38.3672 81.5757C38.181 81.4368 38.0413 81.3905 37.855 81.3442C37.6688 81.2515 37.4825 81.1126 37.2963 81.0199C36.9238 80.881 36.4582 80.881 36.0391 80.7884C35.7132 80.742 35.4338 80.6031 35.0613 80.5568C34.7354 80.5105 34.3629 80.5568 34.0369 80.4178C33.8041 80.3715 33.6179 80.2326 33.4316 80.1399C33.1522 80.001 32.8729 80.001 32.5935 79.862C32.3141 79.7694 32.1278 79.5841 31.895 79.4452C31.7554 79.3525 31.6157 79.3062 31.4294 79.2136C30.731 78.8894 29.9394 78.7967 29.2875 78.5188C28.915 78.3336 28.5425 78.3799 28.1235 78.3799C27.7975 78.3799 27.425 78.4725 27.0991 78.4725C26.68 78.4725 26.261 78.6578 25.7954 78.6578C25.4694 78.6578 25.2832 78.6578 24.9572 78.7967C24.6779 78.8894 24.3985 78.982 24.1191 79.0746C23.8397 79.1673 23.5604 79.3989 23.2344 79.4452C22.5825 79.5378 21.8841 79.7231 21.1857 79.7231C20.5338 79.7231 19.975 79.9083 19.3232 79.9083C18.9972 79.9083 18.7644 79.9083 18.485 79.9547C18.1591 80.001 17.8797 80.0473 17.5538 80.0936C17.1347 80.1399 16.8088 80.2789 16.3897 80.2789C16.0638 80.2789 15.7379 80.2789 15.4119 80.2789C15.086 80.2789 14.6204 80.2789 14.2013 80.2326C13.7822 80.1862 13.3632 80.1399 12.9907 80.0473C12.6182 80.001 12.2922 79.9083 11.9197 79.7694C11.7335 79.7231 11.4075 79.5378 11.1747 79.5378C10.8022 79.4915 10.3832 79.6304 10.0572 79.7231C9.9641 79.7231 9.82441 79.7231 9.73129 79.7231C9.5916 79.7231 9.54504 79.8157 9.40535 79.862C9.17254 79.9547 8.93973 79.9547 8.70691 80.001C8.4741 80.001 8.33441 80.1862 8.14816 80.2789C7.91535 80.3715 7.77566 80.4178 7.58941 80.5568C7.31004 80.7884 6.93754 80.9273 6.6116 81.1126C6.28566 81.2978 5.82004 81.3905 5.40098 81.4368C4.98191 81.4831 4.93535 81.5757 4.65598 81.6221C4.33004 81.6221 4.05066 81.6221 3.77129 81.6221C3.2591 81.6221 2.79348 81.8073 2.28129 81.9926C1.86223 82.1315 1.44316 82.2705 0.977539 82.4094V99.7781C0.977539 106.216 6.19254 111.404 12.6647 111.404H100.808C106.628 111.404 111.331 106.726 111.331 100.936V76.8978H111.424Z" fill="#004C3A"/>
<path d="M111.424 80.9736C110.073 80.9736 108.77 80.9736 107.419 80.9736C106.907 80.9736 106.442 81.1126 105.929 81.1589C105.464 81.2052 105.045 81.2515 104.579 81.2515C103.788 81.2515 102.996 81.5757 102.251 81.6684C102.065 81.6684 101.878 81.761 101.692 81.761C101.552 81.761 101.413 81.761 101.227 81.761C100.994 81.8073 100.854 81.9463 100.575 81.9463C100.388 81.9463 100.249 81.9463 100.062 81.9463C99.4106 82.0389 98.8053 82.1778 98.1534 82.2242C97.7344 82.2242 97.3153 82.3631 96.8497 82.4094C96.5238 82.4094 96.3841 82.5021 96.1047 82.5947C95.7787 82.6873 95.4062 82.7337 95.0803 82.8726C94.7544 83.0116 94.475 83.1505 94.1025 83.2431C93.4506 83.4284 92.7987 83.66 92.1469 83.4747C91.6812 83.3821 91.0759 83.4747 90.6103 83.4747C90.0516 83.4747 89.4928 83.4747 88.9341 83.6137C88.6547 83.7063 88.3287 83.7989 88.0494 83.9379C87.8631 84.0305 87.6303 84.0768 87.4441 84.1695C87.3044 84.2158 87.2578 84.3547 87.1181 84.401C87.025 84.4474 86.8853 84.4937 86.7456 84.4937C86.5594 84.54 86.3731 84.6326 86.1869 84.7253C85.6747 84.8642 85.2556 85.0495 84.7434 85.0495C84.2778 85.0495 83.8122 85.0495 83.3466 84.9568C82.7878 84.8179 82.2756 84.7253 81.7169 84.5863C81.1581 84.4474 80.6459 84.3547 80.1337 84.3547C79.6216 84.3547 79.5284 84.3547 79.2025 84.3547C78.7834 84.3547 78.4575 84.4474 78.085 84.54C77.8056 84.54 77.5263 84.5863 77.2934 84.6326C76.7812 84.7253 76.3156 84.8642 75.8034 84.9105C75.3378 85.0032 74.8722 84.9105 74.4066 84.9105C74.0341 84.9105 73.7081 84.9568 73.3356 85.0495C73.1028 85.0495 72.8234 85.0495 72.5906 85.0495C72.4044 85.0495 72.2647 85.1421 72.125 85.1421C71.6594 85.2347 71.2869 85.3274 70.8212 85.3274C70.5419 85.3274 70.3091 85.3274 70.0297 85.2347C69.5641 85.1421 69.0053 85.0958 68.6328 84.8179C68.3069 84.5863 67.9809 84.4474 67.5619 84.3084C67.3756 84.2621 67.2825 84.1231 67.0962 84.0768C66.8634 83.9842 66.6306 83.9842 66.3512 83.9842C65.8391 83.9842 65.2337 83.9842 64.7216 83.8916C64.3491 83.8452 63.9766 83.7526 63.6506 83.7063C63.4644 83.7063 63.3247 83.66 63.1384 83.6137C62.9522 83.6137 62.8125 83.6137 62.6263 83.6137C62.3003 83.5673 62.0209 83.4747 61.695 83.3358C61.4156 83.1968 61.1828 82.9652 60.8569 82.8263C60.6706 82.7336 60.5309 82.6873 60.3913 82.5947C60.205 82.5021 60.0653 82.3631 59.8325 82.3168C59.6928 82.3168 59.5531 82.3168 59.4134 82.3168C59.0409 82.2242 58.6684 82.3168 58.2494 82.3168C57.6906 82.2705 57.225 82.1315 56.6197 82.1315C56.3403 82.1315 56.1075 82.1315 55.8281 82.1315C55.5953 82.1315 55.4091 82.0389 55.2228 82.0389C54.9434 82.0389 54.7572 81.9 54.5244 81.8536C54.3847 81.8536 54.1984 81.8536 54.0587 81.761C53.9191 81.7147 53.8259 81.622 53.6862 81.5294C53.2672 81.3905 52.7084 81.3442 52.2894 81.3442C51.8703 81.3442 51.5444 81.4368 51.1253 81.4368C50.3803 81.4368 49.6353 81.7147 49.03 82.0389C48.4247 82.3631 47.8194 82.7336 47.1675 83.0579C46.8881 83.1968 46.6088 83.3358 46.3294 83.4284C45.8638 83.6137 45.4447 83.7063 44.9791 83.8452C44.4669 84.0305 44.0478 84.1695 43.6287 84.4474C43.4891 84.54 43.4425 84.6326 43.2562 84.6789C43.07 84.7253 42.9303 84.7716 42.7441 84.8642C42.4181 85.0495 42.2319 85.2347 41.8594 85.3274C41.3937 85.42 40.835 85.559 40.4625 85.7442C39.7175 86.1611 38.7862 86.3463 37.9481 86.439C37.5756 86.4853 37.2497 86.6706 36.8772 86.7169C36.5978 86.7169 36.2719 86.7169 35.9925 86.7169C35.5734 86.7169 35.2475 86.7169 34.875 86.6242C34.6422 86.6242 34.4559 86.6242 34.2231 86.6242C34.0369 86.6242 33.8972 86.5316 33.7109 86.5316C33.3384 86.5316 32.8263 86.5316 32.4538 86.5316C31.7553 86.6242 31.15 86.8095 30.4981 86.9021C29.8928 86.9948 29.2875 87.0411 28.6356 87.0411C28.1234 87.0411 27.6578 87.0411 27.1922 86.9021C26.7266 86.7632 26.4937 86.8095 26.2144 86.8095C25.5625 86.8095 24.9106 86.8095 24.2587 86.9021C23.8862 86.9485 23.5138 87.2727 23.1878 87.4579C22.8153 87.6432 22.3497 87.7822 21.9772 87.9674C21.5116 88.199 20.9062 88.3843 20.3941 88.3843C20.1147 88.3843 19.7887 88.3843 19.5094 88.3843C19.2766 88.3843 19.0903 88.3843 18.8575 88.3843C18.5781 88.3843 18.3453 88.4769 18.0659 88.4769C17.9263 88.4769 17.7866 88.4769 17.6469 88.4769C17.4141 88.4769 17.1812 88.6622 16.9484 88.7548C15.6912 89.2643 14.2478 89.6348 13.1769 90.4222C12.7578 90.7464 12.2456 91.0243 11.78 91.3022C10.9884 91.8117 9.9175 91.997 8.93969 92.1822C8.56719 92.2749 8.19469 92.3675 7.77562 92.4138C7.35656 92.4601 7.26344 92.5064 7.03063 92.6454C6.37875 92.9696 5.72687 93.1086 5.075 93.4328C4.74906 93.5717 4.46969 93.4328 4.14375 93.6644C3.86437 93.8496 3.44531 93.9423 3.25906 93.6644C2.32781 92.3675 2.18813 94.0812 1.30344 93.9423L1.11719 94.0812V98.7129C1.11719 105.66 6.79781 111.311 13.7822 111.311H100.947C106.767 111.311 111.47 106.633 111.47 100.843V80.9273L111.424 80.9736Z" fill="#012D22"/>
<path d="M111.424 82.5484C111.144 82.6874 110.865 82.8726 110.632 83.1042C110.353 83.3358 110.073 83.3358 109.794 83.4747C109.561 83.5674 109.375 83.7526 109.142 83.8453C108.723 84.0305 108.351 84.2621 107.885 84.2621C107.745 84.2621 107.606 84.2621 107.466 84.2621C106.861 84.2621 106.255 84.1695 105.697 84.4011C105.51 84.4937 105.324 84.6326 105.091 84.679C104.858 84.7253 104.626 84.679 104.393 84.8642C104.207 85.0032 104.113 85.3274 103.927 85.5127C103.694 85.6979 103.462 85.7442 103.182 85.7906C102.763 85.9295 102.297 86.0685 101.878 86.2537C101.506 86.439 101.273 86.5316 100.901 86.5316C100.482 86.5316 100.109 86.5316 99.69 86.6243C99.2244 86.7632 98.8053 86.8558 98.2931 86.9485C97.7344 87.0411 97.1291 87.0411 96.5703 87.0411C96.0116 87.0411 95.1734 87.1801 94.5681 86.9022C94.3353 86.8095 94.1491 86.5779 93.9163 86.439C93.6834 86.3 93.4041 86.2074 93.1247 86.0685C92.8919 85.9295 92.6591 85.7906 92.3797 85.6979C92.1934 85.6516 92.0537 85.4663 91.8675 85.42C91.6347 85.3274 91.4019 85.42 91.1691 85.3737C90.9362 85.3737 90.7034 85.2811 90.4241 85.2348C90.1912 85.2348 90.0516 85.1421 89.8653 85.0958C89.6791 85.0958 89.4928 85.1421 89.3066 85.0958C88.8409 84.9569 88.3753 84.8179 87.9097 84.679C87.4906 84.54 87.1181 84.3547 86.6991 84.2158C86.3731 84.1232 86.0472 84.2158 85.7212 84.2158C85.4419 84.2158 85.1625 84.1695 84.9297 84.2158C84.6969 84.2158 84.4641 84.3547 84.2312 84.3547C83.9053 84.3547 83.5794 84.3547 83.2534 84.4937C83.1137 84.54 83.0206 84.6326 82.9275 84.679C82.6016 84.8179 82.1359 84.679 81.81 84.8642C81.4375 85.0495 81.0184 85.2348 80.6459 85.42C80.2734 85.6053 79.9475 85.7906 79.6216 86.0221C79.1094 86.3927 78.5972 86.5779 78.0384 86.8095C77.7591 86.9485 77.5263 86.9022 77.2934 86.9948C77.0606 87.0874 76.8744 87.2264 76.6416 87.2727C76.2691 87.3653 75.85 87.2727 75.4309 87.2727H73.1028C72.3112 87.2727 71.6128 87.2727 70.8212 87.5043C70.5419 87.5969 70.3556 87.8285 70.1228 87.8748C69.9831 87.8748 69.89 87.8748 69.7969 87.9674C69.7969 87.9674 69.7038 88.1064 69.6572 88.1527C69.5641 88.2453 69.3778 88.2453 69.2381 88.338C69.0519 88.4769 68.8656 88.6159 68.6794 88.7085C68.1672 88.9401 67.655 89.1717 67.1428 89.3106C66.6306 89.4496 65.9788 89.6811 65.5131 90.0054C65.0941 90.2833 64.675 90.3759 64.2559 90.5612C63.6972 90.8391 63.0919 91.0706 62.44 91.117C61.9278 91.117 61.5553 91.3949 61.0431 91.5338C60.6706 91.6264 60.3447 91.7191 59.9722 91.858C59.46 92.0433 58.9478 91.997 58.4356 91.997C58.0166 91.997 57.5509 92.1359 57.1319 92.2286C56.7128 92.3212 56.2472 92.3212 55.8281 92.3212C54.4778 92.2286 53.1275 92.5991 51.8703 91.8117C51.6841 91.6728 51.4047 91.6728 51.265 91.5338C51.0787 91.3949 51.0788 91.2559 50.8459 91.2096C50.2872 91.117 49.6353 91.2096 49.0766 91.2096C48.5644 91.2096 47.9591 91.0706 47.4469 90.978C46.9347 90.8854 46.4225 90.978 45.9569 90.7927C45.7706 90.7001 45.5844 90.6538 45.3516 90.6075C45.1653 90.5148 45.0256 90.2833 44.8394 90.1906C44.5134 90.0517 44.1875 89.8664 43.8616 89.7275C43.4891 89.5422 43.1166 89.5422 42.7441 89.4032C42.4181 89.2643 42.1387 89.3106 41.8128 89.1254C41.58 88.9864 41.4869 88.9864 41.2075 88.9864C40.835 88.9864 40.5091 88.6622 40.1366 88.5696C39.9503 88.5232 39.7641 88.5696 39.5778 88.4306C39.345 88.338 39.1122 88.199 38.8794 88.0601C38.5069 87.8285 38.1809 87.5043 37.8084 87.319C37.5756 87.1801 37.3428 87.1801 37.11 87.0411C36.8772 86.8558 36.6909 86.7169 36.4116 86.7169C35.2009 86.6243 33.9437 86.9022 32.7331 86.7169C31.8484 86.5779 31.0569 86.0221 30.2653 85.5127C29.8928 85.2811 29.4737 84.7716 29.0547 84.5863C28.6822 84.4474 28.2631 84.5863 27.8906 84.7253C27.0991 84.9569 26.3541 85.3737 25.5625 85.7442C25.2831 85.8832 25.0037 85.8369 24.7244 85.8369C24.3984 85.8369 24.2122 85.9758 23.8862 85.9758C23.0947 85.9758 22.21 86.1148 21.4184 86.3464C20.6734 86.5316 19.975 86.9948 19.23 87.0411C18.5781 87.0874 17.6003 87.1801 16.995 86.7169C16.6225 86.439 16.4362 85.8369 16.0637 85.559C15.5516 85.1421 14.8066 85.2811 14.2478 85.1884C13.4097 85.0495 12.5716 84.9569 11.78 84.7253C11.2213 84.54 10.5228 84.2621 10.1038 83.7063C9.82438 83.3821 9.59156 83.0579 9.31219 82.78C8.84656 82.3168 8.33437 82.4558 7.77562 82.4558C7.35656 82.4558 6.89094 82.4094 6.47187 82.3631C5.91313 82.2705 5.26125 82.2705 4.74906 81.9463C4.51625 81.8073 4.37656 81.5758 4.19031 81.3905C4.00406 81.2052 3.81781 81.1589 3.585 80.9273C2.97969 80.2789 2.14156 80.0473 1.44313 79.7694L1.11719 80.001V99.3613C1.11719 106.124 6.61156 111.589 13.4097 111.589H100.947C106.767 111.589 111.47 106.911 111.47 101.121V82.7337L111.424 82.5484Z" fill="#001A2F"/>
<path style="mix-blend-mode:multiply" d="M111.424 82.5484C111.144 82.6874 110.865 82.8726 110.632 83.1042C110.353 83.3358 110.073 83.3358 109.794 83.4747C109.561 83.5674 109.375 83.7526 109.142 83.8453C108.723 84.0305 108.351 84.2621 107.885 84.2621C107.745 84.2621 107.606 84.2621 107.466 84.2621C106.861 84.2621 106.255 84.1695 105.697 84.4011C105.51 84.4937 105.324 84.6326 105.091 84.679C104.858 84.7253 104.626 84.679 104.393 84.8642C104.207 85.0032 104.113 85.3274 103.927 85.5127C103.694 85.6979 103.462 85.7442 103.182 85.7906C102.763 85.9295 102.297 86.0685 101.878 86.2537C101.506 86.439 101.273 86.5316 100.901 86.5316C100.482 86.5316 100.109 86.5316 99.69 86.6243C99.2244 86.7632 98.8053 86.8558 98.2931 86.9485C97.7344 87.0411 97.1291 87.0411 96.5703 87.0411C96.0116 87.0411 95.1734 87.1801 94.5681 86.9022C94.3353 86.8095 94.1491 86.5779 93.9163 86.439C93.6834 86.3 93.4041 86.2074 93.1247 86.0685C92.8919 85.9295 92.6591 85.7906 92.3797 85.6979C92.1934 85.6516 92.0537 85.4663 91.8675 85.42C91.6347 85.3274 91.4019 85.42 91.1691 85.3737C90.9362 85.3737 90.7034 85.2811 90.4241 85.2348C90.1912 85.2348 90.0516 85.1421 89.8653 85.0958C89.6791 85.0958 89.4928 85.1421 89.3066 85.0958C88.8409 84.9569 88.3753 84.8179 87.9097 84.679C87.4906 84.54 87.1181 84.3547 86.6991 84.2158C86.3731 84.1232 86.0472 84.2158 85.7212 84.2158C85.4419 84.2158 85.1625 84.1695 84.9297 84.2158C84.6969 84.2158 84.4641 84.3547 84.2312 84.3547C83.9053 84.3547 83.5794 84.3547 83.2534 84.4937C83.1137 84.54 83.0206 84.6326 82.9275 84.679C82.6016 84.8179 82.1359 84.679 81.81 84.8642C81.4375 85.0495 81.0184 85.2348 80.6459 85.42C80.2734 85.6053 79.9475 85.7906 79.6216 86.0221C79.1094 86.3927 78.5972 86.5779 78.0384 86.8095C77.7591 86.9485 77.5263 86.9022 77.2934 86.9948C77.0606 87.0874 76.8744 87.2264 76.6416 87.2727C76.2691 87.3653 75.85 87.2727 75.4309 87.2727H73.1028C72.3112 87.2727 71.6128 87.2727 70.8212 87.5043C70.5419 87.5969 70.3556 87.8285 70.1228 87.8748C69.9831 87.8748 69.89 87.8748 69.7969 87.9674C69.7969 87.9674 69.7038 88.1064 69.6572 88.1527C69.5641 88.2453 69.3778 88.2453 69.2381 88.338C69.0519 88.4769 68.8656 88.6159 68.6794 88.7085C68.1672 88.9401 67.655 89.1717 67.1428 89.3106C66.6306 89.4496 65.9788 89.6811 65.5131 90.0054C65.0941 90.2833 64.675 90.3759 64.2559 90.5612C63.6972 90.8391 63.0919 91.0706 62.44 91.117C61.9278 91.117 61.5553 91.3949 61.0431 91.5338C60.6706 91.6264 60.3447 91.7191 59.9722 91.858C59.46 92.0433 58.9478 91.997 58.4356 91.997C58.0166 91.997 57.5509 92.1359 57.1319 92.2286C56.7128 92.3212 56.2472 92.3212 55.8281 92.3212C54.4778 92.2286 53.1275 92.5991 51.8703 91.8117C51.6841 91.6728 51.4047 91.6728 51.265 91.5338C51.0787 91.3949 51.0788 91.2559 50.8459 91.2096C50.2872 91.117 49.6353 91.2096 49.0766 91.2096C48.5644 91.2096 47.9591 91.0706 47.4469 90.978C46.9347 90.8854 46.4225 90.978 45.9569 90.7927C45.7706 90.7001 45.5844 90.6538 45.3516 90.6075C45.1653 90.5148 45.0256 90.2833 44.8394 90.1906C44.5134 90.0517 44.1875 89.8664 43.8616 89.7275C43.4891 89.5422 43.1166 89.5422 42.7441 89.4032C42.4181 89.2643 42.1387 89.3106 41.8128 89.1254C41.58 88.9864 41.4869 88.9864 41.2075 88.9864C40.835 88.9864 40.5091 88.6622 40.1366 88.5696C39.9503 88.5232 39.7641 88.5696 39.5778 88.4306C39.345 88.338 39.1122 88.199 38.8794 88.0601C38.5069 87.8285 38.1809 87.5043 37.8084 87.319C37.5756 87.1801 37.3428 87.1801 37.11 87.0411C36.8772 86.8558 36.6909 86.7169 36.4116 86.7169C35.2009 86.6243 33.9437 86.9022 32.7331 86.7169C31.8484 86.5779 31.0569 86.0221 30.2653 85.5127C29.8928 85.2811 29.4737 84.7716 29.0547 84.5863C28.6822 84.4474 28.2631 84.5863 27.8906 84.7253C27.0991 84.9569 26.3541 85.3737 25.5625 85.7442C25.2831 85.8832 25.0037 85.8369 24.7244 85.8369C24.3984 85.8369 24.2122 85.9758 23.8862 85.9758C23.0947 85.9758 22.21 86.1148 21.4184 86.3464C20.6734 86.5316 19.975 86.9948 19.23 87.0411C18.5781 87.0874 17.6003 87.1801 16.995 86.7169C16.6225 86.439 16.4362 85.8369 16.0637 85.559C15.5516 85.1421 14.8066 85.2811 14.2478 85.1884C13.4097 85.0495 12.5716 84.9569 11.78 84.7253C11.2213 84.54 10.5228 84.2621 10.1038 83.7063C9.82438 83.3821 9.59156 83.0579 9.31219 82.78C8.84656 82.3168 8.33437 82.4558 7.77562 82.4558C7.35656 82.4558 6.89094 82.4094 6.47187 82.3631C5.91313 82.2705 5.26125 82.2705 4.74906 81.9463C4.51625 81.8073 4.37656 81.5758 4.19031 81.3905C4.00406 81.2052 3.81781 81.1589 3.585 80.9273C2.97969 80.2789 2.14156 80.0473 1.44313 79.7694L1.11719 80.001V101.168C1.11719 106.957 5.82 111.635 11.6403 111.635H100.994C106.814 111.635 111.517 106.957 111.517 101.168V82.78L111.424 82.5484Z" fill="url(#paint5_linear_154_9291)"/>
<path d="M98.8052 112.7H14.434C6.61149 112.7 0.232422 106.355 0.232422 98.5739V50.1731C0.232422 42.3919 6.61149 36.0466 14.434 36.0466H98.8052C106.628 36.0466 113.007 42.3919 113.007 50.1731V98.5739C113.007 106.355 106.628 112.7 98.8052 112.7ZM14.434 37.8066C7.5893 37.8066 2.04836 43.3183 2.04836 50.1268V98.5276C2.04836 105.336 7.5893 110.848 14.434 110.848H98.8052C105.65 110.848 111.191 105.336 111.191 98.5276V50.1268C111.191 43.3183 105.65 37.8066 98.8052 37.8066H14.434Z" fill="black"/>
<path d="M236.63 48.2278C246.408 48.2278 254.324 40.354 254.324 30.6275C254.324 20.901 246.408 13.0272 236.63 13.0272C226.852 13.0272 218.937 20.901 218.937 30.6275C218.937 40.354 226.852 48.2278 236.63 48.2278Z" fill="#007057"/>
<path d="M227.504 26.7369C228.202 26.4127 229.134 26.2274 230.251 26.2274C231.369 26.2274 232.3 26.4127 232.998 26.7369C233.743 27.0611 233.976 27.4316 233.976 27.7095C233.976 27.9874 233.697 28.358 232.998 28.6822C232.3 29.0064 231.369 29.1917 230.251 29.1917C229.134 29.1917 228.202 29.0064 227.504 28.6822C226.759 28.358 226.526 27.9874 226.526 27.7095C226.526 27.4316 226.805 27.0611 227.504 26.7369ZM233.976 28.9601V29.9327C233.976 30.2106 233.697 30.5811 232.998 30.9054C232.3 31.2296 231.369 31.4148 230.251 31.4148C229.134 31.4148 228.202 31.2296 227.504 30.9054C226.759 30.5811 226.526 30.2106 226.526 29.9327V28.9601C226.712 29.099 226.945 29.238 227.178 29.3306C227.97 29.7011 229.087 29.8864 230.251 29.8864C231.415 29.8864 232.533 29.6548 233.324 29.3306C233.557 29.238 233.79 29.099 233.976 28.9601ZM234.721 27.7095C234.721 26.9685 234.069 26.4127 233.278 26.0421C232.486 25.6716 231.369 25.4863 230.205 25.4863C229.04 25.4863 227.923 25.7179 227.131 26.0421C226.386 26.4127 225.688 26.9221 225.688 27.7095V34.3791C225.688 35.1202 226.34 35.676 227.131 36.0465C227.923 36.417 229.04 36.6023 230.205 36.6023C231.369 36.6023 232.486 36.3707 233.278 36.0465C234.023 35.676 234.721 35.1665 234.721 34.3791V27.7095ZM233.976 31.1833V32.1559C233.976 32.4338 233.697 32.8043 232.998 33.1286C232.3 33.4528 231.369 33.638 230.251 33.638C229.134 33.638 228.202 33.4528 227.504 33.1286C226.759 32.8043 226.526 32.4338 226.526 32.1559V31.1833C226.712 31.3222 226.945 31.4612 227.178 31.5538C227.97 31.9243 229.087 32.1096 230.251 32.1096C231.415 32.1096 232.533 31.878 233.324 31.5538C233.557 31.4612 233.79 31.3222 233.976 31.1833ZM233.976 33.4065V34.3791C233.976 34.657 233.697 35.0275 232.998 35.3518C232.3 35.676 231.369 35.8612 230.251 35.8612C229.134 35.8612 228.202 35.676 227.504 35.3518C226.759 35.0275 226.526 34.657 226.526 34.3791V33.4065C226.712 33.5454 226.945 33.6844 227.178 33.777C227.97 34.1475 229.087 34.3328 230.251 34.3328C231.415 34.3328 232.533 34.1012 233.324 33.777C233.557 33.6844 233.79 33.5454 233.976 33.4065Z" fill="white"/>
<path d="M238.26 19.7894C238.958 19.4652 239.89 19.2799 241.007 19.2799C242.125 19.2799 243.056 19.4652 243.754 19.7894C244.499 20.1136 244.732 20.4841 244.732 20.762C244.732 21.0399 244.453 21.4105 243.754 21.7347C243.056 22.0589 242.125 22.2442 241.007 22.2442C239.89 22.2442 238.958 22.0589 238.26 21.7347C237.515 21.4105 237.282 21.0399 237.282 20.762C237.282 20.4841 237.561 20.1136 238.26 19.7894ZM244.779 22.0126V22.9852C244.779 23.2631 244.499 23.6337 243.801 23.9579C243.102 24.2821 242.171 24.4674 241.054 24.4674C239.936 24.4674 239.005 24.2821 238.306 23.9579C237.561 23.6337 237.329 23.2631 237.329 22.9852V22.0126C237.515 22.1515 237.748 22.2905 237.98 22.3831C238.772 22.7537 239.89 22.9389 241.054 22.9389C242.218 22.9389 243.335 22.7073 244.127 22.3831C244.36 22.2905 244.592 22.1515 244.779 22.0126ZM245.524 20.762C245.524 20.021 244.872 19.4652 244.08 19.0946C243.289 18.7241 242.171 18.5388 241.007 18.5388C239.843 18.5388 238.725 18.7704 237.934 19.0946C237.189 19.4652 236.49 19.9747 236.49 20.762V27.4316C236.49 28.1727 237.142 28.7285 237.934 29.099C238.725 29.4696 239.843 29.6548 241.007 29.6548C242.171 29.6548 243.242 29.4232 244.08 29.099C244.825 28.7285 245.524 28.219 245.524 27.4316V20.762ZM244.779 24.2358V25.2084C244.779 25.4863 244.499 25.8569 243.801 26.1811C243.102 26.5053 242.171 26.6906 241.054 26.6906C239.936 26.6906 239.005 26.5053 238.306 26.1811C237.561 25.8569 237.329 25.4863 237.329 25.2084V24.2358C237.515 24.3747 237.748 24.5137 237.98 24.6063C238.772 24.9768 239.89 25.1621 241.054 25.1621C242.218 25.1621 243.335 24.9305 244.127 24.6063C244.36 24.5137 244.592 24.3747 244.779 24.2358ZM244.779 26.459V27.4316C244.779 27.7095 244.499 28.0801 243.801 28.4043C243.102 28.7285 242.171 28.9138 241.054 28.9138C239.936 28.9138 239.005 28.7285 238.306 28.4043C237.561 28.0801 237.329 27.7095 237.329 27.4316V26.459C237.515 26.5979 237.748 26.7369 237.98 26.8295C238.772 27.2 239.89 27.3853 241.054 27.3853C242.218 27.3853 243.335 27.1537 244.127 26.8295C244.36 26.7369 244.592 26.5979 244.779 26.459Z" fill="white"/>
<path d="M237.515 32.2949C238.213 31.9706 239.145 31.7854 240.262 31.7854C241.38 31.7854 242.311 31.9706 243.009 32.2949C243.754 32.6191 243.987 32.9896 243.987 33.2675C243.987 33.5454 243.708 33.9159 243.009 34.2402C242.311 34.5644 241.38 34.7496 240.262 34.7496C239.145 34.7496 238.213 34.5644 237.515 34.2402C236.77 33.9159 236.537 33.5454 236.537 33.2675C236.537 32.9896 236.817 32.6191 237.515 32.2949ZM243.987 34.5644V35.537C243.987 35.8149 243.708 36.1854 243.009 36.5097C242.311 36.8339 241.38 37.0191 240.262 37.0191C239.145 37.0191 238.213 36.8339 237.515 36.5097C236.77 36.1854 236.537 35.8149 236.537 35.537V34.5644C236.723 34.7033 236.956 34.8423 237.189 34.9349C237.981 35.3054 239.098 35.4907 240.262 35.4907C241.426 35.4907 242.544 35.2591 243.335 34.9349C243.568 34.8423 243.801 34.7033 243.987 34.5644ZM244.779 33.2675C244.779 32.5264 244.127 31.9706 243.335 31.6001C242.544 31.2296 241.426 31.0443 240.262 31.0443C239.098 31.0443 237.981 31.2759 237.189 31.6001C236.444 31.9706 235.746 32.4801 235.746 33.2675V39.9371C235.746 40.6782 236.397 41.234 237.189 41.6045C237.981 41.975 239.098 42.1603 240.262 42.1603C241.426 42.1603 242.544 41.9287 243.335 41.6045C244.08 41.234 244.779 40.7245 244.779 39.9371V33.2675ZM243.987 36.7876V37.7602C243.987 38.0381 243.708 38.4086 243.009 38.7329C242.311 39.0571 241.38 39.2423 240.262 39.2423C239.145 39.2423 238.213 39.0571 237.515 38.7329C236.77 38.4086 236.537 38.0381 236.537 37.7602V36.7876C236.723 36.9265 236.956 37.0655 237.189 37.1581C237.981 37.5286 239.098 37.7139 240.262 37.7139C241.426 37.7139 242.544 37.4823 243.335 37.1581C243.568 37.0655 243.801 36.9265 243.987 36.7876ZM243.987 39.0108V39.9834C243.987 40.2613 243.708 40.6318 243.009 40.9561C242.311 41.2803 241.38 41.4655 240.262 41.4655C239.145 41.4655 238.213 41.2803 237.515 40.9561C236.77 40.6318 236.537 40.2613 236.537 39.9834V39.0108C236.723 39.1497 236.956 39.2887 237.189 39.3813C237.981 39.7518 239.098 39.9371 240.262 39.9371C241.426 39.9371 242.544 39.7055 243.335 39.3813C243.568 39.2887 243.801 39.1497 243.987 39.0108Z" fill="white"/>
<path d="M139.734 48.5984C149.512 48.5984 157.428 40.7246 157.428 30.9981C157.428 21.2716 149.512 13.3978 139.734 13.3978C129.956 13.3978 122.04 21.2716 122.04 30.9981C122.04 40.7246 129.956 48.5984 139.734 48.5984Z" fill="#007057"/>
<path d="M149.186 40.8172H130.328C129.397 40.8172 128.652 40.0761 128.652 39.1498V22.8464C128.652 21.92 129.397 21.179 130.328 21.179H149.186C150.117 21.179 150.862 21.92 150.862 22.8464V39.1498C150.862 40.0761 150.117 40.8172 149.186 40.8172ZM130.282 21.8737C129.723 21.8737 129.304 22.3369 129.304 22.8464V39.1498C129.304 39.7056 129.769 40.1225 130.282 40.1225H149.139C149.698 40.1225 150.117 39.6593 150.117 39.1498V22.8464C150.117 22.2906 149.652 21.8737 149.139 21.8737H130.282Z" fill="white"/>
<path d="M148.767 25.0233H128.978V25.6717H148.767V25.0233Z" fill="white"/>
<path d="M147.975 23.1243H147.417V23.7727H147.975V23.1243Z" fill="white"/>
<path d="M145.694 23.1243H145.088V23.7727H145.694V23.1243Z" fill="white"/>
<path d="M143.366 23.1243H142.76V23.7727H143.366V23.1243Z" fill="white"/>
<path d="M140.386 28.5433L138.43 37.1119L139.082 37.2508L141.037 28.6823L140.386 28.5433Z" fill="white"/>
<path d="M143.412 35.954L142.993 35.4445L145.927 32.9434L142.993 30.4423L143.412 29.9328L146.904 32.9434L143.412 35.954Z" fill="white"/>
<path d="M136.055 35.954L132.563 32.9434L136.055 29.9328L136.521 30.4423L133.588 32.9434L136.521 35.4445L136.055 35.954Z" fill="white"/>
<path d="M234.395 103.067C244.174 103.067 252.089 95.1928 252.089 85.4664C252.089 75.7399 244.174 67.8661 234.395 67.8661C224.617 67.8661 216.702 75.7399 216.702 85.4664C216.702 95.1928 224.617 103.067 234.395 103.067Z" fill="#007057"/>
<path d="M233.511 93.896H227.038C223.22 93.896 220.147 90.8854 220.147 87.2264C220.147 84.1695 222.243 81.5294 225.316 80.7421C225.595 79.3062 226.573 77.8241 227.923 76.6199C229.739 75.0914 232.021 74.2114 234.395 74.2114C239.191 74.2114 243.103 77.6388 243.661 82.1779C246.502 82.6874 248.597 85.1421 248.597 87.9674C248.597 91.2096 245.85 93.896 242.497 93.896H233.464H233.511ZM234.395 74.9062C232.16 74.9062 230.065 75.6936 228.342 77.1757C227.038 78.2873 226.154 79.7231 225.921 81.1126V81.3442L225.642 81.3905C222.801 82.0389 220.799 84.4474 220.799 87.2727C220.799 90.6075 223.593 93.2938 227.038 93.2938H242.497C245.477 93.2938 247.945 90.9317 247.945 88.0601C247.945 85.1884 245.943 83.2432 243.289 82.8726H243.009V82.5947C242.59 78.241 238.865 74.9525 234.349 74.9525L234.395 74.9062Z" fill="white"/>
<path d="M233.324 84.0768C233.138 84.0768 232.952 84.2158 232.952 84.4474V86.5779C232.952 86.7632 233.092 86.9485 233.324 86.9485H235.466C235.653 86.9485 235.839 86.8095 235.839 86.5779V84.4474C235.839 84.2621 235.699 84.0768 235.466 84.0768H233.324Z" fill="white"/>
<path d="M232.579 80.1863C232.579 80.001 232.44 79.8157 232.207 79.8157C231.974 79.8157 231.834 79.9547 231.834 80.1863V81.2516C230.857 81.2516 230.065 82.0389 230.065 83.0116H228.994C228.808 83.0116 228.622 83.1505 228.622 83.3821C228.622 83.6137 228.761 83.7526 228.994 83.7526H230.065V84.4474H228.994C228.808 84.4474 228.622 84.5863 228.622 84.8179C228.622 85.0495 228.761 85.1885 228.994 85.1885H230.065V85.8832H228.994C228.808 85.8832 228.622 86.0222 228.622 86.2537C228.622 86.4853 228.761 86.6243 228.994 86.6243H230.065V87.319H228.994C228.808 87.319 228.622 87.458 228.622 87.6895C228.622 87.9211 228.761 88.0601 228.994 88.0601H230.065C230.065 89.0327 230.857 89.8201 231.834 89.8201V90.8854C231.834 91.0707 231.974 91.2559 232.207 91.2559C232.44 91.2559 232.579 91.117 232.579 90.8854V89.8201H233.278V90.8854C233.278 91.0707 233.418 91.2559 233.65 91.2559C233.883 91.2559 234.023 91.117 234.023 90.8854V89.8201H234.721V90.8854C234.721 91.0707 234.861 91.2559 235.094 91.2559C235.327 91.2559 235.466 91.117 235.466 90.8854V89.8201H236.165V90.8854C236.165 91.0707 236.304 91.2559 236.537 91.2559C236.77 91.2559 236.91 91.117 236.91 90.8854V89.8201C237.888 89.8201 238.679 89.0327 238.679 88.0601H239.75C239.936 88.0601 240.123 87.9211 240.123 87.6895C240.123 87.458 239.983 87.319 239.75 87.319H238.679V86.6243H239.75C239.936 86.6243 240.123 86.4853 240.123 86.2537C240.123 86.0222 239.983 85.8832 239.75 85.8832H238.679V85.1885H239.75C239.936 85.1885 240.123 85.0495 240.123 84.8179C240.123 84.5863 239.983 84.4474 239.75 84.4474H238.679V83.7526H239.75C239.936 83.7526 240.123 83.6137 240.123 83.3821C240.123 83.1505 239.983 83.0116 239.75 83.0116H238.679C238.679 82.0389 237.888 81.2516 236.91 81.2516V80.1863C236.91 80.001 236.77 79.8157 236.537 79.8157C236.304 79.8157 236.165 79.9547 236.165 80.1863V81.2516H235.466V80.1863C235.466 80.001 235.327 79.8157 235.094 79.8157C234.861 79.8157 234.721 79.9547 234.721 80.1863V81.2516H234.023V80.1863C234.023 80.001 233.883 79.8157 233.65 79.8157C233.418 79.8157 233.278 79.9547 233.278 80.1863V81.2516H232.579V80.1863ZM233.324 83.3821H235.466C236.072 83.3821 236.537 83.8453 236.537 84.4474V86.578C236.537 87.1801 236.072 87.6432 235.466 87.6432H233.324C232.719 87.6432 232.253 87.1801 232.253 86.578V84.4474C232.253 83.8453 232.719 83.3821 233.324 83.3821Z" fill="white"/>
<path d="M149.698 73.0001L145.694 90.5541L131.725 74.8991L149.698 73.0001Z" fill="#006E58"/>
<path d="M141.363 85.7371C141.363 85.7371 117.756 107.182 89.4927 91.6193C89.4927 91.6193 119.013 96.0657 136.102 79.9012L141.317 85.7834L141.363 85.7371Z" fill="#006E58"/>
<defs>
<linearGradient id="paint0_linear_154_9291" x1="56.2471" y1="43.0404" x2="56.2471" y2="108.208" gradientUnits="userSpaceOnUse">
<stop stop-color="#35657E"/>
<stop offset="0.2" stop-color="#81B3A9"/>
<stop offset="0.3" stop-color="#B7C75E"/>
<stop offset="0.4" stop-color="#CDCF41"/>
<stop offset="0.5" stop-color="#ECDA17"/>
<stop offset="0.6" stop-color="#F5DE0A"/>
<stop offset="0.7" stop-color="#FBE003"/>
<stop offset="1" stop-color="#FDE101"/>
</linearGradient>
<linearGradient id="paint1_linear_154_9291" x1="32.2209" y1="79.8157" x2="83.5794" y2="79.8157" gradientUnits="userSpaceOnUse">
<stop stop-color="#F2CB17"/>
<stop offset="1" stop-color="#F2CB17"/>
</linearGradient>
<linearGradient id="paint2_linear_154_9291" x1="56.2471" y1="96.8602" x2="56.2471" y2="60.1312" gradientUnits="userSpaceOnUse">
<stop offset="0.3" stop-color="#049E73"/>
<stop offset="0.8" stop-color="#FC6E27"/>
<stop offset="1" stop-color="#F2CB17"/>
</linearGradient>
<linearGradient id="paint3_linear_154_9291" x1="56.2471" y1="74.9525" x2="56.2471" y2="89.7738" gradientUnits="userSpaceOnUse">
<stop stop-color="white"/>
<stop offset="1" stop-color="#999999"/>
</linearGradient>
<linearGradient id="paint4_linear_154_9291" x1="56.2472" y1="76.1104" x2="56.2472" y2="93.6644" gradientUnits="userSpaceOnUse">
<stop stop-color="white"/>
<stop offset="1" stop-color="#999999"/>
</linearGradient>
<linearGradient id="paint5_linear_154_9291" x1="56.2472" y1="87.1337" x2="56.2472" y2="112.608" gradientUnits="userSpaceOnUse">
<stop stop-color="white"/>
<stop offset="1" stop-color="#999999"/>
</linearGradient>
</defs>
</svg>
