<svg width="19" height="16" viewBox="0 0 19 16" fill="none" xmlns="http://www.w3.org/2000/svg">
<g clip-path="url(#clip0_32_64)">
<path d="M12.7369 0C8.81415 0 4.70001 3.57919 4.70001 8.00313C4.70001 12.4271 8.81415 16.0063 12.7429 16.0063C13.5203 16.0063 12.9223 16.0063 12.9223 16.0063C14.5369 16.0063 14.5369 14.761 14.5369 13.7286V2.27767C14.5369 1.24521 14.5369 0 12.9223 0C12.9163 0 13.5143 0 12.7369 0Z" fill="#009568"/>
<path d="M12.48 5.59405C11.1644 5.59405 11.284 5.21861 11.284 4.76183C11.284 4.30504 11.1644 3.9296 12.48 3.9296H16.612C17.9276 3.9296 18.406 4.30504 18.406 4.76183C18.406 5.21861 17.9276 5.59405 16.612 5.59405H12.48Z" fill="#009568"/>
<path d="M12.48 12.0767C11.1644 12.0767 11.284 11.7012 11.284 11.2444C11.284 10.7876 11.1644 10.4122 12.48 10.4122H16.612C17.9276 10.4122 18.406 10.7876 18.406 11.2444C18.406 11.7012 17.9276 12.0767 16.612 12.0767H12.48Z" fill="#009568"/>
<path d="M9.01163 6.33242H0V9.67384H9.01163V6.33242Z" fill="#009568"/>
<path d="M12.0234 3.23672C12.0967 3.2854 12.1533 3.36096 12.1841 3.45108C12.2149 3.54121 12.218 3.64057 12.1929 3.73296L11.3425 6.88497H12.8348C12.9081 6.88493 12.9797 6.90937 13.0409 6.95526C13.1021 7.00114 13.1502 7.06647 13.1792 7.14318C13.2083 7.21989 13.217 7.30462 13.2043 7.3869C13.1916 7.46919 13.1581 7.54544 13.1078 7.60623L9.1077 12.4549C9.04965 12.5253 8.97241 12.5712 8.88855 12.5851C8.8047 12.5991 8.71919 12.5802 8.64595 12.5316C8.57271 12.4829 8.51607 12.4074 8.48526 12.3174C8.45444 12.2273 8.45127 12.128 8.47626 12.0356L9.32743 8.88278H7.83507C7.76184 8.88281 7.6902 8.85838 7.629 8.81249C7.5678 8.7666 7.51971 8.70127 7.49068 8.62457C7.46165 8.54786 7.45294 8.46313 7.46564 8.38084C7.47833 8.29855 7.51186 8.22231 7.5621 8.16151L11.5615 3.31287C11.6195 3.24233 11.6968 3.19632 11.7807 3.18234C11.8646 3.16835 11.9501 3.18722 12.0234 3.23587V3.23672Z" fill="white"/>
</g>
<defs>
<clipPath id="clip0_32_64">
<rect width="18.4" height="16" fill="white" transform="translate(0.299988)"/>
</clipPath>
</defs>
</svg>
