<svg width="26" height="27" viewBox="0 0 26 27" fill="none" xmlns="http://www.w3.org/2000/svg">
<ellipse cx="13" cy="13.4949" rx="13" ry="12.5979" fill="#D26A98"/>
<path d="M18.6875 9.37628C19.4121 9.37628 20 9.94573 20 10.6482V12.3441C20 13.0463 19.4121 13.616 18.6875 13.616H7.3125C6.58762 13.616 6 13.0463 6 12.3441V10.6482C6 9.94573 6.58762 9.37628 7.3125 9.37628H18.6875ZM18.25 11.0722H14.75V11.9201H18.25V11.0722ZM18.6875 15.3118C19.4121 15.3118 20 15.8816 20 16.5838V18.2796C20 18.9818 19.4121 19.5515 18.6875 19.5515H7.3125C6.58762 19.5515 6 18.9818 6 18.2796V16.5838C6 15.8816 6.58762 15.3118 7.3125 15.3118H18.6875ZM11.25 17.0077V17.8557H18.25V17.0077H11.25Z" fill="white"/>
</svg>
