<?xml version="1.0" encoding="utf-8"?>
<!-- Generator: Adobe Illustrator 28.0.0, SVG Export Plug-In . SVG Version: 6.00 Build 0)  -->
<svg version="1.1" id="Calque_1" xmlns="http://www.w3.org/2000/svg" xmlns:xlink="http://www.w3.org/1999/xlink" x="0px" y="0px"
	 viewBox="0 0 160.65 160.71" style="enable-background:new 0 0 160.65 160.71;" xml:space="preserve">
<g>
	<circle cx="105.04" cy="30.91" r="6.18"/>
	<circle cx="129.75" cy="55.63" r="6.18"/>
	<g>
		<g>
			<circle cx="92.68" cy="67.99" r="6.18"/>
			<circle cx="67.97" cy="18.54" r="6.18"/>
			<circle cx="18.54" cy="30.91" r="6.18"/>
			<circle cx="67.97" cy="30.91" r="6.18"/>
			<circle cx="18.54" cy="43.27" r="6.18"/>
			<circle cx="67.97" cy="43.27" r="6.18"/>
			<circle cx="18.54" cy="55.63" r="6.18"/>
			<circle cx="30.9" cy="55.63" r="6.18"/>
			<circle cx="43.25" cy="55.63" r="6.18"/>
			<circle cx="67.97" cy="55.63" r="6.18"/>
			<circle cx="80.32" cy="55.63" r="6.18"/>
			<circle cx="92.68" cy="55.63" r="6.18"/>
			<circle cx="105.04" cy="55.63" r="6.18"/>
			<circle cx="43.25" cy="67.99" r="6.18"/>
			<circle cx="80.32" cy="67.99" r="6.18"/>
			<circle cx="105.04" cy="67.99" r="6.18"/>
			<circle cx="43.25" cy="80.36" r="6.18"/>
			<circle cx="67.97" cy="80.36" r="6.18"/>
			<circle cx="80.32" cy="80.36" r="6.18"/>
			<circle cx="92.68" cy="80.36" r="6.18"/>
			<circle cx="105.04" cy="80.36" r="6.18"/>
			<circle cx="43.25" cy="92.72" r="6.18"/>
			<circle cx="67.97" cy="92.72" r="6.18"/>
			<circle cx="80.32" cy="92.72" r="6.18"/>
			<circle cx="105.04" cy="92.72" r="6.18"/>
			<circle cx="105.04" cy="105.08" r="6.18"/>
			<circle cx="117.4" cy="105.08" r="6.18"/>
			<circle cx="129.75" cy="105.08" r="6.18"/>
			<circle cx="142.11" cy="105.08" r="6.18"/>
			<circle cx="67.97" cy="117.44" r="6.18"/>
			<circle cx="80.32" cy="117.44" r="6.18"/>
			<circle cx="30.9" cy="129.81" r="6.18"/>
			<circle cx="43.25" cy="129.81" r="6.18"/>
			<circle cx="55.61" cy="129.81" r="6.18"/>
			<circle cx="67.97" cy="129.81" r="6.18"/>
			<circle cx="80.32" cy="129.81" r="6.18"/>
			<circle cx="92.68" cy="129.81" r="6.18"/>
			<circle cx="30.9" cy="142.17" r="6.18"/>
		</g>
		<circle cx="67.97" cy="6.18" r="6.18"/>
		<circle cx="18.54" cy="18.54" r="6.18"/>
		<circle cx="55.61" cy="18.54" r="6.18"/>
		<circle cx="80.32" cy="18.54" r="6.18"/>
		<circle cx="6.18" cy="30.91" r="6.18"/>
		<circle cx="30.9" cy="30.91" r="6.18"/>
		<circle cx="117.4" cy="30.91" r="6.18"/>
		<circle cx="92.68" cy="43.27" r="6.18"/>
		<circle cx="105.04" cy="43.27" r="6.18"/>
		<circle cx="117.4" cy="43.27" r="6.18"/>
		<circle cx="129.75" cy="43.27" r="6.18"/>
		<circle cx="117.4" cy="55.63" r="6.18"/>
		<circle cx="67.97" cy="67.99" r="6.18"/>
		<circle cx="117.4" cy="67.99" r="6.18"/>
		<circle cx="55.61" cy="80.36" r="6.18"/>
		<circle cx="55.61" cy="92.72" r="6.18"/>
		<circle cx="92.68" cy="92.72" r="6.18"/>
		<circle cx="142.11" cy="92.72" r="6.18"/>
		<circle cx="55.61" cy="105.08" r="6.18"/>
		<circle cx="67.97" cy="105.08" r="6.18"/>
		<circle cx="80.32" cy="105.08" r="6.18"/>
		<circle cx="154.47" cy="105.08" r="6.18"/>
		<circle cx="142.11" cy="117.44" r="6.18"/>
		<circle cx="18.54" cy="142.17" r="6.18"/>
		<circle cx="43.25" cy="142.17" r="6.18"/>
		<circle cx="30.9" cy="154.53" r="6.18"/>
	</g>
</g>
</svg>
