<svg width="63" height="62" viewBox="0 0 63 62" fill="none" xmlns="http://www.w3.org/2000/svg">
<g clip-path="url(#clip0_234_41062)">
<path d="M27.6903 24.4599C29.9103 24.2799 31.1103 26.9799 29.5603 28.5599L25.0903 33.0299L29.2303 37.1699L33.7303 32.6699C36.2203 30.5499 39.2503 33.8399 37.0403 36.1399L32.6503 40.5299L35.7003 43.6299L28.9503 50.3199C25.0403 53.5799 19.4003 54.0399 15.0203 51.4199C14.5503 51.1399 14.1203 50.7699 13.6503 50.5099L3.51028 60.6499C2.19028 61.7099 0.540277 60.0599 1.60028 58.7399L11.7503 48.5699C8.08028 43.9199 8.30028 37.3099 12.2603 32.8999L18.6203 26.5399L21.7203 29.5899L26.2003 25.1199C26.6203 24.7599 27.1203 24.4899 27.6903 24.4399V24.4599Z" stroke="#006E58" stroke-width="2" stroke-linecap="round" stroke-linejoin="round"/>
<path d="M59.6803 1.02004C60.9203 0.840043 61.7203 2.24004 60.9403 3.22004L50.7603 13.42C54.4203 18.05 54.2103 24.67 50.2803 29.06L43.8903 35.45L40.8103 32.37L44.5903 28.59C46.7303 26.24 43.7403 23.03 41.2303 25.17L37.4103 28.94L33.3203 24.85L37.4203 20.63C38.9103 18.12 35.7803 15.67 33.6803 17.67L29.9003 21.45L26.8203 18.37L33.1803 12.01C37.5503 8.05004 44.2303 7.83004 48.8503 11.5L58.9403 1.39004C59.1503 1.21004 59.4003 1.06004 59.6803 1.02004Z" fill="#006E58" stroke="#006E58" stroke-width="2" stroke-linecap="round" stroke-linejoin="round"/>
</g>
<defs>
<clipPath id="clip0_234_41062">
<rect width="62" height="62" fill="white" transform="translate(0.25)"/>
</clipPath>
</defs>
</svg>
