<svg xmlns="http://www.w3.org/2000/svg" width="130.188" height="91.897" viewBox="0 0 130.188 91.897">
  <g id="Gruppe_14166" data-name="Gruppe 14166" transform="translate(373.713 -921.144)">
    <path id="Pfad_38941" data-name="Pfad 38941" d="M-277.987,978.579A34.418,34.418,0,0,0-288.75,980.3a38.266,38.266,0,0,1,18.421,32.738h26.8A34.462,34.462,0,0,0-277.987,978.579Z" fill="#009568" style="mix-blend-mode: multiply;isolation: isolate"/>
    <path id="Pfad_38942" data-name="Pfad 38942" d="M-294.169,961.975a19.113,19.113,0,0,0,16.182,8.946,19.145,19.145,0,0,0,19.146-19.145,19.145,19.145,0,0,0-19.146-19.145,19.029,19.029,0,0,0-9.473,2.522,22.908,22.908,0,0,1,1.815,8.965A22.928,22.928,0,0,1-294.169,961.975Z" fill="#009568" style="mix-blend-mode: multiply;isolation: isolate"/>
    <path id="Pfad_38943" data-name="Pfad 38943" d="M-308.619,997.259A34.553,34.553,0,0,1-288.75,980.3a38.112,38.112,0,0,0-19.869-5.553,38.112,38.112,0,0,0-19.869,5.553A34.553,34.553,0,0,1-308.619,997.259Z" fill="#d26a98" style="mix-blend-mode: multiply;isolation: isolate"/>
    <path id="Pfad_38944" data-name="Pfad 38944" d="M-288.75,980.3a34.553,34.553,0,0,0-19.869,16.956,34.3,34.3,0,0,1,3.829,15.782h34.461A38.266,38.266,0,0,0-288.75,980.3Z" fill="#009568" style="mix-blend-mode: multiply;isolation: isolate"/>
    <path id="Pfad_38945" data-name="Pfad 38945" d="M-288.75,980.3a34.553,34.553,0,0,0-19.869,16.956,34.3,34.3,0,0,1,3.829,15.782h34.461A38.266,38.266,0,0,0-288.75,980.3Z" fill="#d26a98" style="mix-blend-mode: multiply;isolation: isolate"/>
    <path id="Pfad_38946" data-name="Pfad 38946" d="M-320.106,951.776a19.028,19.028,0,0,1-2.963,10.2,22.877,22.877,0,0,0,14.45,5.117,22.877,22.877,0,0,0,14.45-5.117,19.028,19.028,0,0,1-2.963-10.2,19.123,19.123,0,0,1,9.672-16.623,22.98,22.98,0,0,0-21.159-14.009,22.979,22.979,0,0,0-21.159,14.009A19.123,19.123,0,0,1-320.106,951.776Z" fill="#d26a98" style="mix-blend-mode: multiply;isolation: isolate"/>
    <path id="Pfad_38947" data-name="Pfad 38947" d="M-297.132,951.776a19.028,19.028,0,0,0,2.963,10.2,22.928,22.928,0,0,0,8.524-17.857,22.908,22.908,0,0,0-1.815-8.965A19.123,19.123,0,0,0-297.132,951.776Z" fill="#009568" style="mix-blend-mode: multiply;isolation: isolate"/>
    <path id="Pfad_38948" data-name="Pfad 38948" d="M-297.132,951.776a19.028,19.028,0,0,0,2.963,10.2,22.928,22.928,0,0,0,8.524-17.857,22.908,22.908,0,0,0-1.815-8.965A19.123,19.123,0,0,0-297.132,951.776Z" fill="#d26a98" style="mix-blend-mode: multiply;isolation: isolate"/>
    <path id="Pfad_38949" data-name="Pfad 38949" d="M-328.488,980.3a34.418,34.418,0,0,0-10.763-1.724,34.462,34.462,0,0,0-34.462,34.462h26.8A38.266,38.266,0,0,1-328.488,980.3Z" fill="#d1bb4c" style="mix-blend-mode: multiply;isolation: isolate"/>
    <path id="Pfad_38950" data-name="Pfad 38950" d="M-328.488,980.3a38.266,38.266,0,0,0-18.421,32.738h34.461a34.3,34.3,0,0,1,3.829-15.782A34.553,34.553,0,0,0-328.488,980.3Z" fill="#d26a98" style="mix-blend-mode: multiply;isolation: isolate"/>
    <path id="Pfad_38951" data-name="Pfad 38951" d="M-328.488,980.3a38.266,38.266,0,0,0-18.421,32.738h34.461a34.3,34.3,0,0,1,3.829-15.782A34.553,34.553,0,0,0-328.488,980.3Z" fill="#d1bb4c" style="mix-blend-mode: multiply;isolation: isolate"/>
    <path id="Pfad_38952" data-name="Pfad 38952" d="M-312.448,1013.041h7.658a34.3,34.3,0,0,0-3.829-15.782A34.3,34.3,0,0,0-312.448,1013.041Z" fill="#009568" style="mix-blend-mode: multiply;isolation: isolate"/>
    <path id="Pfad_38953" data-name="Pfad 38953" d="M-312.448,1013.041h7.658a34.3,34.3,0,0,0-3.829-15.782A34.3,34.3,0,0,0-312.448,1013.041Z" fill="#d26a98" style="mix-blend-mode: multiply;isolation: isolate"/>
    <path id="Pfad_38954" data-name="Pfad 38954" d="M-312.448,1013.041h7.658a34.3,34.3,0,0,0-3.829-15.782A34.3,34.3,0,0,0-312.448,1013.041Z" fill="#d1bb4c" style="mix-blend-mode: multiply;isolation: isolate"/>
    <path id="Pfad_38955" data-name="Pfad 38955" d="M-339.251,970.921a19.113,19.113,0,0,0,16.182-8.946,22.928,22.928,0,0,1-8.524-17.857,22.908,22.908,0,0,1,1.815-8.965,19.029,19.029,0,0,0-9.473-2.522A19.145,19.145,0,0,0-358.4,951.776,19.145,19.145,0,0,0-339.251,970.921Z" fill="#d1bb4c" style="mix-blend-mode: multiply;isolation: isolate"/>
    <path id="Pfad_38956" data-name="Pfad 38956" d="M-323.069,961.975a19.028,19.028,0,0,0,2.963-10.2,19.123,19.123,0,0,0-9.672-16.623,22.908,22.908,0,0,0-1.815,8.965A22.928,22.928,0,0,0-323.069,961.975Z" fill="#d26a98" style="mix-blend-mode: multiply;isolation: isolate"/>
    <path id="Pfad_38957" data-name="Pfad 38957" d="M-323.069,961.975a19.028,19.028,0,0,0,2.963-10.2,19.123,19.123,0,0,0-9.672-16.623,22.908,22.908,0,0,0-1.815,8.965A22.928,22.928,0,0,0-323.069,961.975Z" fill="#d1bb4c" style="mix-blend-mode: multiply;isolation: isolate"/>
  </g>
</svg>
