<svg xmlns="http://www.w3.org/2000/svg" width="540.263" height="377.685" viewBox="0 0 540.263 377.685">
  <g id="Gruppe_14169" data-name="Gruppe 14169" transform="translate(-129.448 -193.908)">
    <path id="Pfad_39101" data-name="Pfad 39101" d="M640.063,443.1h-2.5V432.181c0-13.294-5.4-27.959-14.444-39.231-9.692-12.077-21.967-18.728-34.561-18.728a49.057,49.057,0,0,0-14,2.029L527.471,389.8l-.692-2.4,47.073-13.545a51.53,51.53,0,0,1,14.706-2.13c13.368,0,26.335,6.983,36.51,19.664,9.39,11.7,14.995,26.95,14.995,40.8Z" fill="#838383"/>
    <path id="Pfad_39102" data-name="Pfad 39102" d="M429.954,522.506H372.317v-2.5h57.637c24.449,0,43.126-8.447,54.009-24.428,2.495-3.665,2.832-7.739,2.832-11.241h2.5c0,3.883-.388,8.423-3.266,12.647C474.659,513.681,455.269,522.506,429.954,522.506Z" fill="#d26a98"/>
    <path id="Pfad_39103" data-name="Pfad 39103" d="M428.4,492.31c-30.83,0-62.255-9.8-74.335-14.014l.823-2.361c11.96,4.171,43.064,13.875,73.512,13.875,19.5,0,30.165-4.348,35.681-7.995,5.9-3.9,7.282-7.833,7.3-7.872l2.376.78C473.517,475.44,467.6,492.31,428.4,492.31Z" fill="#838383"/>
    <g id="Gruppe_14199" data-name="Gruppe 14199">
      <path id="Pfad_39104" data-name="Pfad 39104" d="M136.948,195.876h-2.922v9.688h-1.688v-9.688h-2.89v-1.421h7.5Z" fill="#009568"/>
      <path id="Pfad_39105" data-name="Pfad 39105" d="M140.057,198.642a2.935,2.935,0,0,1,4.555-.789,2.9,2.9,0,0,1,.742,2.117v5.594h-1.625v-5.281a1.848,1.848,0,0,0-.437-1.321,1.5,1.5,0,0,0-1.141-.461,2.15,2.15,0,0,0-.578.079,1.846,1.846,0,0,0-.563.273,1.993,1.993,0,0,0-.484.477,2.41,2.41,0,0,0-.336.718,3.407,3.407,0,0,0-.133.985v4.531h-1.609V193.908h1.609Z" fill="#009568"/>
      <path id="Pfad_39106" data-name="Pfad 39106" d="M153.745,205.111a3.805,3.805,0,0,1-1.133.39,6.657,6.657,0,0,1-1.32.141,4.551,4.551,0,0,1-2.25-.539,3.684,3.684,0,0,1-1.485-1.492,4.557,4.557,0,0,1-.515-2.2,4.48,4.48,0,0,1,1.054-3.149,3.48,3.48,0,0,1,2.68-1.148,3.338,3.338,0,0,1,2.547.992,4.018,4.018,0,0,1,.937,2.867,6.409,6.409,0,0,1-.093,1.078h-5.5a2.488,2.488,0,0,0,.929,1.672,3.062,3.062,0,0,0,1.914.578,3.694,3.694,0,0,0,2.235-.64ZM152.7,200.5a2.3,2.3,0,0,0-.516-1.5,1.741,1.741,0,0,0-1.375-.546,1.928,1.928,0,0,0-1.422.6,2.9,2.9,0,0,0-.734,1.727H152.7Z" fill="#009568"/>
      <path id="Pfad_39107" data-name="Pfad 39107" d="M156.737,204.5a4.45,4.45,0,0,1-1.055-3.046,4.568,4.568,0,0,1,1.086-3.118,4.074,4.074,0,0,1,5.828-.031,5.07,5.07,0,0,1-.023,6.18,4.12,4.12,0,0,1-5.836.015Zm1.914-5.8a2,2,0,0,0-.719.648,3.26,3.26,0,0,0-.43.938,4.069,4.069,0,0,0-.148,1.117,3.427,3.427,0,0,0,.625,2.086,1.973,1.973,0,0,0,1.672.851,1.946,1.946,0,0,0,1.695-.828,3.535,3.535,0,0,0,.586-2.094,4.528,4.528,0,0,0-.219-1.468,2.268,2.268,0,0,0-.75-1.063,2.068,2.068,0,0,0-1.328-.422A2.041,2.041,0,0,0,158.651,198.705Z" fill="#009568"/>
      <path id="Pfad_39108" data-name="Pfad 39108" d="M167.042,198.673a2.213,2.213,0,0,1,2.187-1.547,3,3,0,0,1,.516.047v1.578a1.946,1.946,0,0,0-.766-.14,1.663,1.663,0,0,0-1.391.742,2.91,2.91,0,0,0-.546,1.773v4.438h-1.61v-8.359h1.61Z" fill="#009568"/>
      <path id="Pfad_39109" data-name="Pfad 39109" d="M169.979,197.205h1.813l1.015,2.734q.25.609.453,1.141t.328.875c.084.229.159.437.227.625s.12.333.156.437l.094.266a.594.594,0,0,1,.039.14l.016.032q.14-.5,1.187-3.516l.938-2.734h1.718l-3.031,8.14a5.643,5.643,0,0,1-1.555,2.461,3.237,3.237,0,0,1-2.1.742,2.723,2.723,0,0,1-.766-.093V207.08a2.435,2.435,0,0,0,.563.062,2.289,2.289,0,0,0,2.234-1.75Z" fill="#009568"/>
    </g>
    <g id="Gruppe_14200" data-name="Gruppe 14200">
      <path id="Pfad_39110" data-name="Pfad 39110" d="M134.51,237.153a1.938,1.938,0,0,0-.781-.156,1.193,1.193,0,0,0-.883.336,1.49,1.49,0,0,0-.336,1.086v.625h1.782v1.266H132.51V247.4H130.9V240.31h-1.328v-1.266H130.9V238.4a2.847,2.847,0,0,1,.711-2.054,2.586,2.586,0,0,1,1.961-.743,3.635,3.635,0,0,1,.937.125Z" fill="#d26a98"/>
      <path id="Pfad_39111" data-name="Pfad 39111" d="M136.3,246.341a4.454,4.454,0,0,1-1.054-3.047,4.559,4.559,0,0,1,1.086-3.117,4.074,4.074,0,0,1,5.828-.031,5.067,5.067,0,0,1-.024,6.179,4.121,4.121,0,0,1-5.836.016Zm1.914-5.8a1.994,1.994,0,0,0-.718.648,3.22,3.22,0,0,0-.43.938,4.08,4.08,0,0,0-.148,1.117,3.425,3.425,0,0,0,.625,2.086,1.972,1.972,0,0,0,1.671.852,1.95,1.95,0,0,0,1.7-.829,3.539,3.539,0,0,0,.586-2.093,4.534,4.534,0,0,0-.219-1.469,2.273,2.273,0,0,0-.75-1.063,2.256,2.256,0,0,0-2.313-.187Z" fill="#d26a98"/>
      <path id="Pfad_39112" data-name="Pfad 39112" d="M146.6,240.513a2.214,2.214,0,0,1,2.188-1.547,2.893,2.893,0,0,1,.515.047v1.578a1.927,1.927,0,0,0-.765-.141,1.662,1.662,0,0,0-1.391.742,2.907,2.907,0,0,0-.547,1.774V247.4h-1.609v-8.359H146.6Z" fill="#d26a98"/>
      <path id="Pfad_39113" data-name="Pfad 39113" d="M152.182,240.388a2.446,2.446,0,0,1,2.36-1.453,2.655,2.655,0,0,1,1.546.421,2.242,2.242,0,0,1,.86,1.188,2.635,2.635,0,0,1,2.5-1.609,2.461,2.461,0,0,1,1.945.75,3.074,3.074,0,0,1,.664,2.109V247.4h-1.609v-5.281a2.079,2.079,0,0,0-.367-1.32,1.3,1.3,0,0,0-1.086-.461,1.717,1.717,0,0,0-1.3.633,2.757,2.757,0,0,0-.57,1.9V247.4h-1.61v-5.281q0-1.78-1.453-1.781a1.606,1.606,0,0,0-.648.14,1.938,1.938,0,0,0-.6.43,2.093,2.093,0,0,0-.453.8,3.618,3.618,0,0,0-.172,1.164V247.4h-1.609v-8.359h1.609Z" fill="#d26a98"/>
      <path id="Pfad_39114" data-name="Pfad 39114" d="M171.042,239.044V247.4h-1.625v-1.437a2.594,2.594,0,0,1-2.61,1.531,2.624,2.624,0,0,1-1.953-.726,2.756,2.756,0,0,1-.719-2.024v-5.7h1.625v5.312a1.859,1.859,0,0,0,.422,1.313,1.5,1.5,0,0,0,1.156.453,1.886,1.886,0,0,0,1.516-.664,2.8,2.8,0,0,0,.563-1.867v-4.547Z" fill="#d26a98"/>
      <path id="Pfad_39115" data-name="Pfad 39115" d="M173.354,235.747h1.625V247.4h-1.625Z" fill="#d26a98"/>
      <path id="Pfad_39116" data-name="Pfad 39116" d="M177.495,239.466a3.293,3.293,0,0,1,.687-.274,7.435,7.435,0,0,1,.906-.2,6.4,6.4,0,0,1,.985-.078,3.361,3.361,0,0,1,2.476.8,3.243,3.243,0,0,1,.789,2.375V247.4h-1.593v-.984a2,2,0,0,1-.8.742,2.994,2.994,0,0,1-1.445.305,2.662,2.662,0,0,1-1.907-.68,2.272,2.272,0,0,1-.718-1.726,2.193,2.193,0,0,1,.914-1.875,4.2,4.2,0,0,1,2.539-.672H181.7v-.485a1.514,1.514,0,0,0-1.781-1.718,4.206,4.206,0,0,0-2.422.734Zm2.953,4.219a2.229,2.229,0,0,0-1.383.359,1.1,1.1,0,0,0-.461.906,1.19,1.19,0,0,0,.359.914,1.48,1.48,0,0,0,1.047.336,1.692,1.692,0,0,0,1.242-.437,1.529,1.529,0,0,0,.446-1.141v-.937Z" fill="#d26a98"/>
      <path id="Pfad_39117" data-name="Pfad 39117" d="M187.6,244.888q0,1.218,1.141,1.218a1.78,1.78,0,0,0,1.14-.359V247.2a2.867,2.867,0,0,1-1.328.281,2.307,2.307,0,0,1-2.594-2.625V240.31h-1.3v-1.266h1.3v-2.031H187.6v2.031h2.188v1.266H187.6Z" fill="#d26a98"/>
      <path id="Pfad_39118" data-name="Pfad 39118" d="M197.885,246.95a3.812,3.812,0,0,1-1.133.391,6.638,6.638,0,0,1-1.32.14,4.545,4.545,0,0,1-2.25-.539,3.682,3.682,0,0,1-1.484-1.492,4.558,4.558,0,0,1-.516-2.2,4.476,4.476,0,0,1,1.055-3.148,3.478,3.478,0,0,1,2.68-1.149,3.337,3.337,0,0,1,2.546.992,4.023,4.023,0,0,1,.938,2.868,6.327,6.327,0,0,1-.094,1.078h-5.5a2.491,2.491,0,0,0,.93,1.672,3.067,3.067,0,0,0,1.914.578,3.685,3.685,0,0,0,2.234-.641Zm-1.047-4.609a2.3,2.3,0,0,0-.515-1.5,1.742,1.742,0,0,0-1.375-.547,1.925,1.925,0,0,0-1.422.6,2.883,2.883,0,0,0-.734,1.726h4.046Z" fill="#d26a98"/>
      <path id="Pfad_39119" data-name="Pfad 39119" d="M137.495,258.244v11.563H135.87v-4.485a2.861,2.861,0,0,1-2.532,1.391,3.185,3.185,0,0,1-2.609-1.219,4.815,4.815,0,0,1-.984-3.125,4.69,4.69,0,0,1,.961-3.047,3.185,3.185,0,0,1,2.617-1.187,2.881,2.881,0,0,1,2.547,1.375v-1.266Zm-3.078,6.9a2.4,2.4,0,0,0,.71-.493,2.3,2.3,0,0,0,.54-.914,4.077,4.077,0,0,0,.2-1.336,3.993,3.993,0,0,0-.2-1.336,2.254,2.254,0,0,0-.54-.89,2.184,2.184,0,0,0-.718-.469,2.253,2.253,0,0,0-.821-.148,1.927,1.927,0,0,0-1.562.773,3.169,3.169,0,0,0-.625,2.055,3.265,3.265,0,0,0,.641,2.148,2,2,0,0,0,1.609.774A1.9,1.9,0,0,0,134.417,265.143Z" fill="#d26a98"/>
      <path id="Pfad_39120" data-name="Pfad 39120" d="M146.557,258.244v8.36h-1.625v-1.438a2.59,2.59,0,0,1-2.609,1.531,2.624,2.624,0,0,1-1.953-.726,2.755,2.755,0,0,1-.719-2.024v-5.7h1.625v5.313a1.858,1.858,0,0,0,.422,1.312,1.5,1.5,0,0,0,1.156.453,1.884,1.884,0,0,0,1.516-.664,2.8,2.8,0,0,0,.562-1.867v-4.547Z" fill="#d26a98"/>
      <path id="Pfad_39121" data-name="Pfad 39121" d="M155.042,266.15a3.833,3.833,0,0,1-1.133.391,6.657,6.657,0,0,1-1.321.141,4.556,4.556,0,0,1-2.25-.539,3.69,3.69,0,0,1-1.484-1.493,4.555,4.555,0,0,1-.516-2.2,4.476,4.476,0,0,1,1.055-3.148,3.478,3.478,0,0,1,2.68-1.149,3.335,3.335,0,0,1,2.547.993,4.018,4.018,0,0,1,.937,2.867,6.317,6.317,0,0,1-.094,1.078h-5.5a2.5,2.5,0,0,0,.93,1.672,3.06,3.06,0,0,0,1.914.578,3.69,3.69,0,0,0,2.235-.641Zm-1.047-4.609a2.3,2.3,0,0,0-.516-1.5,1.742,1.742,0,0,0-1.375-.547,1.925,1.925,0,0,0-1.422.6,2.889,2.889,0,0,0-.734,1.726h4.047Z" fill="#d26a98"/>
      <path id="Pfad_39122" data-name="Pfad 39122" d="M162.213,259.994a4.176,4.176,0,0,0-2.078-.469,1.466,1.466,0,0,0-.914.258.832.832,0,0,0-.336.7.819.819,0,0,0,.024.2,1,1,0,0,0,.062.179.656.656,0,0,0,.117.172c.053.058.1.107.141.149a.912.912,0,0,0,.18.132c.078.047.146.089.2.125a2.3,2.3,0,0,0,.226.125c.094.047.172.083.235.11s.148.065.258.117a2.287,2.287,0,0,0,.257.109,8.375,8.375,0,0,1,.789.414,4.6,4.6,0,0,1,.641.477,1.846,1.846,0,0,1,.484.664,2.13,2.13,0,0,1,.165.852,2.107,2.107,0,0,1-.79,1.75,3.365,3.365,0,0,1-2.148.625,5.619,5.619,0,0,1-2.469-.5V264.65a4.359,4.359,0,0,0,2.391.719,1.687,1.687,0,0,0,1.008-.258.818.818,0,0,0,.351-.7A.835.835,0,0,0,160.9,264a1.658,1.658,0,0,0-.219-.313,1.7,1.7,0,0,0-.422-.281q-.312-.163-.476-.242c-.11-.052-.315-.141-.617-.266a5.216,5.216,0,0,1-.711-.359,3.907,3.907,0,0,1-.61-.469,1.909,1.909,0,0,1-.469-.672,2.241,2.241,0,0,1-.164-.875,2.054,2.054,0,0,1,.829-1.726,3.3,3.3,0,0,1,2.062-.633,5.065,5.065,0,0,1,2.109.359Z" fill="#d26a98"/>
      <path id="Pfad_39123" data-name="Pfad 39123" d="M166.432,264.088q0,1.218,1.141,1.219a1.775,1.775,0,0,0,1.14-.36V266.4a2.867,2.867,0,0,1-1.328.282,2.306,2.306,0,0,1-2.593-2.625V259.51h-1.3v-1.266h1.3v-2.031h1.64v2.031h2.188v1.266h-2.188Z" fill="#d26a98"/>
      <path id="Pfad_39124" data-name="Pfad 39124" d="M170.635,254.971a1.041,1.041,0,0,1,1.227-.157,1.054,1.054,0,0,1,.367.36.968.968,0,0,1,.141.523,1.016,1.016,0,1,1-1.735-.726Zm-.093,3.273h1.625v8.36h-1.625Z" fill="#d26a98"/>
      <path id="Pfad_39125" data-name="Pfad 39125" d="M175.081,265.541a4.448,4.448,0,0,1-1.055-3.047,4.564,4.564,0,0,1,1.086-3.117,4.074,4.074,0,0,1,5.828-.031,5.068,5.068,0,0,1-.023,6.179,4.121,4.121,0,0,1-5.836.016Zm1.914-5.8a1.982,1.982,0,0,0-.719.649,3.2,3.2,0,0,0-.43.937,4.08,4.08,0,0,0-.148,1.117,3.423,3.423,0,0,0,.625,2.086,2.107,2.107,0,0,0,3.367.024,3.535,3.535,0,0,0,.586-2.094,4.535,4.535,0,0,0-.219-1.469,2.265,2.265,0,0,0-.75-1.062,2.252,2.252,0,0,0-2.312-.188Z" fill="#d26a98"/>
      <path id="Pfad_39126" data-name="Pfad 39126" d="M185.385,259.682a2.661,2.661,0,0,1,2.61-1.547,2.593,2.593,0,0,1,1.961.758,2.844,2.844,0,0,1,.726,2.054V266.6h-1.625v-5.282a1.858,1.858,0,0,0-.43-1.328,1.527,1.527,0,0,0-1.164-.453,1.925,1.925,0,0,0-1.468.664,2.658,2.658,0,0,0-.61,1.867V266.6h-1.609v-8.36h1.609Z" fill="#d26a98"/>
    </g>
    <g id="Gruppe_14201" data-name="Gruppe 14201">
      <path id="Pfad_39127" data-name="Pfad 39127" d="M298.967,254.632a2.694,2.694,0,0,0,2.094.82,3.449,3.449,0,0,0,1.828-.547v1.453a3.964,3.964,0,0,1-2.062.485,4.1,4.1,0,0,1-3.125-1.235,4.292,4.292,0,0,1-1.172-3.078,4.679,4.679,0,0,1,.492-2.133,3.91,3.91,0,0,1,1.508-1.593,4.455,4.455,0,0,1,2.359-.617,4.229,4.229,0,0,1,2,.453v1.484a3.242,3.242,0,0,0-1.812-.5,3.2,3.2,0,0,0-1.2.219,2.5,2.5,0,0,0-.915.609,2.767,2.767,0,0,0-.57.93,3.28,3.28,0,0,0-.2,1.164A3.092,3.092,0,0,0,298.967,254.632Z" fill="#d26a98"/>
      <path id="Pfad_39128" data-name="Pfad 39128" d="M304.811,245.03h1.625v11.657h-1.625Z" fill="#d26a98"/>
      <path id="Pfad_39129" data-name="Pfad 39129" d="M315,256.233a3.832,3.832,0,0,1-1.133.391,6.659,6.659,0,0,1-1.321.141,4.556,4.556,0,0,1-2.25-.539,3.69,3.69,0,0,1-1.484-1.493,4.555,4.555,0,0,1-.516-2.2,4.476,4.476,0,0,1,1.055-3.148,3.478,3.478,0,0,1,2.68-1.149,3.335,3.335,0,0,1,2.547.993,4.018,4.018,0,0,1,.937,2.867,6.318,6.318,0,0,1-.094,1.078h-5.5a2.5,2.5,0,0,0,.93,1.672,3.06,3.06,0,0,0,1.914.578A3.69,3.69,0,0,0,315,254.78Zm-1.047-4.609a2.3,2.3,0,0,0-.516-1.5,1.742,1.742,0,0,0-1.375-.547,1.925,1.925,0,0,0-1.422.6,2.889,2.889,0,0,0-.734,1.726h4.047Z" fill="#d26a98"/>
      <path id="Pfad_39130" data-name="Pfad 39130" d="M317.592,248.749a3.329,3.329,0,0,1,.688-.273,7.245,7.245,0,0,1,.906-.2,6.518,6.518,0,0,1,.984-.078,3.363,3.363,0,0,1,2.477.8,3.243,3.243,0,0,1,.789,2.375v5.313h-1.594V255.7a2,2,0,0,1-.8.742,3,3,0,0,1-1.446.3,2.661,2.661,0,0,1-1.906-.68,2.273,2.273,0,0,1-.719-1.726,2.2,2.2,0,0,1,.914-1.875,4.216,4.216,0,0,1,2.539-.672H321.8v-.484a1.515,1.515,0,0,0-1.781-1.719,4.208,4.208,0,0,0-2.422.734Zm2.953,4.219a2.228,2.228,0,0,0-1.382.359,1.1,1.1,0,0,0-.461.906,1.187,1.187,0,0,0,.359.914,1.479,1.479,0,0,0,1.047.336,1.7,1.7,0,0,0,1.242-.437,1.528,1.528,0,0,0,.445-1.141v-.937Z" fill="#d26a98"/>
      <path id="Pfad_39131" data-name="Pfad 39131" d="M327.217,249.765a2.661,2.661,0,0,1,2.61-1.547,2.593,2.593,0,0,1,1.961.758,2.844,2.844,0,0,1,.726,2.054v5.657h-1.625V251.4a1.858,1.858,0,0,0-.43-1.328,1.527,1.527,0,0,0-1.164-.453,1.925,1.925,0,0,0-1.468.664,2.658,2.658,0,0,0-.61,1.867v4.532h-1.609v-8.36h1.609Z" fill="#d26a98"/>
      <path id="Pfad_39132" data-name="Pfad 39132" d="M345.983,245.03v11.657h-1.625v-1.266A2.872,2.872,0,0,1,341.8,256.8a3.2,3.2,0,0,1-1.937-.6,3.606,3.606,0,0,1-1.227-1.554,5.388,5.388,0,0,1-.4-2.094,4.691,4.691,0,0,1,1.008-3.141,3.236,3.236,0,0,1,2.586-1.187,2.862,2.862,0,0,1,2.531,1.39V245.03Zm-3.055,10.2a2.189,2.189,0,0,0,.727-.5,2.3,2.3,0,0,0,.515-.922,4.438,4.438,0,0,0,.188-1.352,3.785,3.785,0,0,0-.211-1.32,2.2,2.2,0,0,0-.555-.883,2.4,2.4,0,0,0-.711-.461,1.96,1.96,0,0,0-.742-.148,2.016,2.016,0,0,0-1.617.757,3.316,3.316,0,0,0-.633,2.18,3.154,3.154,0,0,0,.625,2.031,1.926,1.926,0,0,0,1.563.782A2.217,2.217,0,0,0,342.928,255.226Z" fill="#d26a98"/>
      <path id="Pfad_39133" data-name="Pfad 39133" d="M348.42,248.749a3.329,3.329,0,0,1,.688-.273,7.245,7.245,0,0,1,.906-.2A6.521,6.521,0,0,1,351,248.2a3.361,3.361,0,0,1,2.476.8,3.243,3.243,0,0,1,.789,2.375v5.313H352.67V255.7a2,2,0,0,1-.8.742,3,3,0,0,1-1.446.3,2.661,2.661,0,0,1-1.906-.68,2.273,2.273,0,0,1-.719-1.726,2.2,2.2,0,0,1,.914-1.875,4.217,4.217,0,0,1,2.54-.672h1.375v-.484a1.516,1.516,0,0,0-1.782-1.719,4.208,4.208,0,0,0-2.422.734Zm2.954,4.219a2.23,2.23,0,0,0-1.383.359,1.1,1.1,0,0,0-.461.906,1.186,1.186,0,0,0,.359.914,1.48,1.48,0,0,0,1.047.336,1.7,1.7,0,0,0,1.242-.437,1.529,1.529,0,0,0,.446-1.141v-.937Z" fill="#d26a98"/>
      <path id="Pfad_39134" data-name="Pfad 39134" d="M358.53,254.171q0,1.218,1.14,1.219a1.776,1.776,0,0,0,1.141-.36v1.453a2.87,2.87,0,0,1-1.328.282,2.307,2.307,0,0,1-2.594-2.625v-4.547h-1.3v-1.266h1.3V246.3h1.641v2.031h2.187v1.266H358.53Z" fill="#d26a98"/>
      <path id="Pfad_39135" data-name="Pfad 39135" d="M362.764,248.749a3.329,3.329,0,0,1,.688-.273,7.206,7.206,0,0,1,.906-.2,6.509,6.509,0,0,1,.984-.078,3.363,3.363,0,0,1,2.477.8,3.243,3.243,0,0,1,.789,2.375v5.313h-1.594V255.7a1.993,1.993,0,0,1-.8.742,2.989,2.989,0,0,1-1.445.3,2.661,2.661,0,0,1-1.906-.68,2.273,2.273,0,0,1-.719-1.726,2.2,2.2,0,0,1,.914-1.875,4.216,4.216,0,0,1,2.539-.672h1.375v-.484a1.515,1.515,0,0,0-1.781-1.719,4.208,4.208,0,0,0-2.422.734Zm2.953,4.219a2.234,2.234,0,0,0-1.383.359,1.1,1.1,0,0,0-.46.906,1.187,1.187,0,0,0,.359.914,1.479,1.479,0,0,0,1.047.336,1.7,1.7,0,0,0,1.242-.437,1.528,1.528,0,0,0,.445-1.141v-.937Z" fill="#d26a98"/>
    </g>
    <g id="Gruppe_14202" data-name="Gruppe 14202">
      <path id="Pfad_39136" data-name="Pfad 39136" d="M464.889,239.466a3.292,3.292,0,0,1,.687-.274,7.4,7.4,0,0,1,.906-.2,6.386,6.386,0,0,1,.985-.078,3.361,3.361,0,0,1,2.476.8,3.243,3.243,0,0,1,.789,2.375V247.4h-1.593v-.984a2.006,2.006,0,0,1-.8.742,2.994,2.994,0,0,1-1.445.305,2.662,2.662,0,0,1-1.907-.68,2.272,2.272,0,0,1-.718-1.726,2.193,2.193,0,0,1,.914-1.875,4.2,4.2,0,0,1,2.539-.672h1.375v-.485a1.514,1.514,0,0,0-1.781-1.718,4.2,4.2,0,0,0-2.422.734Zm2.953,4.219a2.229,2.229,0,0,0-1.383.359,1.1,1.1,0,0,0-.461.906,1.186,1.186,0,0,0,.359.914,1.479,1.479,0,0,0,1.047.336,1.692,1.692,0,0,0,1.242-.437,1.529,1.529,0,0,0,.446-1.141v-.937Z" fill="#d26a98"/>
      <path id="Pfad_39137" data-name="Pfad 39137" d="M474.514,240.481a2.66,2.66,0,0,1,2.609-1.546,2.594,2.594,0,0,1,1.961.757,2.848,2.848,0,0,1,.727,2.055V247.4h-1.625v-5.281a1.863,1.863,0,0,0-.43-1.328,1.53,1.53,0,0,0-1.164-.453,1.925,1.925,0,0,0-1.469.664,2.66,2.66,0,0,0-.609,1.867V247.4H472.9v-8.359h1.61Z" fill="#d26a98"/>
      <path id="Pfad_39138" data-name="Pfad 39138" d="M482.154,239.466a3.3,3.3,0,0,1,.688-.274,7.354,7.354,0,0,1,.906-.2,6.373,6.373,0,0,1,.984-.078,3.363,3.363,0,0,1,2.477.8,3.247,3.247,0,0,1,.789,2.375V247.4H486.4v-.984a2,2,0,0,1-.8.742,3,3,0,0,1-1.446.305,2.66,2.66,0,0,1-1.906-.68,2.273,2.273,0,0,1-.719-1.726,2.2,2.2,0,0,1,.914-1.875,4.207,4.207,0,0,1,2.539-.672h1.375v-.485a1.514,1.514,0,0,0-1.781-1.718,4.208,4.208,0,0,0-2.422.734Zm2.953,4.219a2.224,2.224,0,0,0-1.382.359,1.1,1.1,0,0,0-.461.906,1.186,1.186,0,0,0,.359.914,1.477,1.477,0,0,0,1.047.336,1.7,1.7,0,0,0,1.242-.437,1.528,1.528,0,0,0,.445-1.141v-.937Z" fill="#d26a98"/>
      <path id="Pfad_39139" data-name="Pfad 39139" d="M490.232,235.747h1.625V247.4h-1.625Z" fill="#d26a98"/>
      <path id="Pfad_39140" data-name="Pfad 39140" d="M493.154,239.044h1.813l1.015,2.734c.166.407.318.786.454,1.141s.244.645.328.875l.226.625c.068.187.119.333.156.437l.094.266a.585.585,0,0,1,.039.141l.016.031q.141-.5,1.187-3.516l.938-2.734h1.719l-3.032,8.141a5.663,5.663,0,0,1-1.554,2.461,3.242,3.242,0,0,1-2.1.742,2.7,2.7,0,0,1-.765-.094v-1.375a2.42,2.42,0,0,0,.562.062,2.288,2.288,0,0,0,2.234-1.75Z" fill="#d26a98"/>
      <path id="Pfad_39141" data-name="Pfad 39141" d="M508.014,240.216l-4.094,5.812h4.312V247.4h-6.187v-1.234l4.062-5.766H502.2v-1.359h5.813Z" fill="#d26a98"/>
      <path id="Pfad_39142" data-name="Pfad 39142" d="M516.311,246.95a3.832,3.832,0,0,1-1.133.391,6.662,6.662,0,0,1-1.321.14,4.545,4.545,0,0,1-2.25-.539,3.682,3.682,0,0,1-1.484-1.492,4.558,4.558,0,0,1-.516-2.2,4.476,4.476,0,0,1,1.055-3.148,3.478,3.478,0,0,1,2.68-1.149,3.339,3.339,0,0,1,2.547.992,4.023,4.023,0,0,1,.937,2.868,6.327,6.327,0,0,1-.094,1.078h-5.5a2.491,2.491,0,0,0,.93,1.672,3.067,3.067,0,0,0,1.914.578,3.69,3.69,0,0,0,2.235-.641Zm-1.047-4.609a2.311,2.311,0,0,0-.516-1.5,1.742,1.742,0,0,0-1.375-.547,1.923,1.923,0,0,0-1.422.6,2.889,2.889,0,0,0-.734,1.726h4.047Z" fill="#d26a98"/>
      <path id="Pfad_39143" data-name="Pfad 39143" d="M471.982,254.947V266.6h-1.625v-1.266a2.87,2.87,0,0,1-2.562,1.375,3.2,3.2,0,0,1-1.938-.6,3.6,3.6,0,0,1-1.226-1.554,5.37,5.37,0,0,1-.4-2.094,4.691,4.691,0,0,1,1.008-3.141,3.236,3.236,0,0,1,2.586-1.187,2.862,2.862,0,0,1,2.531,1.39v-4.578Zm-3.054,10.2a2.185,2.185,0,0,0,.726-.5,2.3,2.3,0,0,0,.516-.922,4.44,4.44,0,0,0,.187-1.352,3.785,3.785,0,0,0-.211-1.32,2.2,2.2,0,0,0-.554-.883,2.431,2.431,0,0,0-.711-.461,1.964,1.964,0,0,0-.742-.148,2.017,2.017,0,0,0-1.618.757,3.321,3.321,0,0,0-.632,2.18,3.149,3.149,0,0,0,.625,2.031,1.922,1.922,0,0,0,1.562.782A2.225,2.225,0,0,0,468.928,265.143Z" fill="#d26a98"/>
      <path id="Pfad_39144" data-name="Pfad 39144" d="M474.42,258.666a3.3,3.3,0,0,1,.687-.273,7.221,7.221,0,0,1,.907-.2,6.5,6.5,0,0,1,.984-.078,3.365,3.365,0,0,1,2.477.8,3.247,3.247,0,0,1,.789,2.375V266.6H478.67v-.985a2.005,2.005,0,0,1-.805.742,2.991,2.991,0,0,1-1.445.3,2.658,2.658,0,0,1-1.906-.68,2.269,2.269,0,0,1-.719-1.726,2.2,2.2,0,0,1,.914-1.875,4.212,4.212,0,0,1,2.539-.672h1.375v-.484a1.515,1.515,0,0,0-1.781-1.719,4.206,4.206,0,0,0-2.422.734Zm2.953,4.219a2.23,2.23,0,0,0-1.383.359,1.1,1.1,0,0,0-.461.906,1.184,1.184,0,0,0,.36.914,1.477,1.477,0,0,0,1.047.336,1.7,1.7,0,0,0,1.242-.437,1.529,1.529,0,0,0,.445-1.141v-.937Z" fill="#d26a98"/>
      <path id="Pfad_39145" data-name="Pfad 39145" d="M484.529,264.088q0,1.218,1.141,1.219a1.78,1.78,0,0,0,1.141-.36V266.4a2.877,2.877,0,0,1-1.329.282,2.306,2.306,0,0,1-2.593-2.625V259.51h-1.3v-1.266h1.3v-2.031h1.64v2.031h2.188v1.266h-2.188Z" fill="#d26a98"/>
      <path id="Pfad_39146" data-name="Pfad 39146" d="M488.764,258.666a3.3,3.3,0,0,1,.687-.273,7.2,7.2,0,0,1,.906-.2,6.512,6.512,0,0,1,.985-.078,3.361,3.361,0,0,1,2.476.8,3.243,3.243,0,0,1,.789,2.375V266.6h-1.593v-.985a2.006,2.006,0,0,1-.8.742,2.994,2.994,0,0,1-1.445.3,2.662,2.662,0,0,1-1.907-.68,2.272,2.272,0,0,1-.718-1.726,2.193,2.193,0,0,1,.914-1.875,4.212,4.212,0,0,1,2.539-.672h1.375v-.484a1.515,1.515,0,0,0-1.781-1.719,4.2,4.2,0,0,0-2.422.734Zm2.953,4.219a2.23,2.23,0,0,0-1.383.359,1.1,1.1,0,0,0-.461.906,1.186,1.186,0,0,0,.359.914,1.479,1.479,0,0,0,1.047.336,1.692,1.692,0,0,0,1.242-.437,1.529,1.529,0,0,0,.446-1.141v-.937Z" fill="#d26a98"/>
    </g>
    <g id="Gruppe_14203" data-name="Gruppe 14203">
      <path id="Pfad_39147" data-name="Pfad 39147" d="M618.352,249.8a2.214,2.214,0,0,1,2.187-1.547,2.99,2.99,0,0,1,.516.047v1.578a1.928,1.928,0,0,0-.766-.141,1.663,1.663,0,0,0-1.391.743,2.91,2.91,0,0,0-.546,1.773v4.438h-1.61v-8.36h1.61Z" fill="#d26a98"/>
      <path id="Pfad_39148" data-name="Pfad 39148" d="M628.555,256.233a3.812,3.812,0,0,1-1.133.391,6.642,6.642,0,0,1-1.32.141,4.556,4.556,0,0,1-2.25-.539,3.693,3.693,0,0,1-1.485-1.493,4.554,4.554,0,0,1-.515-2.2,4.476,4.476,0,0,1,1.054-3.148,3.479,3.479,0,0,1,2.68-1.149,3.335,3.335,0,0,1,2.547.993,4.018,4.018,0,0,1,.937,2.867,6.416,6.416,0,0,1-.093,1.078h-5.5a2.494,2.494,0,0,0,.929,1.672,3.064,3.064,0,0,0,1.914.578,3.686,3.686,0,0,0,2.235-.641Zm-1.047-4.609a2.3,2.3,0,0,0-.516-1.5,1.741,1.741,0,0,0-1.375-.547,1.926,1.926,0,0,0-1.422.6,2.9,2.9,0,0,0-.734,1.726h4.047Z" fill="#d26a98"/>
      <path id="Pfad_39149" data-name="Pfad 39149" d="M635.727,250.077a4.18,4.18,0,0,0-2.079-.469,1.47,1.47,0,0,0-.914.258.834.834,0,0,0-.336.7.819.819,0,0,0,.024.2,1.081,1.081,0,0,0,.062.179.686.686,0,0,0,.118.172c.052.058.1.107.14.149a.912.912,0,0,0,.18.132c.078.047.146.089.2.125a2.336,2.336,0,0,0,.227.125c.093.047.171.083.234.11s.148.065.258.117a2.215,2.215,0,0,0,.258.109,8.5,8.5,0,0,1,.789.414,4.65,4.65,0,0,1,.64.477,1.848,1.848,0,0,1,.485.664,2.147,2.147,0,0,1,.164.852,2.106,2.106,0,0,1-.789,1.75,3.37,3.37,0,0,1-2.149.625,5.62,5.62,0,0,1-2.469-.5v-1.532a4.36,4.36,0,0,0,2.391.719,1.684,1.684,0,0,0,1.008-.258.818.818,0,0,0,.351-.7.835.835,0,0,0-.109-.414,1.573,1.573,0,0,0-.219-.313,1.683,1.683,0,0,0-.422-.281q-.312-.163-.476-.242c-.11-.052-.315-.141-.617-.266a5.219,5.219,0,0,1-.711-.359,3.955,3.955,0,0,1-.61-.469,1.894,1.894,0,0,1-.468-.672,2.223,2.223,0,0,1-.164-.875,2.055,2.055,0,0,1,.828-1.726,3.3,3.3,0,0,1,2.062-.633,5.066,5.066,0,0,1,2.11.359Z" fill="#d26a98"/>
      <path id="Pfad_39150" data-name="Pfad 39150" d="M644.664,248.327v8.36h-1.625v-1.438a2.59,2.59,0,0,1-2.609,1.531,2.624,2.624,0,0,1-1.953-.726,2.755,2.755,0,0,1-.719-2.024v-5.7h1.625v5.313a1.853,1.853,0,0,0,.422,1.312,1.5,1.5,0,0,0,1.156.453,1.883,1.883,0,0,0,1.516-.664,2.8,2.8,0,0,0,.562-1.867v-4.547Z" fill="#d26a98"/>
      <path id="Pfad_39151" data-name="Pfad 39151" d="M646.977,245.03H648.6v11.657h-1.625Z" fill="#d26a98"/>
      <path id="Pfad_39152" data-name="Pfad 39152" d="M653.023,254.171q0,1.218,1.141,1.219a1.776,1.776,0,0,0,1.141-.36v1.453a2.87,2.87,0,0,1-1.328.282,2.307,2.307,0,0,1-2.594-2.625v-4.547h-1.3v-1.266h1.3V246.3h1.64v2.031h2.188v1.266h-2.188Z" fill="#d26a98"/>
      <path id="Pfad_39153" data-name="Pfad 39153" d="M661.836,250.077a4.176,4.176,0,0,0-2.078-.469,1.466,1.466,0,0,0-.914.258.832.832,0,0,0-.336.7.869.869,0,0,0,.023.2,1.084,1.084,0,0,0,.063.179.656.656,0,0,0,.117.172c.053.058.1.107.141.149a.9.9,0,0,0,.179.132c.078.047.147.089.2.125a2.336,2.336,0,0,0,.227.125c.094.047.172.083.234.11s.149.065.258.117a2.215,2.215,0,0,0,.258.109,8.5,8.5,0,0,1,.789.414,4.6,4.6,0,0,1,.641.477,1.845,1.845,0,0,1,.484.664,2.147,2.147,0,0,1,.164.852,2.106,2.106,0,0,1-.789,1.75,3.365,3.365,0,0,1-2.148.625,5.617,5.617,0,0,1-2.469-.5v-1.532a4.359,4.359,0,0,0,2.39.719,1.682,1.682,0,0,0,1.008-.258.816.816,0,0,0,.352-.7.826.826,0,0,0-.11-.414,1.614,1.614,0,0,0-.218-.313,1.7,1.7,0,0,0-.422-.281q-.312-.163-.477-.242c-.109-.052-.314-.141-.617-.266a5.277,5.277,0,0,1-.711-.359,3.949,3.949,0,0,1-.609-.469,1.9,1.9,0,0,1-.469-.672,2.241,2.241,0,0,1-.164-.875,2.055,2.055,0,0,1,.828-1.726,3.3,3.3,0,0,1,2.063-.633,5.064,5.064,0,0,1,2.109.359Z" fill="#d26a98"/>
      <path id="Pfad_39154" data-name="Pfad 39154" d="M664.156,254.9a1.071,1.071,0,0,1,.8-.335,1.146,1.146,0,0,1,1.141,1.14,1.1,1.1,0,0,1-.571.969,1.166,1.166,0,0,1-.57.141,1.11,1.11,0,0,1-.8-.313,1.067,1.067,0,0,1-.32-.8A1.129,1.129,0,0,1,664.156,254.9Zm.039-9.32h1.563v7.578H664.2Z" fill="#d26a98"/>
    </g>
    <g id="Gruppe_14204" data-name="Gruppe 14204">
      <path id="Pfad_39155" data-name="Pfad 39155" d="M133.448,363.146a4.978,4.978,0,0,1,2.219.468,3.384,3.384,0,0,1,1.445,1.282,3.518,3.518,0,0,1,.492,1.859,3.262,3.262,0,0,1-1.125,2.578,4.277,4.277,0,0,1-2.922.984h-1.594v3.938h-1.687V363.146Zm-.031,5.765a2.613,2.613,0,0,0,1.843-.594,2.03,2.03,0,0,0,.641-1.562,2.311,2.311,0,0,0-.281-1.164,1.9,1.9,0,0,0-.852-.766,3.181,3.181,0,0,0-1.383-.273h-1.422v4.359Z" fill="#009568"/>
      <path id="Pfad_39156" data-name="Pfad 39156" d="M140.87,367.364a2.214,2.214,0,0,1,2.187-1.547,2.991,2.991,0,0,1,.516.047v1.578a1.947,1.947,0,0,0-.766-.14,1.66,1.66,0,0,0-1.39.742,2.9,2.9,0,0,0-.547,1.773v4.438h-1.61V365.9h1.61Z" fill="#009568"/>
      <path id="Pfad_39157" data-name="Pfad 39157" d="M145.026,366.317a3.3,3.3,0,0,1,.687-.273,7.229,7.229,0,0,1,.907-.2,6.371,6.371,0,0,1,.984-.078,3.363,3.363,0,0,1,2.477.8,3.25,3.25,0,0,1,.789,2.375v5.313h-1.594v-.984a2,2,0,0,1-.805.742,2.989,2.989,0,0,1-1.445.3,2.659,2.659,0,0,1-1.906-.679,2.275,2.275,0,0,1-.719-1.727,2.2,2.2,0,0,1,.914-1.875,4.214,4.214,0,0,1,2.539-.672h1.375v-.484a1.516,1.516,0,0,0-1.781-1.719,4.2,4.2,0,0,0-2.422.735Zm2.953,4.219a2.223,2.223,0,0,0-1.383.36,1.1,1.1,0,0,0-.461.906,1.189,1.189,0,0,0,.36.914,1.482,1.482,0,0,0,1.047.336,1.7,1.7,0,0,0,1.242-.438,1.528,1.528,0,0,0,.445-1.14v-.938Z" fill="#009568"/>
      <path id="Pfad_39158" data-name="Pfad 39158" d="M155.01,372.2a2.694,2.694,0,0,0,2.094.821,3.458,3.458,0,0,0,1.828-.547v1.453a3.974,3.974,0,0,1-2.062.484,4.1,4.1,0,0,1-3.125-1.234,4.293,4.293,0,0,1-1.172-3.078,4.673,4.673,0,0,1,.492-2.133,3.906,3.906,0,0,1,1.508-1.594,4.455,4.455,0,0,1,2.359-.617,4.229,4.229,0,0,1,2,.453v1.484a3.486,3.486,0,0,0-3.015-.281,2.513,2.513,0,0,0-.915.61,2.763,2.763,0,0,0-.57.929,3.284,3.284,0,0,0-.2,1.164A3.092,3.092,0,0,0,155.01,372.2Z" fill="#009568"/>
      <path id="Pfad_39159" data-name="Pfad 39159" d="M162.885,371.739q0,1.219,1.141,1.219a1.785,1.785,0,0,0,1.141-.359v1.453a2.887,2.887,0,0,1-1.329.281,2.306,2.306,0,0,1-2.593-2.625v-4.547h-1.3V365.9h1.3v-2.032h1.64V365.9h2.188v1.265h-2.188Z" fill="#009568"/>
      <path id="Pfad_39160" data-name="Pfad 39160" d="M167.088,362.622a1,1,0,0,1,.719-.289.98.98,0,0,1,.508.133,1.059,1.059,0,0,1,.367.359,1.015,1.015,0,1,1-1.594-.2Zm-.093,3.274h1.625v8.359h-1.625Z" fill="#009568"/>
      <path id="Pfad_39161" data-name="Pfad 39161" d="M172.917,372.2a2.692,2.692,0,0,0,2.093.821,3.455,3.455,0,0,0,1.828-.547v1.453a3.973,3.973,0,0,1-2.062.484,4.106,4.106,0,0,1-3.125-1.234,4.3,4.3,0,0,1-1.172-3.078,4.673,4.673,0,0,1,.492-2.133,3.906,3.906,0,0,1,1.508-1.594,4.455,4.455,0,0,1,2.359-.617,4.224,4.224,0,0,1,2,.453v1.484a3.486,3.486,0,0,0-3.015-.281,2.5,2.5,0,0,0-.914.61,2.766,2.766,0,0,0-.571.929,3.285,3.285,0,0,0-.2,1.164A3.093,3.093,0,0,0,172.917,372.2Z" fill="#009568"/>
      <path id="Pfad_39162" data-name="Pfad 39162" d="M184.932,373.8a3.785,3.785,0,0,1-1.133.39,6.64,6.64,0,0,1-1.32.141,4.556,4.556,0,0,1-2.25-.539,3.676,3.676,0,0,1-1.484-1.492,4.558,4.558,0,0,1-.516-2.2,4.48,4.48,0,0,1,1.055-3.149,3.48,3.48,0,0,1,2.679-1.148,3.338,3.338,0,0,1,2.547.992,4.019,4.019,0,0,1,.938,2.867,6.308,6.308,0,0,1-.094,1.078h-5.5a2.489,2.489,0,0,0,.93,1.672,3.061,3.061,0,0,0,1.914.578,3.691,3.691,0,0,0,2.234-.64Zm-1.047-4.61a2.31,2.31,0,0,0-.515-1.5,1.743,1.743,0,0,0-1.375-.546,1.926,1.926,0,0,0-1.422.6,2.893,2.893,0,0,0-.735,1.727h4.047Z" fill="#009568"/>
    </g>
    <g id="Gruppe_14205" data-name="Gruppe 14205">
      <path id="Pfad_39163" data-name="Pfad 39163" d="M134.51,409.451a1.938,1.938,0,0,0-.781-.156,1.193,1.193,0,0,0-.883.336,1.488,1.488,0,0,0-.336,1.086v.625h1.782v1.265H132.51V419.7H130.9v-7.094h-1.328v-1.265H130.9V410.7a2.851,2.851,0,0,1,.711-2.055,2.585,2.585,0,0,1,1.961-.742,3.637,3.637,0,0,1,.937.125Z" fill="#d26a98"/>
      <path id="Pfad_39164" data-name="Pfad 39164" d="M136.3,418.639a4.454,4.454,0,0,1-1.054-3.047,4.559,4.559,0,0,1,1.086-3.117,4.073,4.073,0,0,1,5.828-.032,5.068,5.068,0,0,1-.024,6.18,4.121,4.121,0,0,1-5.836.016Zm1.914-5.8a1.994,1.994,0,0,0-.718.648,3.22,3.22,0,0,0-.43.938,4.069,4.069,0,0,0-.148,1.117,3.427,3.427,0,0,0,.625,2.086,1.971,1.971,0,0,0,1.671.851,1.949,1.949,0,0,0,1.7-.828,3.539,3.539,0,0,0,.586-2.093,4.534,4.534,0,0,0-.219-1.469,2.273,2.273,0,0,0-.75-1.063,2.25,2.25,0,0,0-2.313-.187Z" fill="#d26a98"/>
      <path id="Pfad_39165" data-name="Pfad 39165" d="M146.6,412.811a2.214,2.214,0,0,1,2.188-1.547,2.891,2.891,0,0,1,.515.047v1.578a1.927,1.927,0,0,0-.765-.141,1.662,1.662,0,0,0-1.391.742,2.905,2.905,0,0,0-.547,1.774V419.7h-1.609v-8.359H146.6Z" fill="#d26a98"/>
      <path id="Pfad_39166" data-name="Pfad 39166" d="M152.182,412.686a2.447,2.447,0,0,1,2.36-1.454,2.655,2.655,0,0,1,1.546.422,2.242,2.242,0,0,1,.86,1.188,2.634,2.634,0,0,1,2.5-1.61,2.461,2.461,0,0,1,1.945.75,3.077,3.077,0,0,1,.664,2.11V419.7h-1.609V414.42a2.079,2.079,0,0,0-.367-1.32,1.3,1.3,0,0,0-1.086-.461,1.719,1.719,0,0,0-1.3.632,2.76,2.76,0,0,0-.57,1.9V419.7h-1.61V414.42q0-1.782-1.453-1.781a1.607,1.607,0,0,0-.648.14,1.938,1.938,0,0,0-.6.43,2.085,2.085,0,0,0-.453.8,3.613,3.613,0,0,0-.172,1.164V419.7h-1.609v-8.359h1.609Z" fill="#d26a98"/>
      <path id="Pfad_39167" data-name="Pfad 39167" d="M171.042,411.342V419.7h-1.625v-1.437a2.594,2.594,0,0,1-2.61,1.531,2.62,2.62,0,0,1-1.953-.727,2.752,2.752,0,0,1-.719-2.023v-5.7h1.625v5.312a1.859,1.859,0,0,0,.422,1.313,1.5,1.5,0,0,0,1.156.453,1.886,1.886,0,0,0,1.516-.664,2.807,2.807,0,0,0,.563-1.867v-4.547Z" fill="#d26a98"/>
      <path id="Pfad_39168" data-name="Pfad 39168" d="M173.354,408.045h1.625V419.7h-1.625Z" fill="#d26a98"/>
      <path id="Pfad_39169" data-name="Pfad 39169" d="M177.495,411.764a3.24,3.24,0,0,1,.687-.274,7.43,7.43,0,0,1,.906-.195,6.393,6.393,0,0,1,.985-.078,3.356,3.356,0,0,1,2.476.8,3.243,3.243,0,0,1,.789,2.375V419.7h-1.593v-.984a2,2,0,0,1-.8.742,2.994,2.994,0,0,1-1.445.3,2.662,2.662,0,0,1-1.907-.68,2.272,2.272,0,0,1-.718-1.727,2.2,2.2,0,0,1,.914-1.875,4.212,4.212,0,0,1,2.539-.671H181.7v-.485a1.516,1.516,0,0,0-1.781-1.719,4.207,4.207,0,0,0-2.422.735Zm2.953,4.218a2.229,2.229,0,0,0-1.383.36,1.1,1.1,0,0,0-.461.906,1.191,1.191,0,0,0,.359.914,1.48,1.48,0,0,0,1.047.336,1.692,1.692,0,0,0,1.242-.437,1.529,1.529,0,0,0,.446-1.141v-.938Z" fill="#d26a98"/>
      <path id="Pfad_39170" data-name="Pfad 39170" d="M187.6,417.186q0,1.218,1.141,1.218a1.78,1.78,0,0,0,1.14-.359V419.5a2.867,2.867,0,0,1-1.328.281,2.307,2.307,0,0,1-2.594-2.625v-4.547h-1.3v-1.265h1.3v-2.031H187.6v2.031h2.188v1.265H187.6Z" fill="#d26a98"/>
      <path id="Pfad_39171" data-name="Pfad 39171" d="M197.885,419.248a3.811,3.811,0,0,1-1.133.391,6.713,6.713,0,0,1-1.32.14,4.545,4.545,0,0,1-2.25-.539,3.681,3.681,0,0,1-1.484-1.492,4.557,4.557,0,0,1-.516-2.2,4.48,4.48,0,0,1,1.055-3.149,3.48,3.48,0,0,1,2.68-1.148,3.337,3.337,0,0,1,2.546.992,4.019,4.019,0,0,1,.938,2.867,6.33,6.33,0,0,1-.094,1.079h-5.5a2.486,2.486,0,0,0,.93,1.671,3.061,3.061,0,0,0,1.914.579,3.685,3.685,0,0,0,2.234-.641Zm-1.047-4.609a2.3,2.3,0,0,0-.515-1.5,1.739,1.739,0,0,0-1.375-.547,1.928,1.928,0,0,0-1.422.6,2.889,2.889,0,0,0-.734,1.727h4.046Z" fill="#d26a98"/>
      <path id="Pfad_39172" data-name="Pfad 39172" d="M137.495,430.542V442.1H135.87V437.62a2.861,2.861,0,0,1-2.532,1.391,3.188,3.188,0,0,1-2.609-1.219,4.817,4.817,0,0,1-.984-3.125,4.69,4.69,0,0,1,.961-3.047,3.185,3.185,0,0,1,2.617-1.187,2.881,2.881,0,0,1,2.547,1.375v-1.266Zm-3.078,6.9a2.381,2.381,0,0,0,.71-.492,2.308,2.308,0,0,0,.54-.914,4.077,4.077,0,0,0,.2-1.336,3.993,3.993,0,0,0-.2-1.336,2.247,2.247,0,0,0-.54-.89,2.184,2.184,0,0,0-.718-.469,2.254,2.254,0,0,0-.821-.149,1.928,1.928,0,0,0-1.562.774,3.169,3.169,0,0,0-.625,2.055,3.267,3.267,0,0,0,.641,2.148,2,2,0,0,0,1.609.773A1.886,1.886,0,0,0,134.417,437.44Z" fill="#d26a98"/>
      <path id="Pfad_39173" data-name="Pfad 39173" d="M146.557,430.542V438.9h-1.625v-1.437a2.592,2.592,0,0,1-2.609,1.531,2.624,2.624,0,0,1-1.953-.726,2.756,2.756,0,0,1-.719-2.024v-5.7h1.625v5.312a1.859,1.859,0,0,0,.422,1.313,1.5,1.5,0,0,0,1.156.453,1.887,1.887,0,0,0,1.516-.664,2.8,2.8,0,0,0,.562-1.867v-4.547Z" fill="#d26a98"/>
      <path id="Pfad_39174" data-name="Pfad 39174" d="M155.042,438.448a3.833,3.833,0,0,1-1.133.391,6.653,6.653,0,0,1-1.321.14,4.546,4.546,0,0,1-2.25-.539,3.682,3.682,0,0,1-1.484-1.492,4.555,4.555,0,0,1-.516-2.2,4.476,4.476,0,0,1,1.055-3.148,3.478,3.478,0,0,1,2.68-1.149,3.338,3.338,0,0,1,2.547.992,4.023,4.023,0,0,1,.937,2.868,6.325,6.325,0,0,1-.094,1.078h-5.5a2.5,2.5,0,0,0,.93,1.672,3.067,3.067,0,0,0,1.914.578,3.69,3.69,0,0,0,2.235-.641Zm-1.047-4.609a2.3,2.3,0,0,0-.516-1.5,1.742,1.742,0,0,0-1.375-.547,1.925,1.925,0,0,0-1.422.6,2.889,2.889,0,0,0-.734,1.726h4.047Z" fill="#d26a98"/>
      <path id="Pfad_39175" data-name="Pfad 39175" d="M162.213,432.292a4.165,4.165,0,0,0-2.078-.469,1.466,1.466,0,0,0-.914.258.83.83,0,0,0-.336.7.808.808,0,0,0,.024.2.982.982,0,0,0,.062.18.673.673,0,0,0,.117.172c.053.058.1.107.141.148a.953.953,0,0,0,.18.133c.078.047.146.089.2.125s.133.078.226.125.172.083.235.11.148.065.258.117a2.287,2.287,0,0,0,.257.109,8.144,8.144,0,0,1,.789.414,4.521,4.521,0,0,1,.641.477,1.837,1.837,0,0,1,.484.664,2.128,2.128,0,0,1,.165.851,2.106,2.106,0,0,1-.79,1.75,3.365,3.365,0,0,1-2.148.625,5.606,5.606,0,0,1-2.469-.5v-1.531a4.359,4.359,0,0,0,2.391.719,1.687,1.687,0,0,0,1.008-.258.818.818,0,0,0,.351-.7.832.832,0,0,0-.109-.414,1.627,1.627,0,0,0-.219-.313,1.675,1.675,0,0,0-.422-.281q-.312-.164-.476-.242c-.11-.052-.315-.141-.617-.266a5.216,5.216,0,0,1-.711-.359,3.907,3.907,0,0,1-.61-.469,1.909,1.909,0,0,1-.469-.672,2.245,2.245,0,0,1-.164-.875,2.054,2.054,0,0,1,.829-1.726,3.3,3.3,0,0,1,2.062-.633,5.065,5.065,0,0,1,2.109.359Z" fill="#d26a98"/>
      <path id="Pfad_39176" data-name="Pfad 39176" d="M166.432,436.386q0,1.218,1.141,1.218a1.78,1.78,0,0,0,1.14-.359V438.7a2.867,2.867,0,0,1-1.328.281,2.306,2.306,0,0,1-2.593-2.625v-4.546h-1.3v-1.266h1.3v-2.031h1.64v2.031h2.188v1.266h-2.188Z" fill="#d26a98"/>
      <path id="Pfad_39177" data-name="Pfad 39177" d="M170.635,427.269a.993.993,0,0,1,.719-.29.98.98,0,0,1,.508.133,1.054,1.054,0,0,1,.367.36.968.968,0,0,1,.141.523,1.016,1.016,0,1,1-2.032,0A.969.969,0,0,1,170.635,427.269Zm-.093,3.273h1.625V438.9h-1.625Z" fill="#d26a98"/>
      <path id="Pfad_39178" data-name="Pfad 39178" d="M175.081,437.839a4.45,4.45,0,0,1-1.055-3.047,4.564,4.564,0,0,1,1.086-3.117,4.075,4.075,0,0,1,5.828-.031,5.068,5.068,0,0,1-.023,6.179,4.121,4.121,0,0,1-5.836.016Zm1.914-5.8a1.989,1.989,0,0,0-.719.648,3.22,3.22,0,0,0-.43.938,4.08,4.08,0,0,0-.148,1.117,3.425,3.425,0,0,0,.625,2.086,1.972,1.972,0,0,0,1.672.852,1.95,1.95,0,0,0,1.7-.829,3.532,3.532,0,0,0,.586-2.093,4.535,4.535,0,0,0-.219-1.469,2.273,2.273,0,0,0-.75-1.063,2.254,2.254,0,0,0-2.312-.187Z" fill="#d26a98"/>
      <path id="Pfad_39179" data-name="Pfad 39179" d="M185.385,431.979a2.662,2.662,0,0,1,2.61-1.546,2.6,2.6,0,0,1,1.961.757,2.848,2.848,0,0,1,.726,2.055V438.9h-1.625V433.62a1.858,1.858,0,0,0-.43-1.328,1.527,1.527,0,0,0-1.164-.453,1.925,1.925,0,0,0-1.468.664,2.656,2.656,0,0,0-.61,1.867V438.9h-1.609v-8.359h1.609Z" fill="#d26a98"/>
    </g>
    <g id="Gruppe_14206" data-name="Gruppe 14206">
      <path id="Pfad_39180" data-name="Pfad 39180" d="M300.53,388.5a5.573,5.573,0,0,1,4.047,1.531,5.21,5.21,0,0,1,1.578,3.907,6.362,6.362,0,0,1-.64,2.9,4.828,4.828,0,0,1-1.922,2.023,5.894,5.894,0,0,1-3.031.75h-3.5V388.5Zm.016,9.672a3.9,3.9,0,0,0,2.172-.578,3.337,3.337,0,0,0,1.289-1.516,5.44,5.44,0,0,0,.4-2.14,4.014,4.014,0,0,0-1.062-2.844,3.7,3.7,0,0,0-2.844-1.141H298.78v8.219Z" fill="#838383"/>
      <path id="Pfad_39181" data-name="Pfad 39181" d="M308.171,391.668a3.242,3.242,0,0,1,.687-.273,7.226,7.226,0,0,1,.907-.2,6.37,6.37,0,0,1,.984-.078,3.363,3.363,0,0,1,2.477.8,3.247,3.247,0,0,1,.789,2.375v5.312h-1.594v-.984a2,2,0,0,1-.8.742,2.989,2.989,0,0,1-1.445.3,2.66,2.66,0,0,1-1.906-.68,2.273,2.273,0,0,1-.719-1.726,2.2,2.2,0,0,1,.914-1.875,4.207,4.207,0,0,1,2.539-.672h1.375v-.485a1.514,1.514,0,0,0-1.781-1.718,4.208,4.208,0,0,0-2.422.734Zm2.953,4.219a2.23,2.23,0,0,0-1.383.359,1.1,1.1,0,0,0-.461.906,1.187,1.187,0,0,0,.36.914,1.477,1.477,0,0,0,1.047.336,1.7,1.7,0,0,0,1.242-.437,1.528,1.528,0,0,0,.445-1.141v-.937Z" fill="#838383"/>
      <path id="Pfad_39182" data-name="Pfad 39182" d="M318.28,397.09q0,1.218,1.141,1.219a1.786,1.786,0,0,0,1.141-.36V399.4a2.875,2.875,0,0,1-1.329.282,2.306,2.306,0,0,1-2.593-2.625v-4.547h-1.3v-1.266h1.3v-2.031h1.64v2.031h2.188v1.266H318.28Z" fill="#838383"/>
      <path id="Pfad_39183" data-name="Pfad 39183" d="M322.515,391.668a3.241,3.241,0,0,1,.687-.273,7.248,7.248,0,0,1,.906-.2,6.393,6.393,0,0,1,.985-.078,3.361,3.361,0,0,1,2.476.8,3.243,3.243,0,0,1,.789,2.375v5.312h-1.593v-.984a2,2,0,0,1-.805.742,2.994,2.994,0,0,1-1.445.3,2.662,2.662,0,0,1-1.907-.68,2.272,2.272,0,0,1-.718-1.726,2.193,2.193,0,0,1,.914-1.875,4.2,4.2,0,0,1,2.539-.672h1.375v-.485a1.514,1.514,0,0,0-1.781-1.718,4.206,4.206,0,0,0-2.422.734Zm2.953,4.219a2.23,2.23,0,0,0-1.383.359,1.1,1.1,0,0,0-.461.906,1.19,1.19,0,0,0,.359.914,1.48,1.48,0,0,0,1.047.336,1.692,1.692,0,0,0,1.242-.437,1.529,1.529,0,0,0,.446-1.141v-.937Z" fill="#838383"/>
      <path id="Pfad_39184" data-name="Pfad 39184" d="M333.671,390.434l2.687-1.61h1.469v10.781h-1.594V390.59l-2.562,1.562Z" fill="#838383"/>
    </g>
    <g id="Gruppe_14207" data-name="Gruppe 14207">
      <path id="Pfad_39185" data-name="Pfad 39185" d="M472.36,391.239a5.728,5.728,0,0,0-1.3-.547,6.023,6.023,0,0,0-1.5-.156,3.956,3.956,0,0,0-1.96.492,3.552,3.552,0,0,0-1.4,1.438,4.509,4.509,0,0,0-.516,2.2,4.083,4.083,0,0,0,1.11,3.008,3.916,3.916,0,0,0,2.906,1.117,4.934,4.934,0,0,0,1.461-.219,3.888,3.888,0,0,0,1.211-.593v1.7a5.089,5.089,0,0,1-2.828.672,5.809,5.809,0,0,1-4.07-9.8,5.486,5.486,0,0,1,4.039-1.578,5.724,5.724,0,0,1,2.843.593Z" fill="#838383"/>
      <path id="Pfad_39186" data-name="Pfad 39186" d="M474.821,399.161a4.452,4.452,0,0,1-1.054-3.047A4.564,4.564,0,0,1,474.853,393a4.074,4.074,0,0,1,5.828-.031,5.068,5.068,0,0,1-.024,6.18,4.122,4.122,0,0,1-5.836.015Zm1.914-5.8a2,2,0,0,0-.718.649,3.24,3.24,0,0,0-.43.937,4.079,4.079,0,0,0-.149,1.117,3.43,3.43,0,0,0,.625,2.086,1.973,1.973,0,0,0,1.672.852,1.948,1.948,0,0,0,1.7-.828,3.542,3.542,0,0,0,.586-2.094,4.534,4.534,0,0,0-.219-1.469,2.27,2.27,0,0,0-.75-1.062,2.253,2.253,0,0,0-2.313-.188Z" fill="#838383"/>
      <path id="Pfad_39187" data-name="Pfad 39187" d="M490.8,388.567v11.657h-1.625v-1.266a2.871,2.871,0,0,1-2.563,1.375,3.2,3.2,0,0,1-1.937-.6,3.6,3.6,0,0,1-1.227-1.554,5.388,5.388,0,0,1-.4-2.094,4.691,4.691,0,0,1,1.008-3.141,3.237,3.237,0,0,1,2.586-1.187,2.86,2.86,0,0,1,2.531,1.391v-4.579Zm-3.055,10.2a2.189,2.189,0,0,0,.727-.5,2.312,2.312,0,0,0,.515-.922,4.438,4.438,0,0,0,.188-1.352,3.785,3.785,0,0,0-.211-1.32,2.193,2.193,0,0,0-.555-.883,2.392,2.392,0,0,0-.711-.461,1.979,1.979,0,0,0-.742-.148,2.014,2.014,0,0,0-1.617.758,3.311,3.311,0,0,0-.633,2.179,3.159,3.159,0,0,0,.625,2.032,1.927,1.927,0,0,0,1.563.781A2.217,2.217,0,0,0,487.743,398.763Z" fill="#838383"/>
      <path id="Pfad_39188" data-name="Pfad 39188" d="M499.282,399.771a3.814,3.814,0,0,1-1.133.39,6.634,6.634,0,0,1-1.32.141,4.561,4.561,0,0,1-2.25-.539,3.694,3.694,0,0,1-1.484-1.492,4.562,4.562,0,0,1-.516-2.2,4.478,4.478,0,0,1,1.055-3.148,3.476,3.476,0,0,1,2.679-1.148,3.336,3.336,0,0,1,2.547.992,4.019,4.019,0,0,1,.938,2.867,6.318,6.318,0,0,1-.094,1.078h-5.5a2.493,2.493,0,0,0,.93,1.672,3.063,3.063,0,0,0,1.914.578,3.685,3.685,0,0,0,2.234-.641Zm-1.047-4.61a2.3,2.3,0,0,0-.515-1.5,1.743,1.743,0,0,0-1.375-.547,1.925,1.925,0,0,0-1.422.6,2.89,2.89,0,0,0-.735,1.726h4.047Z" fill="#838383"/>
      <path id="Pfad_39189" data-name="Pfad 39189" d="M504.829,391.052l2.688-1.61h1.468v10.782h-1.593v-9.016l-2.563,1.563Z" fill="#838383"/>
    </g>
    <g id="Gruppe_14208" data-name="Gruppe 14208">
      <path id="Pfad_39190" data-name="Pfad 39190" d="M618.353,521.409a2.213,2.213,0,0,1,2.187-1.547,3.009,3.009,0,0,1,.516.047v1.578a1.95,1.95,0,0,0-.766-.14,1.663,1.663,0,0,0-1.391.742,2.9,2.9,0,0,0-.546,1.773V528.3h-1.61v-8.36h1.61Z" fill="#d26a98"/>
      <path id="Pfad_39191" data-name="Pfad 39191" d="M628.556,527.847a3.807,3.807,0,0,1-1.133.39,6.657,6.657,0,0,1-1.32.141,4.55,4.55,0,0,1-2.25-.539,3.69,3.69,0,0,1-1.485-1.492,4.557,4.557,0,0,1-.515-2.2,4.48,4.48,0,0,1,1.054-3.149,3.477,3.477,0,0,1,2.68-1.148,3.339,3.339,0,0,1,2.547.992,4.018,4.018,0,0,1,.937,2.867,6.414,6.414,0,0,1-.093,1.078h-5.5a2.484,2.484,0,0,0,.929,1.672,3.061,3.061,0,0,0,1.914.578,3.694,3.694,0,0,0,2.235-.64Zm-1.047-4.61a2.315,2.315,0,0,0-.516-1.5,1.742,1.742,0,0,0-1.375-.547,1.927,1.927,0,0,0-1.422.6,2.892,2.892,0,0,0-.734,1.727h4.047Z" fill="#d26a98"/>
      <path id="Pfad_39192" data-name="Pfad 39192" d="M635.728,521.69a4.185,4.185,0,0,0-2.079-.468,1.472,1.472,0,0,0-.914.257.832.832,0,0,0-.336.7.819.819,0,0,0,.024.2,1.035,1.035,0,0,0,.062.18.649.649,0,0,0,.118.171c.051.058.1.107.14.149a.922.922,0,0,0,.18.133c.078.047.145.089.2.125s.133.078.227.125.171.083.234.109.148.066.258.117a2.446,2.446,0,0,0,.258.11,8.176,8.176,0,0,1,.789.414,4.764,4.764,0,0,1,.64.476,1.86,1.86,0,0,1,.485.664,2.148,2.148,0,0,1,.164.852,2.109,2.109,0,0,1-.789,1.75,3.372,3.372,0,0,1-2.149.625,5.616,5.616,0,0,1-2.469-.5v-1.531a4.367,4.367,0,0,0,2.391.718,1.692,1.692,0,0,0,1.008-.257.819.819,0,0,0,.351-.7.845.845,0,0,0-.109-.414,1.616,1.616,0,0,0-.219-.312,1.718,1.718,0,0,0-.422-.282c-.209-.109-.367-.19-.476-.242s-.316-.14-.617-.265a5.271,5.271,0,0,1-.711-.36,4.012,4.012,0,0,1-.61-.468,1.911,1.911,0,0,1-.468-.672,2.229,2.229,0,0,1-.164-.875,2.053,2.053,0,0,1,.828-1.727,3.293,3.293,0,0,1,2.062-.633,5.055,5.055,0,0,1,2.11.36Z" fill="#d26a98"/>
      <path id="Pfad_39193" data-name="Pfad 39193" d="M644.665,519.94v8.36H643.04v-1.438a2.592,2.592,0,0,1-2.609,1.532,2.621,2.621,0,0,1-1.953-.727,2.748,2.748,0,0,1-.719-2.023v-5.7h1.625v5.313a1.851,1.851,0,0,0,.422,1.312,1.5,1.5,0,0,0,1.156.454,1.885,1.885,0,0,0,1.516-.665,2.8,2.8,0,0,0,.562-1.867V519.94Z" fill="#d26a98"/>
      <path id="Pfad_39194" data-name="Pfad 39194" d="M646.978,516.644H648.6V528.3h-1.625Z" fill="#d26a98"/>
      <path id="Pfad_39195" data-name="Pfad 39195" d="M653.024,525.784q0,1.219,1.141,1.219a1.785,1.785,0,0,0,1.141-.359V528.1a2.889,2.889,0,0,1-1.328.281,2.306,2.306,0,0,1-2.594-2.625v-4.547h-1.3V519.94h1.3v-2.031h1.64v2.031h2.188v1.266h-2.188Z" fill="#d26a98"/>
      <path id="Pfad_39196" data-name="Pfad 39196" d="M661.837,521.69a4.181,4.181,0,0,0-2.078-.468,1.468,1.468,0,0,0-.914.257.829.829,0,0,0-.336.7.873.873,0,0,0,.023.2,1.038,1.038,0,0,0,.063.18.623.623,0,0,0,.117.171c.052.058.1.107.141.149a.909.909,0,0,0,.179.133c.078.047.146.089.2.125s.133.078.227.125.172.083.234.109.149.066.258.117a2.452,2.452,0,0,0,.258.11,8.161,8.161,0,0,1,.789.414,4.71,4.71,0,0,1,.641.476,1.856,1.856,0,0,1,.484.664,2.147,2.147,0,0,1,.164.852,2.109,2.109,0,0,1-.789,1.75,3.367,3.367,0,0,1-2.148.625,5.613,5.613,0,0,1-2.469-.5v-1.531a4.366,4.366,0,0,0,2.39.718,1.69,1.69,0,0,0,1.008-.257.818.818,0,0,0,.352-.7.836.836,0,0,0-.11-.414,1.662,1.662,0,0,0-.218-.312,1.74,1.74,0,0,0-.422-.282c-.209-.109-.367-.19-.477-.242s-.315-.14-.617-.265a5.333,5.333,0,0,1-.711-.36,4,4,0,0,1-.609-.468A1.915,1.915,0,0,1,657,523.1a2.249,2.249,0,0,1-.164-.875,2.053,2.053,0,0,1,.828-1.727,3.3,3.3,0,0,1,2.063-.633,5.053,5.053,0,0,1,2.109.36Z" fill="#d26a98"/>
      <path id="Pfad_39197" data-name="Pfad 39197" d="M664.157,526.511a1.065,1.065,0,0,1,.8-.336,1.147,1.147,0,0,1,1.141,1.14,1.1,1.1,0,0,1-.571.969,1.169,1.169,0,0,1-.57.141,1.107,1.107,0,0,1-.8-.313,1.062,1.062,0,0,1-.32-.8A1.121,1.121,0,0,1,664.157,526.511Zm.039-9.321h1.563v7.579H664.2Z" fill="#d26a98"/>
    </g>
    <g id="Gruppe_14209" data-name="Gruppe 14209">
      <path id="Pfad_39198" data-name="Pfad 39198" d="M300.53,451.572a5.571,5.571,0,0,1,4.047,1.532,5.207,5.207,0,0,1,1.578,3.906,6.359,6.359,0,0,1-.641,2.9,4.825,4.825,0,0,1-1.922,2.024,5.892,5.892,0,0,1-3.031.75h-3.5v-11.11Zm.015,9.672a3.9,3.9,0,0,0,2.172-.578,3.331,3.331,0,0,0,1.289-1.516,5.419,5.419,0,0,0,.4-2.14,4.01,4.01,0,0,0-1.063-2.844,3.7,3.7,0,0,0-2.843-1.141H298.78v8.219Z" fill="#d26a98"/>
      <path id="Pfad_39199" data-name="Pfad 39199" d="M308.17,454.744a3.33,3.33,0,0,1,.688-.273,7.427,7.427,0,0,1,.906-.2,6.521,6.521,0,0,1,.985-.078,3.361,3.361,0,0,1,2.476.8,3.243,3.243,0,0,1,.789,2.375v5.313H312.42V461.7a2,2,0,0,1-.8.742,2.984,2.984,0,0,1-1.446.3,2.657,2.657,0,0,1-1.906-.68,2.273,2.273,0,0,1-.719-1.726,2.2,2.2,0,0,1,.914-1.875,4.217,4.217,0,0,1,2.54-.672h1.375v-.484a1.516,1.516,0,0,0-1.782-1.719,4.208,4.208,0,0,0-2.422.734Zm2.954,4.219a2.23,2.23,0,0,0-1.383.359,1.106,1.106,0,0,0-.461.907,1.189,1.189,0,0,0,.359.914,1.485,1.485,0,0,0,1.047.336,1.7,1.7,0,0,0,1.242-.438,1.529,1.529,0,0,0,.446-1.141v-.937Z" fill="#d26a98"/>
      <path id="Pfad_39200" data-name="Pfad 39200" d="M318.28,460.166q0,1.22,1.14,1.219a1.776,1.776,0,0,0,1.141-.36v1.454a2.883,2.883,0,0,1-1.328.281,2.307,2.307,0,0,1-2.594-2.625v-4.547h-1.3v-1.266h1.3v-2.031h1.641v2.031h2.187v1.266H318.28Z" fill="#d26a98"/>
      <path id="Pfad_39201" data-name="Pfad 39201" d="M322.514,454.744a3.33,3.33,0,0,1,.688-.273,7.386,7.386,0,0,1,.906-.2,6.509,6.509,0,0,1,.984-.078,3.363,3.363,0,0,1,2.477.8,3.243,3.243,0,0,1,.789,2.375v5.313h-1.594V461.7a1.992,1.992,0,0,1-.8.742,2.977,2.977,0,0,1-1.445.3,2.657,2.657,0,0,1-1.906-.68,2.273,2.273,0,0,1-.719-1.726,2.2,2.2,0,0,1,.914-1.875,4.216,4.216,0,0,1,2.539-.672h1.375v-.484a1.515,1.515,0,0,0-1.781-1.719,4.208,4.208,0,0,0-2.422.734Zm2.953,4.219a2.234,2.234,0,0,0-1.383.359,1.105,1.105,0,0,0-.46.907,1.189,1.189,0,0,0,.359.914,1.483,1.483,0,0,0,1.047.336,1.7,1.7,0,0,0,1.242-.438,1.528,1.528,0,0,0,.445-1.141v-.937Z" fill="#d26a98"/>
      <path id="Pfad_39202" data-name="Pfad 39202" d="M340.92,461.275v1.407h-6.906v-1.328q.952-.7,1.774-1.422a19.78,19.78,0,0,0,1.554-1.524,7.664,7.664,0,0,0,1.164-1.633,3.347,3.347,0,0,0,.43-1.531,1.864,1.864,0,0,0-.539-1.437,2.134,2.134,0,0,0-1.508-.5,3.33,3.33,0,0,0-.867.125,4.707,4.707,0,0,0-.906.351,5.042,5.042,0,0,0-.8.508v-1.609a4.192,4.192,0,0,1,1.3-.649,5.019,5.019,0,0,1,1.516-.242,4.377,4.377,0,0,1,1.351.2,3.26,3.26,0,0,1,1.109.6,2.714,2.714,0,0,1,.75,1.031,3.559,3.559,0,0,1,.274,1.43q0,2.905-4.375,6.218Z" fill="#d26a98"/>
    </g>
    <g id="Gruppe_14210" data-name="Gruppe 14210">
      <path id="Pfad_39203" data-name="Pfad 39203" d="M300.53,515.19a5.57,5.57,0,0,1,4.047,1.532,5.207,5.207,0,0,1,1.578,3.906,6.359,6.359,0,0,1-.64,2.9,4.831,4.831,0,0,1-1.922,2.024,5.894,5.894,0,0,1-3.031.75h-3.5V515.19Zm.016,9.672a3.9,3.9,0,0,0,2.172-.578,3.334,3.334,0,0,0,1.289-1.515,5.442,5.442,0,0,0,.4-2.141,4.013,4.013,0,0,0-1.062-2.844,3.7,3.7,0,0,0-2.844-1.14H298.78v8.218Z" fill="#d26a98"/>
      <path id="Pfad_39204" data-name="Pfad 39204" d="M308.171,518.362a3.3,3.3,0,0,1,.687-.273,7.234,7.234,0,0,1,.907-.2,6.373,6.373,0,0,1,.984-.079,3.363,3.363,0,0,1,2.477.8,3.25,3.25,0,0,1,.789,2.375V526.3h-1.594v-.985a2.008,2.008,0,0,1-.8.743,2.989,2.989,0,0,1-1.445.3,2.659,2.659,0,0,1-1.906-.679,2.276,2.276,0,0,1-.719-1.727,2.2,2.2,0,0,1,.914-1.875,4.214,4.214,0,0,1,2.539-.672h1.375v-.484a1.516,1.516,0,0,0-1.781-1.719,4.208,4.208,0,0,0-2.422.734Zm2.953,4.219a2.23,2.23,0,0,0-1.383.359,1.106,1.106,0,0,0-.461.907,1.19,1.19,0,0,0,.36.914,1.481,1.481,0,0,0,1.047.336,1.7,1.7,0,0,0,1.242-.438,1.528,1.528,0,0,0,.445-1.14v-.938Z" fill="#d26a98"/>
      <path id="Pfad_39205" data-name="Pfad 39205" d="M318.28,523.784q0,1.219,1.141,1.219a1.785,1.785,0,0,0,1.141-.359V526.1a2.887,2.887,0,0,1-1.329.281,2.306,2.306,0,0,1-2.593-2.625v-4.547h-1.3V517.94h1.3v-2.031h1.64v2.031h2.188v1.266H318.28Z" fill="#d26a98"/>
      <path id="Pfad_39206" data-name="Pfad 39206" d="M322.515,518.362a3.3,3.3,0,0,1,.687-.273,7.255,7.255,0,0,1,.906-.2,6.4,6.4,0,0,1,.985-.079,3.361,3.361,0,0,1,2.476.8,3.246,3.246,0,0,1,.789,2.375V526.3h-1.593v-.985a2.008,2.008,0,0,1-.805.743,3,3,0,0,1-1.445.3,2.662,2.662,0,0,1-1.907-.679,2.275,2.275,0,0,1-.718-1.727,2.193,2.193,0,0,1,.914-1.875,4.212,4.212,0,0,1,2.539-.672h1.375v-.484a1.516,1.516,0,0,0-1.781-1.719,4.206,4.206,0,0,0-2.422.734Zm2.953,4.219a2.23,2.23,0,0,0-1.383.359,1.106,1.106,0,0,0-.461.907,1.193,1.193,0,0,0,.359.914,1.485,1.485,0,0,0,1.047.336,1.692,1.692,0,0,0,1.242-.438,1.528,1.528,0,0,0,.446-1.14v-.938Z" fill="#d26a98"/>
      <path id="Pfad_39207" data-name="Pfad 39207" d="M333.671,517.128l2.687-1.609h1.469V526.3h-1.594v-9.016l-2.562,1.563Z" fill="#d26a98"/>
      <path id="Pfad_39208" data-name="Pfad 39208" d="M350.492,521.44h-3.047V524.5h-1.5V521.44h-2.984v-1.468h2.984v-3.094h1.5v3.094h3.047Z" fill="#d26a98"/>
      <path id="Pfad_39209" data-name="Pfad 39209" d="M360.979,524.894V526.3h-6.907v-1.328q.954-.7,1.774-1.422a19.434,19.434,0,0,0,1.554-1.524,7.682,7.682,0,0,0,1.164-1.632,3.354,3.354,0,0,0,.43-1.532,1.864,1.864,0,0,0-.539-1.437,2.134,2.134,0,0,0-1.508-.5,3.33,3.33,0,0,0-.867.125,4.708,4.708,0,0,0-.906.351,5.04,5.04,0,0,0-.805.508V516.3a4.214,4.214,0,0,1,1.3-.649,5.019,5.019,0,0,1,1.516-.242,4.407,4.407,0,0,1,1.351.2,3.273,3.273,0,0,1,1.11.6,2.735,2.735,0,0,1,.75,1.031,3.579,3.579,0,0,1,.273,1.43q0,2.906-4.375,6.219Z" fill="#d26a98"/>
    </g>
    <g id="Gruppe_14211" data-name="Gruppe 14211">
      <path id="Pfad_39210" data-name="Pfad 39210" d="M472.36,453.7a5.729,5.729,0,0,0-1.3-.547,6.022,6.022,0,0,0-1.5-.156,3.956,3.956,0,0,0-1.96.492,3.552,3.552,0,0,0-1.4,1.438,4.509,4.509,0,0,0-.516,2.195,4.083,4.083,0,0,0,1.11,3.008,3.916,3.916,0,0,0,2.906,1.117,4.935,4.935,0,0,0,1.461-.219,3.888,3.888,0,0,0,1.211-.593v1.7a5.089,5.089,0,0,1-2.828.672,5.809,5.809,0,0,1-4.07-9.8,5.486,5.486,0,0,1,4.039-1.578,5.724,5.724,0,0,1,2.843.593Z" fill="#d26a98"/>
      <path id="Pfad_39211" data-name="Pfad 39211" d="M474.821,461.619a4.452,4.452,0,0,1-1.054-3.047,4.564,4.564,0,0,1,1.086-3.117,4.074,4.074,0,0,1,5.828-.031,5.068,5.068,0,0,1-.024,6.18,4.122,4.122,0,0,1-5.836.015Zm1.914-5.8a2,2,0,0,0-.718.649,3.24,3.24,0,0,0-.43.937,4.08,4.08,0,0,0-.149,1.117,3.43,3.43,0,0,0,.625,2.086,1.973,1.973,0,0,0,1.672.852,1.948,1.948,0,0,0,1.7-.828,3.542,3.542,0,0,0,.586-2.094,4.535,4.535,0,0,0-.219-1.469,2.27,2.27,0,0,0-.75-1.062,2.253,2.253,0,0,0-2.313-.188Z" fill="#d26a98"/>
      <path id="Pfad_39212" data-name="Pfad 39212" d="M490.8,451.025v11.657h-1.625v-1.266a2.871,2.871,0,0,1-2.563,1.375,3.2,3.2,0,0,1-1.937-.6,3.6,3.6,0,0,1-1.227-1.554,5.388,5.388,0,0,1-.4-2.094,4.691,4.691,0,0,1,1.008-3.141,3.237,3.237,0,0,1,2.586-1.187,2.86,2.86,0,0,1,2.531,1.391v-4.579Zm-3.055,10.2a2.189,2.189,0,0,0,.727-.5,2.312,2.312,0,0,0,.515-.922,4.438,4.438,0,0,0,.188-1.352,3.785,3.785,0,0,0-.211-1.32,2.194,2.194,0,0,0-.555-.883,2.393,2.393,0,0,0-.711-.461,1.98,1.98,0,0,0-.742-.148,2.014,2.014,0,0,0-1.617.758,3.311,3.311,0,0,0-.633,2.179,3.159,3.159,0,0,0,.625,2.032,1.927,1.927,0,0,0,1.563.781A2.217,2.217,0,0,0,487.743,461.221Z" fill="#d26a98"/>
      <path id="Pfad_39213" data-name="Pfad 39213" d="M499.282,462.229a3.813,3.813,0,0,1-1.133.39,6.632,6.632,0,0,1-1.32.141,4.562,4.562,0,0,1-2.25-.539,3.694,3.694,0,0,1-1.484-1.492,4.562,4.562,0,0,1-.516-2.2,4.478,4.478,0,0,1,1.055-3.148,3.476,3.476,0,0,1,2.679-1.148,3.336,3.336,0,0,1,2.547.992,4.019,4.019,0,0,1,.938,2.867,6.318,6.318,0,0,1-.094,1.078h-5.5a2.493,2.493,0,0,0,.93,1.672,3.063,3.063,0,0,0,1.914.578,3.685,3.685,0,0,0,2.234-.641Zm-1.047-4.61a2.3,2.3,0,0,0-.515-1.5,1.743,1.743,0,0,0-1.375-.547,1.925,1.925,0,0,0-1.422.6,2.89,2.89,0,0,0-.735,1.726h4.047Z" fill="#d26a98"/>
      <path id="Pfad_39214" data-name="Pfad 39214" d="M512.079,461.275v1.407h-6.906v-1.328q.954-.7,1.773-1.422a19.626,19.626,0,0,0,1.555-1.524,7.664,7.664,0,0,0,1.164-1.633,3.347,3.347,0,0,0,.43-1.531,1.864,1.864,0,0,0-.539-1.437,2.136,2.136,0,0,0-1.508-.5,3.33,3.33,0,0,0-.867.125,4.717,4.717,0,0,0-.907.351,5.077,5.077,0,0,0-.8.508v-1.609a4.192,4.192,0,0,1,1.3-.649,5.013,5.013,0,0,1,1.515-.242,4.379,4.379,0,0,1,1.352.2,3.26,3.26,0,0,1,1.109.6,2.693,2.693,0,0,1,.75,1.031,3.559,3.559,0,0,1,.274,1.43q0,2.905-4.375,6.218Z" fill="#d26a98"/>
    </g>
    <g id="Gruppe_14212" data-name="Gruppe 14212">
      <path id="Pfad_39215" data-name="Pfad 39215" d="M618.352,455.791a2.214,2.214,0,0,1,2.187-1.547,2.993,2.993,0,0,1,.516.047v1.578a1.929,1.929,0,0,0-.766-.14,1.664,1.664,0,0,0-1.391.742,2.91,2.91,0,0,0-.546,1.773v4.438h-1.61v-8.36h1.61Z" fill="#838383"/>
      <path id="Pfad_39216" data-name="Pfad 39216" d="M628.555,462.229a3.814,3.814,0,0,1-1.133.39,6.64,6.64,0,0,1-1.32.141,4.556,4.556,0,0,1-2.25-.539,3.7,3.7,0,0,1-1.485-1.492,4.561,4.561,0,0,1-.515-2.2,4.477,4.477,0,0,1,1.054-3.148,3.478,3.478,0,0,1,2.68-1.148,3.338,3.338,0,0,1,2.547.992,4.018,4.018,0,0,1,.937,2.867,6.416,6.416,0,0,1-.093,1.078h-5.5a2.492,2.492,0,0,0,.929,1.672,3.064,3.064,0,0,0,1.914.578,3.686,3.686,0,0,0,2.235-.641Zm-1.047-4.61a2.3,2.3,0,0,0-.516-1.5,1.741,1.741,0,0,0-1.375-.547,1.926,1.926,0,0,0-1.422.6,2.9,2.9,0,0,0-.734,1.726h4.047Z" fill="#838383"/>
      <path id="Pfad_39217" data-name="Pfad 39217" d="M635.727,456.072a4.18,4.18,0,0,0-2.079-.468,1.47,1.47,0,0,0-.914.257.834.834,0,0,0-.336.7.819.819,0,0,0,.024.2,1.081,1.081,0,0,0,.062.179.686.686,0,0,0,.118.172c.052.058.1.107.14.149a.953.953,0,0,0,.18.133c.078.046.146.088.2.125s.133.078.227.125.171.083.234.109.148.065.258.117a2.453,2.453,0,0,0,.258.11,8.04,8.04,0,0,1,.789.414,4.562,4.562,0,0,1,.64.476,1.848,1.848,0,0,1,.485.664,2.147,2.147,0,0,1,.164.852,2.106,2.106,0,0,1-.789,1.75,3.37,3.37,0,0,1-2.149.625,5.62,5.62,0,0,1-2.469-.5v-1.531a4.367,4.367,0,0,0,2.391.718,1.684,1.684,0,0,0,1.008-.258.816.816,0,0,0,.351-.7.835.835,0,0,0-.109-.414,1.535,1.535,0,0,0-.219-.312,1.653,1.653,0,0,0-.422-.282q-.312-.163-.476-.242c-.11-.052-.315-.14-.617-.265a5.333,5.333,0,0,1-.711-.36,3.954,3.954,0,0,1-.61-.469,1.9,1.9,0,0,1-.468-.671,2.23,2.23,0,0,1-.164-.875,2.056,2.056,0,0,1,.828-1.727,3.3,3.3,0,0,1,2.062-.633,5.049,5.049,0,0,1,2.11.36Z" fill="#838383"/>
      <path id="Pfad_39218" data-name="Pfad 39218" d="M644.664,454.322v8.36h-1.625v-1.438a2.59,2.59,0,0,1-2.609,1.531,2.624,2.624,0,0,1-1.953-.726,2.755,2.755,0,0,1-.719-2.024v-5.7h1.625v5.313a1.851,1.851,0,0,0,.422,1.312,1.5,1.5,0,0,0,1.156.453,1.883,1.883,0,0,0,1.516-.664,2.8,2.8,0,0,0,.562-1.867v-4.547Z" fill="#838383"/>
      <path id="Pfad_39219" data-name="Pfad 39219" d="M646.977,451.025H648.6v11.657h-1.625Z" fill="#838383"/>
      <path id="Pfad_39220" data-name="Pfad 39220" d="M653.023,460.166q0,1.22,1.141,1.219a1.776,1.776,0,0,0,1.141-.36v1.454a2.883,2.883,0,0,1-1.328.281,2.307,2.307,0,0,1-2.594-2.625v-4.547h-1.3v-1.266h1.3v-2.031h1.64v2.031h2.188v1.266h-2.188Z" fill="#838383"/>
      <path id="Pfad_39221" data-name="Pfad 39221" d="M661.836,456.072a4.176,4.176,0,0,0-2.078-.468,1.466,1.466,0,0,0-.914.257.832.832,0,0,0-.336.7.869.869,0,0,0,.023.2,1.084,1.084,0,0,0,.063.179.656.656,0,0,0,.117.172c.053.058.1.107.141.149a.942.942,0,0,0,.179.133c.078.046.147.088.2.125s.133.078.227.125.172.083.234.109.149.065.258.117a2.453,2.453,0,0,0,.258.11,8.04,8.04,0,0,1,.789.414,4.512,4.512,0,0,1,.641.476,1.846,1.846,0,0,1,.484.664,2.147,2.147,0,0,1,.164.852,2.106,2.106,0,0,1-.789,1.75,3.365,3.365,0,0,1-2.148.625,5.617,5.617,0,0,1-2.469-.5v-1.531a4.366,4.366,0,0,0,2.39.718,1.682,1.682,0,0,0,1.008-.258.815.815,0,0,0,.352-.7.826.826,0,0,0-.11-.414,1.575,1.575,0,0,0-.218-.312,1.671,1.671,0,0,0-.422-.282q-.312-.163-.477-.242c-.109-.052-.314-.14-.617-.265a5.393,5.393,0,0,1-.711-.36,3.948,3.948,0,0,1-.609-.469,1.9,1.9,0,0,1-.469-.671,2.248,2.248,0,0,1-.164-.875,2.056,2.056,0,0,1,.828-1.727,3.3,3.3,0,0,1,2.063-.633,5.047,5.047,0,0,1,2.109.36Z" fill="#838383"/>
      <path id="Pfad_39222" data-name="Pfad 39222" d="M663.664,452.057a5.045,5.045,0,0,1,2.578-.61,4.37,4.37,0,0,1,1.813.352,2.747,2.747,0,0,1,1.218,1.031,3.216,3.216,0,0,1,.149,2.953,2.5,2.5,0,0,1-.758.93,4.144,4.144,0,0,1-.984.539,3.542,3.542,0,0,1-1.047.227l-.016,1.671H665.07l-.015-2.656q3,0,3-1.922a1.858,1.858,0,0,0-.118-.679,1.523,1.523,0,0,0-.351-.539,1.506,1.506,0,0,0-.617-.36,2.8,2.8,0,0,0-.867-.125,4.445,4.445,0,0,0-2.438.781Zm1.367,8.836a1.048,1.048,0,0,1,.789-.336,1.147,1.147,0,0,1,1.141,1.14,1.05,1.05,0,0,1-.328.8,1.134,1.134,0,0,1-.813.313,1.07,1.07,0,0,1-1.109-1.11A1.125,1.125,0,0,1,665.031,460.893Z" fill="#838383"/>
    </g>
    <rect id="Rechteck_441" data-name="Rechteck 441" width="90.047" height="2.5" transform="translate(215.511 423.507)" fill="#838383"/>
    <rect id="Rechteck_442" data-name="Rechteck 442" width="2.5" height="85.048" transform="translate(524.433 472.213) rotate(-59.203)" fill="#d26a98"/>
    <rect id="Rechteck_443" data-name="Rechteck 443" width="2.5" height="25.021" transform="translate(319.673 473.697)" fill="#d26a98"/>
    <rect id="Rechteck_444" data-name="Rechteck 444" width="90.01" height="2.5" transform="translate(354.251 393.26)" fill="#838383"/>
    <path id="Pfad_39223" data-name="Pfad 39223" d="M271.645,571.593c-25.753,0-50.759-3.079-69.983-11.79l-.111-.058c-.322-.186-32.353-19.087-36.8-50.272-4.386-30.73-3.594-42.066-3.558-42.534l0-6.627h2.5v6.723c-.013.207-.8,11.708,3.535,42.084,4.2,29.4,34.1,47.583,35.533,48.434,71.974,32.543,227.613-14.083,229.177-14.559L638.4,470.8l.825,2.359L432.707,545.37A748.542,748.542,0,0,1,344.886,565.1C322.934,568.624,296.93,571.593,271.645,571.593Z" fill="#d26a98"/>
    <g id="Gruppe_14213" data-name="Gruppe 14213">
      <path id="Pfad_39224" data-name="Pfad 39224" d="M445.124,402.471l-1.768-1.768,6.192-6.193-6.184-6.184,1.768-1.768,7.951,7.951Z" fill="#838383"/>
      <line id="Linie_1169" data-name="Linie 1169" x1="7.055" transform="translate(444.262 394.51)" fill="none"/>
    </g>
    <g id="Gruppe_14214" data-name="Gruppe 14214">
      <path id="Pfad_39225" data-name="Pfad 39225" d="M306.42,432.717l-1.768-1.768,6.193-6.192-6.184-6.185,1.768-1.768,7.952,7.952Z" fill="#838383"/>
      <line id="Linie_1170" data-name="Linie 1170" x1="7.055" transform="translate(305.558 424.757)" fill="none"/>
    </g>
    <g id="Gruppe_14216" data-name="Gruppe 14216">
      <rect id="Rechteck_445" data-name="Rechteck 445" width="60.036" height="2.5" transform="translate(215.511 251.23)" fill="#d26a98"/>
      <g id="Gruppe_14215" data-name="Gruppe 14215">
        <path id="Pfad_39226" data-name="Pfad 39226" d="M276.409,260.44l-1.768-1.768,6.193-6.193L274.65,246.3l1.768-1.768,7.952,7.952Z" fill="#d26a98"/>
        <line id="Linie_1171" data-name="Linie 1171" x1="7.055" transform="translate(275.547 252.48)" fill="none"/>
      </g>
    </g>
    <g id="Gruppe_14218" data-name="Gruppe 14218">
      <rect id="Rechteck_446" data-name="Rechteck 446" width="60.036" height="2.5" transform="translate(384.629 251.23)" fill="#d26a98"/>
      <g id="Gruppe_14217" data-name="Gruppe 14217">
        <path id="Pfad_39227" data-name="Pfad 39227" d="M445.526,260.44l-1.768-1.768,6.193-6.193-6.185-6.184,1.768-1.768,7.952,7.952Z" fill="#d26a98"/>
        <line id="Linie_1172" data-name="Linie 1172" x1="7.055" transform="translate(444.665 252.48)" fill="none"/>
      </g>
    </g>
    <g id="Gruppe_14220" data-name="Gruppe 14220">
      <rect id="Rechteck_447" data-name="Rechteck 447" width="60.035" height="2.5" transform="translate(535.219 251.23)" fill="#d26a98"/>
      <g id="Gruppe_14219" data-name="Gruppe 14219">
        <path id="Pfad_39228" data-name="Pfad 39228" d="M596.115,260.44l-1.768-1.768,6.193-6.193-6.185-6.184,1.768-1.768,7.952,7.952Z" fill="#d26a98"/>
        <line id="Linie_1173" data-name="Linie 1173" x1="7.055" transform="translate(595.254 252.48)" fill="none"/>
      </g>
    </g>
    <g id="Gruppe_14221" data-name="Gruppe 14221">
      <path id="Pfad_39229" data-name="Pfad 39229" d="M168.629,461.218l-6.193-6.193-6.184,6.185-1.768-1.768,7.952-7.952,7.96,7.961Z" fill="#d26a98"/>
      <line id="Linie_1174" data-name="Linie 1174" y2="7.055" transform="translate(162.436 453.257)" fill="none"/>
    </g>
    <g id="Gruppe_14222" data-name="Gruppe 14222">
      <path id="Pfad_39230" data-name="Pfad 39230" d="M594.895,522.007l-.646-2.414,8.459-2.267-2.263-8.448,2.414-.646,2.911,10.862Z" fill="#d26a98"/>
      <line id="Linie_1175" data-name="Linie 1175" x1="6.11" y1="3.527" transform="translate(598.129 514.682)" fill="none"/>
    </g>
    <g id="Gruppe_14223" data-name="Gruppe 14223">
      <path id="Pfad_39231" data-name="Pfad 39231" d="M494.238,485.243l-6.193-6.193-6.184,6.185-1.768-1.768,7.951-7.952,7.961,7.961Z" fill="#d26a98"/>
      <line id="Linie_1176" data-name="Linie 1176" y2="7.055" transform="translate(488.045 477.283)" fill="none"/>
    </g>
    <g id="Gruppe_14224" data-name="Gruppe 14224">
      <path id="Pfad_39232" data-name="Pfad 39232" d="M320.923,507.541l-7.96-7.96,1.768-1.768,6.193,6.192,6.184-6.184,1.768,1.768Z" fill="#d26a98"/>
      <line id="Linie_1177" data-name="Linie 1177" y1="7.055" transform="translate(320.923 498.719)" fill="none"/>
    </g>
    <rect id="Rechteck_448" data-name="Rechteck 448" width="2.5" height="25.021" transform="translate(486.796 409.083)" fill="#838383"/>
    <g id="Gruppe_14225" data-name="Gruppe 14225">
      <path id="Pfad_39233" data-name="Pfad 39233" d="M488.046,442.926l-7.96-7.96,1.768-1.768,6.192,6.192,6.185-6.184L496,434.975Z" fill="#838383"/>
      <line id="Linie_1178" data-name="Linie 1178" y1="7.055" transform="translate(488.046 434.104)" fill="none"/>
    </g>
    <g id="Gruppe_14226" data-name="Gruppe 14226">
      <path id="Pfad_39234" data-name="Pfad 39234" d="M350.883,484.264l-4.678-10.227,10.238-4.683,1.04,2.273-7.964,3.644,3.638,7.951Z" fill="#838383"/>
      <line id="Linie_1179" data-name="Linie 1179" x2="6.611" y2="2.461" transform="translate(347.862 474.654)" fill="none"/>
    </g>
    <rect id="Rechteck_449" data-name="Rechteck 449" width="2.5" height="85.048" transform="translate(524.433 405.487) rotate(-59.204)" fill="#838383"/>
    <g id="Gruppe_14227" data-name="Gruppe 14227">
      <path id="Pfad_39235" data-name="Pfad 39235" d="M594.895,455.281l-.646-2.414,8.459-2.267-2.263-8.448,2.414-.646,2.911,10.862Z" fill="#838383"/>
      <line id="Linie_1180" data-name="Linie 1180" x1="6.11" y1="3.527" transform="translate(598.129 447.957)" fill="none"/>
    </g>
    <g id="Gruppe_14228" data-name="Gruppe 14228">
      <path id="Pfad_39236" data-name="Pfad 39236" d="M528.6,396.46l-9.921-5.3,5.3-9.931,2.205,1.178-4.125,7.726,7.716,4.119Z" fill="#838383"/>
      <line id="Linie_1181" data-name="Linie 1181" y1="2.051" x2="6.75" transform="translate(520.375 388.599)" fill="none"/>
    </g>
  </g>
</svg>
