<svg width="379" height="60" viewBox="0 0 379 60" fill="none" xmlns="http://www.w3.org/2000/svg">
<g clip-path="url(#clip0_12_2305)">
<mask id="mask0_12_2305" style="mask-type:luminance" maskUnits="userSpaceOnUse" x="0" y="0" width="379" height="60">
<path d="M379 0H0V60H379V0Z" fill="white"/>
</mask>
<g mask="url(#mask0_12_2305)">
<path d="M395 0H0V60H395V0Z" fill="#01192D"/>
<path opacity="0.9" d="M272.49 9.48C275.13 9.48 277.27 7.36 277.27 4.74C277.27 2.12 275.13 0 272.49 0C269.85 0 267.72 2.12 267.72 4.74C267.72 7.36 269.86 9.48 272.49 9.48Z" fill="white"/>
<path opacity="0.9" d="M323.43 9.48C326.07 9.48 328.21 7.36 328.21 4.74C328.21 2.12 326.07 0 323.43 0C320.79 0 318.66 2.12 318.66 4.74C318.66 7.36 320.8 9.48 323.43 9.48Z" fill="white"/>
<path opacity="0.9" d="M348.9 9.48C351.54 9.48 353.67 7.36 353.67 4.74C353.67 2.12 351.53 0 348.9 0C346.27 0 344.13 2.12 344.13 4.74C344.13 7.36 346.27 9.48 348.9 9.48Z" fill="white"/>
<path opacity="0.9" d="M234.28 47.41C236.92 47.41 239.05 45.29 239.05 42.67C239.05 40.05 236.91 37.93 234.28 37.93C231.65 37.93 229.51 40.05 229.51 42.67C229.51 45.29 231.65 47.41 234.28 47.41Z" fill="white"/>
<path opacity="0.9" d="M221.55 34.76C224.19 34.76 226.32 32.64 226.32 30.02C226.32 27.4 224.18 25.28 221.55 25.28C218.92 25.28 216.78 27.4 216.78 30.02C216.78 32.64 218.92 34.76 221.55 34.76Z" fill="white"/>
<path opacity="0.9" d="M272.49 34.76C275.13 34.76 277.27 32.64 277.27 30.02C277.27 27.4 275.13 25.28 272.49 25.28C269.85 25.28 267.72 27.4 267.72 30.02C267.72 32.64 269.86 34.76 272.49 34.76Z" fill="white"/>
<path opacity="0.9" d="M310.7 34.76C313.34 34.76 315.47 32.64 315.47 30.02C315.47 27.4 313.33 25.28 310.7 25.28C308.07 25.28 305.92 27.4 305.92 30.02C305.92 32.64 308.06 34.76 310.7 34.76Z" fill="white"/>
<path opacity="0.9" d="M277.27 17.38V4.74C277.27 2.12 275.13 0 272.49 0C269.85 0 267.72 2.12 267.72 4.74V17.38C267.72 20 269.86 22.12 272.49 22.12C275.12 22.12 277.27 20 277.27 17.38Z" fill="white"/>
<path opacity="0.9" d="M226.32 17.38C226.32 14.76 224.18 12.64 221.55 12.64H208.81C206.17 12.64 204.04 14.76 204.04 17.38C204.04 20 206.18 22.12 208.81 22.12H221.55C224.19 22.12 226.32 20 226.32 17.38Z" fill="white"/>
<path opacity="0.9" d="M254.98 30.02C254.98 32.64 257.12 34.76 259.75 34.76H272.49C275.13 34.76 277.26 32.64 277.26 30.02C277.26 27.4 275.12 25.28 272.49 25.28H259.75C257.11 25.28 254.98 27.4 254.98 30.02Z" fill="white"/>
<path opacity="0.9" d="M328.21 42.67V30.03C328.21 27.41 326.07 25.29 323.44 25.29C320.81 25.29 318.67 27.41 318.67 30.03V42.67C318.67 45.29 320.81 47.41 323.44 47.41C326.07 47.41 328.21 45.29 328.21 42.67Z" fill="white"/>
<path opacity="0.9" d="M226.32 42.67C226.32 40.05 224.18 37.93 221.55 37.93H208.81C206.17 37.93 204.04 40.05 204.04 42.67C204.04 45.29 206.18 47.41 208.81 47.41H221.55C224.19 47.41 226.32 45.29 226.32 42.67Z" fill="white"/>
<path opacity="0.85" d="M196.07 22.12C198.71 22.12 200.85 20 200.85 17.38C200.85 14.76 198.71 12.64 196.07 12.64C193.43 12.64 191.3 14.76 191.3 17.38C191.3 20 193.44 22.12 196.07 22.12Z" fill="#2C3461"/>
<path d="M208.81 22.12C211.45 22.12 213.58 20 213.58 17.38C213.58 14.76 211.44 12.64 208.81 12.64C206.18 12.64 204.04 14.76 204.04 17.38C204.04 20 206.18 22.12 208.81 22.12Z" fill="#FBBD00"/>
<path opacity="0.85" d="M221.55 22.12C224.19 22.12 226.32 20 226.32 17.38C226.32 14.76 224.18 12.64 221.55 12.64C218.92 12.64 216.78 14.76 216.78 17.38C216.78 20 218.92 22.12 221.55 22.12Z" fill="#2C3461"/>
<path opacity="0.85" d="M247.02 22.12C249.66 22.12 251.79 20 251.79 17.38C251.79 14.76 249.65 12.64 247.02 12.64C244.39 12.64 242.25 14.76 242.25 17.38C242.25 20 244.39 22.12 247.02 22.12Z" fill="#2C3461"/>
<path d="M259.75 22.12C262.39 22.12 264.52 20 264.52 17.38C264.52 14.76 262.38 12.64 259.75 12.64C257.12 12.64 254.98 14.76 254.98 17.38C254.98 20 257.12 22.12 259.75 22.12Z" fill="#3578E6"/>
<path d="M272.49 22.12C275.13 22.12 277.27 20 277.27 17.38C277.27 14.76 275.13 12.64 272.49 12.64C269.85 12.64 267.72 14.76 267.72 17.38C267.72 20 269.86 22.12 272.49 22.12Z" fill="#202048"/>
<path opacity="0.85" d="M196.07 9.48C198.71 9.48 200.85 7.36 200.85 4.74C200.85 2.12 198.71 0 196.07 0C193.43 0 191.3 2.12 191.3 4.74C191.3 7.36 193.44 9.48 196.07 9.48Z" fill="#2C3461"/>
<path opacity="0.85" d="M247.02 9.48C249.66 9.48 251.79 7.36 251.79 4.74C251.79 2.12 249.65 0 247.02 0C244.39 0 242.25 2.12 242.25 4.74C242.25 7.36 244.39 9.48 247.02 9.48Z" fill="#2C3461"/>
<path d="M259.75 9.48C262.39 9.48 264.52 7.36 264.52 4.74C264.52 2.12 262.38 0 259.75 0C257.12 0 254.98 2.12 254.98 4.74C254.98 7.36 257.12 9.48 259.75 9.48Z" fill="#795ADF"/>
<path d="M285.22 9.48C287.86 9.48 289.99 7.36 289.99 4.74C289.99 2.12 287.85 0 285.22 0C282.59 0 280.45 2.12 280.45 4.74C280.45 7.36 282.59 9.48 285.22 9.48Z" fill="#202048"/>
<path d="M297.96 9.48C300.6 9.48 302.73 7.36 302.73 4.74C302.73 2.12 300.59 0 297.96 0C295.33 0 293.19 2.12 293.19 4.74C293.19 7.36 295.33 9.48 297.96 9.48Z" fill="#F86E14"/>
<path d="M374.37 9.48C377.01 9.48 379.14 7.36 379.14 4.74C379.14 2.12 377 0 374.37 0C371.74 0 369.59 2.12 369.59 4.74C369.59 7.36 371.73 9.48 374.37 9.48Z" fill="#795ADF"/>
<path d="M196.07 47.41C198.71 47.41 200.85 45.29 200.85 42.67C200.85 40.05 198.71 37.93 196.07 37.93C193.43 37.93 191.3 40.05 191.3 42.67C191.3 45.29 193.44 47.41 196.07 47.41Z" fill="#1DBB91"/>
<path d="M208.81 47.41C211.45 47.41 213.58 45.29 213.58 42.67C213.58 40.05 211.44 37.93 208.81 37.93C206.18 37.93 204.04 40.05 204.04 42.67C204.04 45.29 206.18 47.41 208.81 47.41Z" fill="#006E58"/>
<path d="M221.55 47.41C224.19 47.41 226.32 45.29 226.32 42.67C226.32 40.05 224.18 37.93 221.55 37.93C218.92 37.93 216.78 40.05 216.78 42.67C216.78 45.29 218.92 47.41 221.55 47.41Z" fill="#006E58"/>
<path opacity="0.85" d="M247.02 47.41C249.66 47.41 251.79 45.29 251.79 42.67C251.79 40.05 249.65 37.93 247.02 37.93C244.39 37.93 242.25 40.05 242.25 42.67C242.25 45.29 244.39 47.41 247.02 47.41Z" fill="#2C3461"/>
<path d="M259.75 47.41C262.39 47.41 264.52 45.29 264.52 42.67C264.52 40.05 262.38 37.93 259.75 37.93C257.12 37.93 254.98 40.05 254.98 42.67C254.98 45.29 257.12 47.41 259.75 47.41Z" fill="#202048"/>
<path d="M272.49 47.41C275.13 47.41 277.27 45.29 277.27 42.67C277.27 40.05 275.13 37.93 272.49 37.93C269.85 37.93 267.72 40.05 267.72 42.67C267.72 45.29 269.86 47.41 272.49 47.41Z" fill="#202048"/>
<path d="M285.22 47.41C287.86 47.41 289.99 45.29 289.99 42.67C289.99 40.05 287.85 37.93 285.22 37.93C282.59 37.93 280.45 40.05 280.45 42.67C280.45 45.29 282.59 47.41 285.22 47.41Z" fill="#FF35A1"/>
<path opacity="0.85" d="M323.43 47.41C326.07 47.41 328.21 45.29 328.21 42.67C328.21 40.05 326.07 37.93 323.43 37.93C320.79 37.93 318.66 40.05 318.66 42.67C318.66 45.29 320.8 47.41 323.43 47.41Z" fill="#2C3461"/>
<path d="M348.9 47.41C351.54 47.41 353.67 45.29 353.67 42.67C353.67 40.05 351.53 37.93 348.9 37.93C346.27 37.93 344.13 40.05 344.13 42.67C344.13 45.29 346.27 47.41 348.9 47.41Z" fill="#006E58"/>
<path d="M196.07 60.04C198.71 60.04 200.85 57.92 200.85 55.3C200.85 52.68 198.71 50.56 196.07 50.56C193.43 50.56 191.3 52.68 191.3 55.3C191.3 57.92 193.44 60.04 196.07 60.04Z" fill="#006E58"/>
<path d="M221.55 60.04C224.19 60.04 226.32 57.92 226.32 55.3C226.32 52.68 224.18 50.56 221.55 50.56C218.92 50.56 216.78 52.68 216.78 55.3C216.78 57.92 218.92 60.04 221.55 60.04Z" fill="#F86E14"/>
<path d="M247.02 60.04C249.66 60.04 251.79 57.92 251.79 55.3C251.79 52.68 249.65 50.56 247.02 50.56C244.39 50.56 242.25 52.68 242.25 55.3C242.25 57.92 244.39 60.04 247.02 60.04Z" fill="#3578E6"/>
<path d="M259.75 60.04C262.39 60.04 264.52 57.92 264.52 55.3C264.52 52.68 262.38 50.56 259.75 50.56C257.12 50.56 254.98 52.68 254.98 55.3C254.98 57.92 257.12 60.04 259.75 60.04Z" fill="#006E58"/>
<path d="M196.07 34.76C198.71 34.76 200.85 32.64 200.85 30.02C200.85 27.4 198.71 25.28 196.07 25.28C193.43 25.28 191.3 27.4 191.3 30.02C191.3 32.64 193.44 34.76 196.07 34.76Z" fill="#202048"/>
<path opacity="0.85" d="M234.28 34.76C236.92 34.76 239.05 32.64 239.05 30.02C239.05 27.4 236.91 25.28 234.28 25.28C231.65 25.28 229.51 27.4 229.51 30.02C229.51 32.64 231.65 34.76 234.28 34.76Z" fill="#2C3461"/>
<path d="M247.02 34.76C249.66 34.76 251.79 32.64 251.79 30.02C251.79 27.4 249.65 25.28 247.02 25.28C244.39 25.28 242.25 27.4 242.25 30.02C242.25 32.64 244.39 34.76 247.02 34.76Z" fill="#02BACE"/>
<path d="M259.75 34.76C262.39 34.76 264.52 32.64 264.52 30.02C264.52 27.4 262.38 25.28 259.75 25.28C257.12 25.28 254.98 27.4 254.98 30.02C254.98 32.64 257.12 34.76 259.75 34.76Z" fill="#3578E6"/>
<path opacity="0.85" d="M285.22 34.76C287.86 34.76 289.99 32.64 289.99 30.02C289.99 27.4 287.85 25.28 285.22 25.28C282.59 25.28 280.45 27.4 280.45 30.02C280.45 32.64 282.59 34.76 285.22 34.76Z" fill="#2C3461"/>
<path d="M323.43 34.76C326.07 34.76 328.21 32.64 328.21 30.02C328.21 27.4 326.07 25.28 323.43 25.28C320.79 25.28 318.66 27.4 318.66 30.02C318.66 32.64 320.8 34.76 323.43 34.76Z" fill="#202048"/>
<path opacity="0.9" d="M106.77 60.04C109.41 60.04 111.54 57.92 111.54 55.3C111.54 52.68 109.4 50.56 106.77 50.56C104.14 50.56 101.99 52.68 101.99 55.3C101.99 57.92 104.13 60.04 106.77 60.04Z" fill="white"/>
<path opacity="0.9" d="M55.82 60.04C58.46 60.04 60.59 57.92 60.59 55.3C60.59 52.68 58.45 50.56 55.82 50.56C53.19 50.56 51.05 52.68 51.05 55.3C51.05 57.92 53.19 60.04 55.82 60.04Z" fill="white"/>
<path opacity="0.9" d="M30.35 60.04C32.99 60.04 35.12 57.92 35.12 55.3C35.12 52.68 32.98 50.56 30.35 50.56C27.72 50.56 25.58 52.68 25.58 55.3C25.58 57.92 27.72 60.04 30.35 60.04Z" fill="white"/>
<path opacity="0.9" d="M144.97 22.12C147.61 22.12 149.74 20 149.74 17.38C149.74 14.76 147.6 12.64 144.97 12.64C142.34 12.64 140.2 14.76 140.2 17.38C140.2 20 142.34 22.12 144.97 22.12Z" fill="white"/>
<path opacity="0.9" d="M157.71 34.76C160.35 34.76 162.49 32.64 162.49 30.02C162.49 27.4 160.35 25.28 157.71 25.28C155.07 25.28 152.94 27.4 152.94 30.02C152.94 32.64 155.08 34.76 157.71 34.76Z" fill="white"/>
<path opacity="0.9" d="M106.77 34.76C109.41 34.76 111.54 32.64 111.54 30.02C111.54 27.4 109.4 25.28 106.77 25.28C104.14 25.28 101.99 27.4 101.99 30.02C101.99 32.64 104.13 34.76 106.77 34.76Z" fill="white"/>
<path opacity="0.9" d="M68.56 34.76C71.2 34.76 73.33 32.64 73.33 30.02C73.33 27.4 71.19 25.28 68.56 25.28C65.93 25.28 63.79 27.4 63.79 30.02C63.79 32.64 65.93 34.76 68.56 34.76Z" fill="white"/>
<path opacity="0.9" d="M101.99 42.67V55.31C101.99 57.93 104.13 60.05 106.77 60.05C109.41 60.05 111.54 57.93 111.54 55.31V42.67C111.54 40.05 109.4 37.93 106.77 37.93C104.14 37.93 101.99 40.05 101.99 42.67Z" fill="white"/>
<path opacity="0.9" d="M152.93 42.67C152.93 45.29 155.07 47.41 157.71 47.41H170.45C173.09 47.41 175.23 45.29 175.23 42.67C175.23 40.05 173.09 37.93 170.45 37.93H157.71C155.07 37.93 152.93 40.05 152.93 42.67Z" fill="white"/>
<path opacity="0.9" d="M124.28 30.02C124.28 27.4 122.14 25.28 119.51 25.28H106.77C104.13 25.28 101.99 27.4 101.99 30.02C101.99 32.64 104.13 34.76 106.77 34.76H119.51C122.15 34.76 124.28 32.64 124.28 30.02Z" fill="white"/>
<path opacity="0.9" d="M51.05 17.38V30.02C51.05 32.64 53.19 34.76 55.82 34.76C58.45 34.76 60.59 32.64 60.59 30.02V17.38C60.59 14.76 58.45 12.64 55.82 12.64C53.19 12.64 51.05 14.76 51.05 17.38Z" fill="white"/>
<path opacity="0.9" d="M152.93 17.38C152.93 20 155.07 22.12 157.71 22.12H170.45C173.09 22.12 175.23 20 175.23 17.38C175.23 14.76 173.09 12.64 170.45 12.64H157.71C155.07 12.64 152.93 14.76 152.93 17.38Z" fill="white"/>
<path opacity="0.85" d="M183.18 47.41C185.82 47.41 187.95 45.29 187.95 42.67C187.95 40.05 185.81 37.93 183.18 37.93C180.55 37.93 178.41 40.05 178.41 42.67C178.41 45.29 180.55 47.41 183.18 47.41Z" fill="#2C3461"/>
<path d="M170.44 47.41C173.08 47.41 175.22 45.29 175.22 42.67C175.22 40.05 173.08 37.93 170.44 37.93C167.8 37.93 165.67 40.05 165.67 42.67C165.67 45.29 167.81 47.41 170.44 47.41Z" fill="#FBBD00"/>
<path opacity="0.85" d="M157.71 47.41C160.35 47.41 162.49 45.29 162.49 42.67C162.49 40.05 160.35 37.93 157.71 37.93C155.07 37.93 152.94 40.05 152.94 42.67C152.94 45.29 155.08 47.41 157.71 47.41Z" fill="#2C3461"/>
<path opacity="0.85" d="M132.24 47.41C134.88 47.41 137.01 45.29 137.01 42.67C137.01 40.05 134.87 37.93 132.24 37.93C129.61 37.93 127.47 40.05 127.47 42.67C127.47 45.29 129.61 47.41 132.24 47.41Z" fill="#2C3461"/>
<path d="M119.5 47.41C122.14 47.41 124.27 45.29 124.27 42.67C124.27 40.05 122.13 37.93 119.5 37.93C116.87 37.93 114.73 40.05 114.73 42.67C114.73 45.29 116.87 47.41 119.5 47.41Z" fill="#3578E6"/>
<path d="M106.77 47.41C109.41 47.41 111.54 45.29 111.54 42.67C111.54 40.05 109.4 37.93 106.77 37.93C104.14 37.93 101.99 40.05 101.99 42.67C101.99 45.29 104.13 47.41 106.77 47.41Z" fill="#202048"/>
<path opacity="0.85" d="M183.18 60.04C185.82 60.04 187.95 57.92 187.95 55.3C187.95 52.68 185.81 50.56 183.18 50.56C180.55 50.56 178.41 52.68 178.41 55.3C178.41 57.92 180.55 60.04 183.18 60.04Z" fill="#2C3461"/>
<path opacity="0.85" d="M132.24 60.04C134.88 60.04 137.01 57.92 137.01 55.3C137.01 52.68 134.87 50.56 132.24 50.56C129.61 50.56 127.47 52.68 127.47 55.3C127.47 57.92 129.61 60.04 132.24 60.04Z" fill="#2C3461"/>
<path d="M119.5 60.04C122.14 60.04 124.27 57.92 124.27 55.3C124.27 52.68 122.13 50.56 119.5 50.56C116.87 50.56 114.73 52.68 114.73 55.3C114.73 57.92 116.87 60.04 119.5 60.04Z" fill="#795ADF"/>
<path d="M94.03 60.04C96.67 60.04 98.8 57.92 98.8 55.3C98.8 52.68 96.66 50.56 94.03 50.56C91.4 50.56 89.26 52.68 89.26 55.3C89.26 57.92 91.4 60.04 94.03 60.04Z" fill="#202048"/>
<path d="M81.3 60.04C83.94 60.04 86.08 57.92 86.08 55.3C86.08 52.68 83.94 50.56 81.3 50.56C78.66 50.56 76.53 52.68 76.53 55.3C76.53 57.92 78.67 60.04 81.3 60.04Z" fill="#202048"/>
<path d="M4.87999 60.04C7.51999 60.04 9.64999 57.92 9.64999 55.3C9.64999 52.68 7.50999 50.56 4.87999 50.56C2.24999 50.56 0.109985 52.68 0.109985 55.3C0.109985 57.92 2.24999 60.04 4.87999 60.04Z" fill="#202048"/>
<path d="M183.18 22.12C185.82 22.12 187.95 20 187.95 17.38C187.95 14.76 185.81 12.64 183.18 12.64C180.55 12.64 178.41 14.76 178.41 17.38C178.41 20 180.55 22.12 183.18 22.12Z" fill="#1DBB91"/>
<path d="M170.44 22.12C173.08 22.12 175.22 20 175.22 17.38C175.22 14.76 173.08 12.64 170.44 12.64C167.8 12.64 165.67 14.76 165.67 17.38C165.67 20 167.81 22.12 170.44 22.12Z" fill="#006E58"/>
<path d="M157.71 22.12C160.35 22.12 162.49 20 162.49 17.38C162.49 14.76 160.35 12.64 157.71 12.64C155.07 12.64 152.94 14.76 152.94 17.38C152.94 20 155.08 22.12 157.71 22.12Z" fill="#006E58"/>
<path opacity="0.85" d="M132.24 22.12C134.88 22.12 137.01 20 137.01 17.38C137.01 14.76 134.87 12.64 132.24 12.64C129.61 12.64 127.47 14.76 127.47 17.38C127.47 20 129.61 22.12 132.24 22.12Z" fill="#2C3461"/>
<path d="M119.5 22.12C122.14 22.12 124.27 20 124.27 17.38C124.27 14.76 122.13 12.64 119.5 12.64C116.87 12.64 114.73 14.76 114.73 17.38C114.73 20 116.87 22.12 119.5 22.12Z" fill="#F86E14"/>
<path d="M106.77 22.12C109.41 22.12 111.54 20 111.54 17.38C111.54 14.76 109.4 12.64 106.77 12.64C104.14 12.64 101.99 14.76 101.99 17.38C101.99 20 104.13 22.12 106.77 22.12Z" fill="#202048"/>
<path d="M89.26 17.38C89.26 20 91.4 22.12 94.03 22.12C96.66 22.12 98.8 20 98.8 17.38C98.8 14.76 96.66 12.64 94.03 12.64C91.4 12.64 89.26 14.76 89.26 17.38Z" fill="#FF35A1"/>
<path opacity="0.85" d="M55.82 22.12C58.46 22.12 60.59 20 60.59 17.38C60.59 14.76 58.45 12.64 55.82 12.64C53.19 12.64 51.05 14.76 51.05 17.38C51.05 20 53.19 22.12 55.82 22.12Z" fill="#2C3461"/>
<path d="M30.35 22.12C32.99 22.12 35.12 20 35.12 17.38C35.12 14.76 32.98 12.64 30.35 12.64C27.72 12.64 25.58 14.76 25.58 17.38C25.58 20 27.72 22.12 30.35 22.12Z" fill="#006E58"/>
<path d="M183.18 9.48C185.82 9.48 187.95 7.36 187.95 4.74C187.95 2.12 185.81 0 183.18 0C180.55 0 178.41 2.12 178.41 4.74C178.41 7.36 180.55 9.48 183.18 9.48Z" fill="#006E58"/>
<path opacity="0.85" d="M157.71 9.48C160.35 9.48 162.49 7.36 162.49 4.74C162.49 2.12 160.35 0 157.71 0C155.07 0 152.94 2.12 152.94 4.74C152.94 7.36 155.08 9.48 157.71 9.48Z" fill="#2C3461"/>
<path d="M132.24 9.48C134.88 9.48 137.01 7.36 137.01 4.74C137.01 2.12 134.87 0 132.24 0C129.61 0 127.47 2.12 127.47 4.74C127.47 7.36 129.61 9.48 132.24 9.48Z" fill="#3578E6"/>
<path d="M119.5 9.48C122.14 9.48 124.27 7.36 124.27 4.74C124.27 2.12 122.13 0 119.5 0C116.87 0 114.73 2.12 114.73 4.74C114.73 7.36 116.87 9.48 119.5 9.48Z" fill="#006E58"/>
<path d="M183.18 34.76C185.82 34.76 187.95 32.64 187.95 30.02C187.95 27.4 185.81 25.28 183.18 25.28C180.55 25.28 178.41 27.4 178.41 30.02C178.41 32.64 180.55 34.76 183.18 34.76Z" fill="#202048"/>
<path opacity="0.85" d="M144.97 34.76C147.61 34.76 149.74 32.64 149.74 30.02C149.74 27.4 147.6 25.28 144.97 25.28C142.34 25.28 140.2 27.4 140.2 30.02C140.2 32.64 142.34 34.76 144.97 34.76Z" fill="#2C3461"/>
<path d="M132.24 34.76C134.88 34.76 137.01 32.64 137.01 30.02C137.01 27.4 134.87 25.28 132.24 25.28C129.61 25.28 127.47 27.4 127.47 30.02C127.47 32.64 129.61 34.76 132.24 34.76Z" fill="#02BACE"/>
<path d="M119.5 34.76C122.14 34.76 124.27 32.64 124.27 30.02C124.27 27.4 122.13 25.28 119.5 25.28C116.87 25.28 114.73 27.4 114.73 30.02C114.73 32.64 116.87 34.76 119.5 34.76Z" fill="#3578E6"/>
<path opacity="0.85" d="M94.03 34.76C96.67 34.76 98.8 32.64 98.8 30.02C98.8 27.4 96.66 25.28 94.03 25.28C91.4 25.28 89.26 27.4 89.26 30.02C89.26 32.64 91.4 34.76 94.03 34.76Z" fill="#2C3461"/>
<path d="M55.82 34.76C58.46 34.76 60.59 32.64 60.59 30.02C60.59 27.4 58.45 25.28 55.82 25.28C53.19 25.28 51.05 27.4 51.05 30.02C51.05 32.64 53.19 34.76 55.82 34.76Z" fill="#202048"/>
</g>
</g>
<defs>
<clipPath id="clip0_12_2305">
<rect width="379" height="60" fill="white"/>
</clipPath>
</defs>
</svg>
