<svg width="380" height="60" viewBox="0 0 380 60" fill="none" xmlns="http://www.w3.org/2000/svg">
<g clip-path="url(#clip0_12_1993)">
<mask id="mask0_12_1993" style="mask-type:luminance" maskUnits="userSpaceOnUse" x="0" y="0" width="380" height="60">
<path d="M380 0H0V60H380V0Z" fill="white"/>
</mask>
<g mask="url(#mask0_12_1993)">
<path d="M395 0H0V60H395V0Z" fill="white"/>
</g>
<path opacity="0.9" d="M102.36 42.67V55.31C102.36 57.93 104.5 60.05 107.14 60.05C109.78 60.05 111.91 57.93 111.91 55.31V42.67C111.91 40.05 109.77 37.93 107.14 37.93C104.51 37.93 102.36 40.05 102.36 42.67Z" fill="#7DCCA1"/>
<path opacity="0.9" d="M328.58 42.67V30.03C328.58 27.41 326.44 25.29 323.81 25.29C321.18 25.29 319.04 27.41 319.04 30.03V42.67C319.04 45.29 321.18 47.41 323.81 47.41C326.44 47.41 328.58 45.29 328.58 42.67Z" fill="#7DCCA1"/>
<path opacity="0.9" d="M277.64 17.38V4.74C277.64 2.12 275.5 0 272.86 0C270.22 0 268.09 2.12 268.09 4.74V17.38C268.09 20 270.23 22.12 272.86 22.12C275.49 22.12 277.64 20 277.64 17.38Z" fill="#7DCCA1"/>
<path opacity="0.9" d="M226.7 42.67C226.7 40.05 224.56 37.93 221.93 37.93H209.19C206.55 37.93 204.42 40.05 204.42 42.67C204.42 45.29 206.56 47.41 209.19 47.41H221.93C224.57 47.41 226.7 45.29 226.7 42.67Z" fill="#7DCCA1"/>
<path opacity="0.9" d="M255.35 30.02C255.35 32.64 257.49 34.76 260.12 34.76H272.86C275.5 34.76 277.63 32.64 277.63 30.02C277.63 27.4 275.49 25.28 272.86 25.28H260.12C257.48 25.28 255.35 27.4 255.35 30.02Z" fill="#7DCCA1"/>
<path opacity="0.9" d="M226.7 17.38C226.7 14.76 224.56 12.64 221.93 12.64H209.19C206.55 12.64 204.42 14.76 204.42 17.38C204.42 20 206.56 22.12 209.19 22.12H221.93C224.57 22.12 226.7 20 226.7 17.38Z" fill="#7DCCA1"/>
<path d="M272.86 9.48C275.5 9.48 277.64 7.36 277.64 4.74C277.64 2.12 275.5 0 272.86 0C270.22 0 268.09 2.12 268.09 4.74C268.09 7.36 270.23 9.48 272.86 9.48Z" fill="#FBBD00"/>
<path opacity="0.9" d="M323.8 9.48C326.44 9.48 328.58 7.36 328.58 4.74C328.58 2.12 326.44 0 323.8 0C321.16 0 319.03 2.12 319.03 4.74C319.03 7.36 321.17 9.48 323.8 9.48Z" fill="#006E58"/>
<path opacity="0.9" d="M349.28 9.48C351.92 9.48 354.05 7.36 354.05 4.74C354.05 2.12 351.91 0 349.28 0C346.65 0 344.51 2.12 344.51 4.74C344.51 7.36 346.65 9.48 349.28 9.48Z" fill="#795ADF"/>
<path opacity="0.9" d="M234.65 47.41C237.29 47.41 239.42 45.29 239.42 42.67C239.42 40.05 237.28 37.93 234.65 37.93C232.02 37.93 229.88 40.05 229.88 42.67C229.88 45.29 232.02 47.41 234.65 47.41Z" fill="#795ADF"/>
<path opacity="0.9" d="M221.92 34.76C224.56 34.76 226.69 32.64 226.69 30.02C226.69 27.4 224.55 25.28 221.92 25.28C219.29 25.28 217.15 27.4 217.15 30.02C217.15 32.64 219.29 34.76 221.92 34.76Z" fill="white"/>
<path d="M272.86 34.76C275.5 34.76 277.64 32.64 277.64 30.02C277.64 27.4 275.5 25.28 272.86 25.28C270.22 25.28 268.09 27.4 268.09 30.02C268.09 32.64 270.23 34.76 272.86 34.76Z" fill="#FBBD00"/>
<path opacity="0.9" d="M311.07 34.76C313.71 34.76 315.84 32.64 315.84 30.02C315.84 27.4 313.7 25.28 311.07 25.28C308.44 25.28 306.29 27.4 306.29 30.02C306.29 32.64 308.43 34.76 311.07 34.76Z" fill="#1DBB91"/>
<path opacity="0.85" d="M196.45 22.12C199.09 22.12 201.23 20 201.23 17.38C201.23 14.76 199.09 12.64 196.45 12.64C193.81 12.64 191.68 14.76 191.68 17.38C191.68 20 193.82 22.12 196.45 22.12Z" fill="#C1C6DB"/>
<path d="M209.18 22.12C211.82 22.12 213.95 20 213.95 17.38C213.95 14.76 211.81 12.64 209.18 12.64C206.55 12.64 204.41 14.76 204.41 17.38C204.41 20 206.55 22.12 209.18 22.12Z" fill="#FBBD00"/>
<path opacity="0.85" d="M221.92 22.12C224.56 22.12 226.69 20 226.69 17.38C226.69 14.76 224.55 12.64 221.92 12.64C219.29 12.64 217.15 14.76 217.15 17.38C217.15 20 219.29 22.12 221.92 22.12Z" fill="#2C3461"/>
<path opacity="0.85" d="M247.39 22.12C250.03 22.12 252.16 20 252.16 17.38C252.16 14.76 250.02 12.64 247.39 12.64C244.76 12.64 242.62 14.76 242.62 17.38C242.62 20 244.76 22.12 247.39 22.12Z" fill="#263059"/>
<path d="M260.13 22.12C262.77 22.12 264.9 20 264.9 17.38C264.9 14.76 262.76 12.64 260.13 12.64C257.5 12.64 255.36 14.76 255.36 17.38C255.36 20 257.5 22.12 260.13 22.12Z" fill="#3578E6"/>
<path d="M272.86 22.12C275.5 22.12 277.64 20 277.64 17.38C277.64 14.76 275.5 12.64 272.86 12.64C270.22 12.64 268.09 14.76 268.09 17.38C268.09 20 270.23 22.12 272.86 22.12Z" fill="#202048"/>
<path opacity="0.85" d="M196.45 9.48C199.09 9.48 201.23 7.36 201.23 4.74C201.23 2.12 199.09 0 196.45 0C193.81 0 191.68 2.12 191.68 4.74C191.68 7.36 193.82 9.48 196.45 9.48Z" fill="#676C8D"/>
<path opacity="0.85" d="M247.39 9.48C250.03 9.48 252.16 7.36 252.16 4.74C252.16 2.12 250.02 0 247.39 0C244.76 0 242.62 2.12 242.62 4.74C242.62 7.36 244.76 9.48 247.39 9.48Z" fill="#C1C6DB"/>
<path d="M260.13 9.48C262.77 9.48 264.9 7.36 264.9 4.74C264.9 2.12 262.76 0 260.13 0C257.5 0 255.36 2.12 255.36 4.74C255.36 7.36 257.5 9.48 260.13 9.48Z" fill="#795ADF"/>
<path d="M285.6 9.48C288.24 9.48 290.37 7.36 290.37 4.74C290.37 2.12 288.23 0 285.6 0C282.97 0 280.83 2.12 280.83 4.74C280.83 7.36 282.97 9.48 285.6 9.48Z" fill="#202048"/>
<path d="M298.33 9.48C300.97 9.48 303.1 7.36 303.1 4.74C303.1 2.12 300.96 0 298.33 0C295.7 0 293.56 2.12 293.56 4.74C293.56 7.36 295.7 9.48 298.33 9.48Z" fill="#F86E14"/>
<path d="M374.75 9.48C377.39 9.48 379.52 7.36 379.52 4.74C379.52 2.12 377.38 0 374.75 0C372.12 0 369.97 2.12 369.97 4.74C369.97 7.36 372.11 9.48 374.75 9.48Z" fill="#202048"/>
<path d="M196.45 47.41C199.09 47.41 201.23 45.29 201.23 42.67C201.23 40.05 199.09 37.93 196.45 37.93C193.81 37.93 191.68 40.05 191.68 42.67C191.68 45.29 193.82 47.41 196.45 47.41Z" fill="#1DBB91"/>
<path d="M209.18 47.41C211.82 47.41 213.95 45.29 213.95 42.67C213.95 40.05 211.81 37.93 209.18 37.93C206.55 37.93 204.41 40.05 204.41 42.67C204.41 45.29 206.55 47.41 209.18 47.41Z" fill="#006E58"/>
<path d="M221.92 47.41C224.56 47.41 226.69 45.29 226.69 42.67C226.69 40.05 224.55 37.93 221.92 37.93C219.29 37.93 217.15 40.05 217.15 42.67C217.15 45.29 219.29 47.41 221.92 47.41Z" fill="#006E58"/>
<path opacity="0.85" d="M247.39 47.41C250.03 47.41 252.16 45.29 252.16 42.67C252.16 40.05 250.02 37.93 247.39 37.93C244.76 37.93 242.62 40.05 242.62 42.67C242.62 45.29 244.76 47.41 247.39 47.41Z" fill="#2C3461"/>
<path d="M260.13 47.41C262.77 47.41 264.9 45.29 264.9 42.67C264.9 40.05 262.76 37.93 260.13 37.93C257.5 37.93 255.36 40.05 255.36 42.67C255.36 45.29 257.5 47.41 260.13 47.41Z" fill="#202048"/>
<path d="M272.86 47.41C275.5 47.41 277.64 45.29 277.64 42.67C277.64 40.05 275.5 37.93 272.86 37.93C270.22 37.93 268.09 40.05 268.09 42.67C268.09 45.29 270.23 47.41 272.86 47.41Z" fill="#202048"/>
<path d="M285.6 47.41C288.24 47.41 290.37 45.29 290.37 42.67C290.37 40.05 288.23 37.93 285.6 37.93C282.97 37.93 280.83 40.05 280.83 42.67C280.83 45.29 282.97 47.41 285.6 47.41Z" fill="#FF35A1"/>
<path opacity="0.85" d="M323.8 47.41C326.44 47.41 328.58 45.29 328.58 42.67C328.58 40.05 326.44 37.93 323.8 37.93C321.16 37.93 319.03 40.05 319.03 42.67C319.03 45.29 321.17 47.41 323.8 47.41Z" fill="#2C3461"/>
<path d="M349.28 47.41C351.92 47.41 354.05 45.29 354.05 42.67C354.05 40.05 351.91 37.93 349.28 37.93C346.65 37.93 344.51 40.05 344.51 42.67C344.51 45.29 346.65 47.41 349.28 47.41Z" fill="#006E58"/>
<path d="M196.45 60.04C199.09 60.04 201.23 57.92 201.23 55.3C201.23 52.68 199.09 50.56 196.45 50.56C193.81 50.56 191.68 52.68 191.68 55.3C191.68 57.92 193.82 60.04 196.45 60.04Z" fill="#006E58"/>
<path d="M221.92 60.04C224.56 60.04 226.69 57.92 226.69 55.3C226.69 52.68 224.55 50.56 221.92 50.56C219.29 50.56 217.15 52.68 217.15 55.3C217.15 57.92 219.29 60.04 221.92 60.04Z" fill="#F86E14"/>
<path d="M247.39 60.04C250.03 60.04 252.16 57.92 252.16 55.3C252.16 52.68 250.02 50.56 247.39 50.56C244.76 50.56 242.62 52.68 242.62 55.3C242.62 57.92 244.76 60.04 247.39 60.04Z" fill="#3578E6"/>
<path d="M260.13 60.04C262.77 60.04 264.9 57.92 264.9 55.3C264.9 52.68 262.76 50.56 260.13 50.56C257.5 50.56 255.36 52.68 255.36 55.3C255.36 57.92 257.5 60.04 260.13 60.04Z" fill="#006E58"/>
<path d="M196.45 34.76C199.09 34.76 201.23 32.64 201.23 30.02C201.23 27.4 199.09 25.28 196.45 25.28C193.81 25.28 191.68 27.4 191.68 30.02C191.68 32.64 193.82 34.76 196.45 34.76Z" fill="#202048"/>
<path opacity="0.85" d="M234.65 34.76C237.29 34.76 239.42 32.64 239.42 30.02C239.42 27.4 237.28 25.28 234.65 25.28C232.02 25.28 229.88 27.4 229.88 30.02C229.88 32.64 232.02 34.76 234.65 34.76Z" fill="#C1C6DB"/>
<path d="M247.39 34.76C250.03 34.76 252.16 32.64 252.16 30.02C252.16 27.4 250.02 25.28 247.39 25.28C244.76 25.28 242.62 27.4 242.62 30.02C242.62 32.64 244.76 34.76 247.39 34.76Z" fill="#02BACE"/>
<path d="M260.13 34.76C262.77 34.76 264.9 32.64 264.9 30.02C264.9 27.4 262.76 25.28 260.13 25.28C257.5 25.28 255.36 27.4 255.36 30.02C255.36 32.64 257.5 34.76 260.13 34.76Z" fill="#3578E6"/>
<path opacity="0.85" d="M285.6 34.76C288.24 34.76 290.37 32.64 290.37 30.02C290.37 27.4 288.23 25.28 285.6 25.28C282.97 25.28 280.83 27.4 280.83 30.02C280.83 32.64 282.97 34.76 285.6 34.76Z" fill="#474F72"/>
<path d="M323.8 34.76C326.44 34.76 328.58 32.64 328.58 30.02C328.58 27.4 326.44 25.28 323.8 25.28C321.16 25.28 319.03 27.4 319.03 30.02C319.03 32.64 321.17 34.76 323.8 34.76Z" fill="#202048"/>
<path opacity="0.9" d="M107.14 60.04C109.78 60.04 111.91 57.92 111.91 55.3C111.91 52.68 109.77 50.56 107.14 50.56C104.51 50.56 102.36 52.68 102.36 55.3C102.36 57.92 104.5 60.04 107.14 60.04Z" fill="#F86E14"/>
<path opacity="0.9" d="M56.2 60.04C58.84 60.04 60.97 57.92 60.97 55.3C60.97 52.68 58.83 50.56 56.2 50.56C53.57 50.56 51.43 52.68 51.43 55.3C51.43 57.92 53.57 60.04 56.2 60.04Z" fill="#8AD1AA"/>
<path opacity="0.9" d="M30.73 60.04C33.37 60.04 35.5 57.92 35.5 55.3C35.5 52.68 33.36 50.56 30.73 50.56C28.1 50.56 25.96 52.68 25.96 55.3C25.96 57.92 28.1 60.04 30.73 60.04Z" fill="#3578E6"/>
<path opacity="0.9" d="M145.35 22.12C147.99 22.12 150.12 20 150.12 17.38C150.12 14.76 147.98 12.64 145.35 12.64C142.72 12.64 140.58 14.76 140.58 17.38C140.58 20 142.72 22.12 145.35 22.12Z" fill="white"/>
<path opacity="0.9" d="M158.08 34.76C160.72 34.76 162.86 32.64 162.86 30.02C162.86 27.4 160.72 25.28 158.08 25.28C155.44 25.28 153.31 27.4 153.31 30.02C153.31 32.64 155.45 34.76 158.08 34.76Z" fill="#FF35A1"/>
<path opacity="0.9" d="M68.93 34.76C71.57 34.76 73.7 32.64 73.7 30.02C73.7 27.4 71.56 25.28 68.93 25.28C66.3 25.28 64.16 27.4 64.16 30.02C64.16 32.64 66.3 34.76 68.93 34.76Z" fill="#9881E6"/>
<path opacity="0.9" d="M153.3 42.67C153.3 45.29 155.44 47.41 158.08 47.41H170.82C173.46 47.41 175.6 45.29 175.6 42.67C175.6 40.05 173.46 37.93 170.82 37.93H158.08C155.44 37.93 153.3 40.05 153.3 42.67Z" fill="#7DCCA1"/>
<path opacity="0.9" d="M124.65 30.02C124.65 27.4 122.51 25.28 119.88 25.28H107.14C104.5 25.28 102.36 27.4 102.36 30.02C102.36 32.64 104.5 34.76 107.14 34.76H119.88C122.52 34.76 124.65 32.64 124.65 30.02Z" fill="#7DCCA1"/>
<path opacity="0.9" d="M51.42 17.38V30.02C51.42 32.64 53.56 34.76 56.19 34.76C58.82 34.76 60.96 32.64 60.96 30.02V17.38C60.96 14.76 58.82 12.64 56.19 12.64C53.56 12.64 51.42 14.76 51.42 17.38Z" fill="#7DCCA1"/>
<path opacity="0.9" d="M153.3 17.38C153.3 20 155.44 22.12 158.08 22.12H170.82C173.46 22.12 175.6 20 175.6 17.38C175.6 14.76 173.46 12.64 170.82 12.64H158.08C155.44 12.64 153.3 14.76 153.3 17.38Z" fill="#7DCCA1"/>
<path opacity="0.85" d="M183.55 47.41C186.19 47.41 188.32 45.29 188.32 42.67C188.32 40.05 186.18 37.93 183.55 37.93C180.92 37.93 178.78 40.05 178.78 42.67C178.78 45.29 180.92 47.41 183.55 47.41Z" fill="#4C5279"/>
<path d="M170.81 47.41C173.45 47.41 175.59 45.29 175.59 42.67C175.59 40.05 173.45 37.93 170.81 37.93C168.17 37.93 166.04 40.05 166.04 42.67C166.04 45.29 168.18 47.41 170.81 47.41Z" fill="#FBBD00"/>
<path opacity="0.85" d="M158.08 47.41C160.72 47.41 162.86 45.29 162.86 42.67C162.86 40.05 160.72 37.93 158.08 37.93C155.44 37.93 153.31 40.05 153.31 42.67C153.31 45.29 155.45 47.41 158.08 47.41Z" fill="#2C3461"/>
<path opacity="0.85" d="M132.61 47.41C135.25 47.41 137.38 45.29 137.38 42.67C137.38 40.05 135.24 37.93 132.61 37.93C129.98 37.93 127.84 40.05 127.84 42.67C127.84 45.29 129.98 47.41 132.61 47.41Z" fill="#C1C6DB"/>
<path d="M119.88 47.41C122.52 47.41 124.65 45.29 124.65 42.67C124.65 40.05 122.51 37.93 119.88 37.93C117.25 37.93 115.11 40.05 115.11 42.67C115.11 45.29 117.25 47.41 119.88 47.41Z" fill="#3578E6"/>
<path d="M107.14 47.41C109.78 47.41 111.91 45.29 111.91 42.67C111.91 40.05 109.77 37.93 107.14 37.93C104.51 37.93 102.36 40.05 102.36 42.67C102.36 45.29 104.5 47.41 107.14 47.41Z" fill="#202048"/>
<path opacity="0.85" d="M183.55 60.04C186.19 60.04 188.32 57.92 188.32 55.3C188.32 52.68 186.18 50.56 183.55 50.56C180.92 50.56 178.78 52.68 178.78 55.3C178.78 57.92 180.92 60.04 183.55 60.04Z" fill="#4C5279"/>
<path opacity="0.85" d="M132.61 60.04C135.25 60.04 137.38 57.92 137.38 55.3C137.38 52.68 135.24 50.56 132.61 50.56C129.98 50.56 127.84 52.68 127.84 55.3C127.84 57.92 129.98 60.04 132.61 60.04Z" fill="#C1C6DB"/>
<path d="M119.88 60.04C122.52 60.04 124.65 57.92 124.65 55.3C124.65 52.68 122.51 50.56 119.88 50.56C117.25 50.56 115.11 52.68 115.11 55.3C115.11 57.92 117.25 60.04 119.88 60.04Z" fill="#795ADF"/>
<path d="M94.4 60.04C97.04 60.04 99.17 57.92 99.17 55.3C99.17 52.68 97.03 50.56 94.4 50.56C91.77 50.56 89.63 52.68 89.63 55.3C89.63 57.92 91.77 60.04 94.4 60.04Z" fill="#202048"/>
<path d="M81.67 60.04C84.31 60.04 86.45 57.92 86.45 55.3C86.45 52.68 84.31 50.56 81.67 50.56C79.03 50.56 76.9 52.68 76.9 55.3C76.9 57.92 79.04 60.04 81.67 60.04Z" fill="#202048"/>
<path d="M5.24998 60.04C7.88998 60.04 10.02 57.92 10.02 55.3C10.02 52.68 7.87998 50.56 5.24998 50.56C2.61998 50.56 0.47998 52.68 0.47998 55.3C0.47998 57.92 2.61998 60.04 5.24998 60.04Z" fill="#202048"/>
<path d="M183.55 22.12C186.19 22.12 188.32 20 188.32 17.38C188.32 14.76 186.18 12.64 183.55 12.64C180.92 12.64 178.78 14.76 178.78 17.38C178.78 20 180.92 22.12 183.55 22.12Z" fill="#1DBB91"/>
<path d="M170.81 22.12C173.45 22.12 175.59 20 175.59 17.38C175.59 14.76 173.45 12.64 170.81 12.64C168.17 12.64 166.04 14.76 166.04 17.38C166.04 20 168.18 22.12 170.81 22.12Z" fill="#006E58"/>
<path d="M158.08 22.12C160.72 22.12 162.86 20 162.86 17.38C162.86 14.76 160.72 12.64 158.08 12.64C155.44 12.64 153.31 14.76 153.31 17.38C153.31 20 155.45 22.12 158.08 22.12Z" fill="#006E58"/>
<path opacity="0.85" d="M132.61 22.12C135.25 22.12 137.38 20 137.38 17.38C137.38 14.76 135.24 12.64 132.61 12.64C129.98 12.64 127.84 14.76 127.84 17.38C127.84 20 129.98 22.12 132.61 22.12Z" fill="#2C3461"/>
<path d="M119.88 22.12C122.52 22.12 124.65 20 124.65 17.38C124.65 14.76 122.51 12.64 119.88 12.64C117.25 12.64 115.11 14.76 115.11 17.38C115.11 20 117.25 22.12 119.88 22.12Z" fill="#F86E14"/>
<path d="M107.14 22.12C109.78 22.12 111.91 20 111.91 17.38C111.91 14.76 109.77 12.64 107.14 12.64C104.51 12.64 102.36 14.76 102.36 17.38C102.36 20 104.5 22.12 107.14 22.12Z" fill="#202048"/>
<path d="M89.63 17.38C89.63 20 91.77 22.12 94.4 22.12C97.03 22.12 99.17 20 99.17 17.38C99.17 14.76 97.03 12.64 94.4 12.64C91.77 12.64 89.63 14.76 89.63 17.38Z" fill="#FF35A1"/>
<path opacity="0.85" d="M56.2 22.12C58.84 22.12 60.97 20 60.97 17.38C60.97 14.76 58.83 12.64 56.2 12.64C53.57 12.64 51.43 14.76 51.43 17.38C51.43 20 53.57 22.12 56.2 22.12Z" fill="#2C3461"/>
<path d="M30.73 22.12C33.37 22.12 35.5 20 35.5 17.38C35.5 14.76 33.36 12.64 30.73 12.64C28.1 12.64 25.96 14.76 25.96 17.38C25.96 20 28.1 22.12 30.73 22.12Z" fill="#006E58"/>
<path d="M183.55 9.48C186.19 9.48 188.32 7.36 188.32 4.74C188.32 2.12 186.18 0 183.55 0C180.92 0 178.78 2.12 178.78 4.74C178.78 7.36 180.92 9.48 183.55 9.48Z" fill="#006E58"/>
<path opacity="0.85" d="M158.08 9.48C160.72 9.48 162.86 7.36 162.86 4.74C162.86 2.12 160.72 0 158.08 0C155.44 0 153.31 2.12 153.31 4.74C153.31 7.36 155.45 9.48 158.08 9.48Z" fill="#866BE2"/>
<path d="M132.61 9.48C135.25 9.48 137.38 7.36 137.38 4.74C137.38 2.12 135.24 0 132.61 0C129.98 0 127.84 2.12 127.84 4.74C127.84 7.36 129.98 9.48 132.61 9.48Z" fill="#3578E6"/>
<path d="M119.88 9.48C122.52 9.48 124.65 7.36 124.65 4.74C124.65 2.12 122.51 0 119.88 0C117.25 0 115.11 2.12 115.11 4.74C115.11 7.36 117.25 9.48 119.88 9.48Z" fill="#006E58"/>
<path d="M183.55 34.76C186.19 34.76 188.32 32.64 188.32 30.02C188.32 27.4 186.18 25.28 183.55 25.28C180.92 25.28 178.78 27.4 178.78 30.02C178.78 32.64 180.92 34.76 183.55 34.76Z" fill="#202048"/>
<path opacity="0.85" d="M145.35 34.76C147.99 34.76 150.12 32.64 150.12 30.02C150.12 27.4 147.98 25.28 145.35 25.28C142.72 25.28 140.58 27.4 140.58 30.02C140.58 32.64 142.72 34.76 145.35 34.76Z" fill="#2C3461"/>
<path d="M132.61 34.76C135.25 34.76 137.38 32.64 137.38 30.02C137.38 27.4 135.24 25.28 132.61 25.28C129.98 25.28 127.84 27.4 127.84 30.02C127.84 32.64 129.98 34.76 132.61 34.76Z" fill="#02BACE"/>
<path d="M119.88 34.76C122.52 34.76 124.65 32.64 124.65 30.02C124.65 27.4 122.51 25.28 119.88 25.28C117.25 25.28 115.11 27.4 115.11 30.02C115.11 32.64 117.25 34.76 119.88 34.76Z" fill="#3578E6"/>
<path opacity="0.85" d="M94.4 34.76C97.04 34.76 99.17 32.64 99.17 30.02C99.17 27.4 97.03 25.28 94.4 25.28C91.77 25.28 89.63 27.4 89.63 30.02C89.63 32.64 91.77 34.76 94.4 34.76Z" fill="#C1C6DB"/>
<path d="M56.2 34.76C58.84 34.76 60.97 32.64 60.97 30.02C60.97 27.4 58.83 25.28 56.2 25.28C53.57 25.28 51.43 27.4 51.43 30.02C51.43 32.64 53.57 34.76 56.2 34.76Z" fill="#202048"/>
<path opacity="0.9" d="M107.14 34.76C109.78 34.76 111.91 32.64 111.91 30.02C111.91 27.4 109.77 25.28 107.14 25.28C104.51 25.28 102.36 27.4 102.36 30.02C102.36 32.64 104.5 34.76 107.14 34.76Z" fill="#FBBD00"/>
</g>
<defs>
<clipPath id="clip0_12_1993">
<rect width="380" height="60" fill="white"/>
</clipPath>
</defs>
</svg>
