<?xml version="1.0" encoding="UTF-8"?><svg id="a" xmlns="http://www.w3.org/2000/svg" viewBox="0 0 398.95 160.71"><defs><style>.b{fill:#009568;}.b,.c{stroke-width:0px;}.c{fill:#d1bb4c;}</style></defs><circle class="c" cx="343.34" cy="30.91" r="6.18"/><circle class="c" cx="368.06" cy="55.63" r="6.18"/><circle class="c" cx="158.3" cy="80.35" r="6.18"/><circle class="c" cx="158.3" cy="67.99" r="6.18"/><circle class="b" cx="330.99" cy="67.99" r="6.18"/><circle class="b" cx="306.27" cy="18.54" r="6.18"/><circle class="b" cx="256.84" cy="30.91" r="6.18"/><circle class="b" cx="306.27" cy="30.91" r="6.18"/><circle class="b" cx="256.84" cy="43.27" r="6.18"/><circle class="b" cx="306.27" cy="43.27" r="6.18"/><circle class="b" cx="256.84" cy="55.63" r="6.18"/><circle class="b" cx="269.2" cy="55.63" r="6.18"/><circle class="b" cx="281.56" cy="55.63" r="6.18"/><circle class="b" cx="306.27" cy="55.63" r="6.18"/><circle class="b" cx="318.63" cy="55.63" r="6.18"/><circle class="b" cx="330.99" cy="55.63" r="6.18"/><circle class="b" cx="343.34" cy="55.63" r="6.18"/><circle class="b" cx="281.56" cy="67.99" r="6.18"/><circle class="b" cx="318.63" cy="67.99" r="6.18"/><circle class="b" cx="343.34" cy="67.99" r="6.18"/><circle class="b" cx="281.56" cy="80.36" r="6.18"/><circle class="b" cx="306.27" cy="80.36" r="6.18"/><circle class="b" cx="318.63" cy="80.36" r="6.18"/><circle class="b" cx="330.99" cy="80.36" r="6.18"/><circle class="b" cx="343.34" cy="80.36" r="6.18"/><circle class="b" cx="281.56" cy="92.72" r="6.18"/><circle class="b" cx="306.27" cy="92.72" r="6.18"/><circle class="b" cx="318.63" cy="92.72" r="6.18"/><circle class="b" cx="343.34" cy="92.72" r="6.18"/><circle class="b" cx="343.34" cy="105.08" r="6.18"/><circle class="b" cx="355.7" cy="105.08" r="6.18"/><circle class="b" cx="368.06" cy="105.08" r="6.18"/><circle class="b" cx="380.42" cy="105.08" r="6.18"/><circle class="b" cx="306.27" cy="117.44" r="6.18"/><circle class="b" cx="318.63" cy="117.44" r="6.18"/><circle class="b" cx="269.2" cy="129.81" r="6.18"/><circle class="b" cx="281.56" cy="129.81" r="6.18"/><circle class="b" cx="293.91" cy="129.81" r="6.18"/><circle class="b" cx="306.27" cy="129.81" r="6.18"/><circle class="b" cx="318.63" cy="129.81" r="6.18"/><circle class="b" cx="330.99" cy="129.81" r="6.18"/><circle class="b" cx="269.2" cy="142.17" r="6.18"/><circle class="b" cx="306.27" cy="6.18" r="6.18"/><circle class="b" cx="256.84" cy="18.54" r="6.18"/><circle class="b" cx="293.91" cy="18.54" r="6.18"/><circle class="b" cx="318.63" cy="18.54" r="6.18"/><circle class="b" cx="244.49" cy="30.91" r="6.18"/><circle class="b" cx="269.2" cy="30.91" r="6.18"/><circle class="b" cx="355.7" cy="30.91" r="6.18"/><circle class="b" cx="330.99" cy="43.27" r="6.18"/><circle class="b" cx="343.34" cy="43.27" r="6.18"/><circle class="b" cx="355.7" cy="43.27" r="6.18"/><circle class="b" cx="368.06" cy="43.27" r="6.18"/><circle class="b" cx="355.7" cy="55.63" r="6.18"/><circle class="b" cx="306.27" cy="67.99" r="6.18"/><circle class="b" cx="355.7" cy="67.99" r="6.18"/><circle class="b" cx="293.91" cy="80.36" r="6.18"/><circle class="b" cx="293.91" cy="92.72" r="6.18"/><circle class="b" cx="330.99" cy="92.72" r="6.18"/><circle class="b" cx="380.42" cy="92.72" r="6.18"/><circle class="b" cx="293.91" cy="105.08" r="6.18"/><circle class="b" cx="306.27" cy="105.08" r="6.18"/><circle class="b" cx="318.63" cy="105.08" r="6.18"/><circle class="b" cx="392.77" cy="105.08" r="6.18"/><circle class="b" cx="380.42" cy="117.44" r="6.18"/><circle class="b" cx="256.84" cy="142.17" r="6.18"/><circle class="b" cx="281.56" cy="142.17" r="6.18"/><circle class="b" cx="269.2" cy="154.53" r="6.18"/><path class="b" d="M28.98,85.86c-1.32-.2-2.64-.31-3.86-.31-9.15,0-13.32,5.29-13.32,14.54v23.59H0v-49.52h11.49v7.93c2.34-5.39,7.83-8.54,14.34-8.54,1.42,0,2.64.2,3.15.31v12Z"/><path class="b" d="M82.17,109.56c-2.64,8.64-10.47,15.66-22.37,15.66-13.42,0-25.32-9.76-25.32-26.54,0-15.66,11.59-26.03,24.1-26.03,15.25,0,24.2,10.07,24.2,25.73,0,1.93-.2,3.56-.3,3.76h-36.2c.3,7.52,6.2,12.91,13.52,12.91s10.78-3.76,12.41-8.64l9.97,3.15ZM70.88,93.49c-.2-5.8-4.07-10.98-12.2-10.98-7.42,0-11.69,5.69-12.1,10.98h24.3Z"/><path class="b" d="M105.86,123.69h-11.8v-49.52h11.49v6.61c3.25-5.69,9.15-8.03,14.64-8.03,12.1,0,17.9,8.75,17.9,19.63v31.32h-11.8v-29.29c0-6.1-2.75-10.98-10.17-10.98-6.71,0-10.27,5.19-10.27,11.69v28.57Z"/><path class="b" d="M178.47,95.12l20.74,28.57h-14.44l-14.54-20.24-6.1,6.41v13.83h-11.69v-18.73l30.71-30.79h15.66l-20.34,20.95Z"/><path class="b" d="M225.45,125.12c-11.8,0-18.71-8.75-18.71-19.73v-31.22h11.8v29.08c0,6.1,2.85,11.29,9.97,11.29s10.37-4.58,10.37-11.08v-29.29h11.8v40.47c0,4.07.31,7.22.51,9.05h-11.29c-.2-1.12-.41-3.46-.41-5.49-2.44,4.47-8.24,6.91-14.03,6.91Z"/></svg>