<svg width="164" height="26" viewBox="0 0 164 26" fill="none" xmlns="http://www.w3.org/2000/svg">
<g clip-path="url(#clip0_1_46652)">
<path d="M65.4855 7.29358C65.4855 8.63643 64.3836 9.7248 63.0241 9.7248C61.6646 9.7248 60.5628 8.63643 60.5628 7.29358C60.5628 5.95074 61.6646 4.86237 63.0241 4.86237C64.3836 4.86237 65.4855 5.95074 65.4855 7.29358Z" fill="white"/>
<path d="M65.4855 2.43122C65.4855 3.77406 64.3836 4.86243 63.0241 4.86243C61.6646 4.86243 60.5628 3.77406 60.5628 2.43122C60.5628 1.08837 61.6646 0 63.0241 0C64.3836 0 65.4855 1.08837 65.4855 2.43122Z" fill="white"/>
<path d="M11.5379 9.46257C11.0107 9.38427 10.4836 9.34121 10 9.34121C6.35751 9.34121 4.69679 11.4201 4.69679 15.061V24.3396H0V4.86244H4.57392V7.9827C5.50535 5.86468 7.69322 4.62363 10.2814 4.62363C10.8482 4.62363 11.3357 4.70193 11.5379 4.74499V9.46257Z" fill="white"/>
<path d="M28.2203 12.4614C28.141 10.1828 26.5992 8.14311 23.361 8.14311C20.4042 8.14311 18.7038 10.3825 18.5413 12.4614H28.2163H28.2203ZM32.7149 18.7763C31.6606 22.1745 28.5453 24.9346 23.8088 24.9346C18.466 24.9346 13.7296 21.0939 13.7296 14.4972C13.7296 8.33886 18.3431 4.25943 23.3253 4.25943C29.3974 4.25943 32.9606 8.2175 32.9606 14.3758C32.9606 15.1353 32.8814 15.7735 32.8378 15.8557H18.4264C18.5492 18.8154 20.8956 20.9334 23.8128 20.9334C26.73 20.9334 28.1053 19.4536 28.7514 17.5352L32.7189 18.7763" fill="white"/>
<path d="M42.1483 24.3356H37.4515V4.86243H42.0254V7.46199C43.3215 5.22261 45.6679 4.30258 47.8558 4.30258C52.6754 4.30258 54.9822 7.74387 54.9822 12.023V24.3396H50.2854V12.8216C50.2854 10.4217 49.1915 8.50338 46.2386 8.50338C43.5672 8.50338 42.1483 10.5431 42.1483 13.1035V24.3396" fill="white"/>
<path d="M71.0542 13.0996L79.3142 24.3357H73.5671L67.7763 16.3765L65.3467 18.8938V24.3317H60.6895V16.9676L72.9171 4.85852H79.1517L71.0542 13.0957" fill="white"/>
<path d="M89.7582 24.8954C85.0614 24.8954 82.3067 21.4581 82.3067 17.1359V4.86237H87.0035V16.2981C87.0035 18.698 88.1371 20.7377 90.971 20.7377C93.8049 20.7377 95.101 18.9368 95.101 16.3803V4.86237H99.7978V20.7769C99.7978 22.3781 99.9207 23.6152 100 24.3356H95.5053C95.426 23.8971 95.3428 22.9771 95.3428 22.1784C94.3717 23.9363 92.065 24.8993 89.7542 24.8993" fill="white"/>
<path d="M118.475 25.4694V22.0939L126.459 14.7959C127.136 14.1469 127.707 13.5633 128.174 13.0449C128.636 12.5265 128.988 12.0163 129.231 11.5143C129.471 11.0122 129.591 10.4694 129.591 9.88571C129.591 9.23673 129.442 8.67755 129.14 8.20408C128.839 7.73061 128.43 7.36735 127.913 7.1102C127.393 6.85306 126.806 6.72653 126.149 6.72653C125.492 6.72653 124.864 6.86531 124.351 7.13878C123.839 7.41224 123.446 7.80408 123.169 8.31837C122.893 8.83265 122.752 9.44082 122.752 10.1469H118.252C118.252 8.69796 118.583 7.44082 119.248 6.37143C119.913 5.30612 120.843 4.47755 122.041 3.89388C123.236 3.3102 124.616 3.01633 126.182 3.01633C127.748 3.01633 129.186 3.29796 130.38 3.85306C131.574 4.41225 132.5 5.18367 133.165 6.17143C133.831 7.15918 134.161 8.2898 134.161 9.56735C134.161 10.4041 133.996 11.2286 133.661 12.0449C133.331 12.8612 132.74 13.7633 131.893 14.7551C131.045 15.7469 129.851 16.9347 128.314 18.3184L125.041 21.4857V21.6367H134.459V25.4653H118.475V25.4694Z" fill="white"/>
<path d="M140.665 25.751C139.942 25.751 139.322 25.498 138.81 24.9878C138.298 24.4776 138.037 23.8694 138.037 23.1551C138.037 22.4408 138.293 21.8449 138.81 21.3388C139.326 20.8327 139.942 20.5837 140.665 20.5837C141.388 20.5837 141.979 20.8367 142.504 21.3388C143.029 21.8449 143.293 22.449 143.293 23.1551C143.293 23.6327 143.174 24.0653 142.926 24.4571C142.682 24.849 142.364 25.1633 141.967 25.4C141.57 25.6367 141.14 25.751 140.665 25.751Z" fill="white"/>
<path d="M154.942 25.9551C153.058 25.9469 151.438 25.4898 150.087 24.5837C148.731 23.6735 147.69 22.3592 146.967 20.6367C146.24 18.9143 145.88 16.8408 145.888 14.4204C145.888 12.0041 146.252 9.94695 146.979 8.24491C147.707 6.54287 148.744 5.24899 150.099 4.35511C151.455 3.46531 153.066 3.02042 154.942 3.02042C156.818 3.02042 158.434 3.4694 159.785 4.36327C161.14 5.25715 162.182 6.55511 162.909 8.25307C163.64 9.95103 164 12.0082 163.992 14.4245C163.992 16.8531 163.628 18.9306 162.901 20.6531C162.174 22.3755 161.136 23.6939 159.785 24.6C158.434 25.5102 156.818 25.9633 154.934 25.9633L154.942 25.9551ZM154.942 22.0735C156.227 22.0735 157.252 21.4367 158.021 20.1592C158.785 18.8816 159.165 16.9674 159.161 14.4163C159.161 12.7347 158.988 11.3388 158.64 10.2204C158.293 9.10205 157.806 8.26123 157.174 7.70205C156.541 7.13878 155.798 6.85715 154.946 6.85715C153.669 6.85715 152.649 7.4898 151.88 8.75103C151.116 10.0123 150.727 11.902 150.719 14.4163C150.719 16.1184 150.893 17.5347 151.24 18.6735C151.587 19.8082 152.079 20.6612 152.711 21.2245C153.347 21.7918 154.091 22.0735 154.946 22.0735H154.942Z" fill="white"/>
</g>
<defs>
<clipPath id="clip0_1_46652">
<rect width="164" height="26" fill="white"/>
</clipPath>
</defs>
</svg>
