<?xml version="1.0" encoding="utf-8"?>
<!-- Generator: Adobe Illustrator 28.0.0, SVG Export Plug-In . SVG Version: 6.00 Build 0)  -->
<svg version="1.1" id="Layer_1_copy" xmlns="http://www.w3.org/2000/svg" xmlns:xlink="http://www.w3.org/1999/xlink" x="0px"
	 y="0px" viewBox="0 0 812.7 1208.7" style="enable-background:new 0 0 812.7 1208.7;" xml:space="preserve">
<style type="text/css">
	.st0{fill:#01192D;}
	.st1{fill:none;stroke:#009568;stroke-width:2.25;stroke-linecap:round;stroke-miterlimit:10;stroke-dasharray:0,0,0,0,0,5;}
	.st2{fill:none;stroke:#D26A98;stroke-width:2.25;stroke-linecap:round;stroke-miterlimit:10;stroke-dasharray:0,0,0,0,0,5;}
	.st3{fill:#D26A98;}
	.st4{fill:#009568;}
	.st5{fill:#3D3D3D;}
	.st6{fill:none;stroke:#3D3D3D;stroke-width:2.25;stroke-linecap:round;stroke-miterlimit:10;stroke-dasharray:0,0,0,0,0,5;}
</style>
<rect class="st0" width="812.7" height="1208.7"/>
<line id="Linie_1118" class="st1" x1="538.5" y1="1127" x2="536" y2="1186.3"/>
<line id="Linie_1115" class="st1" x1="525.2" y1="1107.3" x2="377.3" y2="1136.2"/>
<line id="Linie_1007" class="st2" x1="364.5" y1="965.3" x2="318.1" y2="1005.3"/>
<path id="Pfad_20962" class="st3" d="M9.9,0.6c3.7,0,6.7,3,6.7,6.7c0,3.7-3,6.7-6.7,6.7s-6.7-3-6.7-6.7C3.2,3.6,6.2,0.6,9.9,0.6"/>
<path id="Pfad_20963" class="st3" d="M32,16c3.7,0,6.7,3,6.7,6.7l0,0c0,3.7-3,6.7-6.7,6.7c-3.7,0-6.7-3-6.7-6.7
	C25.4,19,28.3,16,32,16L32,16"/>
<path id="Pfad_20964" class="st3" d="M12,120.8c3.7,0,6.7,3,6.7,6.7c0,3.7-3,6.7-6.7,6.7c-3.7,0-6.7-3-6.7-6.7
	C5.4,123.8,8.3,120.8,12,120.8"/>
<path id="Pfad_20965" class="st4" d="M20.5,107.5c3.7,0,6.7,3,6.7,6.7c0,3.7-3,6.7-6.7,6.7s-6.7-3-6.7-6.7
	C13.8,110.5,16.8,107.5,20.5,107.5"/>
<path id="Pfad_20966" class="st3" d="M32,78.3c3.7,0,6.7,3,6.7,6.7c0,3.7-3,6.7-6.7,6.7s-6.7-3-6.7-6.7S28.3,78.3,32,78.3"/>
<path id="Pfad_20967" class="st3" d="M51.6,47.1c3.7,0,6.7,3,6.7,6.7c0,3.7-3,6.7-6.7,6.7s-6.7-3-6.7-6.7
	C45,50.1,47.9,47.1,51.6,47.1"/>
<path id="Pfad_20968" class="st3" d="M43.7,0.6c3.7,0,6.7,3,6.7,6.7l0,0c0,3.7-3,6.7-6.7,6.7l0,0c-3.7,0-6.7-3-6.7-6.7l0,0
	C37,3.6,40,0.6,43.7,0.6L43.7,0.6"/>
<path id="Pfad_20969" class="st3" d="M20.9,135c3.7,0,6.7,3,6.7,6.7c0,3.7-3,6.7-6.7,6.7c-3.7,0-6.7-3-6.7-6.7
	C14.2,138,17.2,135,20.9,135"/>
<path id="Pfad_20970" class="st3" d="M67.3,47.1c3.7,0,6.7,3,6.7,6.7c0,3.7-3,6.7-6.7,6.7s-6.7-3-6.7-6.7
	C60.6,50.1,63.6,47.1,67.3,47.1"/>
<path id="Pfad_20971" class="st3" d="M60.1,0.2c3.7,0,6.7,3,6.7,6.7c0,3.7-3,6.7-6.7,6.7c-3.7,0-6.7-3-6.7-6.7
	C53.4,3.2,56.4,0.2,60.1,0.2"/>
<path id="Pfad_20972" class="st3" d="M47.6,123.2c3.7,0,6.7,3,6.7,6.7l0,0c0,3.7-3,6.7-6.7,6.7c-3.7,0-6.7-3-6.7-6.7l0,0
	C40.9,126.2,43.9,123.2,47.6,123.2L47.6,123.2"/>
<path id="Pfad_20973" class="st3" d="M82.9,47.1c3.7,0,6.7,3,6.7,6.7c0,3.7-3,6.7-6.7,6.7s-6.7-3-6.7-6.7l0,0
	C76.3,50.1,79.3,47.1,82.9,47.1L82.9,47.1"/>
<path id="Pfad_20974" class="st3" d="M76.6,0.6c3.7,0,6.7,3,6.7,6.7c0,3.7-3,6.7-6.7,6.7s-6.7-3-6.7-6.7C69.9,3.6,72.9,0.6,76.6,0.6
	"/>
<path id="Pfad_20975" class="st3" d="M28.2,173.1c3.7,0,6.7,3,6.7,6.7c0,3.7-3,6.7-6.7,6.7s-6.7-3-6.7-6.7
	C21.6,176.1,24.6,173.1,28.2,173.1"/>
<path id="Pfad_20976" class="st3" d="M57.9,136.7c3.7,0,6.7,3,6.7,6.7l0,0c0,3.7-3,6.7-6.7,6.7l0,0c-3.7,0-6.7-3-6.7-6.7
	C51.2,139.7,54.2,136.7,57.9,136.7"/>
<path id="Pfad_20977" class="st3" d="M98.6,47.1c3.7,0,6.7,3,6.7,6.7c0,3.7-3,6.7-6.7,6.7s-6.7-3-6.7-6.7
	C92,50.1,94.9,47.1,98.6,47.1"/>
<path id="Pfad_20978" class="st4" d="M98,31.4c3.7,0,6.7,3,6.7,6.7c0,3.7-3,6.7-6.7,6.7s-6.7-3-6.7-6.7C91.3,34.4,94.3,31.4,98,31.4
	"/>
<path id="Pfad_20979" class="st3" d="M36.4,186.8c3.7,0,6.7,3,6.7,6.7c0,3.7-3,6.7-6.7,6.7s-6.7-3-6.7-6.7
	C29.7,189.8,32.7,186.8,36.4,186.8"/>
<path id="Pfad_20980" class="st3" d="M58,163.9c3.7,0,6.7,3,6.7,6.7l0,0c0,3.7-3,6.7-6.7,6.7s-6.7-3-6.7-6.7
	C51.3,166.9,54.3,163.9,58,163.9"/>
<path id="Pfad_20981" class="st3" d="M111.8,15.7c3.7,0,6.7,3,6.7,6.7c0,3.7-3,6.7-6.7,6.7s-6.7-3-6.7-6.7
	C105.2,18.6,108.2,15.7,111.8,15.7"/>
<path id="Pfad_20982" class="st3" d="M108.8,0.2c3.7,0,6.7,3,6.7,6.7s-3,6.7-6.7,6.7l0,0c-3.7,0-6.7-3-6.7-6.7l0,0
	C102.1,3.2,105.1,0.2,108.8,0.2"/>
<path id="Pfad_20983" class="st3" d="M19.2,219.4c3.7,0,6.7,3,6.7,6.7l0,0c0,3.7-3,6.7-6.7,6.7c-3.7,0-6.7-3-6.7-6.7
	C12.5,222.4,15.5,219.4,19.2,219.4L19.2,219.4"/>
<path id="Pfad_20984" class="st4" d="M44.5,200.6c3.7,0,6.7,3,6.7,6.7c0,3.7-3,6.7-6.7,6.7s-6.7-3-6.7-6.7
	C37.9,203.6,40.9,200.6,44.5,200.6"/>
<path id="Pfad_20985" class="st3" d="M56,189.7c3.7,0,6.7,3,6.7,6.7c0,3.7-3,6.7-6.7,6.7s-6.7-3-6.7-6.7
	C49.4,192.7,52.3,189.7,56,189.7"/>
<path id="Pfad_20986" class="st3" d="M76.3,165.6c3.7,0,6.7,3,6.7,6.7c0,3.7-3,6.7-6.7,6.7l0,0c-3.7,0-6.7-3-6.7-6.7
	C69.6,168.5,72.6,165.6,76.3,165.6"/>
<path id="Pfad_20987" class="st4" d="M99.2,124.2c3.7,0,6.7,3,6.7,6.7c0,3.7-3,6.7-6.7,6.7s-6.7-3-6.7-6.7
	C92.5,127.1,95.5,124.2,99.2,124.2"/>
<path id="Pfad_20988" class="st3" d="M104.6,109.3c3.7,0,6.7,3,6.7,6.7c0,3.7-3,6.7-6.7,6.7s-6.7-3-6.7-6.7
	C97.9,112.3,100.9,109.3,104.6,109.3"/>
<path id="Pfad_20989" class="st3" d="M127.7,15.6c3.7,0,6.7,3,6.7,6.7l0,0c0,3.7-3,6.7-6.7,6.7s-6.7-3-6.7-6.7
	C121,18.5,124,15.6,127.7,15.6L127.7,15.6"/>
<path id="Pfad_20990" class="st5" d="M27.1,233c3.7,0,6.7,3,6.7,6.7c0,3.7-3,6.7-6.7,6.7c-3.7,0-6.7-3-6.7-6.7
	C20.4,236,23.4,233,27.1,233"/>
<path id="Pfad_20991" class="st3" d="M40.2,224.1c3.7,0,6.7,3,6.7,6.7c0,3.7-3,6.7-6.7,6.7s-6.7-3-6.7-6.7
	C33.5,227.1,36.5,224.1,40.2,224.1"/>
<path id="Pfad_20992" class="st3" d="M52.6,214.3c3.7,0,6.7,3,6.7,6.7c0,3.7-3,6.7-6.7,6.7s-6.7-3-6.7-6.7
	C46,217.3,48.9,214.3,52.6,214.3"/>
<path id="Pfad_20993" class="st3" d="M120.9,109.6c3.7,0,6.7,3,6.7,6.7l0,0c0,3.7-3,6.7-6.7,6.7l0,0c-3.7,0-6.7-3-6.7-6.7l0,0
	C114.2,112.6,117.2,109.6,120.9,109.6L120.9,109.6"/>
<path id="Pfad_20994" class="st3" d="M129.4,63c3.7,0,6.7,3,6.7,6.7c0,3.7-3,6.7-6.7,6.7s-6.7-3-6.7-6.7
	C122.7,65.9,125.7,63,129.4,63"/>
<path id="Pfad_20995" class="st3" d="M143.5,15.8c3.7,0,6.7,3,6.7,6.7l0,0c0,3.7-3,6.7-6.7,6.7l0,0c-3.7,0-6.7-3-6.7-6.7l0,0
	C136.8,18.8,139.8,15.8,143.5,15.8L143.5,15.8"/>
<path id="Pfad_20996" class="st3" d="M140.9,0.3c3.7,0,6.7,3,6.7,6.7c0,3.7-3,6.7-6.7,6.7s-6.7-3-6.7-6.7
	C134.2,3.3,137.2,0.3,140.9,0.3"/>
<path id="Pfad_20997" class="st3" d="M23.6,253.2c3.7,0,6.7,3,6.7,6.7c0,3.7-3,6.7-6.7,6.7s-6.7-3-6.7-6.7
	C16.9,256.2,19.9,253.2,23.6,253.2"/>
<path id="Pfad_20998" class="st3" d="M37.1,245.2c3.7,0,6.7,3,6.7,6.7c0,3.7-3,6.7-6.7,6.7s-6.7-3-6.7-6.7
	C30.4,248.2,33.4,245.2,37.1,245.2"/>
<path id="Pfad_20999" class="st5" d="M50,236.3c3.7,0,6.7,3,6.7,6.7c0,3.7-3,6.7-6.7,6.7s-6.7-3-6.7-6.7
	C43.4,239.3,46.3,236.3,50,236.3"/>
<path id="Pfad_21000" class="st3" d="M62.3,226.6c3.7,0,6.7,3,6.7,6.7c0,3.7-3,6.7-6.7,6.7l0,0c-3.7,0-6.7-3-6.7-6.7l0,0
	C55.7,229.6,58.7,226.6,62.3,226.6"/>
<path id="Pfad_21001" class="st3" d="M84.9,204.8c3.7,0,6.7,3,6.7,6.7c0,3.7-3,6.7-6.7,6.7s-6.7-3-6.7-6.7
	C78.2,207.8,81.2,204.8,84.9,204.8"/>
<path id="Pfad_21002" class="st4" d="M112.8,166.9c3.7,0,6.7,3,6.7,6.7c0,3.7-3,6.7-6.7,6.7s-6.7-3-6.7-6.7
	C106.1,169.9,109.1,166.9,112.8,166.9"/>
<path id="Pfad_21003" class="st3" d="M127,138.9c3.7,0,6.7,3,6.7,6.7c0,3.7-3,6.7-6.7,6.7c-3.7,0-6.7-3-6.7-6.7
	C120.3,141.9,123.3,138.9,127,138.9"/>
<path id="Pfad_21004" class="st3" d="M161.3,47.1c3.7,0,6.7,3,6.7,6.7c0,3.7-3,6.7-6.7,6.7s-6.7-3-6.7-6.7
	C154.6,50.1,157.6,47.1,161.3,47.1"/>
<path id="Pfad_21005" class="st3" d="M156.8,0.2c3.7,0,6.7,3,6.7,6.7c0,3.7-3,6.7-6.7,6.7s-6.7-3-6.7-6.7
	C150.2,3.2,153.1,0.2,156.8,0.2"/>
<path id="Pfad_21006" class="st3" d="M31.4,266.8c3.7,0,6.7,3,6.7,6.7c0,3.7-3,6.7-6.7,6.7c-3.7,0-6.7-3-6.7-6.7
	C24.7,269.8,27.7,266.8,31.4,266.8"/>
<path id="Pfad_21007" class="st3" d="M44.9,258.8c3.7,0,6.7,3,6.7,6.7c0,3.7-3,6.7-6.7,6.7s-6.7-3-6.7-6.7
	C38.3,261.8,41.3,258.8,44.9,258.8"/>
<path id="Pfad_21008" class="st3" d="M58,249.9c3.7,0,6.7,3,6.7,6.7l0,0c0,3.7-3,6.7-6.7,6.7l0,0c-3.7,0-6.7-3-6.7-6.7l0,0
	C51.3,252.9,54.3,249.9,58,249.9L58,249.9"/>
<path id="Pfad_21009" class="st4" d="M70.4,240.3c3.7,0,6.7,3,6.7,6.7l0,0c0,3.7-3,6.7-6.7,6.7l0,0c-3.7,0-6.7-3-6.7-6.7
	C63.7,243.2,66.7,240.2,70.4,240.3"/>
<path id="Pfad_21010" class="st4" d="M93.3,218.7c3.7,0,6.7,3,6.7,6.7c0,3.7-3,6.7-6.7,6.7c-3.7,0-6.7-3-6.7-6.7
	C86.7,221.7,89.7,218.7,93.3,218.7"/>
<path id="Pfad_21011" class="st3" d="M156.8,94.1c3.7,0,6.7,3,6.7,6.7c0,3.7-3,6.7-6.7,6.7s-6.7-3-6.7-6.7
	C150.2,97.1,153.1,94.1,156.8,94.1"/>
<path id="Pfad_21012" class="st3" d="M176.9,47.1c3.7,0,6.7,3,6.7,6.7c0,3.7-3,6.7-6.7,6.7s-6.7-3-6.7-6.7
	C170.3,50.1,173.3,47.1,176.9,47.1"/>
<path id="Pfad_21013" class="st3" d="M176.5,31.4c3.7,0,6.7,3,6.7,6.7c0,3.7-3,6.7-6.7,6.7s-6.7-3-6.7-6.7
	C169.8,34.3,172.8,31.4,176.5,31.4"/>
<path id="Pfad_21014" class="st3" d="M175.1,15.6c3.7,0,6.7,3,6.7,6.7c0,3.7-3,6.7-6.7,6.7s-6.7-3-6.7-6.7
	C168.4,18.6,171.4,15.6,175.1,15.6"/>
<path id="Pfad_21015" class="st3" d="M172.8,0c3.7,0,6.7,3,6.7,6.7c0,3.7-3,6.7-6.7,6.7s-6.7-3-6.7-6.7C166.1,3,169.1,0,172.8,0"/>
<path id="Pfad_21016" class="st4" d="M10.7,293.9c3.7,0,6.7,3,6.7,6.7l0,0c0,3.7-3,6.7-6.7,6.7l0,0c-3.7,0-6.7-3-6.7-6.7l0,0
	C4.1,296.9,7,293.9,10.7,293.9L10.7,293.9"/>
<path id="Pfad_21017" class="st3" d="M39.2,280.4c3.7,0,6.7,3,6.7,6.7l0,0c0,3.7-3,6.7-6.7,6.7s-6.7-3-6.7-6.7
	C32.5,283.3,35.5,280.3,39.2,280.4L39.2,280.4"/>
<path id="Pfad_21018" class="st4" d="M65.9,263.5c3.7,0,6.7,3,6.7,6.7c0,3.7-3,6.7-6.7,6.7s-6.7-3-6.7-6.7
	C59.2,266.5,62.2,263.5,65.9,263.5"/>
<path id="Pfad_21019" class="st4" d="M78.4,253.9c3.7,0,6.7,3,6.7,6.7c0,3.7-3,6.7-6.7,6.7s-6.7-3-6.7-6.7
	C71.8,256.9,74.7,253.9,78.4,253.9"/>
<path id="Pfad_21020" class="st4" d="M101.7,232.6c3.7,0,6.7,3,6.7,6.7l0,0c0,3.7-3,6.7-6.7,6.7s-6.7-3-6.7-6.7
	C95,235.6,98,232.6,101.7,232.6L101.7,232.6"/>
<path id="Pfad_21021" class="st4" d="M147.6,168.7c3.7,0,6.7,3,6.7,6.7l0,0c0,3.7-3,6.7-6.7,6.7s-6.7-3-6.7-6.7
	C140.9,171.7,143.9,168.7,147.6,168.7L147.6,168.7"/>
<path id="Pfad_21022" class="st5" d="M160.3,139.9c3.7,0,6.7,3,6.7,6.7c0,3.7-3,6.7-6.7,6.7s-6.7-3-6.7-6.7
	C153.6,142.9,156.6,139.9,160.3,139.9"/>
<path id="Pfad_21023" class="st3" d="M165.3,124.9c3.7,0,6.7,3,6.7,6.7c0,3.7-3,6.7-6.7,6.7s-6.7-3-6.7-6.7
	C158.7,127.9,161.6,124.9,165.3,124.9"/>
<path id="Pfad_21024" class="st3" d="M169.5,109.7c3.7,0,6.7,3,6.7,6.7c0,3.7-3,6.7-6.7,6.7s-6.7-3-6.7-6.7
	C162.8,112.7,165.8,109.7,169.5,109.7"/>
<path id="Pfad_21025" class="st3" d="M176.5,62.9c3.7,0,6.7,3,6.7,6.7c0,3.7-3,6.7-6.7,6.7s-6.7-3-6.7-6.7
	C169.8,65.9,172.8,62.9,176.5,62.9"/>
<path id="Pfad_21026" class="st3" d="M6.7,312.2c3.7,0,6.7,3,6.7,6.7c0,3.7-3,6.7-6.7,6.7s-6.7-3-6.7-6.7S3,312.2,6.7,312.2"/>
<path id="Pfad_21027" class="st3" d="M21.2,306.5c3.7,0,6.7,3,6.7,6.7l0,0c0,3.7-3,6.7-6.7,6.7l0,0c-3.7,0-6.7-3-6.7-6.7l0,0
	C14.6,309.5,17.6,306.5,21.2,306.5L21.2,306.5"/>
<path id="Pfad_21028" class="st3" d="M35.5,300c3.7,0,6.7,3,6.7,6.7c0,3.7-3,6.7-6.7,6.7s-6.7-3-6.7-6.7C28.8,303,31.8,300,35.5,300
	"/>
<path id="Pfad_21029" class="st3" d="M75.7,275.7c3.7,0,6.7,3,6.7,6.7c0,3.7-3,6.7-6.7,6.7s-6.7-3-6.7-6.7
	C69.1,278.7,72.1,275.7,75.7,275.7"/>
<path id="Pfad_21030" class="st3" d="M88.2,266.2c3.7,0,6.7,3,6.7,6.7c0,3.7-3,6.7-6.7,6.7c-3.7,0-6.7-3-6.7-6.7
	C81.5,269.2,84.5,266.2,88.2,266.2"/>
<path id="Pfad_21031" class="st3" d="M171.5,154.1c3.7,0,6.7,3,6.7,6.7c0,3.7-3,6.7-6.7,6.7s-6.7-3-6.7-6.7
	C164.9,157.1,167.8,154.1,171.5,154.1"/>
<path id="Pfad_21032" class="st3" d="M177.1,139.5c3.7,0,6.7,3,6.7,6.7l0,0c0,3.7-3,6.7-6.7,6.7l0,0c-3.7,0-6.7-3-6.7-6.7l0,0
	C170.4,142.5,173.4,139.5,177.1,139.5L177.1,139.5"/>
<path id="Pfad_21033" class="st3" d="M181.8,124.5c3.7,0,6.7,3,6.7,6.7l0,0c0,3.7-3,6.7-6.7,6.7l0,0c-3.7,0-6.7-3-6.7-6.7l0,0
	C175.1,127.5,178.1,124.5,181.8,124.5L181.8,124.5"/>
<path id="Pfad_21034" class="st5" d="M185.7,109.3c3.7,0,6.7,3,6.7,6.7c0,3.7-3,6.7-6.7,6.7c-3.7,0-6.7-3-6.7-6.7
	C179,112.3,182,109.3,185.7,109.3"/>
<path id="Pfad_21035" class="st3" d="M190.9,78.4c3.7,0,6.7,3,6.7,6.7c0,3.7-3,6.7-6.7,6.7c-3.7,0-6.7-3-6.7-6.7l0,0
	C184.2,81.4,187.2,78.4,190.9,78.4"/>
<path id="Pfad_21036" class="st3" d="M192.2,62.8c3.7,0,6.7,3,6.7,6.7c0,3.7-3,6.7-6.7,6.7c-3.7,0-6.7-3-6.7-6.7
	C185.5,65.8,188.5,62.8,192.2,62.8"/>
<path id="Pfad_21037" class="st3" d="M208.3,47.1c3.7,0,6.7,3,6.7,6.7s-3,6.7-6.7,6.7s-6.7-3-6.7-6.7l0,0
	C201.6,50.1,204.6,47.1,208.3,47.1L208.3,47.1"/>
<path id="Pfad_21038" class="st4" d="M14.5,326.1c3.7,0,6.7,3,6.7,6.7c0,3.7-3,6.7-6.7,6.7s-6.7-3-6.7-6.7
	C7.8,329.1,10.8,326.1,14.5,326.1"/>
<path id="Pfad_21039" class="st5" d="M29.1,320.2c3.7,0,6.7,3,6.7,6.7s-3,6.7-6.7,6.7l0,0c-3.7,0-6.7-3-6.7-6.7l0,0
	C22.4,323.2,25.4,320.2,29.1,320.2L29.1,320.2"/>
<path id="Pfad_21040" class="st3" d="M43.3,313.6c3.7,0,6.7,3,6.7,6.7c0,3.7-3,6.7-6.7,6.7s-6.7-3-6.7-6.7
	C36.6,316.6,39.6,313.6,43.3,313.6"/>
<path id="Pfad_21041" class="st4" d="M57.2,306.2c3.7,0,6.7,3,6.7,6.7s-3,6.7-6.7,6.7l0,0c-3.7,0-6.7-3-6.7-6.7l0,0
	C50.5,309.2,53.5,306.2,57.2,306.2"/>
<path id="Pfad_21042" class="st3" d="M70.7,298.1c3.7,0,6.7,3,6.7,6.7c0,3.7-3,6.7-6.7,6.7c-3.7,0-6.7-3-6.7-6.7l0,0
	C64,301.1,67,298.1,70.7,298.1"/>
<path id="Pfad_21043" class="st3" d="M83.7,289.3c3.7,0,6.7,3,6.7,6.7l0,0c0,3.7-3,6.7-6.7,6.7l0,0c-3.7,0-6.7-3-6.7-6.7l0,0
	C77,292.3,80,289.3,83.7,289.3L83.7,289.3"/>
<path id="Pfad_21044" class="st3" d="M96.2,279.8c3.7,0,6.7,3,6.7,6.7l0,0c0,3.7-3,6.7-6.7,6.7c-3.7,0-6.7-3-6.7-6.7l0,0
	C89.5,282.8,92.5,279.8,96.2,279.8L96.2,279.8"/>
<path id="Pfad_21045" class="st3" d="M108.2,269.7c3.7,0,6.7,3,6.7,6.7c0,3.7-3,6.7-6.7,6.7c-3.7,0-6.7-3-6.7-6.7
	C101.6,272.7,104.5,269.7,108.2,269.7"/>
<path id="Pfad_21046" class="st5" d="M119.7,259c3.7,0,6.7,3,6.7,6.7l0,0c0,3.7-3,6.7-6.7,6.7s-6.7-3-6.7-6.7
	C113,262,116,259,119.7,259L119.7,259"/>
<path id="Pfad_21047" class="st4" d="M167.7,197.1c3.7,0,6.7,3,6.7,6.7c0,3.7-3,6.7-6.7,6.7s-6.7-3-6.7-6.7
	C161.1,200.1,164.1,197.1,167.7,197.1"/>
<path id="Pfad_21048" class="st3" d="M175.3,183.3c3.7,0,6.7,3,6.7,6.7l0,0c0,3.7-3,6.7-6.7,6.7l0,0c-3.7,0-6.7-3-6.7-6.7l0,0
	C168.6,186.3,171.6,183.3,175.3,183.3L175.3,183.3"/>
<path id="Pfad_21049" class="st3" d="M201.7,109.5c3.7,0,6.7,3,6.7,6.7l0,0c0,3.7-3,6.7-6.7,6.7l0,0c-3.7,0-6.7-3-6.7-6.7l0,0
	C195,112.5,198,109.5,201.7,109.5"/>
<path id="Pfad_21050" class="st3" d="M206.6,78.5c3.7,0,6.7,3,6.7,6.7l0,0c0,3.7-3,6.7-6.7,6.7l0,0c-3.7,0-6.7-3-6.7-6.7l0,0
	C200,81.5,202.9,78.5,206.6,78.5L206.6,78.5"/>
<path id="Pfad_21051" class="st3" d="M223.6,31.4c3.7,0,6.7,3,6.7,6.7c0,3.7-3,6.7-6.7,6.7s-6.7-3-6.7-6.7S219.9,31.4,223.6,31.4"/>
<path id="Pfad_21052" class="st3" d="M22.3,339.9c3.7,0,6.7,3,6.7,6.7c0,3.7-3,6.7-6.7,6.7l0,0c-3.7,0-6.7-3-6.7-6.7l0,0
	C15.6,342.9,18.6,339.9,22.3,339.9"/>
<path id="Pfad_21053" class="st3" d="M36.9,333.9c3.7,0,6.7,3,6.7,6.7c0,3.7-3,6.7-6.7,6.7s-6.7-3-6.7-6.7
	C30.2,336.9,33.2,333.9,36.9,333.9"/>
<path id="Pfad_21054" class="st5" d="M51.1,327.2c3.7,0,6.7,3,6.7,6.7c0,3.7-3,6.7-6.7,6.7s-6.7-3-6.7-6.7
	C44.5,330.2,47.4,327.2,51.1,327.2"/>
<path id="Pfad_21055" class="st3" d="M65,319.8c3.7,0,6.7,3,6.7,6.7c0,3.7-3,6.7-6.7,6.7s-6.7-3-6.7-6.7
	C58.3,322.8,61.3,319.8,65,319.8"/>
<path id="Pfad_21056" class="st3" d="M91.6,302.9c3.7,0,6.7,3,6.7,6.7c0,3.7-3,6.7-6.7,6.7c-3.7,0-6.7-3-6.7-6.7
	C84.9,305.9,87.9,302.9,91.6,302.9"/>
<path id="Pfad_21057" class="st4" d="M209.8,140.2c3.7,0,6.7,3,6.7,6.7s-3,6.7-6.7,6.7s-6.7-3-6.7-6.7
	C203.1,143.2,206.1,140.2,209.8,140.2"/>
<path id="Pfad_21058" class="st3" d="M214.1,125.1c3.7,0,6.7,3,6.7,6.7l0,0c0,3.7-3,6.7-6.7,6.7l0,0c-3.7,0-6.7-3-6.7-6.7
	C207.4,128,210.4,125.1,214.1,125.1L214.1,125.1"/>
<path id="Pfad_21059" class="st3" d="M220.4,94.2c3.7,0,6.7,3,6.7,6.7s-3,6.7-6.7,6.7c-3.7,0-6.7-3-6.7-6.7S216.7,94.2,220.4,94.2
	L220.4,94.2"/>
<path id="Pfad_21060" class="st3" d="M222.4,78.6c3.7,0,6.7,3,6.7,6.7s-3,6.7-6.7,6.7s-6.7-3-6.7-6.7S218.7,78.6,222.4,78.6"/>
<path id="Pfad_21061" class="st4" d="M239.2,31.4c3.7,0,6.7,3,6.7,6.7s-3,6.7-6.7,6.7c-3.7,0-6.7-3-6.7-6.7
	C232.6,34.3,235.5,31.4,239.2,31.4"/>
<path id="Pfad_21062" class="st3" d="M238.1,15.6c3.7,0,6.7,3,6.7,6.7s-3,6.7-6.7,6.7s-6.7-3-6.7-6.7S234.4,15.6,238.1,15.6"/>
<path id="Pfad_21063" class="st3" d="M30.1,353.6c3.7,0,6.7,3,6.7,6.7c0,3.7-3,6.7-6.7,6.7c-3.7,0-6.7-3-6.7-6.7
	C23.5,356.6,26.4,353.6,30.1,353.6"/>
<path id="Pfad_21064" class="st4" d="M44.7,347.6c3.7,0,6.7,3,6.7,6.7c0,3.7-3,6.7-6.7,6.7s-6.7-3-6.7-6.7
	C38,350.6,41,347.6,44.7,347.6"/>
<path id="Pfad_21065" class="st4" d="M58.9,340.8c3.7,0,6.7,3,6.7,6.7c0,3.7-3,6.7-6.7,6.7s-6.7-3-6.7-6.7
	C52.3,343.8,55.2,340.8,58.9,340.8"/>
<path id="Pfad_21066" class="st4" d="M72.8,333.3c3.7,0,6.7,3,6.7,6.7c0,3.7-3,6.7-6.7,6.7s-6.7-3-6.7-6.7
	C66.2,336.3,69.2,333.3,72.8,333.3"/>
<path id="Pfad_21067" class="st5" d="M112.2,307.1c3.7,0,6.7,3,6.7,6.7c0,3.7-3,6.7-6.7,6.7s-6.7-3-6.7-6.7
	C105.5,310.1,108.5,307.1,112.2,307.1"/>
<path id="Pfad_21068" class="st5" d="M136.2,286.6c3.7,0,6.7,3,6.7,6.7l0,0c0,3.7-3,6.7-6.7,6.7l0,0c-3.7,0-6.7-3-6.7-6.7l0,0
	C129.5,289.6,132.5,286.6,136.2,286.6L136.2,286.6"/>
<path id="Pfad_21069" class="st4" d="M186.6,226.2c3.7,0,6.7,3,6.7,6.7l0,0c0,3.7-3,6.7-6.7,6.7l0,0c-3.7,0-6.7-3-6.7-6.7l0,0
	C179.9,229.2,182.9,226.2,186.6,226.2L186.6,226.2"/>
<path id="Pfad_21070" class="st3" d="M11.1,376.8c3.7,0,6.7,3,6.7,6.7c0,3.7-3,6.7-6.7,6.7s-6.7-3-6.7-6.7
	C4.5,379.8,7.5,376.8,11.1,376.8"/>
<path id="Pfad_21071" class="st3" d="M26,371.9c3.7,0,6.7,3,6.7,6.7l0,0c0,3.7-3,6.7-6.7,6.7l0,0c-3.7,0-6.7-3-6.7-6.7l0,0
	C19.4,374.9,22.4,371.9,26,371.9"/>
<path id="Pfad_21072" class="st5" d="M40.7,366.3c3.7,0,6.7,3,6.7,6.7c0,3.7-3,6.7-6.7,6.7s-6.7-3-6.7-6.7
	C34,369.3,37,366.3,40.7,366.3"/>
<path id="Pfad_21073" class="st5" d="M55.1,360c3.7,0,6.7,3,6.7,6.7c0,3.7-3,6.7-6.7,6.7s-6.7-3-6.7-6.7C48.4,363,51.4,360,55.1,360
	"/>
<path id="Pfad_21074" class="st5" d="M69.2,353.1c3.7,0,6.7,3,6.7,6.7c0,3.7-3,6.7-6.7,6.7s-6.7-3-6.7-6.7
	C62.5,356.1,65.5,353.1,69.2,353.1"/>
<path id="Pfad_21075" class="st5" d="M82.9,345.6c3.7,0,6.7,3,6.7,6.7c0,3.7-3,6.7-6.7,6.7s-6.7-3-6.7-6.7l0,0
	C76.3,348.6,79.3,345.6,82.9,345.6L82.9,345.6"/>
<path id="Pfad_21076" class="st3" d="M145.9,299c3.7,0,6.7,3,6.7,6.7c0,3.7-3,6.7-6.7,6.7s-6.7-3-6.7-6.7
	C139.2,302,142.2,299,145.9,299"/>
<path id="Pfad_21077" class="st3" d="M157.1,288c3.7,0,6.7,3,6.7,6.7l0,0c0,3.7-3,6.7-6.7,6.7s-6.7-3-6.7-6.7l0,0
	C150.4,291,153.4,288,157.1,288L157.1,288"/>
<path id="Pfad_21078" class="st3" d="M167.8,276.6c3.7,0,6.7,3,6.7,6.7l0,0c0,3.7-3,6.7-6.7,6.7s-6.7-3-6.7-6.7
	C161.1,279.6,164.1,276.6,167.8,276.6L167.8,276.6"/>
<path id="Pfad_21079" class="st5" d="M178,264.6c3.7,0,6.7,3,6.7,6.7c0,3.7-3,6.7-6.7,6.7s-6.7-3-6.7-6.7
	C171.3,267.6,174.3,264.6,178,264.6"/>
<path id="Pfad_21080" class="st4" d="M187.6,252.2c3.7,0,6.7,3,6.7,6.7c0,3.7-3,6.7-6.7,6.7l0,0c-3.7,0-6.7-3-6.7-6.7l0,0
	C180.9,255.2,183.9,252.3,187.6,252.2"/>
<path id="Pfad_21082" class="st3" d="M48.5,380c3.7,0,6.7,3,6.7,6.7l0,0c0,3.7-3,6.7-6.7,6.7s-6.7-3-6.7-6.7S44.8,380,48.5,380
	L48.5,380"/>
<path id="Pfad_21083" class="st3" d="M62.9,373.7c3.7,0,6.7,3,6.7,6.7l0,0c0,3.7-3,6.7-6.7,6.7l0,0c-3.7,0-6.7-3-6.7-6.7l0,0
	C56.2,376.7,59.2,373.7,62.9,373.7L62.9,373.7"/>
<path id="Pfad_21084" class="st3" d="M154.1,312.8c3.7,0,6.7,3,6.7,6.7l0,0c0,3.7-3,6.7-6.7,6.7s-6.7-3-6.7-6.7
	C147.4,315.8,150.4,312.8,154.1,312.8L154.1,312.8"/>
<path id="Pfad_21085" class="st5" d="M165.4,301.9c3.7,0,6.7,3,6.7,6.7c0,3.7-3,6.7-6.7,6.7s-6.7-3-6.7-6.7
	C158.7,304.9,161.7,301.9,165.4,301.9"/>
<path id="Pfad_21086" class="st4" d="M176.3,290.5c3.7,0,6.7,3,6.7,6.7l0,0c0,3.7-3,6.7-6.7,6.7l0,0c-3.7,0-6.7-3-6.7-6.7l0,0
	C169.6,293.5,172.6,290.5,176.3,290.5L176.3,290.5"/>
<path id="Pfad_21087" class="st3" d="M186.6,278.7c3.7,0,6.7,3,6.7,6.7c0,3.7-3,6.7-6.7,6.7s-6.7-3-6.7-6.7
	C180,281.7,182.9,278.7,186.6,278.7"/>
<path id="Pfad_21088" class="st5" d="M214.5,240.7c3.7,0,6.7,3,6.7,6.7c0,3.7-3,6.7-6.7,6.7s-6.7-3-6.7-6.7
	C207.8,243.7,210.8,240.7,214.5,240.7"/>
<path id="Pfad_21089" class="st4" d="M249.2,170.4c3.7,0,6.7,3,6.7,6.7c0,3.7-3,6.7-6.7,6.7c-3.7,0-6.7-3-6.7-6.7
	S245.5,170.4,249.2,170.4"/>
<path id="Pfad_21090" class="st3" d="M11.7,409.3c3.7,0,6.7,3,6.7,6.7l0,0c0,3.7-3,6.7-6.7,6.7l0,0c-3.7,0-6.7-3-6.7-6.7l0,0
	C5.1,412.3,8,409.3,11.7,409.3L11.7,409.3"/>
<path id="Pfad_21091" class="st5" d="M70.7,387.3c3.7,0,6.7,3,6.7,6.7c0,3.7-3,6.7-6.7,6.7s-6.7-3-6.7-6.7
	C64,390.3,67,387.3,70.7,387.3"/>
<path id="Pfad_21092" class="st5" d="M125.2,355.9c3.7,0,6.7,3,6.7,6.7l0,0c0,3.7-3,6.7-6.7,6.7c-3.7,0-6.7-3-6.7-6.7
	C118.5,358.8,121.5,355.8,125.2,355.9L125.2,355.9"/>
<path id="Pfad_21093" class="st3" d="M162.2,326.5c3.7,0,6.7,3,6.7,6.7l0,0c0,3.7-3,6.7-6.7,6.7l0,0c-3.7,0-6.7-3-6.7-6.7l0,0
	C155.6,329.5,158.5,326.5,162.2,326.5L162.2,326.5"/>
<path id="Pfad_21094" class="st4" d="M173.7,315.8c3.7,0,6.7,3,6.7,6.7c0,3.7-3,6.7-6.7,6.7c-3.7,0-6.7-3-6.7-6.7
	C167,318.7,170,315.8,173.7,315.8"/>
<path id="Pfad_21095" class="st3" d="M184.7,304.5c3.7,0,6.7,3,6.7,6.7c0,3.7-3,6.7-6.7,6.7s-6.7-3-6.7-6.7
	C178,307.5,181,304.5,184.7,304.5"/>
<path id="Pfad_21096" class="st5" d="M195.2,292.8c3.7,0,6.7,3,6.7,6.7c0,3.7-3,6.7-6.7,6.7s-6.7-3-6.7-6.7
	C188.6,295.8,191.6,292.8,195.2,292.8"/>
<path id="Pfad_21097" class="st5" d="M205.3,280.7c3.7,0,6.7,3,6.7,6.7l0,0c0,3.7-3,6.7-6.7,6.7l0,0c-3.7,0-6.7-3-6.7-6.7
	C198.6,283.7,201.6,280.7,205.3,280.7"/>
<path id="Pfad_21098" class="st5" d="M240.1,228.3c3.7,0,6.7,3,6.7,6.7c0,3.7-3,6.7-6.7,6.7s-6.7-3-6.7-6.7S236.4,228.3,240.1,228.3
	"/>
<path id="Pfad_21099" class="st3" d="M7.6,426.6c3.7,0,6.7,3,6.7,6.7l0,0c0,3.7-3,6.7-6.7,6.7c-3.7,0-6.7-3-6.7-6.7
	C0.9,429.6,3.9,426.6,7.6,426.6L7.6,426.6"/>
<path id="Pfad_21100" class="st3" d="M22.7,422.4c3.7,0,6.7,3,6.7,6.7c0,3.7-3,6.7-6.7,6.7s-6.7-3-6.7-6.7
	C16,425.4,19,422.4,22.7,422.4"/>
<path id="Pfad_21101" class="st4" d="M52.3,412.2c3.7,0,6.7,3,6.7,6.7l0,0c0,3.7-3,6.7-6.7,6.7s-6.7-3-6.7-6.7
	C45.7,415.2,48.6,412.2,52.3,412.2"/>
<path id="Pfad_21102" class="st5" d="M66.8,406.3c3.7,0,6.7,3,6.7,6.7c0,3.7-3,6.7-6.7,6.7s-6.7-3-6.7-6.7
	C60.2,409.3,63.1,406.3,66.8,406.3"/>
<path id="Pfad_21103" class="st4" d="M81.1,399.7c3.7,0,6.7,3,6.7,6.7c0,3.7-3,6.7-6.7,6.7s-6.7-3-6.7-6.7
	C74.4,402.7,77.4,399.7,81.1,399.7"/>
<path id="Pfad_21104" class="st3" d="M108.7,385c3.7,0,6.7,3,6.7,6.7c0,3.7-3,6.7-6.7,6.7c-3.7,0-6.7-3-6.7-6.7
	C102,388,105,385,108.7,385"/>
<path id="Pfad_21105" class="st3" d="M135.1,368.1c3.7,0,6.7,3,6.7,6.7c0,3.7-3,6.7-6.7,6.7s-6.7-3-6.7-6.7
	C128.4,371.1,131.4,368.1,135.1,368.1"/>
<path id="Pfad_21106" class="st3" d="M147.8,358.8c3.7,0,6.7,3,6.7,6.7c0,3.7-3,6.7-6.7,6.7s-6.7-3-6.7-6.7
	C141.1,361.8,144.1,358.8,147.8,358.8"/>
<path id="Pfad_21107" class="st3" d="M194.4,317c3.7,0,6.7,3,6.7,6.7c0,3.7-3,6.7-6.7,6.7c-3.7,0-6.7-3-6.7-6.7
	C187.7,320,190.7,317,194.4,317"/>
<path id="Pfad_21108" class="st3" d="M205,305.5c3.7,0,6.7,3,6.7,6.7c0,3.7-3,6.7-6.7,6.7l0,0c-3.7,0-6.7-3-6.7-6.7l0,0
	C198.3,308.5,201.3,305.5,205,305.5"/>
<path id="Pfad_21109" class="st4" d="M215.1,293.5c3.7,0,6.7,3,6.7,6.7s-3,6.7-6.7,6.7s-6.7-3-6.7-6.7
	C208.4,296.5,211.4,293.5,215.1,293.5"/>
<path id="Pfad_21110" class="st3" d="M233.8,268.4c3.7,0,6.7,3,6.7,6.7c0,3.7-3,6.7-6.7,6.7s-6.7-3-6.7-6.7S230.1,268.4,233.8,268.4
	"/>
<path id="Pfad_21111" class="st5" d="M88.9,413.4c3.7,0,6.7,3,6.7,6.7c0,3.7-3,6.7-6.7,6.7s-6.7-3-6.7-6.7
	C82.2,416.4,85.2,413.4,88.9,413.4"/>
<path id="Pfad_21112" class="st3" d="M102.8,406.2c3.7,0,6.7,3,6.7,6.7l0,0c0,3.7-3,6.7-6.7,6.7l0,0c-3.7,0-6.7-3-6.7-6.7l0,0
	C96.2,409.2,99.2,406.2,102.8,406.2L102.8,406.2"/>
<path id="Pfad_21113" class="st4" d="M143,381.6c3.7,0,6.7,3,6.7,6.7c0,3.7-3,6.7-6.7,6.7s-6.7-3-6.7-6.7
	C136.3,384.6,139.3,381.6,143,381.6L143,381.6"/>
<path id="Pfad_21114" class="st5" d="M155.7,372.5c3.7,0,6.7,3,6.7,6.7l0,0c0,3.7-3,6.7-6.7,6.7l0,0c-3.7,0-6.7-3-6.7-6.7l0,0
	C149.1,375.4,152,372.5,155.7,372.5L155.7,372.5"/>
<path id="Pfad_21115" class="st3" d="M168.1,362.8c3.7,0,6.7,3,6.7,6.7l0,0c0,3.7-3,6.7-6.7,6.7l0,0c-3.7,0-6.7-3-6.7-6.7l0,0
	C161.4,365.8,164.4,362.8,168.1,362.8L168.1,362.8"/>
<path id="Pfad_21116" class="st3" d="M202.8,331c3.7,0,6.7,3,6.7,6.7l0,0c0,3.7-3,6.7-6.7,6.7l0,0c-3.7,0-6.7-3-6.7-6.7
	C196.1,333.9,199.1,330.9,202.8,331"/>
<path id="Pfad_21117" class="st3" d="M213.5,319.5c3.7,0,6.7,3,6.7,6.7s-3,6.7-6.7,6.7s-6.7-3-6.7-6.7
	C206.8,322.5,209.8,319.5,213.5,319.5"/>
<path id="Pfad_21118" class="st4" d="M242.9,282.7c3.7,0,6.7,3,6.7,6.7s-3,6.7-6.7,6.7s-6.7-3-6.7-6.7l0,0
	C236.2,285.7,239.2,282.7,242.9,282.7L242.9,282.7"/>
<path id="Pfad_21119" class="st3" d="M251.7,269.7c3.7,0,6.7,3,6.7,6.7s-3,6.7-6.7,6.7s-6.7-3-6.7-6.7S248,269.7,251.7,269.7"/>
<path id="Pfad_21120" class="st3" d="M260,256.4c3.7,0,6.7,3,6.7,6.7s-3,6.7-6.7,6.7s-6.7-3-6.7-6.7S256.4,256.4,260,256.4"/>
<path id="Pfad_21121" class="st4" d="M267.9,242.8c3.7,0,6.7,3,6.7,6.7s-3,6.7-6.7,6.7s-6.7-3-6.7-6.7
	C261.2,245.8,264.2,242.8,267.9,242.8"/>
<path id="Pfad_21122" class="st3" d="M8,458.7c3.7,0,6.7,3,6.7,6.7l0,0c0,3.7-3,6.7-6.7,6.7s-6.7-3-6.7-6.7
	C1.4,461.7,4.3,458.7,8,458.7L8,458.7"/>
<path id="Pfad_21123" class="st3" d="M38.3,450.4c3.7,0,6.7,3,6.7,6.7c0,3.7-3,6.7-6.7,6.7s-6.7-3-6.7-6.7
	C31.7,453.4,34.7,450.4,38.3,450.4"/>
<path id="Pfad_21124" class="st4" d="M67.9,439.8c3.7,0,6.7,3,6.7,6.7c0,3.7-3,6.7-6.7,6.7c-3.7,0-6.7-3-6.7-6.7
	C61.3,442.8,64.3,439.8,67.9,439.8"/>
<path id="Pfad_21125" class="st3" d="M82.4,433.6c3.7,0,6.7,3,6.7,6.7c0,3.7-3,6.7-6.7,6.7l0,0c-3.7,0-6.7-3-6.7-6.7
	C75.8,436.6,78.8,433.6,82.4,433.6"/>
<path id="Pfad_21126" class="st3" d="M96.7,427c3.7,0,6.7,3,6.7,6.7c0,3.7-3,6.7-6.7,6.7s-6.7-3-6.7-6.7C90,430,93,427,96.7,427"/>
<path id="Pfad_21127" class="st4" d="M137.8,403.9c3.7,0,6.7,3,6.7,6.7c0,3.7-3,6.7-6.7,6.7c-3.7,0-6.7-3-6.7-6.7
	C131.1,406.9,134.1,403.9,137.8,403.9"/>
<path id="Pfad_21128" class="st3" d="M150.9,395.2c3.7,0,6.7,3,6.7,6.7l0,0c0,3.7-3,6.7-6.7,6.7l0,0c-3.7,0-6.7-3-6.7-6.7l0,0
	C144.2,398.2,147.2,395.2,150.9,395.2"/>
<path id="Pfad_21129" class="st3" d="M163.7,386.1c3.7,0,6.7,3,6.7,6.7l0,0c0,3.7-3,6.7-6.7,6.7l0,0c-3.7,0-6.7-3-6.7-6.7
	C157,389,160,386,163.7,386.1"/>
<path id="Pfad_21130" class="st5" d="M188.2,366.3c3.7,0,6.7,3,6.7,6.7c0,3.7-3,6.7-6.7,6.7s-6.7-3-6.7-6.7
	C181.5,369.3,184.5,366.3,188.2,366.3"/>
<path id="Pfad_21131" class="st5" d="M232.4,321.7c3.7,0,6.7,3,6.7,6.7s-3,6.7-6.7,6.7s-6.7-3-6.7-6.7S228.7,321.7,232.4,321.7"/>
<path id="Pfad_21132" class="st3" d="M242.4,309.5c3.7,0,6.7,3,6.7,6.7s-3,6.7-6.7,6.7s-6.7-3-6.7-6.7S238.7,309.5,242.4,309.5"/>
<path id="Pfad_21133" class="st3" d="M251.9,297c3.7,0,6.7,3,6.7,6.7s-3,6.7-6.7,6.7s-6.7-3-6.7-6.7S248.2,297,251.9,297"/>
<path id="Pfad_21134" class="st3" d="M15.9,473c3.7,0,6.7,3,6.7,6.7c0,3.7-3,6.7-6.7,6.7s-6.7-3-6.7-6.7
	C9.2,475.9,12.2,473,15.9,473"/>
<path id="Pfad_21135" class="st4" d="M75.8,453.5c3.7,0,6.7,3,6.7,6.7c0,3.7-3,6.7-6.7,6.7s-6.7-3-6.7-6.7
	C69.1,456.5,72.1,453.5,75.8,453.5"/>
<path id="Pfad_21136" class="st3" d="M171.6,399.7c3.7,0,6.7,3,6.7,6.7c0,3.7-3,6.7-6.7,6.7s-6.7-3-6.7-6.7
	C165,402.7,167.9,399.7,171.6,399.7"/>
<path id="Pfad_21137" class="st5" d="M184.1,390.1c3.7,0,6.7,3,6.7,6.7c0,3.7-3,6.7-6.7,6.7s-6.7-3-6.7-6.7
	C177.4,393.1,180.4,390.1,184.1,390.1"/>
<path id="Pfad_21138" class="st3" d="M208,369.6c3.7,0,6.7,3,6.7,6.7s-3,6.7-6.7,6.7l0,0c-3.7,0-6.7-3-6.7-6.7l0,0
	C201.4,372.6,204.3,369.6,208,369.6"/>
<path id="Pfad_21139" class="st5" d="M251.1,323.7c3.7,0,6.7,3,6.7,6.7s-3,6.7-6.7,6.7s-6.7-3-6.7-6.7S247.4,323.7,251.1,323.7"/>
<path id="Pfad_21140" class="st3" d="M260.8,311.3c3.7,0,6.7,3,6.7,6.7s-3,6.7-6.7,6.7s-6.7-3-6.7-6.7S257.1,311.3,260.8,311.3"/>
<path id="Pfad_21141" class="st4" d="M270.1,298.5c3.7,0,6.7,3,6.7,6.7s-3,6.7-6.7,6.7s-6.7-3-6.7-6.7
	C263.4,301.5,266.4,298.5,270.1,298.5"/>
<path id="Pfad_21142" class="st4" d="M295,258.5c3.7,0,6.7,3,6.7,6.7l0,0c0,3.7-3,6.7-6.7,6.7s-6.7-3-6.7-6.7S291.3,258.5,295,258.5
	L295,258.5"/>
<path id="Pfad_21143" class="st4" d="M302.4,244.5c3.7,0,6.7,3,6.7,6.7l0,0c0,3.7-3,6.7-6.7,6.7l0,0c-3.7,0-6.7-3-6.7-6.7l0,0
	C295.7,247.5,298.7,244.5,302.4,244.5L302.4,244.5"/>
<path id="Pfad_21144" class="st3" d="M309.2,230.3c3.7,0,6.7,3,6.7,6.7s-3,6.7-6.7,6.7c-3.7,0-6.7-3-6.7-6.7
	C302.5,233.3,305.5,230.3,309.2,230.3"/>
<path id="Pfad_21145" class="st3" d="M315.5,215.9c3.7,0,6.7,3,6.7,6.7l0,0c0,3.7-3,6.7-6.7,6.7l0,0c-3.7,0-6.7-3-6.7-6.7
	S311.8,215.9,315.5,215.9L315.5,215.9"/>
<path id="Pfad_21146" class="st5" d="M321.3,201.3c3.7,0,6.7,3,6.7,6.7s-3,6.7-6.7,6.7s-6.7-3-6.7-6.7S317.6,201.3,321.3,201.3"/>
<path id="Pfad_21147" class="st3" d="M100.7,459.8c3.7,0,6.7,3,6.7,6.7c0,3.7-3,6.7-6.7,6.7c-3.7,0-6.7-3-6.7-6.7
	C94,462.8,97,459.8,100.7,459.8"/>
<path id="Pfad_21148" class="st4" d="M114.8,453c3.7,0,6.7,3,6.7,6.7c0,3.7-3,6.7-6.7,6.7s-6.7-3-6.7-6.7
	C108.1,456,111.1,453,114.8,453"/>
<path id="Pfad_21149" class="st5" d="M250.7,348.4c3.7,0,6.7,3,6.7,6.7s-3,6.7-6.7,6.7s-6.7-3-6.7-6.7S247,348.4,250.7,348.4"/>
<path id="Pfad_21150" class="st3" d="M260.9,336.5c3.7,0,6.7,3,6.7,6.7c0,3.7-3,6.7-6.7,6.7s-6.7-3-6.7-6.7S257.2,336.5,260.9,336.5
	"/>
<path id="Pfad_21151" class="st3" d="M280,311.6c3.7,0,6.7,3,6.7,6.7s-3,6.7-6.7,6.7s-6.7-3-6.7-6.7
	C273.3,314.6,276.3,311.6,280,311.6"/>
<path id="Pfad_21152" class="st3" d="M312.9,258.3c3.7,0,6.7,3,6.7,6.7c0,3.7-3,6.7-6.7,6.7c-3.7,0-6.7-3-6.7-6.7
	S309.2,258.3,312.9,258.3"/>
<path id="Pfad_21153" class="st3" d="M64.8,491.1c3.7,0,6.7,3,6.7,6.7l0,0c0,3.7-3,6.7-6.7,6.7l0,0c-3.7,0-6.7-3-6.7-6.7l0,0
	C58.1,494.1,61.1,491.1,64.8,491.1L64.8,491.1"/>
<path id="Pfad_21154" class="st3" d="M108.5,473.4c3.7,0,6.7,3,6.7,6.7c0,3.7-3,6.7-6.7,6.7l0,0c-3.7,0-6.7-3-6.7-6.7l0,0
	C101.8,476.4,104.8,473.4,108.5,473.4"/>
<path id="Pfad_21155" class="st5" d="M176.6,434.6c3.7,0,6.7,3,6.7,6.7c0,3.7-3,6.7-6.7,6.7s-6.7-3-6.7-6.7
	C169.9,437.6,172.9,434.6,176.6,434.6"/>
<path id="Pfad_21156" class="st3" d="M189.4,425.5c3.7,0,6.7,3,6.7,6.7c0,3.7-3,6.7-6.7,6.7c-3.7,0-6.7-3-6.7-6.7
	C182.7,428.5,185.7,425.5,189.4,425.5"/>
<path id="Pfad_21157" class="st3" d="M201.9,416c3.7,0,6.7,3,6.7,6.7l0,0c0,3.7-3,6.7-6.7,6.7l0,0c-3.7,0-6.7-3-6.7-6.7l0,0
	C195.2,419,198.2,416,201.9,416L201.9,416"/>
<path id="Pfad_21158" class="st3" d="M214.1,406c3.7,0,6.7,3,6.7,6.7s-3,6.7-6.7,6.7s-6.7-3-6.7-6.7C207.4,409,210.4,406,214.1,406"
	/>
<path id="Pfad_21159" class="st5" d="M248.4,373.9c3.7,0,6.7,3,6.7,6.7c0,3.7-3,6.7-6.7,6.7s-6.7-3-6.7-6.7S244.8,373.9,248.4,373.9
	"/>
<path id="Pfad_21160" class="st5" d="M259.2,362.4c3.7,0,6.7,3,6.7,6.7l0,0c0,3.7-3,6.7-6.7,6.7l0,0c-3.7,0-6.7-3-6.7-6.7
	S255.5,362.4,259.2,362.4"/>
<path id="Pfad_21161" class="st3" d="M269.5,350.6c3.7,0,6.7,3,6.7,6.7s-3,6.7-6.7,6.7s-6.7-3-6.7-6.7S265.8,350.6,269.5,350.6"/>
<path id="Pfad_21162" class="st3" d="M27.4,518.5c3.7,0,6.7,3,6.7,6.7c0,3.7-3,6.7-6.7,6.7s-6.7-3-6.7-6.7
	C20.8,521.5,23.8,518.5,27.4,518.5"/>
<path id="Pfad_21163" class="st4" d="M42.6,514.5c3.7,0,6.7,3,6.7,6.7l0,0c0,3.7-3,6.7-6.7,6.7c-3.7,0-6.7-3-6.7-6.7
	C36,517.5,39,514.5,42.6,514.5L42.6,514.5"/>
<path id="Pfad_21164" class="st5" d="M72.6,505c3.7,0,6.7,3,6.7,6.7c0,3.7-3,6.7-6.7,6.7s-6.7-3-6.7-6.7C66,507.9,68.9,505,72.6,505
	"/>
<path id="Pfad_21165" class="st5" d="M116.3,487.1c3.7,0,6.7,3,6.7,6.7c0,3.7-3,6.7-6.7,6.7s-6.7-3-6.7-6.7
	C109.6,490.1,112.6,487.1,116.3,487.1"/>
<path id="Pfad_21166" class="st3" d="M197.4,439.1c3.7,0,6.7,3,6.7,6.7c0,3.7-3,6.7-6.7,6.7s-6.7-3-6.7-6.7
	C190.7,442.1,193.7,439.1,197.4,439.1"/>
<path id="Pfad_21167" class="st3" d="M209.9,429.6c3.7,0,6.7,3,6.7,6.7l0,0c0,3.7-3,6.7-6.7,6.7l0,0c-3.7,0-6.7-3-6.7-6.7l0,0
	C203.2,432.6,206.2,429.6,209.9,429.6L209.9,429.6"/>
<path id="Pfad_21168" class="st5" d="M267.6,376.4c3.7,0,6.7,3,6.7,6.7s-3,6.7-6.7,6.7s-6.7-3-6.7-6.7l0,0
	C261,379.4,264,376.4,267.6,376.4L267.6,376.4"/>
<path id="Pfad_21169" class="st3" d="M278.1,364.6c3.7,0,6.7,3,6.7,6.7s-3,6.7-6.7,6.7s-6.7-3-6.7-6.7S274.4,364.6,278.1,364.6"/>
<path id="Pfad_21170" class="st3" d="M288.2,352.5c3.7,0,6.7,3,6.7,6.7s-3,6.7-6.7,6.7c-3.7,0-6.7-3-6.7-6.7
	C281.5,355.5,284.5,352.5,288.2,352.5"/>
<path id="Pfad_21171" class="st3" d="M297.9,340.2c3.7,0,6.7,3,6.7,6.7s-3,6.7-6.7,6.7s-6.7-3-6.7-6.7S294.2,340.2,297.9,340.2"/>
<path id="Pfad_21172" class="st5" d="M392.2,109.9c3.7,0,6.7,3,6.7,6.7s-3,6.7-6.7,6.7s-6.7-3-6.7-6.7
	C385.5,112.9,388.5,109.9,392.2,109.9"/>
<path id="Pfad_21173" class="st3" d="M411,15.8c3.7,0,6.7,3,6.7,6.7l0,0c0,3.7-3,6.7-6.7,6.7c-3.7,0-6.7-3-6.7-6.7l0,0
	C404.3,18.8,407.3,15.8,411,15.8L411,15.8"/>
<path id="Pfad_21174" class="st5" d="M97.9,512.1c3.7,0,6.7,3,6.7,6.7c0,3.7-3,6.7-6.7,6.7s-6.7-3-6.7-6.7
	C91.3,515.1,94.3,512.1,97.9,512.1"/>
<path id="Pfad_21175" class="st3" d="M126.6,499.5c3.7,0,6.7,3,6.7,6.7l0,0c0,3.7-3,6.7-6.7,6.7l0,0c-3.7,0-6.7-3-6.7-6.7l0,0
	C120,502.5,122.9,499.5,126.6,499.5L126.6,499.5"/>
<path id="Pfad_21176" class="st3" d="M154.5,485.1c3.7,0,6.7,3,6.7,6.7c0,3.7-3,6.7-6.7,6.7s-6.7-3-6.7-6.7
	C147.8,488.1,150.8,485.1,154.5,485.1"/>
<path id="Pfad_21177" class="st4" d="M168,477.3c3.7,0,6.7,3,6.7,6.7c0,3.7-3,6.7-6.7,6.7s-6.7-3-6.7-6.7
	C161.4,480.3,164.3,477.3,168,477.3"/>
<path id="Pfad_21178" class="st3" d="M243.7,421.8c3.7,0,6.7,3,6.7,6.7s-3,6.7-6.7,6.7s-6.7-3-6.7-6.7
	C237.1,424.8,240,421.8,243.7,421.8"/>
<path id="Pfad_21179" class="st5" d="M266.5,400.2c3.7,0,6.7,3,6.7,6.7c0,3.7-3,6.7-6.7,6.7c-3.7,0-6.7-3-6.7-6.7
	S262.8,400.2,266.5,400.2"/>
<path id="Pfad_21180" class="st3" d="M287.9,377.3c3.7,0,6.7,3,6.7,6.7s-3,6.7-6.7,6.7s-6.7-3-6.7-6.7S284.2,377.3,287.9,377.3"/>
<path id="Pfad_21181" class="st5" d="M298,365.3c3.7,0,6.7,3,6.7,6.7s-3,6.7-6.7,6.7s-6.7-3-6.7-6.7S294.3,365.3,298,365.3"/>
<path id="Pfad_21182" class="st4" d="M427.4,31.4c3.7,0,6.7,3,6.7,6.7c0,3.7-3,6.7-6.7,6.7c-3.7,0-6.7-3-6.7-6.7l0,0
	C420.7,34.4,423.7,31.4,427.4,31.4"/>
<path id="Pfad_21183" class="st3" d="M426.6,15.8c3.7,0,6.7,3,6.7,6.7s-3,6.7-6.7,6.7s-6.7-3-6.7-6.7S423,15.8,426.6,15.8"/>
<path id="Pfad_21184" class="st3" d="M425.5,0.1c3.7,0,6.7,3,6.7,6.7s-3,6.7-6.7,6.7c-3.7,0-6.7-3-6.7-6.7l0,0
	C418.8,3.1,421.8,0.1,425.5,0.1"/>
<path id="Pfad_21185" class="st3" d="M91.1,531.6c3.7,0,6.7,3,6.7,6.7c0,3.7-3,6.7-6.7,6.7s-6.7-3-6.7-6.7
	C84.5,534.5,87.4,531.6,91.1,531.6"/>
<path id="Pfad_21186" class="st5" d="M134.4,513.1c3.7,0,6.7,3,6.7,6.7c0,3.7-3,6.7-6.7,6.7s-6.7-3-6.7-6.7
	C127.8,516.1,130.7,513.1,134.4,513.1"/>
<path id="Pfad_21187" class="st3" d="M162.3,498.7c3.7,0,6.7,3,6.7,6.7c0,3.7-3,6.7-6.7,6.7s-6.7-3-6.7-6.7
	C155.6,501.7,158.6,498.7,162.3,498.7"/>
<path id="Pfad_21188" class="st3" d="M189.2,482.6c3.7,0,6.7,3,6.7,6.7l0,0c0,3.7-3,6.7-6.7,6.7l0,0c-3.7,0-6.7-3-6.7-6.7l0,0
	C182.6,485.6,185.5,482.6,189.2,482.6L189.2,482.6"/>
<path id="Pfad_21189" class="st5" d="M239.9,445.7c3.7,0,6.7,3,6.7,6.7c0,3.7-3,6.7-6.7,6.7c-3.7,0-6.7-3-6.7-6.7
	C233.2,448.7,236.2,445.7,239.9,445.7"/>
<path id="Pfad_21190" class="st5" d="M274.8,414.1c3.7,0,6.7,3,6.7,6.7s-3,6.7-6.7,6.7s-6.7-3-6.7-6.7
	C268.1,417.1,271.1,414.1,274.8,414.1L274.8,414.1"/>
<path id="Pfad_21191" class="st3" d="M316.5,367.3c3.7,0,6.7,3,6.7,6.7s-3,6.7-6.7,6.7c-3.7,0-6.7-3-6.7-6.7
	C309.9,370.3,312.9,367.3,316.5,367.3"/>
<path id="Pfad_21192" class="st3" d="M442.3,15.7c3.7,0,6.7,3,6.7,6.7c0,3.7-3,6.7-6.7,6.7s-6.7-3-6.7-6.7S438.6,15.7,442.3,15.7"/>
<path id="Pfad_21193" class="st3" d="M23.7,567.6c3.7,0,6.7,3,6.7,6.7l0,0c0,3.7-3,6.7-6.7,6.7l0,0c-3.7,0-6.7-3-6.7-6.7l0,0
	C17,570.6,20,567.6,23.7,567.6L23.7,567.6"/>
<path id="Pfad_21194" class="st4" d="M98.9,545.4c3.7,0,6.7,3,6.7,6.7c0,3.7-3,6.7-6.7,6.7c-3.7,0-6.7-3-6.7-6.7
	C92.3,548.3,95.3,545.4,98.9,545.4"/>
<path id="Pfad_21195" class="st4" d="M156.3,519.7c3.7,0,6.7,3,6.7,6.7c0,3.7-3,6.7-6.7,6.7l0,0c-3.7,0-6.7-3-6.7-6.7l0,0
	C149.6,522.7,152.6,519.7,156.3,519.7"/>
<path id="Pfad_21196" class="st3" d="M197.1,496.2c3.7,0,6.7,3,6.7,6.7c0,3.7-3,6.7-6.7,6.7s-6.7-3-6.7-6.7
	C190.4,499.2,193.4,496.2,197.1,496.2"/>
<path id="Pfad_21197" class="st5" d="M210.2,487.5c3.7,0,6.7,3,6.7,6.7s-3,6.7-6.7,6.7s-6.7-3-6.7-6.7
	C203.5,490.5,206.5,487.5,210.2,487.5"/>
<path id="Pfad_21198" class="st3" d="M223.1,478.5c3.7,0,6.7,3,6.7,6.7s-3,6.7-6.7,6.7c-3.7,0-6.7-3-6.7-6.7
	C216.4,481.5,219.4,478.5,223.1,478.5"/>
<path id="Pfad_21199" class="st4" d="M235.6,469.1c3.7,0,6.7,3,6.7,6.7l0,0c0,3.7-3,6.7-6.7,6.7s-6.7-3-6.7-6.7
	S232,469.1,235.6,469.1"/>
<path id="Pfad_21200" class="st4" d="M248,459.3c3.7,0,6.7,3,6.7,6.7c0,3.7-3,6.7-6.7,6.7s-6.7-3-6.7-6.7S244.3,459.3,248,459.3"/>
<path id="Pfad_21201" class="st3" d="M271.7,438.7c3.7,0,6.7,3,6.7,6.7s-3,6.7-6.7,6.7s-6.7-3-6.7-6.7S268,438.7,271.7,438.7"/>
<path id="Pfad_21202" class="st3" d="M283.1,427.9c3.7,0,6.7,3,6.7,6.7l0,0c0,3.7-3,6.7-6.7,6.7s-6.7-3-6.7-6.7
	S279.4,427.9,283.1,427.9L283.1,427.9"/>
<path id="Pfad_21203" class="st3" d="M294.1,416.8c3.7,0,6.7,3,6.7,6.7c0,3.7-3,6.7-6.7,6.7c-3.7,0-6.7-3-6.7-6.7
	S290.5,416.8,294.1,416.8"/>
<path id="Pfad_21204" class="st3" d="M335,369c3.7,0,6.7,3,6.7,6.7s-3,6.7-6.7,6.7c-3.7,0-6.7-3-6.7-6.7
	C328.3,372,331.3,369,335,369"/>
<path id="Pfad_21205" class="st5" d="M398.5,260.9c3.7,0,6.7,3,6.7,6.7l0,0c0,3.7-3,6.7-6.7,6.7l0,0c-3.7,0-6.7-3-6.7-6.7
	C391.8,263.9,394.8,260.9,398.5,260.9"/>
<path id="Pfad_21206" class="st3" d="M456.9,0c3.7,0,6.7,3,6.7,6.7l0,0c0,3.7-3,6.7-6.7,6.7s-6.7-3-6.7-6.7S453.2,0,456.9,0L456.9,0
	"/>
<path id="Pfad_21207" class="st4" d="M106.8,559.2c3.7,0,6.7,3,6.7,6.7c0,3.7-3,6.7-6.7,6.7s-6.7-3-6.7-6.7
	C100.1,562.1,103.1,559.2,106.8,559.2"/>
<path id="Pfad_21208" class="st3" d="M177.9,525.8c3.7,0,6.7,3,6.7,6.7c0,3.7-3,6.7-6.7,6.7s-6.7-3-6.7-6.7
	C171.3,528.8,174.2,525.8,177.9,525.8"/>
<path id="Pfad_21209" class="st3" d="M218.1,501.1c3.7,0,6.7,3,6.7,6.7s-3,6.7-6.7,6.7s-6.7-3-6.7-6.7S214.4,501.1,218.1,501.1"/>
<path id="Pfad_21210" class="st5" d="M231,492.1c3.7,0,6.7,3,6.7,6.7s-3,6.7-6.7,6.7s-6.7-3-6.7-6.7S227.3,492.1,231,492.1"/>
<path id="Pfad_21211" class="st4" d="M243.6,482.7c3.7,0,6.7,3,6.7,6.7s-3,6.7-6.7,6.7s-6.7-3-6.7-6.7
	C237,485.7,239.9,482.7,243.6,482.7"/>
<path id="Pfad_21212" class="st5" d="M268.1,462.9c3.7,0,6.7,3,6.7,6.7s-3,6.7-6.7,6.7c-3.7,0-6.7-3-6.7-6.7
	C261.4,465.9,264.4,462.9,268.1,462.9"/>
<path id="Pfad_21213" class="st3" d="M279.8,452.5c3.7,0,6.7,3,6.7,6.7s-3,6.7-6.7,6.7s-6.7-3-6.7-6.7S276.1,452.5,279.8,452.5"/>
<path id="Pfad_21214" class="st3" d="M302.5,430.6c3.7,0,6.7,3,6.7,6.7s-3,6.7-6.7,6.7s-6.7-3-6.7-6.7
	C295.8,433.6,298.8,430.6,302.5,430.6"/>
<path id="Pfad_21215" class="st4" d="M353.3,370.7c3.7,0,6.7,3,6.7,6.7l0,0c0,3.7-3,6.7-6.7,6.7s-6.7-3-6.7-6.7
	S349.6,370.7,353.3,370.7L353.3,370.7"/>
<path id="Pfad_21216" class="st3" d="M362.4,357.9c3.7,0,6.7,3,6.7,6.7l0,0c0,3.7-3,6.7-6.7,6.7l0,0c-3.7,0-6.7-3-6.7-6.7l0,0
	C355.7,360.8,358.7,357.9,362.4,357.9"/>
<path id="Pfad_21217" class="st4" d="M415.3,261.5c3.7,0,6.7,3,6.7,6.7l0,0c0,3.7-3,6.7-6.7,6.7l0,0c-3.7,0-6.7-3-6.7-6.7
	S411.6,261.5,415.3,261.5L415.3,261.5"/>
<path id="Pfad_21218" class="st3" d="M472.6,0.2c3.7,0,6.7,3,6.7,6.7s-3,6.7-6.7,6.7s-6.7-3-6.7-6.7S468.9,0.1,472.6,0.2"/>
<path id="Pfad_21219" class="st3" d="M12,601.9c3.7,0,6.7,3,6.7,6.7c0,3.7-3,6.7-6.7,6.7s-6.7-3-6.7-6.7
	C5.3,604.9,8.3,601.9,12,601.9"/>
<path id="Pfad_21220" class="st5" d="M42.7,595.4c3.7,0,6.7,3,6.7,6.7l0,0c0,3.7-3,6.7-6.7,6.7l0,0c-3.7,0-6.7-3-6.7-6.7l0,0
	C36,598.4,39,595.4,42.7,595.4L42.7,595.4"/>
<path id="Pfad_21221" class="st5" d="M146.2,559.5c3.7,0,6.7,3,6.7,6.7c0,3.7-3,6.7-6.7,6.7c-3.7,0-6.7-3-6.7-6.7
	C139.5,562.5,142.5,559.5,146.2,559.5"/>
<path id="Pfad_21222" class="st3" d="M160.4,552.8c3.7,0,6.7,3,6.7,6.7c0,3.7-3,6.7-6.7,6.7s-6.7-3-6.7-6.7
	C153.7,555.8,156.7,552.8,160.4,552.8"/>
<path id="Pfad_21223" class="st3" d="M174.3,545.7c3.7,0,6.7,3,6.7,6.7c0,3.7-3,6.7-6.7,6.7s-6.7-3-6.7-6.7
	C167.7,548.6,170.6,545.6,174.3,545.7"/>
<path id="Pfad_21224" class="st3" d="M201.6,530.2c3.7,0,6.7,3,6.7,6.7c0,3.7-3,6.7-6.7,6.7s-6.7-3-6.7-6.7
	C194.9,533.2,197.9,530.2,201.6,530.2"/>
<path id="Pfad_21225" class="st5" d="M214.9,522c3.7,0,6.7,3,6.7,6.7s-3,6.7-6.7,6.7s-6.7-3-6.7-6.7
	C208.3,524.9,211.2,522,214.9,522"/>
<path id="Pfad_21226" class="st3" d="M240.9,504.3c3.7,0,6.7,3,6.7,6.7c0,3.7-3,6.7-6.7,6.7c-3.7,0-6.7-3-6.7-6.7
	C234.2,507.3,237.2,504.3,240.9,504.3"/>
<path id="Pfad_21227" class="st3" d="M265.8,485.2c3.7,0,6.7,3,6.7,6.7s-3,6.7-6.7,6.7s-6.7-3-6.7-6.7S262.1,485.2,265.8,485.2"/>
<path id="Pfad_21228" class="st3" d="M419.7,289.8c3.7,0,6.7,3,6.7,6.7c0,3.7-3,6.7-6.7,6.7s-6.7-3-6.7-6.7S416,289.8,419.7,289.8"
	/>
<path id="Pfad_21229" class="st3" d="M426.3,275.6c3.7,0,6.7,3,6.7,6.7s-3,6.7-6.7,6.7l0,0c-3.7,0-6.7-3-6.7-6.7l0,0
	C419.6,278.6,422.6,275.6,426.3,275.6"/>
<path id="Pfad_21230" class="st4" d="M50.5,609.6c3.7,0,6.7,3,6.7,6.7c0,3.7-3,6.7-6.7,6.7c-3.7,0-6.7-3-6.7-6.7
	C43.9,612.6,46.8,609.6,50.5,609.6"/>
<path id="Pfad_21231" class="st4" d="M80.8,601.2c3.7,0,6.7,3,6.7,6.7c0,3.7-3,6.7-6.7,6.7c-3.7,0-6.7-3-6.7-6.7
	C74.1,604.2,77.1,601.2,80.8,601.2L80.8,601.2"/>
<path id="Pfad_21232" class="st3" d="M125.2,585.6c3.7,0,6.7,3,6.7,6.7l0,0c0,3.7-3,6.7-6.7,6.7c-3.7,0-6.7-3-6.7-6.7
	C118.5,588.6,121.5,585.6,125.2,585.6"/>
<path id="Pfad_21233" class="st5" d="M139.7,579.6c3.7,0,6.7,3,6.7,6.7c0,3.7-3,6.7-6.7,6.7s-6.7-3-6.7-6.7
	C133,582.6,136,579.6,139.7,579.6"/>
<path id="Pfad_21234" class="st3" d="M168.2,566.4c3.7,0,6.7,3,6.7,6.7c0,3.7-3,6.7-6.7,6.7c-3.7,0-6.7-3-6.7-6.7l0,0
	C161.5,569.4,164.5,566.4,168.2,566.4L168.2,566.4"/>
<path id="Pfad_21235" class="st5" d="M195.9,551.7c3.7,0,6.7,3,6.7,6.7c0,3.7-3,6.7-6.7,6.7s-6.7-3-6.7-6.7
	C189.2,554.7,192.2,551.7,195.9,551.7"/>
<path id="Pfad_21236" class="st5" d="M235.9,526.9c3.7,0,6.7,3,6.7,6.7c0,3.7-3,6.7-6.7,6.7l0,0c-3.7,0-6.7-3-6.7-6.7
	C229.2,529.9,232.2,526.9,235.9,526.9"/>
<path id="Pfad_21237" class="st5" d="M248.8,517.9c3.7,0,6.7,3,6.7,6.7c0,3.7-3,6.7-6.7,6.7l0,0c-3.7,0-6.7-3-6.7-6.7
	C242.1,520.9,245.1,517.9,248.8,517.9"/>
<path id="Pfad_21238" class="st3" d="M297.7,478.6c3.7,0,6.7,3,6.7,6.7c0,3.7-3,6.7-6.7,6.7c-3.7,0-6.7-3-6.7-6.7l0,0
	C291,481.6,294,478.6,297.7,478.6"/>
<path id="Pfad_21239" class="st3" d="M309.2,467.9c3.7,0,6.7,3,6.7,6.7s-3,6.7-6.7,6.7s-6.7-3-6.7-6.7
	C302.6,470.9,305.5,467.9,309.2,467.9"/>
<path id="Pfad_21240" class="st3" d="M390.4,372.4c3.7,0,6.7,3,6.7,6.7c0,3.7-3,6.7-6.7,6.7l0,0c-3.7,0-6.7-3-6.7-6.7
	S386.7,372.4,390.4,372.4"/>
<path id="Pfad_21241" class="st4" d="M479.9,156.4c3.7,0,6.7,3,6.7,6.7l0,0c0,3.7-3,6.7-6.7,6.7s-6.7-3-6.7-6.7
	S476.2,156.4,479.9,156.4L479.9,156.4"/>
<path id="Pfad_21242" class="st3" d="M482.6,140.9c3.7,0,6.7,3,6.7,6.7l0,0c0,3.7-3,6.7-6.7,6.7l0,0c-3.7,0-6.7-3-6.7-6.7l0,0
	C475.9,143.9,478.9,140.9,482.6,140.9L482.6,140.9"/>
<path id="Pfad_21243" class="st3" d="M504,0c3.7,0,6.7,3,6.7,6.7c0,3.7-3,6.7-6.7,6.7c-3.7,0-6.7-3-6.7-6.7C497.4,3,500.4,0,504,0
	L504,0"/>
<path id="Pfad_21244" class="st3" d="M189.9,572.8c3.7,0,6.7,3,6.7,6.7c0,3.7-3,6.7-6.7,6.7s-6.7-3-6.7-6.7
	C183.3,575.8,186.3,572.8,189.9,572.8"/>
<path id="Pfad_21245" class="st3" d="M230.7,549.1c3.7,0,6.7,3,6.7,6.7s-3,6.7-6.7,6.7s-6.7-3-6.7-6.7
	C224,552.1,227,549.1,230.7,549.1"/>
<path id="Pfad_21246" class="st3" d="M243.8,540.5c3.7,0,6.7,3,6.7,6.7s-3,6.7-6.7,6.7s-6.7-3-6.7-6.7S240.1,540.5,243.8,540.5"/>
<path id="Pfad_21247" class="st3" d="M256.7,531.5c3.7,0,6.7,3,6.7,6.7s-3,6.7-6.7,6.7s-6.7-3-6.7-6.7
	C250,534.5,253,531.5,256.7,531.5"/>
<path id="Pfad_21248" class="st3" d="M269.4,522.2c3.7,0,6.7,3,6.7,6.7s-3,6.7-6.7,6.7s-6.7-3-6.7-6.7S265.7,522.2,269.4,522.2"/>
<path id="Pfad_21249" class="st4" d="M492.7,171.9c3.7,0,6.7,3,6.7,6.7c0,3.7-3,6.7-6.7,6.7c-3.7,0-6.7-3-6.7-6.7
	C486,174.9,489,171.9,492.7,171.9"/>
<path id="Pfad_21250" class="st4" d="M519.8,0.2c3.7,0,6.7,3,6.7,6.7s-3,6.7-6.7,6.7s-6.7-3-6.7-6.7S516.1,0.2,519.8,0.2"/>
<path id="Pfad_21251" class="st3" d="M54.2,641c3.7,0,6.7,3,6.7,6.7c0,3.7-3,6.7-6.7,6.7s-6.7-3-6.7-6.7C47.5,644,50.5,641,54.2,641
	"/>
<path id="Pfad_21252" class="st4" d="M200.1,585.1c3.7,0,6.7,3,6.7,6.7c0,3.7-3,6.7-6.7,6.7s-6.7-3-6.7-6.7l0,0
	C193.5,588.1,196.4,585.2,200.1,585.1L200.1,585.1"/>
<path id="Pfad_21253" class="st5" d="M213.9,577.5c3.7,0,6.7,3,6.7,6.7s-3,6.7-6.7,6.7s-6.7-3-6.7-6.7
	C207.2,580.5,210.2,577.5,213.9,577.5"/>
<path id="Pfad_21254" class="st5" d="M253.7,552.7c3.7,0,6.7,3,6.7,6.7c0,3.7-3,6.7-6.7,6.7s-6.7-3-6.7-6.7S250,552.7,253.7,552.7"
	/>
<path id="Pfad_21255" class="st3" d="M266.6,543.7c3.7,0,6.7,3,6.7,6.7s-3,6.7-6.7,6.7s-6.7-3-6.7-6.7S262.9,543.7,266.6,543.7"/>
<path id="Pfad_21256" class="st3" d="M279.2,534.4c3.7,0,6.7,3,6.7,6.7c0,3.7-3,6.7-6.7,6.7c-3.7,0-6.7-3-6.7-6.7
	S275.5,534.4,279.2,534.4"/>
<path id="Pfad_21257" class="st3" d="M418.4,387c3.7,0,6.7,3,6.7,6.7s-3,6.7-6.7,6.7s-6.7-3-6.7-6.7S414.7,387,418.4,387"/>
<path id="Pfad_21258" class="st3" d="M221.7,591.1c3.7,0,6.7,3,6.7,6.7s-3,6.7-6.7,6.7c-3.7,0-6.7-3-6.7-6.7
	C215,594.1,218,591.1,221.7,591.1"/>
<path id="Pfad_21259" class="st3" d="M287.1,548c3.7,0,6.7,3,6.7,6.7l0,0c0,3.7-3,6.7-6.7,6.7c-3.7,0-6.7-3-6.7-6.7
	C280.5,551,283.5,548,287.1,548"/>
<path id="Pfad_21260" class="st4" d="M487.7,291.5c3.7,0,6.7,3,6.7,6.7s-3,6.7-6.7,6.7s-6.7-3-6.7-6.7S484,291.5,487.7,291.5"/>
<path id="Pfad_21261" class="st3" d="M215.8,612.3c3.7,0,6.7,3,6.7,6.7c0,3.7-3,6.7-6.7,6.7c-3.7,0-6.7-3-6.7-6.7
	C209.1,615.3,212.1,612.3,215.8,612.3"/>
<path id="Pfad_21262" class="st3" d="M229.5,604.7c3.7,0,6.7,3,6.7,6.7s-3,6.7-6.7,6.7l0,0c-3.7,0-6.7-3-6.7-6.7
	C222.8,607.6,225.8,604.7,229.5,604.7"/>
<path id="Pfad_21263" class="st3" d="M436.6,415.7c3.7,0,6.7,3,6.7,6.7c0,3.7-3,6.7-6.7,6.7l0,0c-3.7,0-6.7-3-6.7-6.7l0,0
	C430,418.7,433,415.7,436.6,415.7"/>
<path id="Pfad_21264" class="st3" d="M445.5,402.7c3.7,0,6.7,3,6.7,6.7s-3,6.7-6.7,6.7s-6.7-3-6.7-6.7S441.8,402.7,445.5,402.7"/>
<path id="Pfad_21265" class="st3" d="M575,225.1c3.7,0,6.7,3,6.7,6.7s-3,6.7-6.7,6.7s-6.7-3-6.7-6.7
	C568.3,228.1,571.3,225.1,575,225.1"/>
<path id="Pfad_21266" class="st4" d="M546,141c3.7,0,6.7,3,6.7,6.7s-3,6.7-6.7,6.7s-6.7-3-6.7-6.7S542.3,141,546,141"/>
<path id="Pfad_21267" class="st3" d="M548.1,125.4c3.7,0,6.7,3,6.7,6.7c0,3.7-3,6.7-6.7,6.7c-3.7,0-6.7-3-6.7-6.7
	S544.4,125.4,548.1,125.4"/>
<path id="Pfad_21268" class="st5" d="M181.4,646.8c3.7,0,6.7,3,6.7,6.7c0,3.7-3,6.7-6.7,6.7s-6.7-3-6.7-6.7
	C174.7,649.8,177.7,646.8,181.4,646.8"/>
<path id="Pfad_21269" class="st3" d="M223.6,625.9c3.7,0,6.7,3,6.7,6.7l0,0c0,3.7-3,6.7-6.7,6.7l0,0c-3.7,0-6.7-3-6.7-6.7
	S219.9,625.9,223.6,625.9L223.6,625.9"/>
<path id="Pfad_21270" class="st3" d="M436.4,442.7c3.7,0,6.7,3,6.7,6.7s-3,6.7-6.7,6.7s-6.7-3-6.7-6.7S432.7,442.7,436.4,442.7"/>
<path id="Pfad_21271" class="st3" d="M463.4,404c3.7,0,6.7,3,6.7,6.7c0,3.7-3,6.7-6.7,6.7s-6.7-3-6.7-6.7S459.7,404,463.4,404"/>
<path id="Pfad_21272" class="st3" d="M502,335.6c3.7,0,6.7,3,6.7,6.7c0,3.7-3,6.7-6.7,6.7s-6.7-3-6.7-6.7S498.3,335.6,502,335.6
	L502,335.6"/>
<path id="Pfad_21273" class="st4" d="M563.9,125.5c3.7,0,6.7,3,6.7,6.7s-3,6.7-6.7,6.7s-6.7-3-6.7-6.7l0,0
	C557.2,128.5,560.2,125.6,563.9,125.5L563.9,125.5"/>
<path id="Pfad_21274" class="st3" d="M177.4,665.7c3.7,0,6.7,3,6.7,6.7c0,3.7-3,6.7-6.7,6.7s-6.7-3-6.7-6.7
	C170.8,668.6,173.8,665.7,177.4,665.7"/>
<path id="Pfad_21275" class="st3" d="M312.9,587.5c3.7,0,6.7,3,6.7,6.7s-3,6.7-6.7,6.7s-6.7-3-6.7-6.7S309.2,587.5,312.9,587.5"/>
<path id="Pfad_21276" class="st3" d="M325.4,578c3.7,0,6.7,3,6.7,6.7l0,0c0,3.7-3,6.7-6.7,6.7l0,0c-3.7,0-6.7-3-6.7-6.7
	S321.7,578,325.4,578L325.4,578"/>
<path id="Pfad_21277" class="st3" d="M455.6,443.1c3.7,0,6.7,3,6.7,6.7c0,3.7-3,6.7-6.7,6.7s-6.7-3-6.7-6.7S451.9,443.1,455.6,443.1
	"/>
<path id="Pfad_21278" class="st3" d="M464.7,430.3c3.7,0,6.7,3,6.7,6.7s-3,6.7-6.7,6.7l0,0c-3.7,0-6.7-3-6.7-6.7l0,0
	C458,433.3,461,430.3,464.7,430.3L464.7,430.3"/>
<path id="Pfad_21279" class="st4" d="M473.4,417.3c3.7,0,6.7,3,6.7,6.7s-3,6.7-6.7,6.7c-3.7,0-6.7-3-6.7-6.7
	C466.8,420.3,469.7,417.3,473.4,417.3"/>
<path id="Pfad_21280" class="st3" d="M481.9,404.1c3.7,0,6.7,3,6.7,6.7s-3,6.7-6.7,6.7s-6.7-3-6.7-6.7S478.2,404.1,481.9,404.1"/>
<path id="Pfad_21281" class="st4" d="M583.5,78.5c3.7,0,6.7,3,6.7,6.7c0,3.7-3,6.7-6.7,6.7s-6.7-3-6.7-6.7S579.8,78.5,583.5,78.5"/>
<path id="Pfad_21282" class="st3" d="M66.2,718.6c3.7,0,6.7,3,6.7,6.7l0,0c0,3.7-3,6.7-6.7,6.7l0,0c-3.7,0-6.7-3-6.7-6.7l0,0
	C59.5,721.6,62.5,718.6,66.2,718.6L66.2,718.6"/>
<path id="Pfad_21283" class="st4" d="M81.4,714.9c3.7,0,6.7,3,6.7,6.7c0,3.7-3,6.7-6.7,6.7s-6.7-3-6.7-6.7
	C74.8,717.9,77.8,714.9,81.4,714.9"/>
<path id="Pfad_21284" class="st4" d="M482.7,431.7c3.7,0,6.7,3,6.7,6.7c0,3.7-3,6.7-6.7,6.7c-3.7,0-6.7-3-6.7-6.7
	S479,431.7,482.7,431.7"/>
<path id="Pfad_21285" class="st3" d="M499.6,405.3c3.7,0,6.7,3,6.7,6.7s-3,6.7-6.7,6.7s-6.7-3-6.7-6.7S495.9,405.3,499.6,405.3"/>
<path id="Pfad_21286" class="st3" d="M529.7,350.2c3.7,0,6.7,3,6.7,6.7s-3,6.7-6.7,6.7c-3.7,0-6.7-3-6.7-6.7l0,0
	C523,353.2,526,350.2,529.7,350.2"/>
<path id="Pfad_21287" class="st3" d="M536.4,336.1c3.7,0,6.7,3,6.7,6.7s-3,6.7-6.7,6.7s-6.7-3-6.7-6.7l0,0
	C529.8,339.1,532.8,336.1,536.4,336.1L536.4,336.1"/>
<path id="Pfad_21288" class="st3" d="M599.2,78.5c3.7,0,6.7,3,6.7,6.7s-3,6.7-6.7,6.7s-6.7-3-6.7-6.7S595.5,78.5,599.2,78.5"/>
<path id="Pfad_21289" class="st4" d="M58.7,736.3c3.7,0,6.7,3,6.7,6.7l0,0c0,3.7-3,6.7-6.7,6.7l0,0c-3.7,0-6.7-3-6.7-6.7
	C52.1,739.3,55.1,736.3,58.7,736.3"/>
<path id="Pfad_21290" class="st3" d="M74.1,732.9c3.7,0,6.7,3,6.7,6.7c0,3.7-3,6.7-6.7,6.7l0,0c-3.7,0-6.7-3-6.7-6.7l0,0
	C67.4,735.9,70.4,732.9,74.1,732.9"/>
<path id="Pfad_21291" class="st3" d="M473.5,471.6c3.7,0,6.7,3,6.7,6.7s-3,6.7-6.7,6.7c-3.7,0-6.7-3-6.7-6.7
	C466.8,474.6,469.8,471.6,473.5,471.6"/>
<path id="Pfad_21292" class="st3" d="M532.6,379c3.7,0,6.7,3,6.7,6.7s-3,6.7-6.7,6.7s-6.7-3-6.7-6.7l0,0
	C525.9,382,528.9,379,532.6,379L532.6,379"/>
<path id="Pfad_21293" class="st5" d="M539.8,365.1c3.7,0,6.7,3,6.7,6.7l0,0c0,3.7-3,6.7-6.7,6.7l0,0c-3.7,0-6.7-3-6.7-6.7
	S536.1,365.1,539.8,365.1L539.8,365.1"/>
<path id="Pfad_21294" class="st3" d="M546.7,351c3.7,0,6.7,3,6.7,6.7s-3,6.7-6.7,6.7s-6.7-3-6.7-6.7S543,351,546.7,351"/>
<path id="Pfad_21295" class="st4" d="M614.9,78.5c3.7,0,6.7,3,6.7,6.7l0,0c0,3.7-3,6.7-6.7,6.7c-3.7,0-6.7-3-6.7-6.7l0,0
	C608.2,81.5,611.2,78.5,614.9,78.5L614.9,78.5"/>
<path id="Pfad_21296" class="st3" d="M100.3,742.3c3.7,0,6.7,3,6.7,6.7c0,3.7-3,6.7-6.7,6.7s-6.7-3-6.7-6.7
	C93.6,745.3,96.6,742.3,100.3,742.3"/>
<path id="Pfad_21297" class="st3" d="M203.5,705.5c3.7,0,6.7,3,6.7,6.7s-3,6.7-6.7,6.7s-6.7-3-6.7-6.7l0,0
	C196.8,708.5,199.8,705.6,203.5,705.5L203.5,705.5"/>
<path id="Pfad_21298" class="st5" d="M543,392.6c3.7,0,6.7,3,6.7,6.7s-3,6.7-6.7,6.7s-6.7-3-6.7-6.7S539.3,392.6,543,392.6"/>
<path id="Pfad_21299" class="st3" d="M550.4,378.8c3.7,0,6.7,3,6.7,6.7s-3,6.7-6.7,6.7s-6.7-3-6.7-6.7S546.7,378.8,550.4,378.8"/>
<path id="Pfad_21300" class="st3" d="M557.4,364.8c3.7,0,6.7,3,6.7,6.7s-3,6.7-6.7,6.7s-6.7-3-6.7-6.7S553.7,364.8,557.4,364.8"/>
<path id="Pfad_21301" class="st3" d="M253.6,698.7c3.7,0,6.7,3,6.7,6.7s-3,6.7-6.7,6.7s-6.7-3-6.7-6.7S249.9,698.7,253.6,698.7"/>
<path id="Pfad_21302" class="st3" d="M567.5,379.6c3.7,0,6.7,3,6.7,6.7s-3,6.7-6.7,6.7s-6.7-3-6.7-6.7S563.9,379.6,567.5,379.6"/>
<path id="Pfad_21303" class="st5" d="M574.5,365.6c3.7,0,6.7,3,6.7,6.7s-3,6.7-6.7,6.7c-3.7,0-6.7-3-6.7-6.7l0,0
	C567.8,368.6,570.8,365.6,574.5,365.6L574.5,365.6"/>
<path id="Pfad_21304" class="st3" d="M160.8,756.2c3.7,0,6.7,3,6.7,6.7c0,3.7-3,6.7-6.7,6.7c-3.7,0-6.7-3-6.7-6.7
	C154.2,759.2,157.1,756.2,160.8,756.2"/>
<path id="Pfad_21305" class="st3" d="M302.4,689c3.7,0,6.7,3,6.7,6.7l0,0c0,3.7-3,6.7-6.7,6.7l0,0c-3.7,0-6.7-3-6.7-6.7l0,0
	C295.7,692,298.7,689,302.4,689L302.4,689"/>
<path id="Pfad_21306" class="st3" d="M510.6,500.5c3.7,0,6.7,3,6.7,6.7s-3,6.7-6.7,6.7s-6.7-3-6.7-6.7S506.9,500.5,510.6,500.5"/>
<path id="Pfad_21307" class="st5" d="M577.6,394.4c3.7,0,6.7,3,6.7,6.7c0,3.7-3,6.7-6.7,6.7s-6.7-3-6.7-6.7
	C570.9,397.4,573.9,394.4,577.6,394.4"/>
<path id="Pfad_21308" class="st4" d="M168.6,770.1c3.7,0,6.7,3,6.7,6.7c0,3.7-3,6.7-6.7,6.7s-6.7-3-6.7-6.7
	C162,773.1,165,770.1,168.6,770.1"/>
<path id="Pfad_21309" class="st4" d="M362.5,667.7c3.7,0,6.7,3,6.7,6.7s-3,6.7-6.7,6.7c-3.7,0-6.7-3-6.7-6.7
	C355.8,670.7,358.8,667.7,362.5,667.7"/>
<path id="Pfad_21310" class="st4" d="M587.5,409.2c3.7,0,6.7,3,6.7,6.7s-3,6.7-6.7,6.7s-6.7-3-6.7-6.7
	C580.8,412.2,583.8,409.2,587.5,409.2"/>
<path id="Pfad_21311" class="st3" d="M594.8,395.3c3.7,0,6.7,3,6.7,6.7l0,0c0,3.7-3,6.7-6.7,6.7c-3.7,0-6.7-3-6.7-6.7l0,0
	C588.1,398.3,591.1,395.3,594.8,395.3L594.8,395.3"/>
<path id="Pfad_21312" class="st3" d="M647,264.1c3.7,0,6.7,3,6.7,6.7s-3,6.7-6.7,6.7s-6.7-3-6.7-6.7S643.3,264.1,647,264.1"/>
<path id="Pfad_21313" class="st4" d="M359.5,689c3.7,0,6.7,3,6.7,6.7s-3,6.7-6.7,6.7s-6.7-3-6.7-6.7C352.9,692,355.9,689,359.5,689"
	/>
<path id="Pfad_21314" class="st4" d="M372.3,679.9c3.7,0,6.7,3,6.7,6.7s-3,6.7-6.7,6.7c-3.7,0-6.7-3-6.7-6.7l0,0
	C365.6,682.9,368.6,679.9,372.3,679.9"/>
<path id="Pfad_21315" class="st3" d="M590.3,436.5c3.7,0,6.7,3,6.7,6.7l0,0c0,3.7-3,6.7-6.7,6.7l0,0c-3.7,0-6.7-3-6.7-6.7
	S586.6,436.5,590.3,436.5"/>
<path id="Pfad_21316" class="st4" d="M597.9,422.8c3.7,0,6.7,3,6.7,6.7c0,3.7-3,6.7-6.7,6.7c-3.7,0-6.7-3-6.7-6.7
	S594.2,422.8,597.9,422.8"/>
<path id="Pfad_21317" class="st3" d="M51.1,833.6c3.7,0,6.7,3,6.7,6.7c0,3.7-3,6.7-6.7,6.7c-3.7,0-6.7-3-6.7-6.7l0,0
	C44.4,836.6,47.4,833.6,51.1,833.6L51.1,833.6"/>
<path id="Pfad_21318" class="st4" d="M583.5,477.9c3.7,0,6.7,3,6.7,6.7s-3,6.7-6.7,6.7s-6.7-3-6.7-6.7S579.8,477.9,583.5,477.9"/>
<path id="Pfad_21319" class="st3" d="M607.7,437.5c3.7,0,6.7,3,6.7,6.7c0,3.7-3,6.7-6.7,6.7c-3.7,0-6.7-3-6.7-6.7
	C601,440.5,604,437.5,607.7,437.5"/>
<path id="Pfad_21320" class="st4" d="M654.6,338.3c3.7,0,6.7,3,6.7,6.7l0,0c0,3.7-3,6.7-6.7,6.7s-6.7-3-6.7-6.7
	S650.9,338.3,654.6,338.3L654.6,338.3"/>
<path id="Pfad_21321" class="st3" d="M699.7,172.1c3.7,0,6.7,3,6.7,6.7s-3,6.7-6.7,6.7c-3.7,0-6.7-3-6.7-6.7l0,0
	C693.1,175.1,696,172.1,699.7,172.1L699.7,172.1"/>
<path id="Pfad_21322" class="st3" d="M725.1,31.4c3.7,0,6.7,3,6.7,6.7s-3,6.7-6.7,6.7c-3.7,0-6.7-3-6.7-6.7
	C718.4,34.4,721.4,31.4,725.1,31.4"/>
<path id="Pfad_21323" class="st3" d="M724.6,15.7c3.7,0,6.7,3,6.7,6.7l0,0c0,3.7-3,6.7-6.7,6.7l0,0c-3.7,0-6.7-3-6.7-6.7l0,0
	C718,18.7,720.9,15.7,724.6,15.7L724.6,15.7"/>
<path id="Pfad_21324" class="st3" d="M295.1,765.3c3.7,0,6.7,3,6.7,6.7s-3,6.7-6.7,6.7s-6.7-3-6.7-6.7S291.4,765.3,295.1,765.3"/>
<path id="Pfad_21325" class="st3" d="M483.9,625.9c3.7,0,6.7,3,6.7,6.7l0,0c0,3.7-3,6.7-6.7,6.7s-6.7-3-6.7-6.7
	S480.2,625.9,483.9,625.9"/>
<path id="Pfad_21326" class="st3" d="M617.4,452.2c3.7,0,6.7,3,6.7,6.7l0,0c0,3.7-3,6.7-6.7,6.7l0,0c-3.7,0-6.7-3-6.7-6.7
	S613.7,452.2,617.4,452.2"/>
<path id="Pfad_21327" class="st5" d="M625.1,438.5c3.7,0,6.7,3,6.7,6.7s-3,6.7-6.7,6.7s-6.7-3-6.7-6.7
	C618.4,441.5,621.4,438.5,625.1,438.5"/>
<path id="Pfad_21328" class="st3" d="M632.5,424.6c3.7,0,6.7,3,6.7,6.7s-3,6.7-6.7,6.7s-6.7-3-6.7-6.7S628.8,424.6,632.5,424.6"/>
<path id="Pfad_21329" class="st3" d="M671.2,338.8c3.7,0,6.7,3,6.7,6.7c0,3.7-3,6.7-6.7,6.7s-6.7-3-6.7-6.7S667.5,338.8,671.2,338.8
	"/>
<path id="Pfad_21330" class="st4" d="M710.2,203.2c3.7,0,6.7,3,6.7,6.7s-3,6.7-6.7,6.7s-6.7-3-6.7-6.7S706.5,203.2,710.2,203.2"/>
<path id="Pfad_21331" class="st3" d="M715.6,172.2c3.7,0,6.7,3,6.7,6.7s-3,6.7-6.7,6.7s-6.7-3-6.7-6.7S711.9,172.2,715.6,172.2"/>
<path id="Pfad_21332" class="st3" d="M719.8,141.1c3.7,0,6.7,3,6.7,6.7s-3,6.7-6.7,6.7s-6.7-3-6.7-6.7S716.1,141.1,719.8,141.1"/>
<path id="Pfad_21333" class="st4" d="M721.5,125.5c3.7,0,6.7,3,6.7,6.7l0,0c0,3.7-3,6.7-6.7,6.7l0,0c-3.7,0-6.7-3-6.7-6.7l0,0
	C714.8,128.5,717.8,125.5,721.5,125.5L721.5,125.5"/>
<path id="Pfad_21334" class="st3" d="M740.8,31.5c3.7,0,6.7,3,6.7,6.7s-3,6.7-6.7,6.7s-6.7-3-6.7-6.7l0,0
	C734.1,34.5,737.1,31.5,740.8,31.5"/>
<path id="Pfad_21335" class="st3" d="M305.2,777.6c3.7,0,6.7,3,6.7,6.7s-3,6.7-6.7,6.7c-3.7,0-6.7-3-6.7-6.7
	C298.6,780.6,301.6,777.6,305.2,777.6"/>
<path id="Pfad_21336" class="st3" d="M435.3,690.6c3.7,0,6.7,3,6.7,6.7c0,3.7-3,6.7-6.7,6.7l0,0c-3.7,0-6.7-3-6.7-6.7
	S431.6,690.6,435.3,690.6"/>
<path id="Pfad_21337" class="st5" d="M447.3,680.6c3.7,0,6.7,3,6.7,6.7s-3,6.7-6.7,6.7s-6.7-3-6.7-6.7S443.6,680.6,447.3,680.6"/>
<path id="Pfad_21338" class="st3" d="M459.2,670.4c3.7,0,6.7,3,6.7,6.7l0,0c0,3.7-3,6.7-6.7,6.7l0,0c-3.7,0-6.7-3-6.7-6.7l0,0
	C452.5,673.4,455.5,670.4,459.2,670.4L459.2,670.4"/>
<path id="Pfad_21339" class="st5" d="M627.7,465.7c3.7,0,6.7,3,6.7,6.7s-3,6.7-6.7,6.7s-6.7-3-6.7-6.7S624,465.7,627.7,465.7"/>
<path id="Pfad_21340" class="st3" d="M635.5,452c3.7,0,6.7,3,6.7,6.7c0,3.7-3,6.7-6.7,6.7c-3.7,0-6.7-3-6.7-6.7S631.8,452,635.5,452
	"/>
<path id="Pfad_21341" class="st3" d="M643,438.3c3.7,0,6.7,3,6.7,6.7s-3,6.7-6.7,6.7s-6.7-3-6.7-6.7S639.3,438.3,643,438.3"/>
<path id="Pfad_21342" class="st4" d="M650.2,424.4c3.7,0,6.7,3,6.7,6.7s-3,6.7-6.7,6.7s-6.7-3-6.7-6.7
	C643.6,427.4,646.5,424.4,650.2,424.4"/>
<path id="Pfad_21343" class="st3" d="M682.5,353.1c3.7,0,6.7,3,6.7,6.7s-3,6.7-6.7,6.7s-6.7-3-6.7-6.7S678.8,353.1,682.5,353.1"/>
<path id="Pfad_21344" class="st4" d="M688.1,338.5c3.7,0,6.7,3,6.7,6.7s-3,6.7-6.7,6.7s-6.7-3-6.7-6.7
	C681.5,341.4,684.4,338.5,688.1,338.5"/>
<path id="Pfad_21345" class="st4" d="M723.1,218.2c3.7,0,6.7,3,6.7,6.7c0,3.7-3,6.7-6.7,6.7c-3.7,0-6.7-3-6.7-6.7
	S719.4,218.2,723.1,218.2"/>
<path id="Pfad_21346" class="st3" d="M726.2,202.9c3.7,0,6.7,3,6.7,6.7c0,3.7-3,6.7-6.7,6.7s-6.7-3-6.7-6.7S722.5,202.9,726.2,202.9
	"/>
<path id="Pfad_21347" class="st4" d="M729,187.4c3.7,0,6.7,3,6.7,6.7s-3,6.7-6.7,6.7c-3.7,0-6.7-3-6.7-6.7S725.3,187.4,729,187.4"/>
<path id="Pfad_21348" class="st3" d="M731.5,172c3.7,0,6.7,3,6.7,6.7s-3,6.7-6.7,6.7s-6.7-3-6.7-6.7S727.8,172,731.5,172"/>
<path id="Pfad_21349" class="st3" d="M737.2,125.3c3.7,0,6.7,3,6.7,6.7l0,0c0,3.7-3,6.7-6.7,6.7l0,0c-3.7,0-6.7-3-6.7-6.7l0,0
	C730.6,128.3,733.5,125.3,737.2,125.3"/>
<path id="Pfad_21350" class="st3" d="M756,15.8c3.7,0,6.7,3,6.7,6.7c0,3.7-3,6.7-6.7,6.7s-6.7-3-6.7-6.7
	C749.3,18.8,752.3,15.8,756,15.8"/>
<path id="Pfad_21351" class="st5" d="M455.4,694.3c3.7,0,6.7,3,6.7,6.7l0,0c0,3.7-3,6.7-6.7,6.7c-3.7,0-6.7-3-6.7-6.7
	C448.7,697.3,451.7,694.3,455.4,694.3"/>
<path id="Pfad_21352" class="st5" d="M620.7,506.9c3.7,0,6.7,3,6.7,6.7l0,0c0,3.7-3,6.7-6.7,6.7c-3.7,0-6.7-3-6.7-6.7l0,0
	C614.1,509.9,617,506.9,620.7,506.9L620.7,506.9"/>
<path id="Pfad_21353" class="st3" d="M645.2,466.7c3.7,0,6.7,3,6.7,6.7l0,0c0,3.7-3,6.7-6.7,6.7l0,0c-3.7,0-6.7-3-6.7-6.7l0,0
	C638.5,469.7,641.5,466.7,645.2,466.7L645.2,466.7"/>
<path id="Pfad_21354" class="st5" d="M652.8,453c3.7,0,6.7,3,6.7,6.7s-3,6.7-6.7,6.7s-6.7-3-6.7-6.7S649.2,453,652.8,453"/>
<path id="Pfad_21355" class="st3" d="M660.2,439.2c3.7,0,6.7,3,6.7,6.7s-3,6.7-6.7,6.7s-6.7-3-6.7-6.7S656.5,439.2,660.2,439.2"/>
<path id="Pfad_21356" class="st3" d="M693.3,368.1c3.7,0,6.7,3,6.7,6.7c0,3.7-3,6.7-6.7,6.7s-6.7-3-6.7-6.7S689.6,368.1,693.3,368.1
	"/>
<path id="Pfad_21357" class="st3" d="M699.1,353.6c3.7,0,6.7,3,6.7,6.7s-3,6.7-6.7,6.7s-6.7-3-6.7-6.7S695.4,353.6,699.1,353.6"/>
<path id="Pfad_21358" class="st3" d="M739,218.4c3.7,0,6.7,3,6.7,6.7s-3,6.7-6.7,6.7s-6.7-3-6.7-6.7l0,0
	C732.4,221.4,735.4,218.4,739,218.4L739,218.4"/>
<path id="Pfad_21359" class="st5" d="M742.1,203c3.7,0,6.7,3,6.7,6.7s-3,6.7-6.7,6.7c-3.7,0-6.7-3-6.7-6.7
	C735.4,206,738.4,203,742.1,203"/>
<path id="Pfad_21360" class="st3" d="M744.8,187.6c3.7,0,6.7,3,6.7,6.7s-3,6.7-6.7,6.7s-6.7-3-6.7-6.7
	C738.2,190.6,741.1,187.6,744.8,187.6"/>
<path id="Pfad_21361" class="st3" d="M747.3,172.1c3.7,0,6.7,3,6.7,6.7s-3,6.7-6.7,6.7s-6.7-3-6.7-6.7
	C740.6,175.1,743.6,172.1,747.3,172.1"/>
<path id="Pfad_21362" class="st3" d="M749.5,156.6c3.7,0,6.7,3,6.7,6.7s-3,6.7-6.7,6.7c-3.7,0-6.7-3-6.7-6.7
	C742.8,159.6,745.8,156.6,749.5,156.6"/>
<path id="Pfad_21363" class="st5" d="M751.3,141c3.7,0,6.7,3,6.7,6.7l0,0c0,3.7-3,6.7-6.7,6.7l0,0c-3.7,0-6.7-3-6.7-6.7l0,0
	C744.7,144,747.7,141,751.3,141L751.3,141"/>
<path id="Pfad_21364" class="st3" d="M348.2,789.3c3.7,0,6.7,3,6.7,6.7s-3,6.7-6.7,6.7s-6.7-3-6.7-6.7S344.5,789.3,348.2,789.3"/>
<path id="Pfad_21365" class="st4" d="M563.9,608.9c3.7,0,6.7,3,6.7,6.7s-3,6.7-6.7,6.7c-3.7,0-6.7-3-6.7-6.7
	C557.2,611.9,560.2,608.9,563.9,608.9"/>
<path id="Pfad_21366" class="st3" d="M593.6,572.4c3.7,0,6.7,3,6.7,6.7s-3,6.7-6.7,6.7s-6.7-3-6.7-6.7
	C586.9,575.4,589.9,572.4,593.6,572.4"/>
<path id="Pfad_21367" class="st3" d="M603,559.9c3.7,0,6.7,3,6.7,6.7s-3,6.7-6.7,6.7s-6.7-3-6.7-6.7S599.3,559.9,603,559.9"/>
<path id="Pfad_21368" class="st5" d="M612.3,547.2c3.7,0,6.7,3,6.7,6.7l0,0c0,3.7-3,6.7-6.7,6.7c-3.7,0-6.7-3-6.7-6.7l0,0
	C605.6,550.2,608.6,547.2,612.3,547.2L612.3,547.2"/>
<path id="Pfad_21369" class="st5" d="M621.3,534.3c3.7,0,6.7,3,6.7,6.7l0,0c0,3.7-3,6.7-6.7,6.7s-6.7-3-6.7-6.7l0,0
	C614.6,537.3,617.6,534.3,621.3,534.3L621.3,534.3"/>
<path id="Pfad_21371" class="st3" d="M654.8,481.3c3.7,0,6.7,3,6.7,6.7s-3,6.7-6.7,6.7c-3.7,0-6.7-3-6.7-6.7
	C648.2,484.3,651.1,481.3,654.8,481.3"/>
<path id="Pfad_21372" class="st4" d="M662.6,467.7c3.7,0,6.7,3,6.7,6.7l0,0c0,3.7-3,6.7-6.7,6.7s-6.7-3-6.7-6.7
	S658.9,467.7,662.6,467.7"/>
<path id="Pfad_21373" class="st3" d="M715.7,354.1c3.7,0,6.7,3,6.7,6.7l0,0c0,3.7-3,6.7-6.7,6.7l0,0c-3.7,0-6.7-3-6.7-6.7
	S712,354.1,715.7,354.1"/>
<path id="Pfad_21374" class="st3" d="M758,203.2c3.7,0,6.7,3,6.7,6.7c0,3.7-3,6.7-6.7,6.7l0,0c-3.7,0-6.7-3-6.7-6.7l0,0
	C751.3,206.2,754.3,203.2,758,203.2"/>
<path id="Pfad_21375" class="st5" d="M760.7,187.7c3.7,0,6.7,3,6.7,6.7s-3,6.7-6.7,6.7s-6.7-3-6.7-6.7S757,187.7,760.7,187.7"/>
<path id="Pfad_21376" class="st3" d="M763.1,172.2c3.7,0,6.7,3,6.7,6.7l0,0c0,3.7-3,6.7-6.7,6.7s-6.7-3-6.7-6.7
	S759.4,172.2,763.1,172.2"/>
<path id="Pfad_21377" class="st5" d="M765.2,156.7c3.7,0,6.7,3,6.7,6.7s-3,6.7-6.7,6.7c-3.7,0-6.7-3-6.7-6.7
	C758.6,159.7,761.5,156.7,765.2,156.7"/>
<path id="Pfad_21378" class="st3" d="M483.5,711.5c3.7,0,6.7,3,6.7,6.7s-3,6.7-6.7,6.7s-6.7-3-6.7-6.7l0,0
	C476.8,714.5,479.8,711.5,483.5,711.5L483.5,711.5"/>
<path id="Pfad_21379" class="st3" d="M529.6,668.8c3.7,0,6.7,3,6.7,6.7s-3,6.7-6.7,6.7s-6.7-3-6.7-6.7S525.9,668.8,529.6,668.8"/>
<path id="Pfad_21380" class="st3" d="M562,634.7c3.7,0,6.7,3,6.7,6.7s-3,6.7-6.7,6.7c-3.7,0-6.7-3-6.7-6.7
	C555.4,637.7,558.3,634.7,562,634.7"/>
<path id="Pfad_21381" class="st5" d="M572.5,623c3.7,0,6.7,3,6.7,6.7s-3,6.7-6.7,6.7s-6.7-3-6.7-6.7S568.8,623,572.5,623"/>
<path id="Pfad_21382" class="st3" d="M664.4,495.9c3.7,0,6.7,3,6.7,6.7s-3,6.7-6.7,6.7l0,0c-3.7,0-6.7-3-6.7-6.7l0,0
	C657.7,498.9,660.7,495.9,664.4,495.9L664.4,495.9"/>
<path id="Pfad_21383" class="st3" d="M672.3,482.4c3.7,0,6.7,3,6.7,6.7l0,0c0,3.7-3,6.7-6.7,6.7l0,0c-3.7,0-6.7-3-6.7-6.7
	S668.6,482.4,672.3,482.4L672.3,482.4"/>
<path id="Pfad_21384" class="st3" d="M680,468.7c3.7,0,6.7,3,6.7,6.7s-3,6.7-6.7,6.7c-3.7,0-6.7-3-6.7-6.7l0,0
	C673.3,471.7,676.3,468.7,680,468.7"/>
<path id="Pfad_21385" class="st3" d="M687.4,454.8c3.7,0,6.7,3,6.7,6.7s-3,6.7-6.7,6.7s-6.7-3-6.7-6.7S683.7,454.8,687.4,454.8"/>
<path id="Pfad_21386" class="st4" d="M726.6,369.2c3.7,0,6.7,3,6.7,6.7s-3,6.7-6.7,6.7s-6.7-3-6.7-6.7S723,369.2,726.6,369.2"/>
<path id="Pfad_21387" class="st3" d="M773.9,203.3c3.7,0,6.7,3,6.7,6.7s-3,6.7-6.7,6.7s-6.7-3-6.7-6.7S770.2,203.3,773.9,203.3"/>
<path id="Pfad_21388" class="st3" d="M776.5,187.9c3.7,0,6.7,3,6.7,6.7s-3,6.7-6.7,6.7s-6.7-3-6.7-6.7S772.8,187.9,776.5,187.9"/>
<path id="Pfad_21389" class="st3" d="M778.9,172.3c3.7,0,6.7,3,6.7,6.7l0,0c0,3.7-3,6.7-6.7,6.7c-3.7,0-6.7-3-6.7-6.7l0,0
	C772.2,175.3,775.2,172.3,778.9,172.3L778.9,172.3"/>
<path id="Pfad_21390" class="st3" d="M431.7,772.3c3.7,0,6.7,3,6.7,6.7c0,3.7-3,6.7-6.7,6.7c-3.7,0-6.7-3-6.7-6.7
	S428,772.3,431.7,772.3"/>
<path id="Pfad_21391" class="st5" d="M505,713.5c3.7,0,6.7,3,6.7,6.7c0,3.7-3,6.7-6.7,6.7l0,0c-3.7,0-6.7-3-6.7-6.7
	C498.4,716.5,501.3,713.5,505,713.5"/>
<path id="Pfad_21392" class="st5" d="M528,692.2c3.7,0,6.7,3,6.7,6.7s-3,6.7-6.7,6.7s-6.7-3-6.7-6.7S524.3,692.2,528,692.2"/>
<path id="Pfad_21393" class="st3" d="M571.8,647.3c3.7,0,6.7,3,6.7,6.7c0,3.7-3,6.7-6.7,6.7c-3.7,0-6.7-3-6.7-6.7
	C565.1,650.3,568.1,647.3,571.8,647.3"/>
<path id="Pfad_21394" class="st4" d="M582.2,635.6c3.7,0,6.7,3,6.7,6.7l0,0c0,3.7-3,6.7-6.7,6.7s-6.7-3-6.7-6.7
	S578.5,635.6,582.2,635.6L582.2,635.6"/>
<path id="Pfad_21395" class="st4" d="M640.3,561.8c3.7,0,6.7,3,6.7,6.7c0,3.7-3,6.7-6.7,6.7l0,0c-3.7,0-6.7-3-6.7-6.7
	S636.7,561.8,640.3,561.8"/>
<path id="Pfad_21396" class="st3" d="M51.2,944.8c3.7,0,6.7,3,6.7,6.7c0,3.7-3,6.7-6.7,6.7s-6.7-3-6.7-6.7
	C44.6,947.8,47.5,944.8,51.2,944.8"/>
<path id="Pfad_21397" class="st4" d="M332.9,851.7c3.7,0,6.7,3,6.7,6.7l0,0c0,3.7-3,6.7-6.7,6.7l0,0c-3.7,0-6.7-3-6.7-6.7l0,0
	C326.2,854.6,329.2,851.7,332.9,851.7L332.9,851.7"/>
<path id="Pfad_21398" class="st3" d="M477.1,757.5c3.7,0,6.7,3,6.7,6.7c0,3.7-3,6.7-6.7,6.7c-3.7,0-6.7-3-6.7-6.7
	S473.4,757.5,477.1,757.5"/>
<path id="Pfad_21399" class="st4" d="M513.1,727.2c3.7,0,6.7,3,6.7,6.7s-3,6.7-6.7,6.7c-3.7,0-6.7-3-6.7-6.7
	C506.5,730.2,509.5,727.2,513.1,727.2"/>
<path id="Pfad_21400" class="st4" d="M770.8,339.8c3.7,0,6.7,3,6.7,6.7c0,3.7-3,6.7-6.7,6.7c-3.7,0-6.7-3-6.7-6.7
	S767.1,339.8,770.8,339.8"/>
<path id="Pfad_21401" class="st3" d="M340.7,865.2c3.7,0,6.7,3,6.7,6.7s-3,6.7-6.7,6.7s-6.7-3-6.7-6.7S337,865.2,340.7,865.2"/>
<path id="Pfad_21402" class="st3" d="M408.5,825.8c3.7,0,6.7,3,6.7,6.7l0,0c0,3.7-3,6.7-6.7,6.7c-3.7,0-6.7-3-6.7-6.7
	S404.8,825.8,408.5,825.8L408.5,825.8"/>
<path id="Pfad_21403" class="st5" d="M434.7,808.5c3.7,0,6.7,3,6.7,6.7s-3,6.7-6.7,6.7s-6.7-3-6.7-6.7S431,808.5,434.7,808.5"/>
<path id="Pfad_21404" class="st5" d="M460.2,790.2c3.7,0,6.7,3,6.7,6.7c0,3.7-3,6.7-6.7,6.7c-3.7,0-6.7-3-6.7-6.7
	S456.5,790.2,460.2,790.2"/>
<path id="Pfad_21405" class="st3" d="M521.3,741c3.7,0,6.7,3,6.7,6.7s-3,6.7-6.7,6.7s-6.7-3-6.7-6.7S517.6,741,521.3,741"/>
<path id="Pfad_21406" class="st5" d="M533,730.5c3.7,0,6.7,3,6.7,6.7s-3,6.7-6.7,6.7s-6.7-3-6.7-6.7l0,0
	C526.3,733.5,529.3,730.5,533,730.5L533,730.5"/>
<path id="Pfad_21407" class="st3" d="M805.1,280c3.7,0,6.7,3,6.7,6.7s-3,6.7-6.7,6.7s-6.7-3-6.7-6.7S801.4,280,805.1,280"/>
<path id="Pfad_21408" class="st5" d="M455.5,813c3.7,0,6.7,3,6.7,6.7l0,0c0,3.7-3,6.7-6.7,6.7l0,0c-3.7,0-6.7-3-6.7-6.7l0,0
	C448.8,816,451.8,813,455.5,813"/>
<path id="Pfad_21409" class="st4" d="M787.8,385c3.7,0,6.7,3,6.7,6.7s-3,6.7-6.7,6.7s-6.7-3-6.7-6.7S784.1,385,787.8,385"/>
<path id="Pfad_21410" class="st3" d="M793.3,370.2c3.7,0,6.7,3,6.7,6.7c0,3.7-3,6.7-6.7,6.7s-6.7-3-6.7-6.7S789.6,370.2,793.3,370.2
	"/>
<path id="Pfad_21411" class="st3" d="M189.9,896.9c3.7,0,6.7,3,6.7,6.7c0,3.7-3,6.7-6.7,6.7s-6.7-3-6.7-6.7
	C183.3,899.9,186.2,896.9,189.9,896.9"/>
<path id="Pfad_21412" class="st4" d="M205,892.5c3.7,0,6.7,3,6.7,6.7l0,0c0,3.7-3,6.7-6.7,6.7l0,0c-3.7,0-6.7-3-6.7-6.7l0,0
	C198.3,895.5,201.3,892.5,205,892.5"/>
<path id="Pfad_21413" class="st3" d="M219.9,887.9c3.7,0,6.7,3,6.7,6.7c0,3.7-3,6.7-6.7,6.7s-6.7-3-6.7-6.7
	C213.3,890.9,216.3,887.9,219.9,887.9"/>
<path id="Pfad_21414" class="st3" d="M399.7,868.1c3.7,0,6.7,3,6.7,6.7l0,0c0,3.7-3,6.7-6.7,6.7l0,0c-3.7,0-6.7-3-6.7-6.7l0,0
	C393.1,871.1,396,868.1,399.7,868.1L399.7,868.1"/>
<path id="Pfad_21415" class="st5" d="M695.5,592.2c3.7,0,6.7,3,6.7,6.7s-3,6.7-6.7,6.7c-3.7,0-6.7-3-6.7-6.7
	S691.8,592.2,695.5,592.2L695.5,592.2"/>
<path id="Pfad_21416" class="st5" d="M737.5,526.1c3.7,0,6.7,3,6.7,6.7s-3,6.7-6.7,6.7s-6.7-3-6.7-6.7S733.9,526.1,737.5,526.1"/>
<path id="Pfad_21417" class="st3" d="M804.7,384.6c3.7,0,6.7,3,6.7,6.7s-3,6.7-6.7,6.7l0,0c-3.7,0-6.7-3-6.7-6.7l0,0
	C798,387.6,801,384.6,804.7,384.6"/>
<path id="Pfad_21418" class="st4" d="M197.8,910.9c3.7,0,6.7,3,6.7,6.7l0,0c0,3.7-3,6.7-6.7,6.7s-6.7-3-6.7-6.7
	C191.1,913.9,194.1,910.9,197.8,910.9"/>
<path id="Pfad_21419" class="st3" d="M212.8,906.5c3.7,0,6.7,3,6.7,6.7c0,3.7-3,6.7-6.7,6.7s-6.7-3-6.7-6.7
	C206.1,909.5,209.1,906.5,212.8,906.5"/>
<path id="Pfad_21420" class="st3" d="M407.5,881.7c3.7,0,6.7,3,6.7,6.7s-3,6.7-6.7,6.7s-6.7-3-6.7-6.7S403.9,881.7,407.5,881.7"/>
<path id="Pfad_21421" class="st4" d="M421,873.5c3.7,0,6.7,3,6.7,6.7l0,0c0,3.7-3,6.7-6.7,6.7s-6.7-3-6.7-6.7S417.3,873.5,421,873.5
	"/>
<path id="Pfad_21422" class="st3" d="M747.2,540.7c3.7,0,6.7,3,6.7,6.7s-3,6.7-6.7,6.7s-6.7-3-6.7-6.7S743.5,540.7,747.2,540.7"/>
<path id="Pfad_21423" class="st3" d="M755,527.1c3.7,0,6.7,3,6.7,6.7l0,0c0,3.7-3,6.7-6.7,6.7s-6.7-3-6.7-6.7S751.3,527.1,755,527.1
	"/>
<path id="Pfad_21424" class="st4" d="M762.7,513.4c3.7,0,6.7,3,6.7,6.7s-3,6.7-6.7,6.7s-6.7-3-6.7-6.7S759,513.4,762.7,513.4"/>
<path id="Pfad_21425" class="st3" d="M124.8,1010.5c3.7,0,6.7,3,6.7,6.7c0,3.7-3,6.7-6.7,6.7c-3.7,0-6.7-3-6.7-6.7
	C118.1,1013.5,121.1,1010.5,124.8,1010.5"/>
<path id="Pfad_21426" class="st3" d="M220.6,920.5c3.7,0,6.7,3,6.7,6.7l0,0c0,3.7-3,6.7-6.7,6.7l0,0c-3.7,0-6.7-3-6.7-6.7
	C214,923.5,217,920.5,220.6,920.5"/>
<path id="Pfad_21428" class="st3" d="M388.1,910.8c3.7,0,6.7,3,6.7,6.7c0,3.7-3,6.7-6.7,6.7c-3.7,0-6.7-3-6.7-6.7
	C381.5,913.8,384.5,910.8,388.1,910.8"/>
<path id="Pfad_21429" class="st3" d="M401.8,903.1c3.7,0,6.7,3,6.7,6.7c0,3.7-3,6.7-6.7,6.7l0,0c-3.7,0-6.7-3-6.7-6.7
	S398.1,903.1,401.8,903.1"/>
<path id="Pfad_21430" class="st3" d="M531.2,814.5c3.7,0,6.7,3,6.7,6.7s-3,6.7-6.7,6.7s-6.7-3-6.7-6.7S527.5,814.5,531.2,814.5"/>
<path id="Pfad_21431" class="st3" d="M756.7,555.2c3.7,0,6.7,3,6.7,6.7s-3,6.7-6.7,6.7l0,0c-3.7,0-6.7-3-6.7-6.7
	C750,558.2,753,555.2,756.7,555.2"/>
<path id="Pfad_21432" class="st3" d="M764.7,541.7c3.7,0,6.7,3,6.7,6.7s-3,6.7-6.7,6.7s-6.7-3-6.7-6.7S761,541.7,764.7,541.7"/>
<path id="Pfad_21433" class="st4" d="M135.9,1024.1c3.7,0,6.7,3,6.7,6.7c0,3.7-3,6.7-6.7,6.7s-6.7-3-6.7-6.7
	C129.2,1027.1,132.2,1024.1,135.9,1024.1"/>
<path id="Pfad_21434" class="st3" d="M356.7,945c3.7,0,6.7,3,6.7,6.7s-3,6.7-6.7,6.7s-6.7-3-6.7-6.7S353,945,356.7,945"/>
<path id="Pfad_21435" class="st3" d="M370.7,937.9c3.7,0,6.7,3,6.7,6.7s-3,6.7-6.7,6.7s-6.7-3-6.7-6.7S367,937.9,370.7,937.9"/>
<path id="Pfad_21436" class="st3" d="M398.3,923.1c3.7,0,6.7,3,6.7,6.7s-3,6.7-6.7,6.7s-6.7-3-6.7-6.7S394.6,923.1,398.3,923.1"/>
<path id="Pfad_21437" class="st3" d="M741.5,608.2c3.7,0,6.7,3,6.7,6.7s-3,6.7-6.7,6.7s-6.7-3-6.7-6.7l0,0
	C734.9,611.2,737.8,608.2,741.5,608.2"/>
<path id="Pfad_21438" class="st3" d="M782.8,541.6c3.7,0,6.7,3,6.7,6.7l0,0c0,3.7-3,6.7-6.7,6.7s-6.7-3-6.7-6.7
	S779.1,541.6,782.8,541.6"/>
<path id="Pfad_21439" class="st3" d="M128.5,1041.8c3.7,0,6.7,3,6.7,6.7l0,0c0,3.7-3,6.7-6.7,6.7s-6.7-3-6.7-6.7
	C121.8,1044.8,124.8,1041.8,128.5,1041.8L128.5,1041.8"/>
<path id="Pfad_21425-2" class="st3" d="M714.3,982.9c0-3.7,3-6.7,6.7-6.7c3.7,0,6.7,3,6.7,6.7c0,3.7-3,6.7-6.7,6.7
	C717.3,989.6,714.3,986.6,714.3,982.9"/>
<path id="Pfad_21433-2" class="st4" d="M727.8,971.8c0-3.7,3-6.7,6.7-6.7c3.7,0,6.7,3,6.7,6.7c0,3.7-3,6.7-6.7,6.7
	C730.8,978.5,727.8,975.5,727.8,971.8"/>
<path id="Pfad_21439-2" class="st3" d="M745.6,979.2c0-3.7,3-6.7,6.7-6.7l0,0c3.7,0,6.7,3,6.7,6.7c0,3.7-3,6.7-6.7,6.7
	C748.5,985.9,745.5,982.9,745.6,979.2L745.6,979.2"/>
<path id="Pfad_21440" class="st4" d="M364.5,958.6c3.7,0,6.7,3,6.7,6.7s-3,6.7-6.7,6.7s-6.7-3-6.7-6.7
	C357.8,961.6,360.8,958.6,364.5,958.6"/>
<path id="Pfad_21441" class="st5" d="M499,878.2c3.7,0,6.7,3,6.7,6.7s-3,6.7-6.7,6.7c-3.7,0-6.7-3-6.7-6.7S495.3,878.2,499,878.2
	L499,878.2"/>
<path id="Pfad_21442" class="st3" d="M511.7,869.1c3.7,0,6.7,3,6.7,6.7s-3,6.7-6.7,6.7s-6.7-3-6.7-6.7S508,869.1,511.7,869.1"/>
<path id="Pfad_21443" class="st5" d="M713.7,673.2c3.7,0,6.7,3,6.7,6.7l0,0c0,3.7-3,6.7-6.7,6.7s-6.7-3-6.7-6.7
	S710,673.2,713.7,673.2L713.7,673.2"/>
<path id="Pfad_21444" class="st4" d="M750.7,622.6c3.7,0,6.7,3,6.7,6.7s-3,6.7-6.7,6.7s-6.7-3-6.7-6.7S747,622.6,750.7,622.6"/>
<path id="Pfad_21445" class="st4" d="M74.7,1067.9c3.7,0,6.7,3,6.7,6.7c0,3.7-3,6.7-6.7,6.7s-6.7-3-6.7-6.7
	C68,1070.9,71,1067.9,74.7,1067.9"/>
<path id="Pfad_21446" class="st3" d="M90.2,1065.3c3.7,0,6.7,3,6.7,6.7c0,3.7-3,6.7-6.7,6.7s-6.7-3-6.7-6.7
	C83.5,1068.3,86.5,1065.3,90.2,1065.3"/>
<path id="Pfad_21447" class="st3" d="M519.6,882.7c3.7,0,6.7,3,6.7,6.7l0,0c0,3.7-3,6.7-6.7,6.7s-6.7-3-6.7-6.7
	S515.9,882.7,519.6,882.7"/>
<path id="Pfad_21448" class="st5" d="M532.2,873.3c3.7,0,6.7,3,6.7,6.7s-3,6.7-6.7,6.7s-6.7-3-6.7-6.7S528.5,873.3,532.2,873.3"/>
<path id="Pfad_21449" class="st3" d="M722.5,687.4c3.7,0,6.7,3,6.7,6.7l0,0c0,3.7-3,6.7-6.7,6.7l0,0c-3.7,0-6.7-3-6.7-6.7
	S718.8,687.4,722.5,687.4"/>
<path id="Pfad_21450" class="st3" d="M732.1,675c3.7,0,6.7,3,6.7,6.7s-3,6.7-6.7,6.7s-6.7-3-6.7-6.7S728.4,675,732.1,675"/>
<path id="Pfad_21451" class="st3" d="M750.8,649.8c3.7,0,6.7,3,6.7,6.7s-3,6.7-6.7,6.7s-6.7-3-6.7-6.7S747.1,649.8,750.8,649.8"/>
<path id="Pfad_21452" class="st3" d="M759.8,637c3.7,0,6.7,3,6.7,6.7s-3,6.7-6.7,6.7s-6.7-3-6.7-6.7
	C753.2,639.9,756.1,637,759.8,637"/>
<path id="Pfad_21453" class="st3" d="M514.8,905.4c3.7,0,6.7,3,6.7,6.7s-3,6.7-6.7,6.7s-6.7-3-6.7-6.7S511.1,905.4,514.8,905.4"/>
<path id="Pfad_21454" class="st5" d="M527.6,896.3c3.7,0,6.7,3,6.7,6.7s-3,6.7-6.7,6.7l0,0c-3.7,0-6.7-3-6.7-6.7
	C520.9,899.3,523.9,896.3,527.6,896.3"/>
<path id="Pfad_21455" class="st3" d="M540.2,886.9c3.7,0,6.7,3,6.7,6.7s-3,6.7-6.7,6.7s-6.7-3-6.7-6.7
	C533.5,889.9,536.5,886.9,540.2,886.9"/>
<path id="Pfad_21456" class="st5" d="M577.2,857.8c3.7,0,6.7,3,6.7,6.7l0,0c0,3.7-3,6.7-6.7,6.7l0,0c-3.7,0-6.7-3-6.7-6.7
	S573.6,857.8,577.2,857.8L577.2,857.8"/>
<path id="Pfad_21457" class="st3" d="M589.3,847.8c3.7,0,6.7,3,6.7,6.7s-3,6.7-6.7,6.7s-6.7-3-6.7-6.7
	C582.6,850.8,585.6,847.8,589.3,847.8"/>
<path id="Pfad_21458" class="st4" d="M445.5,968.4c3.7,0,6.7,3,6.7,6.7s-3,6.7-6.7,6.7s-6.7-3-6.7-6.7S441.8,968.4,445.5,968.4"/>
<path id="Pfad_21459" class="st3" d="M524.7,917.6c3.7,0,6.7,3,6.7,6.7c0,3.7-3,6.7-6.7,6.7s-6.7-3-6.7-6.7S521,917.6,524.7,917.6"
	/>
<path id="Pfad_21460" class="st4" d="M562.5,889.7c3.7,0,6.7,3,6.7,6.7s-3,6.7-6.7,6.7s-6.7-3-6.7-6.7S558.8,889.7,562.5,889.7"/>
<path id="Pfad_21461" class="st3" d="M574.8,880c3.7,0,6.7,3,6.7,6.7s-3,6.7-6.7,6.7s-6.7-3-6.7-6.7S571.1,880,574.8,880"/>
<path id="Pfad_21462" class="st3" d="M587,870.1c3.7,0,6.7,3,6.7,6.7s-3,6.7-6.7,6.7s-6.7-3-6.7-6.7S583.3,870.1,587,870.1"/>
<path id="Pfad_21463" class="st5" d="M599,860.1c3.7,0,6.7,3,6.7,6.7s-3,6.7-6.7,6.7c-3.7,0-6.7-3-6.7-6.7
	C592.4,863.1,595.3,860.1,599,860.1"/>
<path id="Pfad_21464" class="st3" d="M570.5,903.3c3.7,0,6.7,3,6.7,6.7s-3,6.7-6.7,6.7c-3.7,0-6.7-3-6.7-6.7l0,0
	C563.8,906.3,566.8,903.3,570.5,903.3L570.5,903.3"/>
<path id="Pfad_21465" class="st5" d="M595,883.8c3.7,0,6.7,3,6.7,6.7s-3,6.7-6.7,6.7s-6.7-3-6.7-6.7S591.3,883.8,595,883.8"/>
<path id="Pfad_21466" class="st3" d="M607.1,873.8c3.7,0,6.7,3,6.7,6.7s-3,6.7-6.7,6.7s-6.7-3-6.7-6.7S603.4,873.8,607.1,873.8"/>
<path id="Pfad_21467" class="st4" d="M778.6,691.3c3.7,0,6.7,3,6.7,6.7s-3,6.7-6.7,6.7c-3.7,0-6.7-3-6.7-6.7l0,0
	C772,694.3,774.9,691.3,778.6,691.3"/>
<path id="Pfad_21468" class="st3" d="M796.9,665.9c3.7,0,6.7,3,6.7,6.7s-3,6.7-6.7,6.7c-3.7,0-6.7-3-6.7-6.7
	C790.3,668.9,793.2,665.9,796.9,665.9"/>
<path id="Pfad_21469" class="st3" d="M805.8,653c3.7,0,6.7,3,6.7,6.7s-3,6.7-6.7,6.7s-6.7-3-6.7-6.7S802.1,653,805.8,653"/>
<path id="Pfad_21470" class="st3" d="M615.2,887.4c3.7,0,6.7,3,6.7,6.7s-3,6.7-6.7,6.7s-6.7-3-6.7-6.7S611.5,887.4,615.2,887.4"/>
<path id="Pfad_21471" class="st4" d="M627.1,877.3c3.7,0,6.7,3,6.7,6.7s-3,6.7-6.7,6.7s-6.7-3-6.7-6.7S623.4,877.3,627.1,877.3"/>
<path id="Pfad_21472" class="st3" d="M787.5,705.6c3.7,0,6.7,3,6.7,6.7l0,0c0,3.7-3,6.7-6.7,6.7l0,0c-3.7,0-6.7-3-6.7-6.7
	S783.9,705.6,787.5,705.6"/>
<path id="Pfad_21473" class="st3" d="M806,680.2c3.7,0,6.7,3,6.7,6.7s-3,6.7-6.7,6.7s-6.7-3-6.7-6.7S802.3,680.2,806,680.2"/>
<path id="Pfad_21474" class="st3" d="M393.4,1017.2c3.7,0,6.7,3,6.7,6.7c0,3.7-3,6.7-6.7,6.7c-3.7,0-6.7-3-6.7-6.7
	S389.7,1017.2,393.4,1017.2"/>
<path id="Pfad_21475" class="st3" d="M485.5,1079.3c3.7,0,6.7,3,6.7,6.7s-3,6.7-6.7,6.7s-6.7-3-6.7-6.7
	C478.8,1082.3,481.8,1079.3,485.5,1079.3L485.5,1079.3"/>
<path id="Pfad_21476" class="st3" d="M535,1023.9c3.7,0,6.7,3,6.7,6.7s-3,6.7-6.7,6.7c-3.7,0-6.7-3-6.7-6.7
	C528.3,1026.9,531.3,1023.9,535,1023.9"/>
<path id="Pfad_21477" class="st4" d="M752.2,844.3c3.7,0,6.7,3,6.7,6.7s-3,6.7-6.7,6.7c-3.7,0-6.7-3-6.7-6.7
	C745.6,847.3,748.5,844.3,752.2,844.3"/>
<path id="Pfad_21478" class="st3" d="M761.9,856.9c3.7,0,6.7,3,6.7,6.7s-3,6.7-6.7,6.7c-3.7,0-6.7-3-6.7-6.7
	C755.3,859.9,758.2,856.9,761.9,856.9"/>
<path id="Pfad_21479" class="st3" d="M625.3,1018.8c3.7,0,6.7,3,6.7,6.7c0,3.7-3,6.7-6.7,6.7s-6.7-3-6.7-6.7
	C618.7,1021.8,621.7,1018.8,625.3,1018.8L625.3,1018.8"/>
<path id="Pfad_21480" class="st3" d="M530.6,1100.1c3.7,0,6.7,3,6.7,6.7l0,0c0,3.7-3,6.7-6.7,6.7s-6.7-3-6.7-6.7
	S526.9,1100.1,530.6,1100.1"/>
<path id="Pfad_21481" class="st3" d="M544.1,1092c3.7,0,6.7,3,6.7,6.7s-3,6.7-6.7,6.7s-6.7-3-6.7-6.7
	C537.4,1095,540.4,1092,544.1,1092L544.1,1092"/>
<path id="Pfad_21482" class="st3" d="M538.5,1113.6c3.7,0,6.7,3,6.7,6.7l0,0c0,3.7-3,6.7-6.7,6.7s-6.7-3-6.7-6.7
	S534.8,1113.6,538.5,1113.6L538.5,1113.6"/>
<path id="Pfad_21483" class="st4" d="M551.9,1105.6c3.7,0,6.7,3,6.7,6.7s-3,6.7-6.7,6.7s-6.7-3-6.7-6.7S548.2,1105.6,551.9,1105.6"
	/>
<path id="Pfad_21484" class="st4" d="M785.7,922.2c3.7,0,6.7,3,6.7,6.7s-3,6.7-6.7,6.7s-6.7-3-6.7-6.7S782,922.2,785.7,922.2"/>
<path id="Pfad_21485" class="st3" d="M794,936.1c3.7,0,6.7,3,6.7,6.7s-3,6.7-6.7,6.7s-6.7-3-6.7-6.7
	C787.4,939.1,790.3,936.1,794,936.1"/>
<path id="Pfad_21486" class="st3" d="M805.1,925c3.7,0,6.7,3,6.7,6.7s-3,6.7-6.7,6.7s-6.7-3-6.7-6.7S801.4,925,805.1,925L805.1,925"
	/>
<line id="Linie_991" class="st2" x1="325.4" y1="584.6" x2="309.2" y2="474.6"/>
<line id="Linie_992" class="st2" x1="325.4" y1="584.6" x2="399" y2="583.7"/>
<line id="Linie_993" class="st2" x1="312.9" y1="594.1" x2="302.4" y2="695.7"/>
<line id="Linie_994" class="st2" x1="399" y1="583.7" x2="436.4" y2="449.4"/>
<line id="Linie_995" class="st2" x1="399" y1="583.7" x2="435.3" y2="697.3"/>
<line id="Linie_996" class="st2" x1="510.6" y1="507.1" x2="399" y2="583.7"/>
<line id="Linie_997" class="st2" x1="510.6" y1="507.1" x2="473.5" y2="478.3"/>
<line id="Linie_998" class="st2" x1="418.4" y1="393.6" x2="390.4" y2="379.1"/>
<line id="Linie_999" class="st2" x1="390.4" y1="379.1" x2="419.6" y2="296"/>
<line id="Linie_1000" class="st2" x1="419.6" y1="296" x2="502" y2="342.7"/>
<line id="Linie_1001" class="st2" x1="502" y1="342.7" x2="418.4" y2="393.6"/>
<line id="Linie_1002" class="st2" x1="390.4" y1="379.1" x2="361.6" y2="364.3"/>
<line id="Linie_1003" class="st2" x1="302.6" y1="437" x2="335" y2="375.7"/>
<line id="Linie_1004" class="st2" x1="297.7" y1="485.2" x2="265.9" y2="491.8"/>
<line id="Linie_1005" class="st2" x1="265.9" y1="491.8" x2="241.3" y2="511"/>
<line id="Linie_1006" class="st2" x1="436.4" y1="449.4" x2="463.4" y2="410.6"/>
<line id="Linie_1007-2" class="st2" x1="436.6" y1="422.4" x2="302.6" y2="437"/>
<line id="Linie_1008" class="st2" x1="483.9" y1="632.6" x2="399" y2="583.7"/>
<line id="Linie_1009" class="st2" x1="459.2" y1="677.1" x2="529.6" y2="675.5"/>
<line id="Linie_1010" class="st2" x1="459.2" y1="677.1" x2="483.9" y2="632.6"/>
<line id="Linie_1011" class="st1" x1="372.3" y1="686.6" x2="438.9" y2="734.4"/>
<line id="Linie_1012" class="st2" x1="438.9" y1="734.4" x2="435.3" y2="697.3"/>
<line id="Linie_1013" class="st1" x1="372.3" y1="686.6" x2="361.6" y2="787.9"/>
<line id="Linie_1014" class="st2" x1="253.4" y1="705.5" x2="302.4" y2="695.7"/>
<line id="Linie_1015" class="st2" x1="348.2" y1="796" x2="302.4" y2="695.7"/>
<line id="Linie_1016" class="st2" x1="312.9" y1="594.1" x2="222.4" y2="597.8"/>
<line id="Linie_1017" class="st1" x1="564.1" y1="615.6" x2="547" y2="483.1"/>
<line id="Linie_1018" class="st1" x1="547" y1="483.1" x2="583.9" y2="484.5"/>
<line id="Linie_1019" class="st1" x1="547" y1="483.1" x2="482.6" y2="438.4"/>
<line id="Linie_1020" class="st2" x1="438.9" y1="734.4" x2="431.7" y2="779"/>
<line id="Linie_1021" class="st2" x1="431.7" y1="779" x2="477.2" y2="764.2"/>
<line id="Linie_1022" class="st2" x1="477.2" y1="764.2" x2="438.9" y2="734.4"/>
<line id="Linie_1023" class="st2" x1="438.9" y1="734.4" x2="483.9" y2="718.2"/>
<line id="Linie_1024" class="st2" x1="312.9" y1="594.1" x2="287.1" y2="554.7"/>
<line id="Linie_1025" class="st2" x1="436.4" y1="449.4" x2="309.2" y2="474.6"/>
<line id="Linie_1026" class="st2" x1="309.2" y1="474.6" x2="302.6" y2="437"/>
<line id="Linie_1027" class="st2" x1="302.6" y1="437" x2="279.8" y2="458.8"/>
<line id="Linie_1028" class="st1" x1="399" y1="583.7" x2="362.5" y2="674.3"/>
<line id="Linie_1029" class="st2" x1="294.5" y1="772.3" x2="203.8" y2="712.2"/>
<line id="Linie_1030" class="st2" x1="203.8" y1="712.2" x2="223.6" y2="632.6"/>
<line id="Linie_1031" class="st2" x1="203.8" y1="712.2" x2="177.9" y2="672.3"/>
<line id="Linie_1032" class="st2" x1="361.6" y1="787.9" x2="399.7" y2="874.8"/>
<line id="Linie_1033" class="st2" x1="399.7" y1="874.8" x2="340.7" y2="871.9"/>
<line id="Linie_1034" class="st1" x1="564.1" y1="615.6" x2="640.1" y2="568.5"/>
<line id="Linie_1035" class="st2" x1="243.6" y1="428.4" x2="207.9" y2="376.2"/>
<line id="Linie_1036" class="st2" x1="243.6" y1="428.4" x2="208.9" y2="436.2"/>
<line id="Linie_1037" class="st2" x1="312.9" y1="264.6" x2="298" y2="346.8"/>
<line id="Linie_1038" class="st2" x1="499.6" y1="411.9" x2="502" y2="342.7"/>
<line id="Linie_1039" class="st2" x1="346.6" y1="704.5" x2="302.4" y2="695.7"/>
<line id="Linie_1040" class="st2" x1="477.2" y1="764.2" x2="531.2" y2="821.8"/>
<line id="Linie_1041" class="st2" x1="531.2" y1="821.8" x2="571.8" y2="654"/>
<line id="Linie_1042" class="st2" x1="531.2" y1="821.8" x2="511.7" y2="875.7"/>
<line id="Linie_1043" class="st2" x1="531.2" y1="821.8" x2="589.3" y2="854.5"/>
<line id="Linie_1044" class="st2" x1="294.5" y1="772.3" x2="221.1" y2="894.5"/>
<line id="Linie_1045" class="st2" x1="221.1" y1="894.5" x2="357.2" y2="951.3"/>
<line id="Linie_1046" class="st2" x1="502" y1="342.7" x2="648" y2="269.8"/>
<line id="Linie_1047" class="st2" x1="197.5" y1="445.4" x2="189.9" y2="489"/>
<line id="Linie_1048" class="st2" x1="201.9" y1="536.9" x2="162.4" y2="505.4"/>
<line id="Linie_1049" class="st1" x1="547" y1="483.1" x2="587.5" y2="415.7"/>
<path id="Pfad_21487" class="st4" d="M361.6,781.3c3.7,0,6.7,3,6.7,6.7s-3,6.7-6.7,6.7s-6.7-3-6.7-6.7S358,781.3,361.6,781.3"/>
<path id="Pfad_21488" class="st4" d="M439,727.7c3.7,0,6.7,3,6.7,6.7s-3,6.7-6.7,6.7c-3.7,0-6.7-3-6.7-6.7
	C432.3,730.7,435.3,727.7,439,727.7"/>
<path id="Pfad_21489" class="st4" d="M346.6,697.9c3.7,0,6.7,3,6.7,6.7c0,3.7-3,6.7-6.7,6.7c-3.7,0-6.7-3-6.7-6.7
	S342.9,697.9,346.6,697.9"/>
<line id="Linie_1050" class="st6" x1="499" y1="884.9" x2="455.6" y2="819.7"/>
<line id="Linie_1051" class="st6" x1="455.6" y1="819.7" x2="435.3" y2="815.1"/>
<line id="Linie_1052" class="st6" x1="214.1" y1="584.6" x2="254.2" y2="559.3"/>
<line id="Linie_1053" class="st6" x1="214.1" y1="584.6" x2="215.6" y2="528.6"/>
<line id="Linie_1054" class="st6" x1="528.3" y1="698.9" x2="455.6" y2="701"/>
<line id="Linie_1055" class="st6" x1="528.3" y1="698.9" x2="533" y2="737.2"/>
<line id="Linie_1056" class="st6" x1="528.3" y1="698.9" x2="505" y2="720.2"/>
<line id="Linie_1057" class="st6" x1="628.8" y1="471.6" x2="621" y2="513.8"/>
<line id="Linie_1058" class="st6" x1="621" y1="513.8" x2="738.1" y2="532.5"/>
<line id="Linie_1059" class="st6" x1="738.1" y1="532.5" x2="621.8" y2="541"/>
<line id="Linie_1060" class="st6" x1="695.5" y1="598.5" x2="572.5" y2="629.6"/>
<line id="Linie_1061" class="st6" x1="695.5" y1="598.5" x2="713.7" y2="679.9"/>
<line id="Linie_1062" class="st6" x1="578.4" y1="401.1" x2="543" y2="399.7"/>
<line id="Linie_1063" class="st6" x1="251.1" y1="355" x2="233.2" y2="328.3"/>
<line id="Linie_1064" class="st6" x1="233.2" y1="328.3" x2="188.2" y2="373"/>
<line id="Linie_1065" class="st6" x1="248.8" y1="380.5" x2="266.5" y2="406.9"/>
<line id="Linie_1066" class="st6" x1="266.5" y1="406.9" x2="239.9" y2="452"/>
<path id="Pfad_21178-2" class="st3" d="M259.2,990.1c3.7,0,6.7,3,6.7,6.7s-3,6.7-6.7,6.7s-6.7-3-6.7-6.7
	C252.6,993.1,255.5,990.1,259.2,990.1"/>
<path id="Pfad_21189-2" class="st5" d="M255.4,1014c3.7,0,6.7,3,6.7,6.7c0,3.7-3,6.7-6.7,6.7c-3.7,0-6.7-3-6.7-6.7
	C248.8,1017,251.7,1014,255.4,1014"/>
<path id="Pfad_21197-2" class="st5" d="M225.7,1055.8c3.7,0,6.7,3,6.7,6.7s-3,6.7-6.7,6.7s-6.7-3-6.7-6.7
	C219.1,1058.8,222,1055.8,225.7,1055.8"/>
<path id="Pfad_21198-2" class="st3" d="M238.6,1046.8c3.7,0,6.7,3,6.7,6.7s-3,6.7-6.7,6.7c-3.7,0-6.7-3-6.7-6.7
	C231.9,1049.8,234.9,1046.8,238.6,1046.8"/>
<path id="Pfad_21199-2" class="st4" d="M251.2,1037.4c3.7,0,6.7,3,6.7,6.7l0,0c0,3.7-3,6.7-6.7,6.7s-6.7-3-6.7-6.7
	S247.5,1037.4,251.2,1037.4"/>
<path id="Pfad_21200-2" class="st4" d="M263.5,1027.7c3.7,0,6.7,3,6.7,6.7c0,3.7-3,6.7-6.7,6.7s-6.7-3-6.7-6.7
	S259.8,1027.7,263.5,1027.7"/>
<path id="Pfad_21201-2" class="st3" d="M287.2,1007c3.7,0,6.7,3,6.7,6.7s-3,6.7-6.7,6.7s-6.7-3-6.7-6.7S283.5,1007,287.2,1007"/>
<path id="Pfad_21202-2" class="st3" d="M298.6,996.2c3.7,0,6.7,3,6.7,6.7l0,0c0,3.7-3,6.7-6.7,6.7s-6.7-3-6.7-6.7
	S294.9,996.2,298.6,996.2L298.6,996.2"/>
<path id="Pfad_21209-2" class="st3" d="M233.6,1069.4c3.7,0,6.7,3,6.7,6.7s-3,6.7-6.7,6.7s-6.7-3-6.7-6.7S229.9,1069.4,233.6,1069.4
	"/>
<path id="Pfad_21210-2" class="st5" d="M246.5,1060.4c3.7,0,6.7,3,6.7,6.7s-3,6.7-6.7,6.7s-6.7-3-6.7-6.7S242.8,1060.4,246.5,1060.4
	"/>
<path id="Pfad_21211-2" class="st4" d="M259.1,1051c3.7,0,6.7,3,6.7,6.7s-3,6.7-6.7,6.7s-6.7-3-6.7-6.7
	C252.5,1054,255.5,1051,259.1,1051"/>
<path id="Pfad_21212-2" class="st5" d="M283.6,1031.2c3.7,0,6.7,3,6.7,6.7s-3,6.7-6.7,6.7c-3.7,0-6.7-3-6.7-6.7
	C276.9,1034.2,279.9,1031.2,283.6,1031.2"/>
<path id="Pfad_21213-2" class="st3" d="M295.4,1020.8c3.7,0,6.7,3,6.7,6.7c0,3.7-3,6.7-6.7,6.7s-6.7-3-6.7-6.7
	S291.7,1020.8,295.4,1020.8"/>
<path id="Pfad_21214-2" class="st3" d="M318,999c3.7,0,6.7,3,6.7,6.7s-3,6.7-6.7,6.7s-6.7-3-6.7-6.7C311.3,1002,314.3,999,318,999"
	/>
<path id="Pfad_21226-2" class="st3" d="M256.4,1072.6c3.7,0,6.7,3,6.7,6.7s-3,6.7-6.7,6.7c-3.7,0-6.7-3-6.7-6.7
	C249.7,1075.6,252.7,1072.6,256.4,1072.6"/>
<path id="Pfad_21227-2" class="st3" d="M281.2,1053.6c3.7,0,6.7,3,6.7,6.7s-3,6.7-6.7,6.7s-6.7-3-6.7-6.7S277.6,1053.6,281.2,1053.6
	"/>
<path id="Pfad_21238-2" class="st3" d="M313.2,1046.9c3.7,0,6.7,3,6.7,6.7c0,3.7-3,6.7-6.7,6.7c-3.7,0-6.7-3-6.7-6.7l0,0
	C306.5,1049.9,309.5,1046.9,313.2,1046.9"/>
<path id="Pfad_21239-2" class="st3" d="M324.8,1036.3c3.7,0,6.7,3,6.7,6.7s-3,6.7-6.7,6.7s-6.7-3-6.7-6.7
	C318.1,1039.2,321.1,1036.3,324.8,1036.3"/>
<line id="Linie_991-2" class="st2" x1="377.9" y1="1129.6" x2="324.8" y2="1042.9"/>
<line id="Linie_1003-2" class="st2" x1="318.1" y1="1005.3" x2="350.5" y2="944"/>
<line id="Linie_1004-2" class="st2" x1="313.2" y1="1053.6" x2="281.4" y2="1060.2"/>
<line id="Linie_1005-2" class="st2" x1="281.4" y1="1060.2" x2="256.8" y2="1079.3"/>
<line id="Linie_1026-2" class="st2" x1="324.8" y1="1042.9" x2="318.1" y2="1005.3"/>
<line id="Linie_1027-2" class="st2" x1="318.1" y1="1005.3" x2="295.4" y2="1027.2"/>
<line id="Linie_1036-2" class="st2" x1="259.1" y1="996.8" x2="224.4" y2="1004.5"/>
<line id="Linie_1066-2" class="st6" x1="224.4" y1="1004.5" x2="255.4" y2="1020.4"/>
<line id="Linie_1067" class="st6" x1="298" y1="372" x2="398.5" y2="267.6"/>
<line id="Linie_1068" class="st6" x1="398.5" y1="267.6" x2="321.3" y2="207.9"/>
<line id="Linie_1069" class="st6" x1="398.5" y1="267.6" x2="392.3" y2="116.2"/>
<path id="Pfad_21490" class="st4" d="M547,476.5c3.7,0,6.7,3,6.7,6.7c0,3.7-3,6.7-6.7,6.7c-3.7,0-6.7-3-6.7-6.7
	S543.3,476.5,547,476.5"/>
<path id="Pfad_21491" class="st3" d="M399,577c3.7,0,6.7,3,6.7,6.7c0,3.7-3,6.7-6.7,6.7c-3.7,0-6.7-3-6.7-6.7
	C392.3,580,395.3,577,399,577"/>
<line id="Linie_1070" class="st1" x1="421" y1="880.4" x2="445.7" y2="975"/>
<line id="Linie_1071" class="st1" x1="445.7" y1="975" x2="364.5" y2="965.3"/>
<line id="Linie_1072" class="st2" x1="524.7" y1="924.2" x2="535" y2="1030.6"/>
<line id="Linie_1073" class="st2" x1="535" y1="1030.6" x2="531.2" y2="1106.7"/>
<line id="Linie_1074" class="st2" x1="531.2" y1="1106.7" x2="485.5" y2="1086"/>
<line id="Linie_1075" class="st2" x1="535" y1="1030.6" x2="625.1" y2="1025.5"/>
<line id="Linie_1076" class="st2" x1="625.1" y1="1025.5" x2="570.9" y2="910"/>
<line id="Linie_1077" class="st6" x1="577.6" y1="864.5" x2="533" y2="880"/>
<line id="Linie_1078" class="st6" x1="455.6" y1="819.7" x2="460.2" y2="796"/>
<line id="Linie_1079" class="st1" x1="627.4" y1="883.9" x2="752.2" y2="851"/>
<line id="Linie_1080" class="st1" x1="752.2" y1="851" x2="778.6" y2="698"/>
<line id="Linie_1081" class="st1" x1="627.4" y1="883.9" x2="785.3" y2="928.9"/>
<line id="Linie_1082" class="st1" x1="752.2" y1="851" x2="582.6" y2="642.3"/>
<line id="Linie_1083" class="st1" x1="204.6" y1="899.2" x2="169" y2="776.7"/>
<line id="Linie_1084" class="st1" x1="168" y1="484" x2="137.8" y2="410"/>
<line id="Linie_1085" class="st1" x1="137.8" y1="410.6" x2="114.8" y2="459.6"/>
<line id="Linie_1086" class="st1" x1="688.1" y1="345" x2="723.1" y2="224.9"/>
<line id="Linie_1087" class="st1" x1="688.1" y1="345" x2="771.3" y2="346.5"/>
<line id="Linie_1088" class="st1" x1="771.3" y1="346.5" x2="787.8" y2="392.1"/>
<line id="Linie_1089" class="st1" x1="771.3" y1="346.5" x2="726.6" y2="375.9"/>
<line id="Linie_1090" class="st6" x1="181.4" y1="653.5" x2="139.7" y2="585.1"/>
<line id="Linie_1091" class="st6" x1="139.7" y1="585.1" x2="146.3" y2="566.4"/>
<line id="Linie_1092" class="st6" x1="146.3" y1="566.4" x2="135.1" y2="520.1"/>
<line id="Linie_1093" class="st6" x1="135.1" y1="520.1" x2="97.8" y2="518.5"/>
<line id="Linie_1094" class="st6" x1="97.8" y1="518.5" x2="72.6" y2="511.6"/>
<line id="Linie_1095" class="st6" x1="136.3" y1="293.3" x2="120" y2="265.6"/>
<line id="Linie_1096" class="st6" x1="136.3" y1="293.3" x2="112.8" y2="313.8"/>
<line id="Linie_1097" class="st6" x1="112.8" y1="313.8" x2="124.6" y2="362.8"/>
<line id="Linie_1098" class="st6" x1="205.3" y1="287" x2="214.5" y2="246.9"/>
<line id="Linie_1099" class="st6" x1="214.5" y1="246.9" x2="239.9" y2="234.9"/>
<line id="Linie_1100" class="st6" x1="124.6" y1="362.8" x2="83" y2="352.3"/>
<line id="Linie_1101" class="st1" x1="188.2" y1="258.9" x2="101.6" y2="239.3"/>
<line id="Linie_1102" class="st1" x1="101.6" y1="239.3" x2="113" y2="173.1"/>
<line id="Linie_1103" class="st1" x1="113" y1="173.1" x2="147.8" y2="175.4"/>
<line id="Linie_1104" class="st1" x1="101.6" y1="239.3" x2="167.5" y2="203.1"/>
<line id="Linie_1105" class="st1" x1="101.6" y1="239.3" x2="78.4" y2="259.9"/>
<line id="Linie_1106" class="st1" x1="270.1" y1="305.5" x2="268.1" y2="249.5"/>
<line id="Linie_1107" class="st1" x1="268.1" y1="249.5" x2="295.7" y2="265.1"/>
<line id="Linie_1108" class="st1" x1="243.6" y1="289.3" x2="215.1" y2="300.2"/>
<line id="Linie_1109" class="st1" x1="268.1" y1="249.5" x2="250" y2="177"/>
<line id="Linie_1110" class="st1" x1="492.7" y1="178.6" x2="547" y2="147.6"/>
<line id="Linie_1111" class="st1" x1="547" y1="147.6" x2="710.2" y2="209.5"/>
<line id="Linie_1112" class="st1" x1="80.7" y1="608.1" x2="107" y2="566"/>
<line id="Linie_1113" class="st1" x1="80.7" y1="608.1" x2="81.1" y2="721.6"/>
<line id="Linie_1114" class="st1" x1="80.7" y1="608.1" x2="42.6" y2="522"/>
<line id="Linie_1115-2" class="st1" x1="250" y1="177" x2="428" y2="38.1"/>
<line id="Linie_1116" class="st1" x1="250" y1="177" x2="242.9" y2="146.5"/>
<line id="Linie_1117" class="st1" x1="242.9" y1="146.5" x2="209.9" y2="146.9"/>
<line id="Linie_1118-2" class="st1" x1="242.9" y1="146.5" x2="239.2" y2="38"/>
<path id="Pfad_20962-2" class="st3" d="M602.2,1050.2c-3.7,0-6.7-3-6.7-6.7c0-3.7,3-6.7,6.7-6.7s6.7,3,6.7,6.7
	C608.9,1047.2,605.9,1050.2,602.2,1050.2"/>
<path id="Pfad_20963-2" class="st4" d="M580.1,1034.8c-3.7,0-6.7-3-6.7-6.7l0,0c0-3.7,3-6.7,6.7-6.7c3.7,0,6.7,3,6.7,6.7
	C586.8,1031.8,583.8,1034.8,580.1,1034.8L580.1,1034.8"/>
<path id="Pfad_20968-2" class="st3" d="M568.4,1050.2c-3.7,0-6.7-3-6.7-6.7l0,0c0-3.7,3-6.7,6.7-6.7l0,0c3.7,0,6.7,3,6.7,6.7l0,0
	C575.1,1047.2,572.1,1050.2,568.4,1050.2L568.4,1050.2"/>
<path id="Pfad_20971-2" class="st3" d="M552,1050.6c-3.7,0-6.7-3-6.7-6.7c0-3.7,3-6.7,6.7-6.7c3.7,0,6.7,3,6.7,6.7
	C558.7,1047.6,555.7,1050.6,552,1050.6"/>
<path id="Pfad_21004-2" class="st3" d="M614,1177.2c-3.7,0-6.7-3-6.7-6.7c0-3.7,3-6.7,6.7-6.7s6.7,3,6.7,6.7
	C620.7,1174.2,617.7,1177.2,614,1177.2"/>
<path id="Pfad_21012-2" class="st3" d="M598.3,1177.2c-3.7,0-6.7-3-6.7-6.7c0-3.7,3-6.7,6.7-6.7s6.7,3,6.7,6.7
	C605,1174.2,602,1177.2,598.3,1177.2"/>
<path id="Pfad_21037-2" class="st3" d="M567,1177.2c-3.7,0-6.7-3-6.7-6.7s3-6.7,6.7-6.7s6.7,3,6.7,6.7l0,0
	C573.7,1174.2,570.7,1177.2,567,1177.2L567,1177.2"/>
<path id="Pfad_21051-2" class="st3" d="M551.7,1193c-3.7,0-6.7-3-6.7-6.7c0-3.7,3-6.7,6.7-6.7s6.7,3,6.7,6.7S555.4,1193,551.7,1193"
	/>
<path id="Pfad_21061-2" class="st4" d="M536,1193c-3.7,0-6.7-3-6.7-6.7s3-6.7,6.7-6.7c3.7,0,6.7,3,6.7,6.7
	C542.7,1190,539.7,1193,536,1193"/>
<path id="Pfad_21062-2" class="st3" d="M537.2,1208.7c-3.7,0-6.7-3-6.7-6.7s3-6.7,6.7-6.7s6.7,3,6.7,6.7S540.9,1208.7,537.2,1208.7"
	/>
<path id="Pfad_21173-2" class="st3" d="M394.3,1158.5c-3.7,0-6.7-3-6.7-6.7l0,0c0-3.7,3-6.7,6.7-6.7c3.7,0,6.7,3,6.7,6.7l0,0
	C401,1155.6,398,1158.5,394.3,1158.5L394.3,1158.5"/>
<path id="Pfad_21182-2" class="st4" d="M377.9,1142.9c-3.7,0-6.7-3-6.7-6.7c0-3.7,3-6.7,6.7-6.7c3.7,0,6.7,3,6.7,6.7l0,0
	C384.6,1139.9,381.6,1142.9,377.9,1142.9"/>
<path id="Pfad_21183-2" class="st3" d="M378.6,1158.6c-3.7,0-6.7-3-6.7-6.7s3-6.7,6.7-6.7s6.7,3,6.7,6.7S382.3,1158.6,378.6,1158.6"
	/>
<path id="Pfad_21184-2" class="st3" d="M379.8,1174.2c-3.7,0-6.7-3-6.7-6.7s3-6.7,6.7-6.7c3.7,0,6.7,3,6.7,6.7l0,0
	C386.5,1171.2,383.5,1174.2,379.8,1174.2"/>
<path id="Pfad_21192-2" class="st3" d="M363,1158.6c-3.7,0-6.7-3-6.7-6.7c0-3.7,3-6.7,6.7-6.7s6.7,3,6.7,6.7
	S366.6,1158.6,363,1158.6"/>
<path id="Pfad_21206-2" class="st3" d="M278,1165.8c-3.7,0-6.7-3-6.7-6.7l0,0c0-3.7,3-6.7,6.7-6.7s6.7,3,6.7,6.7
	S281.6,1165.8,278,1165.8L278,1165.8"/>
<path id="Pfad_21218-2" class="st3" d="M262.2,1165.6c-3.7,0-6.7-3-6.7-6.7s3-6.7,6.7-6.7s6.7,3,6.7,6.7S265.9,1165.6,262.2,1165.6"
	/>
<path id="Pfad_21243-2" class="st3" d="M230.8,1165.7c-3.7,0-6.7-3-6.7-6.7c0-3.7,3-6.7,6.7-6.7c3.7,0,6.7,3,6.7,6.7
	C237.5,1162.8,234.5,1165.7,230.8,1165.7L230.8,1165.7"/>
<path id="Pfad_21250-2" class="st4" d="M215.1,1165.6c-3.7,0-6.7-3-6.7-6.7s3-6.7,6.7-6.7s6.7,3,6.7,6.7S218.8,1165.6,215.1,1165.6"
	/>
<path id="Pfad_21322-2" class="st3" d="M198.9,1150c-3.7,0-6.7-3-6.7-6.7s3-6.7,6.7-6.7c3.7,0,6.7,3,6.7,6.7
	C205.6,1147,202.6,1150,198.9,1150"/>
<path id="Pfad_21323-2" class="st3" d="M199.4,1165.7c-3.7,0-6.7-3-6.7-6.7l0,0c0-3.7,3-6.7,6.7-6.7l0,0c3.7,0,6.7,3,6.7,6.7l0,0
	C206,1162.7,203.1,1165.7,199.4,1165.7L199.4,1165.7"/>
<path id="Pfad_21334-2" class="st3" d="M183.2,1150c-3.7,0-6.7-3-6.7-6.7s3-6.7,6.7-6.7s6.7,3,6.7,6.7l0,0
	C189.9,1147,186.9,1149.9,183.2,1150"/>
<path id="Pfad_21350-2" class="st3" d="M168,1165.7c-3.7,0-6.7-3-6.7-6.7c0-3.7,3-6.7,6.7-6.7s6.7,3,6.7,6.7
	C174.7,1162.7,171.7,1165.7,168,1165.7"/>
<line id="Linie_1119" class="st1" x1="250" y1="177" x2="186.6" y2="233"/>
<line id="Linie_1120" class="st1" x1="654.8" y1="345" x2="597.9" y2="429.7"/>
<line id="Linie_1121" class="st1" x1="492.7" y1="178.6" x2="487.7" y2="299"/>
<line id="Linie_1122" class="st1" x1="492.7" y1="178.6" x2="415.3" y2="268.4"/>
<line id="Linie_1123" class="st1" x1="492.7" y1="178.6" x2="479.9" y2="163.3"/>
<line id="Linie_1124" class="st1" x1="546" y1="148.1" x2="563.9" y2="132.2"/>
<line id="Linie_1125" class="st1" x1="563.9" y1="132.2" x2="614.9" y2="85.1"/>
<line id="Linie_1126" class="st1" x1="563.9" y1="132.2" x2="583.5" y2="85.1"/>
<path id="Pfad_21167-2" class="st3" d="M225.4,997.9c3.7,0,6.7,3,6.7,6.7l0,0c0,3.7-3,6.7-6.7,6.7l0,0c-3.7,0-6.7-3-6.7-6.7l0,0
	C218.7,1000.9,221.7,997.9,225.4,997.9L225.4,997.9"/>
</svg>
