<?xml version="1.0" encoding="utf-8"?>
<!-- Generator: Adobe Illustrator 28.0.0, SVG Export Plug-In . SVG Version: 6.00 Build 0)  -->
<svg version="1.1" id="Layer_1" xmlns="http://www.w3.org/2000/svg" xmlns:xlink="http://www.w3.org/1999/xlink" x="0px" y="0px"
	 viewBox="0 0 561.2 591.8" style="enable-background:new 0 0 561.2 591.8;" xml:space="preserve">
<style type="text/css">
	.st0{fill:none;stroke:#009568;stroke-width:2.25;stroke-linecap:round;stroke-miterlimit:10;stroke-dasharray:0,5,0,5;}
	.st1{fill:none;}
	.st2{fill:#ED6B9A;}
	.st3{fill:#009867;}
	.st4{fill:#009468;}
	.st5{fill:#071A2C;}
	.st6{fill:none;stroke:#071A2C;stroke-width:1.5;stroke-miterlimit:10;}
	.st7{fill:none;stroke:#071A2C;stroke-width:1.5;stroke-miterlimit:10.0001;}
	.st8{fill:none;stroke:#071A2C;stroke-miterlimit:10;}
	.st9{fill:#091A2C;}
	.st10{fill:#071A2C;stroke:#009468;stroke-width:2;stroke-linecap:round;stroke-linejoin:round;stroke-miterlimit:10;}
	.st11{fill:none;stroke:#009468;stroke-width:1.5;stroke-linecap:round;stroke-linejoin:round;stroke-miterlimit:10;}
</style>
<line id="Linie_1087_00000158014706911391255750000003220920345220232852_" class="st0" x1="521.7" y1="285" x2="501.1" y2="464"/>
<line id="Linie_1087_00000002357452458249979760000018089954310140861604_" class="st0" x1="155" y1="430.2" x2="225.5" y2="555.2"/>
<line id="Linie_1087_00000111891315011118821230000011890901226312534453_" class="st0" x1="57.1" y1="483.5" x2="219.6" y2="363.3"/>
<line id="Linie_1087_00000002375999037814872820000000218460394661971335_" class="st0" x1="62.8" y1="63.9" x2="234.8" y2="292.4"/>
<line id="Linie_1087_00000177483430952500799010000011984436100633878423_" class="st0" x1="136.4" y1="150.4" x2="274.5" y2="108.7"/>
<line id="Linie_1087_00000130619517601669441870000009813425888387125398_" class="st0" x1="298.4" y1="94.6" x2="414.5" y2="42.2"/>
<line id="Linie_1087_00000031187302523128097580000011845731377215759277_" class="st0" x1="429.3" y1="151.5" x2="414.5" y2="45.1"/>
<line id="Linie_1087_00000094620367026539739030000009474344994189612428_" class="st0" x1="516.1" y1="260.9" x2="433.8" y2="188.6"/>
<line id="Linie_1087_00000134225135378134976280000014439295293785064353_" class="st0" x1="508.8" y1="279.6" x2="437.4" y2="360.6"/>
<line id="Linie_1087_00000086681511642749895630000001715196727511790214_" class="st0" x1="494.9" y1="477.6" x2="372.4" y2="500.2"/>
<line id="Linie_1087_00000065752748007818725710000012359905175207684283_" class="st0" x1="41.5" y1="289.2" x2="131.7" y2="153.9"/>
<line id="Linie_1087_00000059993323934837909570000012389147703881165481_" class="st0" x1="304.4" y1="342.8" x2="397.6" y2="360"/>
<line id="Linie_1087_00000108273694362800060570000014909378029715222942_" class="st0" x1="293.6" y1="130.1" x2="275.7" y2="287.8"/>
<line id="Linie_1087_00000050659552348216604060000007050259455780158613_" class="st0" x1="404.6" y1="201.4" x2="295.4" y2="303.6"/>
<line id="Linie_1087_00000082363646848473708450000002525046388196122249_" class="st0" x1="348.2" y1="476.1" x2="285.3" y2="369.5"/>
<line id="Linie_1087_00000139998938247228541500000002771274689674026667_" class="st0" x1="229.4" y1="555.2" x2="256.7" y2="374.5"/>
<line id="Linie_1087_00000108280409614964456560000010998632621430691761_" class="st0" x1="40.4" y1="296.2" x2="205.1" y2="328"/>
<g>
	<path id="Pfad_21081_00000124130176358538781100000005472633454068085126_" class="st1" d="M257.5,293.1c20.9,0,37.9,17,37.9,37.9
		c0,20.9-17,37.9-37.9,37.9c-20.9,0-37.9-17-37.9-37.9C219.6,310,236.6,293.1,257.5,293.1"/>
</g>
<g>
	<g>
		<circle class="st2" cx="269.4" cy="313.1" r="2.5"/>
		<circle class="st2" cx="279.3" cy="323" r="2.5"/>
	</g>
	<g>
		<g>
			<g>
				<circle class="st3" cx="264.5" cy="328" r="2.5"/>
				<circle class="st3" cx="254.6" cy="308.2" r="2.5"/>
				<circle class="st3" cx="234.8" cy="313.1" r="2.5"/>
				<circle class="st3" cx="254.6" cy="313.1" r="2.5"/>
				<circle class="st3" cx="234.8" cy="318.1" r="2.5"/>
				<circle class="st3" cx="254.6" cy="318.1" r="2.5"/>
				<circle class="st3" cx="234.8" cy="323" r="2.5"/>
				<circle class="st3" cx="239.7" cy="323" r="2.5"/>
				<circle class="st3" cx="244.7" cy="323" r="2.5"/>
				<circle class="st3" cx="254.6" cy="323" r="2.5"/>
				<circle class="st3" cx="259.5" cy="323" r="2.5"/>
				<circle class="st3" cx="264.5" cy="323" r="2.5"/>
				<circle class="st3" cx="269.4" cy="323" r="2.5"/>
				<circle class="st3" cx="244.7" cy="328" r="2.5"/>
				<circle class="st3" cx="259.5" cy="328" r="2.5"/>
				<circle class="st3" cx="269.4" cy="328" r="2.5"/>
				<circle class="st3" cx="244.7" cy="332.9" r="2.5"/>
				<circle class="st3" cx="254.6" cy="332.9" r="2.5"/>
				<circle class="st3" cx="259.5" cy="332.9" r="2.5"/>
				<circle class="st3" cx="264.5" cy="332.9" r="2.5"/>
				<circle class="st3" cx="269.4" cy="332.9" r="2.5"/>
				<circle class="st3" cx="244.7" cy="337.9" r="2.5"/>
				<circle class="st3" cx="254.6" cy="337.9" r="2.5"/>
				<circle class="st3" cx="259.5" cy="337.9" r="2.5"/>
				<circle class="st3" cx="269.4" cy="337.9" r="2.5"/>
				<circle class="st3" cx="269.4" cy="342.8" r="2.5"/>
				<circle class="st3" cx="274.4" cy="342.8" r="2.5"/>
				<circle class="st3" cx="279.3" cy="342.8" r="2.5"/>
				<circle class="st3" cx="284.3" cy="342.8" r="2.5"/>
				<circle class="st3" cx="254.6" cy="347.8" r="2.5"/>
				<circle class="st3" cx="259.5" cy="347.8" r="2.5"/>
				<circle class="st3" cx="239.7" cy="352.7" r="2.5"/>
				<circle class="st3" cx="244.7" cy="352.7" r="2.5"/>
				<circle class="st3" cx="249.6" cy="352.7" r="2.5"/>
				<circle class="st3" cx="254.6" cy="352.7" r="2.5"/>
				<circle class="st3" cx="259.5" cy="352.7" r="2.5"/>
				<circle class="st3" cx="264.5" cy="352.7" r="2.5"/>
				<circle class="st3" cx="239.7" cy="357.7" r="2.5"/>
			</g>
			<circle class="st3" cx="254.6" cy="303.2" r="2.5"/>
			<circle class="st3" cx="234.8" cy="308.2" r="2.5"/>
			<circle class="st3" cx="249.6" cy="308.2" r="2.5"/>
			<circle class="st3" cx="259.5" cy="308.2" r="2.5"/>
			<circle class="st3" cx="229.8" cy="313.1" r="2.5"/>
			<circle class="st3" cx="239.7" cy="313.1" r="2.5"/>
			<circle class="st3" cx="274.4" cy="313.1" r="2.5"/>
			<circle class="st3" cx="264.5" cy="318.1" r="2.5"/>
			<circle class="st3" cx="269.4" cy="318.1" r="2.5"/>
			<circle class="st3" cx="274.4" cy="318.1" r="2.5"/>
			<circle class="st3" cx="279.3" cy="318.1" r="2.5"/>
			<circle class="st3" cx="274.4" cy="323" r="2.5"/>
			<circle class="st3" cx="254.6" cy="328" r="2.5"/>
			<circle class="st3" cx="274.4" cy="328" r="2.5"/>
			<circle class="st3" cx="249.6" cy="332.9" r="2.5"/>
			<circle class="st3" cx="249.6" cy="337.9" r="2.5"/>
			<circle class="st3" cx="264.5" cy="337.9" r="2.5"/>
			<circle class="st3" cx="284.3" cy="337.9" r="2.5"/>
			<circle class="st3" cx="249.6" cy="342.8" r="2.5"/>
			<circle class="st3" cx="254.6" cy="342.8" r="2.5"/>
			<circle class="st3" cx="259.5" cy="342.8" r="2.5"/>
			<circle class="st3" cx="289.2" cy="342.8" r="2.5"/>
			<circle class="st3" cx="284.3" cy="347.8" r="2.5"/>
			<circle class="st3" cx="234.8" cy="357.7" r="2.5"/>
			<circle class="st3" cx="244.7" cy="357.7" r="2.5"/>
			<circle class="st3" cx="239.7" cy="362.7" r="2.5"/>
		</g>
	</g>
</g>
<g>
	<path id="Pfad_21081_00000017501643044199979370000016588471618857747093_" class="st4" d="M146,385.1c16.5,0,30,13.4,30,29.9
		c0,16.5-13.4,29.9-30,29.9c-16.5,0-30-13.4-30-29.9C116,398.5,129.4,385.1,146,385.1"/>
</g>
<g>
	<g>
		<path id="Pfad_21081_00000015354911785940288210000008770530723567456934_" class="st4" d="M131.7,122.9c16.5,0,30,13.4,30,29.9
			c0,16.5-13.4,29.9-30,29.9c-16.5,0-30-13.4-30-29.9S115.1,122.9,131.7,122.9"/>
	</g>
	<path class="st5" d="M112.2,146.8c1.3-0.6,3.2-1,5.2-1s3.9,0.4,5.2,1c1.4,0.6,1.9,1.3,1.9,1.9c0,0.5-0.5,1.2-1.9,1.9
		c-1.3,0.6-3.2,1-5.2,1s-3.9-0.4-5.2-1c-1.4-0.6-1.9-1.3-1.9-1.9C110.3,148.2,110.8,147.4,112.2,146.8z M124.6,151.1v1.9
		c0,0.5-0.5,1.2-1.9,1.9c-1.3,0.6-3.2,1-5.2,1s-3.9-0.4-5.2-1c-1.4-0.6-1.9-1.3-1.9-1.9v-1.9c0.4,0.3,0.8,0.5,1.3,0.7
		c1.5,0.7,3.6,1.1,5.8,1.1s4.3-0.4,5.8-1.1C123.7,151.6,124.2,151.4,124.6,151.1z M126,148.7c0-1.4-1.2-2.5-2.7-3.2
		c-1.5-0.7-3.6-1.1-5.8-1.1s-4.3,0.4-5.8,1.1c-1.5,0.7-2.7,1.7-2.7,3.2v12.8c0,1.4,1.2,2.5,2.7,3.2c1.5,0.7,3.6,1.1,5.8,1.1
		s4.3-0.4,5.8-1.1c1.5-0.7,2.7-1.7,2.7-3.2V148.7z M124.6,155.4v1.9c0,0.5-0.5,1.2-1.9,1.9c-1.3,0.6-3.2,1-5.2,1s-3.9-0.4-5.2-1
		c-1.4-0.6-1.9-1.3-1.9-1.9v-1.9c0.4,0.3,0.8,0.5,1.3,0.7c1.5,0.7,3.6,1.1,5.8,1.1s4.3-0.4,5.8-1.1
		C123.7,155.9,124.2,155.7,124.6,155.4z M124.6,159.6v1.9c0,0.5-0.5,1.2-1.9,1.9c-1.3,0.6-3.2,1-5.2,1s-3.9-0.4-5.2-1
		c-1.4-0.6-1.9-1.3-1.9-1.9v-1.9c0.4,0.3,0.8,0.5,1.3,0.7c1.5,0.7,3.6,1.1,5.8,1.1s4.3-0.4,5.8-1.1
		C123.7,160.2,124.2,159.9,124.6,159.6z"/>
	<path class="st5" d="M132.8,133.5c1.3-0.6,3.2-1,5.2-1s3.9,0.4,5.2,1c1.4,0.6,1.9,1.3,1.9,1.9c0,0.5-0.5,1.2-1.9,1.9
		c-1.3,0.6-3.2,1-5.2,1s-3.9-0.4-5.2-1c-1.4-0.6-1.9-1.3-1.9-1.9C130.9,134.8,131.4,134.1,132.8,133.5z M145.1,137.7v1.9
		c0,0.5-0.5,1.2-1.9,1.9c-1.3,0.6-3.2,1-5.2,1s-3.9-0.4-5.2-1c-1.4-0.6-1.9-1.3-1.9-1.9v-1.9c0.4,0.3,0.8,0.5,1.3,0.7
		c1.5,0.7,3.6,1.1,5.8,1.1s4.3-0.4,5.8-1.1C144.3,138.3,144.7,138,145.1,137.7z M146.5,135.3c0-1.4-1.2-2.5-2.7-3.2
		c-1.5-0.7-3.6-1.1-5.8-1.1s-4.3,0.4-5.8,1.1c-1.5,0.7-2.7,1.7-2.7,3.2v12.8c0,1.4,1.2,2.5,2.7,3.2c1.5,0.7,3.6,1.1,5.8,1.1
		s4.3-0.4,5.8-1.1c1.5-0.7,2.7-1.7,2.7-3.2V135.3z M145.1,142v1.9c0,0.5-0.5,1.2-1.9,1.9c-1.3,0.6-3.2,1-5.2,1s-3.9-0.4-5.2-1
		c-1.4-0.6-1.9-1.3-1.9-1.9V142c0.4,0.3,0.8,0.5,1.3,0.7c1.5,0.7,3.6,1.1,5.8,1.1s4.3-0.4,5.8-1.1
		C144.3,142.5,144.7,142.3,145.1,142z M145.1,146.3v1.9c0,0.5-0.5,1.2-1.9,1.9c-1.3,0.6-3.2,1-5.2,1s-3.9-0.4-5.2-1
		c-1.4-0.6-1.9-1.3-1.9-1.9v-1.9c0.4,0.3,0.8,0.5,1.3,0.7c1.5,0.7,3.6,1.1,5.8,1.1s4.3-0.4,5.8-1.1
		C144.3,146.8,144.7,146.6,145.1,146.3z"/>
	<path class="st5" d="M131.3,157.5c1.3-0.6,3.2-1,5.2-1s3.9,0.4,5.2,1c1.4,0.6,1.9,1.3,1.9,1.9c0,0.5-0.5,1.2-1.9,1.9
		c-1.3,0.6-3.2,1-5.2,1s-3.9-0.4-5.2-1c-1.4-0.6-1.9-1.3-1.9-1.9C129.5,158.8,130,158.1,131.3,157.5z M143.7,161.8v1.9
		c0,0.5-0.5,1.2-1.9,1.9c-1.3,0.6-3.2,1-5.2,1s-3.9-0.4-5.2-1c-1.4-0.6-1.9-1.3-1.9-1.9v-1.9c0.4,0.3,0.8,0.5,1.3,0.7
		c1.5,0.7,3.6,1.1,5.8,1.1s4.3-0.4,5.8-1.1C142.9,162.3,143.3,162.1,143.7,161.8z M145.1,159.4c0-1.4-1.2-2.5-2.7-3.2
		c-1.5-0.7-3.6-1.1-5.8-1.1s-4.3,0.4-5.8,1.1c-1.5,0.7-2.7,1.7-2.7,3.2v12.8c0,1.4,1.2,2.5,2.7,3.2c1.5,0.7,3.6,1.1,5.8,1.1
		s4.3-0.4,5.8-1.1c1.5-0.7,2.7-1.7,2.7-3.2V159.4z M143.7,166v1.9c0,0.5-0.5,1.2-1.9,1.9c-1.3,0.6-3.2,1-5.2,1s-3.9-0.4-5.2-1
		c-1.4-0.6-1.9-1.3-1.9-1.9V166c0.4,0.3,0.8,0.5,1.3,0.7c1.5,0.7,3.6,1.1,5.8,1.1s4.3-0.4,5.8-1.1
		C142.9,166.6,143.3,166.3,143.7,166z M143.7,170.3v1.9c0,0.5-0.5,1.2-1.9,1.9c-1.3,0.6-3.2,1-5.2,1s-3.9-0.4-5.2-1
		c-1.4-0.6-1.9-1.3-1.9-1.9v-1.9c0.4,0.3,0.8,0.5,1.3,0.7c1.5,0.7,3.6,1.1,5.8,1.1s4.3-0.4,5.8-1.1
		C142.9,170.8,143.3,170.6,143.7,170.3z"/>
</g>
<g>
	<g>
		<g>
			<path id="Pfad_21081_00000031900174210997537890000007642305088812351918_" class="st4" d="M430.4,330.8c16.5,0,30,13.4,30,29.9
				c0,16.5-13.4,29.9-30,29.9c-16.5,0-30-13.4-30-29.9C400.4,344.2,413.8,330.8,430.4,330.8"/>
		</g>
	</g>
</g>
<g>
	<g>
		<path id="Pfad_21081_00000061438462086975278970000018222643833667249054_" class="st4" d="M430.4,152.5c16.5,0,30,13.4,30,29.9
			c0,16.5-13.4,29.9-30,29.9c-16.5,0-30-13.4-30-29.9C400.4,166,413.8,152.5,430.4,152.5"/>
	</g>
	<g>
		<g>
			<path class="st6" d="M441.6,189.1l5.5,5.5c1.5,1.5,1.5,3.9,0,5.4l0,0c-1.5,1.5-3.9,1.5-5.4,0l-5.5-5.5"/>
		</g>
		<g>
			<g>
				<path class="st6" d="M434.3,179.3C434.3,179.3,434.3,179.3,434.3,179.3c0-1.1,0.5-2.2,1.3-2.9l0.6-0.5c0.3-0.3,0.4-0.7,0.2-1.1
					l-1.1-1.9c-0.2-0.4-0.6-0.5-1-0.4l-0.8,0.3c-1,0.4-2.2,0.2-3.2-0.3c0,0,0,0,0,0c-1-0.6-1.6-1.5-1.8-2.6l-0.2-0.8
					c-0.1-0.4-0.4-0.7-0.8-0.7l-2.2,0c-0.4,0-0.8,0.3-0.8,0.7l-0.2,0.8c-0.2,1.1-0.9,2-1.9,2.6c0,0,0,0,0,0c-1,0.6-2.1,0.7-3.2,0.3
					l-0.8-0.3c-0.4-0.1-0.8,0-1,0.4l-1.1,1.9c-0.2,0.4-0.1,0.8,0.2,1.1l0.6,0.5c0.8,0.7,1.3,1.8,1.3,2.9c0,0,0,0,0,0c0,0,0,0,0,0
					c0,1.1-0.5,2.2-1.3,2.9l-0.6,0.5c-0.3,0.3-0.4,0.7-0.2,1.1l1.1,1.9c0.2,0.4,0.6,0.5,1,0.4l0.8-0.3c1-0.4,2.2-0.2,3.2,0.3
					c0,0,0,0,0,0c1,0.6,1.6,1.5,1.8,2.6l0.2,0.8c0.1,0.4,0.4,0.7,0.8,0.7l2.2,0c0.4,0,0.8-0.3,0.8-0.7l0.2-0.8
					c0.2-1.1,0.9-2,1.9-2.6c0,0,0,0,0,0c1-0.6,2.1-0.7,3.2-0.3l0.8,0.3c0.4,0.1,0.8,0,1-0.4l1.1-1.9c0.2-0.4,0.1-0.8-0.2-1.1
					l-0.6-0.5C434.7,181.5,434.3,180.4,434.3,179.3C434.3,179.3,434.3,179.3,434.3,179.3z"/>
				
					<ellipse transform="matrix(0.1793 -0.9838 0.9838 0.1793 173.5373 566.5813)" class="st7" cx="426.4" cy="179.3" rx="3.9" ry="3.9"/>
			</g>
		</g>
		<g>
			<polyline class="st6" points="417,194.5 416.7,191.4 419.6,190.4 			"/>
			<polyline class="st6" points="435.8,164 436.1,167.2 433.2,168.2 			"/>
			<path class="st6" d="M416.7,191.4c3.4,2.7,7.9,4,12.5,3.1c8.4-1.6,14-9.6,12.4-18c-0.5-2.9-1.9-5.5-3.8-7.6"/>
			<path class="st6" d="M436.1,167.2c-3.4-2.7-7.9-4-12.5-3.1c-8.4,1.6-14,9.6-12.4,18c0.5,2.9,1.8,5.4,3.6,7.4"/>
		</g>
	</g>
</g>
<g>
	<path id="Pfad_21081_00000027584145451571004850000011267317466163200698_" class="st4" d="M370.5,469.5c16.5,0,30,13.4,30,29.9
		c0,16.5-13.4,29.9-30,29.9c-16.5,0-30-13.4-30-29.9C340.5,482.9,353.9,469.5,370.5,469.5"/>
</g>
<g>
	<g>
		<g>
			<path id="Pfad_21081_00000037658784276057268530000016974134269661598126_" class="st4" d="M293.6,69.4c16.5,0,30,13.4,30,29.9
				c0,16.5-13.4,29.9-30,29.9c-16.5,0-30-13.4-30-29.9S277.1,69.4,293.6,69.4"/>
		</g>
	</g>
</g>
<g>
	<g>
		<g>
			<path id="Pfad_21081_00000003792204132379772160000010919623779805019801_" class="st4" d="M39.4,265.9c16.5,0,30,13.4,30,29.9
				c0,16.5-13.4,29.9-30,29.9c-16.5,0-30-13.4-30-29.9C9.4,279.3,22.8,265.9,39.4,265.9"/>
		</g>
	</g>
</g>
<g>
	<path class="st8" d="M27.8,290h-8.4c-1.3,0-2.3,1-2.3,2.3v6.1c0,1.3,1,2.3,2.3,2.3h8.4c1.3,0,2.3-1,2.3-2.3c0,0,0,0,0,0v-6.1
		C30.1,291,29.1,290,27.8,290z"/>
	<path class="st8" d="M45.6,298.4v-6.1c0-1.3-1-2.3-2.3-2.3h-8.4c-1.3,0-2.3,1-2.3,2.3v6.1c0,1.3,1,2.3,2.3,2.3h8.4
		C44.6,300.7,45.6,299.7,45.6,298.4z"/>
	<path class="st8" d="M58.8,290h-8.4c-1.3,0-2.3,1-2.3,2.3v6.1c0,1.3,1,2.3,2.3,2.3c0,0,0,0,0,0h8.4c1.3,0,2.3-1,2.3-2.3v-6.1
		C61.1,291,60,290,58.8,290z"/>
	<path class="st5" d="M39.2,285.3l-1-0.7c-0.4-0.2-0.8-0.2-1.1,0.2c-0.2,0.3-0.2,0.8,0.2,1.1l2.5,1.8c0.4,0.3,0.8,0.2,1.1-0.2
		l1.8-2.5c0.3-0.3,0.2-0.8-0.2-1.1c0,0,0,0,0,0c-0.8-0.6-1.3,0.5-1.7,1c-1.1-4.9-6-8.1-10.9-7c-4.2,0.9-7.2,4.7-7.2,9
		c0,0.4,0.4,0.8,0.8,0.8c0.4,0,0.8-0.4,0.8-0.8C24.4,277.8,37.1,276.5,39.2,285.3z"/>
	<path class="st5" d="M56.9,302.6c-0.2-0.4-0.7-0.5-1.1-0.2l-2.5,1.7c-0.4,0.2-0.5,0.7-0.2,1.1c0.2,0.4,0.7,0.5,1.1,0.2l0,0l1.2-0.8
		c-0.8,4.1-4.8,6.8-8.9,6c-3.6-0.7-6.1-3.8-6.1-7.5c0-0.4-0.4-0.8-0.8-0.8s-0.8,0.4-0.8,0.8C39,314,54,315.6,56.8,305.2l0.5,0.8
		c0.2,0.4,0.7,0.4,1.1,0.2c0.3-0.2,0.4-0.7,0.2-1.1L56.9,302.6z"/>
	<path class="st5" d="M24.2,302.2c-0.3-0.3-0.8-0.3-1.1,0c0,0,0,0,0,0l-2.1,2.1c-0.3,0.3-0.3,0.8,0,1.1c0.3,0.3,0.8,0.3,1.1,0
		l0.8-0.8v6.3c0,0.4,0.4,0.8,0.8,0.8c0.4,0,0.8-0.4,0.8-0.8v-6.3l0.8,0.8c0.3,0.3,0.8,0.3,1.1,0c0.3-0.3,0.3-0.8,0-1.1L24.2,302.2z"
		/>
	<path class="st5" d="M53.3,287.6c0.3,0.3,0.8,0.3,1.1,0l0,0l4.9-4.9c0.3-0.3,0.3-0.8,0-1.1c-0.3-0.3-0.8-0.3-1.1,0c0,0,0,0,0,0
		l-4.4,4.4l-1.8-1.8c-0.3-0.3-0.8-0.3-1.1,0c-0.3,0.3-0.3,0.8,0,1.1L53.3,287.6z"/>
</g>
<g>
	<path class="st5" d="M310.3,85.7h-4c-0.4,0-0.7,0.3-0.7,0.7c0,0.4,0.3,0.7,0.7,0.7h4c0.8,0,1.4,0.6,1.4,1.4v20.4h-36V88.4
		c0-0.8,0.6-1.4,1.4-1.4h3.9c0.4,0,0.7-0.3,0.7-0.7c0-0.4-0.3-0.7-0.7-0.7H277c-1.5,0-2.8,1.2-2.8,2.8c0,0,0,0,0,0v21.7
		c0,1.5,1.2,2.8,2.8,2.8c0,0,0,0,0,0h12.8v4.2h-3.1c-0.2,0-0.4,0.1-0.5,0.2l-2.1,2.1c-0.1,0.1-0.2,0.3-0.2,0.5v2.1
		c0,0.4,0.3,0.7,0.7,0.7h18c0.4,0,0.7-0.3,0.7-0.7v-2.1c0-0.2-0.1-0.4-0.2-0.5l-2.1-2.1c-0.1-0.1-0.3-0.2-0.5-0.2h-3.5v-4.2h13.2
		c1.5,0,2.8-1.2,2.8-2.8c0,0,0,0,0,0V88.4C313,86.9,311.8,85.7,310.3,85.7C310.3,85.7,310.3,85.7,310.3,85.7z M297.1,118.6h3.2
		l1.7,1.7v1.1h-16.6v-1.1l1.7-1.7h2.8c0.8,0,1.4-0.6,1.4-1.4v-4.2h4.5v4.2C295.7,117.9,296.3,118.6,297.1,118.6z M310.3,111.6H277
		c-0.8,0-1.4-0.6-1.4-1.4h36C311.7,110.9,311,111.6,310.3,111.6z"/>
	<path class="st5" d="M284.2,92.4c-0.4,0-0.7,0.3-0.7,0.7v0v9.6c0,0.4,0.3,0.7,0.7,0.7c0,0,0,0,0,0h18.9c0.4,0,0.7-0.3,0.7-0.7v0
		v-9.6c0-0.4-0.3-0.7-0.7-0.7c-0.4,0-0.7,0.3-0.7,0.7v8.9h-17.5v-8.9C284.9,92.8,284.6,92.4,284.2,92.4L284.2,92.4z"/>
	<path class="st5" d="M282.5,91.1h22.2c0.4,0,0.7-0.3,0.7-0.7c0-0.1,0-0.1,0-0.2l-1.2-3.7c0-0.1-0.1-0.1-0.1-0.2c0.1,0-3-2.2-3-2.2
		c-0.1-0.1-0.3-0.1-0.4-0.1h-14c-0.1,0-0.3,0-0.4,0.1l-2.9,2.1c-0.1,0.1-0.2,0.2-0.3,0.3l-1.2,3.7c-0.1,0.4,0.1,0.8,0.4,0.9
		C282.4,91,282.5,91.1,282.5,91.1z M286.9,85.3h13.5l0.9,0.7h-15.4L286.9,85.3z M284.3,87.4H303l0.8,2.3h-20.3L284.3,87.4z"/>
</g>
<g>
	<path class="st5" d="M447.6,350.5h-3.1v-8.1c0-1-0.8-1.9-1.9-1.9h-27.3c-1,0-1.9,0.8-1.9,1.9v35.9c0,1,0.8,1.9,1.9,1.9h29.7
		c1,0,1.9-0.8,1.9-1.9v-8.1h1.9c0.3,0,0.6-0.3,0.6-0.6v-17.3C449.4,351.3,448.6,350.5,447.6,350.5z M415.4,378.9
		c-0.3,0-0.6-0.3-0.6-0.6v-35.9c0-0.3,0.3-0.6,0.6-0.6h27.3c0.3,0,0.6,0.3,0.6,0.6v35.9c0,0.2,0,0.4,0.1,0.6H415.4z M445.7,352.3v26
		c0,0.3-0.3,0.6-0.6,0.6s-0.6-0.3-0.6-0.6v-26.6h1.3C445.8,351.9,445.7,352.1,445.7,352.3z M448.2,369H447v-16.7
		c0-0.3,0.3-0.6,0.6-0.6s0.6,0.3,0.6,0.6L448.2,369L448.2,369z M440.8,353.1c0,0.3-0.3,0.6-0.6,0.6h-9.9c-0.3,0-0.6-0.3-0.6-0.6
		s0.3-0.6,0.6-0.6h9.9C440.5,352.4,440.8,352.7,440.8,353.1z M440.8,355.5c0,0.3-0.3,0.6-0.6,0.6h-9.9c-0.3,0-0.6-0.3-0.6-0.6
		c0-0.3,0.3-0.6,0.6-0.6h9.9C440.5,354.9,440.8,355.2,440.8,355.5z M430.2,357.4h6.2c0.3,0,0.6,0.3,0.6,0.6s-0.3,0.6-0.6,0.6h-6.2
		c-0.3,0-0.6-0.3-0.6-0.6S429.9,357.4,430.2,357.4z M440.8,358c0,0.3-0.3,0.6-0.6,0.6h-1.2c-0.3,0-0.6-0.3-0.6-0.6s0.3-0.6,0.6-0.6
		h1.2C440.5,357.4,440.8,357.7,440.8,358z M428.4,364c0,0.3-0.3,0.6-0.6,0.6h-9.9c-0.3,0-0.6-0.3-0.6-0.6s0.3-0.6,0.6-0.6h9.9
		C428.1,363.3,428.4,363.6,428.4,364z M428.4,366.4c0,0.3-0.3,0.6-0.6,0.6h-9.9c-0.3,0-0.6-0.3-0.6-0.6c0-0.3,0.3-0.6,0.6-0.6h9.9
		C428.1,365.8,428.4,366.1,428.4,366.4z M417.2,371.4c0-0.3,0.3-0.6,0.6-0.6h2.5c0.3,0,0.6,0.3,0.6,0.6c0,0.3-0.3,0.6-0.6,0.6h-2.5
		C417.5,372,417.2,371.7,417.2,371.4z M428.4,371.4c0,0.3-0.3,0.6-0.6,0.6h-5c-0.3,0-0.6-0.3-0.6-0.6c0-0.3,0.3-0.6,0.6-0.6h5
		C428.1,370.8,428.4,371.1,428.4,371.4z M417.2,368.9c0-0.3,0.3-0.6,0.6-0.6h9.9c0.3,0,0.6,0.3,0.6,0.6c0,0.3-0.3,0.6-0.6,0.6h-9.9
		C417.5,369.5,417.2,369.3,417.2,368.9z M428.4,373.9c0,0.3-0.3,0.6-0.6,0.6h-9.9c-0.3,0-0.6-0.3-0.6-0.6c0-0.3,0.3-0.6,0.6-0.6h9.9
		C428.1,373.3,428.4,373.5,428.4,373.9z M417.9,358.6h8.7c0.3,0,0.6-0.3,0.6-0.6v-10.9c0-0.3-0.3-0.6-0.6-0.6h-8.7
		c-0.3,0-0.6,0.3-0.6,0.6V358C417.2,358.4,417.5,358.6,417.9,358.6z M418.5,347.7h7.4v9.7h-7.4V347.7z M440.2,363.3h-8.7
		c-0.3,0-0.6,0.3-0.6,0.6v9.9c0,0.3,0.3,0.6,0.6,0.6h8.7c0.3,0,0.6-0.3,0.6-0.6V364C440.8,363.6,440.5,363.3,440.2,363.3z
		 M439.5,373.3h-7.4v-8.7h7.4V373.3z"/>
</g>
<g>
	<g>
		<path class="st8" d="M372.1,514.4h13.4c5.8,0,10.6-4.6,10.6-10.3c0-5.2-4-9.5-9.1-10.2c-0.8-8.3-7.9-14.7-16.5-14.7
			c-4.2,0-8.3,1.5-11.5,4.3c-2.5,2.1-4.2,4.9-4.7,7.6c-5.4,1.2-9.4,5.9-9.4,11.5c0,6.6,5.5,11.8,12.1,11.8h11.9L372.1,514.4
			L372.1,514.4z"/>
	</g>
	<g>
		<path class="st9" d="M368.5,496.8c-0.4,0-0.7,0.3-0.7,0.7v3.9c0,0.4,0.3,0.7,0.7,0.7h3.9c0.4,0,0.7-0.3,0.7-0.7v-3.9
			c0-0.4-0.3-0.7-0.7-0.7H368.5z"/>
		<path class="st9" d="M367.2,489.6c0-0.4-0.3-0.7-0.7-0.7c-0.4,0-0.7,0.3-0.7,0.7v2c-1.8,0-3.3,1.5-3.3,3.3h-2
			c-0.4,0-0.7,0.3-0.7,0.7s0.3,0.7,0.7,0.7h2v1.3h-2c-0.4,0-0.7,0.3-0.7,0.7c0,0.4,0.3,0.7,0.7,0.7h2v1.3h-2c-0.4,0-0.7,0.3-0.7,0.7
			c0,0.4,0.3,0.7,0.7,0.7h2v1.3h-2c-0.4,0-0.7,0.3-0.7,0.7s0.3,0.7,0.7,0.7h2c0,1.8,1.5,3.3,3.3,3.3v2c0,0.4,0.3,0.7,0.7,0.7
			c0.4,0,0.7-0.3,0.7-0.7v-2h1.3v2c0,0.4,0.3,0.7,0.7,0.7s0.7-0.3,0.7-0.7v-2h1.3v2c0,0.4,0.3,0.7,0.7,0.7c0.4,0,0.7-0.3,0.7-0.7v-2
			h1.3v2c0,0.4,0.3,0.7,0.7,0.7c0.4,0,0.7-0.3,0.7-0.7v-2c1.8,0,3.3-1.5,3.3-3.3h2c0.4,0,0.7-0.3,0.7-0.7s-0.3-0.7-0.7-0.7h-2v-1.3
			h2c0.4,0,0.7-0.3,0.7-0.7c0-0.4-0.3-0.7-0.7-0.7h-2v-1.3h2c0.4,0,0.7-0.3,0.7-0.7c0-0.4-0.3-0.7-0.7-0.7h-2v-1.3h2
			c0.4,0,0.7-0.3,0.7-0.7s-0.3-0.7-0.7-0.7h-2c0-1.8-1.5-3.3-3.3-3.3v-2c0-0.4-0.3-0.7-0.7-0.7c-0.4,0-0.7,0.3-0.7,0.7v2h-1.3v-2
			c0-0.4-0.3-0.7-0.7-0.7c-0.4,0-0.7,0.3-0.7,0.7v2h-1.3v-2c0-0.4-0.3-0.7-0.7-0.7s-0.7,0.3-0.7,0.7v2h-1.3V489.6z M368.5,495.5h3.9
			c1.1,0,2,0.9,2,2v3.9c0,1.1-0.9,2-2,2h-3.9c-1.1,0-2-0.9-2-2v-3.9C366.5,496.4,367.4,495.5,368.5,495.5z"/>
	</g>
</g>
<g>
	<g>
		<g>
			<path id="Pfad_21081_00000047739861279191689950000014460906199461125309_" class="st10" d="M229.4,525.2c16.5,0,30,13.4,30,29.9
				c0,16.5-13.4,29.9-30,29.9c-16.5,0-30-13.4-30-29.9C199.5,538.6,212.9,525.2,229.4,525.2"/>
		</g>
	</g>
	<g>
		<g>
			<g>
				<g>
					<circle class="st11" cx="242.9" cy="544.5" r="3.7"/>
					<path class="st11" d="M241.6,551.8c0.2,0,1.1,0,1.3,0c2.3,0,4.1,0.3,5.4,0.6c2,0.6,3.2,2.3,3.1,4.1l-0.2,6.9
						c0,0.8-0.3,1.7-0.8,2.4h-8.8"/>
					<circle class="st11" cx="215.9" cy="544.5" r="3.7"/>
					<path class="st11" d="M217.3,551.8c-0.2,0-1.1,0-1.3,0c-2.3,0-4.1,0.3-5.4,0.6c-2,0.6-3.2,2.3-3.1,4.1l0.2,6.9
						c0,0.8,0.3,1.7,0.8,2.4h8.8"/>
					<circle class="st11" cx="229.4" cy="543.3" r="4.4"/>
					<path class="st11" d="M224.4,568L224.4,568c-1.7,0-3.2-1-3.8-2.6c-0.2-0.5-0.3-1-0.3-1.6l-0.3-7.7c-0.1-2,1.3-3.9,3.5-4.5
						c1.4-0.4,3.3-0.7,5.8-0.7c2.5,0,4.4,0.3,5.8,0.7c2.2,0.6,3.6,2.5,3.5,4.5l-0.3,7.7c0,0.6-0.2,1.2-0.4,1.8
						c-0.6,1.5-2,2.4-3.6,2.4l0,0"/>
				</g>
			</g>
		</g>
	</g>
</g>
<g>
	<g>
		<g>
			<path id="Pfad_21081_00000116938451163222934650000002991727727709205927_" class="st10" d="M522.7,241.3c16.5,0,30,13.4,30,29.9
				c0,16.5-13.4,29.9-30,29.9c-16.5,0-30-13.4-30-29.9S506.1,241.3,522.7,241.3"/>
		</g>
	</g>
	<g>
		<g>
			<g>
				<g>
					<circle class="st11" cx="536.2" cy="260.6" r="3.7"/>
					<path class="st11" d="M534.9,267.9c0.2,0,1.1,0,1.3,0c2.3,0,4.1,0.3,5.4,0.6c2,0.6,3.2,2.3,3.1,4.1l-0.2,6.9
						c0,0.8-0.3,1.7-0.8,2.4h-8.8"/>
					<circle class="st11" cx="509.2" cy="260.6" r="3.7"/>
					<path class="st11" d="M510.5,267.9c-0.2,0-1.1,0-1.3,0c-2.3,0-4.1,0.3-5.4,0.6c-2,0.6-3.2,2.3-3.1,4.1l0.2,6.9
						c0,0.8,0.3,1.7,0.8,2.4h8.8"/>
					<circle class="st11" cx="522.7" cy="259.4" r="4.4"/>
					<path class="st11" d="M517.7,284.1L517.7,284.1c-1.7,0-3.2-1-3.8-2.6c-0.2-0.5-0.3-1-0.3-1.6l-0.3-7.7c-0.1-2,1.3-3.9,3.5-4.5
						c1.4-0.4,3.3-0.7,5.8-0.7c2.5,0,4.4,0.3,5.8,0.7c2.2,0.6,3.6,2.5,3.5,4.5l-0.3,7.7c0,0.6-0.2,1.2-0.4,1.8
						c-0.6,1.5-2,2.4-3.6,2.4l0,0"/>
				</g>
			</g>
		</g>
	</g>
</g>
<g>
	<g>
		<g>
			<path id="Pfad_21081_00000101092395219385398300000014783881829588221628_" class="st10" d="M413.5,6.1c16.5,0,30,13.4,30,29.9
				c0,16.5-13.4,29.9-30,29.9c-16.5,0-30-13.4-30-29.9C383.6,19.5,397,6.1,413.5,6.1"/>
		</g>
	</g>
	<g>
		<g>
			<g>
				<g>
					<circle class="st11" cx="427" cy="25.4" r="3.7"/>
					<path class="st11" d="M425.7,32.6c0.2,0,1.1,0,1.3,0c2.3,0,4.1,0.3,5.4,0.6c2,0.6,3.2,2.3,3.1,4.1l-0.2,6.9
						c0,0.8-0.3,1.7-0.8,2.4h-8.8"/>
					<circle class="st11" cx="400" cy="25.4" r="3.7"/>
					<path class="st11" d="M401.4,32.6c-0.2,0-1.1,0-1.3,0c-2.3,0-4.1,0.3-5.4,0.6c-2,0.6-3.2,2.3-3.1,4.1l0.2,6.9
						c0,0.8,0.3,1.7,0.8,2.4h8.8"/>
					<circle class="st11" cx="413.5" cy="24.1" r="4.4"/>
					<path class="st11" d="M408.5,48.9L408.5,48.9c-1.7,0-3.2-1-3.8-2.6c-0.2-0.5-0.3-1-0.3-1.6l-0.3-7.7c-0.1-2,1.3-3.9,3.5-4.5
						c1.4-0.4,3.3-0.7,5.8-0.7c2.5,0,4.4,0.3,5.8,0.7c2.2,0.6,3.6,2.5,3.5,4.5l-0.3,7.7c0,0.6-0.2,1.2-0.4,1.8
						c-0.6,1.5-2,2.4-3.6,2.4l0,0"/>
				</g>
			</g>
		</g>
	</g>
</g>
<g>
	<g>
		<g>
			<path id="Pfad_21081_00000094609075643780302860000014883030830724221367_" class="st10" d="M502.1,446.1c16.5,0,30,13.4,30,29.9
				c0,16.5-13.4,29.9-30,29.9c-16.5,0-30-13.4-30-29.9C472.1,459.5,485.5,446.1,502.1,446.1"/>
		</g>
	</g>
	<g>
		<g>
			<g>
				<g>
					<circle class="st11" cx="502.1" cy="464.1" r="4.4"/>
					<path class="st11" d="M507,488.9c0,0,3,0,3.6-2.4c0.2-0.6,0.4-1.2,0.4-1.8l0.3-7.7c0.1-2-1.3-3.9-3.5-4.5
						c-1.4-0.4-3.3-0.7-5.8-0.7c-2.5,0-4.4,0.3-5.8,0.7c-2.2,0.6-3.6,2.5-3.5,4.5l0.3,7.7c0,0.5,0.1,1.1,0.3,1.6
						c0.6,1.6,2.1,2.6,3.8,2.6l0,0L507,488.9z"/>
				</g>
			</g>
		</g>
	</g>
</g>
<g>
	<g>
		<g>
			<path id="Pfad_21081_00000083070610863549330740000010063458170509457025_" class="st10" d="M38.7,462.7c16.5,0,30,13.4,30,29.9
				c0,16.5-13.4,29.9-30,29.9c-16.5,0-30-13.4-30-29.9C8.8,476.1,22.2,462.7,38.7,462.7"/>
		</g>
	</g>
	<g>
		<g>
			<g>
				<g>
					<circle class="st11" cx="38.8" cy="480.7" r="4.4"/>
					<path class="st11" d="M43.7,505.5c0,0,3,0,3.6-2.4c0.2-0.6,0.4-1.2,0.4-1.8l0.3-7.7c0.1-2-1.3-3.9-3.5-4.5
						c-1.4-0.4-3.3-0.7-5.8-0.7c-2.5,0-4.4,0.3-5.8,0.7c-2.2,0.6-3.6,2.5-3.5,4.5l0.3,7.7c0,0.5,0.1,1.1,0.3,1.6
						c0.6,1.6,2.1,2.6,3.8,2.6l0,0L43.7,505.5z"/>
				</g>
			</g>
		</g>
	</g>
</g>
<g>
	<g>
		<g>
			<path id="Pfad_21081_00000180341813689179551410000017399547435684890291_" class="st10" d="M54.9,28.4c16.5,0,30,13.4,30,29.9
				c0,16.5-13.4,29.9-30,29.9c-16.5,0-30-13.4-30-29.9S38.3,28.4,54.9,28.4"/>
		</g>
	</g>
	<g>
		<g>
			<g>
				<g>
					<circle class="st11" cx="54.9" cy="46.4" r="4.4"/>
					<path class="st11" d="M59.8,71.2c0,0,3,0,3.6-2.4c0.2-0.6,0.4-1.2,0.4-1.8l0.3-7.7c0.1-2-1.3-3.9-3.5-4.5
						c-1.4-0.4-3.3-0.7-5.8-0.7c-2.5,0-4.4,0.3-5.8,0.7c-2.2,0.6-3.6,2.5-3.5,4.5l0.3,7.7c0,0.5,0.1,1.1,0.3,1.6
						c0.6,1.6,2.1,2.6,3.8,2.6l0,0L59.8,71.2z"/>
				</g>
			</g>
		</g>
	</g>
</g>
<g>
	<g>
		<g>
			<g>
				<path class="st6" d="M163.2,402c0-1.2-1-2.1-2.1-2.1h-30.2c-1.2,0-2.1,1-2.1,2.1v26.2c0,1.2,1,2.1,2.1,2.1h30.2
					c1.2,0,2.1-1,2.1-2.1V402z"/>
			</g>
		</g>
		<line class="st6" x1="160.5" y1="406" x2="128.7" y2="406"/>
		<line class="st6" x1="159.1" y1="402.9" x2="158.2" y2="402.9"/>
		<line class="st6" x1="155.5" y1="402.9" x2="154.5" y2="402.9"/>
		<line class="st6" x1="151.8" y1="402.9" x2="150.8" y2="402.9"/>
		<g>
			<line class="st6" x1="144.5" y1="425.1" x2="147.6" y2="411.3"/>
			<polyline class="st6" points="151.5,413.8 156.7,418.2 151.5,422.7 			"/>
			<polyline class="st6" points="140.4,422.7 135.3,418.2 140.4,413.8 			"/>
		</g>
	</g>
</g>
</svg>
