<?xml version="1.0" encoding="utf-8"?>
<!-- Generator: Adobe Illustrator 28.0.0, SVG Export Plug-In . SVG Version: 6.00 Build 0)  -->
<svg version="1.1" id="Layer_1_copy" xmlns="http://www.w3.org/2000/svg" xmlns:xlink="http://www.w3.org/1999/xlink" x="0px"
	 y="0px" viewBox="0 0 550 550" style="enable-background:new 0 0 550 550;" xml:space="preserve">
<style type="text/css">
	.st0{fill:#FFFFFF;stroke:#01192D;stroke-width:2;stroke-miterlimit:10;}
	.st1{fill:#01192D;}
	.st2{fill:none;stroke:#01192D;stroke-width:2;stroke-miterlimit:10;}
	.st3{fill:none;stroke:#009966;stroke-width:4;stroke-miterlimit:10;}
	.st4{fill:#009568;}
	.st5{fill:#003333;}
	.st6{fill:#009966;}
	.st7{fill:#000033;}
</style>
<g>
	<path class="st0" d="M275.5,492.9h-94.4c-1.6,0.3-2.1,4-1.3,5.3c2.2,3.3,3.3,7.4,2.4,11.8c-1.2,6.3-6.1,11.3-12.4,12.5
		c-10.1,2-19-5.7-19-15.5c0-3.3,1-6.4,2.8-9c1.1-1.6,0.3-4.9-1.3-5.2H57.6v-94.4c0-1.8,3.7-2.7,5.4-1.5c2.5,1.8,5.6,2.8,9,2.8
		c9.8,0,17.5-8.9,15.5-19c-1.2-6.3-6.2-11.2-12.5-12.4c-4.4-0.8-8.6,0.2-11.8,2.4c-1.3,0.9-5.5,0.3-5.5-1.4V275h94.7
		c1.6-0.3,2.1-4,1.3-5.3c-2.2-3.3-3.3-7.4-2.4-11.8c1.2-6.3,6.1-11.3,12.4-12.5c10.1-2,19,5.7,19,15.5c0,3.3-1,6.4-2.8,9
		c-1.1,1.6-0.3,4.9,1.3,5.2h94.5v94.4c0,1.8-3.4,2.7-5.1,1.5c-2.5-1.8-5.6-2.8-9-2.8c-9.8,0-17.5,8.9-15.5,19
		c1.2,6.3,6.2,11.2,12.5,12.4c4.4,0.8,8.6-0.2,11.8-2.4c1.3-0.9,5.2-0.3,5.2,1.4V492.9z"/>
</g>
<g>
	<path class="st0" d="M275.4,492.9v-94.5c-0.3-1.6-4.1-2.1-5.4-1.3c-3.3,2.2-7.4,3.3-11.8,2.4c-6.3-1.2-11.3-6.1-12.5-12.4
		c-2-10.1,5.7-19,15.5-19c3.3,0,6.4,1,9,2.8c1.6,1.1,5.1,0.3,5.3-1.3V275h94.3c1.8,0,2.7,3.5,1.5,5.2c-1.8,2.5-2.8,5.6-2.8,9
		c0,9.8,8.9,17.5,19,15.5c6.3-1.2,11.2-6.2,12.4-12.5c0.8-4.4-0.2-8.6-2.4-11.8c-0.9-1.3-0.3-5.3,1.4-5.3h94.5v94.6
		c0.3,1.6,3.9,2.1,5.2,1.3c3.3-2.2,7.4-3.3,11.8-2.4c6.3,1.2,11.3,6.1,12.5,12.4c2,10.1-5.7,19-15.5,19c-3.3,0-6.4-1-9-2.8
		c-1.6-1.1-4.8-0.3-5.1,1.3v94.7h-94.5c-1.8,0-2.7-3.5-1.5-5.2c1.8-2.5,2.8-5.6,2.8-9c0-9.8-8.9-17.5-19-15.5
		c-6.3,1.2-11.2,6.2-12.4,12.5c-0.8,4.4,0.2,8.6,2.4,11.8c0.9,1.3,0.3,5.3-1.4,5.3H275.4z"/>
</g>
<g>
	<path class="st0" d="M493.3,275h-94.4c-1.6,0.3-2.1,4-1.3,5.3c2.2,3.3,3.3,7.4,2.4,11.8c-1.2,6.3-6.1,11.3-12.4,12.5
		c-10.1,2-19-5.7-19-15.5c0-3.3,1-6.4,2.8-9c1.1-1.6,0.3-4.9-1.3-5.2h-94.8v-94.4c0-1.8,3.7-2.7,5.4-1.5c2.5,1.8,5.6,2.8,9,2.8
		c9.8,0,17.5-8.9,15.5-19c-1.2-6.3-6.2-11.2-12.5-12.4c-4.4-0.8-8.6,0.2-11.8,2.4c-1.3,0.9-5.5,0.3-5.5-1.4V57.1h94.7
		c1.6-0.3,2.1-4,1.3-5.3c-2.2-3.3-3.3-7.4-2.4-11.8c1.2-6.3,6.1-11.3,12.4-12.5c10.1-2,19,5.7,19,15.5c0,3.3-1,6.4-2.8,9
		c-1.1,1.6-0.3,4.9,1.3,5.2h94.5v94.4c0,1.8-3.4,2.7-5.1,1.5c-2.5-1.8-5.6-2.8-9-2.8c-9.8,0-17.5,8.9-15.5,19
		c1.2,6.3,6.2,11.2,12.5,12.4c4.4,0.8,8.6-0.2,11.8-2.4c1.3-0.9,5.2-0.3,5.2,1.4V275z"/>
</g>
<g>
	<path class="st0" d="M57.8,275v-94.5c-0.3-1.6-4.1-2.1-5.4-1.3c-3.3,2.2-7.4,3.3-11.8,2.4c-6.3-1.2-11.3-6.1-12.5-12.4
		c-2-10.1,5.7-19,15.5-19c3.3,0,6.4,1,9,2.8c1.6,1.1,5.1,0.3,5.3-1.3V57.1h94.3c1.8,0,2.7,3.5,1.5,5.2c-1.8,2.5-2.8,5.6-2.8,9
		c0,9.8,8.9,17.5,19,15.5c6.3-1.2,11.2-6.2,12.4-12.5c0.8-4.4-0.2-8.6-2.4-11.8c-0.9-1.3-0.3-5.3,1.4-5.3h94.5v94.6
		c0.3,1.6,3.9,2.1,5.2,1.3c3.3-2.2,7.4-3.3,11.8-2.4c6.3,1.2,11.3,6.1,12.5,12.4c2,10.1-5.7,19-15.5,19c-3.3,0-6.4-1-9-2.8
		c-1.6-1.1-4.8-0.3-5.1,1.3V275h-94.5c-1.8,0-2.7-3.5-1.5-5.2c1.8-2.5,2.8-5.6,2.8-9c0-9.8-8.9-17.5-19-15.5
		c-6.3,1.2-11.2,6.2-12.4,12.5c-0.8,4.4,0.2,8.6,2.4,11.8c0.9,1.3,0.3,5.3-1.4,5.3H57.8z"/>
</g>
<g>
	<g>
		<path class="st1" d="M119.2,225.2l-4.6-16h3.7l2.6,11.1h0.1l2.9-11.1h3.2l2.9,11.1h0.1l2.6-11.1h3.7l-4.6,16h-3.3l-3-10.5h-0.1
			l-3,10.5H119.2z"/>
		<path class="st1" d="M143.8,225.5c-1.2,0-2.3-0.3-3.1-0.8c-0.9-0.5-1.6-1.2-2-2.2c-0.5-0.9-0.7-2-0.7-3.2c0-1.2,0.2-2.3,0.7-3.3
			c0.5-0.9,1.2-1.7,2-2.2c0.9-0.5,1.9-0.8,3.1-0.8c1.2,0,2.3,0.3,3.1,0.8c0.9,0.5,1.6,1.2,2,2.2c0.5,0.9,0.7,2,0.7,3.3
			c0,1.2-0.2,2.3-0.7,3.2c-0.5,0.9-1.2,1.7-2,2.2C146,225.2,145,225.5,143.8,225.5z M143.8,222.9c0.6,0,1-0.2,1.4-0.5
			c0.4-0.3,0.6-0.7,0.8-1.3c0.2-0.5,0.3-1.2,0.3-1.9c0-0.7-0.1-1.3-0.3-1.9c-0.2-0.5-0.5-1-0.8-1.3c-0.4-0.3-0.8-0.5-1.4-0.5
			c-0.6,0-1,0.2-1.4,0.5c-0.4,0.3-0.7,0.8-0.9,1.3c-0.2,0.5-0.3,1.2-0.3,1.9c0,0.7,0.1,1.3,0.3,1.9c0.2,0.5,0.5,1,0.9,1.3
			C142.7,222.7,143.2,222.9,143.8,222.9z"/>
		<path class="st1" d="M151.8,225.2v-12h3.2v2.1h0.1c0.2-0.7,0.6-1.3,1.1-1.7s1.1-0.6,1.8-0.6c0.2,0,0.3,0,0.5,0
			c0.2,0,0.4,0,0.5,0.1v3c-0.2,0-0.4-0.1-0.6-0.1c-0.3,0-0.5-0.1-0.8-0.1c-0.5,0-0.9,0.1-1.3,0.3s-0.7,0.5-0.9,0.9
			c-0.2,0.4-0.3,0.8-0.3,1.3v6.8H151.8z"/>
		<path class="st1" d="M160.8,225.2v-16h3.3v16H160.8z M163.8,221.8l0-4h0.5l3.8-4.6h3.8l-5.2,6H166L163.8,221.8z M168.3,225.2
			l-3.5-5.2l2.2-2.4l5.2,7.6H168.3z"/>
		<path class="st1" d="M180.1,213.2v2.5h-7.4v-2.5H180.1z M174.4,225.2v-12.9c0-0.9,0.2-1.6,0.5-2.2c0.3-0.6,0.8-1,1.4-1.3
			c0.6-0.3,1.3-0.4,2-0.4c0.5,0,1,0,1.4,0.1c0.4,0.1,0.7,0.1,0.9,0.2l-0.6,2.5c-0.1,0-0.3-0.1-0.5-0.1c-0.2,0-0.4-0.1-0.6-0.1
			c-0.5,0-0.8,0.1-1,0.3c-0.2,0.2-0.3,0.5-0.3,0.9v12.8H174.4z"/>
		<path class="st1" d="M185.4,209.2v16h-3.3v-16H185.4z"/>
		<path class="st1" d="M193.5,225.5c-1.2,0-2.3-0.3-3.1-0.8c-0.9-0.5-1.6-1.2-2-2.2c-0.5-0.9-0.7-2-0.7-3.2c0-1.2,0.2-2.3,0.7-3.3
			c0.5-0.9,1.2-1.7,2-2.2c0.9-0.5,1.9-0.8,3.1-0.8c1.2,0,2.3,0.3,3.1,0.8c0.9,0.5,1.6,1.2,2,2.2c0.5,0.9,0.7,2,0.7,3.3
			c0,1.2-0.2,2.3-0.7,3.2c-0.5,0.9-1.2,1.7-2,2.2C195.8,225.2,194.7,225.5,193.5,225.5z M193.5,222.9c0.6,0,1-0.2,1.4-0.5
			c0.4-0.3,0.6-0.7,0.8-1.3c0.2-0.5,0.3-1.2,0.3-1.9c0-0.7-0.1-1.3-0.3-1.9c-0.2-0.5-0.5-1-0.8-1.3c-0.4-0.3-0.8-0.5-1.4-0.5
			c-0.6,0-1,0.2-1.4,0.5c-0.4,0.3-0.7,0.8-0.9,1.3c-0.2,0.5-0.3,1.2-0.3,1.9c0,0.7,0.1,1.3,0.3,1.9c0.2,0.5,0.5,1,0.9,1.3
			C192.5,222.7,193,222.9,193.5,222.9z"/>
		<path class="st1" d="M204,225.2l-3.3-12h3.4l1.9,8.1h0.1l1.9-8.1h3.3l2,8h0.1l1.8-8h3.4l-3.3,12h-3.5l-2.1-7.5h-0.1l-2.1,7.5H204z
			"/>
	</g>
</g>
<g>
	<g>
		<path class="st1" d="M366.2,225.2h-5.7v-16h5.7c1.6,0,3,0.3,4.2,1c1.2,0.6,2.1,1.6,2.7,2.7c0.6,1.2,0.9,2.6,0.9,4.3
			c0,1.7-0.3,3.1-0.9,4.3c-0.6,1.2-1.5,2.1-2.7,2.8C369.3,224.9,367.9,225.2,366.2,225.2z M364,222.3h2.1c1,0,1.8-0.2,2.5-0.5
			c0.7-0.4,1.2-0.9,1.5-1.7c0.3-0.8,0.5-1.7,0.5-2.9c0-1.2-0.2-2.1-0.5-2.9c-0.3-0.8-0.9-1.3-1.5-1.7c-0.7-0.4-1.5-0.5-2.5-0.5H364
			V222.3z"/>
		<path class="st1" d="M379.9,225.5c-0.8,0-1.4-0.1-2-0.4c-0.6-0.3-1.1-0.7-1.4-1.2c-0.3-0.5-0.5-1.2-0.5-2c0-0.7,0.1-1.2,0.4-1.7
			c0.2-0.5,0.6-0.8,1-1.1c0.4-0.3,0.9-0.5,1.4-0.6s1.1-0.2,1.7-0.3c0.7-0.1,1.3-0.1,1.7-0.2c0.4-0.1,0.7-0.2,0.9-0.3
			c0.2-0.1,0.3-0.3,0.3-0.6v0c0-0.5-0.2-0.9-0.5-1.1c-0.3-0.3-0.7-0.4-1.3-0.4c-0.6,0-1.1,0.1-1.4,0.4c-0.4,0.3-0.6,0.6-0.7,1
			l-3.1-0.2c0.2-0.7,0.5-1.4,0.9-1.9c0.5-0.5,1.1-0.9,1.8-1.2s1.6-0.4,2.5-0.4c0.7,0,1.3,0.1,1.9,0.2c0.6,0.2,1.2,0.4,1.6,0.7
			s0.9,0.7,1.1,1.3c0.3,0.5,0.4,1.1,0.4,1.8v8.1h-3.2v-1.7h-0.1c-0.2,0.4-0.5,0.7-0.8,1c-0.3,0.3-0.7,0.5-1.2,0.7
			S380.5,225.5,379.9,225.5z M380.9,223.2c0.5,0,0.9-0.1,1.3-0.3s0.7-0.5,0.9-0.8c0.2-0.3,0.3-0.7,0.3-1.1v-1.3
			c-0.1,0.1-0.2,0.1-0.4,0.2s-0.4,0.1-0.6,0.1c-0.2,0-0.4,0.1-0.7,0.1c-0.2,0-0.4,0.1-0.6,0.1c-0.4,0.1-0.7,0.1-1,0.3
			c-0.3,0.1-0.5,0.3-0.7,0.5c-0.2,0.2-0.2,0.5-0.2,0.8c0,0.5,0.2,0.8,0.5,1C380,223,380.4,223.2,380.9,223.2z"/>
		<path class="st1" d="M395.7,213.2v2.5h-7.2v-2.5H395.7z M390.1,210.4h3.3v11.2c0,0.3,0,0.5,0.1,0.7c0.1,0.2,0.2,0.3,0.4,0.4
			c0.2,0.1,0.4,0.1,0.6,0.1c0.2,0,0.3,0,0.5,0c0.2,0,0.3-0.1,0.4-0.1l0.5,2.5c-0.2,0.1-0.4,0.1-0.7,0.2c-0.3,0.1-0.7,0.1-1.1,0.1
			c-0.8,0-1.5-0.1-2.1-0.3s-1.1-0.6-1.4-1.1c-0.3-0.5-0.5-1.2-0.5-2V210.4z"/>
		<path class="st1" d="M401.2,225.5c-0.8,0-1.4-0.1-2-0.4c-0.6-0.3-1.1-0.7-1.4-1.2c-0.3-0.5-0.5-1.2-0.5-2c0-0.7,0.1-1.2,0.4-1.7
			c0.2-0.5,0.6-0.8,1-1.1c0.4-0.3,0.9-0.5,1.4-0.6s1.1-0.2,1.7-0.3c0.7-0.1,1.3-0.1,1.7-0.2c0.4-0.1,0.7-0.2,0.9-0.3
			c0.2-0.1,0.3-0.3,0.3-0.6v0c0-0.5-0.2-0.9-0.5-1.1c-0.3-0.3-0.7-0.4-1.3-0.4c-0.6,0-1.1,0.1-1.4,0.4c-0.4,0.3-0.6,0.6-0.7,1
			l-3.1-0.2c0.2-0.7,0.5-1.4,0.9-1.9c0.5-0.5,1.1-0.9,1.8-1.2s1.6-0.4,2.5-0.4c0.7,0,1.3,0.1,1.9,0.2c0.6,0.2,1.2,0.4,1.6,0.7
			s0.9,0.7,1.1,1.3c0.3,0.5,0.4,1.1,0.4,1.8v8.1h-3.2v-1.7h-0.1c-0.2,0.4-0.5,0.7-0.8,1c-0.3,0.3-0.7,0.5-1.2,0.7
			S401.8,225.5,401.2,225.5z M402.2,223.2c0.5,0,0.9-0.1,1.3-0.3s0.7-0.5,0.9-0.8c0.2-0.3,0.3-0.7,0.3-1.1v-1.3
			c-0.1,0.1-0.2,0.1-0.4,0.2s-0.4,0.1-0.6,0.1c-0.2,0-0.4,0.1-0.7,0.1c-0.2,0-0.4,0.1-0.6,0.1c-0.4,0.1-0.7,0.1-1,0.3
			c-0.3,0.1-0.5,0.3-0.7,0.5c-0.2,0.2-0.2,0.5-0.2,0.8c0,0.5,0.2,0.8,0.5,1C401.3,223,401.7,223.2,402.2,223.2z"/>
	</g>
</g>
<g>
	<g>
		<path class="st1" d="M153.5,430.5h-3.4c-0.1-0.4-0.2-0.8-0.4-1.2c-0.2-0.3-0.4-0.6-0.7-0.9c-0.3-0.2-0.6-0.4-1-0.6
			c-0.4-0.1-0.8-0.2-1.3-0.2c-0.8,0-1.5,0.2-2.2,0.6c-0.6,0.4-1.1,1-1.4,1.8c-0.3,0.8-0.5,1.7-0.5,2.8c0,1.1,0.2,2.1,0.5,2.9
			c0.3,0.8,0.8,1.4,1.4,1.8c0.6,0.4,1.3,0.6,2.1,0.6c0.5,0,0.9-0.1,1.3-0.2c0.4-0.1,0.7-0.3,1-0.5c0.3-0.2,0.6-0.5,0.8-0.8
			c0.2-0.3,0.3-0.7,0.4-1.1l3.4,0c-0.1,0.7-0.3,1.4-0.7,2.1s-0.8,1.3-1.4,1.8c-0.6,0.5-1.3,1-2.1,1.3c-0.8,0.3-1.7,0.5-2.8,0.5
			c-1.4,0-2.7-0.3-3.8-1c-1.1-0.6-2-1.6-2.7-2.8s-1-2.7-1-4.4c0-1.7,0.3-3.2,1-4.5s1.5-2.2,2.7-2.8s2.4-1,3.8-1
			c0.9,0,1.8,0.1,2.6,0.4c0.8,0.3,1.5,0.6,2.1,1.1c0.6,0.5,1.1,1.1,1.5,1.8C153.2,428.7,153.4,429.5,153.5,430.5z"/>
		<path class="st1" d="M161.3,441.1c-1.2,0-2.3-0.3-3.1-0.8s-1.6-1.2-2-2.2c-0.5-0.9-0.7-2-0.7-3.2c0-1.2,0.2-2.3,0.7-3.3
			c0.5-0.9,1.2-1.7,2-2.2s1.9-0.8,3.1-0.8c1.2,0,2.3,0.3,3.1,0.8s1.6,1.2,2,2.2c0.5,0.9,0.7,2,0.7,3.3c0,1.2-0.2,2.3-0.7,3.2
			c-0.5,0.9-1.2,1.7-2,2.2S162.5,441.1,161.3,441.1z M161.3,438.5c0.6,0,1-0.2,1.4-0.5c0.4-0.3,0.6-0.7,0.8-1.3
			c0.2-0.5,0.3-1.2,0.3-1.9s-0.1-1.3-0.3-1.9c-0.2-0.5-0.5-1-0.8-1.3c-0.4-0.3-0.8-0.5-1.4-0.5c-0.6,0-1,0.2-1.4,0.5
			c-0.4,0.3-0.7,0.8-0.9,1.3c-0.2,0.5-0.3,1.2-0.3,1.9s0.1,1.3,0.3,1.9c0.2,0.5,0.5,1,0.9,1.3C160.3,438.4,160.8,438.5,161.3,438.5z
			"/>
		<path class="st1" d="M173.8,441.1c-0.9,0-1.7-0.2-2.5-0.7c-0.7-0.5-1.3-1.2-1.8-2.1s-0.6-2-0.6-3.4c0-1.4,0.2-2.5,0.7-3.4
			c0.4-0.9,1-1.6,1.8-2.1c0.7-0.5,1.5-0.7,2.4-0.7c0.7,0,1.2,0.1,1.7,0.3c0.5,0.2,0.8,0.5,1.1,0.8c0.3,0.3,0.5,0.7,0.6,1h0.1v-6h3.3
			v16h-3.3v-1.9h-0.1c-0.2,0.3-0.4,0.7-0.7,1c-0.3,0.3-0.7,0.6-1.1,0.8C175,440.9,174.5,441.1,173.8,441.1z M174.9,438.4
			c0.5,0,1-0.1,1.4-0.4c0.4-0.3,0.7-0.7,0.9-1.2c0.2-0.5,0.3-1.2,0.3-1.9s-0.1-1.3-0.3-1.9c-0.2-0.5-0.5-0.9-0.9-1.2
			s-0.8-0.4-1.4-0.4c-0.5,0-1,0.1-1.4,0.4s-0.7,0.7-0.9,1.2c-0.2,0.5-0.3,1.1-0.3,1.8c0,0.7,0.1,1.3,0.3,1.8s0.5,1,0.9,1.2
			C173.9,438.3,174.3,438.4,174.9,438.4z"/>
		<path class="st1" d="M188.8,441.1c-1.2,0-2.3-0.3-3.2-0.8c-0.9-0.5-1.6-1.2-2.1-2.1c-0.5-0.9-0.7-2-0.7-3.3c0-1.2,0.2-2.3,0.7-3.2
			c0.5-0.9,1.2-1.7,2-2.2c0.9-0.5,1.9-0.8,3.1-0.8c0.8,0,1.5,0.1,2.2,0.4c0.7,0.3,1.3,0.6,1.8,1.1c0.5,0.5,0.9,1.1,1.2,1.9
			c0.3,0.8,0.4,1.7,0.4,2.7v0.9h-10.1v-2.1h7c0-0.5-0.1-0.9-0.3-1.3c-0.2-0.4-0.5-0.7-0.9-0.9s-0.8-0.3-1.3-0.3
			c-0.5,0-1,0.1-1.3,0.3c-0.4,0.2-0.7,0.5-0.9,0.9s-0.3,0.8-0.3,1.3v2c0,0.6,0.1,1.1,0.3,1.5c0.2,0.4,0.5,0.8,0.9,1s0.9,0.4,1.4,0.4
			c0.4,0,0.7-0.1,1-0.2c0.3-0.1,0.6-0.3,0.8-0.5s0.4-0.5,0.5-0.8l3.1,0.2c-0.2,0.7-0.5,1.4-1,1.9c-0.5,0.5-1.1,1-1.9,1.3
			S189.8,441.1,188.8,441.1z"/>
	</g>
</g>
<g>
	<g>
		<path class="st1" d="M317.3,440.9v-16h10.8v2.8h-7.4v3.8h6.8v2.8h-6.8v3.8h7.4v2.8H317.3z"/>
		<path class="st1" d="M334.1,433.9v6.9h-3.3v-12h3.2v2.1h0.1c0.3-0.7,0.7-1.3,1.3-1.7s1.4-0.6,2.3-0.6c0.8,0,1.6,0.2,2.2,0.5
			s1.1,0.9,1.4,1.6s0.5,1.5,0.5,2.4v7.6h-3.3v-7c0-0.7-0.2-1.3-0.6-1.7s-0.9-0.6-1.6-0.6c-0.4,0-0.8,0.1-1.2,0.3s-0.6,0.5-0.8,0.8
			S334.1,433.4,334.1,433.9z"/>
		<path class="st1" d="M355.6,428.9l-4.2,12h-3.8l-4.2-12h3.5l2.5,8.6h0.1l2.5-8.6H355.6z"/>
		<path class="st1" d="M359,427.3c-0.5,0-0.9-0.2-1.3-0.5s-0.5-0.7-0.5-1.2s0.2-0.9,0.5-1.2s0.8-0.5,1.3-0.5c0.5,0,0.9,0.2,1.3,0.5
			s0.5,0.7,0.5,1.2s-0.2,0.9-0.5,1.2S359.5,427.3,359,427.3z M357.3,440.9v-12h3.3v12H357.3z"/>
		<path class="st1" d="M363.3,440.9v-12h3.2v2.1h0.1c0.2-0.7,0.6-1.3,1.1-1.7s1.1-0.6,1.8-0.6c0.2,0,0.3,0,0.5,0
			c0.2,0,0.4,0,0.5,0.1v3c-0.2,0-0.4-0.1-0.6-0.1c-0.3,0-0.5-0.1-0.8-0.1c-0.5,0-0.9,0.1-1.3,0.3s-0.7,0.5-0.9,0.9
			c-0.2,0.4-0.3,0.8-0.3,1.3v6.8H363.3z"/>
		<path class="st1" d="M377.7,441.1c-1.2,0-2.3-0.3-3.1-0.8s-1.6-1.2-2-2.2s-0.7-2-0.7-3.2c0-1.2,0.2-2.3,0.7-3.3s1.2-1.7,2-2.2
			s1.9-0.8,3.1-0.8s2.3,0.3,3.1,0.8s1.6,1.2,2,2.2s0.7,2,0.7,3.3c0,1.2-0.2,2.3-0.7,3.2s-1.2,1.7-2,2.2S378.9,441.1,377.7,441.1z
			 M377.7,438.5c0.6,0,1-0.2,1.4-0.5s0.6-0.7,0.8-1.3s0.3-1.2,0.3-1.9s-0.1-1.3-0.3-1.9s-0.5-1-0.8-1.3s-0.8-0.5-1.4-0.5
			c-0.6,0-1,0.2-1.4,0.5s-0.7,0.8-0.9,1.3s-0.3,1.2-0.3,1.9s0.1,1.3,0.3,1.9s0.5,1,0.9,1.3S377.2,438.5,377.7,438.5z"/>
		<path class="st1" d="M389.1,433.9v6.9h-3.3v-12h3.2v2.1h0.1c0.3-0.7,0.7-1.3,1.3-1.7s1.4-0.6,2.3-0.6c0.8,0,1.6,0.2,2.2,0.5
			s1.1,0.9,1.4,1.6s0.5,1.5,0.5,2.4v7.6h-3.3v-7c0-0.7-0.2-1.3-0.6-1.7s-0.9-0.6-1.6-0.6c-0.4,0-0.8,0.1-1.2,0.3s-0.6,0.5-0.8,0.8
			S389.1,433.4,389.1,433.9z"/>
		<path class="st1" d="M399.5,440.9v-12h3.2v2.1h0.1c0.2-0.7,0.7-1.3,1.2-1.7s1.3-0.6,2.1-0.6c0.8,0,1.5,0.2,2.1,0.6s1,1,1.2,1.7
			h0.1c0.2-0.7,0.7-1.2,1.3-1.7s1.4-0.6,2.3-0.6c1.1,0,2,0.4,2.7,1.1s1.1,1.7,1.1,3v8.1h-3.3v-7.4c0-0.7-0.2-1.2-0.5-1.5
			s-0.8-0.5-1.3-0.5c-0.6,0-1.1,0.2-1.4,0.6s-0.5,0.9-0.5,1.5v7.3h-3.2v-7.5c0-0.6-0.2-1.1-0.5-1.4s-0.8-0.5-1.3-0.5
			c-0.4,0-0.7,0.1-1,0.3s-0.5,0.4-0.7,0.8s-0.3,0.7-0.3,1.2v7.2H399.5z"/>
		<path class="st1" d="M425,441.1c-1.2,0-2.3-0.3-3.2-0.8s-1.6-1.2-2.1-2.1s-0.7-2-0.7-3.3c0-1.2,0.2-2.3,0.7-3.2s1.2-1.7,2-2.2
			s1.9-0.8,3.1-0.8c0.8,0,1.5,0.1,2.2,0.4s1.3,0.6,1.8,1.1s0.9,1.1,1.2,1.9s0.4,1.7,0.4,2.7v0.9h-10.1v-2.1h7c0-0.5-0.1-0.9-0.3-1.3
			s-0.5-0.7-0.9-0.9s-0.8-0.3-1.3-0.3c-0.5,0-1,0.1-1.3,0.3s-0.7,0.5-0.9,0.9s-0.3,0.8-0.3,1.3v2c0,0.6,0.1,1.1,0.3,1.5
			s0.5,0.8,0.9,1s0.9,0.4,1.4,0.4c0.4,0,0.7-0.1,1-0.2s0.6-0.3,0.8-0.5s0.4-0.5,0.5-0.8l3.1,0.2c-0.2,0.7-0.5,1.4-1,1.9
			s-1.1,1-1.9,1.3S426,441.1,425,441.1z"/>
		<path class="st1" d="M436,433.9v6.9h-3.3v-12h3.2v2.1h0.1c0.3-0.7,0.7-1.3,1.3-1.7s1.4-0.6,2.3-0.6c0.8,0,1.6,0.2,2.2,0.5
			s1.1,0.9,1.4,1.6s0.5,1.5,0.5,2.4v7.6h-3.3v-7c0-0.7-0.2-1.3-0.6-1.7s-0.9-0.6-1.6-0.6c-0.4,0-0.8,0.1-1.2,0.3s-0.6,0.5-0.8,0.8
			S436,433.4,436,433.9z"/>
		<path class="st1" d="M452.7,428.9v2.5h-7.2v-2.5H452.7z M447.1,426h3.3v11.2c0,0.3,0,0.5,0.1,0.7s0.2,0.3,0.4,0.4s0.4,0.1,0.6,0.1
			c0.2,0,0.3,0,0.5,0s0.3-0.1,0.4-0.1l0.5,2.5c-0.2,0.1-0.4,0.1-0.7,0.2s-0.7,0.1-1.1,0.1c-0.8,0-1.5-0.1-2.1-0.3
			c-0.6-0.2-1.1-0.6-1.4-1.1s-0.5-1.2-0.5-2V426z"/>
	</g>
</g>
<g>
	<g>
		<g>
			<g>
				<path class="st2" d="M209.8,335.2c0-2.7-2.2-5-5-5h-70.4c-2.7,0-5,2.2-5,5v61.1c0,2.7,2.2,5,5,5h70.4c2.7,0,5-2.2,5-5V335.2z"/>
			</g>
		</g>
		<line class="st2" x1="203.4" y1="344.6" x2="129.5" y2="344.6"/>
		<line class="st2" x1="200.3" y1="337.4" x2="198.1" y2="337.4"/>
		<line class="st2" x1="191.8" y1="337.4" x2="189.6" y2="337.4"/>
		<line class="st2" x1="183.2" y1="337.4" x2="181" y2="337.4"/>
		<g>
			<line class="st3" x1="166.1" y1="389.1" x2="173.3" y2="357"/>
			<polyline class="st3" points="182.5,362.7 194.5,373.1 182.5,383.4 			"/>
			<polyline class="st3" points="156.8,383.4 144.8,373.1 156.8,362.7 			"/>
		</g>
	</g>
</g>
<g>
	<path class="st2" d="M144.5,142.7h-16.4c-2.5,0-4.5,2-4.5,4.5v12c0,2.5,2,4.5,4.5,4.5h16.4c2.5,0,4.5-2,4.5-4.5c0,0,0,0,0,0v-12
		C149,144.8,147,142.7,144.5,142.7z"/>
	<path class="st2" d="M179.3,159.3v-12c0-2.5-2-4.5-4.5-4.5h-16.4c-2.5,0-4.5,2-4.5,4.5v12c0,2.5,2,4.5,4.5,4.5h16.4
		C177.3,163.8,179.3,161.8,179.3,159.3z"/>
	<path class="st2" d="M205.1,142.7h-16.4c-2.5,0-4.5,2-4.5,4.5v12c0,2.5,2,4.5,4.5,4.5c0,0,0,0,0,0h16.4c2.5,0,4.5-2,4.5-4.5v-12
		C209.6,144.8,207.6,142.7,205.1,142.7z"/>
	<path class="st4" d="M166.9,133.6l-2-1.5c-0.7-0.5-1.7-0.3-2.1,0.4c-0.5,0.7-0.3,1.6,0.3,2.1l4.8,3.5c0.7,0.5,1.6,0.4,2.1-0.3
		l3.5-4.8c0.5-0.7,0.4-1.6-0.3-2.1c0,0,0,0,0,0c-1.6-1.1-2.6,1-3.4,2c-2.2-9.7-11.7-15.8-21.4-13.6c-8.2,1.8-14,9.1-14,17.5
		c0,0.8,0.7,1.5,1.5,1.5c0.8,0,1.5-0.7,1.5-1.5C137.9,119,162.7,116.4,166.9,133.6z"/>
	<path class="st4" d="M201.4,167.4c-0.5-0.7-1.4-0.9-2.1-0.4l-5,3.3c-0.7,0.5-0.9,1.4-0.4,2.1c0.5,0.7,1.4,0.9,2.1,0.4l0,0l2.4-1.6
		c-1.6,8.1-9.4,13.3-17.5,11.7c-7-1.4-12-7.5-12-14.6c0-0.8-0.7-1.5-1.5-1.5s-1.5,0.7-1.5,1.5c0.6,21.3,29.9,24.6,35.4,4.2l1,1.5
		c0.5,0.7,1.4,0.9,2.1,0.4c0.7-0.5,0.9-1.4,0.4-2.1L201.4,167.4z"/>
	<path class="st4" d="M137.4,166.7c-0.6-0.6-1.6-0.6-2.2,0c0,0,0,0,0,0.1l-4.2,4.1c-0.6,0.6-0.6,1.6,0,2.2c0.6,0.6,1.5,0.6,2.1,0
		l1.6-1.6v12.3c0,0.8,0.7,1.5,1.5,1.5s1.5-0.7,1.5-1.5v-12.3l1.6,1.6c0.6,0.6,1.6,0.6,2.2,0c0.6-0.6,0.6-1.5,0-2.1L137.4,166.7z"/>
	<path class="st4" d="M194.5,138.2c0.6,0.6,1.6,0.6,2.2,0l0,0l9.6-9.6c0.6-0.6,0.6-1.6,0-2.2s-1.6-0.6-2.2,0c0,0,0,0,0,0l-8.5,8.5
		l-3.4-3.4c-0.6-0.6-1.6-0.6-2.2,0c-0.6,0.6-0.6,1.5,0,2.1L194.5,138.2z"/>
</g>
<g>
	<path class="st5" d="M418.6,332.1H411c-0.7,0-1.3,0.6-1.3,1.3s0.6,1.3,1.3,1.3h7.6c1.5,0,2.6,1.2,2.6,2.6v38.8h-68.6v-38.8
		c0-1.5,1.2-2.6,2.6-2.6h7.5c0.7,0,1.3-0.6,1.3-1.3c0-0.7-0.6-1.3-1.3-1.3h-7.5c-2.9,0-5.3,2.4-5.3,5.3c0,0,0,0,0,0v41.4
		c0,2.9,2.4,5.3,5.3,5.3c0,0,0,0,0,0h24.4v8.1h-5.9c-0.4,0-0.7,0.1-0.9,0.4l-4,4c-0.2,0.3-0.4,0.6-0.4,0.9v4c0,0.7,0.6,1.3,1.3,1.3
		h34.3c0.7,0,1.3-0.6,1.3-1.3v-4c0-0.4-0.1-0.7-0.4-0.9l-4-4c-0.3-0.2-0.6-0.4-0.9-0.4h-6.6v-8.1h25.1c2.9,0,5.3-2.4,5.3-5.3
		c0,0,0,0,0,0v-41.4C423.9,334.4,421.5,332.1,418.6,332.1C418.6,332.1,418.6,332.1,418.6,332.1z M393.5,394.8h6.1l3.2,3.2v2.1h-31.7
		V398l3.2-3.2h5.3c1.5,0,2.6-1.2,2.6-2.6v-8.1h8.6v8.1C390.9,393.6,392,394.8,393.5,394.8z M418.6,381.4h-63.4
		c-1.5,0-2.6-1.2-2.6-2.6h68.6C421.2,380.3,420,381.4,418.6,381.4z"/>
	<path class="st6" d="M368.9,345c-0.7,0-1.3,0.6-1.3,1.3v0v18.2c0,0.7,0.6,1.3,1.3,1.3c0,0,0,0,0,0h36c0.7,0,1.3-0.6,1.3-1.3v0
		v-18.2c0-0.7-0.6-1.3-1.3-1.3s-1.3,0.6-1.3,1.3v16.9h-33.4v-16.9C370.2,345.6,369.6,345,368.9,345L368.9,345z"/>
	<path class="st6" d="M365.7,342.4H408c0.7,0,1.3-0.6,1.3-1.3c0-0.1,0-0.3-0.1-0.4l-2.3-7c0-0.1-0.1-0.2-0.2-0.3
		c0.3-0.1-5.8-4.2-5.8-4.3c-0.2-0.2-0.5-0.2-0.8-0.2h-26.6c-0.3,0-0.5,0.1-0.8,0.2l-5.5,3.9c-0.2,0.2-0.4,0.4-0.5,0.7l-2.4,7
		c-0.2,0.7,0.2,1.4,0.9,1.7C365.5,342.4,365.6,342.4,365.7,342.4z M374,331.4h25.8l1.8,1.3h-29.3L374,331.4z M369,335.3h35.7
		l1.5,4.4h-38.6L369,335.3z"/>
</g>
<g>
	<path class="st7" d="M358.7,142.7c2.1-1,5.2-1.6,8.6-1.6s6.5,0.6,8.6,1.6c2.2,1,3.1,2.2,3.1,3.1c0,0.9-0.8,2-3.1,3.1
		c-2.1,1-5.2,1.6-8.6,1.6s-6.5-0.6-8.6-1.6c-2.2-1-3.1-2.2-3.1-3.1C355.7,144.9,356.5,143.7,358.7,142.7z M379,149.7v3
		c0,0.9-0.8,2-3.1,3.1c-2.1,1-5.2,1.6-8.6,1.6c-3.4,0-6.5-0.6-8.6-1.6c-2.2-1-3.1-2.2-3.1-3.1v-3c0.6,0.5,1.4,0.9,2.1,1.2
		c2.5,1.1,5.9,1.8,9.6,1.8c3.7,0,7.1-0.7,9.6-1.8C377.7,150.6,378.4,150.2,379,149.7z M381.4,145.7c0-2.4-2-4.1-4.5-5.2
		c-2.5-1.1-5.9-1.8-9.6-1.8c-3.7,0-7.1,0.7-9.6,1.8c-2.4,1.1-4.5,2.8-4.5,5.2v21c0,2.4,2,4.1,4.5,5.2c2.5,1.1,5.9,1.8,9.6,1.8
		c3.7,0,7.1-0.7,9.6-1.8c2.4-1.1,4.5-2.8,4.5-5.2V145.7z M379,156.7v3c0,0.9-0.8,2-3.1,3.1c-2.1,1-5.2,1.6-8.6,1.6
		c-3.4,0-6.5-0.6-8.6-1.6c-2.2-1-3.1-2.2-3.1-3.1v-3c0.6,0.5,1.4,0.9,2.1,1.2c2.5,1.1,5.9,1.8,9.6,1.8c3.7,0,7.1-0.7,9.6-1.8
		C377.7,157.6,378.4,157.2,379,156.7z M379,163.7v3c0,0.9-0.8,2-3.1,3.1c-2.1,1-5.2,1.6-8.6,1.6c-3.4,0-6.5-0.6-8.6-1.6
		c-2.2-1-3.1-2.2-3.1-3.1v-3c0.6,0.5,1.4,0.9,2.1,1.2c2.5,1.1,5.9,1.8,9.6,1.8c3.7,0,7.1-0.7,9.6-1.8
		C377.7,164.6,378.4,164.2,379,163.7z"/>
	<path class="st4" d="M392.5,120.7c2.1-1,5.2-1.6,8.6-1.6s6.5,0.6,8.6,1.6c2.2,1,3.1,2.2,3.1,3.1c0,0.9-0.8,2-3.1,3.1
		c-2.1,1-5.2,1.6-8.6,1.6s-6.5-0.6-8.6-1.6c-2.2-1-3.1-2.2-3.1-3.1C389.4,122.9,390.2,121.7,392.5,120.7z M412.8,127.8v3
		c0,0.9-0.8,2-3.1,3.1c-2.1,1-5.2,1.6-8.6,1.6s-6.5-0.6-8.6-1.6c-2.2-1-3.1-2.2-3.1-3.1v-3c0.6,0.5,1.4,0.9,2.1,1.2
		c2.5,1.1,5.9,1.8,9.6,1.8c3.7,0,7.1-0.7,9.6-1.8C411.4,128.6,412.1,128.2,412.8,127.8z M415.1,123.8c0-2.4-2-4.1-4.5-5.2
		c-2.5-1.1-5.9-1.8-9.6-1.8c-3.7,0-7.1,0.7-9.6,1.8c-2.4,1.1-4.5,2.8-4.5,5.2v21c0,2.4,2,4.1,4.5,5.2c2.5,1.1,5.9,1.8,9.6,1.8
		c3.7,0,7.1-0.7,9.6-1.8c2.4-1.1,4.5-2.8,4.5-5.2V123.8z M412.8,134.8v3c0,0.9-0.8,2-3.1,3.1c-2.1,1-5.2,1.6-8.6,1.6
		s-6.5-0.6-8.6-1.6c-2.2-1-3.1-2.2-3.1-3.1v-3c0.6,0.5,1.4,0.9,2.1,1.2c2.5,1.1,5.9,1.8,9.6,1.8c3.7,0,7.1-0.7,9.6-1.8
		C411.4,135.7,412.1,135.2,412.8,134.8z M412.8,141.8v3c0,0.9-0.8,2-3.1,3.1c-2.1,1-5.2,1.6-8.6,1.6s-6.5-0.6-8.6-1.6
		c-2.2-1-3.1-2.2-3.1-3.1v-3c0.6,0.5,1.4,0.9,2.1,1.2c2.5,1.1,5.9,1.8,9.6,1.8c3.7,0,7.1-0.7,9.6-1.8
		C411.4,142.7,412.2,142.2,412.8,141.8z"/>
	<path class="st4" d="M390.2,160.2c2.1-1,5.2-1.6,8.6-1.6s6.5,0.6,8.6,1.6c2.2,1,3.1,2.2,3.1,3.1c0,0.9-0.8,2-3.1,3.1
		c-2.1,1-5.2,1.6-8.6,1.6s-6.5-0.6-8.6-1.6c-2.2-1-3.1-2.2-3.1-3.1C387.1,162.4,387.9,161.2,390.2,160.2z M410.4,167.2v3
		c0,0.9-0.8,2-3.1,3.1c-2.1,1-5.2,1.6-8.6,1.6s-6.5-0.6-8.6-1.6c-2.2-1-3.1-2.2-3.1-3.1v-3c0.6,0.5,1.4,0.9,2.1,1.2
		c2.5,1.1,5.9,1.8,9.6,1.8c3.7,0,7.1-0.7,9.6-1.8C409.1,168.1,409.8,167.7,410.4,167.2z M412.8,163.3c0-2.4-2-4.1-4.5-5.2
		c-2.5-1.1-5.9-1.8-9.6-1.8c-3.7,0-7.1,0.7-9.6,1.8c-2.4,1.1-4.5,2.8-4.5,5.2v21c0,2.4,2,4.1,4.5,5.2c2.5,1.1,5.9,1.8,9.6,1.8
		c3.7,0,7.1-0.7,9.6-1.8c2.4-1.1,4.5-2.8,4.5-5.2V163.3z M410.4,174.2v3c0,0.9-0.8,2-3.1,3.1c-2.1,1-5.2,1.6-8.6,1.6
		s-6.5-0.6-8.6-1.6c-2.2-1-3.1-2.2-3.1-3.1v-3c0.6,0.5,1.4,0.9,2.1,1.2c2.5,1.1,5.9,1.8,9.6,1.8c3.7,0,7.1-0.7,9.6-1.8
		C409.1,175.1,409.8,174.7,410.4,174.2z M410.4,181.2v3c0,0.9-0.8,2-3.1,3.1c-2.1,1-5.2,1.6-8.6,1.6s-6.5-0.6-8.6-1.6
		c-2.2-1-3.1-2.2-3.1-3.1v-3c0.6,0.5,1.4,0.9,2.1,1.2c2.5,1.1,5.9,1.8,9.6,1.8c3.7,0,7.1-0.7,9.6-1.8
		C409.1,182.1,409.8,181.7,410.4,181.2z"/>
</g>
</svg>
