<svg width="122" height="120" viewBox="0 0 122 120" fill="none" xmlns="http://www.w3.org/2000/svg">
<g clip-path="url(#clip0_434_5439)">
<path d="M60.9897 120C94.6881 120 122 93.1389 122 59.9898C122 26.8408 94.6881 0 60.9897 0C27.2914 0 0 26.8611 0 60.0102C0 93.1592 27.3119 120.02 60.9897 120.02V120Z" fill="#006E58"/>
<g clip-path="url(#clip1_434_5439)">
<path d="M93.8945 80.4848C97.6064 74.543 99.7394 67.5208 99.7394 60C99.7394 52.4792 97.6341 45.5956 93.9915 39.6953" stroke="white" stroke-width="1.8" stroke-linecap="round" stroke-linejoin="round"/>
<path d="M75.6256 24.0998C71.1104 22.2577 66.1796 21.2466 60.9996 21.2466C39.6007 21.2466 22.2461 38.6012 22.2461 60C22.2461 81.3989 39.6007 98.7535 60.9996 98.7535C66.0965 98.7535 70.958 97.7701 75.4178 95.9834" stroke="white" stroke-width="1.8" stroke-linecap="round" stroke-linejoin="round"/>
<path d="M53.1191 60H99.7535" stroke="white" stroke-width="1.8" stroke-linecap="round" stroke-linejoin="round"/>
<path d="M22.2461 60H26.7613" stroke="white" stroke-width="1.8" stroke-linecap="round" stroke-linejoin="round"/>
<path d="M61 98.7535V21.2466" stroke="white" stroke-width="1.8" stroke-linecap="round" stroke-linejoin="round"/>
<path d="M69.9058 29.2937C65.3352 23.7397 61 21.2466 61 21.2466" stroke="white" stroke-width="1.8" stroke-linecap="round" stroke-linejoin="round"/>
<path d="M79.1025 71.7315C79.892 68.2134 80.3629 64.3076 80.3629 60.0002C80.3629 55.6927 79.9059 51.9115 79.1302 48.4351" stroke="white" stroke-width="1.8" stroke-linecap="round" stroke-linejoin="round"/>
<path d="M61 98.7537C61 98.7537 65.5152 96.1498 70.1828 90.3604" stroke="white" stroke-width="1.8" stroke-linecap="round" stroke-linejoin="round"/>
<path d="M43.1465 47.2023C47.7033 28.892 60.9997 21.2466 60.9997 21.2466" stroke="white" stroke-width="1.8" stroke-linecap="round" stroke-linejoin="round"/>
<path d="M60.9997 98.7534C60.9997 98.7534 47.7171 91.1079 43.1465 72.8115" stroke="white" stroke-width="1.8" stroke-linecap="round" stroke-linejoin="round"/>
<path d="M32.1357 85.8589C38.3823 82.5487 47.8144 79.377 61 79.377C64.0333 79.377 66.8587 79.5432 69.4903 79.8479" stroke="white" stroke-width="1.8" stroke-linecap="round" stroke-linejoin="round"/>
<path d="M69.2964 40.1799C66.7202 40.4569 63.9501 40.6231 61 40.6231C47.8144 40.6231 38.3961 37.4514 32.1357 34.1411" stroke="white" stroke-width="1.8" stroke-linecap="round" stroke-linejoin="round"/>
<path d="M81.5958 39.0026C79.0473 39.0026 76.9697 36.925 76.9697 34.3765C76.9697 31.8281 79.0473 29.7505 81.5958 29.7505C84.1442 29.7505 86.2218 31.8281 86.2218 34.3765C86.2218 36.925 84.1442 39.0026 81.5958 39.0026Z" stroke="white" stroke-width="1.8" stroke-linecap="round" stroke-linejoin="round"/>
<path d="M83.9082 38.5459L87.0938 39.4739C89.0052 39.8894 89.4761 41.0528 89.7808 44.3215" stroke="white" stroke-width="1.8" stroke-linecap="round" stroke-linejoin="round"/>
<path d="M79.2827 38.5459L76.0971 39.4739C74.1858 39.8894 73.7149 41.0528 73.4102 44.3215" stroke="white" stroke-width="1.8" stroke-linecap="round" stroke-linejoin="round"/>
<path d="M81.5956 48.4349C88.6637 48.4349 94.3934 42.7052 94.3934 35.6371C94.3934 28.5691 88.6637 22.8394 81.5956 22.8394C74.5276 22.8394 68.7979 28.5691 68.7979 35.6371C68.7979 42.7052 74.5276 48.4349 81.5956 48.4349Z" stroke="white" stroke-width="1.8" stroke-linecap="round" stroke-linejoin="round"/>
<path d="M81.5958 87.8947C79.0473 87.8947 76.9697 85.8171 76.9697 83.2686C76.9697 80.7201 79.0473 78.6426 81.5958 78.6426C84.1442 78.6426 86.2218 80.7201 86.2218 83.2686C86.2218 85.8171 84.1442 87.8947 81.5958 87.8947Z" stroke="white" stroke-width="1.8" stroke-linecap="round" stroke-linejoin="round"/>
<path d="M83.9082 87.4517L87.0938 88.3796C89.0052 88.7951 89.4761 89.9586 89.7808 93.2273" stroke="white" stroke-width="1.8" stroke-linecap="round" stroke-linejoin="round"/>
<path d="M79.2827 87.4517L76.0971 88.3796C74.1858 88.7951 73.7149 89.9586 73.4102 93.2273" stroke="white" stroke-width="1.8" stroke-linecap="round" stroke-linejoin="round"/>
<path d="M81.5956 97.3407C88.6637 97.3407 94.3934 91.6109 94.3934 84.5429C94.3934 77.4749 88.6637 71.7451 81.5956 71.7451C74.5276 71.7451 68.7979 77.4749 68.7979 84.5429C68.7979 91.6109 74.5276 97.3407 81.5956 97.3407Z" stroke="white" stroke-width="1.8" stroke-linecap="round" stroke-linejoin="round"/>
<path d="M40.003 63.3658C37.4545 63.3658 35.377 61.2883 35.377 58.7398C35.377 56.1913 37.4545 54.1138 40.003 54.1138C42.5515 54.1138 44.629 56.1913 44.629 58.7398C44.629 61.2883 42.5515 63.3658 40.003 63.3658Z" stroke="white" stroke-width="1.8" stroke-linecap="round" stroke-linejoin="round"/>
<path d="M42.3154 62.9224L45.501 63.8503C47.4124 64.2659 47.8833 65.4293 48.188 68.698" stroke="white" stroke-width="1.8" stroke-linecap="round" stroke-linejoin="round"/>
<path d="M37.69 62.9224L34.5044 63.8503C32.593 64.2659 32.1221 65.4293 31.8174 68.698" stroke="white" stroke-width="1.8" stroke-linecap="round" stroke-linejoin="round"/>
<path d="M52.6319 62.0621C53.7668 55.0858 49.0314 48.5104 42.0551 47.3755C35.0788 46.2406 28.5033 50.9759 27.3684 57.9523C26.2335 64.9286 30.9689 71.504 37.9452 72.6389C44.9215 73.7738 51.497 69.0385 52.6319 62.0621Z" stroke="white" stroke-width="1.8" stroke-linecap="round" stroke-linejoin="round"/>
</g>
</g>
<defs>
<clipPath id="clip0_434_5439">
<rect width="122" height="120" fill="white"/>
</clipPath>
<clipPath id="clip1_434_5439">
<rect width="80" height="80" fill="white" transform="translate(21 20)"/>
</clipPath>
</defs>
</svg>
