<svg width="740" height="978" viewBox="0 0 740 978" fill="none" xmlns="http://www.w3.org/2000/svg">
<path d="M624.54 475.721C617.5 475.721 611.793 481.427 611.793 488.465C611.793 495.503 617.5 501.208 624.54 501.208C631.579 501.208 637.286 495.503 637.286 488.465C637.286 481.427 631.579 475.721 624.54 475.721Z" fill="#3578E6"/>
<path d="M624.54 373.781C617.5 373.781 611.793 379.487 611.793 386.525C611.793 393.563 617.5 399.268 624.54 399.268C631.579 399.268 637.286 393.563 637.286 386.525C637.286 379.487 631.579 373.781 624.54 373.781Z" fill="#FF5790"/>
<path d="M624.54 271.841C617.5 271.841 611.793 277.546 611.793 284.584C611.793 291.622 617.5 297.328 624.54 297.328C631.579 297.328 637.286 291.622 637.286 284.584C637.286 277.546 631.579 271.841 624.54 271.841Z" fill="#202048"/>
<path d="M590.551 577.661C583.512 577.661 577.805 583.367 577.805 590.405C577.805 597.443 583.512 603.148 590.551 603.148C597.591 603.148 603.298 597.443 603.298 590.405C603.298 583.367 597.591 577.661 590.551 577.661Z" fill="white"/>
<path d="M590.551 509.701C583.512 509.701 577.805 515.406 577.805 522.444C577.805 529.483 583.512 535.188 590.551 535.188C597.591 535.188 603.298 529.483 603.298 522.444C603.298 515.406 597.591 509.701 590.551 509.701Z" fill="#2C3461"/>
<path d="M590.551 475.721C583.512 475.721 577.805 481.427 577.805 488.465C577.805 495.503 583.512 501.208 590.551 501.208C597.591 501.208 603.298 495.503 603.298 488.465C603.298 481.427 597.591 475.721 590.551 475.721Z" fill="white"/>
<path d="M590.551 441.741C583.512 441.741 577.805 447.447 577.805 454.485C577.805 461.523 583.512 467.228 590.551 467.228C597.591 467.228 603.298 461.523 603.298 454.485C603.298 447.447 597.591 441.741 590.551 441.741Z" fill="#2C3461"/>
<path d="M590.551 407.761C583.512 407.761 577.805 413.466 577.805 420.505C577.805 427.543 583.512 433.248 590.551 433.248C597.591 433.248 603.298 427.543 603.298 420.505C603.298 413.466 597.591 407.761 590.551 407.761Z" fill="#1589C6"/>
<path d="M590.551 305.821C583.512 305.821 577.805 311.526 577.805 318.564C577.805 325.602 583.512 331.308 590.551 331.308C597.591 331.308 603.298 325.602 603.298 318.564C603.298 311.526 597.591 305.821 590.551 305.821Z" fill="#1DBB91"/>
<path d="M590.551 203.88C583.512 203.88 577.805 209.586 577.805 216.624C577.805 223.662 583.512 229.367 590.551 229.367C597.591 229.367 603.298 223.662 603.298 216.624C603.298 209.586 597.591 203.88 590.551 203.88Z" fill="white"/>
<path d="M590.551 169.9C583.512 169.9 577.805 175.606 577.805 182.644C577.805 189.682 583.512 195.387 590.551 195.387C597.591 195.387 603.298 189.682 603.298 182.644C603.298 175.606 597.591 169.9 590.551 169.9Z" fill="white"/>
<path d="M590.551 135.92C583.512 135.92 577.805 141.626 577.805 148.664C577.805 155.702 583.512 161.407 590.551 161.407C597.591 161.407 603.298 155.702 603.298 148.664C603.298 141.626 597.591 135.92 590.551 135.92Z" fill="#1589C6"/>
<path d="M590.551 101.94C583.512 101.94 577.805 107.646 577.805 114.684C577.805 121.722 583.512 127.427 590.551 127.427C597.591 127.427 603.298 121.722 603.298 114.684C603.298 107.646 597.591 101.94 590.551 101.94Z" fill="#2C3461"/>
<path d="M590.551 67.9599C583.512 67.9599 577.805 73.6653 577.805 80.7033C577.805 87.7413 583.512 93.4468 590.551 93.4468C597.591 93.4468 603.298 87.7413 603.298 80.7033C603.298 73.6653 597.591 67.9599 590.551 67.9599Z" fill="#2C3461"/>
<path d="M556.564 577.661C549.524 577.661 543.818 583.367 543.818 590.405C543.818 597.443 549.524 603.148 556.564 603.148C563.604 603.148 569.311 597.443 569.311 590.405C569.311 583.367 563.604 577.661 556.564 577.661Z" fill="#FF5790"/>
<path d="M556.564 543.682C549.524 543.682 543.818 549.387 543.818 556.425C543.818 563.463 549.524 569.168 556.564 569.168C563.604 569.168 569.311 563.463 569.311 556.425C569.311 549.387 563.604 543.682 556.564 543.682Z" fill="#02BACE"/>
<path d="M556.564 271.841C549.524 271.841 543.818 277.546 543.818 284.584C543.818 291.622 549.524 297.328 556.564 297.328C563.604 297.328 569.311 291.622 569.311 284.584C569.311 277.546 563.604 271.841 556.564 271.841Z" fill="#2C3461"/>
<path d="M556.564 237.861C549.524 237.861 543.818 243.566 543.818 250.604C543.818 257.642 549.524 263.348 556.564 263.348C563.604 263.348 569.311 257.642 569.311 250.604C569.311 243.566 563.604 237.861 556.564 237.861Z" fill="#1589C6"/>
<path d="M522.576 407.761C515.536 407.761 509.829 413.466 509.829 420.505C509.829 427.543 515.536 433.248 522.576 433.248C529.615 433.248 535.322 427.543 535.322 420.505C535.322 413.466 529.615 407.761 522.576 407.761Z" fill="#2C3461"/>
<path d="M522.576 373.781C515.536 373.781 509.829 379.487 509.829 386.525C509.829 393.563 515.536 399.268 522.576 399.268C529.615 399.268 535.322 393.563 535.322 386.525C535.322 379.487 529.615 373.781 522.576 373.781Z" fill="white"/>
<path d="M522.576 339.801C515.536 339.801 509.829 345.506 509.829 352.544C509.829 359.582 515.536 365.288 522.576 365.288C529.615 365.288 535.322 359.582 535.322 352.544C535.322 345.506 529.615 339.801 522.576 339.801Z" fill="#FF5790"/>
<path d="M522.576 237.861C515.536 237.861 509.829 243.566 509.829 250.604C509.829 257.642 515.536 263.348 522.576 263.348C529.615 263.348 535.322 257.642 535.322 250.604C535.322 243.566 529.615 237.861 522.576 237.861Z" fill="#2C3461"/>
<path d="M522.576 203.88C515.536 203.88 509.829 209.586 509.829 216.624C509.829 223.662 515.536 229.367 522.576 229.367C529.615 229.367 535.322 223.662 535.322 216.624C535.322 209.586 529.615 203.88 522.576 203.88Z" fill="#3578E6"/>
<path d="M522.576 169.9C515.536 169.9 509.829 175.606 509.829 182.644C509.829 189.682 515.536 195.387 522.576 195.387C529.615 195.387 535.322 189.682 535.322 182.644C535.322 175.606 529.615 169.9 522.576 169.9Z" fill="#1DBB91"/>
<path d="M488.58 543.682C481.54 543.682 475.833 549.387 475.833 556.425C475.833 563.463 481.54 569.168 488.58 569.168C495.619 569.168 501.326 563.463 501.326 556.425C501.326 549.387 495.619 543.682 488.58 543.682Z" fill="#2C3461"/>
<path d="M488.58 339.801C481.54 339.801 475.833 345.506 475.833 352.544C475.833 359.582 481.54 365.288 488.58 365.288C495.619 365.288 501.326 359.582 501.326 352.544C501.326 345.506 495.619 339.801 488.58 339.801Z" fill="#2C3461"/>
<path d="M488.58 305.821C481.54 305.821 475.833 311.526 475.833 318.564C475.833 325.602 481.54 331.308 488.58 331.308C495.619 331.308 501.326 325.602 501.326 318.564C501.326 311.526 495.619 305.821 488.58 305.821Z" fill="#1589C6"/>
<path d="M488.58 203.88C481.54 203.88 475.833 209.586 475.833 216.624C475.833 223.662 481.54 229.367 488.58 229.367C495.619 229.367 501.326 223.662 501.326 216.624C501.326 209.586 495.619 203.88 488.58 203.88Z" fill="#3578E6"/>
<path d="M488.58 169.9C481.54 169.9 475.833 175.606 475.833 182.644C475.833 189.682 481.54 195.387 488.58 195.387C495.619 195.387 501.326 189.682 501.326 182.644C501.326 175.606 495.619 169.9 488.58 169.9Z" fill="white"/>
<path d="M488.58 33.9799C481.54 33.9799 475.833 39.6853 475.833 46.7233C475.833 53.7614 481.54 59.4668 488.58 59.4668C495.619 59.4668 501.326 53.7614 501.326 46.7233C501.326 39.6853 495.619 33.9799 488.58 33.9799Z" fill="white"/>
<path d="M454.591 577.661C447.552 577.661 441.845 583.367 441.845 590.405C441.845 597.443 447.552 603.148 454.591 603.148C461.631 603.148 467.338 597.443 467.338 590.405C467.338 583.367 461.631 577.661 454.591 577.661Z" fill="#2C3461"/>
<path d="M454.591 475.721C447.552 475.721 441.845 481.427 441.845 488.465C441.845 495.503 447.552 501.208 454.591 501.208C461.631 501.208 467.338 495.503 467.338 488.465C467.338 481.427 461.631 475.721 454.591 475.721Z" fill="#2C3461"/>
<path d="M454.591 441.741C447.552 441.741 441.845 447.447 441.845 454.485C441.845 461.523 447.552 467.228 454.591 467.228C461.631 467.228 467.338 461.523 467.338 454.485C467.338 447.447 461.631 441.741 454.591 441.741Z" fill="#1589C6"/>
<path d="M454.591 339.801C447.552 339.801 441.845 345.506 441.845 352.544C441.845 359.582 447.552 365.288 454.591 365.288C461.631 365.288 467.338 359.582 467.338 352.544C467.338 345.506 461.631 339.801 454.591 339.801Z" fill="#1589C6"/>
<path d="M454.591 271.841C447.552 271.841 441.845 277.546 441.845 284.584C441.845 291.622 447.552 297.328 454.591 297.328C461.631 297.328 467.338 291.622 467.338 284.584C467.338 277.546 461.631 271.841 454.591 271.841Z" fill="white"/>
<path d="M420.604 577.661C413.564 577.661 407.858 583.367 407.858 590.405C407.858 597.443 413.564 603.148 420.604 603.148C427.644 603.148 433.351 597.443 433.351 590.405C433.351 583.367 427.644 577.661 420.604 577.661Z" fill="#FBBD00"/>
<path d="M420.604 543.682C413.564 543.682 407.858 549.387 407.858 556.425C407.858 563.463 413.564 569.168 420.604 569.168C427.644 569.168 433.351 563.463 433.351 556.425C433.351 549.387 427.644 543.682 420.604 543.682Z" fill="#2C3461"/>
<path d="M420.604 339.801C413.564 339.801 407.858 345.506 407.858 352.544C407.858 359.582 413.564 365.288 420.604 365.288C427.644 365.288 433.351 359.582 433.351 352.544C433.351 345.506 427.644 339.801 420.604 339.801Z" fill="white"/>
<path d="M420.604 135.92C413.564 135.92 407.858 141.626 407.858 148.664C407.858 155.702 413.564 161.407 420.604 161.407C427.644 161.407 433.351 155.702 433.351 148.664C433.351 141.626 427.644 135.92 420.604 135.92Z" fill="#795ADF"/>
<path d="M420.604 33.9799C413.564 33.9799 407.858 39.6853 407.858 46.7233C407.858 53.7614 413.564 59.4668 420.604 59.4668C427.644 59.4668 433.351 53.7614 433.351 46.7233C433.351 39.6853 427.644 33.9799 420.604 33.9799Z" fill="#1589C6"/>
<path d="M386.616 509.701C379.576 509.701 373.869 515.406 373.869 522.444C373.869 529.483 379.576 535.188 386.616 535.188C393.656 535.188 399.362 529.483 399.362 522.444C399.362 515.406 393.656 509.701 386.616 509.701Z" fill="#FBBD00"/>
<path d="M386.616 475.721C379.576 475.721 373.869 481.427 373.869 488.465C373.869 495.503 379.576 501.208 386.616 501.208C393.656 501.208 399.362 495.503 399.362 488.465C399.362 481.427 393.656 475.721 386.616 475.721Z" fill="#F86E14"/>
<path d="M386.616 441.741C379.576 441.741 373.869 447.447 373.869 454.485C373.869 461.523 379.576 467.228 386.616 467.228C393.656 467.228 399.362 461.523 399.362 454.485C399.362 447.447 393.656 441.741 386.616 441.741Z" fill="#1589C6"/>
<path d="M386.616 407.761C379.576 407.761 373.869 413.466 373.869 420.505C373.869 427.543 379.576 433.248 386.616 433.248C393.656 433.248 399.362 427.543 399.362 420.505C399.362 413.466 393.656 407.761 386.616 407.761Z" fill="#2C3461"/>
<path d="M318.639 475.721C311.6 475.721 305.893 481.427 305.893 488.465C305.893 495.503 311.6 501.208 318.639 501.208C325.679 501.208 331.386 495.503 331.386 488.465C331.386 481.427 325.679 475.721 318.639 475.721Z" fill="#1589C6"/>
<path d="M318.639 373.781C311.6 373.781 305.893 379.486 305.893 386.524C305.893 393.562 311.6 399.268 318.639 399.268C325.679 399.268 331.386 393.562 331.386 386.524C331.386 379.486 325.679 373.781 318.639 373.781Z" fill="#FBBD00"/>
<path d="M318.639 339.801C311.6 339.801 305.893 345.506 305.893 352.544C305.893 359.582 311.6 365.288 318.639 365.288C325.679 365.288 331.386 359.582 331.386 352.544C331.386 345.506 325.679 339.801 318.639 339.801Z" fill="#202048"/>
<path d="M318.639 305.821C311.6 305.821 305.893 311.526 305.893 318.564C305.893 325.602 311.6 331.308 318.639 331.308C325.679 331.308 331.386 325.602 331.386 318.564C331.386 311.526 325.679 305.821 318.639 305.821Z" fill="#2C3461"/>
<path d="M318.639 271.841C311.6 271.841 305.893 277.546 305.893 284.584C305.893 291.622 311.6 297.328 318.639 297.328C325.679 297.328 331.386 291.622 331.386 284.584C331.386 277.546 325.679 271.841 318.639 271.841Z" fill="white"/>
<path d="M318.639 237.861C311.6 237.861 305.893 243.566 305.893 250.604C305.893 257.642 311.6 263.348 318.639 263.348C325.679 263.348 331.386 257.642 331.386 250.604C331.386 243.566 325.679 237.861 318.639 237.861Z" fill="white"/>
<path d="M318.639 135.92C311.6 135.92 305.893 141.626 305.893 148.664C305.893 155.702 311.6 161.407 318.639 161.407C325.679 161.407 331.386 155.702 331.386 148.664C331.386 141.626 325.679 135.92 318.639 135.92Z" fill="#2C3461"/>
<path d="M318.639 101.94C311.6 101.94 305.893 107.646 305.893 114.684C305.893 121.722 311.6 127.427 318.639 127.427C325.679 127.427 331.386 121.722 331.386 114.684C331.386 107.646 325.679 101.94 318.639 101.94Z" fill="#202048"/>
<path d="M318.639 67.9599C311.6 67.9599 305.893 73.6653 305.893 80.7033C305.893 87.7413 311.6 93.4468 318.639 93.4468C325.679 93.4468 331.386 87.7413 331.386 80.7033C331.386 73.6653 325.679 67.9599 318.639 67.9599Z" fill="#1589C6"/>
<path d="M318.639 -8.1223e-05C311.6 -8.18384e-05 305.893 5.70535 305.893 12.7434C305.893 19.7814 311.6 25.4868 318.639 25.4868C325.679 25.4868 331.386 19.7814 331.386 12.7434C331.386 5.70535 325.679 -8.06075e-05 318.639 -8.1223e-05Z" fill="#2C3461"/>
<path d="M250.663 509.701C243.624 509.701 237.917 515.406 237.917 522.444C237.917 529.483 243.624 535.188 250.663 535.188C257.703 535.188 263.41 529.483 263.41 522.444C263.41 515.406 257.703 509.701 250.663 509.701Z" fill="#3578E6"/>
<path d="M250.663 237.861C243.624 237.861 237.917 243.566 237.917 250.604C237.917 257.642 243.624 263.348 250.663 263.348C257.703 263.348 263.41 257.642 263.41 250.604C263.41 243.566 257.703 237.861 250.663 237.861Z" fill="#F86E14"/>
<path d="M250.663 203.88C243.624 203.88 237.917 209.586 237.917 216.624C237.917 223.662 243.624 229.367 250.663 229.367C257.703 229.367 263.41 223.662 263.41 216.624C263.41 209.586 257.703 203.88 250.663 203.88Z" fill="#202048"/>
<path d="M250.663 101.94C243.624 101.94 237.917 107.646 237.917 114.684C237.917 121.722 243.624 127.427 250.663 127.427C257.703 127.427 263.41 121.722 263.41 114.684C263.41 107.646 257.703 101.94 250.663 101.94Z" fill="white"/>
<path d="M250.663 67.9599C243.623 67.9599 237.916 73.6653 237.916 80.7033C237.916 87.7413 243.623 93.4468 250.663 93.4468C257.702 93.4468 263.409 87.7413 263.409 80.7033C263.409 73.6653 257.702 67.9599 250.663 67.9599Z" fill="#2C3461"/>
<path d="M182.687 577.661C175.647 577.661 169.941 583.367 169.941 590.405C169.941 597.443 175.647 603.148 182.687 603.148C189.727 603.148 195.434 597.443 195.434 590.405C195.434 583.367 189.727 577.661 182.687 577.661Z" fill="#FBBD00"/>
<path d="M182.687 509.701C175.647 509.701 169.941 515.406 169.941 522.444C169.941 529.483 175.647 535.188 182.687 535.188C189.727 535.188 195.434 529.483 195.434 522.444C195.434 515.406 189.727 509.701 182.687 509.701Z" fill="white"/>
<path d="M182.687 475.721C175.647 475.721 169.941 481.427 169.941 488.465C169.941 495.503 175.647 501.208 182.687 501.208C189.727 501.208 195.434 495.503 195.434 488.465C195.434 481.427 189.727 475.721 182.687 475.721Z" fill="white"/>
<path d="M182.687 441.741C175.647 441.741 169.941 447.447 169.941 454.485C169.941 461.523 175.647 467.228 182.687 467.228C189.727 467.228 195.434 461.523 195.434 454.485C195.434 447.447 189.727 441.741 182.687 441.741Z" fill="#202048"/>
<path d="M182.687 407.761C175.647 407.761 169.941 413.466 169.941 420.505C169.941 427.543 175.647 433.248 182.687 433.248C189.727 433.248 195.434 427.543 195.434 420.505C195.434 413.466 189.727 407.761 182.687 407.761Z" fill="white"/>
<path d="M182.687 271.841C175.647 271.841 169.941 277.546 169.941 284.584C169.941 291.622 175.647 297.328 182.687 297.328C189.727 297.328 195.434 291.622 195.434 284.584C195.434 277.546 189.727 271.841 182.687 271.841Z" fill="#3578E6"/>
<path d="M182.687 237.86C175.647 237.86 169.941 243.566 169.941 250.604C169.941 257.642 175.647 263.347 182.687 263.347C189.727 263.347 195.434 257.642 195.434 250.604C195.434 243.566 189.727 237.86 182.687 237.86Z" fill="white"/>
<path d="M182.687 101.94C175.647 101.94 169.941 107.646 169.941 114.684C169.941 121.722 175.647 127.427 182.687 127.427C189.727 127.427 195.434 121.722 195.434 114.684C195.434 107.646 189.727 101.94 182.687 101.94Z" fill="#202048"/>
<path d="M182.687 33.9799C175.647 33.9799 169.941 39.6853 169.941 46.7233C169.941 53.7614 175.647 59.4668 182.687 59.4668C189.727 59.4668 195.434 53.7614 195.434 46.7233C195.434 39.6853 189.727 33.9799 182.687 33.9799Z" fill="#F86E14"/>
<path d="M114.711 577.661C107.671 577.661 101.965 583.367 101.965 590.405C101.965 597.443 107.671 603.148 114.711 603.148C121.751 603.148 127.458 597.443 127.458 590.405C127.458 583.367 121.751 577.661 114.711 577.661Z" fill="white"/>
<path d="M114.711 475.721C107.671 475.721 101.965 481.427 101.965 488.465C101.965 495.503 107.671 501.208 114.711 501.208C121.751 501.208 127.458 495.503 127.458 488.465C127.458 481.427 121.751 475.721 114.711 475.721Z" fill="#1589C6"/>
<path d="M114.711 407.761C107.671 407.761 101.965 413.466 101.965 420.505C101.965 427.543 107.671 433.248 114.711 433.248C121.751 433.248 127.458 427.543 127.458 420.505C127.458 413.466 121.751 407.761 114.711 407.761Z" fill="#1589C6"/>
<path d="M114.711 339.801C107.671 339.801 101.965 345.506 101.965 352.544C101.965 359.582 107.671 365.288 114.711 365.288C121.751 365.288 127.458 359.582 127.458 352.544C127.458 345.506 121.751 339.801 114.711 339.801Z" fill="#1589C6"/>
<path d="M114.711 271.841C107.671 271.841 101.965 277.546 101.965 284.584C101.965 291.622 107.671 297.328 114.711 297.328C121.751 297.328 127.458 291.622 127.458 284.584C127.458 277.546 121.751 271.841 114.711 271.841Z" fill="#202048"/>
<path d="M114.711 237.86C107.671 237.86 101.965 243.566 101.965 250.604C101.965 257.642 107.671 263.347 114.711 263.347C121.751 263.347 127.458 257.642 127.458 250.604C127.458 243.566 121.751 237.86 114.711 237.86Z" fill="#FF5790"/>
<path d="M114.711 203.88C107.671 203.88 101.965 209.586 101.965 216.624C101.965 223.662 107.671 229.367 114.711 229.367C121.751 229.367 127.458 223.662 127.458 216.624C127.458 209.586 121.751 203.88 114.711 203.88Z" fill="#1589C6"/>
<path d="M114.711 135.92C107.671 135.92 101.965 141.626 101.965 148.664C101.965 155.702 107.671 161.407 114.711 161.407C121.751 161.407 127.458 155.702 127.458 148.664C127.458 141.626 121.751 135.92 114.711 135.92Z" fill="#202048"/>
<path d="M114.711 101.94C107.671 101.94 101.965 107.646 101.965 114.684C101.965 121.722 107.671 127.427 114.711 127.427C121.751 127.427 127.458 121.722 127.458 114.684C127.458 107.646 121.751 101.94 114.711 101.94Z" fill="#1DBB91"/>
<path d="M114.711 67.9604C107.671 67.9604 101.965 73.6658 101.965 80.7038C101.965 87.7418 107.671 93.4473 114.711 93.4473C121.751 93.4473 127.458 87.7418 127.458 80.7038C127.458 73.6658 121.751 67.9604 114.711 67.9604Z" fill="#202048"/>
<path d="M46.734 543.681C39.6943 543.681 33.9876 549.387 33.9876 556.425C33.9876 563.463 39.6943 569.168 46.734 569.168C53.7737 569.168 59.4805 563.463 59.4805 556.425C59.4805 549.387 53.7737 543.681 46.734 543.681Z" fill="#1DBB91"/>
<path d="M46.734 509.701C39.6943 509.701 33.9876 515.406 33.9876 522.444C33.9876 529.483 39.6943 535.188 46.734 535.188C53.7737 535.188 59.4805 529.483 59.4805 522.444C59.4805 515.406 53.7737 509.701 46.734 509.701Z" fill="#FF5790"/>
<path d="M46.734 373.781C39.6943 373.781 33.9876 379.486 33.9876 386.524C33.9876 393.562 39.6943 399.268 46.734 399.268C53.7737 399.268 59.4805 393.562 59.4805 386.524C59.4805 379.486 53.7737 373.781 46.734 373.781Z" fill="#2C3461"/>
<path d="M46.734 237.86C39.6943 237.86 33.9876 243.566 33.9876 250.604C33.9876 257.642 39.6943 263.347 46.734 263.347C53.7737 263.347 59.4805 257.642 59.4805 250.604C59.4805 243.566 53.7737 237.86 46.734 237.86Z" fill="#1DBB91"/>
<path d="M46.734 169.9C39.6943 169.9 33.9876 175.606 33.9876 182.644C33.9876 189.682 39.6943 195.387 46.734 195.387C53.7737 195.387 59.4805 189.682 59.4805 182.644C59.4805 175.606 53.7737 169.9 46.734 169.9Z" fill="#1589C6"/>
<path d="M352.627 509.701C345.587 509.701 339.88 515.406 339.88 522.444C339.88 529.483 345.587 535.188 352.627 535.188C359.666 535.188 365.373 529.483 365.373 522.444C365.373 515.406 359.666 509.701 352.627 509.701Z" fill="#1589C6"/>
<path d="M352.627 441.741C345.587 441.741 339.88 447.447 339.88 454.485C339.88 461.523 345.587 467.228 352.627 467.228C359.666 467.228 365.373 461.523 365.373 454.485C365.373 447.447 359.666 441.741 352.627 441.741Z" fill="#795ADF"/>
<path d="M352.627 373.781C345.587 373.781 339.88 379.486 339.88 386.524C339.88 393.562 345.587 399.268 352.627 399.268C359.666 399.268 365.373 393.562 365.373 386.524C365.373 379.486 359.666 373.781 352.627 373.781Z" fill="#202048"/>
<path d="M352.627 339.801C345.587 339.801 339.88 345.506 339.88 352.544C339.88 359.582 345.587 365.288 352.627 365.288C359.666 365.288 365.373 359.582 365.373 352.544C365.373 345.506 359.666 339.801 352.627 339.801Z" fill="#795ADF"/>
<path d="M352.627 271.841C345.587 271.841 339.88 277.546 339.88 284.584C339.88 291.622 345.587 297.328 352.627 297.328C359.666 297.328 365.373 291.622 365.373 284.584C365.373 277.546 359.666 271.841 352.627 271.841Z" fill="#2C3461"/>
<path d="M352.627 237.861C345.587 237.861 339.88 243.566 339.88 250.604C339.88 257.642 345.587 263.348 352.627 263.348C359.666 263.348 365.373 257.642 365.373 250.604C365.373 243.566 359.666 237.861 352.627 237.861Z" fill="#2C3461"/>
<path d="M352.627 203.88C345.587 203.88 339.88 209.586 339.88 216.624C339.88 223.662 345.587 229.367 352.627 229.367C359.666 229.367 365.373 223.662 365.373 216.624C365.373 209.586 359.666 203.88 352.627 203.88Z" fill="white"/>
<path d="M284.651 543.682C277.611 543.682 271.905 549.387 271.905 556.425C271.905 563.463 277.611 569.168 284.651 569.168C291.691 569.168 297.397 563.463 297.397 556.425C297.397 549.387 291.691 543.682 284.651 543.682Z" fill="#FF5790"/>
<path d="M284.651 407.761C277.611 407.761 271.905 413.466 271.905 420.505C271.905 427.543 277.611 433.248 284.651 433.248C291.691 433.248 297.397 427.543 297.397 420.505C297.397 413.466 291.691 407.761 284.651 407.761Z" fill="#2C3461"/>
<path d="M284.651 305.821C277.611 305.821 271.905 311.526 271.905 318.564C271.905 325.602 277.611 331.308 284.651 331.308C291.691 331.308 297.397 325.602 297.397 318.564C297.397 311.526 291.691 305.821 284.651 305.821Z" fill="white"/>
<path d="M284.651 203.88C277.611 203.88 271.905 209.586 271.905 216.624C271.905 223.662 277.611 229.367 284.651 229.367C291.691 229.367 297.397 223.662 297.397 216.624C297.397 209.586 291.691 203.88 284.651 203.88Z" fill="#2C3461"/>
<path d="M216.675 407.761C209.635 407.761 203.928 413.466 203.928 420.505C203.928 427.543 209.635 433.248 216.675 433.248C223.715 433.248 229.421 427.543 229.421 420.505C229.421 413.466 223.715 407.761 216.675 407.761Z" fill="#1589C6"/>
<path d="M148.699 577.661C141.659 577.661 135.952 583.367 135.952 590.405C135.952 597.443 141.659 603.148 148.699 603.148C155.739 603.148 161.445 597.443 161.445 590.405C161.445 583.367 155.739 577.661 148.699 577.661Z" fill="#1589C6"/>
<path d="M148.746 510C141.706 510 135.999 515.705 135.999 522.743C135.999 529.781 141.706 535.487 148.746 535.487C155.785 535.487 161.492 529.781 161.492 522.743C161.492 515.705 155.785 510 148.746 510Z" fill="#2C3461"/>
<path d="M148.699 407.761C141.66 407.761 135.953 413.466 135.953 420.505C135.953 427.543 141.66 433.248 148.699 433.248C155.739 433.248 161.446 427.543 161.446 420.505C161.446 413.466 155.739 407.761 148.699 407.761Z" fill="#FF5790"/>
<path d="M148.699 373.781C141.66 373.781 135.953 379.486 135.953 386.524C135.953 393.562 141.66 399.268 148.699 399.268C155.739 399.268 161.446 393.562 161.446 386.524C161.446 379.486 155.739 373.781 148.699 373.781Z" fill="#F86E14"/>
<path d="M80.7223 577.661C73.6826 577.661 67.9759 583.367 67.9759 590.405C67.9758 597.443 73.6826 603.148 80.7223 603.148C87.762 603.148 93.4688 597.443 93.4688 590.405C93.4688 583.367 87.762 577.661 80.7223 577.661Z" fill="#2C3461"/>
<path d="M80.7223 441.741C73.6826 441.741 67.9759 447.447 67.9759 454.485C67.9758 461.523 73.6826 467.228 80.7223 467.228C87.762 467.228 93.4688 461.523 93.4688 454.485C93.4688 447.447 87.762 441.741 80.7223 441.741Z" fill="white"/>
<path d="M692.515 577.661C685.476 577.661 679.769 583.367 679.769 590.405C679.769 597.443 685.476 603.148 692.515 603.148C699.555 603.148 705.262 597.443 705.262 590.405C705.262 583.367 699.555 577.661 692.515 577.661Z" fill="#2C3461"/>
<path d="M692.515 543.682C685.476 543.682 679.769 549.387 679.769 556.425C679.769 563.463 685.476 569.168 692.515 569.168C699.555 569.168 705.262 563.463 705.262 556.425C705.262 549.387 699.555 543.682 692.515 543.682Z" fill="#FBBD00"/>
<path d="M692.515 509.702C685.476 509.702 679.769 515.407 679.769 522.445C679.769 529.483 685.476 535.188 692.515 535.188C699.555 535.188 705.262 529.483 705.262 522.445C705.262 515.407 699.555 509.702 692.515 509.702Z" fill="#2C3461"/>
<path d="M658.527 373.781C651.487 373.781 645.781 379.487 645.781 386.525C645.781 393.563 651.487 399.268 658.527 399.268C665.567 399.268 671.273 393.563 671.273 386.525C671.273 379.487 665.567 373.781 658.527 373.781Z" fill="white"/>
<path d="M658.527 237.861C651.487 237.861 645.781 243.566 645.781 250.604C645.781 257.642 651.487 263.348 658.527 263.348C665.567 263.348 671.273 257.642 671.273 250.604C671.273 243.566 665.567 237.861 658.527 237.861Z" fill="white"/>
<path d="M658.527 169.9C651.487 169.9 645.781 175.606 645.781 182.644C645.781 189.682 651.487 195.387 658.527 195.387C665.567 195.387 671.273 189.682 671.273 182.644C671.273 175.606 665.567 169.9 658.527 169.9Z" fill="white"/>
<path d="M658.527 101.94C651.487 101.94 645.781 107.646 645.781 114.684C645.781 121.722 651.487 127.427 658.527 127.427C665.567 127.427 671.273 121.722 671.273 114.684C671.273 107.646 665.567 101.94 658.527 101.94Z" fill="#202048"/>
<path d="M12.7467 509.701C5.70704 509.701 0.000264943 515.406 0.000264328 522.444C0.000263713 529.483 5.70704 535.188 12.7467 535.188C19.7864 535.188 25.4932 529.483 25.4932 522.444C25.4932 515.406 19.7864 509.701 12.7467 509.701Z" fill="#F86E14"/>
<path d="M12.7467 441.741C5.70704 441.741 0.000264943 447.447 0.000264328 454.485C0.000263713 461.523 5.70704 467.228 12.7467 467.228C19.7864 467.228 25.4932 461.523 25.4932 454.485C25.4932 447.447 19.7864 441.741 12.7467 441.741Z" fill="#FBBD00"/>
<path d="M12.7467 373.781C5.70704 373.781 0.000264943 379.486 0.000264328 386.524C0.000263713 393.562 5.70704 399.268 12.7467 399.268C19.7864 399.268 25.4932 393.562 25.4932 386.524C25.4932 379.486 19.7864 373.781 12.7467 373.781Z" fill="#1589C6"/>
<path d="M12.7467 339.801C5.70704 339.801 0.000264943 345.506 0.000264328 352.544C0.000263713 359.582 5.70704 365.288 12.7467 365.288C19.7864 365.288 25.4932 359.582 25.4932 352.544C25.4932 345.506 19.7864 339.801 12.7467 339.801Z" fill="#2C3461"/>
<path d="M12.7467 271.841C5.70704 271.841 0.000264943 277.546 0.000264328 284.584C0.000263713 291.622 5.70704 297.328 12.7467 297.328C19.7864 297.328 25.4932 291.622 25.4932 284.584C25.4932 277.546 19.7864 271.841 12.7467 271.841Z" fill="#202048"/>
<path d="M726.504 509.701C719.464 509.701 713.757 515.406 713.757 522.444C713.757 529.483 719.464 535.188 726.504 535.188C733.543 535.188 739.25 529.483 739.25 522.444C739.25 515.406 733.543 509.701 726.504 509.701Z" fill="white"/>
<path d="M726.504 475.721C719.464 475.721 713.757 481.427 713.757 488.465C713.757 495.503 719.464 501.208 726.504 501.208C733.543 501.208 739.25 495.503 739.25 488.465C739.25 481.427 733.543 475.721 726.504 475.721Z" fill="#2C3461"/>
<path d="M726.504 441.741C719.464 441.741 713.757 447.447 713.757 454.485C713.757 461.523 719.464 467.228 726.504 467.228C733.543 467.228 739.25 461.523 739.25 454.485C739.25 447.447 733.543 441.741 726.504 441.741Z" fill="#02BACE"/>
<path d="M726.504 373.781C719.464 373.781 713.757 379.486 713.757 386.524C713.757 393.562 719.464 399.268 726.504 399.268C733.543 399.268 739.25 393.562 739.25 386.524C739.25 379.486 733.543 373.781 726.504 373.781Z" fill="white"/>
<path d="M726.504 339.801C719.464 339.801 713.757 345.506 713.757 352.544C713.757 359.582 719.464 365.288 726.504 365.288C733.543 365.288 739.25 359.582 739.25 352.544C739.25 345.506 733.543 339.801 726.504 339.801Z" fill="#2C3461"/>
<path d="M726.504 271.841C719.464 271.841 713.757 277.546 713.757 284.584C713.757 291.622 719.464 297.328 726.504 297.328C733.543 297.328 739.25 291.622 739.25 284.584C739.25 277.546 733.543 271.841 726.504 271.841Z" fill="white"/>
<path d="M726.504 237.86C719.464 237.86 713.757 243.566 713.757 250.604C713.757 257.642 719.464 263.347 726.504 263.347C733.543 263.347 739.25 257.642 739.25 250.604C739.25 243.566 733.543 237.86 726.504 237.86Z" fill="#202048"/>
<g style="mix-blend-mode:soft-light">
<path d="M454.591 339.801L420.603 339.801C413.565 339.801 407.857 345.508 407.857 352.545C407.857 359.582 413.565 365.288 420.603 365.288L454.591 365.288C461.63 365.288 467.338 359.582 467.338 352.545C467.338 345.508 461.63 339.801 454.591 339.801Z" fill="white"/>
</g>
<g style="mix-blend-mode:soft-light">
<path d="M318.639 161.407C325.678 161.407 331.386 155.701 331.386 148.664L331.386 114.684C331.386 107.647 325.678 101.94 318.639 101.94C311.601 101.94 305.893 107.647 305.893 114.684L305.893 148.664C305.893 155.701 311.601 161.407 318.639 161.407Z" fill="white"/>
</g>
<g style="mix-blend-mode:soft-light">
<path d="M556.564 237.861L522.576 237.861C515.537 237.861 509.829 243.567 509.829 250.604C509.829 257.641 515.537 263.348 522.576 263.348L556.564 263.348C563.603 263.348 569.311 257.641 569.311 250.604C569.311 243.567 563.603 237.861 556.564 237.861Z" fill="white"/>
</g>
<g style="mix-blend-mode:soft-light">
<path d="M318.639 365.288C325.678 365.288 331.386 359.581 331.386 352.544L331.386 318.564C331.386 311.527 325.678 305.821 318.639 305.821C311.601 305.821 305.893 311.527 305.893 318.564L305.893 352.544C305.893 359.581 311.601 365.288 318.639 365.288Z" fill="white"/>
</g>
<g style="mix-blend-mode:soft-light">
<path d="M114.711 161.407C121.75 161.407 127.458 155.701 127.458 148.664L127.458 114.684C127.458 107.647 121.75 101.94 114.711 101.94C107.672 101.94 101.965 107.647 101.965 114.684L101.965 148.664C101.965 155.701 107.672 161.407 114.711 161.407Z" fill="white"/>
</g>
<g style="mix-blend-mode:soft-light">
<path d="M148.699 407.761L114.711 407.761C107.673 407.761 101.965 413.468 101.965 420.505C101.965 427.541 107.673 433.248 114.711 433.248L148.699 433.248C155.738 433.248 161.446 427.541 161.446 420.505C161.446 413.468 155.738 407.761 148.699 407.761Z" fill="white"/>
</g>
<g style="mix-blend-mode:soft-light">
<path d="M318.64 263.348L353.345 263.348C360.384 263.348 366.092 257.641 366.092 250.604C366.092 243.567 360.384 237.861 353.345 237.861L318.64 237.861C311.601 237.861 305.894 243.567 305.894 250.604C305.894 257.641 311.601 263.348 318.64 263.348Z" fill="white"/>
</g>
<g style="mix-blend-mode:soft-light">
<path d="M386.616 509.701L352.628 509.701C345.589 509.701 339.881 515.407 339.881 522.444C339.881 529.481 345.589 535.188 352.628 535.188L386.616 535.188C393.655 535.188 399.362 529.481 399.362 522.444C399.362 515.408 393.655 509.701 386.616 509.701Z" fill="white"/>
</g>
<g style="mix-blend-mode:soft-light">
<path d="M522.576 433.248C529.614 433.248 535.322 427.541 535.322 420.505L535.322 386.524C535.322 379.487 529.614 373.781 522.576 373.781C515.537 373.781 509.829 379.487 509.829 386.524L509.829 420.505C509.829 427.541 515.537 433.248 522.576 433.248Z" fill="white"/>
</g>
<g style="mix-blend-mode:soft-light">
<path d="M590.551 101.94C583.513 101.94 577.805 107.647 577.805 114.684L577.805 148.664C577.805 155.701 583.513 161.407 590.551 161.407C597.59 161.407 603.298 155.701 603.298 148.664L603.298 114.684C603.298 107.647 597.59 101.94 590.551 101.94Z" fill="white"/>
</g>
<g style="mix-blend-mode:soft-light">
<path d="M284.651 203.881L250.663 203.881C243.624 203.881 237.916 209.587 237.916 216.624C237.916 223.661 243.624 229.368 250.663 229.368L284.651 229.368C291.69 229.368 297.397 223.661 297.397 216.624C297.397 209.587 291.69 203.881 284.651 203.881Z" fill="white"/>
</g>
<g style="mix-blend-mode:soft-light">
<path d="M692.515 509.701C685.477 509.701 679.769 515.408 679.769 522.445L679.769 556.425C679.769 563.462 685.477 569.168 692.515 569.168C699.554 569.168 705.262 563.462 705.262 556.425L705.262 522.445C705.262 515.408 699.554 509.701 692.515 509.701Z" fill="white"/>
</g>
<g style="mix-blend-mode:soft-light">
<path d="M386.616 407.761C379.577 407.761 373.869 413.467 373.869 420.504L373.869 454.485C373.869 461.522 379.577 467.228 386.616 467.228C393.655 467.228 399.362 461.522 399.362 454.485L399.362 420.504C399.362 413.467 393.655 407.761 386.616 407.761Z" fill="white"/>
</g>
<g style="mix-blend-mode:soft-light">
<path d="M182.687 237.861C175.648 237.861 169.941 243.567 169.941 250.604L169.941 284.584C169.941 291.621 175.648 297.328 182.687 297.328C189.726 297.328 195.434 291.621 195.434 284.584L195.434 250.604C195.434 243.567 189.726 237.861 182.687 237.861Z" fill="white"/>
</g>
<path d="M114.711 680.165C107.671 680.165 101.965 685.871 101.965 692.909C101.965 699.947 107.671 705.652 114.711 705.652C121.751 705.652 127.458 699.947 127.458 692.909C127.458 685.871 121.751 680.165 114.711 680.165Z" fill="white"/>
<path d="M148.699 442.305C141.66 442.305 135.953 448.01 135.953 455.048C135.953 462.086 141.66 467.792 148.699 467.792C155.739 467.792 161.446 462.086 161.446 455.048C161.446 448.01 155.739 442.305 148.699 442.305Z" fill="#2C3461"/>
<path d="M148.699 612.205C141.66 612.205 135.953 617.911 135.953 624.949C135.953 631.987 141.66 637.692 148.699 637.692C155.739 637.692 161.446 631.987 161.446 624.949C161.446 617.911 155.739 612.205 148.699 612.205Z" fill="#1589C6"/>
<path d="M148.699 646.185C141.66 646.185 135.953 651.891 135.953 658.929C135.953 665.967 141.66 671.672 148.699 671.672C155.739 671.672 161.446 665.967 161.446 658.929C161.446 651.891 155.739 646.185 148.699 646.185Z" fill="white"/>
<path d="M148.699 816.086C141.66 816.086 135.953 821.791 135.953 828.829C135.953 835.867 141.66 841.573 148.699 841.573C155.739 841.573 161.446 835.867 161.446 828.829C161.446 821.791 155.739 816.086 148.699 816.086Z" fill="#2C3461"/>
<path d="M148.699 850.066C141.66 850.066 135.953 855.771 135.953 862.809C135.953 869.847 141.66 875.553 148.699 875.553C155.739 875.553 161.446 869.847 161.446 862.809C161.446 855.771 155.739 850.066 148.699 850.066Z" fill="#02BACE"/>
<path d="M148.699 884.046C141.66 884.046 135.953 889.751 135.953 896.789C135.953 903.827 141.66 909.533 148.699 909.533C155.739 909.533 161.446 903.827 161.446 896.789C161.446 889.751 155.739 884.046 148.699 884.046Z" fill="#3578E6"/>
<path d="M182.687 680.165C175.647 680.165 169.941 685.871 169.941 692.909C169.941 699.947 175.647 705.652 182.687 705.652C189.727 705.652 195.434 699.947 195.434 692.909C195.434 685.871 189.727 680.165 182.687 680.165Z" fill="#1589C6"/>
<path d="M182.687 714.145C175.647 714.145 169.941 719.851 169.941 726.889C169.941 733.927 175.647 739.632 182.687 739.632C189.727 739.632 195.434 733.927 195.434 726.889C195.434 719.851 189.727 714.145 182.687 714.145Z" fill="#2C3461"/>
<path d="M216.675 374.345C209.636 374.345 203.929 380.05 203.929 387.088C203.929 394.126 209.636 399.832 216.675 399.832C223.715 399.832 229.422 394.126 229.422 387.088C229.422 380.05 223.715 374.345 216.675 374.345Z" fill="#202048"/>
<path d="M216.675 680.165C209.636 680.165 203.929 685.871 203.929 692.909C203.929 699.947 209.636 705.652 216.675 705.652C223.715 705.652 229.422 699.947 229.422 692.909C229.422 685.871 223.715 680.165 216.675 680.165Z" fill="#2C3461"/>
<path d="M216.675 714.145C209.636 714.145 203.929 719.851 203.929 726.889C203.929 733.927 209.636 739.632 216.675 739.632C223.715 739.632 229.422 733.927 229.422 726.889C229.422 719.851 223.715 714.145 216.675 714.145Z" fill="#202048"/>
<path d="M216.675 782.106C209.635 782.106 203.928 787.811 203.928 794.849C203.928 801.887 209.635 807.593 216.675 807.593C223.715 807.593 229.421 801.887 229.421 794.849C229.421 787.811 223.715 782.106 216.675 782.106Z" fill="#1589C6"/>
<path d="M250.663 544.245C243.624 544.245 237.917 549.95 237.917 556.988C237.917 564.026 243.624 569.732 250.663 569.732C257.703 569.732 263.41 564.027 263.41 556.988C263.41 549.95 257.703 544.245 250.663 544.245Z" fill="white"/>
<path d="M250.663 578.225C243.624 578.225 237.917 583.93 237.917 590.968C237.917 598.007 243.624 603.712 250.663 603.712C257.703 603.712 263.41 598.007 263.41 590.968C263.41 583.93 257.703 578.225 250.663 578.225Z" fill="#1DBB91"/>
<path d="M250.663 612.205C243.624 612.205 237.917 617.91 237.917 624.948C237.917 631.986 243.624 637.692 250.663 637.692C257.703 637.692 263.41 631.986 263.41 624.948C263.41 617.91 257.703 612.205 250.663 612.205Z" fill="#795ADF"/>
<path d="M250.663 748.126C243.624 748.126 237.917 753.831 237.917 760.869C237.917 767.907 243.624 773.613 250.663 773.613C257.703 773.613 263.41 767.907 263.41 760.869C263.41 753.831 257.703 748.126 250.663 748.126Z" fill="#202048"/>
<path d="M250.663 782.106C243.624 782.106 237.917 787.811 237.917 794.849C237.917 801.887 243.624 807.593 250.663 807.593C257.703 807.593 263.41 801.887 263.41 794.849C263.41 787.811 257.703 782.106 250.663 782.106Z" fill="#F86E14"/>
<path d="M250.663 918.026C243.624 918.026 237.917 923.732 237.917 930.77C237.917 937.808 243.624 943.513 250.663 943.513C257.703 943.513 263.41 937.808 263.41 930.77C263.41 923.732 257.703 918.026 250.663 918.026Z" fill="#FBBD00"/>
<path d="M284.651 510.265C277.611 510.265 271.905 515.97 271.905 523.009C271.905 530.047 277.611 535.752 284.651 535.752C291.691 535.752 297.397 530.047 297.397 523.009C297.397 515.97 291.691 510.265 284.651 510.265Z" fill="#2C3461"/>
<path d="M284.651 714.145C277.611 714.145 271.905 719.851 271.905 726.889C271.905 733.927 277.611 739.632 284.651 739.632C291.691 739.632 297.397 733.927 297.397 726.889C297.397 719.851 291.691 714.145 284.651 714.145Z" fill="#1589C6"/>
<path d="M318.639 408.325C311.6 408.325 305.893 414.03 305.893 421.068C305.893 428.106 311.6 433.812 318.639 433.812C325.679 433.812 331.386 428.106 331.386 421.068C331.386 414.03 325.679 408.325 318.639 408.325Z" fill="#3578E6"/>
<path d="M318.639 578.225C311.6 578.225 305.893 583.93 305.893 590.968C305.893 598.007 311.6 603.712 318.639 603.712C325.679 603.712 331.386 598.007 331.386 590.968C331.386 583.93 325.679 578.225 318.639 578.225Z" fill="#795ADF"/>
<path d="M318.639 680.165C311.6 680.165 305.893 685.871 305.893 692.909C305.893 699.947 311.6 705.652 318.639 705.652C325.679 705.652 331.386 699.947 331.386 692.909C331.386 685.871 325.679 680.165 318.639 680.165Z" fill="#2C3461"/>
<path d="M318.639 748.125C311.6 748.125 305.893 753.831 305.893 760.869C305.893 767.907 311.6 773.612 318.639 773.612C325.679 773.612 331.386 767.907 331.386 760.869C331.386 753.831 325.679 748.125 318.639 748.125Z" fill="#1DBB91"/>
<path d="M318.639 782.105C311.6 782.105 305.893 787.811 305.893 794.849C305.893 801.887 311.6 807.592 318.639 807.592C325.679 807.592 331.386 801.887 331.386 794.849C331.386 787.811 325.679 782.105 318.639 782.105Z" fill="#795ADF"/>
<path d="M318.639 850.066C311.6 850.066 305.893 855.772 305.893 862.81C305.893 869.848 311.6 875.553 318.639 875.553C325.679 875.553 331.386 869.848 331.386 862.81C331.386 855.772 325.679 850.066 318.639 850.066Z" fill="#2C3461"/>
<path d="M318.639 918.026C311.6 918.026 305.893 923.732 305.893 930.77C305.893 937.808 311.6 943.513 318.639 943.513C325.679 943.513 331.386 937.808 331.386 930.77C331.386 923.732 325.679 918.026 318.639 918.026Z" fill="#2C3461"/>
<path d="M352.627 544.245C345.587 544.245 339.88 549.95 339.88 556.988C339.88 564.026 345.587 569.732 352.627 569.732C359.666 569.732 365.373 564.027 365.373 556.988C365.373 549.95 359.666 544.245 352.627 544.245Z" fill="white"/>
<path d="M352.627 612.205C345.587 612.205 339.88 617.91 339.88 624.948C339.88 631.986 345.587 637.692 352.627 637.692C359.666 637.692 365.373 631.986 365.373 624.948C365.373 617.91 359.666 612.205 352.627 612.205Z" fill="#2C3461"/>
<path d="M420.604 612.205C413.564 612.205 407.858 617.911 407.858 624.949C407.858 631.987 413.564 637.692 420.604 637.692C427.644 637.692 433.351 631.987 433.351 624.949C433.351 617.911 427.644 612.205 420.604 612.205Z" fill="#02BACE"/>
<path d="M420.604 646.185C413.564 646.185 407.858 651.891 407.858 658.929C407.858 665.967 413.564 671.672 420.604 671.672C427.644 671.672 433.351 665.967 433.351 658.929C433.351 651.891 427.644 646.185 420.604 646.185Z" fill="#1589C6"/>
<path d="M420.604 714.146C413.564 714.146 407.858 719.851 407.858 726.889C407.858 733.927 413.564 739.633 420.604 739.633C427.644 739.633 433.351 733.927 433.351 726.889C433.351 719.851 427.644 714.146 420.604 714.146Z" fill="white"/>
<path d="M420.604 748.126C413.564 748.126 407.858 753.831 407.858 760.869C407.858 767.907 413.564 773.613 420.604 773.613C427.644 773.613 433.351 767.907 433.351 760.869C433.351 753.831 427.644 748.126 420.604 748.126Z" fill="#2C3461"/>
<path d="M420.604 816.086C413.564 816.086 407.858 821.791 407.858 828.829C407.858 835.867 413.564 841.573 420.604 841.573C427.644 841.573 433.351 835.867 433.351 828.829C433.351 821.791 427.644 816.086 420.604 816.086Z" fill="#1589C6"/>
<path d="M420.604 884.046C413.564 884.046 407.858 889.751 407.858 896.789C407.858 903.827 413.564 909.533 420.604 909.533C427.644 909.533 433.351 903.827 433.351 896.789C433.351 889.751 427.644 884.046 420.604 884.046Z" fill="#202048"/>
<path d="M420.604 952.006C413.564 952.006 407.858 957.712 407.858 964.75C407.858 971.788 413.564 977.493 420.604 977.493C427.644 977.493 433.351 971.788 433.351 964.75C433.351 957.712 427.644 952.006 420.604 952.006Z" fill="#202048"/>
<path d="M488.587 408.325C481.547 408.325 475.84 414.03 475.84 421.068C475.84 428.106 481.547 433.812 488.587 433.812C495.626 433.812 501.333 428.106 501.333 421.068C501.333 414.03 495.626 408.325 488.587 408.325Z" fill="white"/>
<path d="M488.587 476.285C481.547 476.285 475.84 481.991 475.84 489.029C475.84 496.067 481.547 501.772 488.587 501.772C495.626 501.772 501.333 496.067 501.333 489.029C501.333 481.991 495.626 476.285 488.587 476.285Z" fill="#1589C6"/>
<path d="M488.587 578.225C481.547 578.225 475.84 583.93 475.84 590.968C475.84 598.007 481.547 603.712 488.587 603.712C495.626 603.712 501.333 598.007 501.333 590.968C501.333 583.93 495.626 578.225 488.587 578.225Z" fill="#3578E6"/>
<path d="M488.587 612.205C481.547 612.205 475.84 617.911 475.84 624.949C475.84 631.987 481.547 637.692 488.587 637.692C495.626 637.692 501.333 631.987 501.333 624.949C501.333 617.911 495.626 612.205 488.587 612.205Z" fill="#1589C6"/>
<path d="M488.587 714.145C481.547 714.145 475.84 719.851 475.84 726.889C475.84 733.927 481.547 739.632 488.587 739.632C495.626 739.632 501.333 733.927 501.333 726.889C501.333 719.851 495.626 714.145 488.587 714.145Z" fill="#3578E6"/>
<path d="M488.587 748.125C481.547 748.125 475.84 753.831 475.84 760.869C475.84 767.907 481.547 773.612 488.587 773.612C495.626 773.612 501.333 767.907 501.333 760.869C501.333 753.831 495.626 748.125 488.587 748.125Z" fill="#202048"/>
<path d="M488.587 782.106C481.547 782.106 475.84 787.811 475.84 794.849C475.84 801.887 481.547 807.593 488.587 807.593C495.626 807.593 501.333 801.887 501.333 794.849C501.333 787.811 495.626 782.106 488.587 782.106Z" fill="#2C3461"/>
<path d="M488.587 850.066C481.547 850.066 475.84 855.771 475.84 862.809C475.84 869.847 481.547 875.553 488.587 875.553C495.626 875.553 501.333 869.847 501.333 862.809C501.333 855.771 495.626 850.066 488.587 850.066Z" fill="#F86E14"/>
<path d="M488.587 884.046C481.547 884.046 475.84 889.751 475.84 896.789C475.84 903.827 481.547 909.533 488.587 909.533C495.626 909.533 501.333 903.827 501.333 896.789C501.333 889.751 495.626 884.046 488.587 884.046Z" fill="#202048"/>
<path d="M556.564 374.345C549.524 374.345 543.818 380.05 543.818 387.088C543.818 394.126 549.524 399.832 556.564 399.832C563.604 399.832 569.311 394.126 569.311 387.088C569.311 380.05 563.604 374.345 556.564 374.345Z" fill="#2C3461"/>
<path d="M556.564 510.265C549.524 510.265 543.818 515.97 543.818 523.009C543.818 530.047 549.524 535.752 556.564 535.752C563.604 535.752 569.311 530.047 569.311 523.009C569.311 515.97 563.604 510.265 556.564 510.265Z" fill="#FF5790"/>
<path d="M556.564 680.165C549.524 680.165 543.818 685.871 543.818 692.909C543.818 699.947 549.524 705.652 556.564 705.652C563.604 705.652 569.311 699.947 569.311 692.909C569.311 685.871 563.604 680.165 556.564 680.165Z" fill="#2C3461"/>
<path d="M556.564 714.145C549.524 714.145 543.818 719.851 543.818 726.889C543.818 733.927 549.524 739.632 556.564 739.632C563.604 739.632 569.311 733.927 569.311 726.889C569.311 719.851 563.604 714.145 556.564 714.145Z" fill="#1589C6"/>
<path d="M556.564 850.066C549.524 850.066 543.818 855.771 543.818 862.809C543.818 869.847 549.524 875.553 556.564 875.553C563.604 875.553 569.311 869.847 569.311 862.809C569.311 855.771 563.604 850.066 556.564 850.066Z" fill="#2C3461"/>
<path d="M556.564 918.026C549.524 918.026 543.818 923.731 543.818 930.769C543.818 937.807 549.524 943.513 556.564 943.513C563.604 943.513 569.311 937.807 569.311 930.769C569.311 923.731 563.604 918.026 556.564 918.026Z" fill="white"/>
<path d="M624.54 544.245C617.5 544.245 611.793 549.95 611.793 556.988C611.793 564.026 617.5 569.732 624.54 569.732C631.579 569.732 637.286 564.027 637.286 556.988C637.286 549.95 631.579 544.245 624.54 544.245Z" fill="#FF5790"/>
<path d="M624.54 646.185C617.5 646.185 611.793 651.891 611.793 658.929C611.793 665.967 617.5 671.672 624.54 671.672C631.579 671.672 637.286 665.967 637.286 658.929C637.286 651.891 631.579 646.185 624.54 646.185Z" fill="#1589C6"/>
<path d="M624.54 680.165C617.5 680.165 611.793 685.871 611.793 692.909C611.793 699.947 617.5 705.652 624.54 705.652C631.579 705.652 637.286 699.947 637.286 692.909C637.286 685.871 631.579 680.165 624.54 680.165Z" fill="#2C3461"/>
<path d="M624.54 748.125C617.5 748.125 611.793 753.831 611.793 760.869C611.793 767.907 617.5 773.612 624.54 773.612C631.579 773.612 637.286 767.907 637.286 760.869C637.286 753.831 631.579 748.125 624.54 748.125Z" fill="white"/>
<path d="M624.54 782.106C617.5 782.106 611.793 787.811 611.793 794.849C611.793 801.887 617.5 807.593 624.54 807.593C631.579 807.593 637.286 801.887 637.286 794.849C637.286 787.811 631.579 782.106 624.54 782.106Z" fill="#2C3461"/>
<path d="M624.54 816.086C617.5 816.086 611.793 821.791 611.793 828.829C611.793 835.867 617.5 841.573 624.54 841.573C631.579 841.573 637.286 835.867 637.286 828.829C637.286 821.791 631.579 816.086 624.54 816.086Z" fill="#1589C6"/>
<path d="M624.54 850.066C617.5 850.066 611.793 855.771 611.793 862.809C611.793 869.847 617.5 875.553 624.54 875.553C631.579 875.553 637.286 869.847 637.286 862.809C637.286 855.771 631.579 850.066 624.54 850.066Z" fill="white"/>
<path d="M624.54 884.046C617.5 884.046 611.793 889.751 611.793 896.789C611.793 903.827 617.5 909.533 624.54 909.533C631.579 909.533 637.286 903.827 637.286 896.789C637.286 889.751 631.579 884.046 624.54 884.046Z" fill="#2C3461"/>
<path d="M692.515 442.305C685.476 442.305 679.769 448.011 679.769 455.049C679.769 462.087 685.476 467.792 692.515 467.792C699.555 467.792 705.262 462.087 705.262 455.049C705.262 448.011 699.555 442.305 692.515 442.305Z" fill="#1589C6"/>
<path d="M692.515 476.285C685.476 476.285 679.769 481.991 679.769 489.029C679.769 496.067 685.476 501.772 692.515 501.772C699.555 501.772 705.262 496.067 705.262 489.029C705.262 481.991 699.555 476.285 692.515 476.285Z" fill="white"/>
<path d="M692.515 578.225C685.476 578.225 679.769 583.93 679.769 590.968C679.769 598.007 685.476 603.712 692.515 603.712C699.555 603.712 705.262 598.007 705.262 590.968C705.262 583.93 699.555 578.225 692.515 578.225Z" fill="#202048"/>
<path d="M692.515 612.205C685.476 612.205 679.769 617.911 679.769 624.949C679.769 631.987 685.476 637.692 692.515 637.692C699.555 637.692 705.262 631.987 705.262 624.949C705.262 617.911 699.555 612.205 692.515 612.205Z" fill="#F86E14"/>
<path d="M692.515 714.145C685.476 714.145 679.769 719.851 679.769 726.889C679.769 733.927 685.476 739.632 692.515 739.632C699.555 739.632 705.262 733.927 705.262 726.889C705.262 719.851 699.555 714.145 692.515 714.145Z" fill="#2C3461"/>
<path d="M692.515 782.106C685.476 782.106 679.769 787.811 679.769 794.849C679.769 801.887 685.476 807.593 692.515 807.593C699.555 807.593 705.262 801.887 705.262 794.849C705.262 787.811 699.555 782.106 692.515 782.106Z" fill="#1589C6"/>
<path d="M386.616 680.165C379.576 680.165 373.869 685.871 373.869 692.909C373.869 699.947 379.576 705.652 386.616 705.652C393.656 705.652 399.362 699.947 399.362 692.909C399.362 685.871 393.656 680.165 386.616 680.165Z" fill="#1589C6"/>
<path d="M386.616 816.086C379.576 816.086 373.869 821.791 373.869 828.829C373.869 835.867 379.576 841.573 386.616 841.573C393.656 841.573 399.362 835.867 399.362 828.829C399.362 821.791 393.656 816.086 386.616 816.086Z" fill="#2C3461"/>
<path d="M454.591 374.345C447.552 374.345 441.845 380.05 441.845 387.088C441.845 394.126 447.552 399.832 454.591 399.832C461.631 399.832 467.338 394.126 467.338 387.088C467.338 380.05 461.631 374.345 454.591 374.345Z" fill="#2C3461"/>
<path d="M454.591 646.185C447.552 646.185 441.845 651.891 441.845 658.929C441.845 665.967 447.552 671.672 454.591 671.672C461.631 671.672 467.338 665.967 467.338 658.929C467.338 651.891 461.631 646.185 454.591 646.185Z" fill="#2C3461"/>
<path d="M454.591 748.126C447.552 748.126 441.845 753.831 441.845 760.869C441.845 767.907 447.552 773.613 454.591 773.613C461.631 773.613 467.338 767.907 467.338 760.869C467.338 753.831 461.631 748.126 454.591 748.126Z" fill="white"/>
<path d="M522.576 442.305C515.536 442.305 509.829 448.011 509.829 455.049C509.829 462.087 515.536 467.792 522.576 467.792C529.615 467.792 535.322 462.087 535.322 455.049C535.322 448.011 529.615 442.305 522.576 442.305Z" fill="#795ADF"/>
<path d="M590.551 408.325C583.512 408.325 577.805 414.03 577.805 421.068C577.805 428.106 583.512 433.812 590.551 433.812C597.591 433.812 603.298 428.106 603.298 421.068C603.298 414.03 597.591 408.325 590.551 408.325Z" fill="#1589C6"/>
<path d="M590.551 510.265C583.512 510.265 577.805 515.97 577.805 523.009C577.805 530.047 583.512 535.752 590.551 535.752C597.591 535.752 603.298 530.047 603.298 523.009C603.298 515.97 597.591 510.265 590.551 510.265Z" fill="#2C3461"/>
<path d="M80.7223 544.245C73.6826 544.245 67.9759 549.95 67.9759 556.988C67.9758 564.026 73.6826 569.732 80.7223 569.732C87.762 569.732 93.4688 564.027 93.4688 556.988C93.4688 549.95 87.762 544.245 80.7223 544.245Z" fill="#1589C6"/>
<path d="M80.7223 612.205C73.6826 612.205 67.9759 617.911 67.9759 624.949C67.9758 631.987 73.6826 637.692 80.7223 637.692C87.762 637.692 93.4688 631.987 93.4688 624.949C93.4688 617.911 87.762 612.205 80.7223 612.205Z" fill="white"/>
<path d="M80.7223 646.185C73.6826 646.185 67.9759 651.891 67.9759 658.929C67.9758 665.967 73.6826 671.672 80.7223 671.672C87.762 671.672 93.4688 665.967 93.4688 658.929C93.4688 651.891 87.762 646.185 80.7223 646.185Z" fill="#2C3461"/>
<path d="M80.7223 714.145C73.6826 714.145 67.9759 719.851 67.9759 726.889C67.9758 733.927 73.6826 739.632 80.7223 739.632C87.762 739.632 93.4688 733.927 93.4688 726.889C93.4688 719.851 87.762 714.145 80.7223 714.145Z" fill="#1DBB91"/>
<path d="M80.7223 782.106C73.6826 782.106 67.9759 787.811 67.9759 794.849C67.9758 801.887 73.6826 807.593 80.7223 807.593C87.762 807.593 93.4688 801.887 93.4688 794.849C93.4688 787.811 87.762 782.106 80.7223 782.106Z" fill="#1589C6"/>
<path d="M80.7223 850.066C73.6826 850.066 67.9759 855.771 67.9759 862.809C67.9758 869.847 73.6826 875.553 80.7223 875.553C87.762 875.553 93.4688 869.847 93.4688 862.809C93.4688 855.771 87.762 850.066 80.7223 850.066Z" fill="#1589C6"/>
<path d="M12.7467 612.205C5.70704 612.205 0.000264943 617.91 0.000264328 624.948C0.000263713 631.986 5.70704 637.692 12.7467 637.692C19.7864 637.692 25.4932 631.986 25.4932 624.948C25.4932 617.91 19.7864 612.205 12.7467 612.205Z" fill="#2C3461"/>
<path d="M12.7467 646.185C5.70704 646.185 0.000264943 651.891 0.000264328 658.929C0.000263713 665.967 5.70704 671.672 12.7467 671.672C19.7864 671.672 25.4932 665.967 25.4932 658.929C25.4932 651.891 19.7864 646.185 12.7467 646.185Z" fill="#1589C6"/>
<path d="M726.504 680.165C719.464 680.165 713.757 685.871 713.757 692.909C713.757 699.947 719.464 705.652 726.504 705.652C733.543 705.652 739.25 699.947 739.25 692.909C739.25 685.871 733.543 680.165 726.504 680.165Z" fill="white"/>
<path d="M726.504 714.145C719.464 714.145 713.757 719.851 713.757 726.889C713.757 733.927 719.464 739.632 726.504 739.632C733.543 739.632 739.25 733.927 739.25 726.889C739.25 719.851 733.543 714.145 726.504 714.145Z" fill="#202048"/>
<g style="mix-blend-mode:soft-light">
<path d="M182.687 739.632L216.675 739.632C223.714 739.632 229.421 733.926 229.421 726.889C229.421 719.852 223.714 714.145 216.675 714.145L182.687 714.145C175.648 714.145 169.94 719.852 169.94 726.889C169.94 733.926 175.648 739.632 182.687 739.632Z" fill="white"/>
</g>
<g style="mix-blend-mode:soft-light">
<path d="M318.639 748.126C311.601 748.126 305.893 753.832 305.893 760.869L305.893 794.849C305.893 801.886 311.601 807.593 318.639 807.593C325.678 807.593 331.386 801.886 331.386 794.849L331.386 760.869C331.386 753.832 325.678 748.126 318.639 748.126Z" fill="white"/>
</g>
<g style="mix-blend-mode:soft-light">
<path d="M420.604 612.205C413.565 612.205 407.858 617.912 407.858 624.949L407.858 658.929C407.858 665.966 413.565 671.672 420.604 671.672C427.643 671.672 433.351 665.966 433.351 658.929L433.351 624.949C433.351 617.912 427.643 612.205 420.604 612.205Z" fill="white"/>
</g>
<g style="mix-blend-mode:soft-light">
<path d="M624.54 816.086C617.501 816.086 611.793 821.792 611.793 828.829L611.793 862.809C611.793 869.846 617.501 875.553 624.54 875.553C631.578 875.553 637.286 869.846 637.286 862.809L637.286 828.829C637.286 821.792 631.578 816.086 624.54 816.086Z" fill="white"/>
</g>
<g style="mix-blend-mode:soft-light">
<path d="M692.515 739.632L726.504 739.632C733.542 739.632 739.25 733.926 739.25 726.889C739.25 719.852 733.542 714.145 726.504 714.145L692.515 714.145C685.477 714.145 679.769 719.852 679.769 726.889C679.769 733.926 685.477 739.632 692.515 739.632Z" fill="white"/>
</g>
<g style="mix-blend-mode:soft-light">
<path d="M148.699 875.553C155.738 875.553 161.445 869.846 161.445 862.809L161.445 828.829C161.445 821.792 155.738 816.086 148.699 816.086C141.66 816.086 135.952 821.792 135.952 828.829L135.952 862.809C135.952 869.846 141.66 875.553 148.699 875.553Z" fill="white"/>
</g>
<g style="mix-blend-mode:soft-light">
<path d="M488.587 578.225C481.548 578.225 475.84 583.932 475.84 590.969L475.84 624.949C475.84 631.986 481.548 637.692 488.587 637.692C495.625 637.692 501.333 631.986 501.333 624.949L501.333 590.969C501.333 583.932 495.625 578.225 488.587 578.225Z" fill="white"/>
</g>
<g style="mix-blend-mode:soft-light">
<path d="M454.592 773.612L488.58 773.612C495.618 773.612 501.326 767.906 501.326 760.869C501.326 753.832 495.618 748.125 488.58 748.125L454.592 748.125C447.553 748.125 441.845 753.832 441.845 760.869C441.845 767.906 447.553 773.612 454.592 773.612Z" fill="white"/>
</g>
<g style="mix-blend-mode:soft-light">
<path d="M556.564 739.632C563.603 739.632 569.311 733.926 569.311 726.889L569.311 692.909C569.311 685.872 563.603 680.165 556.564 680.165C549.525 680.165 543.818 685.872 543.818 692.909L543.818 726.889C543.818 733.926 549.525 739.632 556.564 739.632Z" fill="white"/>
</g>
<g style="mix-blend-mode:soft-light">
<path d="M12.7467 671.672C19.7854 671.672 25.4932 665.966 25.4932 658.929L25.4932 624.949C25.4932 617.912 19.7854 612.205 12.7467 612.205C5.70807 612.205 0.000267914 617.912 0.000267299 624.949L0.000264328 658.929C0.000263713 665.966 5.70807 671.672 12.7467 671.672Z" fill="white"/>
</g>
</svg>
