<svg width="122" height="122" viewBox="0 0 122 122" fill="none" xmlns="http://www.w3.org/2000/svg">
<path d="M60.8218 121.782C94.5201 121.782 121.832 94.7009 121.832 61.2802C121.832 27.8595 94.5201 0.798828 60.8218 0.798828C27.1234 0.798828 -0.167969 27.8801 -0.167969 61.3008C-0.167969 94.7214 27.1439 121.803 60.8218 121.803V121.782Z" fill="#006E58"/>
<g clip-path="url(#clip0_457_67)">
<path d="M93.333 72.8232H100.097" stroke="#DCE7E5" stroke-width="1.8" stroke-linecap="round" stroke-linejoin="round"/>
<path d="M68.335 72.8232H83.6098" stroke="#DCE7E5" stroke-width="1.8" stroke-linecap="round" stroke-linejoin="round"/>
<path d="M48.916 72.8232H58.7561" stroke="#DCE7E5" stroke-width="1.8" stroke-linecap="round" stroke-linejoin="round"/>
<path d="M96.0306 72.8232C97.1254 72.8232 98.0247 71.9298 98.0247 70.8422V30.1466C98.0247 29.046 97.1254 28.1655 96.0306 28.1655H52.9951C51.9003 28.1655 51.001 29.0589 51.001 30.1466V42.3048" stroke="#DCE7E5" stroke-width="1.8" stroke-linecap="round" stroke-linejoin="round"/>
<path d="M51.001 62.6719V70.8421C51.001 71.9427 51.9003 72.8231 52.9951 72.8231" stroke="#DCE7E5" stroke-width="1.8" stroke-linecap="round" stroke-linejoin="round"/>
<path d="M44.7059 68.2005V51.6011L48.8765 56.7803C49.6064 57.6867 50.7142 58.2046 51.8611 58.2046C52.0175 58.2046 52.1739 58.2046 52.3433 58.1787L60.476 57.3501C62.5744 57.0911 64.4642 55.3561 64.2035 53.2714C63.9429 51.1868 61.9749 49.9697 59.8765 50.2286L53.5033 50.7595L46.2308 42.5116C46.2308 42.5116 46.1265 42.421 46.0874 42.3692C46.0353 42.3174 46.0092 42.2527 45.9571 42.2138C45.8789 42.1361 45.7876 42.0584 45.7094 41.9808C45.7094 41.9808 45.6964 41.9678 45.6834 41.9549C44.4583 40.8543 42.7249 40.5953 41.0957 40.4399" stroke="#DCE7E5" stroke-width="1.8" stroke-linecap="round" stroke-linejoin="round"/>
<path d="M34.1492 40.4014H34.1101C29.9003 40.4014 26.1729 42.3695 26.1729 46.5517V65.8183C26.1729 67.9289 28.5579 69.625 30.6823 69.625C30.8909 69.625 31.0733 69.5992 31.2688 69.5603" stroke="#DCE7E5" stroke-width="1.8" stroke-linecap="round" stroke-linejoin="round"/>
<path d="M31.2686 49.4775V69.5599" stroke="#DCE7E5" stroke-width="1.8" stroke-linecap="round" stroke-linejoin="round"/>
<path d="M44.315 34.782C44.315 38.4333 41.3304 41.3984 37.6551 41.3984C33.9797 41.3984 30.9951 38.4333 30.9951 34.782C30.9951 31.1306 33.9927 28.1655 37.6681 28.1655C41.3435 28.1655 44.3281 31.1306 44.3281 34.782H44.315Z" stroke="#DCE7E5" stroke-width="1.8" stroke-linecap="round" stroke-linejoin="round"/>
<path d="M63.6043 84.8905C59.7465 84.8905 56.6055 81.7701 56.6055 77.9375C56.6055 74.1048 59.7465 70.9844 63.6043 70.9844C67.4621 70.9844 70.6031 74.1048 70.6031 77.9375C70.6031 81.7701 67.4621 84.8905 63.6043 84.8905Z" stroke="#DCE7E5" stroke-width="1.8" stroke-linecap="round" stroke-linejoin="round"/>
<path d="M67.1104 84.2173L71.9196 85.6157C74.813 86.2372 75.5298 89.9144 75.9729 94.8217" stroke="#DCE7E5" stroke-width="1.8" stroke-linecap="round" stroke-linejoin="round"/>
<path d="M60.0979 84.2173L55.2887 85.6157C52.3953 86.2372 51.6785 89.9144 51.2354 94.8217" stroke="#DCE7E5" stroke-width="1.8" stroke-linecap="round" stroke-linejoin="round"/>
<path d="M88.4588 84.8905C84.601 84.8905 81.46 81.7701 81.46 77.9375C81.46 74.1048 84.601 70.9844 88.4588 70.9844C92.3166 70.9844 95.4576 74.1048 95.4576 77.9375C95.4576 81.7701 92.3166 84.8905 88.4588 84.8905Z" stroke="#DCE7E5" stroke-width="1.8" stroke-linecap="round" stroke-linejoin="round"/>
<path d="M91.9648 84.2173L96.7741 85.6157C99.6674 86.2372 100.384 89.9144 100.827 94.8217" stroke="#DCE7E5" stroke-width="1.8" stroke-linecap="round" stroke-linejoin="round"/>
<path d="M84.9524 84.2173L80.1432 85.6157C77.2498 86.2372 76.533 89.9144 76.0898 94.8217" stroke="#DCE7E5" stroke-width="1.8" stroke-linecap="round" stroke-linejoin="round"/>
<path d="M38.867 84.8905C35.0092 84.8905 31.8682 81.7701 31.8682 77.9375C31.8682 74.1048 35.0092 70.9844 38.867 70.9844C42.7248 70.9844 45.8658 74.1048 45.8658 77.9375C45.8658 81.7701 42.7248 84.8905 38.867 84.8905Z" stroke="#DCE7E5" stroke-width="1.8" stroke-linecap="round" stroke-linejoin="round"/>
<path d="M42.373 84.2173L47.1823 85.6157C50.0757 86.2372 50.7925 89.9144 51.2356 94.8217" stroke="#DCE7E5" stroke-width="1.8" stroke-linecap="round" stroke-linejoin="round"/>
<path d="M35.3616 84.2173L30.5523 85.6157C27.659 86.2372 26.9422 89.9144 26.499 94.8217" stroke="#DCE7E5" stroke-width="1.8" stroke-linecap="round" stroke-linejoin="round"/>
<path d="M44.7061 51.614V49.4775" stroke="#DCE7E5" stroke-width="1.8" stroke-linecap="round" stroke-linejoin="round"/>
</g>
<defs>
<clipPath id="clip0_457_67">
<rect width="77" height="69" fill="white" transform="translate(25 27)"/>
</clipPath>
</defs>
</svg>
