<svg id="Layer_1" data-name="Layer 1" xmlns="http://www.w3.org/2000/svg" viewBox="0 0 140.7 22.86"><defs><style>.cls-1{fill:#231f20;}</style></defs><path class="cls-1" d="M109.18,40.27c-.81,4-3.91,4.22-4.53,4.22a2.52,2.52,0,0,1-2.79-2.7,8.19,8.19,0,0,1,.15-1.44l1.92-9.56v0h-2.27l-2,9.81,0,.14a7.29,7.29,0,0,0-.16,1.4,4.12,4.12,0,0,0,4.3,4.41,5.8,5.8,0,0,0,4.51-1.84l-.29,1.61v0h2.24l3.08-15.53v0h-2.3l-1.89,9.52" transform="translate(-22.68 -23.65)"/><path class="cls-1" d="M124.64,30.56a5.33,5.33,0,0,0-4.29,2l.36-1.75v0h-2.23l-3.09,15.53v0h2.27l1.89-9.53A4.87,4.87,0,0,1,124,32.58a2.57,2.57,0,0,1,2.18,1.09l0,0L128,32l0,0a4.22,4.22,0,0,0-3.38-1.46" transform="translate(-22.68 -23.65)"/><polyline class="cls-1" points="64.47 9.08 64.46 9.12 72.2 9.12 61.9 20.76 61.89 20.77 61.51 22.67 72.48 22.67 72.87 20.66 64.67 20.66 75 9.01 75 9.01 75.39 7.11 64.85 7.11 64.47 9.08"/><polyline class="cls-1" points="105.65 22.64 105.64 22.67 107.91 22.67 111 7.11 108.77 7.11 105.65 22.64"/><path class="cls-1" d="M159.07,30.56a5.83,5.83,0,0,0-4.44,1.75l1.76-8.66h-2.27l-4.55,22.67h2.27l1.89-9.52c.81-4,3.94-4.22,4.56-4.22a2.51,2.51,0,0,1,2.76,2.7,9.27,9.27,0,0,1-.15,1.44L159,46.32h2.27l2-9.81a8.38,8.38,0,0,0,.15-1.54,4.13,4.13,0,0,0-4.31-4.41" transform="translate(-22.68 -23.65)"/><path class="cls-1" d="M144,30.56c-4.11,0-7,2.9-7.92,8a13.16,13.16,0,0,0-.22,2.4c0,3.45,2.09,5.6,5.47,5.6a7.24,7.24,0,0,0,5.18-2.18l0,0-1.31-1.6,0,0,0,0a4.76,4.76,0,0,1-3.72,1.78c-1.61,0-3.33-1-3.33-3.64a11.79,11.79,0,0,1,.25-2.33,8.92,8.92,0,0,1,2-4.44,4.62,4.62,0,0,1,3.41-1.5,3.26,3.26,0,0,1,3,1.71l0,0,1.67-1.4,0,0,0,0A5.06,5.06,0,0,0,144,30.56" transform="translate(-22.68 -23.65)"/><polyline class="cls-1" points="109.61 2.83 111.89 2.83 112.45 0 110.19 0 109.61 2.83"/><polyline class="cls-1" points="87.57 2.83 89.84 2.83 90.4 0 88.14 0 87.57 2.83"/><polyline class="cls-1" points="81.52 2.83 83.79 2.83 84.36 0 82.1 0 81.52 2.83"/><polyline class="cls-1" points="51.23 8.79 46.13 8.79 47.92 0 4.55 0 0 22.68 17.29 22.68 18.42 17.01 8.21 17.01 8.83 13.89 19.04 13.89 20.07 8.79 9.86 8.79 10.48 5.67 26.66 5.67 23.24 22.68 30.33 22.68 33.74 5.67 39.69 5.67 36.28 22.68 43.37 22.68 45.11 13.89 50.22 13.89 48.47 22.68 55.55 22.68 60.11 0 53.02 0 51.23 8.79"/></svg>