<svg width="464" height="268" viewBox="0 0 464 268" fill="none" xmlns="http://www.w3.org/2000/svg">
<g clip-path="url(#clip0_538_4589)">
<path d="M393.957 126.439C393.957 117.155 397.631 108.246 404.179 101.677C410.726 95.1071 419.595 91.4209 428.858 91.4209C438.122 91.4209 446.99 95.1071 453.538 101.677C460.086 108.246 463.76 117.145 463.76 126.439C463.76 135.734 460.086 144.632 453.538 151.202C446.99 157.772 438.122 161.458 428.858 161.458C419.595 161.458 410.726 157.772 404.179 151.202C397.631 144.632 393.957 135.734 393.957 126.439ZM426.676 96.1376C423.753 97.0294 420.849 99.7247 418.449 104.253C417.659 105.759 416.978 107.325 416.405 108.93H426.676V96.1376ZM411.803 108.93C412.534 106.602 413.462 104.352 414.598 102.192C415.348 100.765 416.227 99.3977 417.205 98.1095C411.803 100.359 407.151 104.114 403.803 108.93H411.813H411.803ZM409.265 124.25C409.393 120.415 409.867 116.729 410.627 113.31H401.265C399.636 116.748 398.668 120.454 398.401 124.25H409.265ZM415.101 113.31C414.242 116.897 413.748 120.563 413.63 124.25H426.676V113.31H415.101ZM431.041 113.31V124.25H444.087C443.968 120.563 443.475 116.897 442.615 113.31H431.041ZM413.63 128.629C413.748 132.316 414.242 135.982 415.101 139.569H426.676V128.629H413.63ZM431.041 128.629V139.569H442.615C443.435 136.22 443.949 132.534 444.087 128.629H431.041ZM416.405 143.949C417.007 145.633 417.689 147.209 418.449 148.626C420.859 153.154 423.762 155.85 426.676 156.741V143.949H416.405ZM417.195 154.769C416.217 153.481 415.348 152.114 414.588 150.687C413.462 148.527 412.524 146.277 411.793 143.949H403.784C407.131 148.765 411.783 152.52 417.185 154.769H417.195ZM410.618 139.569C409.828 135.972 409.373 132.306 409.255 128.629H398.391C398.658 132.524 399.665 136.21 401.255 139.569H410.618ZM440.512 154.769C445.914 152.52 450.565 148.765 453.913 143.949H445.904C445.173 146.277 444.245 148.527 443.109 150.687C442.359 152.114 441.48 153.481 440.502 154.769H440.512ZM431.041 143.949V156.741C433.964 155.85 436.868 153.154 439.267 148.626C440.018 147.209 440.709 145.643 441.312 143.949H431.041ZM447.089 139.569H456.451C458.041 136.21 459.039 132.524 459.315 128.629H448.452C448.333 132.316 447.879 135.972 447.089 139.569ZM459.315 124.25C459.049 120.454 458.081 116.748 456.451 113.31H447.089C447.85 116.729 448.324 120.415 448.452 124.25H459.315ZM443.119 102.192C444.196 104.223 445.134 106.483 445.914 108.93H453.923C450.575 104.114 445.924 100.359 440.522 98.1095C441.47 99.3481 442.349 100.725 443.129 102.192H443.119ZM441.312 108.93C440.749 107.325 440.067 105.759 439.267 104.253C436.858 99.7247 433.954 97.0294 431.041 96.1376V108.93H441.312Z" fill="#2E6C59"/>
<path d="M51.6696 152.183H76.0629C86.6301 152.183 95.3505 143.83 95.3505 133.326C95.3505 123.764 88.1214 115.975 78.8479 114.668C77.4357 99.5958 64.4292 87.9131 48.7661 87.9131C41.0826 87.9329 33.656 90.7173 27.8391 95.7511C23.3752 99.6058 20.1458 104.63 19.3163 109.673C9.55891 111.834 2.18164 120.365 2.18164 130.671C2.18164 142.641 12.1266 152.183 24.1949 152.183H51.6794H51.6696Z" stroke="#007A6C" stroke-width="2.87" stroke-miterlimit="10"/>
<path d="M45.1715 120.038C44.5099 120.038 43.9766 120.573 43.9766 121.237V128.421C43.9766 129.085 44.5099 129.62 45.1715 129.62H52.3315C52.9932 129.62 53.5265 129.085 53.5265 128.421V121.237C53.5265 120.573 52.9932 120.038 52.3315 120.038H45.1715Z" fill="#007A6C"/>
<path d="M42.7815 106.859C42.7815 106.195 42.2482 105.66 41.5865 105.66C40.9248 105.66 40.3915 106.195 40.3915 106.859V110.456C37.093 110.456 34.4166 113.141 34.4166 116.451H30.8317C30.17 116.451 29.6367 116.986 29.6367 117.65C29.6367 118.314 30.17 118.849 30.8317 118.849H34.4166V121.247H30.8317C30.17 121.247 29.6367 121.782 29.6367 122.446C29.6367 123.11 30.17 123.645 30.8317 123.645H34.4166V126.043H30.8317C30.17 126.043 29.6367 126.578 29.6367 127.242C29.6367 127.906 30.17 128.441 30.8317 128.441H34.4166V130.839H30.8317C30.17 130.839 29.6367 131.374 29.6367 132.038C29.6367 132.702 30.17 133.237 30.8317 133.237H34.4166C34.4166 136.547 37.093 139.232 40.3915 139.232V142.829C40.3915 143.493 40.9248 144.028 41.5865 144.028C42.2482 144.028 42.7815 143.493 42.7815 142.829V139.232H45.1714V142.829C45.1714 143.493 45.7047 144.028 46.3664 144.028C47.0281 144.028 47.5614 143.493 47.5614 142.829V139.232H49.9514V142.829C49.9514 143.493 50.4847 144.028 51.1463 144.028C51.808 144.028 52.3413 143.493 52.3413 142.829V139.232H54.7313V142.829C54.7313 143.493 55.2646 144.028 55.9263 144.028C56.5879 144.028 57.1212 143.493 57.1212 142.829V139.232C60.4198 139.232 63.0961 136.547 63.0961 133.237H66.6811C67.3428 133.237 67.876 132.702 67.876 132.038C67.876 131.374 67.3428 130.839 66.6811 130.839H63.0961V128.441H66.6811C67.3428 128.441 67.876 127.906 67.876 127.242C67.876 126.578 67.3428 126.043 66.6811 126.043H63.0961V123.645H66.6811C67.3428 123.645 67.876 123.11 67.876 122.446C67.876 121.782 67.3428 121.247 66.6811 121.247H63.0961V118.849H66.6811C67.3428 118.849 67.876 118.314 67.876 117.65C67.876 116.986 67.3428 116.451 66.6811 116.451H63.0961C63.0961 113.141 60.4198 110.456 57.1212 110.456V106.859C57.1212 106.195 56.5879 105.66 55.9263 105.66C55.2646 105.66 54.7313 106.195 54.7313 106.859V110.456H52.3413V106.859C52.3413 106.195 51.808 105.66 51.1463 105.66C50.4847 105.66 49.9514 106.195 49.9514 106.859V110.456H47.5614V106.859C47.5614 106.195 47.0281 105.66 46.3664 105.66C45.7047 105.66 45.1714 106.195 45.1714 106.859V110.456H42.7815V106.859ZM45.1714 117.65H52.3314C54.3066 117.65 55.9164 119.255 55.9164 121.247V128.431C55.9164 130.413 54.3165 132.028 52.3314 132.028H45.1714C43.1963 132.028 41.5865 130.423 41.5865 128.431V121.247C41.5865 119.265 43.1864 117.65 45.1714 117.65Z" fill="#007A6C"/>
<path d="M102.491 51.5074L102.323 47.7519C102.323 45.4629 103.232 43.2631 104.842 41.6479C106.451 40.0327 108.644 39.1211 110.925 39.1211H126.727C129.008 39.1211 131.2 40.0327 132.81 41.6479L136.375 45.2251C137.985 46.8402 140.177 47.7519 142.459 47.7519H159.593C160.788 47.7519 161.973 47.9996 163.07 48.4851C164.166 48.9707 165.144 49.6742 165.953 50.566C166.763 51.4479 167.376 52.4983 167.751 53.6378C168.126 54.7774 168.274 55.9764 168.166 57.1754L165.42 87.398C165.223 89.5383 164.235 91.5399 162.655 92.9867C161.075 94.4433 159.001 95.2459 156.858 95.2459H112.337C110.194 95.2459 108.12 94.4433 106.54 92.9867C104.96 91.53 103.973 89.5383 103.775 87.398L101.03 57.1754C100.842 55.1737 101.365 53.1721 102.501 51.5173L102.491 51.5074ZM109.582 52.0722C108.98 52.0722 108.397 52.201 107.844 52.4389C107.301 52.6767 106.807 53.0334 106.402 53.4793C105.997 53.9252 105.691 54.4405 105.503 55.0152C105.316 55.58 105.237 56.1845 105.296 56.779L108.041 87.0016C108.14 88.0718 108.634 89.0726 109.424 89.796C110.214 90.5193 111.251 90.9256 112.328 90.9256H156.848C157.924 90.9256 158.951 90.5193 159.751 89.796C160.541 89.0726 161.035 88.0718 161.134 87.0016L163.88 56.779C163.929 56.1845 163.86 55.58 163.672 55.0152C163.484 54.4504 163.178 53.9252 162.773 53.4793C162.369 53.0334 161.885 52.6866 161.332 52.4389C160.788 52.201 160.196 52.0722 159.593 52.0722H109.602H109.582ZM129.768 44.6999C129.363 44.2936 128.889 43.9765 128.366 43.7585C127.843 43.5405 127.28 43.4315 126.717 43.4315H110.915C109.789 43.4315 108.703 43.8774 107.903 44.6702C107.103 45.4629 106.639 46.543 106.619 47.6726L106.649 48.2771C107.567 47.9401 108.555 47.7618 109.592 47.7618H132.81L129.768 44.7098V44.6999Z" fill="#212E47"/>
<path d="M131.803 93.3831C131.803 97.0296 131.309 119.949 132.198 121.198C133.185 121.693 134.163 121.852 135.249 121.951C138.726 122.248 142.36 122.02 145.836 122.02L165.756 121.99L165.825 148.586L128.504 148.557C123.685 148.586 114.086 147.932 109.898 149.151C108.753 150.33 109.345 166.413 109.345 169.068L87.8157 168.999V179.711C83.9543 179.641 75.8857 178.531 72.9427 181.484C71.9255 182.505 71.4712 183.625 71.3033 185.032C70.9478 188.153 71.1354 191.512 71.1354 194.663L71.165 210.706V258.24C71.165 260.905 71.4613 262.907 73.4266 264.81C74.5031 265.86 75.8462 266.524 77.3868 266.653C80.0731 266.881 82.8877 266.752 85.5739 266.752H147.594L301.48 266.722L377.257 266.692H401.503C405.364 266.692 409.463 266.99 413.265 266.623C414.638 266.494 415.951 265.8 416.939 264.819C418.015 263.739 418.41 261.758 418.548 260.281C418.815 257.516 418.617 254.564 418.617 251.769V236.192C418.617 223.4 418.973 210.518 418.716 197.735C418.716 197.279 418.618 196.744 418.39 196.358C418.321 195.961 418.262 195.734 417.995 195.436C416 192.969 401.908 178.7 399.745 177.253C399.646 177.154 399.419 177.055 399.29 176.986L379.993 177.055C380.26 176.56 380.388 176.133 380.418 175.579C380.714 171.407 380.388 167.096 380.388 162.885C380.388 159.694 380.981 152.401 380.319 149.666C380.25 149.369 380.151 149.072 380.023 148.814C379.075 148.388 378.028 148.289 376.971 148.22C371.105 147.823 365.011 148.15 359.145 148.15L324.649 148.22V122.02C330.485 122.189 336.342 122.02 342.178 122.02C346.405 122.02 350.79 122.288 355.017 121.99C355.935 121.921 356.884 121.862 357.703 121.396C358.059 120.643 358.158 119.88 358.227 119.057C358.424 116.194 358.355 94.6613 358.098 93.8092C358.069 93.611 357.97 93.4524 357.871 93.284L380.309 93.2543C384.111 93.2543 388.338 93.5813 392.101 93.0858C393.414 92.9174 394.915 92.63 395.903 91.6688C396.92 90.6779 397.572 89.2708 397.799 87.8836C398.352 84.1677 397.928 75.2297 397.928 71.0184V32.9478C397.928 30.1237 398.026 27.8149 395.893 25.6845C395.202 24.9909 394.52 24.436 393.533 24.2378C389.049 23.3162 383.706 23.881 379.114 23.881H351.955C352.38 22.0776 350.681 19.2436 349.724 17.7374C346.514 12.5154 341.536 8.70039 335.502 7.31313C329.863 6.03486 324.007 7.11495 319.158 10.2066C314.012 13.4567 310.408 18.659 309.065 24.6044C307.82 30.0643 308.768 35.98 311.721 40.7462C311 43.6694 308.314 52.5479 308.936 55.045C309.292 55.6395 309.628 56.0359 310.309 56.1944C310.734 56.2935 311.257 56.3233 311.721 56.3629C312.373 57.4132 312.017 60.5742 312.017 61.8228C311.948 66.0341 311.297 85.7234 312.442 88.7159C313.232 90.8166 315.395 92.6597 317.558 93.1255C320.995 93.8488 327.483 93.3236 331.256 93.3236C338.623 93.2939 346.03 93.4921 353.407 93.2543C353.931 94.8298 354 116.065 353.437 117.254C353.368 117.422 353.338 117.452 353.269 117.581H323.385C322.239 114.816 320.471 112.815 317.647 111.665C316.6 111.239 315.553 111.041 314.407 110.942C307.297 110.417 299.011 110.843 291.772 110.843L247.311 110.873L247.281 74.8433L272.998 74.7739C276.859 74.7739 281.323 75.2297 285.116 74.6054C287.18 74.2784 288.977 73.6542 290.488 72.1381C291.861 70.7905 292.947 68.9177 293.303 67.0052C293.925 63.5569 293.471 53.6577 293.471 49.6842L293.441 10.6029C293.411 7.21404 292.918 4.29087 290.389 1.79379C288.72 0.148888 287.111 -0.544745 284.79 -0.871744C281.58 -1.3672 278.045 -1.09965 274.766 -1.09965L257.602 -1.06992C240.299 -1.0402 222.908 -1.42665 205.605 -1.00056H205.477C202.524 -0.445655 200.173 0.802885 198.396 3.40896C197.319 5.02414 196.954 6.50058 196.756 8.40312C196.332 12.5451 196.588 16.8853 196.588 21.057V44.264L196.559 58.9591C196.559 61.684 196.263 64.8153 196.786 67.5106C197.24 69.9383 198.949 72.0786 200.983 73.3965C202.198 74.1893 203.403 74.6153 204.845 74.7739C208.904 75.2693 213.368 74.9027 217.456 74.9027H242.877L242.807 110.863L195.463 110.833H182.752C179.967 110.833 177.015 110.605 174.269 111.1C172.235 111.457 170.171 112.676 168.729 114.123C167.741 115.114 167.02 116.293 166.398 117.541C156.305 117.541 146.182 117.809 136.128 117.472L136.099 93.4128L131.773 93.3831H131.803Z" fill="#212E47"/>
<path d="M131.447 183.942C133.936 183.972 140.257 182.891 142.093 184.635C142.814 185.329 142.646 186.31 142.646 187.232L131.477 187.261L131.447 183.942Z" fill="#FDFDFD"/>
<path d="M75.2917 187.499C75.2621 186.508 75.1238 185.527 75.9139 184.774C77.7804 182.931 85.1577 183.952 87.8044 183.922V187.469L75.2917 187.499Z" fill="#FDFDFD"/>
<path d="M400.001 184.239H400.268C401.216 184.308 408.88 192.255 409.966 193.514C410.46 194.069 410.815 194.336 410.786 195.089C407.902 195.515 402.925 195.089 399.873 195.059C399.903 195.03 399.903 194.99 399.942 194.931C400.693 193.553 400.495 185.993 400.011 184.249L400.001 184.239Z" fill="#2E6C59"/>
<path d="M337.853 251.997C338.929 252.889 340.766 252.691 342.149 252.592C342.376 252.562 342.317 252.592 342.544 252.463C342.643 252.661 342.741 252.859 342.811 253.057C343.265 254.435 343.206 261.044 342.544 262.293H330.387C332.125 261.47 333.468 260.152 334.683 258.676C336.026 257.1 338.06 254.177 337.863 252.007L337.853 251.997Z" fill="#CCD2D2"/>
<path d="M312.688 30.2323C312.618 25.6939 313.962 21.2943 316.816 17.737C319.798 14.0508 324.223 11.4943 328.933 11.0682C333.615 10.6421 338.464 12.1185 342.068 15.1408C343.481 16.32 346.196 18.9855 346.394 20.8583C346.325 20.8286 346.266 20.8286 346.226 20.8286C345.377 20.4719 344.261 18.827 343.471 18.163C338.691 14.0508 332.262 12.0492 326.109 14.0211C321.912 15.339 317.882 19.0549 315.917 22.959C314.702 25.357 314.208 27.9928 313.883 30.6187L313.527 30.8863L312.678 30.2323H312.688Z" fill="white"/>
<path d="M201.032 11.0985C201.002 8.82934 201.062 6.62953 202.77 4.91526C203.323 4.36036 204.242 3.66672 205.032 3.53791C207.688 3.08209 210.631 3.27036 213.318 3.31L226.225 3.33973L271.467 3.31C274.479 3.31 282.508 2.85418 285.125 3.47845C286.014 3.67663 286.922 4.27118 287.545 4.92517C288.858 6.34217 289.085 8.04652 289.085 9.8896C287.643 8.21497 286.567 6.9268 284.207 6.76825C280.177 6.50071 276.019 6.69889 271.951 6.66916L244.989 6.73853H218.651C214.651 6.76825 210.394 6.47098 206.434 6.83762C205.318 6.93671 204.37 7.39252 203.521 8.11588C202.602 9.0077 201.812 10.0878 201.032 11.1084V11.0985Z" fill="#CCD2D2"/>
<path d="M170.299 120.207C170.724 118.532 171.415 117.115 172.956 116.233C174.032 115.609 175.375 115.312 176.629 115.282C187.374 114.925 198.218 115.312 208.963 115.282L273.077 115.212H299.91C303.514 115.212 311.968 114.687 315.148 115.609C316.857 116.104 318.259 117.125 319.079 118.7C319.434 119.394 319.671 120.078 319.829 120.841C319.76 120.94 319.602 121.039 319.503 121.108C319.049 120.514 318.585 119.86 318.032 119.364C316.985 118.413 315.612 117.987 314.23 117.888C311.613 117.719 308.926 117.858 306.329 117.819L290.468 117.789H198.337C191.72 117.789 183.365 117.392 176.876 117.888C172.916 118.215 172.916 119.136 170.585 121.901C170.259 121.574 170.319 120.752 170.289 120.226L170.299 120.207Z" fill="#FDFDFD"/>
<path d="M92.0629 173.488L127.181 173.418L127.112 187.618H92.0234L92.0531 173.478L92.0629 173.488Z" fill="#007A6C"/>
<path d="M101.079 177.897C101.8 178.066 102.521 178.353 102.976 178.947C103.371 179.443 103.529 180.028 103.43 180.662C103.262 181.613 102.679 182.079 101.919 182.564C101.03 182.435 100.21 182.208 99.6869 181.445C99.361 180.989 99.2326 180.454 99.3313 179.928C99.4992 178.908 100.22 178.412 101.069 177.887L101.079 177.897Z" fill="white"/>
<path d="M118.272 178.194C118.47 178.194 118.628 178.194 118.825 178.224C119.675 178.293 120.366 178.551 120.889 179.274C121.215 179.7 121.344 180.225 121.284 180.751C121.156 181.741 120.494 182.197 119.744 182.722C118.894 182.594 118.035 182.395 117.413 181.732C117.058 181.335 116.86 180.84 116.89 180.285C116.988 179.294 117.581 178.769 118.262 178.184L118.272 178.194Z" fill="white"/>
<path d="M109.137 178.165C110.184 178.095 111.033 178.095 111.853 178.858C112.248 179.215 112.475 179.71 112.475 180.236C112.505 181.286 111.883 181.851 111.201 182.535C110.352 182.564 109.493 182.465 108.782 181.91C108.357 181.583 108.09 181.088 108.061 180.533C107.992 179.542 108.515 178.858 109.137 178.165Z" fill="white"/>
<path d="M232.685 224.479L257.187 224.509C258.106 231.218 259.745 237.886 260.92 244.565H228.518C229.989 237.896 231.332 231.188 232.675 224.479H232.685Z" fill="#CCD2D2"/>
<path d="M75.4521 253.473L142.588 253.443C142.559 255.782 143.28 259.587 141.67 261.499C141.018 262.252 140.425 262.322 139.507 262.352C130.036 262.748 119.686 262.352 110.156 262.352C100.004 262.352 89.6832 262.778 79.5506 262.322C78.6322 262.292 77.131 262.391 76.4693 261.727C74.8003 260.112 75.4225 255.584 75.4521 253.473Z" fill="#CCD2D2"/>
<path d="M155.623 248.935L333.784 249.004C334.139 249.896 333.912 250.907 333.517 251.769C333.349 252.165 333.191 252.393 332.865 252.621C326.219 252.819 319.533 252.621 312.876 252.621L276.217 252.651L156.759 252.681C156.265 251.462 155.91 250.253 155.613 248.935H155.623Z" fill="#ABE7DF"/>
<path d="M347.226 181.672C347.453 182.128 347.552 182.495 347.552 183.02C347.819 189.362 347.819 251.105 347.424 252.116C347.355 252.245 347.325 252.314 347.256 252.443L386.374 252.344C395.48 252.344 404.625 252.611 413.701 252.413C414.422 253.493 414.224 255.138 414.254 256.426C414.323 258.101 414.52 260.796 413.236 262.084C413.039 262.282 412.644 262.282 412.417 262.312C410.125 262.54 407.696 262.382 405.405 262.382H391.579L347.088 262.352C347.483 261.698 347.384 260.875 347.414 260.112C347.611 243.574 347.345 226.977 347.345 210.438V191.898C347.315 188.549 347.473 185.032 347.216 181.672H347.226Z" fill="#CCD2D2"/>
<path d="M289.106 42.9854C289.303 47.3552 289.234 51.7251 289.234 56.1049C289.234 59.0677 289.461 62.2485 289.037 65.2113C288.869 66.4301 288.484 67.8372 287.694 68.7984C286.617 70.0767 284.316 70.374 282.746 70.4433C277.571 70.7109 272.297 70.473 267.083 70.473H216.795C213.121 70.473 209.289 70.7406 205.625 70.4037C204.45 70.3046 203.433 70.047 202.544 69.2245C200.677 67.4805 200.974 64.3889 201.003 62.09C209.911 61.8918 218.859 62.0603 227.737 62.0206L288.968 62.09C288.997 55.7482 288.701 49.2677 289.096 42.9953L289.106 42.9854Z" fill="#2E6C59"/>
<path d="M170.299 120.207C170.329 120.702 170.269 121.554 170.595 121.921C172.926 119.156 172.926 118.235 176.886 117.908C183.345 117.383 191.7 117.809 198.346 117.809H241.464L290.547 117.838L306.408 117.868C309.025 117.868 311.711 117.739 314.309 117.937C315.682 118.037 317.064 118.463 318.111 119.414C318.664 119.909 319.128 120.563 319.582 121.158C319.681 121.089 319.849 120.989 319.908 120.89C320.106 121.485 320.136 122.307 320.264 122.961L216.696 122.932L187.868 122.902C183.385 122.902 178.2 122.446 173.775 122.971C172.363 123.14 171.356 124.022 170.269 124.874C170.171 123.259 170.042 121.752 170.299 120.207Z" fill="#CCD2D2"/>
<path d="M312.688 30.2326L313.507 30.8569L313.863 30.5894C314.189 27.9238 314.682 25.3277 315.897 22.9297C317.862 19.0156 321.892 15.2997 326.089 13.9917C332.252 12.0495 338.671 14.0214 343.451 18.1337C344.201 18.7877 345.347 20.4326 346.206 20.7992C346.275 20.8289 346.335 20.8289 346.374 20.8289C347.717 21.909 348.438 25.0007 348.636 26.6852C349.189 31.4812 347.648 36.3465 344.675 40.1318C341.723 43.8477 337.436 46.5132 332.716 47.0384C329.21 47.4347 325.635 46.8105 322.425 45.2647C319.67 46.7114 316.855 48.0887 314.139 49.6345C314.732 46.4835 315.413 43.3225 316.105 40.1714C314.268 37.0501 313.122 33.9287 312.697 30.2425L312.688 30.2326Z" fill="#2E6C59"/>
<path d="M337.684 34.2061C338.01 34.5628 338.306 34.9591 338.602 35.3555C338.474 36.3464 338.108 36.931 337.328 37.5949C335.333 39.2696 332.252 39.9632 329.694 39.6659C327.828 39.438 325.596 38.7444 324.42 37.1986C323.769 36.3761 323.146 35.3258 323.275 34.2358C324.45 35.415 325.467 36.3365 327.047 36.931C329.378 37.8526 332.351 37.9517 334.681 36.931C335.758 36.4356 337.269 35.3159 337.694 34.2061H337.684Z" fill="#2E6C59"/>
<path d="M323.275 34.2457C322.258 32.4423 321.566 30.9262 321.537 28.7858C321.468 26.4176 322.426 24.0196 324.055 22.3053C325.764 20.5316 328.114 19.5803 330.543 19.511C333.003 19.4812 335.491 20.4028 337.229 22.1765C338.898 23.8907 339.817 26.3482 339.787 28.7165C339.758 30.6884 339.135 32.7891 337.694 34.2061C337.269 35.3258 335.758 36.4455 334.681 36.9311C332.351 37.9517 329.378 37.8823 327.047 36.9311C325.477 36.3068 324.46 35.3852 323.275 34.2358V34.2457Z" fill="#212E47"/>
<path d="M329.268 23.6526C330.611 23.5238 331.787 23.5832 333.001 24.2769C334.246 24.9705 335.164 26.1497 335.49 27.5667C335.786 28.7855 335.589 30.1331 334.897 31.1835C334.048 32.5014 332.833 33.1554 331.362 33.4527C330.671 33.7499 329.693 33.5815 328.972 33.3833C327.826 33.0563 326.908 32.3032 326.355 31.2429C325.703 29.9944 325.535 28.5179 325.93 27.1307C326.483 25.2876 327.698 24.5345 329.268 23.6427V23.6526Z" fill="#FDFDFD"/>
<path d="M156.77 252.72L276.228 252.69L312.887 252.661C319.534 252.661 326.219 252.859 332.876 252.661C332.905 252.889 332.975 253.057 332.876 253.285C331.799 256.604 327.731 259.528 324.748 261.014C322.98 261.906 320.492 262.094 318.526 262.163C312.561 262.431 306.497 262.134 300.503 262.134H263.646L199.532 262.163L181.548 262.134C177.914 262.134 174.141 262.362 170.536 262.064C169.065 261.936 167.623 261.668 166.211 261.173C161.786 259.656 158.843 256.902 156.779 252.72H156.77Z" fill="#2E6C59"/>
<path d="M170.367 203.968L320.164 204.136C320.164 208.774 321.241 214.392 318.199 218.237C316.303 219.981 314.663 220.209 312.135 220.209L223.055 220.139H191.995C186.751 220.139 181.319 220.437 176.105 220.07C174.495 219.941 173.251 219.773 172.076 218.594C169.261 215.7 170.337 207.713 170.367 203.968Z" fill="#CCD2D2"/>
<path d="M244.121 208.506C244.615 208.476 245.138 208.437 245.632 208.575C246.521 208.803 247.429 209.368 247.893 210.191C248.387 211.043 248.417 212.063 248.16 212.985C247.765 214.233 246.847 214.788 245.8 215.383C245.405 215.383 244.95 215.383 244.555 215.314C243.607 215.115 242.689 214.62 242.136 213.797C241.642 213.074 241.484 212.153 241.711 211.271C242.037 209.854 242.956 209.229 244.131 208.506H244.121Z" fill="#212E47"/>
<path d="M324.58 152.649L375.53 152.619C376.122 154.066 376.221 175.202 375.698 176.52C375.629 176.718 375.53 176.876 375.402 177.075L356.657 177.104C353.576 177.104 350.109 176.777 347.058 177.303C345.942 177.501 345.023 177.857 344.243 178.68C343.552 179.433 343.127 180.255 342.969 181.246C342.347 185.032 342.9 189.6 342.9 193.444L342.93 231.842C342.93 238.223 343.256 244.793 342.9 251.135C342.87 251.63 342.772 252.027 342.545 252.453C342.317 252.552 342.377 252.552 342.15 252.582C340.806 252.681 338.94 252.909 337.854 251.987C338.673 250.61 339.068 248.341 338.703 246.765C338.476 245.873 338.051 245.318 337.291 244.862C334.506 244.436 331.523 244.635 328.708 244.635H315.05L265.414 244.605C264.298 237.995 263.182 231.059 261.385 224.618H298.567C303.249 224.618 311.87 225.114 316.028 224.351C317.993 223.994 319.86 222.835 321.272 221.428C322.98 219.713 323.958 217.781 324.383 215.413C325.173 210.874 324.58 201.669 324.58 196.546V152.659V152.649Z" fill="#FDFDFD"/>
<path d="M113.691 152.916H165.747L165.717 208.476C165.688 213.014 165.263 217.909 168.73 221.397C170.171 222.844 172.068 223.924 174.072 224.321C178.201 225.113 186.822 224.588 191.375 224.588H228.33L224.37 244.604L202.219 244.634L155.921 244.565C154.508 244.565 152.869 244.436 151.862 245.556C151.141 246.348 150.973 247.359 151.042 248.419C151.437 254.137 155.071 258.873 159.229 262.421H146.973L146.845 210.943L146.874 193.622C146.874 190.66 147.101 187.479 146.746 184.516C146.618 183.367 145.857 182.049 145.037 181.226C142.282 178.531 135.27 179.552 131.606 179.581V168.998L113.82 168.969L113.691 152.926V152.916Z" fill="#FDFDFD"/>
<path d="M352.627 28.5577C354 28.0325 390.629 27.9632 392.269 28.4884C392.693 28.8451 392.92 29.0135 392.989 29.6081V29.8063L393.345 30.2323C393.938 32.997 393.513 43.0249 393.513 46.6021L393.582 71.5828C393.582 75.8932 393.71 80.2631 393.552 84.5636C393.523 85.5545 393.483 87.2292 392.93 88.0813C392.634 88.5372 392.14 88.6065 391.656 88.7056C388.94 89.3002 385.691 88.9732 382.906 88.9732L367.381 88.9434C351.758 88.9137 336.055 89.3002 320.461 88.9434C319.444 88.9137 318.229 88.9137 317.321 88.3192C316.6 87.4967 316.501 86.1491 316.402 85.0987C316.106 81.4522 316.373 77.5678 316.402 73.8916V53.479C318.535 52.2007 320.827 51.1107 323.049 49.991C327.147 51.6359 332.026 51.8935 336.282 50.7441C342.02 49.1983 346.928 45.4229 349.881 40.2603C351.491 37.3371 353.555 31.8773 352.637 28.5577H352.627Z" fill="white"/>
<path d="M352.625 28.5577C353.998 28.0325 390.627 27.9632 392.267 28.4884C392.691 28.8451 392.919 29.0135 392.988 29.6081V29.8063L392.919 30.0342C392.849 30.0639 392.79 30.1035 392.721 30.1333C392.454 30.2621 358.551 30.3314 355.203 30.3612C354.65 30.3612 354.057 30.2918 353.563 30.0936C352.912 29.7964 352.813 29.1424 352.615 28.5478L352.625 28.5577Z" fill="#FDFDFD"/>
<path d="M142.617 187.232L142.587 253.434L75.4511 253.464C75.1844 231.476 75.7177 209.478 75.2832 187.519L87.7959 187.45V192.048L131.408 192.077L131.437 187.311L142.607 187.212L142.617 187.232Z" fill="white"/>
<path d="M347.225 181.672C350.563 180.949 358.394 181.444 362.127 181.444L395.577 181.474C395.606 181.543 395.606 181.573 395.646 181.643C396.89 184.764 394.698 198.111 396.821 199.231C398.135 199.925 411.467 199.499 413.788 199.459C414.084 199.984 414.143 200.41 414.183 201.005C414.578 211.162 414.183 221.447 414.183 231.614C414.183 234.676 414.608 249.955 414.084 251.729C414.015 251.997 413.857 252.225 413.729 252.423C404.623 252.621 395.478 252.353 386.402 252.353L347.284 252.453C347.353 252.324 347.412 252.254 347.452 252.126C347.847 251.135 347.847 189.372 347.58 183.03C347.551 182.505 347.452 182.108 347.225 181.682V181.672Z" fill="#FDFDFD"/>
<path d="M201.032 11.0978C201.782 10.0771 202.602 8.99705 203.521 8.13497C204.34 7.38188 205.318 6.95579 206.434 6.8567C210.394 6.49998 214.66 6.75761 218.65 6.75761H244.989L271.95 6.68825C275.98 6.68825 280.177 6.49007 284.206 6.78734C286.567 6.95579 287.643 8.23406 289.085 9.90869C289.055 20.9176 289.282 31.9662 289.085 43.0148C288.69 49.2971 288.986 55.7677 288.986 62.0501L227.756 61.9807C218.848 62.0104 209.9 61.8519 201.022 62.0501C200.795 45.0858 200.992 28.0918 201.022 11.0978H201.032Z" fill="#06192D" stroke="#06192D" stroke-width="0.57" stroke-miterlimit="10"/>
<path d="M173.873 127.44C178.593 126.915 183.798 127.341 188.588 127.341L218.729 127.371L320.134 127.4V199.687L316.529 199.657L170.307 199.528L170.337 151.142C170.337 147.228 169.745 133.782 170.505 130.7C170.9 129.055 172.539 128.203 173.882 127.45L173.873 127.44Z" fill="#06192D" stroke="#06192D" stroke-width="0.57" stroke-miterlimit="10"/>
<path d="M247.557 204.384C268.556 204.384 285.579 187.304 285.579 166.234C285.579 145.165 268.556 128.084 247.557 128.084C226.558 128.084 209.535 145.165 209.535 166.234C209.535 187.304 226.558 204.384 247.557 204.384Z" fill="#06192D" stroke="#06192D" stroke-width="0.69" stroke-miterlimit="10"/>
<path d="M258.765 148.643C258.765 149.872 257.775 150.877 256.539 150.877C255.303 150.877 254.312 149.883 254.312 148.643C254.312 147.403 255.303 146.409 256.539 146.409C257.775 146.409 258.765 147.403 258.765 148.643Z" fill="#F24BA0"/>
<path d="M267.66 157.568C267.66 158.797 266.669 159.802 265.433 159.802C264.198 159.802 263.207 158.808 263.207 157.568C263.207 156.328 264.198 155.334 265.433 155.334C266.669 155.334 267.66 156.328 267.66 157.568Z" fill="#F24BA0"/>
<path d="M254.324 162.025C254.324 163.255 253.333 164.259 252.097 164.259C250.862 164.259 249.871 163.265 249.871 162.025C249.871 160.786 250.862 159.792 252.097 159.792C253.333 159.792 254.324 160.786 254.324 162.025Z" fill="#00A877"/>
<path d="M245.439 144.175C245.439 145.404 244.448 146.409 243.213 146.409C241.977 146.409 240.986 145.415 240.986 144.175C240.986 142.935 241.977 141.941 243.213 141.941C244.448 141.941 245.439 142.935 245.439 144.175Z" fill="#00A877"/>
<path d="M227.66 148.643C227.66 149.872 226.669 150.877 225.433 150.877C224.198 150.877 223.207 149.883 223.207 148.643C223.207 147.403 224.198 146.409 225.433 146.409C226.669 146.409 227.66 147.403 227.66 148.643Z" fill="#00A877"/>
<path d="M245.439 148.643C245.439 149.872 244.448 150.877 243.213 150.877C241.977 150.877 240.986 149.883 240.986 148.643C240.986 147.403 241.977 146.409 243.213 146.409C244.448 146.409 245.439 147.403 245.439 148.643Z" fill="#00A877"/>
<path d="M227.66 153.1C227.66 154.329 226.669 155.334 225.433 155.334C224.198 155.334 223.207 154.34 223.207 153.1C223.207 151.86 224.198 150.866 225.433 150.866C226.669 150.866 227.66 151.86 227.66 153.1Z" fill="#00A877"/>
<path d="M245.439 153.1C245.439 154.329 244.448 155.334 243.213 155.334C241.977 155.334 240.986 154.34 240.986 153.1C240.986 151.86 241.977 150.866 243.213 150.866C244.448 150.866 245.439 151.86 245.439 153.1Z" fill="#00A877"/>
<path d="M227.66 157.568C227.66 158.797 226.669 159.802 225.433 159.802C224.198 159.802 223.207 158.808 223.207 157.568C223.207 156.328 224.198 155.334 225.433 155.334C226.669 155.334 227.66 156.328 227.66 157.568Z" fill="#00A877"/>
<path d="M232.103 157.568C232.103 158.797 231.112 159.802 229.877 159.802C228.641 159.802 227.65 158.808 227.65 157.568C227.65 156.328 228.641 155.334 229.877 155.334C231.112 155.334 232.103 156.328 232.103 157.568Z" fill="#00A877"/>
<path d="M236.545 157.568C236.545 158.797 235.554 159.802 234.318 159.802C233.082 159.802 232.092 158.808 232.092 157.568C232.092 156.328 233.082 155.334 234.318 155.334C235.554 155.334 236.545 156.328 236.545 157.568Z" fill="#00A877"/>
<path d="M245.439 157.568C245.439 158.797 244.448 159.802 243.213 159.802C241.977 159.802 240.986 158.808 240.986 157.568C240.986 156.328 241.977 155.334 243.213 155.334C244.448 155.334 245.439 156.328 245.439 157.568Z" fill="#00A877"/>
<path d="M249.882 157.568C249.882 158.797 248.892 159.802 247.656 159.802C246.42 159.802 245.43 158.808 245.43 157.568C245.43 156.328 246.42 155.334 247.656 155.334C248.892 155.334 249.882 156.328 249.882 157.568Z" fill="#00A877"/>
<path d="M254.324 157.568C254.324 158.797 253.333 159.802 252.097 159.802C250.862 159.802 249.871 158.808 249.871 157.568C249.871 156.328 250.862 155.334 252.097 155.334C253.333 155.334 254.324 156.328 254.324 157.568Z" fill="#00A877"/>
<path d="M258.765 157.568C258.765 158.797 257.775 159.802 256.539 159.802C255.303 159.802 254.312 158.808 254.312 157.568C254.312 156.328 255.303 155.334 256.539 155.334C257.775 155.334 258.765 156.328 258.765 157.568Z" fill="#00A877"/>
<path d="M236.545 162.025C236.545 163.255 235.554 164.259 234.318 164.259C233.082 164.259 232.092 163.265 232.092 162.025C232.092 160.786 233.082 159.792 234.318 159.792C235.554 159.792 236.545 160.786 236.545 162.025Z" fill="#00A877"/>
<path d="M249.882 162.025C249.882 163.255 248.892 164.259 247.656 164.259C246.42 164.259 245.43 163.265 245.43 162.025C245.43 160.786 246.42 159.792 247.656 159.792C248.892 159.792 249.882 160.786 249.882 162.025Z" fill="#00A877"/>
<path d="M258.765 162.025C258.765 163.255 257.775 164.259 256.539 164.259C255.303 164.259 254.312 163.265 254.312 162.025C254.312 160.786 255.303 159.792 256.539 159.792C257.775 159.792 258.765 160.786 258.765 162.025Z" fill="#00A877"/>
<path d="M236.545 166.482C236.545 167.711 235.554 168.716 234.318 168.716C233.082 168.716 232.092 167.722 232.092 166.482C232.092 165.242 233.082 164.248 234.318 164.248C235.554 164.248 236.545 165.242 236.545 166.482Z" fill="#00A877"/>
<path d="M245.439 166.482C245.439 167.711 244.448 168.716 243.213 168.716C241.977 168.716 240.986 167.722 240.986 166.482C240.986 165.242 241.977 164.248 243.213 164.248C244.448 164.248 245.439 165.242 245.439 166.482Z" fill="#00A877"/>
<path d="M249.882 166.482C249.882 167.711 248.892 168.716 247.656 168.716C246.42 168.716 245.43 167.722 245.43 166.482C245.43 165.242 246.42 164.248 247.656 164.248C248.892 164.248 249.882 165.242 249.882 166.482Z" fill="#00A877"/>
<path d="M254.324 166.482C254.324 167.711 253.333 168.716 252.097 168.716C250.862 168.716 249.871 167.722 249.871 166.482C249.871 165.242 250.862 164.248 252.097 164.248C253.333 164.248 254.324 165.242 254.324 166.482Z" fill="#00A877"/>
<path d="M258.765 166.482C258.765 167.711 257.775 168.716 256.539 168.716C255.303 168.716 254.312 167.722 254.312 166.482C254.312 165.242 255.303 164.248 256.539 164.248C257.775 164.248 258.765 165.242 258.765 166.482Z" fill="#00A877"/>
<path d="M236.545 170.95C236.545 172.179 235.554 173.184 234.318 173.184C233.082 173.184 232.092 172.19 232.092 170.95C232.092 169.71 233.082 168.716 234.318 168.716C235.554 168.716 236.545 169.71 236.545 170.95Z" fill="#00A877"/>
<path d="M245.439 170.95C245.439 172.179 244.448 173.184 243.213 173.184C241.977 173.184 240.986 172.19 240.986 170.95C240.986 169.71 241.977 168.716 243.213 168.716C244.448 168.716 245.439 169.71 245.439 170.95Z" fill="#00A877"/>
<path d="M249.882 170.95C249.882 172.179 248.892 173.184 247.656 173.184C246.42 173.184 245.43 172.19 245.43 170.95C245.43 169.71 246.42 168.716 247.656 168.716C248.892 168.716 249.882 169.71 249.882 170.95Z" fill="#00A877"/>
<path d="M258.765 170.95C258.765 172.179 257.775 173.184 256.539 173.184C255.303 173.184 254.312 172.19 254.312 170.95C254.312 169.71 255.303 168.716 256.539 168.716C257.775 168.716 258.765 169.71 258.765 170.95Z" fill="#00A877"/>
<path d="M258.765 175.407C258.765 176.636 257.775 177.641 256.539 177.641C255.303 177.641 254.312 176.647 254.312 175.407C254.312 174.167 255.303 173.173 256.539 173.173C257.775 173.173 258.765 174.167 258.765 175.407Z" fill="#00A877"/>
<path d="M263.209 175.407C263.209 176.636 262.218 177.641 260.982 177.641C259.747 177.641 258.756 176.647 258.756 175.407C258.756 174.167 259.747 173.173 260.982 173.173C262.218 173.173 263.209 174.167 263.209 175.407Z" fill="#00A877"/>
<path d="M267.66 175.407C267.66 176.636 266.669 177.641 265.433 177.641C264.198 177.641 263.207 176.647 263.207 175.407C263.207 174.167 264.198 173.173 265.433 173.173C266.669 173.173 267.66 174.167 267.66 175.407Z" fill="#00A877"/>
<path d="M272.103 175.407C272.103 176.636 271.112 177.641 269.877 177.641C268.641 177.641 267.65 176.647 267.65 175.407C267.65 174.167 268.641 173.173 269.877 173.173C271.112 173.173 272.103 174.167 272.103 175.407Z" fill="#00A877"/>
<path d="M245.439 179.864C245.439 181.093 244.448 182.098 243.213 182.098C241.977 182.098 240.986 181.104 240.986 179.864C240.986 178.624 241.977 177.63 243.213 177.63C244.448 177.63 245.439 178.624 245.439 179.864Z" fill="#00A877"/>
<path d="M249.882 179.864C249.882 181.093 248.892 182.098 247.656 182.098C246.42 182.098 245.43 181.104 245.43 179.864C245.43 178.624 246.42 177.63 247.656 177.63C248.892 177.63 249.882 178.624 249.882 179.864Z" fill="#00A877"/>
<path d="M232.103 184.332C232.103 185.561 231.112 186.565 229.877 186.565C228.641 186.565 227.65 185.571 227.65 184.332C227.65 183.092 228.641 182.098 229.877 182.098C231.112 182.098 232.103 183.092 232.103 184.332Z" fill="#00A877"/>
<path d="M236.545 184.332C236.545 185.561 235.554 186.565 234.318 186.565C233.082 186.565 232.092 185.571 232.092 184.332C232.092 183.092 233.082 182.098 234.318 182.098C235.554 182.098 236.545 183.092 236.545 184.332Z" fill="#00A877"/>
<path d="M240.986 184.332C240.986 185.561 239.995 186.566 238.76 186.566C237.524 186.566 236.533 185.572 236.533 184.332C236.533 183.092 237.524 182.098 238.76 182.098C239.995 182.098 240.986 183.092 240.986 184.332Z" fill="#00A877"/>
<path d="M245.439 184.332C245.439 185.561 244.448 186.566 243.213 186.566C241.977 186.566 240.986 185.572 240.986 184.332C240.986 183.092 241.977 182.098 243.213 182.098C244.448 182.098 245.439 183.092 245.439 184.332Z" fill="#00A877"/>
<path d="M249.882 184.332C249.882 185.561 248.892 186.565 247.656 186.565C246.42 186.565 245.43 185.571 245.43 184.332C245.43 183.092 246.42 182.098 247.656 182.098C248.892 182.098 249.882 183.092 249.882 184.332Z" fill="#00A877"/>
<path d="M254.324 184.332C254.324 185.561 253.333 186.565 252.097 186.565C250.862 186.565 249.871 185.571 249.871 184.332C249.871 183.092 250.862 182.098 252.097 182.098C253.333 182.098 254.324 183.092 254.324 184.332Z" fill="#00A877"/>
<path d="M232.103 188.789C232.103 190.018 231.112 191.023 229.877 191.023C228.641 191.023 227.65 190.029 227.65 188.789C227.65 187.549 228.641 186.555 229.877 186.555C231.112 186.555 232.103 187.549 232.103 188.789Z" fill="#00A877"/>
<path d="M245.439 139.718C245.439 140.947 244.448 141.952 243.213 141.952C241.977 141.952 240.986 140.958 240.986 139.718C240.986 138.478 241.977 137.484 243.213 137.484C244.448 137.484 245.439 138.478 245.439 139.718Z" fill="#00A877"/>
<path d="M227.66 144.175C227.66 145.404 226.669 146.409 225.433 146.409C224.198 146.409 223.207 145.415 223.207 144.175C223.207 142.935 224.198 141.941 225.433 141.941C226.669 141.941 227.66 142.935 227.66 144.175Z" fill="#00A877"/>
<path d="M240.986 144.175C240.986 145.404 239.995 146.409 238.76 146.409C237.524 146.409 236.533 145.415 236.533 144.175C236.533 142.935 237.524 141.941 238.76 141.941C239.995 141.941 240.986 142.935 240.986 144.175Z" fill="#00A877"/>
<path d="M249.882 144.175C249.882 145.404 248.892 146.409 247.656 146.409C246.42 146.409 245.43 145.415 245.43 144.175C245.43 142.935 246.42 141.941 247.656 141.941C248.892 141.941 249.882 142.935 249.882 144.175Z" fill="#00A877"/>
<path d="M223.218 148.643C223.218 149.872 222.228 150.877 220.992 150.877C219.756 150.877 218.766 149.883 218.766 148.643C218.766 147.403 219.756 146.409 220.992 146.409C222.228 146.409 223.218 147.403 223.218 148.643Z" fill="#00A877"/>
<path d="M232.103 148.643C232.103 149.872 231.112 150.877 229.877 150.877C228.641 150.877 227.65 149.883 227.65 148.643C227.65 147.403 228.641 146.409 229.877 146.409C231.112 146.409 232.103 147.403 232.103 148.643Z" fill="#00A877"/>
<path d="M263.209 148.643C263.209 149.872 262.218 150.877 260.982 150.877C259.747 150.877 258.756 149.883 258.756 148.643C258.756 147.403 259.747 146.409 260.982 146.409C262.218 146.409 263.209 147.403 263.209 148.643Z" fill="#00A877"/>
<path d="M254.324 153.1C254.324 154.329 253.333 155.334 252.097 155.334C250.862 155.334 249.871 154.34 249.871 153.1C249.871 151.86 250.862 150.866 252.097 150.866C253.333 150.866 254.324 151.86 254.324 153.1Z" fill="#00A877"/>
<path d="M258.765 153.1C258.765 154.329 257.775 155.334 256.539 155.334C255.303 155.334 254.312 154.34 254.312 153.1C254.312 151.86 255.303 150.866 256.539 150.866C257.775 150.866 258.765 151.86 258.765 153.1Z" fill="#00A877"/>
<path d="M263.209 153.1C263.209 154.329 262.218 155.334 260.982 155.334C259.747 155.334 258.756 154.34 258.756 153.1C258.756 151.86 259.747 150.866 260.982 150.866C262.218 150.866 263.209 151.86 263.209 153.1Z" fill="#00A877"/>
<path d="M267.66 153.1C267.66 154.329 266.669 155.334 265.433 155.334C264.198 155.334 263.207 154.34 263.207 153.1C263.207 151.86 264.198 150.866 265.433 150.866C266.669 150.866 267.66 151.86 267.66 153.1Z" fill="#00A877"/>
<path d="M263.209 157.568C263.209 158.797 262.218 159.802 260.982 159.802C259.747 159.802 258.756 158.808 258.756 157.568C258.756 156.328 259.747 155.334 260.982 155.334C262.218 155.334 263.209 156.328 263.209 157.568Z" fill="#00A877"/>
<path d="M245.439 162.025C245.439 163.254 244.448 164.259 243.213 164.259C241.977 164.259 240.986 163.265 240.986 162.025C240.986 160.785 241.977 159.791 243.213 159.791C244.448 159.791 245.439 160.785 245.439 162.025Z" fill="#00A877"/>
<path d="M263.209 162.025C263.209 163.255 262.218 164.259 260.982 164.259C259.747 164.259 258.756 163.265 258.756 162.025C258.756 160.786 259.747 159.792 260.982 159.792C262.218 159.792 263.209 160.786 263.209 162.025Z" fill="#00A877"/>
<path d="M240.986 166.482C240.986 167.711 239.995 168.716 238.76 168.716C237.524 168.716 236.533 167.722 236.533 166.482C236.533 165.242 237.524 164.248 238.76 164.248C239.995 164.248 240.986 165.242 240.986 166.482Z" fill="#00A877"/>
<path d="M240.986 170.95C240.986 172.179 239.995 173.184 238.76 173.184C237.524 173.184 236.533 172.19 236.533 170.95C236.533 169.71 237.524 168.716 238.76 168.716C239.995 168.716 240.986 169.71 240.986 170.95Z" fill="#00A877"/>
<path d="M254.324 170.95C254.324 172.179 253.333 173.184 252.097 173.184C250.862 173.184 249.871 172.19 249.871 170.95C249.871 169.71 250.862 168.716 252.097 168.716C253.333 168.716 254.324 169.71 254.324 170.95Z" fill="#00A877"/>
<path d="M272.103 170.95C272.103 172.179 271.112 173.184 269.877 173.184C268.641 173.184 267.65 172.19 267.65 170.95C267.65 169.71 268.641 168.716 269.877 168.716C271.112 168.716 272.103 169.71 272.103 170.95Z" fill="#00A877"/>
<path d="M240.986 175.407C240.986 176.636 239.995 177.641 238.76 177.641C237.524 177.641 236.533 176.647 236.533 175.407C236.533 174.167 237.524 173.173 238.76 173.173C239.995 173.173 240.986 174.167 240.986 175.407Z" fill="#00A877"/>
<path d="M245.439 175.407C245.439 176.636 244.448 177.641 243.213 177.641C241.977 177.641 240.986 176.647 240.986 175.407C240.986 174.167 241.977 173.173 243.213 173.173C244.448 173.173 245.439 174.167 245.439 175.407Z" fill="#00A877"/>
<path d="M249.882 175.407C249.882 176.636 248.892 177.641 247.656 177.641C246.42 177.641 245.43 176.647 245.43 175.407C245.43 174.167 246.42 173.173 247.656 173.173C248.892 173.173 249.882 174.167 249.882 175.407Z" fill="#00A877"/>
<path d="M276.545 175.407C276.545 176.636 275.554 177.641 274.318 177.641C273.082 177.641 272.092 176.647 272.092 175.407C272.092 174.167 273.082 173.173 274.318 173.173C275.554 173.173 276.545 174.167 276.545 175.407Z" fill="#00A877"/>
<path d="M272.103 179.864C272.103 181.093 271.112 182.098 269.877 182.098C268.641 182.098 267.65 181.104 267.65 179.864C267.65 178.624 268.641 177.63 269.877 177.63C271.112 177.63 272.103 178.624 272.103 179.864Z" fill="#00A877"/>
<path d="M227.66 188.789C227.66 190.018 226.669 191.023 225.433 191.023C224.198 191.023 223.207 190.029 223.207 188.789C223.207 187.549 224.198 186.555 225.433 186.555C226.669 186.555 227.66 187.549 227.66 188.789Z" fill="#00A877"/>
<path d="M236.545 188.789C236.545 190.018 235.554 191.023 234.318 191.023C233.082 191.023 232.092 190.029 232.092 188.789C232.092 187.549 233.082 186.555 234.318 186.555C235.554 186.555 236.545 187.549 236.545 188.789Z" fill="#00A877"/>
<path d="M232.103 193.256C232.103 194.486 231.112 195.49 229.877 195.49C228.641 195.49 227.65 194.496 227.65 193.256C227.65 192.016 228.641 191.022 229.877 191.022C231.112 191.022 232.103 192.016 232.103 193.256Z" fill="#00A877"/>
<path d="M265.709 53.0829H229.711C227.963 53.0829 226.531 51.656 226.531 49.8922V18.5301C226.531 16.7762 227.953 15.3394 229.711 15.3394H265.709C267.457 15.3394 268.889 16.7663 268.889 18.5301V49.8922C268.889 51.6461 267.467 53.0829 265.709 53.0829ZM229.711 16.6176C228.664 16.6176 227.805 17.4698 227.805 18.5301V49.8922C227.805 50.9426 228.655 51.8046 229.711 51.8046H265.709C266.756 51.8046 267.615 50.9525 267.615 49.8922V18.5301C267.615 17.4797 266.766 16.6176 265.709 16.6176H229.711Z" fill="white" stroke="white" stroke-width="1.05" stroke-miterlimit="10"/>
<path d="M264.957 22.7021H227.162V23.9804H264.957V22.7021Z" fill="white" stroke="white" stroke-width="1.05" stroke-miterlimit="10"/>
<path d="M263.387 19.0156H262.291V20.2939H263.387V19.0156Z" fill="white" stroke="white" stroke-width="1.05" stroke-miterlimit="10"/>
<path d="M259.052 19.0156H257.896V20.2939H259.052V19.0156Z" fill="white" stroke="white" stroke-width="1.05" stroke-miterlimit="10"/>
<path d="M254.667 19.0156H253.512V20.2939H254.667V19.0156Z" fill="white" stroke="white" stroke-width="1.05" stroke-miterlimit="10"/>
<path d="M248.946 29.5876L245.248 46.0396L246.491 46.3208L250.189 29.8689L248.946 29.5876Z" fill="white" stroke="white" stroke-width="1.05" stroke-miterlimit="10"/>
<path d="M254.716 43.7586L253.887 42.7875L259.457 37.9618L253.887 33.1361L254.716 32.165L261.412 37.9618L254.716 43.7586Z" fill="white" stroke="white" stroke-width="1.05" stroke-miterlimit="10"/>
<path d="M240.694 43.7586L234.008 37.9618L240.694 32.165L241.533 33.1361L235.963 37.9618L241.533 42.7875L240.694 43.7586Z" fill="white" stroke="white" stroke-width="1.05" stroke-miterlimit="10"/>
<path d="M408.435 215.522C408.435 216.344 407.655 217.444 405.551 218.405C403.546 219.317 400.692 219.911 397.492 219.911C394.293 219.911 391.438 219.317 389.434 218.405C387.33 217.444 386.55 216.344 386.55 215.522C386.55 214.699 387.33 213.599 389.434 212.638C391.438 211.726 394.293 211.132 397.492 211.132C400.692 211.132 403.546 211.726 405.551 212.638C407.655 213.599 408.435 214.699 408.435 215.522ZM388.525 220.407C390.875 221.477 394.046 222.111 397.492 222.111C400.939 222.111 404.109 221.477 406.46 220.407C407.171 220.08 407.842 219.693 408.435 219.257V222.121C408.435 222.944 407.655 224.043 405.551 225.005C403.546 225.916 400.692 226.511 397.492 226.511C394.293 226.511 391.438 225.916 389.434 225.005C387.33 224.043 386.55 222.944 386.55 222.121V219.257C387.162 219.713 387.834 220.1 388.525 220.407ZM384.357 235.29C384.357 237.5 386.273 239.145 388.525 240.175C390.875 241.246 394.046 241.88 397.492 241.88C400.939 241.88 404.109 241.246 406.46 240.175C408.711 239.145 410.627 237.5 410.627 235.29V215.522C410.627 213.312 408.711 211.667 406.46 210.636C404.109 209.566 400.939 208.932 397.492 208.932C394.046 208.932 390.875 209.566 388.525 210.636C386.273 211.667 384.357 213.312 384.357 215.522V235.29ZM388.525 226.996C390.875 228.066 394.046 228.701 397.492 228.701C400.939 228.701 404.109 228.066 406.46 226.996C407.171 226.669 407.842 226.283 408.435 225.847V228.711C408.435 229.533 407.655 230.633 405.551 231.594C403.546 232.506 400.692 233.1 397.492 233.1C394.293 233.1 391.438 232.506 389.434 231.594C387.33 230.633 386.55 229.533 386.55 228.711V225.847C387.162 226.303 387.834 226.689 388.525 226.996ZM388.525 233.586C390.875 234.656 394.046 235.29 397.492 235.29C400.939 235.29 404.109 234.656 406.46 233.586C407.171 233.259 407.842 232.872 408.435 232.436V235.3C408.435 236.123 407.655 237.222 405.551 238.184C403.546 239.095 400.692 239.69 397.492 239.69C394.293 239.69 391.438 239.095 389.434 238.184C387.33 237.222 386.55 236.123 386.55 235.3V232.436C387.142 232.882 387.824 233.269 388.525 233.586Z" fill="#2E6C59"/>
<path d="M376.814 194.891C376.814 195.714 376.033 196.814 373.93 197.775C371.925 198.686 369.071 199.281 365.871 199.281C362.671 199.281 359.817 198.686 357.813 197.775C355.709 196.814 354.929 195.714 354.929 194.891C354.929 194.069 355.709 192.969 357.813 192.008C359.817 191.096 362.671 190.502 365.871 190.502C369.071 190.502 371.925 191.096 373.93 192.008C376.033 192.969 376.814 194.069 376.814 194.891ZM356.904 199.776C359.254 200.847 362.425 201.481 365.871 201.481C369.318 201.481 372.488 200.847 374.839 199.776C375.55 199.449 376.221 199.063 376.814 198.627V201.491C376.814 202.313 376.033 203.413 373.93 204.374C371.925 205.286 369.071 205.88 365.871 205.88C362.671 205.88 359.817 205.286 357.813 204.374C355.709 203.413 354.929 202.313 354.929 201.491V198.627C355.551 199.083 356.213 199.469 356.904 199.776ZM352.736 214.66C352.736 216.87 354.652 218.514 356.904 219.545C359.254 220.615 362.425 221.249 365.871 221.249C369.318 221.249 372.488 220.615 374.839 219.545C377.09 218.514 379.006 216.87 379.006 214.66V194.891C379.006 192.682 377.09 191.037 374.839 190.006C372.488 188.936 369.318 188.302 365.871 188.302C362.425 188.302 359.254 188.936 356.904 190.006C354.652 191.037 352.736 192.682 352.736 194.891V214.66ZM356.904 206.366C359.254 207.436 362.425 208.07 365.871 208.07C369.318 208.07 372.488 207.436 374.839 206.366C375.55 206.039 376.221 205.652 376.814 205.216V208.08C376.814 208.903 376.033 210.003 373.93 210.964C371.925 211.875 369.071 212.47 365.871 212.47C362.671 212.47 359.817 211.875 357.813 210.964C355.709 210.003 354.929 208.903 354.929 208.08V205.216C355.551 205.672 356.213 206.059 356.904 206.366ZM356.904 212.955C359.254 214.026 362.425 214.66 365.871 214.66C369.318 214.66 372.488 214.026 374.839 212.955C375.55 212.628 376.221 212.242 376.814 211.806V214.67C376.814 215.492 376.033 216.592 373.93 217.553C371.925 218.465 369.071 219.059 365.871 219.059C362.671 219.059 359.817 218.465 357.813 217.553C355.709 216.592 354.929 215.492 354.929 214.67V211.806C355.521 212.252 356.203 212.638 356.904 212.955Z" fill="#2E6C59"/>
<path d="M379.007 232.001C379.007 232.823 378.227 233.923 376.123 234.884C374.119 235.796 371.264 236.39 368.065 236.39C364.865 236.39 362.011 235.796 360.006 234.884C357.902 233.923 357.122 232.823 357.122 232.001C357.122 231.178 357.902 230.078 360.006 229.117C362.011 228.205 364.865 227.611 368.065 227.611C371.264 227.611 374.119 228.205 376.123 229.117C378.227 230.078 379.007 231.178 379.007 232.001ZM359.097 236.876C361.448 237.946 364.618 238.58 368.065 238.58C371.511 238.58 374.682 237.946 377.032 236.876C377.743 236.549 378.415 236.162 379.007 235.726V238.59C379.007 239.413 378.227 240.513 376.123 241.474C374.119 242.385 371.264 242.98 368.065 242.98C364.865 242.98 362.011 242.385 360.006 241.474C357.902 240.513 357.122 239.413 357.122 238.59V235.726C357.735 236.182 358.406 236.569 359.097 236.876ZM354.92 251.769C354.92 253.979 356.836 255.624 359.088 256.654C361.438 257.725 364.608 258.359 368.055 258.359C371.502 258.359 374.672 257.725 377.022 256.654C379.274 255.624 381.19 253.979 381.19 251.769V232.001C381.19 229.791 379.274 228.146 377.022 227.115C374.672 226.045 371.502 225.411 368.055 225.411C364.608 225.411 361.438 226.045 359.088 227.115C356.836 228.146 354.92 229.791 354.92 232.001V251.769ZM359.097 243.465C361.448 244.536 364.618 245.17 368.065 245.17C371.511 245.17 374.682 244.536 377.032 243.465C377.743 243.138 378.415 242.752 379.007 242.316V245.18C379.007 246.002 378.227 247.102 376.123 248.063C374.119 248.975 371.264 249.569 368.065 249.569C364.865 249.569 362.011 248.975 360.006 248.063C357.902 247.102 357.122 246.002 357.122 245.18V242.316C357.735 242.772 358.406 243.158 359.097 243.465ZM359.097 250.055C361.448 251.125 364.618 251.759 368.065 251.759C371.511 251.759 374.682 251.125 377.032 250.055C377.743 249.728 378.415 249.341 379.007 248.905V251.769C379.007 252.592 378.227 253.692 376.123 254.653C374.119 255.564 371.264 256.159 368.065 256.159C364.865 256.159 362.011 255.564 360.006 254.653C357.902 253.692 357.122 252.592 357.122 251.769V248.905C357.715 249.351 358.396 249.738 359.097 250.055Z" fill="#2E6C59"/>
<path opacity="0.28" d="M87.875 248.004L101.04 236.559H120.001V247.548L87.875 248.004Z" fill="#007A6C"/>
<path opacity="0.28" d="M119.488 215.125V247.548L133.285 235.795V203.68L119.488 215.125Z" fill="#007A6C"/>
<path opacity="0.28" d="M100.525 204.126V215.125H119.487L132.652 203.68L100.525 204.126Z" fill="#007A6C"/>
<path opacity="0.28" d="M100.525 237.004L87.2324 247.548V215.888L100.525 203.68V237.004Z" fill="#007A6C"/>
<path d="M134.025 236.301C134.025 236.301 134.045 236.231 134.045 236.202V236.182V203.304C134.045 203.264 134.045 203.214 134.025 203.175C134.025 203.165 134.015 203.155 134.005 203.145C133.985 203.115 133.975 203.086 133.946 203.066C133.936 203.056 133.926 203.046 133.916 203.036C133.896 203.016 133.867 202.996 133.837 202.987C133.827 202.987 133.817 202.977 133.798 202.967C133.758 202.947 133.709 202.937 133.669 202.937H100.901C100.901 202.937 100.802 202.947 100.763 202.967C100.743 202.967 100.733 202.987 100.714 202.996C100.694 203.006 100.674 203.016 100.654 203.036L86.6108 215.244C86.6108 215.244 86.6108 215.244 86.6009 215.254C86.5911 215.254 86.5812 215.274 86.5713 215.284C86.5516 215.304 86.5318 215.333 86.5219 215.363C86.5219 215.373 86.5121 215.393 86.5022 215.403C86.4923 215.432 86.4824 215.472 86.4824 215.502V215.522V248.4C86.4824 248.439 86.4824 248.489 86.5022 248.529C86.5022 248.538 86.5121 248.548 86.5219 248.558C86.5417 248.588 86.5516 248.618 86.5812 248.638C86.5911 248.647 86.6009 248.657 86.6108 248.667C86.6306 248.687 86.6602 248.707 86.6898 248.717C86.6997 248.717 86.7096 248.727 86.7293 248.737C86.7688 248.756 86.8182 248.766 86.8577 248.766H119.626C119.626 248.766 119.725 248.756 119.764 248.737C119.784 248.737 119.794 248.717 119.813 248.707C119.833 248.697 119.853 248.687 119.873 248.667L133.916 236.459C133.916 236.459 133.916 236.459 133.926 236.449C133.936 236.449 133.946 236.43 133.956 236.42C133.975 236.4 133.995 236.37 134.005 236.34C134.005 236.33 134.015 236.311 134.025 236.301ZM87.233 215.888H100.516V236.003L87.233 247.557V215.898V215.888ZM101.276 215.888H119.241V235.795H101.276V215.888ZM120.001 215.68L133.284 204.126V235.785H120.001V215.67V215.68ZM132.652 203.68L119.488 215.135H101.286V203.68H132.662H132.652ZM100.526 204.126V215.125H87.8749L100.526 204.126ZM87.8749 248.003L101.039 236.548H119.241V248.003H87.865H87.8749ZM120.001 247.548V236.548H132.652L120.001 247.548Z" fill="#007A6C" stroke="#007A6C" stroke-width="0.87" stroke-miterlimit="10"/>
<path d="M374.945 58.0767C374.214 58.6118 373.424 59.0676 372.605 59.4441C369.82 60.7125 366.057 61.4656 361.978 61.4656C357.9 61.4656 354.137 60.7125 351.352 59.4441C350.522 59.0676 349.742 58.6118 349.011 58.0767V61.4656C349.011 62.4367 349.93 63.7447 352.428 64.8842C354.808 65.9643 358.176 66.6678 361.978 66.6678C363.707 66.6678 365.346 66.5192 366.847 66.2616C365.731 67.0642 364.763 68.065 363.993 69.2045C363.321 69.2442 362.66 69.264 361.988 69.264C357.909 69.264 354.147 68.5109 351.362 67.2425C350.532 66.866 349.752 66.4102 349.021 65.8751V69.264C349.021 70.2351 349.94 71.5431 352.438 72.6826C354.818 73.7627 358.186 74.4662 361.988 74.4662H362.057C361.978 75.1599 361.968 75.8535 362.018 76.5471C361.998 76.7156 361.988 76.894 361.988 77.0723C357.909 77.0723 354.147 76.3192 351.362 75.0509C350.532 74.6743 349.752 74.2185 349.021 73.6834V77.0723C349.021 78.0434 349.94 79.3514 352.438 80.4909C354.818 81.571 358.186 82.2746 361.988 82.2746C361.988 83.2159 362.235 84.1077 362.68 84.8707C362.452 84.8707 362.225 84.8707 361.988 84.8707C357.909 84.8707 354.147 84.1176 351.362 82.8493C348.695 81.6305 346.424 79.6883 346.424 77.0624V53.6374C346.424 51.0214 348.695 49.0694 351.362 47.8505C354.147 46.5822 357.909 45.8291 361.988 45.8291C366.067 45.8291 369.83 46.5822 372.615 47.8505C375.281 49.0694 377.553 51.0115 377.553 53.6374V64.7157C376.091 64.2005 374.55 63.9825 373.01 64.0717C374.412 63.1501 374.965 62.1988 374.965 61.4557V58.0668L374.945 58.0767ZM352.428 50.2485C349.93 51.3881 349.011 52.6862 349.011 53.6672C349.011 54.6482 349.93 55.9462 352.428 57.0858C354.808 58.1659 358.176 58.8694 361.978 58.8694C365.781 58.8694 369.148 58.1659 371.528 57.0858C374.027 55.9462 374.945 54.6382 374.945 53.6672C374.945 52.6961 374.027 51.3881 371.528 50.2485C369.148 49.1684 365.781 48.4649 361.978 48.4649C358.176 48.4649 354.808 49.1685 352.428 50.2584V50.2485Z" fill="#2E6C59"/>
<path d="M364.576 77.0819C364.576 76.3883 364.853 75.7343 365.337 75.2388C365.821 74.7533 366.482 74.4758 367.174 74.4758V71.8697C367.174 70.4924 367.717 69.1646 368.694 68.1935C369.662 67.2224 370.986 66.6675 372.358 66.6675C373.731 66.6675 375.054 67.2125 376.022 68.1935C376.99 69.1646 377.543 70.4924 377.543 71.8697V74.4758C378.234 74.4758 378.886 74.7533 379.38 75.2388C379.874 75.7243 380.141 76.3883 380.141 77.0819V82.2841C380.141 82.9778 379.864 83.6318 379.38 84.1272C378.896 84.6227 378.234 84.8902 377.543 84.8902H367.174C366.482 84.8902 365.83 84.6128 365.337 84.1272C364.853 83.6417 364.576 82.9778 364.576 82.2841V77.0819ZM372.358 69.2736C371.667 69.2736 371.015 69.551 370.521 70.0366C370.028 70.5221 369.761 71.186 369.761 71.8796V74.4857H374.946V71.8796C374.946 71.186 374.669 70.532 374.185 70.0366C373.701 69.5411 373.04 69.2736 372.348 69.2736H372.358Z" fill="#2E6C59"/>
</g>
<defs>
<clipPath id="clip0_538_4589">
<rect width="463" height="268" fill="white" transform="translate(0.75)"/>
</clipPath>
</defs>
</svg>
