<svg width="543" height="300" viewBox="0 0 543 300" fill="none" xmlns="http://www.w3.org/2000/svg">
<g clip-path="url(#clip0_234_40987)">
<path d="M522.053 0C533.626 0 543 9.45394 543 21.1088V59.4998C543 71.1546 533.626 80.6086 522.053 80.6086H354.059C342.487 80.6086 333.113 71.1546 333.113 59.4998V21.1088C333.113 9.45394 342.487 0 354.059 0H522.053Z" fill="white"/>
<path d="M300.27 219.441C311.843 219.441 321.216 228.895 321.216 240.55V278.941C321.216 290.596 311.843 300.05 300.27 300.05H20.9461C9.37327 300.05 0 290.596 0 278.941V240.55C0 228.895 9.37327 219.441 20.9461 219.441H300.27Z" fill="white"/>
<path d="M522.054 92.0133C533.627 92.0133 543 101.467 543 113.122V278.916C543 290.571 533.627 300.025 522.054 300.025H465.314C453.741 300.025 444.368 290.571 444.368 278.916V113.122C444.368 101.467 453.741 92.0133 465.314 92.0133H522.054Z" fill="white"/>
<path d="M188.49 0C200.063 0 209.437 9.45394 209.437 21.1088V183.201C209.437 194.856 200.063 204.31 188.49 204.31H131.751C120.178 204.31 110.805 194.856 110.805 183.201V21.1088C110.805 9.45394 120.178 0 131.751 0H188.49Z" fill="white"/>
<path d="M410.799 92.0133C422.372 92.0133 431.745 101.467 431.745 113.122V186.503C431.745 198.158 422.372 207.612 410.799 207.612H354.059C342.487 207.612 333.113 198.158 333.113 186.503V113.122C333.113 101.467 342.487 92.0133 354.059 92.0133H410.799Z" fill="white"/>
<path d="M300.27 130.704C311.843 130.704 321.216 140.158 321.216 151.813V185.402C321.216 197.057 311.843 206.511 300.27 206.511H243.53C231.957 206.511 222.584 197.057 222.584 185.402V151.813C222.584 140.158 231.957 130.704 243.53 130.704H300.27Z" fill="white"/>
<path d="M300.27 0C311.843 0 321.216 9.45394 321.216 21.1088V102.893C321.216 114.548 311.843 124.002 300.27 124.002H243.53C231.957 124.002 222.584 114.548 222.584 102.893V21.1088C222.584 9.45394 231.957 0 243.53 0H300.27Z" fill="white"/>
<path d="M77.6607 99.4414C89.2336 99.4414 98.6068 108.895 98.6068 120.55V184.302C98.6068 195.957 89.2336 205.411 77.6607 205.411H20.9461C9.37327 205.411 0 195.957 0 184.302V120.55C0 108.895 9.37327 99.4414 20.9461 99.4414H77.6857H77.6607Z" fill="white"/>
<path d="M77.6607 0C89.2336 0 98.6068 9.45394 98.6068 21.1088V71.6298C98.6068 83.2847 89.2336 92.7386 77.6607 92.7386H20.9461C9.37327 92.7386 0 83.2847 0 71.6298V21.1088C0 9.45394 9.37327 0 20.9461 0H77.6857H77.6607Z" fill="white"/>
<path d="M410.799 216.59C422.372 216.59 431.745 226.044 431.745 237.699V278.916C431.745 290.571 422.372 300.025 410.799 300.025H354.059C342.487 300.025 333.113 290.571 333.113 278.916V237.699C333.113 226.044 342.487 216.59 354.059 216.59H410.799Z" fill="white"/>
<path d="M60.9139 259.733C66.3629 259.733 70.7871 255.306 70.7871 249.854C70.7871 244.402 66.3629 239.975 60.9139 239.975C55.4649 239.975 51.0408 244.402 51.0408 249.854C51.0408 255.306 55.4649 259.733 60.9139 259.733ZM67.4877 249.854C67.4877 253.481 64.5383 256.432 60.9139 256.432C57.2896 256.432 54.3401 253.481 54.3401 249.854C54.3401 246.228 57.2896 243.276 60.9139 243.276C64.5383 243.276 67.4877 246.228 67.4877 249.854ZM80.6353 276.19C80.6353 279.491 77.3359 279.491 77.3359 279.491H44.442C44.442 279.491 41.1426 279.491 41.1426 276.19C41.1426 272.889 44.442 263.01 60.8889 263.01C77.3359 263.01 80.6353 272.889 80.6353 276.19ZM77.3609 276.165C77.3609 275.365 76.861 272.914 74.6114 270.688C72.3618 268.462 68.4376 266.311 60.8889 266.311C53.3403 266.311 49.3161 268.562 47.1665 270.688C44.9419 272.914 44.442 275.365 44.417 276.165H77.3109H77.3609Z" fill="#00192D"/>
<path d="M127.377 259.733C132.826 259.733 137.25 255.306 137.25 249.854C137.25 244.402 132.826 239.975 127.377 239.975C121.928 239.975 117.504 244.402 117.504 249.854C117.504 255.306 121.928 259.733 127.377 259.733ZM133.951 249.854C133.951 253.481 131.001 256.432 127.377 256.432C123.752 256.432 120.803 253.481 120.803 249.854C120.803 246.228 123.752 243.276 127.377 243.276C131.001 243.276 133.951 246.228 133.951 249.854ZM147.098 276.19C147.098 279.491 143.799 279.491 143.799 279.491H110.905C110.905 279.491 107.605 279.491 107.605 276.19C107.605 272.889 110.905 263.01 127.352 263.01C143.799 263.01 147.098 272.889 147.098 276.19ZM143.824 276.165C143.824 275.365 143.324 272.914 141.074 270.688C138.825 268.462 134.9 266.311 127.352 266.311C119.803 266.311 115.779 268.562 113.629 270.688C111.405 272.914 110.905 275.365 110.88 276.165H143.774H143.824Z" fill="#00192D"/>
<path d="M193.839 259.733C199.288 259.733 203.712 255.306 203.712 249.854C203.712 244.402 199.288 239.975 193.839 239.975C188.39 239.975 183.966 244.402 183.966 249.854C183.966 255.306 188.39 259.733 193.839 259.733ZM200.413 249.854C200.413 253.481 197.463 256.432 193.839 256.432C190.215 256.432 187.265 253.481 187.265 249.854C187.265 246.228 190.215 243.276 193.839 243.276C197.463 243.276 200.413 246.228 200.413 249.854ZM213.585 276.19C213.585 279.491 210.286 279.491 210.286 279.491H177.392C177.392 279.491 174.093 279.491 174.093 276.19C174.093 272.889 177.392 263.01 193.839 263.01C210.286 263.01 213.585 272.889 213.585 276.19ZM210.286 276.165C210.286 275.365 209.786 272.914 207.537 270.688C205.387 268.537 201.363 266.311 193.814 266.311C186.266 266.311 182.241 268.562 180.092 270.688C177.867 272.914 177.367 275.365 177.342 276.165H210.236H210.286Z" fill="#00192D"/>
<path d="M260.302 259.733C265.751 259.733 270.175 255.306 270.175 249.854C270.175 244.402 265.751 239.975 260.302 239.975C254.853 239.975 250.429 244.402 250.429 249.854C250.429 255.306 254.853 259.733 260.302 259.733ZM266.876 249.854C266.876 253.481 263.926 256.432 260.302 256.432C256.678 256.432 253.728 253.481 253.728 249.854C253.728 246.228 256.678 243.276 260.302 243.276C263.926 243.276 266.876 246.228 266.876 249.854ZM280.048 276.19C280.048 279.491 276.749 279.491 276.749 279.491H243.855C243.855 279.491 240.556 279.491 240.556 276.19C240.556 272.889 243.855 263.01 260.302 263.01C276.749 263.01 280.048 272.889 280.048 276.19ZM276.749 276.165C276.749 275.365 276.249 272.914 274 270.688C271.75 268.462 267.826 266.311 260.277 266.311C252.728 266.311 248.704 268.562 246.555 270.688C244.33 272.914 243.83 275.365 243.805 276.165H276.699H276.749Z" fill="#00192D"/>
<path fill-rule="evenodd" clip-rule="evenodd" d="M60.3892 31.5631C52.2157 31.5631 45.5919 38.1909 45.5919 46.3693C45.5919 54.5477 52.2157 61.1755 60.3892 61.1755C68.5627 61.1755 75.1865 54.5477 75.1865 46.3693C75.1865 38.1909 68.5627 31.5631 60.3892 31.5631ZM41.9926 44.5185C42.9174 35.1646 50.791 27.8616 60.3892 27.8616C70.5873 27.8616 78.8608 36.1401 78.8608 46.3443C78.8608 56.5486 70.5873 64.827 60.3892 64.827C50.816 64.827 42.9174 57.524 41.9926 48.1701H34.519C34.519 51.2463 32.0444 53.7224 28.97 53.7224H25.2707C22.1962 53.7224 19.7217 51.2463 19.7217 48.1701V44.4685C19.7217 41.3922 22.1962 38.9162 25.2707 38.9162H28.97C32.0444 38.9162 34.519 41.3922 34.519 44.4685H41.9926V44.5185ZM60.3892 35.2647C61.414 35.2647 62.2388 36.09 62.2388 37.1155V44.5185H69.6375C70.6623 44.5185 71.4871 45.3439 71.4871 46.3693C71.4871 47.3947 70.6623 48.2201 69.6375 48.2201H62.2388V55.6232C62.2388 56.6486 61.414 57.4739 60.3892 57.4739C59.3644 57.4739 58.5395 56.6486 58.5395 55.6232V48.2201H51.1409C50.1161 48.2201 49.2912 47.3947 49.2912 46.3693C49.2912 45.3439 50.1161 44.5185 51.1409 44.5185H58.5395V37.1155C58.5395 36.09 59.3644 35.2647 60.3892 35.2647ZM25.2707 42.6678C24.2458 42.6678 23.421 43.4931 23.421 44.5185V48.2201C23.421 49.2455 24.2458 50.0709 25.2707 50.0709H28.97C29.9948 50.0709 30.8196 49.2455 30.8196 48.2201V44.5185C30.8196 43.4931 29.9948 42.6678 28.97 42.6678H25.2707Z" fill="#202048"/>
<path opacity="0.28" d="M352.41 285.919L368.957 271.588H392.778V285.344L352.41 285.919Z" fill="#56AFA2"/>
<path opacity="0.28" d="M392.128 244.752V285.344L409.475 270.638V230.396L392.128 244.752Z" fill="#56AFA2"/>
<path opacity="0.28" d="M368.308 230.971V244.752H392.128L408.65 230.396L368.308 230.971Z" fill="#56AFA2"/>
<path opacity="0.28" d="M368.307 272.138L351.61 285.344V245.702L368.307 230.396V272.138Z" fill="#56AFA2"/>
<path d="M410.375 271.263C410.375 271.263 410.375 271.188 410.4 271.138C410.4 271.138 410.4 271.138 410.4 271.113V229.921C410.4 229.871 410.4 229.821 410.375 229.771C410.375 229.771 410.375 229.771 410.375 229.746C410.375 229.696 410.325 229.671 410.3 229.646C410.3 229.646 410.275 229.621 410.25 229.596C410.225 229.571 410.2 229.546 410.15 229.521C410.15 229.521 410.125 229.521 410.1 229.521C410.05 229.521 410 229.496 409.925 229.496H368.757C368.757 229.496 368.632 229.496 368.582 229.521C368.582 229.521 368.532 229.521 368.532 229.546C368.507 229.546 368.482 229.571 368.457 229.596L350.811 244.902C350.811 244.902 350.811 244.927 350.786 244.952C350.761 244.977 350.736 245.002 350.711 245.052C350.711 245.052 350.711 245.077 350.711 245.102C350.711 245.152 350.711 245.177 350.686 245.227C350.686 245.227 350.686 245.227 350.686 245.252V286.444C350.686 286.494 350.686 286.544 350.711 286.594C350.711 286.594 350.711 286.594 350.711 286.619C350.711 286.669 350.761 286.694 350.786 286.719C350.786 286.719 350.811 286.744 350.836 286.77C350.861 286.795 350.885 286.82 350.935 286.845C350.935 286.845 350.96 286.845 350.985 286.845C351.035 286.845 351.085 286.87 351.16 286.87H392.328C392.328 286.87 392.453 286.87 392.503 286.845C392.503 286.845 392.553 286.845 392.553 286.82C392.578 286.82 392.603 286.795 392.628 286.77L410.275 271.463C410.275 271.463 410.275 271.438 410.3 271.413C410.325 271.388 410.35 271.363 410.375 271.313C410.375 271.313 410.375 271.288 410.375 271.263ZM351.61 245.702H368.307V270.888L351.61 285.369V245.702ZM369.257 245.702H391.828V270.638H369.257V245.702ZM392.778 245.427L409.475 230.946V270.613H392.778V245.427ZM408.65 230.396L392.103 244.727H369.232V230.396H408.625H408.65ZM368.307 230.971V244.752H352.41L368.307 230.971ZM352.41 285.919L368.957 271.588H391.828V285.919H352.435H352.41ZM392.778 285.344V271.563H408.65L392.778 285.344Z" fill="#56AFA2" stroke="#007A6C" stroke-width="0.75" stroke-miterlimit="10"/>
<path d="M247.229 168.595C247.229 162.043 249.829 155.765 254.453 151.138C259.077 146.511 265.351 143.91 271.9 143.91C278.449 143.91 284.723 146.511 289.347 151.138C293.971 155.765 296.57 162.043 296.57 168.595C296.57 175.148 293.971 181.426 289.347 186.053C284.723 190.679 278.449 193.281 271.9 193.281C265.351 193.281 259.077 190.679 254.453 186.053C249.829 181.426 247.229 175.148 247.229 168.595ZM270.35 147.261C268.276 147.887 266.226 149.787 264.526 152.989C263.976 154.039 263.476 155.14 263.077 156.29H270.325V147.261H270.35ZM259.852 156.265C260.377 154.614 261.027 153.039 261.827 151.513C262.352 150.513 262.977 149.537 263.676 148.637C259.852 150.213 256.578 152.864 254.203 156.265H259.852ZM258.052 167.07C258.152 164.369 258.477 161.767 259.002 159.366H252.379C251.229 161.792 250.554 164.394 250.354 167.07H258.028H258.052ZM262.177 159.341C261.577 161.867 261.227 164.444 261.127 167.045H270.35V159.341H262.177ZM273.45 159.341V167.045H282.673C282.598 164.444 282.248 161.867 281.623 159.341H273.45ZM261.152 170.146C261.227 172.747 261.577 175.323 262.202 177.849H270.375V170.146H261.152ZM273.45 170.146V177.849H281.623C282.198 175.498 282.573 172.897 282.673 170.146H273.45ZM263.102 180.95C263.526 182.151 264.001 183.251 264.551 184.252C266.251 187.453 268.301 189.354 270.375 189.979V180.95H263.127H263.102ZM263.651 188.579C262.952 187.678 262.352 186.703 261.802 185.702C261.002 184.177 260.352 182.601 259.827 180.95H254.178C256.553 184.352 259.827 187.003 263.651 188.579ZM259.002 177.849C258.452 175.323 258.127 172.722 258.052 170.146H250.379C250.579 172.897 251.279 175.498 252.404 177.849H259.027H259.002ZM280.148 188.579C283.973 187.003 287.247 184.352 289.622 180.95H283.973C283.448 182.601 282.798 184.177 281.998 185.702C281.473 186.703 280.848 187.678 280.148 188.579ZM273.45 180.95V189.979C275.524 189.354 277.574 187.453 279.274 184.252C279.798 183.251 280.298 182.151 280.723 180.95H273.475H273.45ZM284.798 177.849H291.421C292.546 175.473 293.246 172.872 293.446 170.146H285.772C285.697 172.747 285.372 175.323 284.823 177.849H284.798ZM293.421 167.07C293.246 164.394 292.546 161.767 291.396 159.366H284.773C285.297 161.767 285.647 164.369 285.722 167.07H293.396H293.421ZM281.973 151.513C282.723 152.939 283.398 154.539 283.948 156.265H289.597C287.222 152.864 283.948 150.213 280.123 148.637C280.798 149.512 281.423 150.488 281.973 151.513ZM280.698 156.265C280.298 155.14 279.823 154.039 279.249 152.964C277.549 149.762 275.499 147.862 273.425 147.236V156.265H280.673H280.698Z" fill="#28C8F2"/>
<path d="M22.296 139.258L22.146 136.107C22.146 134.181 22.9209 132.33 24.2706 130.98C25.6204 129.629 27.47 128.854 29.3947 128.854H42.6922C44.6169 128.854 46.4415 129.629 47.8163 130.98L50.8157 133.981C52.1655 135.331 54.0151 136.107 55.9398 136.107H70.3621C71.3619 136.107 72.3618 136.307 73.2866 136.732C74.2114 137.132 75.0363 137.732 75.7111 138.483C76.386 139.233 76.9109 140.108 77.2359 141.059C77.5608 142.009 77.6858 143.035 77.5858 144.035L75.2862 169.396C75.1113 171.196 74.2864 172.872 72.9617 174.098C71.6369 175.323 69.8872 175.998 68.0876 175.998H30.6194C28.8198 175.998 27.0701 175.323 25.7453 174.098C24.4206 172.872 23.5707 171.196 23.4208 169.396L21.1212 144.035C20.9712 142.359 21.3961 140.684 22.371 139.283L22.296 139.258ZM28.2699 139.733C27.77 139.733 27.2701 139.833 26.8201 140.033C26.3702 140.233 25.9453 140.534 25.5954 140.909C25.2454 141.284 24.9955 141.709 24.8455 142.184C24.6955 142.659 24.6206 143.16 24.6705 143.66L26.9701 169.02C27.0451 169.921 27.47 170.746 28.1449 171.371C28.8198 171.972 29.6696 172.322 30.5945 172.322H68.0626C68.9624 172.322 69.8372 171.972 70.5121 171.371C71.187 170.771 71.5869 169.921 71.6869 169.02L73.9865 143.66C74.0365 143.16 73.9865 142.659 73.8115 142.184C73.6615 141.709 73.3866 141.259 73.0616 140.909C72.7117 140.534 72.3118 140.233 71.8369 140.033C71.3869 139.833 70.887 139.733 70.3871 139.733H28.2699ZM45.2418 133.556C44.9168 133.231 44.5169 132.955 44.067 132.78C43.6171 132.605 43.1671 132.505 42.6672 132.505H29.3697C28.4199 132.505 27.52 132.88 26.8451 133.531C26.1703 134.206 25.7703 135.106 25.7703 136.057V136.557C26.5702 136.282 27.395 136.132 28.2699 136.132H47.8163L45.2668 133.581L45.2418 133.556Z" fill="#FF5790"/>
<path d="M512.555 185.327C511.48 186.128 510.331 186.778 509.106 187.328C505.007 189.204 499.458 190.304 493.459 190.304C487.46 190.304 481.911 189.204 477.812 187.328C476.587 186.778 475.437 186.103 474.362 185.327V190.304C474.362 191.73 475.712 193.656 479.411 195.331C482.911 196.932 487.885 197.957 493.484 197.957C496.033 197.957 498.458 197.732 500.657 197.357C499.008 198.533 497.583 200.008 496.433 201.684C495.458 201.734 494.458 201.784 493.484 201.784C487.46 201.784 481.936 200.684 477.837 198.808C476.612 198.258 475.462 197.582 474.387 196.807V201.784C474.387 203.21 475.737 205.135 479.436 206.811C482.936 208.412 487.91 209.437 493.509 209.437H493.609C493.509 210.463 493.484 211.488 493.534 212.489C493.509 212.739 493.484 212.989 493.484 213.264C487.46 213.264 481.936 212.163 477.837 210.288C476.612 209.737 475.462 209.062 474.387 208.287V213.264C474.387 214.689 475.737 216.615 479.436 218.291C482.936 219.892 487.91 220.917 493.509 220.917C493.509 222.318 493.884 223.618 494.533 224.719C494.209 224.719 493.859 224.719 493.509 224.719C487.485 224.719 481.961 223.618 477.862 221.742C473.937 219.942 470.588 217.09 470.588 213.239V178.799C470.588 174.948 473.937 172.097 477.862 170.296C481.961 168.42 487.51 167.32 493.509 167.32C499.508 167.32 505.057 168.42 509.156 170.296C513.08 172.097 516.429 174.948 516.429 178.799V195.081C514.28 194.331 512.005 194.006 509.731 194.131C511.805 192.78 512.605 191.38 512.605 190.279V185.302L512.555 185.327ZM479.361 173.822C475.687 175.498 474.312 177.399 474.312 178.85C474.312 180.3 475.662 182.201 479.361 183.877C482.861 185.477 487.835 186.503 493.434 186.503C499.033 186.503 504.007 185.477 507.506 183.877C511.18 182.201 512.555 180.275 512.555 178.85C512.555 177.424 511.205 175.498 507.506 173.822C504.007 172.222 499.033 171.196 493.434 171.196C487.835 171.196 482.861 172.222 479.361 173.822Z" fill="#006E58"/>
<path d="M497.258 213.264C497.258 212.238 497.658 211.288 498.383 210.563C499.107 209.837 500.082 209.437 501.082 209.437V205.611C501.082 203.585 501.882 201.634 503.332 200.208C504.756 198.783 506.706 197.957 508.731 197.957C510.755 197.957 512.705 198.758 514.13 200.208C515.554 201.634 516.379 203.585 516.379 205.611V209.437C517.404 209.437 518.354 209.837 519.079 210.563C519.804 211.288 520.204 212.263 520.204 213.264V220.917C520.204 221.942 519.804 222.893 519.079 223.618C518.354 224.343 517.379 224.744 516.379 224.744H501.082C500.057 224.744 499.107 224.343 498.383 223.618C497.658 222.893 497.258 221.917 497.258 220.917V213.264ZM508.731 201.784C507.706 201.784 506.756 202.184 506.031 202.91C505.306 203.635 504.906 204.61 504.906 205.611V209.437H512.555V205.611C512.555 204.585 512.155 203.635 511.43 202.91C510.705 202.184 509.731 201.784 508.731 201.784Z" fill="#006E58"/>
<path d="M129.288 88.3976C131.855 87.2226 135.542 86.4301 139.693 86.4301C143.844 86.4301 147.503 87.2226 150.098 88.3976C152.829 89.6546 153.812 91.0482 153.812 92.1139C153.812 93.1796 152.801 94.5733 150.098 95.8303C147.53 97.0053 143.844 97.7977 139.693 97.7977C135.542 97.7977 131.882 97.0053 129.288 95.8303C126.557 94.5733 125.574 93.1796 125.574 92.1139C125.574 91.0482 126.584 89.6546 129.288 88.3976ZM153.866 96.8686V100.558C153.866 101.623 152.856 103.017 150.152 104.274C147.585 105.449 143.898 106.241 139.747 106.241C135.596 106.241 131.937 105.449 129.342 104.274C126.611 103.017 125.628 101.623 125.628 100.558V96.8686C126.42 97.4698 127.267 97.9344 128.168 98.3443C131.227 99.7106 135.323 100.53 139.747 100.53C144.171 100.53 148.322 99.7106 151.327 98.3443C152.228 97.9617 153.074 97.4425 153.866 96.8686ZM156.679 92.1139C156.679 89.272 154.221 87.1406 151.272 85.8016C148.213 84.4353 144.117 83.6155 139.693 83.6155C135.268 83.6155 131.117 84.4353 128.113 85.8016C125.219 87.1406 122.706 89.2447 122.706 92.1139V117.582C122.706 120.451 125.164 122.555 128.113 123.894C131.172 125.26 135.268 126.08 139.693 126.08C144.117 126.08 148.268 125.26 151.272 123.894C154.167 122.555 156.679 120.451 156.679 117.582V92.1139ZM153.866 105.367V109.056C153.866 110.122 152.856 111.515 150.152 112.772C147.585 113.947 143.898 114.74 139.747 114.74C135.596 114.74 131.937 113.947 129.342 112.772C126.611 111.515 125.628 110.122 125.628 109.056V105.367C126.42 105.941 127.267 106.433 128.168 106.843C131.227 108.209 135.323 109.029 139.747 109.029C144.171 109.029 148.322 108.209 151.327 106.843C152.228 106.46 153.074 105.941 153.866 105.367ZM153.866 113.865V117.554C153.866 118.62 152.856 120.014 150.152 121.271C147.585 122.446 143.898 123.238 139.747 123.238C135.596 123.238 131.937 122.446 129.342 121.271C126.611 120.014 125.628 118.62 125.628 117.554V113.865C126.42 114.467 127.267 114.931 128.168 115.341C131.227 116.707 135.323 117.527 139.747 117.527C144.171 117.527 148.322 116.707 151.327 115.341C152.228 114.904 153.129 114.439 153.866 113.865Z" fill="#006E58"/>
<path d="M170.143 61.7821C172.738 60.607 176.397 59.8146 180.548 59.8146C184.699 59.8146 188.359 60.607 190.953 61.7821C193.684 63.039 194.667 64.4327 194.667 65.4984C194.667 66.5641 193.657 67.9577 190.953 69.2147C188.386 70.3897 184.699 71.1822 180.548 71.1822C176.397 71.1822 172.738 70.3897 170.143 69.2147C167.412 67.9577 166.429 66.5641 166.429 65.4984C166.429 64.4327 167.439 63.039 170.143 61.7821ZM194.722 70.3078V73.9968C194.722 75.0625 193.711 76.4561 191.008 77.7131C188.441 78.8881 184.754 79.6806 180.603 79.6806C176.452 79.6806 172.792 78.8881 170.198 77.7131C167.467 76.4561 166.484 75.0625 166.484 73.9968V70.3078C167.276 70.8816 168.122 71.3735 169.023 71.7834C172.082 73.1497 176.179 73.9695 180.603 73.9695C185.027 73.9695 189.178 73.1497 192.182 71.7834C193.083 71.4008 193.93 70.8816 194.722 70.3078ZM197.535 65.4984C197.535 62.6565 195.077 60.5251 192.127 59.1861C189.069 57.8198 184.972 57 180.548 57C176.124 57 171.973 57.8198 168.969 59.1861C166.074 60.5251 163.562 62.6292 163.562 65.4984V90.9662C163.562 93.8355 166.019 95.9396 168.969 97.2785C172.028 98.6448 176.124 99.4646 180.548 99.4646C184.972 99.4646 189.096 98.6448 192.127 97.2785C195.022 95.9396 197.535 93.8355 197.535 90.9662V65.4984ZM194.722 78.8062V82.4952C194.722 83.5609 193.711 84.9545 191.008 86.2115C188.441 87.3865 184.754 88.179 180.603 88.179C176.452 88.179 172.792 87.3865 170.198 86.2115C167.467 84.9545 166.484 83.5609 166.484 82.4952V78.8062C167.276 79.38 168.122 79.8719 169.023 80.2818C172.082 81.6481 176.179 82.4678 180.603 82.4678C185.027 82.4678 189.178 81.6481 192.182 80.2818C193.083 79.8992 193.93 79.38 194.722 78.8062ZM194.722 87.3045V90.9935C194.722 92.0593 193.711 93.4529 191.008 94.7099C188.441 95.8849 184.754 96.6774 180.603 96.6774C176.452 96.6774 172.792 95.8849 170.198 94.7099C167.467 93.4529 166.484 92.0593 166.484 90.9935V87.3045C167.276 87.8784 168.122 88.3703 169.023 88.7801C172.082 90.1464 176.179 90.9662 180.603 90.9662C185.027 90.9662 189.178 90.1464 192.182 88.7801C193.083 88.3429 193.984 87.8784 194.722 87.3045Z" fill="#006E58"/>
<path d="M167.302 109.603C169.897 108.428 173.556 107.635 177.707 107.635C181.858 107.635 185.518 108.428 188.112 109.603C190.843 110.86 191.826 112.253 191.826 113.319C191.826 114.385 190.816 115.778 188.112 117.035C185.518 118.21 181.858 119.003 177.707 119.003C173.556 119.003 169.897 118.21 167.302 117.035C164.571 115.778 163.588 114.385 163.588 113.319C163.588 112.253 164.599 110.86 167.302 109.603ZM191.854 118.128V121.817C191.854 122.883 190.843 124.277 188.14 125.534C185.572 126.709 181.886 127.501 177.735 127.501C173.584 127.501 169.924 126.709 167.33 125.534C164.599 124.277 163.616 122.883 163.616 121.817V118.128C164.408 118.702 165.254 119.194 166.155 119.604C169.214 120.97 173.31 121.79 177.735 121.79C182.159 121.79 186.31 120.97 189.314 119.604C190.215 119.221 191.062 118.702 191.854 118.128ZM194.721 113.319C194.721 110.45 192.263 108.346 189.314 107.007C186.255 105.64 182.159 104.821 177.735 104.821C173.31 104.821 169.159 105.64 166.155 107.007C163.261 108.346 160.748 110.45 160.748 113.319V138.787C160.748 141.629 163.206 143.76 166.155 145.099C169.214 146.465 173.31 147.285 177.735 147.285C182.159 147.285 186.31 146.465 189.314 145.099C192.209 143.76 194.721 141.656 194.721 138.787V113.319ZM191.854 126.627V130.316C191.854 131.381 190.843 132.775 188.14 134.032C185.572 135.207 181.886 135.999 177.735 135.999C173.584 135.999 169.924 135.207 167.33 134.032C164.599 132.775 163.616 131.381 163.616 130.316V126.627C164.408 127.201 165.254 127.692 166.155 128.102C169.214 129.469 173.31 130.288 177.735 130.288C182.159 130.288 186.31 129.469 189.314 128.102C190.215 127.72 191.062 127.201 191.854 126.627ZM191.854 135.125V138.814C191.854 139.88 190.843 141.273 188.14 142.53C185.572 143.705 181.886 144.498 177.735 144.498C173.584 144.498 169.924 143.705 167.33 142.53C164.599 141.273 163.616 139.88 163.616 138.814V135.125C164.408 135.699 165.254 136.191 166.155 136.601C169.214 137.967 173.31 138.787 177.735 138.787C182.159 138.787 186.31 137.967 189.314 136.601C190.215 136.163 191.116 135.699 191.854 135.125Z" fill="#006E58"/>
<path d="M435.295 71.93H414.624C402.451 71.93 392.578 62.2509 392.578 50.421C392.578 40.5169 399.327 32.0384 409.05 29.5623C410 24.9104 413.049 20.1584 417.399 16.3568C423.123 11.4048 430.496 8.67862 438.045 8.6286C453.317 8.6286 465.94 19.5832 467.714 34.2393C476.813 35.915 483.536 43.8183 483.536 52.9221C483.536 63.3764 474.788 71.93 464.09 71.93H435.245H435.32H435.295ZM438.12 10.7545C431.021 10.7545 424.197 13.3306 418.823 17.9825C414.599 21.609 411.775 26.2359 411.05 30.6128L410.925 31.3131L410.225 31.4881C401.102 33.514 394.703 41.3172 394.703 50.471C394.703 61.2005 403.676 69.9041 414.674 69.9041H464.165C473.713 69.9041 481.537 62.326 481.537 53.0221C481.537 44.6686 475.138 37.4906 466.714 36.2901L465.89 36.1901L465.815 35.3647C464.49 21.3839 452.592 10.8545 438.145 10.8545V10.7795L438.12 10.7545Z" fill="#00AD92"/>
<path d="M434.67 40.2918C434.045 40.2918 433.521 40.792 433.521 41.4423V48.2701C433.521 48.8954 434.02 49.4206 434.67 49.4206H441.494C442.119 49.4206 442.644 48.9204 442.644 48.2701V41.4423C442.644 40.817 442.144 40.2918 441.494 40.2918H434.67Z" fill="#00AD92"/>
<path d="M432.396 27.7616C432.396 27.1363 431.896 26.6111 431.246 26.6111C430.596 26.6111 430.096 27.1113 430.096 27.7616V31.188C426.972 31.188 424.397 33.7391 424.397 36.8904H420.973C420.348 36.8904 419.823 37.3906 419.823 38.0408C419.823 38.6911 420.323 39.1913 420.973 39.1913H424.397V41.4673H420.973C420.348 41.4673 419.823 41.9675 419.823 42.6178C419.823 43.268 420.323 43.7682 420.973 43.7682H424.397V46.0442H420.973C420.348 46.0442 419.823 46.5444 419.823 47.1947C419.823 47.8449 420.323 48.3451 420.973 48.3451H424.397V50.6211H420.973C420.348 50.6211 419.823 51.1213 419.823 51.7716C419.823 52.4218 420.323 52.922 420.973 52.922H424.397C424.397 56.0483 426.947 58.6244 430.096 58.6244V62.0508C430.096 62.6761 430.596 63.2013 431.246 63.2013C431.896 63.2013 432.396 62.7011 432.396 62.0508V58.6244H434.67V62.0508C434.67 62.6761 435.17 63.2013 435.82 63.2013C436.47 63.2013 436.97 62.7011 436.97 62.0508V58.6244H439.245V62.0508C439.245 62.6761 439.745 63.2013 440.394 63.2013C441.044 63.2013 441.544 62.7011 441.544 62.0508V58.6244H443.819V62.0508C443.819 62.6761 444.319 63.2013 444.969 63.2013C445.618 63.2013 446.118 62.7011 446.118 62.0508V58.6244C449.243 58.6244 451.817 56.0734 451.817 52.922H455.242C455.867 52.922 456.391 52.4218 456.391 51.7716C456.391 51.1213 455.892 50.6211 455.242 50.6211H451.817V48.3451H455.242C455.867 48.3451 456.391 47.8449 456.391 47.1947C456.391 46.5444 455.892 46.0442 455.242 46.0442H451.817V43.7682H455.242C455.867 43.7682 456.391 43.268 456.391 42.6178C456.391 41.9675 455.892 41.4673 455.242 41.4673H451.817V39.1913H455.242C455.867 39.1913 456.391 38.6911 456.391 38.0408C456.391 37.3906 455.892 36.8904 455.242 36.8904H451.817C451.817 33.7641 449.268 31.188 446.118 31.188V27.7616C446.118 27.1363 445.618 26.6111 444.969 26.6111C444.319 26.6111 443.819 27.1113 443.819 27.7616V31.188H441.544V27.7616C441.544 27.1363 441.044 26.6111 440.394 26.6111C439.745 26.6111 439.245 27.1113 439.245 27.7616V31.188H436.97V27.7616C436.97 27.1363 436.47 26.6111 435.82 26.6111C435.17 26.6111 434.67 27.1113 434.67 27.7616V31.188H432.396V27.7616ZM434.67 38.0158H441.494C443.369 38.0158 444.919 39.5415 444.919 41.4423V48.2701C444.919 50.1459 443.394 51.6965 441.494 51.6965H434.67C432.796 51.6965 431.246 50.1709 431.246 48.2701V41.4423C431.246 39.5665 432.771 38.0158 434.67 38.0158Z" fill="#00AD92"/>
<g clip-path="url(#clip1_234_40987)">
<path d="M296.348 89.1055H246.653C244.244 89.1055 242.247 87.1528 242.247 84.7068V41.6247C242.247 39.1993 244.203 37.2466 246.653 37.2466H296.327C298.736 37.2466 300.732 39.1993 300.732 41.6042V84.6863C300.732 87.0911 298.777 89.0849 296.327 89.0849L296.348 89.1055ZM246.653 39.0143C245.211 39.0143 244.017 40.1859 244.017 41.6453V84.7274C244.017 86.1662 245.191 87.3583 246.653 87.3583H296.327C297.768 87.3583 298.962 86.1867 298.962 84.7274V41.6453C298.962 40.2065 297.789 39.0143 296.327 39.0143H246.653Z" fill="#FBBD00" stroke="#FBBD00" stroke-width="0.25" stroke-miterlimit="10"/>
<path d="M295.318 47.4005H243.152V49.1682H295.297V47.4005H295.318Z" fill="#FBBD00" stroke="#FBBD00" stroke-width="0.25" stroke-miterlimit="10"/>
<path d="M293.136 42.3236H291.612V44.0913H293.136V42.3236Z" fill="#FBBD00" stroke="#FBBD00" stroke-width="0.25" stroke-miterlimit="10"/>
<path d="M287.166 42.3236H285.561V44.0913H287.166V42.3236Z" fill="#FBBD00" stroke="#FBBD00" stroke-width="0.25" stroke-miterlimit="10"/>
<path d="M281.114 42.3236H279.508V44.0913H281.114V42.3236Z" fill="#FBBD00" stroke="#FBBD00" stroke-width="0.25" stroke-miterlimit="10"/>
<path d="M273.168 56.7528L268.062 79.3421L269.792 79.7327L274.897 57.1433L273.168 56.7528Z" fill="#FBBD00" stroke="#FBBD00" stroke-width="0.25" stroke-miterlimit="10"/>
<path d="M281.155 76.3001L280.022 74.964L287.701 68.3455L280.022 61.7064L281.155 60.3704L290.377 68.3455L281.155 76.3001Z" fill="#FBBD00" stroke="#FBBD00" stroke-width="0.25" stroke-miterlimit="10"/>
<path d="M261.804 76.3001L252.581 68.3455L261.804 60.3704L262.977 61.7064L255.298 68.3455L262.977 74.964L261.804 76.3001Z" fill="#FBBD00" stroke="#FBBD00" stroke-width="0.25" stroke-miterlimit="10"/>
</g>
<path d="M405.7 169.771C405.7 169.771 409.025 169.771 409.025 166.444C409.025 163.118 405.7 153.139 392.403 153.139C379.105 153.139 375.781 163.118 375.781 166.444C375.781 169.771 379.105 169.771 379.105 169.771H405.7ZM379.18 166.444H379.105C379.105 165.544 379.655 162.993 381.63 160.717C383.454 158.566 386.679 156.465 392.403 156.465C398.127 156.465 401.326 158.566 403.176 160.717C405.15 163.018 405.7 165.569 405.7 166.444H405.675H405.625H379.18ZM392.403 146.486C396.077 146.486 399.052 143.51 399.052 139.833C399.052 136.157 396.077 133.18 392.403 133.18C388.729 133.18 385.754 136.157 385.754 139.833C385.754 143.51 388.729 146.486 392.403 146.486ZM402.376 139.833C402.376 145.336 397.902 149.812 392.403 149.812C386.904 149.812 382.43 145.336 382.43 139.833C382.43 134.331 386.904 129.854 392.403 129.854C397.902 129.854 402.376 134.331 402.376 139.833ZM378.88 154.064C377.556 153.639 376.181 153.364 374.781 153.239C374.006 153.164 373.206 153.114 372.431 153.139C359.134 153.139 355.81 163.118 355.81 166.444C355.81 168.67 356.909 169.771 359.134 169.771H373.156C372.656 168.72 372.406 167.595 372.431 166.444C372.431 163.093 373.681 159.642 376.056 156.79C376.856 155.815 377.806 154.89 378.88 154.064ZM372.182 156.465C370.207 159.416 369.157 162.893 369.132 166.444H359.159C359.159 165.569 359.709 163.018 361.683 160.717C363.508 158.591 366.633 156.54 372.182 156.465ZM360.809 141.484C360.809 135.982 365.283 131.505 370.782 131.505C376.281 131.505 380.755 135.982 380.755 141.484C380.755 146.986 376.281 151.463 370.782 151.463C365.283 151.463 360.809 146.986 360.809 141.484ZM370.782 134.831C367.107 134.831 364.133 137.807 364.133 141.484C364.133 145.16 367.107 148.137 370.782 148.137C374.456 148.137 377.431 145.16 377.431 141.484C377.431 137.807 374.456 134.831 370.782 134.831Z" fill="#3C3C7C"/>
</g>
<defs>
<clipPath id="clip0_234_40987">
<rect width="543" height="300" fill="white"/>
</clipPath>
<clipPath id="clip1_234_40987">
<rect width="59" height="52.3521" fill="white" transform="translate(242 37)"/>
</clipPath>
</defs>
</svg>
