<?xml version="1.0" encoding="utf-8"?>
<!-- Generator: Adobe Illustrator 25.2.1, SVG Export Plug-In . SVG Version: 6.00 Build 0)  -->
<svg version="1.1" id="Calque_1" xmlns="http://www.w3.org/2000/svg" xmlns:xlink="http://www.w3.org/1999/xlink" x="0px" y="0px"
	 viewBox="0 0 234.8 234.9" style="enable-background:new 0 0 234.8 234.9;" xml:space="preserve">
<style type="text/css">
	.st0{fill:#ED6E9C;}
	.st1{fill:#009767;}
</style>
<g>
	<g>
		<circle class="st0" cx="142.1" cy="68" r="6.2"/>
		<circle class="st0" cx="166.8" cy="92.7" r="6.2"/>
	</g>
	<g>
		<g>
			<g>
				<circle class="st1" cx="129.8" cy="105.1" r="6.2"/>
				<circle class="st1" cx="105" cy="55.6" r="6.2"/>
				<circle class="st1" cx="55.6" cy="68" r="6.2"/>
				<circle class="st1" cx="105" cy="68" r="6.2"/>
				<circle class="st1" cx="55.6" cy="80.4" r="6.2"/>
				<circle class="st1" cx="105" cy="80.4" r="6.2"/>
				<circle class="st1" cx="55.6" cy="92.7" r="6.2"/>
				<circle class="st1" cx="68" cy="92.7" r="6.2"/>
				<circle class="st1" cx="80.3" cy="92.7" r="6.2"/>
				<circle class="st1" cx="105" cy="92.7" r="6.2"/>
				<circle class="st1" cx="117.4" cy="92.7" r="6.2"/>
				<circle class="st1" cx="129.8" cy="92.7" r="6.2"/>
				<circle class="st1" cx="142.1" cy="92.7" r="6.2"/>
				<circle class="st1" cx="80.3" cy="105.1" r="6.2"/>
				<circle class="st1" cx="117.4" cy="105.1" r="6.2"/>
				<circle class="st1" cx="142.1" cy="105.1" r="6.2"/>
				<circle class="st1" cx="80.3" cy="117.4" r="6.2"/>
				<circle class="st1" cx="105" cy="117.4" r="6.2"/>
				<circle class="st1" cx="117.4" cy="117.4" r="6.2"/>
				<circle class="st1" cx="129.8" cy="117.4" r="6.2"/>
				<circle class="st1" cx="142.1" cy="117.4" r="6.2"/>
				<circle class="st1" cx="80.3" cy="129.8" r="6.2"/>
				<circle class="st1" cx="105" cy="129.8" r="6.2"/>
				<circle class="st1" cx="117.4" cy="129.8" r="6.2"/>
				<circle class="st1" cx="142.1" cy="129.8" r="6.2"/>
				<circle class="st1" cx="142.1" cy="142.2" r="6.2"/>
				<circle class="st1" cx="154.5" cy="142.2" r="6.2"/>
				<circle class="st1" cx="166.8" cy="142.2" r="6.2"/>
				<circle class="st1" cx="179.2" cy="142.2" r="6.2"/>
				<circle class="st1" cx="105" cy="154.5" r="6.2"/>
				<circle class="st1" cx="117.4" cy="154.5" r="6.2"/>
				<circle class="st1" cx="68" cy="166.9" r="6.2"/>
				<circle class="st1" cx="80.3" cy="166.9" r="6.2"/>
				<circle class="st1" cx="92.7" cy="166.9" r="6.2"/>
				<circle class="st1" cx="105" cy="166.9" r="6.2"/>
				<circle class="st1" cx="117.4" cy="166.9" r="6.2"/>
				<circle class="st1" cx="129.8" cy="166.9" r="6.2"/>
				<circle class="st1" cx="68" cy="179.3" r="6.2"/>
			</g>
			<circle class="st1" cx="105" cy="43.3" r="6.2"/>
			<circle class="st1" cx="55.6" cy="55.6" r="6.2"/>
			<circle class="st1" cx="92.7" cy="55.6" r="6.2"/>
			<circle class="st1" cx="117.4" cy="55.6" r="6.2"/>
			<circle class="st1" cx="43.3" cy="68" r="6.2"/>
			<circle class="st1" cx="68" cy="68" r="6.2"/>
			<circle class="st1" cx="154.5" cy="68" r="6.2"/>
			<circle class="st1" cx="129.8" cy="80.4" r="6.2"/>
			<circle class="st1" cx="142.1" cy="80.4" r="6.2"/>
			<circle class="st1" cx="154.5" cy="80.4" r="6.2"/>
			<circle class="st1" cx="166.8" cy="80.4" r="6.2"/>
			<circle class="st1" cx="154.5" cy="92.7" r="6.2"/>
			<circle class="st1" cx="105" cy="105.1" r="6.2"/>
			<circle class="st1" cx="154.5" cy="105.1" r="6.2"/>
			<circle class="st1" cx="92.7" cy="117.4" r="6.2"/>
			<circle class="st1" cx="92.7" cy="129.8" r="6.2"/>
			<circle class="st1" cx="129.8" cy="129.8" r="6.2"/>
			<circle class="st1" cx="179.2" cy="129.8" r="6.2"/>
			<circle class="st1" cx="92.7" cy="142.2" r="6.2"/>
			<circle class="st1" cx="105" cy="142.2" r="6.2"/>
			<circle class="st1" cx="117.4" cy="142.2" r="6.2"/>
			<circle class="st1" cx="191.5" cy="142.2" r="6.2"/>
			<circle class="st1" cx="179.2" cy="154.5" r="6.2"/>
			<circle class="st1" cx="55.6" cy="179.3" r="6.2"/>
			<circle class="st1" cx="80.3" cy="179.3" r="6.2"/>
			<circle class="st1" cx="68" cy="191.6" r="6.2"/>
		</g>
	</g>
</g>
</svg>
