<svg width="507" height="450" viewBox="0 0 507 450" fill="none" xmlns="http://www.w3.org/2000/svg">
<g clip-path="url(#clip0_349_6659)">
<path d="M469.874 303.822C467.32 299.857 463.021 297.647 458.576 297.647C456.242 297.647 453.872 298.261 451.723 299.538C447.486 302.054 445.14 306.522 445.14 311.114C445.14 313.446 445.754 315.803 447.019 317.951C449.537 322.186 454.007 324.531 458.6 324.531C459.227 324.531 459.853 324.482 460.492 324.383L471.287 365.937C470.648 366.133 470.009 366.403 469.408 366.759C466.644 368.404 465.109 371.326 465.109 374.321C465.109 375.843 465.502 377.39 466.337 378.789C467.983 381.563 470.906 383.098 473.902 383.098C475.425 383.098 476.973 382.705 478.385 381.87C481.148 380.225 482.683 377.304 482.683 374.309C482.683 372.786 482.29 371.24 481.455 369.828C479.81 367.066 476.887 365.531 473.89 365.531C473.288 365.531 472.699 365.617 472.097 365.74L461.314 324.236C462.739 323.942 464.139 323.438 465.453 322.665C469.69 320.148 472.036 315.68 472.036 311.089C472.036 308.867 471.471 306.621 470.304 304.546M487.756 156.637L492.336 119.049C492.742 119.086 493.147 119.123 493.552 119.123C495.886 119.123 498.256 118.521 500.405 117.245C504.642 114.728 506.988 110.26 506.988 105.669C506.988 103.336 506.386 100.967 505.109 98.8188C504.789 98.2787 504.446 97.7877 504.065 97.3089L503.5 96.6829C500.909 93.8226 497.273 92.2391 493.528 92.2391C491.194 92.2391 488.824 92.8529 486.675 94.1295C484.575 95.3816 482.929 97.1125 481.811 99.1012L442.438 78.5763C442.966 77.4224 443.261 76.158 443.261 74.8936C443.261 73.3714 442.868 71.8247 442.033 70.413C440.387 67.651 437.464 66.1165 434.468 66.1165C432.945 66.1165 431.398 66.5094 429.985 67.3564C427.222 69.0013 425.675 71.9229 425.675 74.9182C425.675 76.4403 426.068 77.9871 426.903 79.3865C428.548 82.1485 431.471 83.6952 434.468 83.6952C435.991 83.6952 437.538 83.3024 438.951 82.4677C440.277 81.682 441.321 80.5895 442.045 79.3374L481.431 99.8745C480.547 101.704 480.068 103.692 480.068 105.718C480.068 108.013 480.657 110.321 481.897 112.445L460.418 125.825C458.097 122.474 454.609 119.896 450.335 118.816C448.886 118.448 447.412 118.263 445.975 118.263C438.128 118.263 430.98 123.554 428.954 131.497C428.585 132.957 428.413 134.418 428.413 135.854C428.413 141.538 431.201 146.853 435.77 150.119L420.836 174.118C418.601 172.792 416.145 171.736 413.492 171.049C411.183 170.459 408.862 170.177 406.59 170.177C394.149 170.177 382.826 178.561 379.608 191.144C379.559 191.34 379.522 191.524 379.486 191.721L325.252 178.328L325.326 178.095C325.805 176.229 326.026 174.351 326.026 172.497C326.026 162.419 319.222 153.237 309.017 150.634C307.138 150.155 305.271 149.935 303.416 149.935C302.802 149.935 302.188 149.959 301.574 150.008L300.616 74.9304C300.776 74.9304 300.936 74.955 301.095 74.955C306.794 74.955 312.111 72.1562 315.378 67.5896L353.167 96.0445C352.123 97.6281 351.325 99.408 350.821 101.348C350.453 102.808 350.281 104.269 350.281 105.705C350.281 113.55 355.562 120.694 363.52 122.719C364.982 123.088 366.443 123.272 367.88 123.272C375.727 123.272 382.875 117.981 384.901 110.039C385.27 108.59 385.454 107.129 385.454 105.681C385.454 97.8368 380.161 90.6924 372.215 88.6669C371.564 88.5073 370.913 88.3845 370.275 88.2986L371.233 66.1656C372.755 66.1656 374.303 65.7728 375.715 64.9381C378.478 63.2931 380.014 60.3715 380.014 57.3763C380.014 55.8541 379.621 54.3074 378.785 52.8957C377.14 50.1337 374.217 48.5992 371.22 48.5992C369.697 48.5992 368.15 48.992 366.738 49.8391C363.974 51.484 362.439 54.4056 362.439 57.4008C362.439 58.923 362.832 60.4697 363.667 61.8692C365.153 64.3734 367.696 65.8587 370.397 66.1165L369.44 88.2127C368.911 88.1636 368.383 88.1145 367.868 88.1145C362.218 88.1145 356.95 90.8642 353.671 95.3571L315.87 66.9022C316.877 65.3432 317.65 63.6123 318.141 61.7219C318.51 60.2733 318.682 58.8125 318.682 57.364C318.682 49.5199 313.389 42.3755 305.443 40.35C303.981 39.9817 302.52 39.7976 301.083 39.7976C299.487 39.7976 297.915 40.0308 296.404 40.4482L292.621 26.2207C293.567 25.9139 294.5 25.5333 295.385 25.0055C299.622 22.489 301.967 18.0206 301.967 13.4295C301.967 11.0972 301.366 8.74025 300.088 6.57974C297.583 2.34465 293.1 0 288.52 0C286.186 0 283.816 0.613781 281.667 1.89045C277.43 4.40695 275.084 8.87528 275.084 13.4664C275.084 13.7242 275.121 13.9697 275.133 14.2275L253.076 17.947C252.892 17.0017 252.561 16.0565 252.032 15.1727C250.387 12.4107 247.464 10.8762 244.467 10.8762C242.944 10.8762 241.397 11.269 239.985 12.116C237.221 13.761 235.674 16.6826 235.674 19.6778C235.674 21.2 236.067 22.7467 236.902 24.1462C238.548 26.9205 241.471 28.4549 244.467 28.4549C245.99 28.4549 247.538 28.0621 248.95 27.2273C251.713 25.5824 253.248 22.6608 253.248 19.6656C253.248 19.3709 253.224 19.0763 253.187 18.7817L275.17 15.0745C275.391 16.8667 275.968 18.659 276.951 20.3162C279.468 24.5513 283.939 26.9082 288.532 26.9082C289.625 26.9082 290.73 26.7609 291.823 26.4908L295.606 40.7183C290.091 42.5351 285.597 47.0279 284.061 53.0675C283.693 54.5283 283.521 55.9891 283.521 57.4254C283.521 61.9674 285.302 66.2638 288.335 69.4801L258.517 107.08C256.306 105.497 253.789 104.281 250.989 103.569C249.109 103.091 247.23 102.87 245.388 102.87C235.306 102.87 226.119 109.67 223.516 119.872C223.037 121.75 222.803 123.628 222.803 125.469C222.803 130.146 224.277 134.615 226.868 138.334L205.094 154.918C202.491 151.714 198.622 149.947 194.655 149.947C192.322 149.947 189.952 150.561 187.802 151.837C183.565 154.354 181.22 158.822 181.22 163.413C181.22 165.746 181.821 168.102 183.099 170.251C184.4 172.436 186.23 174.105 188.318 175.235L161.607 229.026L125.758 211.067C126.262 209.852 126.704 208.6 127.036 207.286C127.625 204.978 127.907 202.671 127.907 200.387C127.907 187.964 119.52 176.634 106.919 173.418C104.61 172.829 102.289 172.546 100.017 172.546C87.5764 172.546 76.2533 180.93 73.0356 193.513C72.4461 195.821 72.1637 198.141 72.1637 200.424C72.1637 207.458 74.8532 214.136 79.4709 219.194L51.0156 248.446C48.412 246.139 45.2435 244.383 41.6329 243.463C39.7539 242.984 37.8749 242.763 36.0327 242.763C34.7186 242.763 33.4168 242.886 32.1396 243.107L95.3381 129.864C97.1311 131.202 99.1943 132.221 101.491 132.81C102.94 133.178 104.414 133.362 105.838 133.362C113.686 133.362 120.834 128.072 122.86 120.129C123.228 118.669 123.4 117.208 123.4 115.771C123.4 107.927 118.107 100.783 110.161 98.7574C108.712 98.3892 107.238 98.205 105.802 98.205C97.9539 98.205 90.8063 103.496 88.78 111.438C88.4115 112.899 88.2273 114.36 88.2273 115.796C88.2273 116.262 88.2519 116.729 88.2887 117.195L26.7482 123.64C26.5149 121.909 25.9377 120.191 24.992 118.595C23.7148 116.447 21.934 114.789 19.8831 113.672L38.6486 76.735C39.7784 77.2383 41.0065 77.5206 42.2469 77.5206C43.7698 77.5206 45.3172 77.1278 46.7295 76.293C49.4928 74.6481 51.0279 71.7265 51.0279 68.7312C51.0279 67.2091 50.6349 65.6623 49.7998 64.2506C48.1541 61.4886 45.2312 59.9542 42.2346 59.9542C40.7118 59.9542 39.1644 60.347 37.7521 61.194C34.9888 62.8389 33.4414 65.7605 33.4414 68.7558C33.4414 70.278 33.8344 71.8247 34.6695 73.2241C35.4801 74.5867 36.5976 75.6424 37.8871 76.379L19.1216 113.329C17.3409 112.494 15.3882 112.027 13.4109 112.027C11.0775 112.027 8.70729 112.641 6.5581 113.918C2.35797 116.373 0 120.841 0 125.432C0 127.752 0.614054 130.122 1.87901 132.27C4.39663 136.505 8.86694 138.85 13.4601 138.85C14.0004 138.85 14.5531 138.813 15.0935 138.739L27.0429 215.658L27.2149 216.788L31.3168 243.217C25.9991 244.359 21.234 247.403 17.9549 251.773L17.4637 252.448C15.9777 254.597 14.8355 257.027 14.1601 259.703C13.6811 261.581 13.4478 263.46 13.4478 265.301C13.4478 268.984 14.3566 272.531 16.0023 275.698L16.4075 276.435C19.3304 281.591 24.2551 285.592 30.4571 287.176C32.3238 287.655 34.2028 287.876 36.0573 287.876C40.8469 287.876 45.4154 286.329 49.1857 283.628L98.4697 345.743C91.8134 352.335 88.6203 362.107 90.9169 371.89C91.4572 374.21 92.2801 376.395 93.3362 378.409C99.0838 389.432 111.746 395.607 124.42 392.636C126.741 392.096 128.927 391.273 130.941 390.218C141.969 384.473 148.147 371.816 145.175 359.16C144.634 356.84 143.811 354.655 142.755 352.63C139.034 345.485 132.39 340.403 124.751 338.5L132.587 299.489C134.859 299.894 137.253 299.857 139.648 299.292C141.11 298.948 142.485 298.433 143.762 297.77C150.713 294.149 154.619 286.157 152.74 278.178C152.691 277.957 152.605 277.748 152.543 277.527L190.787 266.013C193.992 273.931 200.783 280.289 209.712 282.56C212.021 283.15 214.342 283.432 216.614 283.432C225.665 283.432 234.114 278.976 239.297 271.709L279.37 297.07C278.105 299.243 277.098 301.624 276.447 304.19C275.858 306.498 275.575 308.818 275.575 311.101C275.575 322.824 283.042 333.566 294.476 337.445L277.307 400.603C275.895 400.259 274.482 400.087 273.094 400.087C267.163 400.087 261.648 403.107 258.419 408.005L215.791 381.404C218.186 377.291 218.173 372.406 216.11 368.441C215.029 366.378 213.396 364.562 211.271 363.236C207.084 360.646 202.036 360.621 197.959 362.745C195.896 363.825 194.078 365.445 192.764 367.569C190.173 371.755 190.148 376.813 192.273 380.876C193.353 382.951 194.987 384.767 197.111 386.081C197.271 386.179 197.431 386.24 197.59 386.339L177.584 424.467C175.055 423.288 172.181 423.399 169.811 424.639C168.46 425.338 167.268 426.406 166.409 427.793C164.714 430.531 164.702 433.833 166.089 436.497C166.802 437.847 167.858 439.038 169.258 439.897C171.997 441.591 175.3 441.603 177.953 440.216C179.304 439.517 180.495 438.449 181.355 437.061C183.05 434.336 183.062 431.034 181.674 428.37C180.962 427.02 179.893 425.829 178.506 424.97L178.321 424.872L198.327 386.744C202.257 388.646 206.74 388.511 210.424 386.584C212.365 385.578 214.059 384.068 215.361 382.128L258.001 408.742C257.166 410.141 256.515 411.676 256.085 413.345C255.717 414.806 255.545 416.267 255.545 417.703C255.545 425.547 260.826 432.691 268.784 434.717C270.233 435.085 271.707 435.269 273.131 435.269C280.979 435.269 288.126 429.978 290.153 422.036C290.521 420.588 290.706 419.115 290.706 417.678C290.706 415.886 290.423 414.143 289.895 412.473L361.985 388.155C364.453 394.919 370.103 400.394 377.619 402.309C379.498 402.788 381.365 403.009 383.219 403.009C388.893 403.009 394.284 400.861 398.374 397.153L420.566 420.538C418.65 422.613 417.213 425.166 416.464 428.1C416.095 429.561 415.923 431.022 415.923 432.458C415.923 440.302 421.204 447.447 429.163 449.472C430.612 449.84 432.085 450.025 433.51 450.025C441.358 450.025 448.505 444.734 450.532 436.791C450.9 435.331 451.072 433.87 451.072 432.434C451.072 424.589 445.791 417.445 437.833 415.42C436.384 415.051 434.91 414.867 433.473 414.867C428.806 414.867 424.385 416.758 421.143 419.949L398.963 396.576C401.837 393.778 404.023 390.181 405.092 386.007C405.571 384.141 405.792 382.263 405.792 380.409C405.792 370.331 398.988 361.149 388.782 358.547C386.903 358.068 385.037 357.847 383.182 357.847C376.649 357.847 370.508 360.707 366.283 365.482L324.393 329.502C327.205 326.299 329.354 322.419 330.472 318.012C331.061 315.705 331.344 313.397 331.344 311.114C331.344 302.079 326.898 293.645 319.64 288.465L335.433 267.486C337.668 269.106 340.235 270.358 343.084 271.083C344.963 271.561 346.83 271.782 348.685 271.782C358.767 271.782 367.954 264.994 370.569 254.768C371.048 252.902 371.269 251.024 371.269 249.171C371.269 243.819 369.341 238.736 366.013 234.735L386.056 216.8C389.593 220.691 394.284 223.637 399.774 225.037C402.083 225.626 404.404 225.908 406.676 225.908C419.117 225.908 430.44 217.524 433.657 204.929C434.247 202.622 434.529 200.314 434.529 198.03C434.529 188.505 429.592 179.642 421.61 174.559L436.519 150.597C438.079 151.604 439.81 152.39 441.714 152.868C443.175 153.237 444.637 153.421 446.074 153.421C452.423 153.421 458.318 149.947 461.413 144.41L486.896 157.153L483.764 182.882C483.42 182.845 483.064 182.821 482.708 182.821C481.185 182.821 479.638 183.214 478.225 184.061C475.462 185.706 473.927 188.627 473.927 191.623C473.927 193.145 474.32 194.691 475.155 196.091C476.801 198.853 479.724 200.4 482.72 200.4C484.243 200.4 485.791 200.007 487.203 199.172C489.966 197.527 491.501 194.606 491.501 191.61C491.501 190.088 491.108 188.541 490.273 187.13C488.984 184.945 486.884 183.545 484.587 183.042L487.694 157.558M442.045 78.3553L440.166 77.3733C440.94 75.6056 440.891 73.5065 439.835 71.7142C438.079 68.7681 434.271 67.7983 431.324 69.5414C428.376 71.2969 427.406 75.1023 429.15 78.0485C430.906 80.9946 434.701 81.9766 437.661 80.2212C438.557 79.6811 439.258 78.9446 439.761 78.1098L441.652 79.0919C440.965 80.2703 439.982 81.2892 438.729 82.038C437.403 82.8237 435.929 83.2042 434.492 83.2042C431.656 83.2042 428.88 81.7434 427.32 79.1287C426.534 77.8029 426.154 76.3421 426.154 74.8936C426.154 72.0579 427.603 69.2837 430.231 67.7369C431.557 66.9513 433.031 66.5707 434.468 66.5707C437.305 66.5707 440.068 68.0315 441.628 70.6462C442.414 71.972 442.794 73.4451 442.794 74.8813C442.794 76.0844 442.524 77.2628 442.021 78.3553H442.045ZM364.073 61.6114C363.287 60.2856 362.906 58.8248 362.906 57.3763C362.906 54.5406 364.355 51.7663 366.983 50.2196C368.322 49.434 369.783 49.0534 371.22 49.0534C374.057 49.0534 376.82 50.5142 378.38 53.1289C379.166 54.4547 379.547 55.9278 379.547 57.364C379.547 60.1997 378.098 62.974 375.47 64.5207C374.143 65.3064 372.682 65.6869 371.245 65.6869L371.331 63.5509C372.375 63.5387 373.431 63.2809 374.389 62.7039C377.336 60.9608 378.306 57.1431 376.55 54.1969C374.794 51.2508 370.987 50.281 368.04 52.0241C365.092 53.7795 364.11 57.585 365.866 60.5311C366.897 62.262 368.629 63.2809 370.483 63.5018L370.397 65.6255C367.855 65.3677 365.461 63.9683 364.06 61.5991L364.073 61.6114ZM367.868 88.6669C368.383 88.6669 368.899 88.716 369.415 88.7651L369.219 93.2089C364.662 92.7178 360.266 94.7556 357.674 98.3646L354.113 95.6885C357.281 91.3307 362.39 88.6669 367.868 88.6669ZM357.195 99.0521C356.532 100.12 356.029 101.298 355.697 102.563C353.978 109.29 358.043 116.115 364.76 117.834C371.491 119.552 378.331 115.489 380.038 108.762C381.758 102.047 377.692 95.2098 370.975 93.4912C370.668 93.4175 370.361 93.3562 370.054 93.3071L370.25 88.8265C370.864 88.9124 371.478 89.0229 372.08 89.1702C379.768 91.1343 384.889 98.0577 384.901 105.644C384.901 107.031 384.73 108.455 384.373 109.855C382.408 117.551 375.482 122.67 367.892 122.67C366.504 122.67 365.092 122.499 363.68 122.143C355.98 120.178 350.858 113.255 350.858 105.669C350.858 104.281 351.03 102.857 351.399 101.446C351.878 99.5799 352.651 97.8736 353.646 96.3391L357.22 99.0275L357.195 99.0521ZM248.717 26.7977C247.39 27.5833 245.916 27.9639 244.48 27.9639C241.643 27.9639 238.867 26.5154 237.307 23.8884C236.521 22.5626 236.141 21.1018 236.141 19.6533C236.141 16.8176 237.59 14.0433 240.218 12.4966C241.544 11.711 243.018 11.3304 244.455 11.3304C247.292 11.3304 250.055 12.7912 251.615 15.4059C252.106 16.2407 252.425 17.1245 252.597 18.0206L250.497 18.3766C250.362 17.726 250.141 17.0877 249.785 16.4862C248.029 13.54 244.222 12.5702 241.274 14.3134C238.327 16.0688 237.344 19.8742 239.1 22.8204C240.857 25.7665 244.664 26.7486 247.611 24.9932C249.699 23.7533 250.767 21.4701 250.608 19.1991L252.708 18.8431C252.732 19.1132 252.757 19.3709 252.757 19.641C252.757 22.4767 251.308 25.251 248.68 26.7977H248.717ZM288.544 26.1716C284.197 26.1716 279.96 23.9498 277.577 19.9356C276.644 18.3521 276.091 16.658 275.895 14.9394L279.088 14.3993C279.223 15.7374 279.628 17.0508 280.365 18.2784C282.563 21.9734 286.862 23.6429 290.828 22.6485L291.651 25.7543C290.632 26.0121 289.588 26.1471 288.544 26.1471V26.1716ZM291.627 22.4276C292.228 22.2189 292.818 21.9488 293.383 21.6174C297.89 18.9413 299.376 13.1104 296.699 8.59294C294.021 4.08778 288.2 2.60243 283.681 5.27852C280.647 7.07076 278.989 10.287 279.039 13.5646L275.845 14.1047C275.833 13.8837 275.809 13.6751 275.809 13.4664C275.809 9.12079 278.031 4.8857 282.047 2.50423C284.086 1.28894 286.321 0.711986 288.532 0.711986C292.879 0.711986 297.116 2.93388 299.487 6.94801C300.702 8.98576 301.267 11.2199 301.267 13.4295C301.267 17.7751 299.044 22.0102 295.041 24.3917C294.206 24.8827 293.346 25.251 292.462 25.5333L291.639 22.4398L291.627 22.4276ZM35.0993 72.9295C34.3134 71.6037 33.9326 70.1429 33.9326 68.6944C33.9326 65.8587 35.3941 63.0845 38.01 61.5377C39.3486 60.7521 40.81 60.3715 42.2469 60.3715C45.0839 60.3715 47.8594 61.8201 49.4068 64.4471C50.1928 65.7728 50.5735 67.2459 50.5735 68.6821C50.5735 71.5178 49.1121 74.2921 46.4962 75.8388C45.1575 76.6245 43.6961 77.005 42.2592 77.005C41.0925 77.005 39.9381 76.7472 38.8696 76.2685L39.8276 74.378C41.5838 75.1268 43.6593 75.0655 45.4277 74.022C48.3752 72.2789 49.3454 68.4612 47.5892 65.515C45.833 62.5689 42.0259 61.5991 39.0784 63.3422C36.1309 65.0977 35.1485 68.9031 36.9047 71.8493C37.4573 72.7699 38.2187 73.4819 39.0784 73.9852L38.1082 75.8879C36.9047 75.2005 35.8485 74.1939 35.0871 72.9172L35.0993 72.9295ZM178.358 425.154L178.235 425.351C179.549 426.161 180.557 427.29 181.232 428.567C182.546 431.083 182.534 434.201 180.925 436.804C180.102 438.117 178.985 439.124 177.707 439.799C175.19 441.112 172.058 441.1 169.467 439.492C168.153 438.67 167.146 437.553 166.47 436.276C165.156 433.759 165.168 430.629 166.777 428.039C167.588 426.725 168.718 425.719 169.995 425.056C172.23 423.89 174.944 423.779 177.339 424.884L176.344 426.775C173.556 425.535 170.216 426.492 168.57 429.156C166.765 432.065 167.649 435.895 170.572 437.712C173.483 439.517 177.314 438.608 179.12 435.699C180.925 432.79 180.028 428.96 177.118 427.155H177.093L178.076 425.277L178.223 425.363L178.346 425.166L178.358 425.154ZM210.056 385.934C206.58 387.75 202.343 387.885 198.634 386.093L200.133 383.245C204.308 385.209 209.343 383.871 211.996 380.017L214.735 381.723C213.507 383.552 211.91 384.976 210.068 385.921L210.056 385.934ZM215.165 381.023L212.426 379.317C214.919 374.91 213.519 369.275 209.171 366.587C204.701 363.813 198.855 365.2 196.092 369.656C193.329 374.112 194.692 379.968 199.162 382.73L199.383 382.852L197.885 385.7C197.738 385.614 197.59 385.553 197.455 385.467C195.441 384.215 193.894 382.496 192.874 380.544C190.86 376.69 190.885 371.902 193.341 367.95C194.594 365.936 196.301 364.402 198.266 363.383C202.122 361.37 206.899 361.395 210.866 363.85C212.88 365.102 214.428 366.82 215.447 368.772C217.4 372.516 217.412 377.132 215.152 381.023H215.165ZM423.992 424.172C422.739 425.608 421.782 427.339 421.278 429.316C419.559 436.043 423.624 442.88 430.341 444.586C437.072 446.305 443.912 442.242 445.619 435.527C447.326 428.812 443.273 421.975 436.543 420.256C432.085 419.115 427.578 420.538 424.545 423.571L421.475 420.33C424.618 417.236 428.892 415.407 433.424 415.407C434.812 415.407 436.236 415.579 437.649 415.935C445.337 417.899 450.47 424.823 450.47 432.409C450.47 433.796 450.298 435.22 449.942 436.62C447.977 444.316 441.051 449.435 433.461 449.435C432.073 449.435 430.661 449.263 429.248 448.907C421.548 446.943 416.427 440.032 416.427 432.434C416.427 431.046 416.599 429.622 416.967 428.211C417.692 425.387 419.08 422.92 420.91 420.919L423.992 424.172ZM380.48 191.353C383.587 179.163 394.567 171.049 406.602 171.049C408.813 171.049 411.048 171.319 413.295 171.896C415.862 172.546 418.232 173.565 420.394 174.854L416.66 180.857C415.101 179.948 413.394 179.212 411.551 178.745C400.891 176.033 390.047 182.465 387.321 193.108C387.272 193.28 387.259 193.452 387.223 193.623L380.357 191.929C380.407 191.745 380.431 191.549 380.48 191.365V191.353ZM303.429 150.622C305.222 150.622 307.039 150.843 308.857 151.309C318.743 153.826 325.326 162.726 325.326 172.485C325.326 174.277 325.105 176.094 324.638 177.898L324.564 178.132L319.001 176.757L319.087 176.474C321.285 167.845 316.078 159.055 307.432 156.846C305.492 156.355 303.552 156.244 301.66 156.453L301.587 150.683C302.201 150.634 302.802 150.61 303.416 150.61L303.429 150.622ZM324.331 178.942C322.526 184.822 318.436 189.425 313.278 192.015L310.355 187.081C314.224 185.239 317.331 181.888 318.756 177.567L324.331 178.942ZM309.582 187.412L312.529 192.384C309.717 193.673 306.634 194.372 303.453 194.372C301.66 194.372 299.855 194.151 298.037 193.685C293.862 192.617 290.288 190.42 287.537 187.498L291.577 183.422C293.628 185.644 296.306 187.326 299.45 188.136C302.95 189.032 306.474 188.689 309.582 187.412ZM300.837 156.576C294.697 157.582 289.441 162.1 287.807 168.508C286.481 173.712 287.856 178.954 291.037 182.796L286.984 186.884C283.558 182.956 281.568 177.874 281.568 172.522C281.568 170.729 281.789 168.913 282.256 167.096C284.54 158.122 292.093 151.886 300.764 150.818L300.837 156.588V156.576ZM301.108 74.3903C300.948 74.3903 300.788 74.3658 300.629 74.3535L300.567 69.9097C304.878 70.0938 308.955 68.0315 311.387 64.5575L314.948 67.2336C311.78 71.6651 306.634 74.378 301.108 74.378V74.3903ZM301.095 40.3623C302.483 40.3623 303.908 40.5341 305.32 40.8901C313.008 42.8542 318.141 49.7777 318.141 57.364C318.141 58.7512 317.97 60.1751 317.613 61.5746C317.147 63.3913 316.398 65.0608 315.44 66.5585L311.866 63.8701C312.492 62.8389 312.983 61.6973 313.29 60.4697C314.998 53.755 310.945 46.9175 304.227 45.1989C302.004 44.6342 299.781 44.7078 297.718 45.2848L296.576 40.9761C298.037 40.571 299.56 40.35 301.108 40.35L301.095 40.3623ZM299.794 74.3044C298.836 74.2307 297.865 74.108 296.895 73.8625C293.923 73.1014 291.332 71.6037 289.281 69.6028L292.069 66.0797C293.641 67.7001 295.643 68.9399 298 69.5414C298.578 69.6888 299.155 69.7747 299.732 69.8361L299.794 74.3044ZM284.074 57.3886C284.074 56.0014 284.246 54.5774 284.614 53.1658C286.1 47.3348 290.435 42.9893 295.753 41.2216L296.895 45.5303C293.088 46.8806 289.993 50.0477 288.925 54.2583C287.881 58.3338 288.974 62.4461 291.492 65.4414L288.679 68.989C285.769 65.8833 284.074 61.7464 284.074 57.3763V57.3886ZM288.925 70.0447C291.049 72.0825 293.702 73.617 296.748 74.4026C297.767 74.6604 298.774 74.7954 299.781 74.8691L300.739 150.094C291.749 151.174 283.914 157.619 281.544 166.924C281.065 168.802 280.832 170.68 280.832 172.522C280.832 178.07 282.907 183.337 286.456 187.4L269.558 204.463L251.652 147.099C259.082 144.938 265.222 139.034 267.273 131.006C267.752 129.14 267.973 127.261 267.973 125.408C267.973 118.374 264.645 111.77 259.168 107.547L288.9 70.057L288.925 70.0447ZM258.75 108.087C264.068 112.187 267.286 118.57 267.286 125.396C267.286 127.188 267.064 129.005 266.598 130.809C264.608 138.604 258.664 144.325 251.455 146.399L249.748 140.936C255.115 139.427 259.561 135.192 261.047 129.397C262.692 122.928 260.187 116.373 255.189 112.568L258.738 108.087H258.75ZM250.657 146.632C248.962 147.05 247.206 147.283 245.413 147.283C243.62 147.283 241.815 147.062 239.997 146.596C234.974 145.319 230.811 142.385 227.925 138.53L232.481 135.056C234.618 137.917 237.7 140.089 241.409 141.035C243.964 141.685 246.53 141.673 248.938 141.133L250.657 146.62V146.632ZM223.528 125.432C223.528 123.64 223.749 121.823 224.216 120.007C226.733 110.125 235.637 103.545 245.401 103.545C247.194 103.545 249.011 103.766 250.829 104.232C253.518 104.92 255.95 106.086 258.087 107.608L254.525 112.101C253.015 111.07 251.308 110.26 249.417 109.781C240.783 107.584 231.977 112.801 229.779 121.431C228.6 126.058 229.558 130.711 232.027 134.394L227.458 137.868C224.965 134.271 223.54 129.95 223.54 125.445L223.528 125.432ZM205.61 156.858C206.813 158.896 207.391 161.13 207.391 163.34C207.391 167.685 205.168 171.92 201.164 174.302C199.126 175.505 196.89 176.082 194.68 176.082C192.85 176.082 191.057 175.664 189.387 174.915L190.811 172.043C193.525 173.246 196.755 173.16 199.518 171.527C204.026 168.851 205.512 163.02 202.834 158.503C202.724 158.307 202.589 158.122 202.466 157.938L205.02 155.986C205.217 156.269 205.438 156.551 205.622 156.858H205.61ZM183.713 169.846C182.509 167.808 181.932 165.574 181.932 163.376C181.932 159.031 184.155 154.796 188.171 152.414C190.209 151.199 192.445 150.622 194.655 150.622C198.401 150.622 202.061 152.279 204.517 155.311L201.95 157.275C199.015 153.752 193.881 152.77 189.816 155.189C185.297 157.865 183.811 163.696 186.501 168.201C187.397 169.711 188.65 170.864 190.074 171.662L188.637 174.547C186.672 173.491 184.941 171.908 183.713 169.846ZM189.067 175.554C190.823 176.352 192.739 176.806 194.667 176.806C197.001 176.806 199.371 176.204 201.52 174.928C205.757 172.411 208.103 167.943 208.103 163.352C208.103 161.019 207.501 158.65 206.224 156.502C206.027 156.171 205.806 155.876 205.585 155.569L227.347 138.985C230.332 142.95 234.63 145.982 239.813 147.308C241.692 147.786 243.558 148.007 245.413 148.007C247.267 148.007 249.11 147.774 250.866 147.332L268.907 205.138L237.344 237.018C233.783 233.041 229.054 230.045 223.491 228.621C221.182 228.032 218.861 227.75 216.589 227.75C205.819 227.75 195.896 234.035 191.339 243.892L162.356 229.37L189.08 175.566L189.067 175.554ZM236.718 237.632L231.732 242.665C229.153 239.645 225.665 237.362 221.526 236.306C211.996 233.875 202.331 238.773 198.45 247.44L192.125 244.273C196.534 234.722 206.15 228.621 216.589 228.621C218.8 228.621 221.035 228.891 223.282 229.468C228.686 230.843 233.279 233.765 236.73 237.644L236.718 237.632ZM161.226 229.726L143.062 266.283C139.611 264.663 135.608 264.159 131.604 265.092C130.143 265.436 128.755 265.952 127.49 266.627C122.7 269.119 119.36 273.673 118.353 278.878L108.724 277.257L103.542 227.971C113.011 226.755 121.423 220.728 125.439 211.804L161.226 229.738V229.726ZM143.566 267.167C146.575 268.75 149.105 271.218 150.726 274.336C151.143 275.146 151.487 276.018 151.77 276.901L147.52 278.178C146.476 275.085 144.303 272.629 141.576 271.156L143.566 267.167ZM140.827 270.788C138.383 269.671 135.571 269.315 132.759 269.978C127.822 271.132 124.272 275.048 123.327 279.712L118.918 278.964C119.9 273.931 123.13 269.524 127.748 267.118C128.988 266.479 130.315 265.976 131.739 265.645C135.608 264.736 139.476 265.227 142.817 266.786L140.827 270.788ZM103.456 227.087L102.719 220.065C109.523 219.145 115.516 214.713 118.304 208.219L124.653 211.399C120.772 220.065 112.63 225.908 103.456 227.087ZM73.0479 200.375C73.0479 198.165 73.3181 195.919 73.8953 193.685C77.0024 181.495 87.9817 173.381 100.017 173.381C102.228 173.381 104.463 173.651 106.71 174.228C118.905 177.334 127.023 188.308 127.023 200.338C127.023 202.548 126.753 204.782 126.176 207.016C125.857 208.268 125.439 209.459 124.96 210.625L118.635 207.458C118.905 206.746 119.151 206.034 119.335 205.285C122.049 194.642 115.614 183.791 104.966 181.078C94.3064 178.365 83.4622 184.797 80.7481 195.44C79.0656 202.032 80.8955 208.673 85.0342 213.436L80.0849 218.518C75.6392 213.62 73.0479 207.176 73.0479 200.387V200.375ZM102.621 227.197C101.761 227.283 100.914 227.332 100.042 227.332C97.8434 227.332 95.596 227.062 93.3608 226.485C88.3378 225.209 84.0272 222.582 80.6622 219.108L85.5869 214.038C88.0922 216.677 91.3221 218.678 95.1047 219.636C97.389 220.213 99.661 220.36 101.872 220.151L102.621 227.185V227.197ZM80.0481 219.746C83.5114 223.318 87.9571 226.019 93.1397 227.345C95.4486 227.934 97.7697 228.216 100.042 228.216C100.938 228.216 101.822 228.167 102.707 228.069L107.865 277.11L58.3229 268.775C58.5071 267.609 58.6299 266.443 58.6299 265.289C58.6299 259.065 56.0263 253.173 51.6297 248.974L80.0481 219.758V219.746ZM51.1384 249.478C55.4 253.553 57.9176 259.249 57.9299 265.289C57.9299 266.406 57.8071 267.535 57.6351 268.664L52.0104 267.719C52.8209 262.379 50.8805 257.138 47.1471 253.59L51.1384 249.478ZM36.0327 243.426C37.8257 243.426 39.6433 243.647 41.4609 244.113C44.9488 244.997 48.0068 246.691 50.5244 248.925L46.5207 253.038C44.7031 251.479 42.5171 250.3 40.0363 249.662C37.7029 249.073 35.3572 249.036 33.1344 249.441L32.2501 243.769C33.4905 243.548 34.7555 243.426 36.0327 243.426ZM32.3115 249.6C28.6395 250.472 25.3604 252.62 23.1007 255.665L18.5322 252.215C21.7007 247.98 26.2938 245.046 31.4396 243.929L32.3238 249.588L32.3115 249.6ZM95.0188 128.87C91.7029 126.132 89.5168 122.216 88.9642 117.932L93.3977 117.465C93.8275 120.547 95.3995 123.358 97.7697 125.359L95.0188 128.87ZM89.3449 111.524C91.3099 103.827 98.2241 98.7083 105.826 98.7083C107.214 98.7083 108.638 98.8802 110.051 99.2362C117.739 101.2 122.872 108.124 122.872 115.71C122.872 117.097 122.7 118.521 122.344 119.921C120.379 127.617 113.453 132.736 105.863 132.736C104.475 132.736 103.063 132.565 101.651 132.209C99.4277 131.644 97.4381 130.65 95.7065 129.361L98.4575 125.85C99.7101 126.77 101.159 127.47 102.756 127.888C109.486 129.606 116.326 125.543 118.034 118.816C119.741 112.101 115.688 105.264 108.958 103.545C102.24 101.826 95.3872 105.89 93.6801 112.604C93.3362 113.942 93.238 115.293 93.324 116.606L88.8782 117.073C88.8414 116.631 88.8291 116.177 88.8291 115.735C88.8291 114.347 89.001 112.924 89.3694 111.512L89.3449 111.524ZM19.576 114.262C21.5042 115.317 23.1867 116.889 24.3902 118.914C25.2868 120.424 25.8271 122.032 26.0482 123.665L22.8305 123.996C22.6586 122.818 22.2533 121.639 21.6024 120.547C20.7182 119.061 19.5024 117.92 18.1023 117.134L19.5638 114.249L19.576 114.262ZM5.28087 130.257C7.24584 133.559 10.9056 135.241 14.4917 134.848L14.9829 138.039C14.4794 138.101 13.9636 138.138 13.4601 138.138C9.11256 138.138 4.87559 135.916 2.49306 131.902C1.28951 129.864 0.712303 127.63 0.712303 125.432C0.712303 121.087 2.93518 116.852 6.95109 114.47C8.98975 113.255 11.2249 112.69 13.4355 112.678C15.3022 112.678 17.1321 113.108 18.8146 113.893L17.3655 116.754C14.6391 115.526 11.3723 115.587 8.59676 117.232C4.07732 119.908 2.59131 125.739 5.26859 130.244L5.28087 130.257ZM15.3145 134.713C16.3338 134.504 17.3532 134.136 18.2988 133.571C21.4551 131.693 23.1253 128.268 22.9165 124.831L26.1096 124.499C26.1341 124.794 26.171 125.089 26.171 125.396C26.171 129.741 23.9481 133.976 19.9445 136.358C18.6304 137.143 17.2304 137.622 15.8058 137.892L15.3145 134.725V134.713ZM15.9163 138.604C17.4269 138.322 18.9129 137.806 20.3129 136.971C24.5499 134.455 26.8956 129.987 26.8956 125.396C26.8956 125.076 26.8587 124.757 26.8342 124.426L88.4115 117.969C88.9887 122.4 91.2362 126.464 94.6749 129.287L31.9554 241.904L15.9163 138.592V138.604ZM14.1601 265.313C14.1601 263.521 14.3811 261.704 14.8478 259.887C15.511 257.309 16.604 254.965 18.0286 252.89L22.6095 256.352C21.627 257.825 20.8533 259.482 20.3866 261.299C19.3918 265.215 19.9322 269.168 21.6147 272.519L16.6286 275.355C15.0443 272.298 14.1601 268.861 14.1601 265.313ZM36.0573 287.164C34.2642 287.164 32.4589 286.943 30.6413 286.476C24.6359 284.942 19.8708 281.063 17.0339 276.079L22.0077 273.243C24.0955 276.926 27.6202 279.786 32.0413 280.915C36.7327 282.118 41.4609 281.112 45.1698 278.571L48.7313 283.064C45.0839 285.666 40.6627 287.152 36.045 287.152L36.0573 287.164ZM45.8576 278.092C48.6331 275.968 50.7577 272.936 51.6911 269.278C51.7525 269.02 51.7893 268.775 51.8385 268.529L57.4632 269.475C57.3772 269.88 57.3404 270.285 57.2299 270.702C55.9772 275.625 53.1403 279.712 49.4191 282.597L45.8576 278.104V278.092ZM49.8735 283.15C53.7175 280.179 56.6404 275.944 57.9422 270.874C58.0527 270.444 58.1018 270.015 58.1878 269.597L107.975 277.982L114.288 337.948C113.428 338.071 112.556 338.218 111.696 338.427C109.375 338.967 107.189 339.789 105.163 340.845C102.915 342.011 100.889 343.484 99.0838 345.166L49.8858 283.15H49.8735ZM114.374 338.82L115.111 345.854C114.57 345.939 114.042 346.025 113.502 346.148C109.781 347.02 106.563 348.898 104.033 351.414L99.6119 345.854C101.38 344.196 103.358 342.76 105.556 341.618C107.521 340.6 109.633 339.802 111.881 339.274C112.704 339.077 113.539 338.93 114.361 338.82H114.374ZM141.982 353.059C143.001 355.023 143.799 357.135 144.327 359.381C147.201 371.632 141.22 383.896 130.548 389.457C128.595 390.475 126.471 391.273 124.223 391.789C111.967 394.661 99.6856 388.683 94.1345 378.003C93.1152 376.052 92.3169 373.94 91.7888 371.681C89.5659 362.242 92.6239 352.814 99.0224 346.431L103.444 352.004C99.1084 356.693 97.1065 363.383 98.6785 370.073C101.196 380.778 111.905 387.419 122.614 384.902C133.323 382.398 139.968 371.681 137.45 360.977C135.706 353.587 130.057 348.125 123.204 346.283L124.592 339.36C131.985 341.213 138.396 346.136 141.994 353.035L141.982 353.059ZM115.209 338.734C118.132 338.415 121.006 338.586 123.769 339.188L122.381 346.124C120.318 345.657 118.144 345.522 115.958 345.755L115.221 338.734H115.209ZM123.941 338.329C121.091 337.715 118.132 337.543 115.123 337.862L108.835 278.117L118.255 279.7C117.948 281.812 118.009 284.009 118.525 286.219C118.869 287.679 119.384 289.054 120.048 290.331C122.455 294.947 126.79 298.212 131.776 299.329L123.953 338.316L123.941 338.329ZM131.874 298.789C127.06 297.696 122.86 294.541 120.539 290.073C119.9 288.846 119.397 287.508 119.065 286.084C118.562 283.96 118.5 281.824 118.795 279.786L123.192 280.523C122.995 281.996 123.044 283.53 123.4 285.065C124.53 289.864 128.264 293.351 132.759 294.406L131.874 298.777V298.789ZM143.504 297.303C142.264 297.954 140.938 298.445 139.513 298.777C137.204 299.317 134.883 299.353 132.685 298.961L133.557 294.603C135.153 294.873 136.824 294.836 138.494 294.443C145.236 292.86 149.436 286.096 147.852 279.344L147.754 278.988L152.015 277.712C152.077 277.92 152.15 278.117 152.199 278.325C154.017 286.047 150.234 293.793 143.504 297.303ZM152.31 276.754C152.003 275.833 151.659 274.925 151.217 274.078C149.534 270.862 146.919 268.308 143.811 266.676L161.975 230.107L190.995 244.641C190.443 245.942 189.964 247.293 189.608 248.704C189.018 251.012 188.736 253.332 188.736 255.615C188.736 258.954 189.362 262.207 190.492 265.252L152.31 276.754ZM189.608 255.615C189.608 253.406 189.878 251.159 190.455 248.925C190.799 247.575 191.253 246.286 191.781 245.034L198.118 248.213C197.799 249.011 197.517 249.821 197.296 250.668C196.215 254.916 196.596 259.175 198.106 262.944L191.315 264.982C190.209 262.023 189.595 258.856 189.595 255.603L189.608 255.615ZM216.614 282.573C214.403 282.573 212.168 282.303 209.933 281.726C201.324 279.528 194.766 273.415 191.634 265.78L198.438 263.73C200.845 269.07 205.561 273.317 211.677 274.876C219.733 276.926 227.9 273.747 232.579 267.474L238.548 271.255C233.525 278.276 225.358 282.573 216.614 282.573ZM239.039 270.579L233.046 266.786C234.311 264.92 235.306 262.821 235.895 260.513C237.479 254.29 235.932 248.017 232.26 243.328L237.258 238.282C241.262 243.057 243.583 249.158 243.583 255.579C243.583 257.788 243.313 260.022 242.736 262.257C241.962 265.301 240.685 268.1 239.039 270.579ZM239.788 271.046C241.495 268.493 242.797 265.608 243.608 262.478C244.197 260.17 244.48 257.862 244.48 255.579C244.48 248.925 242.06 242.603 237.897 237.656L269.214 206.034L293.85 284.979C288.102 287.102 283.128 291.08 279.824 296.383L239.813 271.058L239.788 271.046ZM308.366 291.804C304.46 290.81 300.53 291.055 296.981 292.27L294.881 285.519C297.595 284.61 300.481 284.119 303.429 284.119C305.639 284.119 307.875 284.389 310.122 284.966C313.155 285.74 315.931 287.004 318.399 288.637L314.138 294.308C312.406 293.203 310.478 292.344 308.378 291.804H308.366ZM317.761 324.911L323.14 329.527C318.105 334.891 310.982 338.071 303.453 338.071C301.243 338.071 299.008 337.801 296.772 337.224C296.343 337.113 295.925 336.966 295.507 336.843L297.362 330.018C297.743 330.141 298.123 330.276 298.529 330.374C305.713 332.203 312.971 329.871 317.773 324.899L317.761 324.911ZM296.207 292.577C292.241 294.136 288.802 296.923 286.505 300.618L280.549 296.849C283.742 291.718 288.544 287.876 294.095 285.813L296.207 292.565V292.577ZM276.459 311.126C276.459 308.916 276.73 306.67 277.307 304.436C277.933 301.968 278.903 299.673 280.119 297.574L286.1 301.354C285.265 302.84 284.59 304.448 284.147 306.179C281.605 316.171 287.095 326.311 296.564 329.785L294.709 336.622C283.668 332.854 276.459 322.469 276.459 311.138V311.126ZM277.958 401.376C283.275 402.96 287.279 406.937 289.072 411.835L284.847 413.259C283.521 409.724 280.623 406.863 276.779 405.685L277.945 401.389L277.958 401.376ZM273.082 400.652C274.421 400.652 275.796 400.824 277.147 401.155L275.981 405.452C270.761 404.224 265.517 406.446 262.68 410.669L258.885 408.3C262.005 403.561 267.347 400.64 273.082 400.64V400.652ZM290.116 417.654C290.116 419.041 289.944 420.465 289.588 421.864C287.623 429.561 280.696 434.68 273.107 434.68C271.719 434.68 270.307 434.508 268.894 434.152C261.194 432.188 256.073 425.265 256.073 417.678C256.073 416.291 256.245 414.867 256.613 413.455C257.019 411.847 257.657 410.374 258.455 409.012L262.238 411.369C261.673 412.338 261.219 413.406 260.936 414.548C259.217 421.275 263.282 428.1 270 429.819C276.73 431.537 283.57 427.474 285.277 420.747C285.867 418.452 285.756 416.144 285.118 414.032L289.342 412.608C289.846 414.217 290.128 415.911 290.128 417.641L290.116 417.654ZM383.17 402.272C381.377 402.272 379.571 402.051 377.754 401.585C370.483 399.731 365.018 394.44 362.624 387.898L368.052 386.069C369.845 390.831 373.861 394.674 379.166 396.036C384.57 397.411 390.023 395.901 393.891 392.452L397.833 396.613C393.867 400.198 388.647 402.272 383.17 402.272ZM383.145 358.522C384.938 358.522 386.756 358.743 388.573 359.209C398.46 361.726 405.042 370.626 405.042 380.385C405.042 382.177 404.821 383.994 404.355 385.798C403.323 389.837 401.223 393.311 398.435 396.024L394.493 391.863C396.519 389.874 398.055 387.333 398.804 384.374C401.002 375.745 395.795 366.955 387.149 364.746C381.119 363.211 375.015 365.298 371.122 369.631L366.775 365.9C370.876 361.272 376.82 358.51 383.133 358.51L383.145 358.522ZM370.594 370.294C369.182 372.037 368.113 374.1 367.524 376.408C366.75 379.452 366.91 382.496 367.794 385.283L362.366 387.112C361.678 384.976 361.297 382.717 361.297 380.422C361.297 378.629 361.518 376.813 361.985 374.996C362.796 371.792 364.294 368.944 366.259 366.55L370.606 370.282L370.594 370.294ZM365.694 366.084C363.655 368.563 362.12 371.51 361.273 374.812C360.794 376.69 360.56 378.568 360.56 380.409C360.56 382.791 360.953 385.123 361.666 387.333L289.588 411.651C287.746 406.593 283.595 402.469 278.093 400.836L295.262 337.69C295.692 337.825 296.109 337.96 296.539 338.071C298.848 338.66 301.169 338.942 303.441 338.942C311.24 338.942 318.596 335.653 323.791 330.092L365.682 366.072L365.694 366.084ZM330.435 311.077C330.435 313.286 330.165 315.521 329.587 317.755C328.494 322.039 326.419 325.795 323.693 328.889L318.338 324.285C320.377 321.99 321.936 319.191 322.747 315.999C324.859 307.738 321.433 299.378 314.826 294.762L319.075 289.116C326.112 294.124 330.435 302.312 330.435 311.064V311.077ZM318.927 287.937C316.373 286.231 313.487 284.917 310.331 284.107C308.022 283.518 305.701 283.236 303.429 283.236C300.395 283.236 297.423 283.739 294.623 284.684L269.865 205.359L287.046 188.014C289.883 191.021 293.567 193.292 297.865 194.385C299.744 194.863 301.611 195.084 303.466 195.084C306.781 195.084 309.987 194.335 312.897 192.997L335.347 230.917C331.245 233.9 328.114 238.27 326.763 243.573C326.284 245.451 326.05 247.329 326.05 249.171C326.05 256.156 329.33 262.711 334.733 266.946L318.94 287.925L318.927 287.937ZM335.151 266.381C329.919 262.281 326.751 255.935 326.751 249.171C326.751 247.378 326.972 245.562 327.438 243.745C328.74 238.638 331.749 234.428 335.691 231.531L338.626 236.49C335.937 238.614 333.886 241.584 332.977 245.144C331.356 251.503 333.763 257.936 338.602 261.778L335.151 266.369V266.381ZM336.379 231.052C339.94 228.646 344.177 227.283 348.611 227.283C350.404 227.283 352.221 227.504 354.039 227.971C358.399 229.088 362.108 231.432 364.896 234.55L360.634 238.368C358.571 236.073 355.832 234.342 352.627 233.519C347.849 232.304 343.035 233.36 339.314 235.999L336.391 231.064L336.379 231.052ZM370.508 249.134C370.508 250.926 370.287 252.743 369.82 254.547C367.303 264.442 358.399 271.021 348.635 271.021C346.842 271.021 345.037 270.8 343.219 270.334C340.469 269.634 337.988 268.431 335.826 266.86L339.277 262.281C340.849 263.41 342.655 264.27 344.644 264.785C353.29 266.995 362.071 261.778 364.282 253.136C365.596 248.005 364.269 242.824 361.174 239.007L365.448 235.189C368.654 239.056 370.52 243.978 370.52 249.146L370.508 249.134ZM365.436 234.059C362.55 230.843 358.718 228.413 354.223 227.271C352.344 226.792 350.478 226.571 348.623 226.571C344.067 226.571 339.695 227.971 336.023 230.438L313.647 192.629C318.952 189.941 323.164 185.178 325.031 179.114L379.326 192.531C378.957 194.385 378.761 196.226 378.761 198.055C378.761 204.782 381.229 211.178 385.491 216.149L365.448 234.084L365.436 234.059ZM379.633 198.043C379.633 196.287 379.817 194.507 380.173 192.74L387.051 194.446C385.945 200.473 387.689 206.427 391.398 210.834L386.13 215.548C382.015 210.736 379.633 204.549 379.633 198.043ZM433.608 197.994C433.608 200.203 433.338 202.437 432.761 204.672C429.654 216.874 418.674 224.988 406.639 224.988C404.428 224.988 402.193 224.718 399.958 224.141C394.653 222.79 390.109 219.942 386.682 216.174L391.963 211.46C394.493 214.222 397.821 216.309 401.714 217.303C412.374 220.016 423.218 213.596 425.933 202.928C428.106 194.409 424.41 185.779 417.385 181.274L421.118 175.284C428.843 180.194 433.621 188.787 433.621 198.006L433.608 197.994ZM489.831 187.314C490.617 188.64 490.998 190.113 490.998 191.549C490.998 194.385 489.549 197.159 486.92 198.706C485.594 199.491 484.12 199.872 482.683 199.872C479.847 199.872 477.071 198.411 475.511 195.796C474.725 194.471 474.345 193.01 474.345 191.561C474.345 188.726 475.794 185.951 478.422 184.404C479.761 183.619 481.222 183.238 482.659 183.238C482.99 183.238 483.322 183.263 483.654 183.3L483.396 185.411C482.082 185.252 480.718 185.485 479.49 186.209C476.543 187.964 475.56 191.77 477.317 194.716C479.073 197.662 482.88 198.644 485.827 196.889C488.775 195.146 489.745 191.328 487.989 188.382C487.117 186.909 485.741 185.939 484.206 185.546L484.464 183.447C486.626 183.926 488.591 185.252 489.806 187.302L489.831 187.314ZM491.6 118.239C488.198 117.711 485.041 115.796 483.003 112.752L485.729 111.058C487.24 113.255 489.524 114.642 491.992 115.059L491.6 118.251V118.239ZM503.524 97.7754C503.881 98.2173 504.2 98.6838 504.495 99.1871C505.71 101.225 506.275 103.459 506.275 105.669C506.275 110.014 504.053 114.249 500.049 116.631C498.01 117.834 495.775 118.411 493.565 118.411C493.184 118.411 492.803 118.374 492.435 118.337L492.828 115.145C494.719 115.293 496.659 114.888 498.415 113.844C502.923 111.168 504.409 105.337 501.731 100.82C501.535 100.476 501.302 100.157 501.068 99.8622L503.537 97.7631L503.524 97.7754ZM487.056 94.7433C489.094 93.528 491.329 92.9511 493.54 92.9511C497.077 92.9511 500.516 94.4487 502.96 97.1493L500.516 99.2239C497.544 96.0077 492.631 95.1852 488.701 97.5053C487.252 98.3646 486.122 99.5554 485.324 100.918L482.462 99.4326C483.519 97.5544 485.066 95.9218 487.056 94.7433ZM480.817 105.693C480.817 103.778 481.271 101.9 482.094 100.181L484.931 101.667C483.678 104.355 483.715 107.584 485.275 110.346L482.536 112.052C481.382 110.051 480.817 107.866 480.817 105.705V105.693ZM436.089 149.615C431.692 146.448 428.991 141.317 428.991 135.83C428.991 134.443 429.162 133.019 429.531 131.607C431.496 123.91 438.41 118.791 446.012 118.791C447.4 118.791 448.824 118.963 450.237 119.319C454.363 120.375 457.728 122.854 459.988 126.083L456.205 128.44C454.547 126.144 452.104 124.389 449.132 123.64C442.414 121.922 435.561 125.985 433.854 132.7C432.564 137.745 434.542 142.864 438.447 145.822L436.089 149.615ZM446.024 152.832C444.637 152.832 443.224 152.66 441.812 152.304C439.97 151.837 438.287 151.076 436.777 150.094L439.135 146.301C440.265 147.037 441.53 147.627 442.917 147.983C448.481 149.407 454.118 146.853 456.869 142.127L460.872 144.128C457.876 149.48 452.177 152.832 446.037 152.832H446.024ZM461.253 143.379L457.274 141.391C457.655 140.617 457.974 139.783 458.195 138.911C459.079 135.449 458.416 131.951 456.66 129.152L460.442 126.795C462.113 129.459 463.046 132.565 463.046 135.805C463.046 137.192 462.874 138.616 462.518 140.016C462.211 141.207 461.781 142.324 461.253 143.379ZM486.97 156.232L461.756 143.625C462.297 142.532 462.751 141.378 463.058 140.151C463.427 138.69 463.599 137.229 463.599 135.793C463.599 132.454 462.628 129.238 460.909 126.488L482.389 113.108C484.55 116.348 487.891 118.374 491.514 118.926L486.97 156.207V156.232ZM471.925 368.441C471.508 368.576 471.102 368.76 470.722 368.981C467.774 370.736 466.792 374.542 468.548 377.488C470.292 380.434 474.099 381.416 477.059 379.661C480.006 377.918 480.976 374.1 479.22 371.154C477.845 368.846 475.229 367.778 472.736 368.244L472.208 366.194C472.76 366.084 473.325 366.01 473.878 366.01C476.715 366.01 479.49 367.471 481.038 370.086C481.824 371.411 482.204 372.884 482.204 374.321C482.204 377.156 480.743 379.931 478.127 381.477C476.789 382.263 475.327 382.644 473.89 382.644C471.053 382.644 468.278 381.183 466.718 378.568C465.932 377.242 465.551 375.782 465.551 374.333C465.551 371.497 467.013 368.723 469.629 367.176C470.194 366.845 470.783 366.599 471.385 366.403L471.913 368.441H471.925ZM458.6 323.819C454.253 323.819 450.016 321.597 447.633 317.583C446.43 315.545 445.852 313.311 445.852 311.114C445.852 306.768 448.075 302.533 452.091 300.151C454.13 298.936 456.365 298.371 458.576 298.359C462.788 298.359 466.878 300.458 469.285 304.239L466.669 306.13C463.955 301.71 458.195 300.274 453.725 302.926C449.205 305.602 447.719 311.433 450.409 315.938C452.349 319.203 455.935 320.873 459.484 320.541L460.307 323.696C459.742 323.77 459.165 323.819 458.6 323.819ZM471.323 311.089C471.323 315.435 469.101 319.67 465.097 322.051C463.832 322.8 462.506 323.279 461.142 323.549L460.332 320.431C461.4 320.234 462.456 319.854 463.451 319.265C467.75 316.711 469.297 311.285 467.099 306.866L469.739 304.963C470.808 306.903 471.336 309.002 471.336 311.077L471.323 311.089Z" fill="url(#paint0_linear_349_6659)"/>
<path d="M213.383 202.082C236.988 202.082 256.134 221.207 256.134 244.813C256.134 268.407 236.988 287.532 213.383 287.544C189.779 287.544 170.633 268.419 170.633 244.813C170.633 221.219 189.767 202.082 213.383 202.082Z" fill="#2E6C59"/>
<path d="M226.426 228.56C227.776 228.56 228.87 227.466 228.87 226.117C228.87 224.768 227.776 223.674 226.426 223.674C225.077 223.674 223.982 224.768 223.982 226.117C223.982 227.466 225.077 228.56 226.426 228.56Z" fill="white"/>
<path d="M236.19 238.319C237.54 238.319 238.634 237.226 238.634 235.876C238.634 234.527 237.54 233.434 236.19 233.434C234.84 233.434 233.746 234.527 233.746 235.876C233.746 237.226 234.84 238.319 236.19 238.319Z" fill="white"/>
<path d="M221.55 243.205C222.9 243.205 223.994 242.111 223.994 240.762C223.994 239.413 222.9 238.319 221.55 238.319C220.201 238.319 219.106 239.413 219.106 240.762C219.106 242.111 220.201 243.205 221.55 243.205Z" fill="white"/>
<path d="M211.788 223.674C213.137 223.674 214.232 222.581 214.232 221.231C214.232 219.882 213.137 218.789 211.788 218.789C210.438 218.789 209.344 219.882 209.344 221.231C209.344 222.581 210.438 223.674 211.788 223.674Z" fill="white"/>
<path d="M192.26 228.56C193.61 228.56 194.704 227.466 194.704 226.117C194.704 224.768 193.61 223.674 192.26 223.674C190.911 223.674 189.816 224.768 189.816 226.117C189.816 227.466 190.911 228.56 192.26 228.56Z" fill="white"/>
<path d="M211.788 228.56C213.137 228.56 214.232 227.466 214.232 226.117C214.232 224.768 213.137 223.674 211.788 223.674C210.438 223.674 209.344 224.768 209.344 226.117C209.344 227.466 210.438 228.56 211.788 228.56Z" fill="white"/>
<path d="M192.26 233.446C193.61 233.446 194.704 232.352 194.704 231.003C194.704 229.654 193.61 228.56 192.26 228.56C190.911 228.56 189.816 229.654 189.816 231.003C189.816 232.352 190.911 233.446 192.26 233.446Z" fill="white"/>
<path d="M211.788 233.446C213.137 233.446 214.232 232.352 214.232 231.003C214.232 229.654 213.137 228.56 211.788 228.56C210.438 228.56 209.344 229.654 209.344 231.003C209.344 232.352 210.438 233.446 211.788 233.446Z" fill="white"/>
<path d="M192.26 238.319C193.61 238.319 194.704 237.226 194.704 235.876C194.704 234.527 193.61 233.434 192.26 233.434C190.911 233.434 189.816 234.527 189.816 235.876C189.816 237.226 190.911 238.319 192.26 238.319Z" fill="white"/>
<path d="M197.148 238.319C198.498 238.319 199.592 237.226 199.592 235.876C199.592 234.527 198.498 233.434 197.148 233.434C195.798 233.434 194.704 234.527 194.704 235.876C194.704 237.226 195.798 238.319 197.148 238.319Z" fill="white"/>
<path d="M202.024 238.319C203.374 238.319 204.468 237.226 204.468 235.876C204.468 234.527 203.374 233.434 202.024 233.434C200.674 233.434 199.58 234.527 199.58 235.876C199.58 237.226 200.674 238.319 202.024 238.319Z" fill="white"/>
<path d="M211.788 238.319C213.137 238.319 214.232 237.226 214.232 235.876C214.232 234.527 213.137 233.434 211.788 233.434C210.438 233.434 209.344 234.527 209.344 235.876C209.344 237.226 210.438 238.319 211.788 238.319Z" fill="white"/>
<path d="M216.675 238.319C218.025 238.319 219.119 237.226 219.119 235.876C219.119 234.527 218.025 233.434 216.675 233.434C215.326 233.434 214.231 234.527 214.231 235.876C214.231 237.226 215.326 238.319 216.675 238.319Z" fill="white"/>
<path d="M221.55 238.319C222.9 238.319 223.994 237.226 223.994 235.876C223.994 234.527 222.9 233.434 221.55 233.434C220.201 233.434 219.106 234.527 219.106 235.876C219.106 237.226 220.201 238.319 221.55 238.319Z" fill="white"/>
<path d="M226.426 238.319C227.776 238.319 228.87 237.226 228.87 235.876C228.87 234.527 227.776 233.434 226.426 233.434C225.077 233.434 223.982 234.527 223.982 235.876C223.982 237.226 225.077 238.319 226.426 238.319Z" fill="white"/>
<path d="M202.024 243.205C203.374 243.205 204.468 242.111 204.468 240.762C204.468 239.413 203.374 238.319 202.024 238.319C200.674 238.319 199.58 239.413 199.58 240.762C199.58 242.111 200.674 243.205 202.024 243.205Z" fill="white"/>
<path d="M216.675 243.205C218.025 243.205 219.119 242.111 219.119 240.762C219.119 239.413 218.025 238.319 216.675 238.319C215.326 238.319 214.231 239.413 214.231 240.762C214.231 242.111 215.326 243.205 216.675 243.205Z" fill="white"/>
<path d="M226.426 243.205C227.776 243.205 228.87 242.111 228.87 240.762C228.87 239.413 227.776 238.319 226.426 238.319C225.077 238.319 223.982 239.413 223.982 240.762C223.982 242.111 225.077 243.205 226.426 243.205Z" fill="white"/>
<path d="M202.024 248.09C203.374 248.09 204.468 246.997 204.468 245.647C204.468 244.298 203.374 243.205 202.024 243.205C200.674 243.205 199.58 244.298 199.58 245.647C199.58 246.997 200.674 248.09 202.024 248.09Z" fill="white"/>
<path d="M211.788 248.09C213.137 248.09 214.232 246.997 214.232 245.647C214.232 244.298 213.137 243.205 211.788 243.205C210.438 243.205 209.344 244.298 209.344 245.647C209.344 246.997 210.438 248.09 211.788 248.09Z" fill="white"/>
<path d="M216.675 248.09C218.025 248.09 219.119 246.997 219.119 245.647C219.119 244.298 218.025 243.205 216.675 243.205C215.326 243.205 214.231 244.298 214.231 245.647C214.231 246.997 215.326 248.09 216.675 248.09Z" fill="white"/>
<path d="M221.55 248.09C222.9 248.09 223.994 246.997 223.994 245.647C223.994 244.298 222.9 243.205 221.55 243.205C220.201 243.205 219.106 244.298 219.106 245.647C219.106 246.997 220.201 248.09 221.55 248.09Z" fill="white"/>
<path d="M226.426 248.09C227.776 248.09 228.87 246.997 228.87 245.647C228.87 244.298 227.776 243.205 226.426 243.205C225.077 243.205 223.982 244.298 223.982 245.647C223.982 246.997 225.077 248.09 226.426 248.09Z" fill="white"/>
<path d="M202.024 252.964C203.374 252.964 204.468 251.87 204.468 250.521C204.468 249.172 203.374 248.078 202.024 248.078C200.674 248.078 199.58 249.172 199.58 250.521C199.58 251.87 200.674 252.964 202.024 252.964Z" fill="white"/>
<path d="M211.788 252.964C213.137 252.964 214.232 251.87 214.232 250.521C214.232 249.172 213.137 248.078 211.788 248.078C210.438 248.078 209.344 249.172 209.344 250.521C209.344 251.87 210.438 252.964 211.788 252.964Z" fill="white"/>
<path d="M216.675 252.964C218.025 252.964 219.119 251.87 219.119 250.521C219.119 249.172 218.025 248.078 216.675 248.078C215.326 248.078 214.231 249.172 214.231 250.521C214.231 251.87 215.326 252.964 216.675 252.964Z" fill="white"/>
<path d="M226.426 252.964C227.776 252.964 228.87 251.87 228.87 250.521C228.87 249.172 227.776 248.078 226.426 248.078C225.077 248.078 223.982 249.172 223.982 250.521C223.982 251.87 225.077 252.964 226.426 252.964Z" fill="white"/>
<path d="M226.426 257.85C227.776 257.85 228.87 256.756 228.87 255.407C228.87 254.058 227.776 252.964 226.426 252.964C225.077 252.964 223.982 254.058 223.982 255.407C223.982 256.756 225.077 257.85 226.426 257.85Z" fill="white"/>
<path d="M231.314 257.85C232.664 257.85 233.758 256.756 233.758 255.407C233.758 254.058 232.664 252.964 231.314 252.964C229.964 252.964 228.87 254.058 228.87 255.407C228.87 256.756 229.964 257.85 231.314 257.85Z" fill="white"/>
<path d="M236.19 257.85C237.54 257.85 238.634 256.756 238.634 255.407C238.634 254.058 237.54 252.964 236.19 252.964C234.84 252.964 233.746 254.058 233.746 255.407C233.746 256.756 234.84 257.85 236.19 257.85Z" fill="white"/>
<path d="M241.078 257.85C242.427 257.85 243.522 256.756 243.522 255.407C243.522 254.058 242.427 252.964 241.078 252.964C239.728 252.964 238.634 254.058 238.634 255.407C238.634 256.756 239.728 257.85 241.078 257.85Z" fill="white"/>
<path d="M211.788 262.723C213.137 262.723 214.232 261.629 214.232 260.28C214.232 258.931 213.137 257.837 211.788 257.837C210.438 257.837 209.344 258.931 209.344 260.28C209.344 261.629 210.438 262.723 211.788 262.723Z" fill="white"/>
<path d="M216.675 262.723C218.025 262.723 219.119 261.629 219.119 260.28C219.119 258.931 218.025 257.837 216.675 257.837C215.326 257.837 214.231 258.931 214.231 260.28C214.231 261.629 215.326 262.723 216.675 262.723Z" fill="white"/>
<path d="M197.148 267.609C198.498 267.609 199.592 266.515 199.592 265.166C199.592 263.817 198.498 262.723 197.148 262.723C195.798 262.723 194.704 263.817 194.704 265.166C194.704 266.515 195.798 267.609 197.148 267.609Z" fill="white"/>
<path d="M202.024 267.609C203.374 267.609 204.468 266.515 204.468 265.166C204.468 263.817 203.374 262.723 202.024 262.723C200.674 262.723 199.58 263.817 199.58 265.166C199.58 266.515 200.674 267.609 202.024 267.609Z" fill="white"/>
<path d="M206.912 267.609C208.261 267.609 209.356 266.515 209.356 265.166C209.356 263.817 208.261 262.723 206.912 262.723C205.562 262.723 204.468 263.817 204.468 265.166C204.468 266.515 205.562 267.609 206.912 267.609Z" fill="white"/>
<path d="M211.788 267.609C213.137 267.609 214.232 266.515 214.232 265.166C214.232 263.817 213.137 262.723 211.788 262.723C210.438 262.723 209.344 263.817 209.344 265.166C209.344 266.515 210.438 267.609 211.788 267.609Z" fill="white"/>
<path d="M216.675 267.609C218.025 267.609 219.119 266.515 219.119 265.166C219.119 263.817 218.025 262.723 216.675 262.723C215.326 262.723 214.231 263.817 214.231 265.166C214.231 266.515 215.326 267.609 216.675 267.609Z" fill="white"/>
<path d="M221.55 267.609C222.9 267.609 223.994 266.515 223.994 265.166C223.994 263.817 222.9 262.723 221.55 262.723C220.201 262.723 219.106 263.817 219.106 265.166C219.106 266.515 220.201 267.609 221.55 267.609Z" fill="white"/>
<path d="M197.148 272.495C198.498 272.495 199.592 271.401 199.592 270.052C199.592 268.703 198.498 267.609 197.148 267.609C195.798 267.609 194.704 268.703 194.704 270.052C194.704 271.401 195.798 272.495 197.148 272.495Z" fill="white"/>
<path d="M211.787 218.801C213.136 218.801 214.231 217.707 214.231 216.358C214.231 215.009 213.136 213.915 211.787 213.915C210.437 213.915 209.343 215.009 209.343 216.358C209.343 217.707 210.437 218.801 211.787 218.801Z" fill="white"/>
<path d="M192.26 223.674C193.61 223.674 194.704 222.581 194.704 221.231C194.704 219.882 193.61 218.789 192.26 218.789C190.911 218.789 189.816 219.882 189.816 221.231C189.816 222.581 190.911 223.674 192.26 223.674Z" fill="white"/>
<path d="M206.912 223.674C208.261 223.674 209.356 222.581 209.356 221.231C209.356 219.882 208.261 218.789 206.912 218.789C205.562 218.789 204.468 219.882 204.468 221.231C204.468 222.581 205.562 223.674 206.912 223.674Z" fill="white"/>
<path d="M216.674 223.674C218.024 223.674 219.118 222.581 219.118 221.231C219.118 219.882 218.024 218.789 216.674 218.789C215.325 218.789 214.23 219.882 214.23 221.231C214.23 222.581 215.325 223.674 216.674 223.674Z" fill="white"/>
<path d="M187.384 228.56C188.734 228.56 189.828 227.466 189.828 226.117C189.828 224.768 188.734 223.674 187.384 223.674C186.035 223.674 184.94 224.768 184.94 226.117C184.94 227.466 186.035 228.56 187.384 228.56Z" fill="white"/>
<path d="M197.148 228.56C198.498 228.56 199.592 227.466 199.592 226.117C199.592 224.768 198.498 223.674 197.148 223.674C195.798 223.674 194.704 224.768 194.704 226.117C194.704 227.466 195.798 228.56 197.148 228.56Z" fill="white"/>
<path d="M231.314 228.56C232.664 228.56 233.758 227.466 233.758 226.117C233.758 224.768 232.664 223.674 231.314 223.674C229.964 223.674 228.87 224.768 228.87 226.117C228.87 227.466 229.964 228.56 231.314 228.56Z" fill="white"/>
<path d="M221.55 233.446C222.9 233.446 223.994 232.352 223.994 231.003C223.994 229.654 222.9 228.56 221.55 228.56C220.201 228.56 219.106 229.654 219.106 231.003C219.106 232.352 220.201 233.446 221.55 233.446Z" fill="white"/>
<path d="M226.426 233.446C227.776 233.446 228.87 232.352 228.87 231.003C228.87 229.654 227.776 228.56 226.426 228.56C225.077 228.56 223.982 229.654 223.982 231.003C223.982 232.352 225.077 233.446 226.426 233.446Z" fill="white"/>
<path d="M231.314 233.446C232.664 233.446 233.758 232.352 233.758 231.003C233.758 229.654 232.664 228.56 231.314 228.56C229.964 228.56 228.87 229.654 228.87 231.003C228.87 232.352 229.964 233.446 231.314 233.446Z" fill="white"/>
<path d="M236.189 233.446C237.539 233.446 238.633 232.352 238.633 231.003C238.633 229.654 237.539 228.56 236.189 228.56C234.839 228.56 233.745 229.654 233.745 231.003C233.745 232.352 234.839 233.446 236.189 233.446Z" fill="white"/>
<path d="M231.314 238.319C232.664 238.319 233.758 237.225 233.758 235.876C233.758 234.527 232.664 233.433 231.314 233.433C229.964 233.433 228.87 234.527 228.87 235.876C228.87 237.225 229.964 238.319 231.314 238.319Z" fill="white"/>
<path d="M211.787 243.205C213.136 243.205 214.231 242.111 214.231 240.762C214.231 239.413 213.136 238.319 211.787 238.319C210.437 238.319 209.343 239.413 209.343 240.762C209.343 242.111 210.437 243.205 211.787 243.205Z" fill="white"/>
<path d="M231.314 243.205C232.664 243.205 233.758 242.111 233.758 240.762C233.758 239.413 232.664 238.319 231.314 238.319C229.964 238.319 228.87 239.413 228.87 240.762C228.87 242.111 229.964 243.205 231.314 243.205Z" fill="white"/>
<path d="M206.912 248.09C208.261 248.09 209.356 246.997 209.356 245.647C209.356 244.298 208.261 243.205 206.912 243.205C205.562 243.205 204.468 244.298 204.468 245.647C204.468 246.997 205.562 248.09 206.912 248.09Z" fill="white"/>
<path d="M206.912 252.964C208.261 252.964 209.356 251.87 209.356 250.521C209.356 249.172 208.261 248.078 206.912 248.078C205.562 248.078 204.468 249.172 204.468 250.521C204.468 251.87 205.562 252.964 206.912 252.964Z" fill="white"/>
<path d="M221.55 252.964C222.9 252.964 223.994 251.87 223.994 250.521C223.994 249.172 222.9 248.078 221.55 248.078C220.201 248.078 219.106 249.172 219.106 250.521C219.106 251.87 220.201 252.964 221.55 252.964Z" fill="white"/>
<path d="M241.078 252.964C242.427 252.964 243.522 251.87 243.522 250.521C243.522 249.172 242.427 248.078 241.078 248.078C239.728 248.078 238.634 249.172 238.634 250.521C238.634 251.87 239.728 252.964 241.078 252.964Z" fill="white"/>
<path d="M206.912 257.85C208.261 257.85 209.356 256.756 209.356 255.407C209.356 254.058 208.261 252.964 206.912 252.964C205.562 252.964 204.468 254.058 204.468 255.407C204.468 256.756 205.562 257.85 206.912 257.85Z" fill="white"/>
<path d="M211.787 257.85C213.136 257.85 214.231 256.756 214.231 255.407C214.231 254.058 213.136 252.964 211.787 252.964C210.437 252.964 209.343 254.058 209.343 255.407C209.343 256.756 210.437 257.85 211.787 257.85Z" fill="white"/>
<path d="M216.674 257.85C218.024 257.85 219.118 256.756 219.118 255.407C219.118 254.058 218.024 252.964 216.674 252.964C215.325 252.964 214.23 254.058 214.23 255.407C214.23 256.756 215.325 257.85 216.674 257.85Z" fill="white"/>
<path d="M245.953 257.85C247.302 257.85 248.397 256.756 248.397 255.407C248.397 254.058 247.302 252.964 245.953 252.964C244.603 252.964 243.509 254.058 243.509 255.407C243.509 256.756 244.603 257.85 245.953 257.85Z" fill="white"/>
<path d="M241.078 262.723C242.427 262.723 243.522 261.629 243.522 260.28C243.522 258.931 242.427 257.837 241.078 257.837C239.728 257.837 238.634 258.931 238.634 260.28C238.634 261.629 239.728 262.723 241.078 262.723Z" fill="white"/>
<path d="M192.26 272.495C193.61 272.495 194.704 271.401 194.704 270.052C194.704 268.703 193.61 267.609 192.26 267.609C190.911 267.609 189.816 268.703 189.816 270.052C189.816 271.401 190.911 272.495 192.26 272.495Z" fill="white"/>
<path d="M202.023 272.495C203.373 272.495 204.467 271.401 204.467 270.052C204.467 268.703 203.373 267.609 202.023 267.609C200.673 267.609 199.579 268.703 199.579 270.052C199.579 271.401 200.673 272.495 202.023 272.495Z" fill="white"/>
<path d="M197.148 277.368C198.498 277.368 199.592 276.274 199.592 274.925C199.592 273.576 198.498 272.482 197.148 272.482C195.798 272.482 194.704 273.576 194.704 274.925C194.704 276.274 195.798 277.368 197.148 277.368Z" fill="white"/>
<path d="M309.802 206.624C326.82 206.624 340.616 192.834 340.616 175.824C340.616 158.814 326.82 145.024 309.802 145.024C292.785 145.024 278.989 158.814 278.989 175.824C278.989 192.834 292.785 206.624 309.802 206.624Z" fill="#2E6C59"/>
<path d="M293.911 168.999C295.102 168.459 296.797 168.103 298.7 168.103C300.604 168.103 302.299 168.459 303.49 168.999C304.743 169.564 305.209 170.227 305.209 170.705C305.209 171.184 304.743 171.847 303.49 172.412C302.299 172.952 300.604 173.308 298.7 173.308C296.797 173.308 295.102 172.952 293.911 172.412C292.658 171.847 292.191 171.184 292.191 170.705C292.191 170.214 292.658 169.564 293.911 168.999ZM305.209 172.915V174.609C305.209 175.1 304.743 175.751 303.49 176.315C302.299 176.855 300.604 177.211 298.7 177.211C296.797 177.211 295.102 176.855 293.911 176.315C292.658 175.751 292.191 175.088 292.191 174.609V172.915C292.548 173.173 292.941 173.406 293.37 173.602C294.77 174.241 296.649 174.609 298.7 174.609C300.751 174.609 302.63 174.228 304.03 173.602C304.448 173.418 304.841 173.185 305.209 172.915ZM306.511 170.705C306.511 169.392 305.369 168.422 304.03 167.821C302.63 167.182 300.751 166.814 298.7 166.814C296.649 166.814 294.77 167.195 293.37 167.821C292.032 168.434 290.89 169.404 290.89 170.705V182.404C290.89 183.718 292.032 184.687 293.37 185.289C294.77 185.927 296.649 186.295 298.7 186.295C300.751 186.295 302.63 185.915 304.03 185.289C305.369 184.675 306.511 183.705 306.511 182.404V170.705ZM305.209 176.819V178.513C305.209 179.004 304.743 179.654 303.49 180.219C302.299 180.759 300.604 181.115 298.7 181.115C296.797 181.115 295.102 180.759 293.911 180.219C292.658 179.654 292.191 178.991 292.191 178.513V176.819C292.548 177.076 292.941 177.31 293.37 177.506C294.77 178.144 296.649 178.513 298.7 178.513C300.751 178.513 302.63 178.132 304.03 177.506C304.448 177.322 304.841 177.089 305.209 176.819ZM305.209 180.71V182.404C305.209 182.895 304.743 183.546 303.49 184.11C302.299 184.65 300.604 185.006 298.7 185.006C296.797 185.006 295.102 184.65 293.911 184.11C292.658 183.546 292.191 182.883 292.191 182.404V180.71C292.548 180.968 292.941 181.201 293.37 181.397C294.77 182.036 296.649 182.404 298.7 182.404C300.751 182.404 302.63 182.023 304.03 181.397C304.448 181.201 304.853 180.98 305.209 180.71Z" fill="white"/>
<path d="M312.7 156.785C313.892 156.244 315.586 155.888 317.49 155.888C319.394 155.888 321.088 156.244 322.28 156.785C323.532 157.349 323.999 158.012 323.999 158.491C323.999 158.97 323.532 159.633 322.28 160.197C321.088 160.737 319.394 161.093 317.49 161.093C315.586 161.093 313.892 160.737 312.7 160.197C311.448 159.633 310.981 158.97 310.981 158.491C310.981 158.012 311.448 157.349 312.7 156.785ZM323.987 160.701V162.395C323.987 162.886 323.52 163.536 322.267 164.101C321.076 164.641 319.381 164.997 317.478 164.997C315.574 164.997 313.879 164.641 312.688 164.101C311.435 163.536 310.969 162.873 310.969 162.395V160.701C311.325 160.958 311.718 161.192 312.148 161.388C313.548 162.026 315.427 162.395 317.478 162.395C319.529 162.395 321.408 162.014 322.808 161.388C323.225 161.204 323.618 160.971 323.987 160.701ZM325.289 158.503C325.289 157.19 324.146 156.22 322.808 155.618C321.408 154.98 319.529 154.612 317.478 154.612C315.427 154.612 313.548 154.992 312.148 155.618C310.809 156.232 309.667 157.202 309.667 158.503V170.202C309.667 171.515 310.809 172.485 312.148 173.087C313.548 173.725 315.427 174.093 317.478 174.093C319.529 174.093 321.408 173.713 322.808 173.087C324.146 172.473 325.289 171.503 325.289 170.202V158.503ZM323.987 164.604V166.298C323.987 166.789 323.52 167.44 322.267 168.005C321.076 168.545 319.381 168.901 317.478 168.901C315.574 168.901 313.879 168.545 312.688 168.005C311.435 167.44 310.969 166.777 310.969 166.298V164.604C311.325 164.862 311.718 165.095 312.148 165.292C313.548 165.93 315.427 166.298 317.478 166.298C319.529 166.298 321.408 165.918 322.808 165.292C323.225 165.107 323.618 164.874 323.987 164.604ZM323.987 168.508V170.202C323.987 170.693 323.52 171.343 322.267 171.908C321.076 172.448 319.381 172.804 317.478 172.804C315.574 172.804 313.879 172.448 312.688 171.908C311.435 171.343 310.969 170.681 310.969 170.202V168.508C311.325 168.766 311.718 168.999 312.148 169.195C313.548 169.834 315.427 170.202 317.478 170.202C319.529 170.202 321.408 169.821 322.808 169.195C323.225 168.999 323.631 168.778 323.987 168.508Z" fill="white"/>
<path d="M311.399 178.746C312.59 178.205 314.285 177.849 316.188 177.849C318.092 177.849 319.787 178.205 320.978 178.746C322.231 179.31 322.697 179.973 322.697 180.452C322.697 180.931 322.231 181.594 320.978 182.158C319.787 182.698 318.092 183.054 316.188 183.054C314.285 183.054 312.59 182.698 311.399 182.158C310.146 181.594 309.679 180.931 309.679 180.452C309.679 179.973 310.146 179.31 311.399 178.746ZM322.685 182.662V184.356C322.685 184.847 322.218 185.497 320.966 186.062C319.774 186.602 318.08 186.958 316.176 186.958C314.272 186.958 312.578 186.602 311.386 186.062C310.134 185.497 309.667 184.834 309.667 184.356V182.662C310.023 182.919 310.416 183.153 310.846 183.349C312.246 183.987 314.125 184.356 316.176 184.356C318.227 184.356 320.106 183.975 321.506 183.349C321.924 183.165 322.317 182.932 322.685 182.662ZM323.987 180.452C323.987 179.138 322.845 178.169 321.506 177.567C320.106 176.929 318.227 176.561 316.176 176.561C314.125 176.561 312.246 176.941 310.846 177.567C309.507 178.181 308.365 179.151 308.365 180.452V192.151C308.365 193.464 309.507 194.434 310.846 195.035C312.246 195.674 314.125 196.042 316.176 196.042C318.227 196.042 320.106 195.661 321.506 195.035C322.845 194.422 323.987 193.452 323.987 192.151V180.452ZM322.685 186.565V188.259C322.685 188.75 322.218 189.401 320.966 189.966C319.774 190.506 318.08 190.862 316.176 190.862C314.272 190.862 312.578 190.506 311.386 189.966C310.134 189.401 309.667 188.738 309.667 188.259V186.565C310.023 186.823 310.416 187.056 310.846 187.253C312.246 187.891 314.125 188.259 316.176 188.259C318.227 188.259 320.106 187.879 321.506 187.253C321.924 187.068 322.317 186.835 322.685 186.565ZM322.685 190.457V192.151C322.685 192.642 322.218 193.292 320.966 193.857C319.774 194.397 318.08 194.753 316.176 194.753C314.272 194.753 312.578 194.397 311.386 193.857C310.134 193.292 309.667 192.629 309.667 192.151V190.457C310.023 190.714 310.416 190.948 310.846 191.144C312.246 191.782 314.125 192.151 316.176 192.151C318.227 192.151 320.106 191.77 321.506 191.144C321.924 190.948 322.329 190.727 322.685 190.457Z" fill="white"/>
<path d="M100.52 232.059C117.538 232.059 131.334 218.269 131.334 201.259C131.334 184.249 117.538 170.459 100.52 170.459C83.5026 170.459 69.707 184.249 69.707 201.259C69.707 218.269 83.5026 232.059 100.52 232.059Z" fill="#2E6C59"/>
<path d="M116.965 218.433H84.0761C82.4795 218.433 81.1777 217.131 81.1777 215.536V186.982C81.1777 185.387 82.4795 184.085 84.0761 184.085H116.965C118.561 184.085 119.863 185.387 119.863 186.982V215.536C119.863 217.131 118.561 218.433 116.965 218.433ZM84.0638 185.239C83.1059 185.239 82.3199 186.013 82.3199 186.97V215.523C82.3199 216.481 83.0936 217.266 84.0638 217.266H116.953C117.91 217.266 118.696 216.493 118.696 215.523V186.97C118.696 186.013 117.923 185.239 116.953 185.239H84.0638Z" fill="white"/>
<path d="M116.289 190.776H81.7549V191.942H116.289V190.776Z" fill="white"/>
<path d="M114.84 187.424H113.833V188.591H114.84V187.424Z" fill="white"/>
<path d="M110.885 187.424H109.829V188.591H110.885V187.424Z" fill="white"/>
<path d="M106.87 187.424H105.813V188.591H106.87V187.424Z" fill="white"/>
<path d="M101.656 197.033L98.2783 212.001L99.4164 212.258L102.794 197.29L101.656 197.033Z" fill="white"/>
<path d="M106.92 209.95L106.158 209.066L111.255 204.672L106.158 200.277L106.92 199.393L113.036 204.672L106.92 209.95Z" fill="white"/>
<path d="M94.1101 209.95L87.9941 204.672L94.1101 199.393L94.8715 200.277L89.7872 204.672L94.8715 209.066L94.1101 209.95Z" fill="white"/>
<path d="M305.27 343.227C322.288 343.227 336.084 329.437 336.084 312.427C336.084 295.417 322.288 281.627 305.27 281.627C288.253 281.627 274.457 295.417 274.457 312.427C274.457 329.437 288.253 343.227 305.27 343.227Z" fill="#2E6C59"/>
<path d="M303.76 327.232H292.486C285.854 327.232 280.463 321.978 280.463 315.508C280.463 310.107 284.147 305.491 289.453 304.153C289.981 301.625 291.626 299.022 294.009 296.972C297.141 294.272 301.132 292.786 305.271 292.774C313.597 292.774 320.475 298.74 321.445 306.719C326.394 307.627 330.078 311.924 330.078 316.883C330.078 322.591 325.326 327.232 319.468 327.232H303.748H303.76ZM305.271 293.916C301.414 293.916 297.681 295.327 294.758 297.844C292.462 299.82 290.902 302.337 290.509 304.718L290.447 305.099L290.067 305.185C285.081 306.289 281.593 310.537 281.593 315.508C281.593 321.339 286.481 326.09 292.474 326.09H319.468C324.687 326.09 328.936 321.965 328.936 316.883C328.936 312.341 325.461 308.425 320.843 307.775L320.401 307.713L320.364 307.259C319.652 299.648 313.167 293.903 305.283 293.903L305.271 293.916Z" fill="white"/>
<path d="M303.404 309.997C303.06 309.997 302.777 310.279 302.777 310.623V314.354C302.777 314.698 303.06 314.98 303.404 314.98H307.137C307.481 314.98 307.763 314.698 307.763 314.354V310.623C307.763 310.279 307.481 309.997 307.137 309.997H303.404Z" fill="white"/>
<path d="M302.163 303.171C302.163 302.828 301.881 302.545 301.537 302.545C301.193 302.545 300.911 302.828 300.911 303.171V305.037C299.191 305.037 297.804 306.425 297.804 308.143H295.937C295.593 308.143 295.311 308.425 295.311 308.769C295.311 309.113 295.593 309.395 295.937 309.395H297.804V310.635H295.937C295.593 310.635 295.311 310.917 295.311 311.261C295.311 311.605 295.593 311.887 295.937 311.887H297.804V313.127H295.937C295.593 313.127 295.311 313.409 295.311 313.753C295.311 314.097 295.593 314.379 295.937 314.379H297.804V315.619H295.937C295.593 315.619 295.311 315.901 295.311 316.245C295.311 316.589 295.593 316.871 295.937 316.871H297.804C297.804 318.59 299.191 319.977 300.911 319.977V321.843C300.911 322.186 301.193 322.469 301.537 322.469C301.881 322.469 302.163 322.186 302.163 321.843V319.977H303.404V321.843C303.404 322.186 303.686 322.469 304.03 322.469C304.374 322.469 304.656 322.186 304.656 321.843V319.977H305.897V321.843C305.897 322.186 306.179 322.469 306.523 322.469C306.867 322.469 307.15 322.186 307.15 321.843V319.977H308.39V321.843C308.39 322.186 308.672 322.469 309.016 322.469C309.36 322.469 309.643 322.186 309.643 321.843V319.977C311.362 319.977 312.75 318.59 312.75 316.871H314.616C314.96 316.871 315.243 316.589 315.243 316.245C315.243 315.901 314.96 315.619 314.616 315.619H312.75V314.379H314.616C314.96 314.379 315.243 314.097 315.243 313.753C315.243 313.409 314.96 313.127 314.616 313.127H312.75V311.887H314.616C314.96 311.887 315.243 311.605 315.243 311.261C315.243 310.917 314.96 310.635 314.616 310.635H312.75V309.395H314.616C314.96 309.395 315.243 309.113 315.243 308.769C315.243 308.425 314.96 308.143 314.616 308.143H312.75C312.75 306.425 311.362 305.037 309.643 305.037V303.171C309.643 302.828 309.36 302.545 309.016 302.545C308.672 302.545 308.39 302.828 308.39 303.171V305.037H307.15V303.171C307.15 302.828 306.867 302.545 306.523 302.545C306.179 302.545 305.897 302.828 305.897 303.171V305.037H304.656V303.171C304.656 302.828 304.374 302.545 304.03 302.545C303.686 302.545 303.404 302.828 303.404 303.171V305.037H302.163V303.171ZM303.404 308.757H307.137C308.169 308.757 309.004 309.592 309.004 310.623V314.355C309.004 315.386 308.169 316.22 307.137 316.22H303.404C302.372 316.22 301.537 315.386 301.537 314.355V310.623C301.537 309.592 302.372 308.757 303.404 308.757Z" fill="white"/>
</g>
<defs>
<linearGradient id="paint0_linear_349_6659" x1="-16.3073" y1="232.642" x2="494.535" y2="232.642" gradientUnits="userSpaceOnUse">
<stop offset="0.04" stop-color="#E1F9D3"/>
<stop offset="0.25" stop-color="#60958C"/>
<stop offset="0.28" stop-color="#568C81"/>
<stop offset="0.37" stop-color="#3F7A6B"/>
<stop offset="0.45" stop-color="#326F5D"/>
<stop offset="0.52" stop-color="#2E6C59"/>
<stop offset="0.74" stop-color="#34786C"/>
<stop offset="1" stop-color="#E1F9D3"/>
</linearGradient>
<clipPath id="clip0_349_6659">
<rect width="507" height="450" fill="white"/>
</clipPath>
</defs>
</svg>
