<svg width="61" height="60" viewBox="0 0 61 60" fill="none" xmlns="http://www.w3.org/2000/svg">
<g clip-path="url(#clip0_234_41049)">
<path d="M22.75 0H6.75C3.44 0 0.75 2.69 0.75 6V22C0.75 23.1 1.65 24 2.75 24H9.24C9.76 24 10.24 23.71 10.47 23.24C10.71 22.77 10.66 22.2 10.34 21.78C9.38 20.48 9.62 18.65 10.88 17.65C12.18 16.63 14.07 16.85 15.09 18.15C15.92 19.21 15.95 20.7 15.15 21.78C14.83 22.2 14.78 22.77 15.02 23.24C15.25 23.71 15.73 24 16.25 24H22.74C23.84 24 24.74 23.1 24.74 22V16.58C26.82 17.49 29.25 16.88 30.66 15.11C31.62 13.9 31.97 12.32 31.61 10.82C31.18 9.01 29.77 7.59 27.97 7.15C26.9 6.89 25.76 6.98 24.75 7.42V2C24.75 0.9 23.85 0 22.75 0Z" fill="#006E58"/>
<path d="M54.7505 14H38.7505C37.6505 14 36.7505 14.9 36.7505 16V22.49C36.7505 23.01 37.0405 23.49 37.5005 23.72C37.9705 23.96 38.5405 23.91 38.9605 23.59C40.2705 22.66 42.0705 22.9 43.0905 24.13C44.1205 25.43 43.8905 27.32 42.5905 28.34C41.5305 29.18 40.0405 29.2 38.9505 28.4C38.5305 28.08 37.9605 28.03 37.4905 28.27C37.0205 28.5 36.7305 28.98 36.7305 29.5V35.99H31.3105C32.2205 33.91 31.6105 31.48 29.8405 30.07C28.6305 29.11 27.0505 28.76 25.5505 29.12C23.7405 29.55 22.3205 30.96 21.8805 32.76C21.6205 33.83 21.7105 34.97 22.1505 35.98H16.7305C15.6305 35.98 14.7305 36.88 14.7305 37.98V53.98C14.7305 57.29 17.4205 59.98 20.7305 59.98H54.7305C58.0405 59.98 60.7305 57.29 60.7305 53.98V20C60.7305 16.69 58.0405 14 54.7305 14H54.7505ZM41.9705 30.85C43.7805 30.41 45.1805 28.99 45.6105 27.18C45.9705 25.68 45.6205 24.1 44.6605 22.89C43.2505 21.11 40.8205 20.51 38.7405 21.42V16H54.7405C56.9505 16 58.7405 17.79 58.7405 20V36H52.2505C51.7305 36 51.2505 36.29 51.0205 36.76C50.7805 37.23 50.8305 37.8 51.1505 38.22C52.1405 39.55 51.8605 41.43 50.5305 42.42C49.2005 43.41 47.3205 43.13 46.3305 41.8C45.9405 41.28 45.7405 40.65 45.7405 40C45.7405 39.36 45.9505 38.73 46.3305 38.22C46.6505 37.8 46.7005 37.23 46.4605 36.76C46.2305 36.29 45.7505 36 45.2305 36.01H38.7405V30.59C39.7605 31.03 40.8905 31.13 41.9605 30.86L41.9705 30.85ZM16.7505 54V38H23.2505C23.7705 38 24.2505 37.71 24.4805 37.24C24.7205 36.77 24.6705 36.2 24.3505 35.78C23.3605 34.45 23.6305 32.57 24.9505 31.58C26.2805 30.59 28.1605 30.86 29.1505 32.18C29.5405 32.7 29.7505 33.34 29.7505 33.99C29.7505 34.63 29.5405 35.26 29.1605 35.77C28.8405 36.19 28.7905 36.76 29.0305 37.23C29.2605 37.7 29.7405 37.99 30.2605 37.98H36.7505V43.4C34.6705 42.49 32.2405 43.1 30.8305 44.88C29.8705 46.09 29.5205 47.67 29.8805 49.17C30.3105 50.98 31.7105 52.4 33.5205 52.84C34.5905 53.1 35.7305 53.01 36.7405 52.57V57.99H20.7405C18.5305 57.99 16.7405 56.2 16.7405 53.99L16.7505 54ZM54.7505 58H38.7505V51.51C38.7505 50.99 38.4605 50.51 37.9905 50.28C37.5205 50.04 36.9505 50.09 36.5305 50.41C35.8005 50.95 34.8705 51.13 33.9905 50.91C32.3905 50.5 31.4205 48.86 31.8305 47.26C31.9405 46.85 32.1305 46.47 32.3905 46.14C33.4105 44.9 35.2205 44.67 36.5305 45.6C36.9505 45.92 37.5205 45.97 37.9905 45.73C38.4605 45.5 38.7505 45.02 38.7505 44.5V38.01H44.1705C43.2605 40.09 43.8705 42.52 45.6505 43.93C46.8605 44.89 48.4405 45.24 49.9405 44.88C51.7505 44.45 53.1705 43.05 53.6105 41.24C53.8705 40.17 53.7805 39.03 53.3405 38.02H58.7605V54.02C58.7605 56.23 56.9705 58.02 54.7605 58.02L54.7505 58Z" fill="#006E58"/>
</g>
<defs>
<clipPath id="clip0_234_41049">
<rect width="60" height="60" fill="white" transform="translate(0.75)"/>
</clipPath>
</defs>
</svg>
