<svg width="61" height="61" viewBox="0 0 61 61" fill="none" xmlns="http://www.w3.org/2000/svg">
<g clip-path="url(#clip0_171_1833)">
<path d="M41.8246 12.3986C41.8246 13.677 40.7888 14.7055 39.5178 14.7055C38.2468 14.7055 37.2109 13.6696 37.2109 12.3986C37.2109 11.1277 38.2468 10.0918 39.5178 10.0918C40.7888 10.0918 41.8246 11.1277 41.8246 12.3986Z" fill="black"/>
<path d="M51.0522 21.634C51.0522 22.9123 50.0163 23.9408 48.7453 23.9408C47.4744 23.9408 46.4385 22.905 46.4385 21.634C46.4385 20.363 47.4744 19.3271 48.7453 19.3271C50.0163 19.3271 51.0522 20.363 51.0522 21.634Z" fill="black"/>
<path d="M37.2113 26.2473C37.2113 27.5256 36.1755 28.5541 34.9045 28.5541C33.6335 28.5541 32.5977 27.5182 32.5977 26.2473C32.5977 24.9763 33.6335 23.9404 34.9045 23.9404C36.1755 23.9404 37.2113 24.9763 37.2113 26.2473Z" fill="black"/>
<path d="M27.977 7.78536C27.977 9.05633 26.9411 10.0922 25.6701 10.0922C24.3992 10.0922 23.3633 9.05633 23.3633 7.78536C23.3633 6.51439 24.3992 5.47852 25.6701 5.47852C26.9411 5.47852 27.977 6.51439 27.977 7.78536Z" fill="black"/>
<path d="M9.52189 12.3986C9.52189 13.677 8.48602 14.7055 7.21505 14.7055C5.94408 14.7055 4.9082 13.6696 4.9082 12.3986C4.9082 11.1277 5.94408 10.0918 7.21505 10.0918C8.48602 10.0918 9.52189 11.1277 9.52189 12.3986Z" fill="black"/>
<path d="M27.977 12.3986C27.977 13.677 26.9411 14.7055 25.6701 14.7055C24.3992 14.7055 23.3633 13.6696 23.3633 12.3986C23.3633 11.1277 24.3992 10.0918 25.6701 10.0918C26.9411 10.0918 27.977 11.1277 27.977 12.3986Z" fill="black"/>
<path d="M9.52189 17.0197C9.52189 18.2907 8.48602 19.3266 7.21505 19.3266C5.94408 19.3266 4.9082 18.2907 4.9082 17.0197C4.9082 15.7488 5.94408 14.7129 7.21505 14.7129C8.48602 14.7129 9.52189 15.7488 9.52189 17.0197Z" fill="black"/>
<path d="M27.977 17.0197C27.977 18.2907 26.9411 19.3266 25.6701 19.3266C24.3992 19.3266 23.3633 18.2907 23.3633 17.0197C23.3633 15.7488 24.3992 14.7129 25.6701 14.7129C26.9411 14.7129 27.977 15.7488 27.977 17.0197Z" fill="black"/>
<path d="M9.52189 21.634C9.52189 22.9123 8.48602 23.9408 7.21505 23.9408C5.94408 23.9408 4.9082 22.905 4.9082 21.634C4.9082 20.363 5.94408 19.3271 7.21505 19.3271C8.48602 19.3271 9.52189 20.363 9.52189 21.634Z" fill="black"/>
<path d="M14.1352 21.634C14.1352 22.9123 13.0993 23.9408 11.8283 23.9408C10.5574 23.9408 9.52148 22.905 9.52148 21.634C9.52148 20.363 10.5574 19.3271 11.8283 19.3271C13.0993 19.3271 14.1352 20.363 14.1352 21.634Z" fill="black"/>
<path d="M18.7494 21.634C18.7494 22.9123 17.7136 23.9408 16.4426 23.9408C15.1716 23.9408 14.1357 22.905 14.1357 21.634C14.1357 20.363 15.1716 19.3271 16.4426 19.3271C17.7136 19.3271 18.7494 20.363 18.7494 21.634Z" fill="black"/>
<path d="M27.977 21.634C27.977 22.9123 26.9411 23.9408 25.6701 23.9408C24.3992 23.9408 23.3633 22.905 23.3633 21.634C23.3633 20.363 24.3992 19.3271 25.6701 19.3271C26.9411 19.3271 27.977 20.363 27.977 21.634Z" fill="black"/>
<path d="M32.5903 21.634C32.5903 22.9123 31.5544 23.9408 30.2834 23.9408C29.0124 23.9408 27.9766 22.905 27.9766 21.634C27.9766 20.363 29.0124 19.3271 30.2834 19.3271C31.5544 19.3271 32.5903 20.363 32.5903 21.634Z" fill="black"/>
<path d="M37.2113 21.634C37.2113 22.9123 36.1755 23.9408 34.9045 23.9408C33.6335 23.9408 32.5977 22.905 32.5977 21.634C32.5977 20.363 33.6335 19.3271 34.9045 19.3271C36.1755 19.3271 37.2113 20.363 37.2113 21.634Z" fill="black"/>
<path d="M41.8246 21.634C41.8246 22.9123 40.7888 23.9408 39.5178 23.9408C38.2468 23.9408 37.2109 22.905 37.2109 21.634C37.2109 20.363 38.2468 19.3271 39.5178 19.3271C40.7888 19.3271 41.8246 20.363 41.8246 21.634Z" fill="black"/>
<path d="M18.7494 26.2473C18.7494 27.5256 17.7136 28.5541 16.4426 28.5541C15.1716 28.5541 14.1357 27.5182 14.1357 26.2473C14.1357 24.9763 15.1716 23.9404 16.4426 23.9404C17.7136 23.9404 18.7494 24.9763 18.7494 26.2473Z" fill="black"/>
<path d="M32.5903 26.2473C32.5903 27.5256 31.5544 28.5541 30.2834 28.5541C29.0124 28.5541 27.9766 27.5182 27.9766 26.2473C27.9766 24.9763 29.0124 23.9404 30.2834 23.9404C31.5544 23.9404 32.5903 24.9763 32.5903 26.2473Z" fill="black"/>
<path d="M41.8246 26.2473C41.8246 27.5256 40.7888 28.5541 39.5178 28.5541C38.2468 28.5541 37.2109 27.5182 37.2109 26.2473C37.2109 24.9763 38.2468 23.9404 39.5178 23.9404C40.7888 23.9404 41.8246 24.9763 41.8246 26.2473Z" fill="black"/>
<path d="M18.7494 30.8684C18.7494 32.1467 17.7136 33.1752 16.4426 33.1752C15.1716 33.1752 14.1357 32.1393 14.1357 30.8684C14.1357 29.5974 15.1716 28.5615 16.4426 28.5615C17.7136 28.5615 18.7494 29.5974 18.7494 30.8684Z" fill="black"/>
<path d="M27.977 30.8684C27.977 32.1467 26.9411 33.1752 25.6701 33.1752C24.3992 33.1752 23.3633 32.1393 23.3633 30.8684C23.3633 29.5974 24.3992 28.5615 25.6701 28.5615C26.9411 28.5615 27.977 29.5974 27.977 30.8684Z" fill="black"/>
<path d="M32.5903 30.8684C32.5903 32.1467 31.5544 33.1752 30.2834 33.1752C29.0124 33.1752 27.9766 32.1393 27.9766 30.8684C27.9766 29.5974 29.0124 28.5615 30.2834 28.5615C31.5544 28.5615 32.5903 29.5974 32.5903 30.8684Z" fill="black"/>
<path d="M37.2113 30.8684C37.2113 32.1467 36.1755 33.1752 34.9045 33.1752C33.6335 33.1752 32.5977 32.1393 32.5977 30.8684C32.5977 29.5974 33.6335 28.5615 34.9045 28.5615C36.1755 28.5615 37.2113 29.5974 37.2113 30.8684Z" fill="black"/>
<path d="M41.8246 30.8684C41.8246 32.1467 40.7888 33.1752 39.5178 33.1752C38.2468 33.1752 37.2109 32.1393 37.2109 30.8684C37.2109 29.5974 38.2468 28.5615 39.5178 28.5615C40.7888 28.5615 41.8246 29.5974 41.8246 30.8684Z" fill="black"/>
<path d="M18.7494 35.4816C18.7494 36.76 17.7136 37.7885 16.4426 37.7885C15.1716 37.7885 14.1357 36.7526 14.1357 35.4816C14.1357 34.2107 15.1716 33.1748 16.4426 33.1748C17.7136 33.1748 18.7494 34.2107 18.7494 35.4816Z" fill="black"/>
<path d="M27.977 35.4816C27.977 36.76 26.9411 37.7885 25.6701 37.7885C24.3992 37.7885 23.3633 36.7526 23.3633 35.4816C23.3633 34.2107 24.3992 33.1748 25.6701 33.1748C26.9411 33.1748 27.977 34.2107 27.977 35.4816Z" fill="black"/>
<path d="M32.5903 35.4816C32.5903 36.76 31.5544 37.7885 30.2834 37.7885C29.0124 37.7885 27.9766 36.7526 27.9766 35.4816C27.9766 34.2107 29.0124 33.1748 30.2834 33.1748C31.5544 33.1748 32.5903 34.2107 32.5903 35.4816Z" fill="black"/>
<path d="M41.8246 35.4816C41.8246 36.76 40.7888 37.7885 39.5178 37.7885C38.2468 37.7885 37.2109 36.7526 37.2109 35.4816C37.2109 34.2107 38.2468 33.1748 39.5178 33.1748C40.7888 33.1748 41.8246 34.2107 41.8246 35.4816Z" fill="black"/>
<path d="M41.8246 40.1027C41.8246 41.3811 40.7888 42.4096 39.5178 42.4096C38.2468 42.4096 37.2109 41.3737 37.2109 40.1027C37.2109 38.8318 38.2468 37.7959 39.5178 37.7959C40.7888 37.7959 41.8246 38.8318 41.8246 40.1027Z" fill="black"/>
<path d="M46.4389 40.1027C46.4389 41.3811 45.403 42.4096 44.132 42.4096C42.8611 42.4096 41.8252 41.3737 41.8252 40.1027C41.8252 38.8318 42.8611 37.7959 44.132 37.7959C45.403 37.7959 46.4389 38.8318 46.4389 40.1027Z" fill="black"/>
<path d="M51.0522 40.1027C51.0522 41.3811 50.0163 42.4096 48.7453 42.4096C47.4744 42.4096 46.4385 41.3737 46.4385 40.1027C46.4385 38.8318 47.4744 37.7959 48.7453 37.7959C50.0163 37.7959 51.0522 38.8318 51.0522 40.1027Z" fill="black"/>
<path d="M55.6664 40.1027C55.6664 41.3811 54.6305 42.4096 53.3596 42.4096C52.0886 42.4096 51.0527 41.3737 51.0527 40.1027C51.0527 38.8318 52.0886 37.7959 53.3596 37.7959C54.6305 37.7959 55.6664 38.8318 55.6664 40.1027Z" fill="black"/>
<path d="M27.977 44.717C27.977 45.9953 26.9411 47.0238 25.6701 47.0238C24.3992 47.0238 23.3633 45.988 23.3633 44.717C23.3633 43.446 24.3992 42.4102 25.6701 42.4102C26.9411 42.4102 27.977 43.446 27.977 44.717Z" fill="black"/>
<path d="M32.5903 44.717C32.5903 45.9953 31.5544 47.0238 30.2834 47.0238C29.0124 47.0238 27.9766 45.988 27.9766 44.717C27.9766 43.446 29.0124 42.4102 30.2834 42.4102C31.5544 42.4102 32.5903 43.446 32.5903 44.717Z" fill="black"/>
<path d="M14.1352 49.3381C14.1352 50.6164 13.0993 51.6449 11.8283 51.6449C10.5574 51.6449 9.52148 50.6091 9.52148 49.3381C9.52148 48.0671 10.5574 47.0312 11.8283 47.0312C13.0993 47.0312 14.1352 48.0671 14.1352 49.3381Z" fill="black"/>
<path d="M18.7494 49.3381C18.7494 50.6164 17.7136 51.6449 16.4426 51.6449C15.1716 51.6449 14.1357 50.6091 14.1357 49.3381C14.1357 48.0671 15.1716 47.0312 16.4426 47.0312C17.7136 47.0312 18.7494 48.0671 18.7494 49.3381Z" fill="black"/>
<path d="M23.3627 49.3381C23.3627 50.6164 22.3268 51.6449 21.0559 51.6449C19.7849 51.6449 18.749 50.6091 18.749 49.3381C18.749 48.0671 19.7849 47.0312 21.0559 47.0312C22.3268 47.0312 23.3627 48.0671 23.3627 49.3381Z" fill="black"/>
<path d="M27.977 49.3381C27.977 50.6164 26.9411 51.6449 25.6701 51.6449C24.3992 51.6449 23.3633 50.6091 23.3633 49.3381C23.3633 48.0671 24.3992 47.0312 25.6701 47.0312C26.9411 47.0312 27.977 48.0671 27.977 49.3381Z" fill="black"/>
<path d="M32.5903 49.3381C32.5903 50.6164 31.5544 51.6449 30.2834 51.6449C29.0124 51.6449 27.9766 50.6091 27.9766 49.3381C27.9766 48.0671 29.0124 47.0312 30.2834 47.0312C31.5544 47.0312 32.5903 48.0671 32.5903 49.3381Z" fill="black"/>
<path d="M37.2113 49.3381C37.2113 50.6164 36.1755 51.6449 34.9045 51.6449C33.6335 51.6449 32.5977 50.6091 32.5977 49.3381C32.5977 48.0671 33.6335 47.0312 34.9045 47.0312C36.1755 47.0312 37.2113 48.0671 37.2113 49.3381Z" fill="black"/>
<path d="M14.1352 53.9514C14.1352 55.2223 13.0993 56.2582 11.8283 56.2582C10.5574 56.2582 9.52148 55.2223 9.52148 53.9514C9.52148 52.6804 10.5574 51.6445 11.8283 51.6445C13.0993 51.6445 14.1352 52.6804 14.1352 53.9514Z" fill="black"/>
<path d="M27.977 3.16427C27.977 4.43524 26.9411 5.47111 25.6701 5.47111C24.3992 5.47111 23.3633 4.43524 23.3633 3.16427C23.3633 1.8933 24.3992 0.857422 25.6701 0.857422C26.9411 0.857422 27.977 1.8933 27.977 3.16427Z" fill="black"/>
<path d="M9.52189 7.78536C9.52189 9.05633 8.48602 10.0922 7.21505 10.0922C5.94408 10.0922 4.9082 9.05633 4.9082 7.78536C4.9082 6.51439 5.94408 5.47852 7.21505 5.47852C8.48602 5.47852 9.52189 6.51439 9.52189 7.78536Z" fill="black"/>
<path d="M23.3627 7.78536C23.3627 9.05633 22.3268 10.0922 21.0559 10.0922C19.7849 10.0922 18.749 9.05633 18.749 7.78536C18.749 6.51439 19.7849 5.47852 21.0559 5.47852C22.3268 5.47852 23.3627 6.51439 23.3627 7.78536Z" fill="black"/>
<path d="M32.5903 7.78536C32.5903 9.05633 31.5544 10.0922 30.2834 10.0922C29.0124 10.0922 27.9766 9.05633 27.9766 7.78536C27.9766 6.51439 29.0124 5.47852 30.2834 5.47852C31.5544 5.47852 32.5903 6.51439 32.5903 7.78536Z" fill="black"/>
<path d="M4.9008 12.3986C4.9008 13.677 3.86492 14.7055 2.59395 14.7055C1.32299 14.7055 0.287109 13.6696 0.287109 12.3986C0.287109 11.1277 1.32299 10.0918 2.59395 10.0918C3.86492 10.0918 4.9008 11.1277 4.9008 12.3986Z" fill="black"/>
<path d="M14.1352 12.3986C14.1352 13.677 13.0993 14.7055 11.8283 14.7055C10.5574 14.7055 9.52148 13.6696 9.52148 12.3986C9.52148 11.1277 10.5574 10.0918 11.8283 10.0918C13.0993 10.0918 14.1352 11.1277 14.1352 12.3986Z" fill="black"/>
<path d="M46.4389 12.3986C46.4389 13.677 45.403 14.7055 44.132 14.7055C42.8611 14.7055 41.8252 13.6696 41.8252 12.3986C41.8252 11.1277 42.8611 10.0918 44.132 10.0918C45.403 10.0918 46.4389 11.1277 46.4389 12.3986Z" fill="black"/>
<path d="M37.2113 17.0197C37.2113 18.2907 36.1755 19.3266 34.9045 19.3266C33.6335 19.3266 32.5977 18.2907 32.5977 17.0197C32.5977 15.7488 33.6335 14.7129 34.9045 14.7129C36.1755 14.7129 37.2113 15.7488 37.2113 17.0197Z" fill="black"/>
<path d="M41.8246 17.0197C41.8246 18.2907 40.7888 19.3266 39.5178 19.3266C38.2468 19.3266 37.2109 18.2907 37.2109 17.0197C37.2109 15.7488 38.2468 14.7129 39.5178 14.7129C40.7888 14.7129 41.8246 15.7488 41.8246 17.0197Z" fill="black"/>
<path d="M46.4389 17.0197C46.4389 18.2907 45.403 19.3266 44.132 19.3266C42.8611 19.3266 41.8252 18.2907 41.8252 17.0197C41.8252 15.7488 42.8611 14.7129 44.132 14.7129C45.403 14.7129 46.4389 15.7488 46.4389 17.0197Z" fill="black"/>
<path d="M51.0522 17.0197C51.0522 18.2907 50.0163 19.3266 48.7453 19.3266C47.4744 19.3266 46.4385 18.2907 46.4385 17.0197C46.4385 15.7488 47.4744 14.7129 48.7453 14.7129C50.0163 14.7129 51.0522 15.7488 51.0522 17.0197Z" fill="black"/>
<path d="M46.4389 21.634C46.4389 22.9123 45.403 23.9408 44.132 23.9408C42.8611 23.9408 41.8252 22.905 41.8252 21.634C41.8252 20.363 42.8611 19.3271 44.132 19.3271C45.403 19.3271 46.4389 20.363 46.4389 21.634Z" fill="black"/>
<path d="M27.977 26.2473C27.977 27.5256 26.9411 28.5541 25.6701 28.5541C24.3992 28.5541 23.3633 27.5182 23.3633 26.2473C23.3633 24.9763 24.3992 23.9404 25.6701 23.9404C26.9411 23.9404 27.977 24.9763 27.977 26.2473Z" fill="black"/>
<path d="M46.4389 26.2473C46.4389 27.5256 45.403 28.5541 44.132 28.5541C42.8611 28.5541 41.8252 27.5182 41.8252 26.2473C41.8252 24.9763 42.8611 23.9404 44.132 23.9404C45.403 23.9404 46.4389 24.9763 46.4389 26.2473Z" fill="black"/>
<path d="M23.3627 30.8684C23.3627 32.1467 22.3268 33.1752 21.0559 33.1752C19.7849 33.1752 18.749 32.1393 18.749 30.8684C18.749 29.5974 19.7849 28.5615 21.0559 28.5615C22.3268 28.5615 23.3627 29.5974 23.3627 30.8684Z" fill="black"/>
<path d="M23.3627 35.4816C23.3627 36.76 22.3268 37.7885 21.0559 37.7885C19.7849 37.7885 18.749 36.7526 18.749 35.4816C18.749 34.2107 19.7849 33.1748 21.0559 33.1748C22.3268 33.1748 23.3627 34.2107 23.3627 35.4816Z" fill="black"/>
<path d="M37.2113 35.4816C37.2113 36.76 36.1755 37.7885 34.9045 37.7885C33.6335 37.7885 32.5977 36.7526 32.5977 35.4816C32.5977 34.2107 33.6335 33.1748 34.9045 33.1748C36.1755 33.1748 37.2113 34.2107 37.2113 35.4816Z" fill="black"/>
<path d="M55.6664 35.4816C55.6664 36.76 54.6305 37.7885 53.3596 37.7885C52.0886 37.7885 51.0527 36.7526 51.0527 35.4816C51.0527 34.2107 52.0886 33.1748 53.3596 33.1748C54.6305 33.1748 55.6664 34.2107 55.6664 35.4816Z" fill="black"/>
<path d="M23.3627 40.1027C23.3627 41.3811 22.3268 42.4096 21.0559 42.4096C19.7849 42.4096 18.749 41.3737 18.749 40.1027C18.749 38.8318 19.7849 37.7959 21.0559 37.7959C22.3268 37.7959 23.3627 38.8318 23.3627 40.1027Z" fill="black"/>
<path d="M27.977 40.1027C27.977 41.3811 26.9411 42.4096 25.6701 42.4096C24.3992 42.4096 23.3633 41.3737 23.3633 40.1027C23.3633 38.8318 24.3992 37.7959 25.6701 37.7959C26.9411 37.7959 27.977 38.8318 27.977 40.1027Z" fill="black"/>
<path d="M32.5903 40.1027C32.5903 41.3811 31.5544 42.4096 30.2834 42.4096C29.0124 42.4096 27.9766 41.3737 27.9766 40.1027C27.9766 38.8318 29.0124 37.7959 30.2834 37.7959C31.5544 37.7959 32.5903 38.8318 32.5903 40.1027Z" fill="black"/>
<path d="M60.2875 40.1027C60.2875 41.3811 59.2516 42.4096 57.9807 42.4096C56.7097 42.4096 55.6738 41.3737 55.6738 40.1027C55.6738 38.8318 56.7097 37.7959 57.9807 37.7959C59.2516 37.7959 60.2875 38.8318 60.2875 40.1027Z" fill="black"/>
<path d="M55.6664 44.717C55.6664 45.9953 54.6305 47.0238 53.3596 47.0238C52.0886 47.0238 51.0527 45.988 51.0527 44.717C51.0527 43.446 52.0886 42.4102 53.3596 42.4102C54.6305 42.4102 55.6664 43.446 55.6664 44.717Z" fill="black"/>
<path d="M9.52189 53.9514C9.52189 55.2223 8.48602 56.2582 7.21505 56.2582C5.94408 56.2582 4.9082 55.2223 4.9082 53.9514C4.9082 52.6804 5.94408 51.6445 7.21505 51.6445C8.48602 51.6445 9.52189 52.6804 9.52189 53.9514Z" fill="black"/>
<path d="M18.7494 53.9514C18.7494 55.2223 17.7136 56.2582 16.4426 56.2582C15.1716 56.2582 14.1357 55.2223 14.1357 53.9514C14.1357 52.6804 15.1716 51.6445 16.4426 51.6445C17.7136 51.6445 18.7494 52.6804 18.7494 53.9514Z" fill="black"/>
<path d="M14.1352 58.5725C14.1352 59.8508 13.0993 60.8793 11.8283 60.8793C10.5574 60.8793 9.52148 59.8434 9.52148 58.5725C9.52148 57.3015 10.5574 56.2656 11.8283 56.2656C13.0993 56.2656 14.1352 57.3015 14.1352 58.5725Z" fill="black"/>
</g>
<defs>
<clipPath id="clip0_171_1833">
<rect width="60" height="60.022" fill="white" transform="translate(0.287109 0.857422)"/>
</clipPath>
</defs>
</svg>
