<svg width="123" height="122" viewBox="0 0 123 122" fill="none" xmlns="http://www.w3.org/2000/svg">
<path d="M61.1558 121.782C94.8541 121.782 122.166 94.7009 122.166 61.2802C122.166 27.8595 94.8541 0.798828 61.1558 0.798828C27.4574 0.798828 0.166016 27.8801 0.166016 61.3008C0.166016 94.7215 27.4779 121.803 61.1558 121.803V121.782Z" fill="#006E58"/>
<g clip-path="url(#clip0_434_5213)">
<path d="M74.1437 87.2412C90.2763 80.0555 97.5042 61.2079 90.2878 45.144C83.0713 29.0801 64.1431 21.8829 48.0105 29.0687C31.8779 36.2544 24.6499 55.102 31.8664 71.1659C39.0829 87.2298 58.011 94.4269 74.1437 87.2412Z" stroke="#DCE7E5" stroke-width="1.8" stroke-linecap="round" stroke-linejoin="round"/>
<path d="M88.281 75.6753L98.8277 86.1771C101.475 88.8133 101.475 93.0972 98.8277 95.7334C97.504 97.0515 95.763 97.7105 94.0364 97.7105C92.3098 97.7105 90.5687 97.0515 89.245 95.7334L78.6982 85.2315" stroke="#DCE7E5" stroke-width="1.8" stroke-linecap="round" stroke-linejoin="round"/>
<path d="M64.3478 60.0943C69.4699 58.3311 72.1868 52.7672 70.4161 47.6669C68.6454 42.5666 63.0577 39.8613 57.9356 41.6244C52.8134 43.3876 50.0966 48.9515 51.8673 54.0518C53.6379 59.1521 59.2257 61.8574 64.3478 60.0943Z" stroke="#DCE7E5" stroke-width="1.8" stroke-linecap="round" stroke-linejoin="round"/>
<path d="M66.0645 59.686L72.8127 61.6489C76.8846 62.5228 77.8774 67.6949 78.5105 74.6007" stroke="#DCE7E5" stroke-width="1.8" stroke-linecap="round" stroke-linejoin="round"/>
<path d="M56.2371 59.686L49.4889 61.6489C45.4169 62.5228 44.4241 67.6949 43.791 74.6007" stroke="#DCE7E5" stroke-width="1.8" stroke-linecap="round" stroke-linejoin="round"/>
<path d="M101.892 58.3394C104.959 58.3394 107.446 55.8634 107.446 52.8091C107.446 49.7548 104.959 47.2788 101.892 47.2788C98.8245 47.2788 96.3379 49.7548 96.3379 52.8091C96.3379 55.8634 98.8245 58.3394 101.892 58.3394Z" stroke="#DCE7E5" stroke-width="1.8" stroke-linecap="round" stroke-linejoin="round"/>
<path d="M104.669 57.7949L108.482 58.9124C110.784 59.3996 111.345 62.3223 111.705 66.2336" stroke="#DCE7E5" stroke-width="1.8" stroke-linecap="round" stroke-linejoin="round"/>
<path d="M99.1154 57.7949L95.3024 58.9124C93.7916 59.242 93.0291 60.6031 92.583 62.6232" stroke="#DCE7E5" stroke-width="1.8" stroke-linecap="round" stroke-linejoin="round"/>
<path d="M81.8778 58.5687C78.3526 58.5687 75.4893 55.7176 75.4893 52.2075C75.4893 48.6973 78.3526 45.8462 81.8778 45.8462C85.4029 45.8462 88.2662 48.6973 88.2662 52.2075C88.2662 55.7176 85.4029 58.5687 81.8778 58.5687Z" stroke="#DCE7E5" stroke-width="1.8" stroke-linecap="round" stroke-linejoin="round"/>
<path d="M85.0723 57.9526L89.4608 59.2278C91.1874 59.6003 92.0651 61.1619 92.5831 63.4543" stroke="#DCE7E5" stroke-width="1.8" stroke-linecap="round" stroke-linejoin="round"/>
<path d="M78.6691 57.9526L75.0576 59.0128" stroke="#DCE7E5" stroke-width="1.8" stroke-linecap="round" stroke-linejoin="round"/>
<path d="M14.5537 52.8091C14.5537 49.7574 17.0429 47.2788 20.1077 47.2788C23.1724 47.2788 25.6616 49.7574 25.6616 52.8091C25.6616 55.8608 23.1724 58.3394 20.1077 58.3394C17.0429 58.3394 14.5537 55.8608 14.5537 52.8091Z" stroke="#DCE7E5" stroke-width="1.8" stroke-linecap="round" stroke-linejoin="round"/>
<path d="M17.3309 57.7949L13.5179 58.9124C11.2158 59.3996 10.6546 62.3223 10.2949 66.2336" stroke="#DCE7E5" stroke-width="1.8" stroke-linecap="round" stroke-linejoin="round"/>
<path d="M22.8848 57.7949L26.6977 58.9124C28.2085 59.242 28.9711 60.6031 29.4171 62.6232" stroke="#DCE7E5" stroke-width="1.8" stroke-linecap="round" stroke-linejoin="round"/>
<path d="M33.9062 52.2075C33.9062 48.6973 36.7696 45.8462 40.2947 45.8462C43.8199 45.8462 46.6832 48.6973 46.6832 52.2075C46.6832 55.7176 43.8199 58.5687 40.2947 58.5687C36.7696 58.5687 33.9062 55.7176 33.9062 52.2075Z" stroke="#DCE7E5" stroke-width="1.8" stroke-linecap="round" stroke-linejoin="round"/>
<path d="M37.086 57.9526L32.6975 59.2278C30.9709 59.6003 30.0932 61.1619 29.5752 63.4543" stroke="#DCE7E5" stroke-width="1.8" stroke-linecap="round" stroke-linejoin="round"/>
<path d="M43.4893 57.9526L47.1008 59.0128" stroke="#DCE7E5" stroke-width="1.8" stroke-linecap="round" stroke-linejoin="round"/>
</g>
<defs>
<clipPath id="clip0_434_5213">
<rect width="104" height="74" fill="white" transform="translate(9 25)"/>
</clipPath>
</defs>
</svg>
