<svg width="122" height="120" viewBox="0 0 122 120" fill="none" xmlns="http://www.w3.org/2000/svg">
<g clip-path="url(#clip0_434_5421)">
<path d="M60.9897 120C94.6881 120 122 93.1389 122 59.9898C122 26.8408 94.6881 0 60.9897 0C27.2914 0 0 26.8611 0 60.0102C0 93.1592 27.3119 120.02 60.9897 120.02V120Z" fill="#006E58"/>
<g clip-path="url(#clip1_434_5421)">
<path d="M91.0089 71.2476C91.8914 65.8355 88.1996 60.736 82.763 59.8574C77.3265 58.9789 72.204 62.6541 71.3215 68.0662C70.439 73.4783 74.1308 78.5779 79.5673 79.4564C85.0039 80.3349 90.1264 76.6597 91.0089 71.2476Z" stroke="white" stroke-width="1.8" stroke-linecap="round" stroke-linejoin="round"/>
<path d="M86.1592 78.6357L93.0128 80.6346C97.1491 81.5141 98.1664 86.7778 98.7955 93.7872" stroke="white" stroke-width="1.8" stroke-linecap="round" stroke-linejoin="round"/>
<path d="M76.1598 78.6357L69.3062 80.6346C65.1699 81.5141 64.1526 86.7778 63.5234 93.7872" stroke="white" stroke-width="1.8" stroke-linecap="round" stroke-linejoin="round"/>
<path d="M40.8475 79.5952C46.3552 79.5952 50.8201 75.1504 50.8201 69.6675C50.8201 64.1845 46.3552 59.7397 40.8475 59.7397C35.3399 59.7397 30.875 64.1845 30.875 69.6675C30.875 75.1504 35.3399 79.5952 40.8475 79.5952Z" stroke="white" stroke-width="1.8" stroke-linecap="round" stroke-linejoin="round"/>
<path d="M45.8408 78.6357L52.6944 80.6346C56.8307 81.5141 57.848 86.7778 58.4772 93.7872" stroke="white" stroke-width="1.8" stroke-linecap="round" stroke-linejoin="round"/>
<path d="M35.8541 78.6357L29.0005 80.6346C24.8642 81.5141 23.8469 86.7778 23.2178 93.7872" stroke="white" stroke-width="1.8" stroke-linecap="round" stroke-linejoin="round"/>
<path d="M54.0725 31.1426H35.9746C33.177 31.1426 30.9014 33.4213 30.9014 36.1931V57.4611L35.9746 51.4245H63.108C65.9057 51.4245 68.1813 49.1458 68.1813 46.374V45.4945" stroke="white" stroke-width="1.8" stroke-linecap="round" stroke-linejoin="round"/>
<path d="M53.8447 30.6628V30.2497C53.8447 27.4646 56.1337 25.1992 58.918 25.1992H86.0513C88.849 25.1992 91.1246 27.4779 91.1246 30.2497V51.5177L86.0513 45.4811H64.2724" stroke="white" stroke-width="1.8" stroke-linecap="round" stroke-linejoin="round"/>
<path d="M68.235 32.2222L60.8058 41.4037L57.7939 37.326" stroke="white" stroke-width="1.8" stroke-linecap="round" stroke-linejoin="round"/>
<path d="M68.235 41.1103V45.4945H53.8184V31.1426H63.3492" stroke="white" stroke-width="1.8" stroke-linecap="round" stroke-linejoin="round"/>
</g>
</g>
<defs>
<clipPath id="clip0_434_5421">
<rect width="122" height="120" fill="white"/>
</clipPath>
<clipPath id="clip1_434_5421">
<rect width="78" height="71" fill="white" transform="translate(22 24)"/>
</clipPath>
</defs>
</svg>
