<svg width="23" height="15" viewBox="0 0 23 15" fill="none" xmlns="http://www.w3.org/2000/svg">
<path d="M11.3934 8.50623L1.84941 13.8384C1.03945 14.2904 0 13.7431 0 12.8317V2.16745C0 1.25758 1.03795 0.708766 1.84941 1.16226L11.3934 6.4944C11.5777 6.59567 11.7308 6.74207 11.8374 6.91873C11.9439 7.09539 12 7.29603 12 7.50031C12 7.70459 11.9439 7.90524 11.8374 8.0819C11.7308 8.25856 11.5777 8.40495 11.3934 8.50623Z" fill="#009568"/>
<circle cx="15.5" cy="1.5" r="1.5" fill="#009568"/>
<circle cx="14.5" cy="13.5" r="1.5" fill="#009568"/>
<circle cx="19.5" cy="7.5" r="1.5" fill="#009568"/>
<rect x="11" y="1" width="12" height="1" rx="0.5" fill="#009568"/>
<rect x="13" y="7" width="10" height="1" rx="0.5" fill="#009568"/>
<rect x="9" y="13" width="14" height="1" rx="0.5" fill="#009568"/>
</svg>
