<svg xmlns="http://www.w3.org/2000/svg" width="65.644" height="58.5" viewBox="0 0 65.644 58.5">
  <g id="Group_13189" data-name="Group 13189" transform="translate(-512.82 -503.733)">
    <path id="Path_16307" data-name="Path 16307" d="M577.64,553l-26.664-46.183a6.158,6.158,0,0,0-10.666,0L513.646,553a6.159,6.159,0,0,0,5.333,9.237h53.328A6.159,6.159,0,0,0,577.64,553ZM545.681,555.4a4.491,4.491,0,1,1,4.492-4.491A4.491,4.491,0,0,1,545.681,555.4Zm2.371-11.891h-4.87l-2.394-24.6h10.143Z" fill="#d1bb4c"/>
    <circle id="Ellipse_13332" data-name="Ellipse 13332" cx="4.492" cy="4.492" r="4.492" transform="translate(541.19 546.419)" fill="#fff"/>
    <path id="Path_16308" data-name="Path 16308" d="M565.507,555.628h4.87l2.88-24.6H563.113Z" transform="translate(-22.325 -12.118)" fill="#fff"/>
  </g>
</svg>
