<?xml version="1.0" standalone="no"?>
<!DOCTYPE svg PUBLIC "-//W3C//DTD SVG 20010904//EN"
 "http://www.w3.org/TR/2001/REC-SVG-20010904/DTD/svg10.dtd">
<svg version="1.0" xmlns="http://www.w3.org/2000/svg"
 width="700.000000pt" height="700.000000pt" viewBox="0 0 700.000000 700.000000"
 preserveAspectRatio="xMidYMid meet">
<metadata>
Created by potrace 1.11, written by Peter Selinger 2001-2013
</metadata>
<g transform="translate(0.000000,700.000000) scale(0.100000,-0.100000)"
fill="#000000" stroke="none">
<path d="M3279 6906 c-2 -3 -31 -7 -64 -11 -304 -32 -659 -147 -925 -300 -36
-21 -78 -45 -95 -55 -134 -77 -358 -259 -484 -394 -119 -126 -133 -145 -125
-158 4 -7 3 -8 -4 -4 -20 12 -162 -194 -302 -439 -41 -71 -79 -138 -85 -147
-15 -25 -136 -235 -166 -288 -214 -373 -264 -459 -280 -482 -11 -15 -19 -29
-19 -32 0 -3 -22 -43 -49 -88 -26 -46 -82 -141 -123 -213 -41 -71 -100 -173
-131 -226 -162 -280 -232 -425 -295 -615 -92 -275 -126 -486 -126 -784 -1
-251 17 -402 70 -615 83 -333 228 -631 446 -920 38 -49 150 -177 203 -230 359
-363 856 -622 1345 -700 225 -36 267 -37 1430 -37 971 0 1218 3 1305 17 59 10
91 15 130 21 84 12 255 57 385 101 268 90 514 228 775 434 89 71 237 221 340
344 154 185 322 479 411 720 29 80 32 90 73 242 67 255 93 580 67 853 -11 115
-54 333 -87 449 -35 121 -108 315 -121 319 -4 2 -8 10 -8 18 0 16 -99 211
-157 309 -19 33 -45 78 -57 100 -20 35 -101 173 -126 215 -12 19 -248 430
-282 490 -85 151 -480 832 -531 915 -112 185 -209 307 -377 475 -248 249 -540
438 -870 563 -61 23 -226 75 -260 82 -8 2 -46 10 -84 19 -39 9 -84 18 -100 21
-30 4 -63 9 -136 21 -41 7 -505 15 -511 10z m276 -2488 c26 -46 71 -123 100
-173 29 -49 198 -342 376 -650 177 -308 360 -625 406 -704 46 -79 83 -145 83
-145 0 -1 -460 -1 -1023 -1 l-1022 0 41 70 c80 136 152 260 168 290 9 17 21
37 26 45 23 34 210 362 210 367 0 4 6 14 14 22 7 9 27 41 43 71 17 30 63 111
103 180 40 69 84 145 98 170 14 25 32 56 41 70 10 14 22 36 29 50 6 14 23 43
36 65 14 22 37 63 52 90 14 28 31 56 36 63 6 7 20 29 32 50 73 132 91 160 96
157 4 -2 28 -42 55 -87z"/>
</g>
</svg>
