<svg id="Calque_1" data-name="Calque 1" xmlns="http://www.w3.org/2000/svg" viewBox="0 0 234.8 234.89"><defs><style>.cls-1{fill:#ed6e9c;}.cls-2{fill:#009767;}</style></defs><circle class="cls-1" cx="142.12" cy="67.99" r="6.18"/><circle class="cls-1" cx="166.83" cy="92.72" r="6.18"/><circle class="cls-2" cx="129.76" cy="105.08" r="6.18"/><circle class="cls-2" cx="105.04" cy="55.63" r="6.18"/><circle class="cls-2" cx="55.62" cy="67.99" r="6.18"/><circle class="cls-2" cx="105.04" cy="67.99" r="6.18"/><circle class="cls-2" cx="55.62" cy="80.36" r="6.18"/><circle class="cls-2" cx="105.04" cy="80.36" r="6.18"/><circle class="cls-2" cx="55.62" cy="92.72" r="6.18"/><circle class="cls-2" cx="67.97" cy="92.72" r="6.18"/><circle class="cls-2" cx="80.33" cy="92.72" r="6.18"/><circle class="cls-2" cx="105.04" cy="92.72" r="6.18"/><circle class="cls-2" cx="117.4" cy="92.72" r="6.18"/><circle class="cls-2" cx="129.76" cy="92.72" r="6.18"/><circle class="cls-2" cx="142.12" cy="92.72" r="6.18"/><circle class="cls-2" cx="80.33" cy="105.08" r="6.18"/><circle class="cls-2" cx="117.4" cy="105.08" r="6.18"/><circle class="cls-2" cx="142.12" cy="105.08" r="6.18"/><circle class="cls-2" cx="80.33" cy="117.44" r="6.18"/><circle class="cls-2" cx="105.04" cy="117.44" r="6.18"/><circle class="cls-2" cx="117.4" cy="117.44" r="6.18"/><circle class="cls-2" cx="129.76" cy="117.44" r="6.18"/><circle class="cls-2" cx="142.12" cy="117.44" r="6.18"/><circle class="cls-2" cx="80.33" cy="129.81" r="6.18"/><circle class="cls-2" cx="105.04" cy="129.81" r="6.18"/><circle class="cls-2" cx="117.4" cy="129.81" r="6.18"/><circle class="cls-2" cx="142.12" cy="129.81" r="6.18"/><circle class="cls-2" cx="142.12" cy="142.17" r="6.18"/><circle class="cls-2" cx="154.47" cy="142.17" r="6.18"/><circle class="cls-2" cx="166.83" cy="142.17" r="6.18"/><circle class="cls-2" cx="179.19" cy="142.17" r="6.18"/><circle class="cls-2" cx="105.04" cy="154.53" r="6.18"/><circle class="cls-2" cx="117.4" cy="154.53" r="6.18"/><circle class="cls-2" cx="67.97" cy="166.89" r="6.18"/><circle class="cls-2" cx="80.33" cy="166.89" r="6.18"/><circle class="cls-2" cx="92.69" cy="166.89" r="6.18"/><circle class="cls-2" cx="105.04" cy="166.89" r="6.18"/><circle class="cls-2" cx="117.4" cy="166.89" r="6.18"/><circle class="cls-2" cx="129.76" cy="166.89" r="6.18"/><circle class="cls-2" cx="67.97" cy="179.26" r="6.18"/><circle class="cls-2" cx="105.04" cy="43.27" r="6.18"/><circle class="cls-2" cx="55.62" cy="55.63" r="6.18"/><circle class="cls-2" cx="92.69" cy="55.63" r="6.18"/><circle class="cls-2" cx="117.4" cy="55.63" r="6.18"/><circle class="cls-2" cx="43.26" cy="67.99" r="6.18"/><circle class="cls-2" cx="67.97" cy="67.99" r="6.18"/><circle class="cls-2" cx="154.47" cy="67.99" r="6.18"/><circle class="cls-2" cx="129.76" cy="80.36" r="6.18"/><circle class="cls-2" cx="142.12" cy="80.36" r="6.18"/><circle class="cls-2" cx="154.47" cy="80.36" r="6.18"/><circle class="cls-2" cx="166.83" cy="80.36" r="6.18"/><circle class="cls-2" cx="154.47" cy="92.72" r="6.18"/><circle class="cls-2" cx="105.04" cy="105.08" r="6.18"/><circle class="cls-2" cx="154.47" cy="105.08" r="6.18"/><circle class="cls-2" cx="92.69" cy="117.44" r="6.18"/><circle class="cls-2" cx="92.69" cy="129.81" r="6.18"/><circle class="cls-2" cx="129.76" cy="129.81" r="6.18"/><circle class="cls-2" cx="179.19" cy="129.81" r="6.18"/><circle class="cls-2" cx="92.69" cy="142.17" r="6.18"/><circle class="cls-2" cx="105.04" cy="142.17" r="6.18"/><circle class="cls-2" cx="117.4" cy="142.17" r="6.18"/><circle class="cls-2" cx="191.54" cy="142.17" r="6.18"/><circle class="cls-2" cx="179.19" cy="154.53" r="6.18"/><circle class="cls-2" cx="55.62" cy="179.26" r="6.18"/><circle class="cls-2" cx="80.33" cy="179.26" r="6.18"/><circle class="cls-2" cx="67.97" cy="191.62" r="6.18"/></svg>