<svg width="23" height="20" viewBox="0 0 23 20" fill="none" xmlns="http://www.w3.org/2000/svg">
  <path d="M3.06667 1.58333C2.66 1.58333 2.26999 1.75015 1.98244 2.04708C1.69488 2.34401 1.53333 2.74674 1.53333 3.16667V15.8333C1.53333 16.2533 1.69488 16.656 1.98244 16.9529C2.26999 17.2499 2.66 17.4167 3.06667 17.4167H11.5C11.7033 17.4167 11.8983 17.5001 12.0421 17.6485C12.1859 17.797 12.2667 17.9984 12.2667 18.2083C12.2667 18.4183 12.1859 18.6197 12.0421 18.7681C11.8983 18.9166 11.7033 19 11.5 19H3.06667C2.25334 19 1.47332 18.6664 0.898206 18.0725C0.323094 17.4786 0 16.6732 0 15.8333V3.16667C0 2.32681 0.323094 1.52136 0.898206 0.927495C1.47332 0.33363 2.25334 0 3.06667 0H19.9333C20.7467 0 21.5267 0.33363 22.1018 0.927495C22.6769 1.52136 23 2.32681 23 3.16667V9.5C23 9.70996 22.9192 9.91133 22.7754 10.0598C22.6317 10.2083 22.4367 10.2917 22.2333 10.2917C22.03 10.2917 21.835 10.2083 21.6912 10.0598C21.5474 9.91133 21.4667 9.70996 21.4667 9.5V3.16667C21.4667 2.74674 21.3051 2.34401 21.0176 2.04708C20.73 1.75015 20.34 1.58333 19.9333 1.58333H3.06667Z" fill="black"/>
  <path d="M6.7358 4.78125C6.70928 4.53314 6.59754 4.33996 6.40057 4.2017C6.20549 4.06345 5.9517 3.99432 5.6392 3.99432C5.41951 3.99432 5.23106 4.02746 5.07386 4.09375C4.91667 4.16004 4.7964 4.25 4.71307 4.36364C4.62973 4.47727 4.58712 4.60701 4.58523 4.75284C4.58523 4.87405 4.61269 4.97917 4.66761 5.06818C4.72443 5.1572 4.80114 5.23295 4.89773 5.29545C4.99432 5.35606 5.10133 5.4072 5.21875 5.44886C5.33617 5.49053 5.45455 5.52557 5.57386 5.55398L6.11932 5.69034C6.33902 5.74148 6.55019 5.81061 6.75284 5.89773C6.95739 5.98485 7.14015 6.0947 7.30114 6.22727C7.46402 6.35985 7.5928 6.51989 7.6875 6.70739C7.7822 6.89489 7.82955 7.11458 7.82955 7.36648C7.82955 7.70739 7.74242 8.00758 7.56818 8.26705C7.39394 8.52462 7.14205 8.72633 6.8125 8.87216C6.48485 9.0161 6.08807 9.08807 5.62216 9.08807C5.16951 9.08807 4.77652 9.01799 4.44318 8.87784C4.11174 8.73769 3.85227 8.53314 3.66477 8.2642C3.47917 7.99527 3.37879 7.66761 3.36364 7.28125H4.40057C4.41572 7.4839 4.47822 7.65246 4.58807 7.78693C4.69792 7.9214 4.84091 8.02178 5.01705 8.08807C5.19508 8.15436 5.39394 8.1875 5.61364 8.1875C5.8428 8.1875 6.04356 8.15341 6.21591 8.08523C6.39015 8.01515 6.52652 7.91856 6.625 7.79545C6.72348 7.67045 6.77367 7.52462 6.77557 7.35795C6.77367 7.20644 6.72917 7.08144 6.64205 6.98295C6.55492 6.88258 6.43277 6.79924 6.27557 6.73295C6.12027 6.66477 5.93845 6.60417 5.73011 6.55114L5.06818 6.38068C4.58902 6.25758 4.21023 6.07102 3.93182 5.82102C3.6553 5.56913 3.51705 5.23485 3.51705 4.81818C3.51705 4.47538 3.60985 4.17519 3.79545 3.91761C3.98295 3.66004 4.23769 3.46023 4.55966 3.31818C4.88163 3.17424 5.24621 3.10227 5.65341 3.10227C6.06629 3.10227 6.42803 3.17424 6.73864 3.31818C7.05114 3.46023 7.2964 3.65814 7.47443 3.91193C7.65246 4.16383 7.74432 4.4536 7.75 4.78125H6.7358ZM11.9311 4.78125C11.9046 4.53314 11.7929 4.33996 11.5959 4.2017C11.4008 4.06345 11.147 3.99432 10.8345 3.99432C10.6148 3.99432 10.4264 4.02746 10.2692 4.09375C10.112 4.16004 9.99171 4.25 9.90838 4.36364C9.82505 4.47727 9.78243 4.60701 9.78054 4.75284C9.78054 4.87405 9.808 4.97917 9.86293 5.06818C9.91974 5.1572 9.99645 5.23295 10.093 5.29545C10.1896 5.35606 10.2966 5.4072 10.4141 5.44886C10.5315 5.49053 10.6499 5.52557 10.7692 5.55398L11.3146 5.69034C11.5343 5.74148 11.7455 5.81061 11.9482 5.89773C12.1527 5.98485 12.3355 6.0947 12.4964 6.22727C12.6593 6.35985 12.7881 6.51989 12.8828 6.70739C12.9775 6.89489 13.0249 7.11458 13.0249 7.36648C13.0249 7.70739 12.9377 8.00758 12.7635 8.26705C12.5893 8.52462 12.3374 8.72633 12.0078 8.87216C11.6802 9.0161 11.2834 9.08807 10.8175 9.08807C10.3648 9.08807 9.97183 9.01799 9.63849 8.87784C9.30705 8.73769 9.04759 8.53314 8.86009 8.2642C8.67448 7.99527 8.5741 7.66761 8.55895 7.28125H9.59588C9.61103 7.4839 9.67353 7.65246 9.78338 7.78693C9.89323 7.9214 10.0362 8.02178 10.2124 8.08807C10.3904 8.15436 10.5893 8.1875 10.8089 8.1875C11.0381 8.1875 11.2389 8.15341 11.4112 8.08523C11.5855 8.01515 11.7218 7.91856 11.8203 7.79545C11.9188 7.67045 11.969 7.52462 11.9709 7.35795C11.969 7.20644 11.9245 7.08144 11.8374 6.98295C11.7502 6.88258 11.6281 6.79924 11.4709 6.73295C11.3156 6.66477 11.1338 6.60417 10.9254 6.55114L10.2635 6.38068C9.78433 6.25758 9.40554 6.07102 9.12713 5.82102C8.85062 5.56913 8.71236 5.23485 8.71236 4.81818C8.71236 4.47538 8.80516 4.17519 8.99077 3.91761C9.17827 3.66004 9.433 3.46023 9.75497 3.31818C10.0769 3.17424 10.4415 3.10227 10.8487 3.10227C11.2616 3.10227 11.6233 3.17424 11.9339 3.31818C12.2464 3.46023 12.4917 3.65814 12.6697 3.91193C12.8478 4.16383 12.9396 4.4536 12.9453 4.78125H11.9311ZM13.9645 9V3.18182H15.0185V5.64489H17.7145V3.18182H18.7713V9H17.7145V6.52841H15.0185V9H13.9645Z" fill="black"/>
  <path d="M22 15C22 16.3261 21.4732 17.5979 20.5355 18.5355C19.5979 19.4732 18.3261 20 17 20C15.6739 20 14.4021 19.4732 13.4645 18.5355C12.5268 17.5979 12 16.3261 12 15C12 13.6739 12.5268 12.4021 13.4645 11.4645C14.4021 10.5268 15.6739 10 17 10C18.3261 10 19.5979 10.5268 20.5355 11.4645C21.4732 12.4021 22 13.6739 22 15ZM15.0657 13.0657C14.9992 13.1321 14.9464 13.2109 14.9104 13.2977C14.8744 13.3844 14.8559 13.4775 14.8559 13.5714C14.8559 13.6654 14.8744 13.7584 14.9104 13.8452C14.9464 13.932 14.9992 14.0108 15.0657 14.0771L15.99 15L15.0657 15.9229C14.9316 16.057 14.8562 16.2389 14.8562 16.4286C14.8562 16.6183 14.9316 16.8002 15.0657 16.9343C15.1998 17.0684 15.3817 17.1438 15.5714 17.1438C15.7611 17.1438 15.943 17.0684 16.0771 16.9343L17 16.01L17.9229 16.9343C18.057 17.0684 18.2389 17.1438 18.4286 17.1438C18.6183 17.1438 18.8002 17.0684 18.9343 16.9343C19.0684 16.8002 19.1438 16.6183 19.1438 16.4286C19.1438 16.2389 19.0684 16.057 18.9343 15.9229L18.01 15L18.9343 14.0771C19.0684 13.943 19.1438 13.7611 19.1438 13.5714C19.1438 13.3817 19.0684 13.1998 18.9343 13.0657C18.8002 12.9316 18.6183 12.8562 18.4286 12.8562C18.2389 12.8562 18.057 12.9316 17.9229 13.0657L17 13.99L16.0771 13.0657C16.0108 12.9992 15.932 12.9464 15.8452 12.9104C15.7584 12.8744 15.6654 12.8559 15.5714 12.8559C15.4775 12.8559 15.3844 12.8744 15.2977 12.9104C15.2109 12.9464 15.1321 12.9992 15.0657 13.0657Z" fill="black"/>
</svg>
