<svg width="23" height="19" viewBox="0 0 23 19" fill="none" xmlns="http://www.w3.org/2000/svg">
  <path d="M7.06392 8.78125C7.03741 8.53314 6.92566 8.33996 6.72869 8.2017C6.53362 8.06345 6.27983 7.99432 5.96733 7.99432C5.74763 7.99432 5.55919 8.02746 5.40199 8.09375C5.24479 8.16004 5.12453 8.25 5.04119 8.36364C4.95786 8.47727 4.91525 8.60701 4.91335 8.75284C4.91335 8.87405 4.94081 8.97917 4.99574 9.06818C5.05256 9.1572 5.12926 9.23295 5.22585 9.29545C5.32244 9.35606 5.42945 9.4072 5.54688 9.44886C5.6643 9.49053 5.78267 9.52557 5.90199 9.55398L6.44744 9.69034C6.66714 9.74148 6.87831 9.81061 7.08097 9.89773C7.28551 9.98485 7.46828 10.0947 7.62926 10.2273C7.79214 10.3598 7.92093 10.5199 8.01562 10.7074C8.11032 10.8949 8.15767 11.1146 8.15767 11.3665C8.15767 11.7074 8.07055 12.0076 7.89631 12.267C7.72206 12.5246 7.47017 12.7263 7.14062 12.8722C6.81297 13.0161 6.41619 13.0881 5.95028 13.0881C5.49763 13.0881 5.10464 13.018 4.77131 12.8778C4.43987 12.7377 4.1804 12.5331 3.9929 12.2642C3.80729 11.9953 3.70691 11.6676 3.69176 11.2812H4.72869C4.74384 11.4839 4.80634 11.6525 4.91619 11.7869C5.02604 11.9214 5.16903 12.0218 5.34517 12.0881C5.5232 12.1544 5.72206 12.1875 5.94176 12.1875C6.17093 12.1875 6.37169 12.1534 6.54403 12.0852C6.71828 12.0152 6.85464 11.9186 6.95312 11.7955C7.05161 11.6705 7.1018 11.5246 7.10369 11.358C7.1018 11.2064 7.05729 11.0814 6.97017 10.983C6.88305 10.8826 6.76089 10.7992 6.60369 10.733C6.44839 10.6648 6.26657 10.6042 6.05824 10.5511L5.39631 10.3807C4.91714 10.2576 4.53835 10.071 4.25994 9.82102C3.98343 9.56913 3.84517 9.23485 3.84517 8.81818C3.84517 8.47538 3.93797 8.17519 4.12358 7.91761C4.31108 7.66004 4.56581 7.46023 4.88778 7.31818C5.20975 7.17424 5.57434 7.10227 5.98153 7.10227C6.39441 7.10227 6.75616 7.17424 7.06676 7.31818C7.37926 7.46023 7.62453 7.65814 7.80256 7.91193C7.98059 8.16383 8.07244 8.4536 8.07812 8.78125H7.06392ZM12.2592 8.78125C12.2327 8.53314 12.121 8.33996 11.924 8.2017C11.7289 8.06345 11.4751 7.99432 11.1626 7.99432C10.9429 7.99432 10.7545 8.02746 10.5973 8.09375C10.4401 8.16004 10.3198 8.25 10.2365 8.36364C10.1532 8.47727 10.1106 8.60701 10.1087 8.75284C10.1087 8.87405 10.1361 8.97917 10.1911 9.06818C10.2479 9.1572 10.3246 9.23295 10.4212 9.29545C10.5178 9.35606 10.6248 9.4072 10.7422 9.44886C10.8596 9.49053 10.978 9.52557 11.0973 9.55398L11.6428 9.69034C11.8625 9.74148 12.0736 9.81061 12.2763 9.89773C12.4808 9.98485 12.6636 10.0947 12.8246 10.2273C12.9875 10.3598 13.1162 10.5199 13.2109 10.7074C13.3056 10.8949 13.353 11.1146 13.353 11.3665C13.353 11.7074 13.2659 12.0076 13.0916 12.267C12.9174 12.5246 12.6655 12.7263 12.3359 12.8722C12.0083 13.0161 11.6115 13.0881 11.1456 13.0881C10.6929 13.0881 10.3 13.018 9.96662 12.8778C9.63518 12.7377 9.37571 12.5331 9.18821 12.2642C9.0026 11.9953 8.90223 11.6676 8.88707 11.2812H9.92401C9.93916 11.4839 10.0017 11.6525 10.1115 11.7869C10.2214 11.9214 10.3643 12.0218 10.5405 12.0881C10.7185 12.1544 10.9174 12.1875 11.1371 12.1875C11.3662 12.1875 11.567 12.1534 11.7393 12.0852C11.9136 12.0152 12.05 11.9186 12.1484 11.7955C12.2469 11.6705 12.2971 11.5246 12.299 11.358C12.2971 11.2064 12.2526 11.0814 12.1655 10.983C12.0784 10.8826 11.9562 10.7992 11.799 10.733C11.6437 10.6648 11.4619 10.6042 11.2536 10.5511L10.5916 10.3807C10.1125 10.2576 9.73366 10.071 9.45526 9.82102C9.17874 9.56913 9.04048 9.23485 9.04048 8.81818C9.04048 8.47538 9.13329 8.17519 9.31889 7.91761C9.50639 7.66004 9.76113 7.46023 10.0831 7.31818C10.4051 7.17424 10.7696 7.10227 11.1768 7.10227C11.5897 7.10227 11.9515 7.17424 12.2621 7.31818C12.5746 7.46023 12.8198 7.65814 12.9979 7.91193C13.1759 8.16383 13.2678 8.4536 13.2734 8.78125H12.2592ZM14.2926 13V7.18182H15.3466V9.64489H18.0426V7.18182H19.0994V13H18.0426V10.5284H15.3466V13H14.2926Z" fill="black"/>
  <rect x="0.75" y="0.75" width="21.5" height="17.5" rx="2.45" stroke="black" stroke-width="1.5"/>
</svg>
