<?xml version="1.0" encoding="UTF-8"?>
<svg id="Layer_1" xmlns="http://www.w3.org/2000/svg" width="379" height="60" xmlns:xlink="http://www.w3.org/1999/xlink" version="1.1" viewBox="0 0 379 60">
  <!-- Generator: Adobe Illustrator 29.1.0, SVG Export Plug-In . SVG Version: 2.1.0 Build 142)  -->
  <defs>
    <style>
      .st0 {
        fill: none;
      }

      .st1 {
        mask: url(#mask);
      }

      .st2 {
        fill: #795adf;
      }

      .st3 {
        fill: #f86e14;
      }

      .st4 {
        fill: #01192d;
      }

      .st5 {
        fill: #1dbb91;
      }

      .st6 {
        fill: #35476d;
        opacity: .9;
      }

      .st6, .st7 {
        isolation: isolate;
      }

      .st8 {
        fill: #ff35a1;
      }

      .st9 {
        fill: #fbbd00;
      }

      .st10, .st7 {
        fill: #fff;
      }

      .st11 {
        fill: #006e58;
      }

      .st12 {
        fill: #3578e6;
      }

      .st13 {
        fill: #02bace;
      }

      .st14 {
        fill: #4e429b;
      }

      .st15 {
        clip-path: url(#clippath);
      }

      .st7 {
        opacity: .9;
      }
    </style>
    <clipPath id="clippath">
      <rect class="st0" width="379" height="60"/>
    </clipPath>
    <mask id="mask" x="0" y="0" width="395" height="60.1" maskUnits="userSpaceOnUse">
      <g id="mask0_12_2305">
        <path class="st10" d="M379,0H0v60h379V0Z"/>
      </g>
    </mask>
  </defs>
  <g class="st15">
    <g class="st1">
      <g>
        <path class="st4" d="M395,0H0v60h395V0Z"/>
        <path class="st7" d="M323.4,9.5c2.6,0,4.8-2.1,4.8-4.7s-2.1-4.7-4.8-4.7-4.8,2.1-4.8,4.7,2.1,4.7,4.8,4.7Z"/>
        <path class="st7" d="M348.9,9.5c2.6,0,4.8-2.1,4.8-4.7s-2.1-4.7-4.8-4.7-4.8,2.1-4.8,4.7,2.1,4.7,4.8,4.7Z"/>
        <path class="st7" d="M234.3,47.4c2.6,0,4.8-2.1,4.8-4.7s-2.1-4.7-4.8-4.7-4.8,2.1-4.8,4.7,2.1,4.7,4.8,4.7Z"/>
        <path class="st7" d="M221.6,34.8c2.6,0,4.8-2.1,4.8-4.7s-2.1-4.7-4.8-4.7-4.8,2.1-4.8,4.7,2.1,4.7,4.8,4.7Z"/>
        <path class="st7" d="M310.7,34.8c2.6,0,4.8-2.1,4.8-4.7s-2.1-4.7-4.8-4.7-4.8,2.1-4.8,4.7,2.1,4.7,4.8,4.7Z"/>
        <path class="st7" d="M277.3,17.2V4.7C277.3,2.1,275.1,0,272.5,0s-4.8,2.1-4.8,4.7v12.5c0,2.6,2.1,4.7,4.8,4.7s4.8-2.1,4.8-4.7Z"/>
        <path class="st7" d="M226.3,17.4c0-2.6-2.1-4.7-4.8-4.7h-12.7c-2.6,0-4.8,2.1-4.8,4.7s2.1,4.7,4.8,4.7h12.7c2.6,0,4.8-2.1,4.8-4.7Z"/>
        <path class="st7" d="M255,30c0,2.6,2.1,4.7,4.8,4.7h12.7c2.6,0,4.8-2.1,4.8-4.7s-2.1-4.7-4.8-4.7h-12.7c-2.6,0-4.8,2.1-4.8,4.7Z"/>
        <path class="st7" d="M328.2,42.7v-12.5c0-2.6-2.1-4.7-4.8-4.7s-4.8,2.1-4.8,4.7v12.5c0,2.6,2.1,4.7,4.8,4.7s4.8-2.1,4.8-4.7Z"/>
        <path class="st7" d="M226.3,42.7c0-2.6-2.1-4.7-4.8-4.7h-12.7c-2.6,0-4.8,2.1-4.8,4.7s2.1,4.7,4.8,4.7h12.7c2.6,0,4.8-2.1,4.8-4.7Z"/>
        <path class="st6" d="M196.1,22.1c2.6,0,4.8-2.1,4.8-4.7s-2.1-4.7-4.8-4.7-4.8,2.1-4.8,4.7,2.1,4.7,4.8,4.7Z"/>
        <path class="st9" d="M208.8,22.1c2.6,0,4.8-2.1,4.8-4.7s-2.1-4.7-4.8-4.7-4.8,2.1-4.8,4.7,2.1,4.7,4.8,4.7Z"/>
        <path class="st6" d="M221.6,22.1c2.6,0,4.8-2.1,4.8-4.7s-2.1-4.7-4.8-4.7-4.8,2.1-4.8,4.7,2.1,4.7,4.8,4.7Z"/>
        <path class="st6" d="M247,22.1c2.6,0,4.8-2.1,4.8-4.7s-2.1-4.7-4.8-4.7-4.8,2.1-4.8,4.7,2.1,4.7,4.8,4.7Z"/>
        <path class="st12" d="M259.8,22.1c2.6,0,4.8-2.1,4.8-4.7s-2.1-4.7-4.8-4.7-4.8,2.1-4.8,4.7,2.1,4.7,4.8,4.7Z"/>
        <path class="st8" d="M272.5,22.1c2.6,0,4.8-2.1,4.8-4.7s-2.1-4.7-4.8-4.7-4.8,2.1-4.8,4.7,2.1,4.7,4.8,4.7Z"/>
        <path class="st6" d="M196.1,9.5c2.6,0,4.8-2.1,4.8-4.7s-2.1-4.7-4.8-4.7-4.8,2.1-4.8,4.7,2.1,4.7,4.8,4.7Z"/>
        <path class="st6" d="M247,9.5c2.6,0,4.8-2.1,4.8-4.7s-2.1-4.7-4.8-4.7-4.8,2.1-4.8,4.7,2.1,4.7,4.8,4.7Z"/>
        <path class="st2" d="M259.8,9.5c2.6,0,4.8-2.1,4.8-4.7s-2.1-4.7-4.8-4.7-4.8,2.1-4.8,4.7,2.1,4.7,4.8,4.7Z"/>
        <path class="st14" d="M285.2,9.5c2.6,0,4.8-2.1,4.8-4.7s-2.1-4.7-4.8-4.7-4.8,2.1-4.8,4.7,2.1,4.7,4.8,4.7Z"/>
        <path class="st3" d="M298,9.5c2.6,0,4.8-2.1,4.8-4.7s-2.1-4.7-4.8-4.7-4.8,2.1-4.8,4.7,2.1,4.7,4.8,4.7Z"/>
        <path class="st2" d="M373.4,9.5c2.6,0,4.8-2.1,4.8-4.7s-2.1-4.7-4.8-4.7-4.8,2.1-4.8,4.7,2.1,4.7,4.8,4.7Z"/>
        <path class="st5" d="M196.1,47.4c2.6,0,4.8-2.1,4.8-4.7s-2.1-4.7-4.8-4.7-4.8,2.1-4.8,4.7,2.1,4.7,4.8,4.7Z"/>
        <path class="st11" d="M208.8,47.4c2.6,0,4.8-2.1,4.8-4.7s-2.1-4.7-4.8-4.7-4.8,2.1-4.8,4.7,2.1,4.7,4.8,4.7Z"/>
        <path class="st11" d="M221.6,47.4c2.6,0,4.8-2.1,4.8-4.7s-2.1-4.7-4.8-4.7-4.8,2.1-4.8,4.7,2.1,4.7,4.8,4.7Z"/>
        <path class="st6" d="M247,47.4c2.6,0,4.8-2.1,4.8-4.7s-2.1-4.7-4.8-4.7-4.8,2.1-4.8,4.7,2.1,4.7,4.8,4.7Z"/>
        <path class="st14" d="M259.8,47.4c2.6,0,4.8-2.1,4.8-4.7s-2.1-4.7-4.8-4.7-4.8,2.1-4.8,4.7,2.1,4.7,4.8,4.7Z"/>
        <path class="st14" d="M272.5,47.4c2.6,0,4.8-2.1,4.8-4.7s-2.1-4.7-4.8-4.7-4.8,2.1-4.8,4.7,2.1,4.7,4.8,4.7Z"/>
        <path class="st8" d="M285.2,47.4c2.6,0,4.8-2.1,4.8-4.7s-2.1-4.7-4.8-4.7-4.8,2.1-4.8,4.7,2.1,4.7,4.8,4.7Z"/>
        <path class="st6" d="M323.4,47.4c2.6,0,4.8-2.1,4.8-4.7s-2.1-4.7-4.8-4.7-4.8,2.1-4.8,4.7,2.1,4.7,4.8,4.7Z"/>
        <path class="st11" d="M348.9,47.4c2.6,0,4.8-2.1,4.8-4.7s-2.1-4.7-4.8-4.7-4.8,2.1-4.8,4.7,2.1,4.7,4.8,4.7Z"/>
        <path class="st11" d="M196.1,60c2.6,0,4.8-2.1,4.8-4.7s-2.1-4.7-4.8-4.7-4.8,2.1-4.8,4.7,2.1,4.7,4.8,4.7Z"/>
        <path class="st3" d="M221.6,60c2.6,0,4.8-2.1,4.8-4.7s-2.1-4.7-4.8-4.7-4.8,2.1-4.8,4.7,2.1,4.7,4.8,4.7Z"/>
        <path class="st12" d="M247,60c2.6,0,4.8-2.1,4.8-4.7s-2.1-4.7-4.8-4.7-4.8,2.1-4.8,4.7,2.1,4.7,4.8,4.7Z"/>
        <path class="st11" d="M259.8,60c2.6,0,4.8-2.1,4.8-4.7s-2.1-4.7-4.8-4.7-4.8,2.1-4.8,4.7,2.1,4.7,4.8,4.7Z"/>
        <path class="st14" d="M196.1,34.8c2.6,0,4.8-2.1,4.8-4.7s-2.1-4.7-4.8-4.7-4.8,2.1-4.8,4.7,2.1,4.7,4.8,4.7Z"/>
        <path class="st6" d="M234.3,34.8c2.6,0,4.8-2.1,4.8-4.7s-2.1-4.7-4.8-4.7-4.8,2.1-4.8,4.7,2.1,4.7,4.8,4.7Z"/>
        <path class="st13" d="M247,34.8c2.6,0,4.8-2.1,4.8-4.7s-2.1-4.7-4.8-4.7-4.8,2.1-4.8,4.7,2.1,4.7,4.8,4.7Z"/>
        <path class="st12" d="M259.8,34.8c2.6,0,4.8-2.1,4.8-4.7s-2.1-4.7-4.8-4.7-4.8,2.1-4.8,4.7,2.1,4.7,4.8,4.7Z"/>
        <path class="st6" d="M285.2,34.8c2.6,0,4.8-2.1,4.8-4.7s-2.1-4.7-4.8-4.7-4.8,2.1-4.8,4.7,2.1,4.7,4.8,4.7Z"/>
        <path class="st8" d="M323.4,34.8c2.6,0,4.8-2.1,4.8-4.7s-2.1-4.7-4.8-4.7-4.8,2.1-4.8,4.7,2.1,4.7,4.8,4.7Z"/>
        <path class="st7" d="M55.8,60c2.6,0,4.8-2.1,4.8-4.7s-2.1-4.7-4.8-4.7-4.8,2.1-4.8,4.7,2.1,4.7,4.8,4.7Z"/>
        <path class="st7" d="M30.4,60c2.6,0,4.8-2.1,4.8-4.7s-2.1-4.7-4.8-4.7-4.8,2.1-4.8,4.7,2.1,4.7,4.8,4.7Z"/>
        <path class="st7" d="M145,22.1c2.6,0,4.8-2.1,4.8-4.7s-2.1-4.7-4.8-4.7-4.8,2.1-4.8,4.7,2.1,4.7,4.8,4.7Z"/>
        <path class="st7" d="M157.7,34.8c2.6,0,4.8-2.1,4.8-4.7s-2.1-4.7-4.8-4.7-4.8,2.1-4.8,4.7,2.1,4.7,4.8,4.7Z"/>
        <path class="st7" d="M68.6,34.8c2.6,0,4.8-2.1,4.8-4.7s-2.1-4.7-4.8-4.7-4.8,2.1-4.8,4.7,2.1,4.7,4.8,4.7Z"/>
        <path class="st7" d="M102,42.9v12.5c0,2.6,2.1,4.7,4.8,4.7s4.8-2.1,4.8-4.7v-12.5c0-2.6-2.1-4.7-4.8-4.7s-4.8,2.1-4.8,4.7Z"/>
        <path class="st7" d="M152.9,42.7c0,2.6,2.1,4.7,4.8,4.7h12.7c2.6,0,4.8-2.1,4.8-4.7s-2.1-4.7-4.8-4.7h-12.7c-2.6,0-4.8,2.1-4.8,4.7Z"/>
        <path class="st7" d="M124.3,30c0-2.6-2.1-4.7-4.8-4.7h-12.7c-2.6,0-4.8,2.1-4.8,4.7s2.1,4.7,4.8,4.7h12.7c2.6,0,4.8-2.1,4.8-4.7Z"/>
        <path class="st7" d="M51,17.3v12.5c0,2.6,2.1,4.7,4.8,4.7s4.8-2.1,4.8-4.7v-12.5c0-2.6-2.1-4.7-4.8-4.7s-4.8,2.1-4.8,4.7Z"/>
        <path class="st7" d="M152.9,17.4c0,2.6,2.1,4.7,4.8,4.7h12.7c2.6,0,4.8-2.1,4.8-4.7s-2.1-4.7-4.8-4.7h-12.7c-2.6,0-4.8,2.1-4.8,4.7Z"/>
        <path class="st6" d="M183.2,47.4c2.6,0,4.8-2.1,4.8-4.7s-2.1-4.7-4.8-4.7-4.8,2.1-4.8,4.7,2.1,4.7,4.8,4.7Z"/>
        <path class="st9" d="M170.4,47.4c2.6,0,4.8-2.1,4.8-4.7s-2.1-4.7-4.8-4.7-4.8,2.1-4.8,4.7,2.1,4.7,4.8,4.7Z"/>
        <path class="st6" d="M157.7,47.4c2.6,0,4.8-2.1,4.8-4.7s-2.1-4.7-4.8-4.7-4.8,2.1-4.8,4.7,2.1,4.7,4.8,4.7Z"/>
        <path class="st6" d="M132.2,47.4c2.6,0,4.8-2.1,4.8-4.7s-2.1-4.7-4.8-4.7-4.8,2.1-4.8,4.7,2.1,4.7,4.8,4.7Z"/>
        <path class="st12" d="M119.5,47.4c2.6,0,4.8-2.1,4.8-4.7s-2.1-4.7-4.8-4.7-4.8,2.1-4.8,4.7,2.1,4.7,4.8,4.7Z"/>
        <path class="st6" d="M106.8,47.4c2.6,0,4.8-2.1,4.8-4.7s-2.1-4.7-4.8-4.7-4.8,2.1-4.8,4.7,2.1,4.7,4.8,4.7Z"/>
        <path class="st6" d="M183.2,60c2.6,0,4.8-2.1,4.8-4.7s-2.1-4.7-4.8-4.7-4.8,2.1-4.8,4.7,2.1,4.7,4.8,4.7Z"/>
        <path class="st6" d="M132.2,60c2.6,0,4.8-2.1,4.8-4.7s-2.1-4.7-4.8-4.7-4.8,2.1-4.8,4.7,2.1,4.7,4.8,4.7Z"/>
        <path class="st2" d="M119.5,60c2.6,0,4.8-2.1,4.8-4.7s-2.1-4.7-4.8-4.7-4.8,2.1-4.8,4.7,2.1,4.7,4.8,4.7Z"/>
        <path class="st14" d="M94,60c2.6,0,4.8-2.1,4.8-4.7s-2.1-4.7-4.8-4.7-4.8,2.1-4.8,4.7,2.1,4.7,4.8,4.7Z"/>
        <path class="st14" d="M81.3,60c2.6,0,4.8-2.1,4.8-4.7s-2.1-4.7-4.8-4.7-4.8,2.1-4.8,4.7,2.1,4.7,4.8,4.7Z"/>
        <path class="st14" d="M4.9,60c2.6,0,4.8-2.1,4.8-4.7s-2.1-4.7-4.8-4.7S.1,52.7.1,55.3s2.1,4.7,4.8,4.7Z"/>
        <path class="st5" d="M183.2,22.1c2.6,0,4.8-2.1,4.8-4.7s-2.1-4.7-4.8-4.7-4.8,2.1-4.8,4.7,2.1,4.7,4.8,4.7Z"/>
        <path class="st12" d="M170.4,22.1c2.6,0,4.8-2.1,4.8-4.7s-2.1-4.7-4.8-4.7-4.8,2.1-4.8,4.7,2.1,4.7,4.8,4.7Z"/>
        <path class="st11" d="M157.7,22.1c2.6,0,4.8-2.1,4.8-4.7s-2.1-4.7-4.8-4.7-4.8,2.1-4.8,4.7,2.1,4.7,4.8,4.7Z"/>
        <path class="st6" d="M132.2,22.1c2.6,0,4.8-2.1,4.8-4.7s-2.1-4.7-4.8-4.7-4.8,2.1-4.8,4.7,2.1,4.7,4.8,4.7Z"/>
        <path class="st3" d="M119.5,22.1c2.6,0,4.8-2.1,4.8-4.7s-2.1-4.7-4.8-4.7-4.8,2.1-4.8,4.7,2.1,4.7,4.8,4.7Z"/>
        <path class="st14" d="M106.8,22.1c2.6,0,4.8-2.1,4.8-4.7s-2.1-4.7-4.8-4.7-4.8,2.1-4.8,4.7,2.1,4.7,4.8,4.7Z"/>
        <path class="st8" d="M89.3,17.4c0,2.6,2.1,4.7,4.8,4.7s4.8-2.1,4.8-4.7-2.1-4.7-4.8-4.7-4.8,2.1-4.8,4.7Z"/>
        <path class="st9" d="M55.8,22.1c2.6,0,4.8-2.1,4.8-4.7s-2.1-4.7-4.8-4.7-4.8,2.1-4.8,4.7,2.1,4.7,4.8,4.7Z"/>
        <path class="st11" d="M30.4,22.1c2.6,0,4.8-2.1,4.8-4.7s-2.1-4.7-4.8-4.7-4.8,2.1-4.8,4.7,2.1,4.7,4.8,4.7Z"/>
        <path class="st11" d="M183.2,9.5c2.6,0,4.8-2.1,4.8-4.7s-2.1-4.7-4.8-4.7-4.8,2.1-4.8,4.7,2.1,4.7,4.8,4.7Z"/>
        <path class="st6" d="M157.7,9.5c2.6,0,4.8-2.1,4.8-4.7s-2.1-4.7-4.8-4.7-4.8,2.1-4.8,4.7,2.1,4.7,4.8,4.7Z"/>
        <path class="st12" d="M132.2,9.5c2.6,0,4.8-2.1,4.8-4.7s-2.1-4.7-4.8-4.7-4.8,2.1-4.8,4.7,2.1,4.7,4.8,4.7Z"/>
        <path class="st11" d="M119.5,9.5c2.6,0,4.8-2.1,4.8-4.7s-2.1-4.7-4.8-4.7-4.8,2.1-4.8,4.7,2.1,4.7,4.8,4.7Z"/>
        <path class="st14" d="M183.2,34.8c2.6,0,4.8-2.1,4.8-4.7s-2.1-4.7-4.8-4.7-4.8,2.1-4.8,4.7,2.1,4.7,4.8,4.7Z"/>
        <path class="st6" d="M145,34.8c2.6,0,4.8-2.1,4.8-4.7s-2.1-4.7-4.8-4.7-4.8,2.1-4.8,4.7,2.1,4.7,4.8,4.7Z"/>
        <path class="st13" d="M132.2,34.8c2.6,0,4.8-2.1,4.8-4.7s-2.1-4.7-4.8-4.7-4.8,2.1-4.8,4.7,2.1,4.7,4.8,4.7Z"/>
        <path class="st12" d="M119.5,34.8c2.6,0,4.8-2.1,4.8-4.7s-2.1-4.7-4.8-4.7-4.8,2.1-4.8,4.7,2.1,4.7,4.8,4.7Z"/>
        <path class="st6" d="M94,34.8c2.6,0,4.8-2.1,4.8-4.7s-2.1-4.7-4.8-4.7-4.8,2.1-4.8,4.7,2.1,4.7,4.8,4.7Z"/>
        <path class="st6" d="M55.8,34.8c2.6,0,4.8-2.1,4.8-4.7s-2.1-4.7-4.8-4.7-4.8,2.1-4.8,4.7,2.1,4.7,4.8,4.7Z"/>
        <path class="st6" d="M272.5,9.5c2.6,0,4.8-2.1,4.8-4.7s-2.1-4.7-4.8-4.7-4.8,2.1-4.8,4.7,2.1,4.7,4.8,4.7Z"/>
        <path class="st9" d="M106.8,60c2.6,0,4.8-2.1,4.8-4.7s-2.1-4.7-4.8-4.7-4.8,2.1-4.8,4.7,2.1,4.7,4.8,4.7Z"/>
        <path class="st5" d="M106.8,34.8c2.6,0,4.8-2.1,4.8-4.7s-2.1-4.7-4.8-4.7-4.8,2.1-4.8,4.7,2.1,4.7,4.8,4.7Z"/>
        <path class="st5" d="M272.5,34.8c2.6,0,4.8-2.1,4.8-4.7s-2.1-4.7-4.8-4.7-4.8,2.1-4.8,4.7,2.1,4.7,4.8,4.7Z"/>
      </g>
    </g>
  </g>
</svg>