<svg width="16" height="51" viewBox="0 0 16 51" fill="none" xmlns="http://www.w3.org/2000/svg">
<path d="M8 0L8 35" stroke="#6C757D" stroke-width="1.11111"/>
<path d="M16 43C16 47.4183 12.4183 51 8 51C3.58172 51 0 47.4183 0 43C0 38.5817 3.58172 35 8 35C12.4183 35 16 38.5817 16 43ZM11.3536 40.3536C11.5488 40.1583 11.5488 39.8417 11.3536 39.6464C11.1583 39.4512 10.8417 39.4512 10.6464 39.6464L4.64645 45.6464C4.45118 45.8417 4.45118 46.1583 4.64645 46.3536C4.84171 46.5488 5.15829 46.5488 5.35355 46.3536L11.3536 40.3536Z" fill="#6C757D"/>
</svg>
