<svg width="16" height="16" viewBox="0 0 16 16" fill="none" xmlns="http://www.w3.org/2000/svg">
<path d="M16 8C16 12.4183 12.4183 16 8 16C3.58172 16 0 12.4183 0 8C0 3.58172 3.58172 0 8 0C12.4183 0 16 3.58172 16 8ZM6.25 5C5.55964 5 5 5.55964 5 6.25V9.75C5 10.4404 5.55964 11 6.25 11C6.94036 11 7.5 10.4404 7.5 9.75V6.25C7.5 5.55964 6.94036 5 6.25 5ZM9.75 5C9.05964 5 8.5 5.55964 8.5 6.25V9.75C8.5 10.4404 9.05964 11 9.75 11C10.4404 11 11 10.4404 11 9.75V6.25C11 5.55964 10.4404 5 9.75 5Z" fill="#6C757D"/>
</svg>
