<svg width="16" height="56" viewBox="0 0 16 56" fill="none" xmlns="http://www.w3.org/2000/svg">
<path d="M8 0L8 40" stroke="#6C757D" stroke-width="1.11111"/>
<path d="M16 48C16 52.4183 12.4183 56 8 56C3.58172 56 0 52.4183 0 48C0 43.5817 3.58172 40 8 40C12.4183 40 16 43.5817 16 48ZM6.79062 45.0931C6.63821 44.9843 6.43774 44.9697 6.27121 45.0554C6.10467 45.1411 6 45.3127 6 45.5V50.5C6 50.6873 6.10467 50.8589 6.27121 50.9446C6.43774 51.0303 6.63821 51.0157 6.79062 50.9069L10.2906 48.4069C10.422 48.313 10.5 48.1615 10.5 48C10.5 47.8385 10.422 47.687 10.2906 47.5931L6.79062 45.0931Z" fill="#6C757D"/>
</svg>
