<?xml version="1.0" encoding="UTF-8"?>
<svg id="icon" xmlns="http://www.w3.org/2000/svg" version="1.1" viewBox="0 0 200 115">
  <defs>
    <style>
      .cls-1 {
        stroke: #fff;
        stroke-dasharray: 0 0 0 0 0 5 0 5;
        stroke-linecap: round;
        stroke-miterlimit: 10;
        stroke-width: 2.2px;
      }

      .cls-1, .cls-2 {
        fill: #fff;
      }

      .cls-2 {
        stroke-width: 0px;
      }
    </style>
  </defs>
  <g id="Gruppe_14066" data-name="Gruppe 14066">
    <g id="Gruppe_14065" data-name="Gruppe 14065">
      <path id="Pfad_21088" data-name="Pfad 21088" class="cls-2" d="M-15.7,123c0-1.4,1.1-2.5,2.5-2.5,1.4,0,2.5,1.1,2.5,2.5s-1.1,2.5-2.5,2.5c-1.4,0-2.5-1.1-2.5-2.5"/>
      <path id="Pfad_21097" data-name="Pfad 21097" class="cls-2" d="M-1,126.4c0-1.4,1.1-2.5,2.5-2.5h0c1.4,0,2.5,1.1,2.5,2.5h0c0,1.4-1.1,2.5-2.5,2.5-1.4,0-2.5-1.1-2.5-2.5"/>
      <path id="Pfad_21098" data-name="Pfad 21098" class="cls-2" d="M-20.2,113.6c0-1.4,1.1-2.5,2.5-2.5,1.4,0,2.5,1.1,2.5,2.5s-1.1,2.5-2.5,2.5-2.5-1.1-2.5-2.5"/>
      <path id="Pfad_21108" data-name="Pfad 21108" class="cls-2" d="M8.1,126.5c0-1.4,1.1-2.5,2.5-2.5,1.4,0,2.5,1.1,2.5,2.5h0c0,1.4-1.1,2.5-2.5,2.5h0c-1.4,0-2.5-1.1-2.5-2.5"/>
      <path id="Pfad_21109" data-name="Pfad 21109" class="cls-2" d="M3.7,122.8c0-1.4,1.1-2.5,2.5-2.5s2.5,1.1,2.5,2.5-1.1,2.5-2.5,2.5c-1.4,0-2.5-1.1-2.5-2.5"/>
      <path id="Pfad_21110" data-name="Pfad 21110" class="cls-2" d="M-5.5,115.9c0-1.4,1.1-2.5,2.5-2.5,1.4,0,2.5,1.1,2.5,2.5s-1.1,2.5-2.5,2.5-2.5-1.1-2.5-2.5"/>
      <path id="Pfad_21116" data-name="Pfad 21116" class="cls-2" d="M17.5,127.3c0-1.4,1.1-2.5,2.5-2.5h0c1.4,0,2.5,1.1,2.5,2.5h0c0,1.4-1.1,2.5-2.5,2.5-1.4,0-2.5-1.1-2.5-2.5"/>
      <path id="Pfad_21117" data-name="Pfad 21117" class="cls-2" d="M13.3,123.4c0-1.4,1.1-2.5,2.5-2.5s2.5,1.1,2.5,2.5-1.1,2.5-2.5,2.5c-1.4,0-2.5-1.1-2.5-2.5"/>
      <path id="Pfad_21118" data-name="Pfad 21118" class="cls-2" d="M-.2,112.6c0-1.4,1.1-2.5,2.5-2.5s2.5,1.1,2.5,2.5-1.1,2.5-2.5,2.5h0c-1.4,0-2.5-1.1-2.5-2.5H-.2"/>
      <path id="Pfad_21119" data-name="Pfad 21119" class="cls-2" d="M-5,109.3c0-1.4,1.1-2.5,2.5-2.5s2.5,1.1,2.5,2.5-1.1,2.5-2.5,2.5-2.5-1.1-2.5-2.5"/>
      <path id="Pfad_21120" data-name="Pfad 21120" class="cls-2" d="M-9.9,106.3c0-1.4,1.1-2.5,2.5-2.5s2.5,1.1,2.5,2.5-1.1,2.5-2.5,2.5-2.5-1.1-2.5-2.5"/>
      <path id="Pfad_21121" data-name="Pfad 21121" class="cls-2" d="M-14.9,103.4c0-1.4,1.1-2.5,2.5-2.5s2.5,1.1,2.5,2.5-1.1,2.5-2.5,2.5c-1.4,0-2.5-1.1-2.5-2.5"/>
      <path id="Pfad_21131" data-name="Pfad 21131" class="cls-2" d="M14.1,116.4c0-1.4,1.1-2.5,2.5-2.5s2.5,1.1,2.5,2.5-1.1,2.5-2.5,2.5-2.5-1.1-2.5-2.5"/>
      <path id="Pfad_21132" data-name="Pfad 21132" class="cls-2" d="M9.6,112.8c0-1.4,1.1-2.5,2.5-2.5s2.5,1.1,2.5,2.5-1.1,2.5-2.5,2.5-2.5-1.1-2.5-2.5"/>
      <path id="Pfad_21133" data-name="Pfad 21133" class="cls-2" d="M5,109.3c0-1.4,1.1-2.5,2.5-2.5s2.5,1.1,2.5,2.5-1.1,2.5-2.5,2.5-2.5-1.1-2.5-2.5"/>
      <path id="Pfad_21138" data-name="Pfad 21138" class="cls-2" d="M31.7,125.4c0-1.4,1.1-2.5,2.5-2.5,1.4,0,2.5,1.1,2.5,2.4h0c0,1.4-1.1,2.5-2.5,2.5h0c-1.4,0-2.5-1.1-2.5-2.5"/>
      <path id="Pfad_21139" data-name="Pfad 21139" class="cls-2" d="M14.8,109.6c0-1.4,1.1-2.5,2.5-2.5s2.5,1.1,2.5,2.5-1.1,2.5-2.5,2.5-2.5-1.1-2.5-2.5"/>
      <path id="Pfad_21140" data-name="Pfad 21140" class="cls-2" d="M10.3,106c0-1.4,1.1-2.5,2.5-2.5s2.5,1.1,2.5,2.5-1.1,2.5-2.5,2.5-2.5-1.1-2.5-2.5"/>
      <path id="Pfad_21141" data-name="Pfad 21141" class="cls-2" d="M5.6,102.6c0-1.4,1.1-2.5,2.5-2.5s2.5,1.1,2.5,2.5-1.1,2.5-2.5,2.5c-1.4,0-2.5-1.1-2.5-2.5"/>
      <path id="Pfad_21142" data-name="Pfad 21142" class="cls-2" d="M-9.1,93.4c0-1.4,1.1-2.5,2.5-2.5h0c1.4,0,2.5,1.1,2.5,2.5s-1.1,2.5-2.5,2.5-2.5-1.1-2.5-2.5h0"/>
      <path id="Pfad_21143" data-name="Pfad 21143" class="cls-2" d="M-14.3,90.7c0-1.4,1.1-2.5,2.5-2.5h0c1.4,0,2.5,1.1,2.5,2.5h0c0,1.4-1.1,2.5-2.5,2.5h0c-1.4,0-2.5-1.1-2.5-2.5h0"/>
      <path id="Pfad_21144" data-name="Pfad 21144" class="cls-2" d="M-19.5,88.2c0-1.4,1.1-2.5,2.5-2.5s2.5,1.1,2.5,2.5c0,1.4-1.1,2.5-2.5,2.5-1.4,0-2.5-1.1-2.5-2.5"/>
      <path id="Pfad_21145" data-name="Pfad 21145" class="cls-2" d="M-24.8,85.9c0-1.4,1.1-2.5,2.5-2.5h0c1.4,0,2.5,1.1,2.5,2.5h0c0,1.4-1.1,2.5-2.5,2.5s-2.5-1.1-2.5-2.5h0"/>
      <path id="Pfad_21149" data-name="Pfad 21149" class="cls-2" d="M23.9,109.7c0-1.4,1.1-2.5,2.5-2.5s2.5,1.1,2.5,2.5-1.1,2.5-2.5,2.5-2.5-1.1-2.5-2.5"/>
      <path id="Pfad_21150" data-name="Pfad 21150" class="cls-2" d="M19.5,106c0-1.4,1.1-2.5,2.5-2.5,1.4,0,2.5,1.1,2.5,2.5s-1.1,2.5-2.5,2.5-2.5-1.1-2.5-2.5"/>
      <path id="Pfad_21151" data-name="Pfad 21151" class="cls-2" d="M10.4,98.9c0-1.4,1.1-2.5,2.5-2.5s2.5,1.1,2.5,2.5-1.1,2.5-2.5,2.5c-1.4,0-2.5-1.1-2.5-2.5"/>
      <path id="Pfad_21152" data-name="Pfad 21152" class="cls-2" d="M-9.2,86.8c0-1.4,1.1-2.5,2.5-2.5,1.4,0,2.5,1.1,2.5,2.5,0,1.4-1.1,2.5-2.5,2.5s-2.5-1.1-2.5-2.5"/>
      <path id="Pfad_21157" data-name="Pfad 21157" class="cls-2" d="M48.8,127.7c0-1.4,1.1-2.5,2.5-2.5h0c1.4,0,2.5,1.1,2.5,2.5h0c0,1.4-1.1,2.5-2.5,2.5h0c-1.4,0-2.5-1.1-2.5-2.5h0"/>
      <path id="Pfad_21158" data-name="Pfad 21158" class="cls-2" d="M45.1,123.2c0-1.4,1.1-2.5,2.5-2.5s2.5,1.1,2.5,2.5-1.1,2.5-2.5,2.5c-1.4,0-2.5-1.1-2.5-2.5"/>
      <path id="Pfad_21159" data-name="Pfad 21159" class="cls-2" d="M33.3,110.5c0-1.4,1.1-2.5,2.5-2.5,1.4,0,2.5,1.1,2.5,2.5s-1.1,2.5-2.5,2.5-2.5-1.1-2.5-2.5"/>
      <path id="Pfad_21160" data-name="Pfad 21160" class="cls-2" d="M29.1,106.6c0-1.4,1.1-2.5,2.5-2.5h0c1.4,0,2.5,1.1,2.5,2.5h0c0,1.4-1.1,2.5-2.5,2.5-1.4,0-2.5-1.1-2.5-2.5"/>
      <path id="Pfad_21161" data-name="Pfad 21161" class="cls-2" d="M24.7,102.8c0-1.4,1.1-2.5,2.5-2.5s2.5,1.1,2.5,2.5-1.1,2.5-2.5,2.5-2.5-1.1-2.5-2.5"/>
      <path id="Pfad_21167" data-name="Pfad 21167" class="cls-2" d="M53.8,124.7c0-1.4,1.1-2.5,2.5-2.5h0c1.4,0,2.5,1.1,2.5,2.5h0c0,1.4-1.1,2.5-2.5,2.5h0c-1.4,0-2.5-1.1-2.5-2.5h0"/>
      <path id="Pfad_21168" data-name="Pfad 21168" class="cls-2" d="M34.2,103.5c0-1.4,1.1-2.5,2.5-2.5s2.5,1.1,2.5,2.5-1.1,2.5-2.5,2.5h0c-1.4,0-2.5-1.1-2.5-2.5h0"/>
      <path id="Pfad_21169" data-name="Pfad 21169" class="cls-2" d="M29.9,99.6c0-1.4,1.1-2.5,2.5-2.5s2.5,1.1,2.5,2.5-1.1,2.5-2.5,2.5-2.5-1.1-2.5-2.5"/>
      <path id="Pfad_21170" data-name="Pfad 21170" class="cls-2" d="M25.5,95.9c0-1.4,1.1-2.5,2.5-2.5s2.5,1.1,2.5,2.5c0,1.4-1.1,2.5-2.5,2.5-1.4,0-2.5-1.1-2.5-2.5"/>
      <path id="Pfad_21171" data-name="Pfad 21171" class="cls-2" d="M20.9,92.4c0-1.4,1.1-2.5,2.5-2.5s2.5,1.1,2.5,2.5-1.1,2.5-2.5,2.5-2.5-1.1-2.5-2.5"/>
      <path id="Pfad_21178" data-name="Pfad 21178" class="cls-2" d="M50.9,112.3c0-1.4,1.1-2.5,2.5-2.5s2.5,1.1,2.5,2.5-1.1,2.5-2.5,2.5c-1.4,0-2.5-1.1-2.5-2.5"/>
      <path id="Pfad_21179" data-name="Pfad 21179" class="cls-2" d="M43,103.9c0-1.4,1.1-2.5,2.5-2.5,1.4,0,2.5,1.1,2.5,2.5,0,1.4-1.1,2.5-2.5,2.5s-2.5-1.1-2.5-2.5"/>
      <path id="Pfad_21180" data-name="Pfad 21180" class="cls-2" d="M34.6,96c0-1.4,1.1-2.5,2.5-2.5s2.5,1.1,2.5,2.5-1.1,2.5-2.5,2.5-2.5-1.1-2.5-2.5"/>
      <path id="Pfad_21181" data-name="Pfad 21181" class="cls-2" d="M30.2,92.3c0-1.4,1.1-2.5,2.5-2.5s2.5,1.1,2.5,2.5-1.1,2.5-2.5,2.5-2.5-1.1-2.5-2.5"/>
      <path id="Pfad_21189" data-name="Pfad 21189" class="cls-2" d="M59.7,113.7c0-1.4,1.1-2.5,2.5-2.5,1.4,0,2.5,1.1,2.5,2.5,0,1.4-1.1,2.5-2.5,2.5-1.4,0-2.5-1.1-2.5-2.5"/>
      <path id="Pfad_21190" data-name="Pfad 21190" class="cls-2" d="M48.1,100.8c0-1.4,1.1-2.5,2.5-2.5s2.5,1.1,2.5,2.5-1.1,2.5-2.5,2.5c-1.4,0-2.5-1.1-2.5-2.5h0"/>
      <path id="Pfad_21191" data-name="Pfad 21191" class="cls-2" d="M30.9,85.5c0-1.4,1.1-2.5,2.5-2.5s2.5,1.1,2.5,2.5c0,1.4-1.1,2.5-2.5,2.5-1.4,0-2.5-1.1-2.5-2.5"/>
      <path id="Pfad_21197" data-name="Pfad 21197" class="cls-2" d="M75.1,124.6c0-1.4,1.1-2.5,2.5-2.5s2.5,1.1,2.5,2.5-1.1,2.5-2.5,2.5c-1.4,0-2.5-1.1-2.5-2.5"/>
      <path id="Pfad_21198" data-name="Pfad 21198" class="cls-2" d="M71.8,119.9c0-1.4,1.1-2.5,2.5-2.5s2.5,1.1,2.5,2.5c0,1.4-1.1,2.5-2.5,2.5-1.4,0-2.5-1.1-2.5-2.5"/>
      <path id="Pfad_21199" data-name="Pfad 21199" class="cls-2" d="M68.3,115.2c0-1.4,1.1-2.5,2.5-2.5h0c1.4,0,2.5,1.1,2.5,2.5s-1.1,2.5-2.5,2.5-2.5-1.1-2.5-2.5"/>
      <path id="Pfad_21200" data-name="Pfad 21200" class="cls-2" d="M64.7,110.7c0-1.4,1.1-2.5,2.5-2.5,1.4,0,2.5,1.1,2.5,2.5s-1.1,2.5-2.5,2.5-2.5-1.1-2.5-2.5"/>
      <path id="Pfad_21202" data-name="Pfad 21202" class="cls-2" d="M53.2,97.8c0-1.4,1.1-2.5,2.5-2.5h0c1.4,0,2.5,1.1,2.5,2.5s-1.1,2.5-2.5,2.5-2.5-1.1-2.5-2.5h0"/>
      <path id="Pfad_21203" data-name="Pfad 21203" class="cls-2" d="M49.1,93.7c0-1.4,1.1-2.5,2.5-2.5,1.4,0,2.5,1.1,2.5,2.5,0,1.4-1.1,2.5-2.5,2.5s-2.5-1.1-2.5-2.5"/>
      <path id="Pfad_21204" data-name="Pfad 21204" class="cls-2" d="M31.5,78.7c0-1.4,1.1-2.5,2.5-2.5s2.5,1.1,2.5,2.5c0,1.4-1.1,2.5-2.5,2.5-1.4,0-2.5-1.1-2.5-2.5"/>
      <path id="Pfad_21205" data-name="Pfad 21205" class="cls-2" d="M-8.2,55.4c0-1.4,1.1-2.5,2.5-2.5h0c1.4,0,2.5,1.1,2.5,2.5h0c0,1.4-1.1,2.5-2.5,2.5-1.4,0-2.5-1.1-2.5-2.5"/>
      <path id="Pfad_21209" data-name="Pfad 21209" class="cls-2" d="M80.1,121.7c0-1.4,1.1-2.5,2.5-2.5s2.5,1.1,2.5,2.5-1.1,2.5-2.5,2.5-2.5-1.1-2.5-2.5"/>
      <path id="Pfad_21210" data-name="Pfad 21210" class="cls-2" d="M76.8,117c0-1.4,1.1-2.5,2.5-2.5s2.5,1.1,2.5,2.5-1.1,2.5-2.5,2.5-2.5-1.1-2.5-2.5"/>
      <path id="Pfad_21211" data-name="Pfad 21211" class="cls-2" d="M73.3,112.3c0-1.4,1.1-2.5,2.5-2.5s2.5,1.1,2.5,2.5-1.1,2.5-2.5,2.5c-1.4,0-2.5-1.1-2.5-2.5"/>
      <path id="Pfad_21214" data-name="Pfad 21214" class="cls-2" d="M54.2,90.7c0-1.4,1.1-2.5,2.5-2.5s2.5,1.1,2.5,2.5-1.1,2.5-2.5,2.5c-1.4,0-2.5-1.1-2.5-2.5"/>
      <path id="Pfad_21215" data-name="Pfad 21215" class="cls-2" d="M32.1,72c0-1.4,1.1-2.5,2.5-2.5h0c1.4,0,2.5,1.1,2.5,2.5s-1.1,2.5-2.5,2.5-2.5-1.1-2.5-2.5h0"/>
      <path id="Pfad_21216" data-name="Pfad 21216" class="cls-2" d="M27.4,68.6c0-1.4,1.1-2.5,2.5-2.5h0c1.4,0,2.5,1.1,2.5,2.5h0c0,1.4-1.1,2.5-2.5,2.5h0c-1.4,0-2.5-1.1-2.5-2.5"/>
      <path id="Pfad_21217" data-name="Pfad 21217" class="cls-2" d="M-8,49.2c0-1.4,1.1-2.5,2.5-2.5h0c1.4,0,2.5,1.1,2.5,2.5h0c0,1.4-1.1,2.5-2.5,2.5s-2.5-1.1-2.5-2.5h0"/>
      <path id="Pfad_21224" data-name="Pfad 21224" class="cls-2" d="M90.8,127.8c0-1.4,1.1-2.5,2.5-2.5,1.4,0,2.5,1.1,2.5,2.5s-1.1,2.5-2.5,2.5c-1.4,0-2.5-1.1-2.5-2.5"/>
      <path id="Pfad_21225" data-name="Pfad 21225" class="cls-2" d="M87.7,122.9c0-1.4,1.1-2.5,2.5-2.5s2.5,1.1,2.5,2.5-1.1,2.5-2.5,2.5c-1.4,0-2.5-1.1-2.5-2.5"/>
      <path id="Pfad_21226" data-name="Pfad 21226" class="cls-2" d="M81.3,113.3c0-1.4,1.1-2.5,2.5-2.5s2.5,1.1,2.5,2.5c0,1.4-1.1,2.5-2.5,2.5-1.4,0-2.5-1.1-2.5-2.5"/>
      <path id="Pfad_21228" data-name="Pfad 21228" class="cls-2" d="M2.4,47.6c0-1.4,1.1-2.5,2.5-2.5,1.4,0,2.5,1.1,2.5,2.5s-1.1,2.5-2.5,2.5-2.5-1.1-2.5-2.5"/>
      <path id="Pfad_21229" data-name="Pfad 21229" class="cls-2" d="M-2.9,45.2c0-1.4,1.1-2.5,2.5-2.5s2.5,1.1,2.5,2.5h0c0,1.4-1.1,2.5-2.5,2.5h0c-1.4,0-2.5-1.1-2.5-2.5"/>
      <path id="Pfad_21236" data-name="Pfad 21236" class="cls-2" d="M89.6,115.1c0-1.4,1.1-2.5,2.5-2.5,1.4,0,2.5,1.1,2.5,2.5h0c0,1.4-1.1,2.5-2.5,2.5-1.4,0-2.5-1.1-2.5-2.5"/>
      <path id="Pfad_21237" data-name="Pfad 21237" class="cls-2" d="M86.3,110.4c0-1.4,1.1-2.5,2.5-2.5,1.4,0,2.5,1.1,2.5,2.4h0c0,1.4-1.1,2.5-2.5,2.5-1.4,0-2.5-1.1-2.5-2.5"/>
      <path id="Pfad_21240" data-name="Pfad 21240" class="cls-2" d="M32.8,58.3c0-1.4,1.1-2.5,2.5-2.5,1.4,0,2.5,1.1,2.5,2.5h0c0,1.4-1.1,2.5-2.5,2.5s-2.5-1.1-2.5-2.5"/>
      <path id="Pfad_21245" data-name="Pfad 21245" class="cls-2" d="M97.7,117.1c0-1.4,1.1-2.5,2.5-2.5s2.5,1.1,2.5,2.5-1.1,2.5-2.5,2.5c-1.4,0-2.5-1.1-2.5-2.5"/>
      <path id="Pfad_21246" data-name="Pfad 21246" class="cls-2" d="M94.5,112.2c0-1.4,1.1-2.5,2.5-2.5s2.5,1.1,2.5,2.5-1.1,2.5-2.5,2.5-2.5-1.1-2.5-2.5"/>
      <path id="Pfad_21252" data-name="Pfad 21252" class="cls-2" d="M111,128.3c0-1.4,1.1-2.5,2.5-2.5,1.4,0,2.5,1.1,2.5,2.5s-1.1,2.5-2.5,2.5h0c-1.4,0-2.5-1.1-2.5-2.5h0"/>
      <path id="Pfad_21253" data-name="Pfad 21253" class="cls-2" d="M108.2,123.3c0-1.4,1.1-2.5,2.5-2.5s2.5,1.1,2.5,2.5-1.1,2.5-2.5,2.5c-1.4,0-2.5-1.1-2.5-2.5"/>
      <path id="Pfad_21257" data-name="Pfad 21257" class="cls-2" d="M38.1,48.1c0-1.4,1.1-2.5,2.5-2.5s2.5,1.1,2.5,2.5-1.1,2.5-2.5,2.5-2.5-1.1-2.5-2.5"/>
      <path id="Pfad_21258" data-name="Pfad 21258" class="cls-2" d="M113.2,120.4c0-1.4,1.1-2.5,2.5-2.5s2.5,1.1,2.5,2.5c0,1.4-1.1,2.5-2.5,2.5-1.4,0-2.5-1.1-2.5-2.5"/>
      <path id="Pfad_21260" data-name="Pfad 21260" class="cls-2" d="M3,22.6c0-1.4,1.1-2.5,2.5-2.5s2.5,1.1,2.5,2.5-1.1,2.5-2.5,2.5-2.5-1.1-2.5-2.5"/>
      <path id="Pfad_21261" data-name="Pfad 21261" class="cls-2" d="M121,122.5c0-1.4,1.1-2.5,2.5-2.5,1.4,0,2.5,1.1,2.5,2.5,0,1.4-1.1,2.5-2.5,2.5-1.4,0-2.5-1.1-2.5-2.5"/>
      <path id="Pfad_21262" data-name="Pfad 21262" class="cls-2" d="M118.2,117.5c0-1.4,1.1-2.5,2.5-2.5,1.4,0,2.5,1.1,2.5,2.5h0c0,1.4-1.1,2.5-2.5,2.5-1.4,0-2.5-1.1-2.5-2.5"/>
      <path id="Pfad_21263" data-name="Pfad 21263" class="cls-2" d="M48.7,41.3c0-1.4,1.1-2.5,2.5-2.5,1.4,0,2.5,1.1,2.5,2.5h0c0,1.4-1.1,2.5-2.5,2.5h0c-1.4,0-2.5-1.1-2.5-2.5"/>
      <path id="Pfad_21264" data-name="Pfad 21264" class="cls-2" d="M43.9,38.1c0-1.4,1.1-2.5,2.5-2.5s2.5,1.1,2.5,2.5-1.1,2.5-2.5,2.5-2.5-1.1-2.5-2.5"/>
      <path id="Pfad_21265" data-name="Pfad 21265" class="cls-2" d="M-7.6,12.3c0-1.4,1.1-2.5,2.5-2.5s2.5,1.1,2.5,2.5-1.1,2.5-2.5,2.5c-1.4,0-2.5-1.1-2.5-2.5"/>
      <path id="Pfad_21269" data-name="Pfad 21269" class="cls-2" d="M126,119.7c0-1.4,1.1-2.5,2.5-2.5h0c1.4,0,2.5,1.1,2.5,2.5h0c0,1.4-1.1,2.5-2.5,2.5s-2.5-1.1-2.5-2.5h0"/>
      <path id="Pfad_21271" data-name="Pfad 21271" class="cls-2" d="M44.4,31.5c0-1.4,1.1-2.5,2.5-2.5,1.4,0,2.5,1.1,2.5,2.5s-1.1,2.5-2.5,2.5-2.5-1.1-2.5-2.5"/>
      <path id="Pfad_21272" data-name="Pfad 21272" class="cls-2" d="M19.2,17.3c0-1.4,1.1-2.5,2.5-2.5,1.4,0,2.5,1.1,2.5,2.5s-1.1,2.5-2.5,2.5c-1.4,0-2.5-1.1-2.5-2.5h0"/>
      <path id="Pfad_21278" data-name="Pfad 21278" class="cls-2" d="M54,31c0-1.4,1.1-2.5,2.5-2.5s2.5,1.1,2.5,2.5h0c0,1.4-1.1,2.5-2.5,2.5h0c-1.4,0-2.5-1.1-2.5-2.5h0"/>
      <path id="Pfad_21279" data-name="Pfad 21279" class="cls-2" d="M49.3,27.8c0-1.4,1.1-2.5,2.5-2.5s2.5,1.1,2.5,2.5c0,1.4-1.1,2.5-2.5,2.5-1.4,0-2.5-1.1-2.5-2.5"/>
      <path id="Pfad_21280" data-name="Pfad 21280" class="cls-2" d="M44.4,24.7c0-1.4,1.1-2.5,2.5-2.5s2.5,1.1,2.5,2.5-1.1,2.5-2.5,2.5-2.5-1.1-2.5-2.5"/>
      <path id="Pfad_21284" data-name="Pfad 21284" class="cls-2" d="M54.6,24.4c0-1.4,1.1-2.5,2.5-2.5,1.4,0,2.5,1.1,2.5,2.5,0,1.4-1.1,2.5-2.5,2.5s-2.5-1.1-2.5-2.5"/>
      <path id="Pfad_21285" data-name="Pfad 21285" class="cls-2" d="M44.8,18.2c0-1.4,1.1-2.5,2.5-2.5s2.5,1.1,2.5,2.5-1.1,2.5-2.5,2.5-2.5-1.1-2.5-2.5"/>
      <path id="Pfad_21286" data-name="Pfad 21286" class="cls-2" d="M24.6,7.1c0-1.4,1.1-2.5,2.5-2.5,1.4,0,2.5,1.1,2.5,2.5,0,1.4-1.1,2.5-2.5,2.5h0c-1.4,0-2.5-1.1-2.5-2.5"/>
      <path id="Pfad_21287" data-name="Pfad 21287" class="cls-2" d="M19.4,4.6c0-1.4,1.1-2.5,2.5-2.5s2.5,1.1,2.5,2.5-1.1,2.5-2.5,2.5h0c-1.4,0-2.5-1.1-2.5-2.5h0"/>
      <path id="Pfad_21292" data-name="Pfad 21292" class="cls-2" d="M35.2,6.1c0-1.4,1.1-2.5,2.5-2.5s2.5,1.1,2.5,2.5-1.1,2.5-2.5,2.5h0c-1.4,0-2.5-1.1-2.5-2.5h0"/>
      <path id="Pfad_21293" data-name="Pfad 21293" class="cls-2" d="M30.1,3.4c0-1.4,1.1-2.5,2.5-2.5h0c1.4,0,2.5,1.1,2.5,2.5h0c0,1.4-1.1,2.5-2.5,2.5s-2.5-1.1-2.5-2.5h0"/>
      <path id="Pfad_21294" data-name="Pfad 21294" class="cls-2" d="M24.9.9c0-1.4,1.1-2.5,2.5-2.5s2.5,1.1,2.5,2.5-1.1,2.5-2.5,2.5-2.5-1.1-2.5-2.5"/>
      <path id="Pfad_21297" data-name="Pfad 21297" class="cls-2" d="M155.3,127.1c0-1.4,1.1-2.5,2.5-2.5s2.5,1.1,2.5,2.5-1.1,2.5-2.5,2.5h0c-1.4,0-2.5-1.1-2.5-2.5h0"/>
      <path id="Pfad_21298" data-name="Pfad 21298" class="cls-2" d="M40.2,2.2c0-1.4,1.1-2.5,2.5-2.5s2.5,1.1,2.5,2.5-1.1,2.5-2.5,2.5-2.5-1.1-2.5-2.5"/>
      <path id="Pfad_21299" data-name="Pfad 21299" class="cls-2" d="M35.1-.5c0-1.4,1.1-2.5,2.5-2.5s2.5,1.1,2.5,2.5-1.1,2.5-2.5,2.5-2.5-1.1-2.5-2.5"/>
      <path id="Pfad_21300" data-name="Pfad 21300" class="cls-2" d="M30-3.1c0-1.4,1.1-2.5,2.5-2.5s2.5,1.1,2.5,2.5-1.1,2.5-2.5,2.5-2.5-1.1-2.5-2.5"/>
      <path id="Pfad_21301" data-name="Pfad 21301" class="cls-2" d="M152.7,108.6c0-1.4,1.1-2.5,2.5-2.5s2.5,1.1,2.5,2.5-1.1,2.5-2.5,2.5-2.5-1.1-2.5-2.5"/>
      <path id="Pfad_21302" data-name="Pfad 21302" class="cls-2" d="M35.4-6.8c0-1.4,1.1-2.5,2.5-2.5s2.5,1.1,2.5,2.5-1.1,2.5-2.5,2.5-2.5-1.1-2.5-2.5"/>
      <path id="Pfad_21303" data-name="Pfad 21303" class="cls-2" d="M30.2-9.3c0-1.4,1.1-2.5,2.5-2.5s2.5,1.1,2.5,2.5c0,1.4-1.1,2.5-2.5,2.5h0c-1.4,0-2.5-1.1-2.5-2.5h0"/>
      <path id="Pfad_21305" data-name="Pfad 21305" class="cls-2" d="M149.2,90.7c0-1.4,1.1-2.5,2.5-2.5h0c1.4,0,2.5,1.1,2.5,2.4h0c0,1.4-1.1,2.5-2.4,2.5h0c-1.4,0-2.5-1.1-2.5-2.5h0"/>
      <path id="Pfad_21307" data-name="Pfad 21307" class="cls-2" d="M40.9-10.5c0-1.4,1.1-2.5,2.5-2.5,1.4,0,2.5,1.1,2.5,2.5s-1.1,2.5-2.5,2.5c-1.4,0-2.5-1.1-2.5-2.5"/>
      <path id="Pfad_21309" data-name="Pfad 21309" class="cls-2" d="M141.3,68.6c0-1.4,1.1-2.5,2.5-2.5s2.5,1.1,2.5,2.5c0,1.4-1.1,2.5-2.5,2.5-1.4,0-2.5-1.1-2.5-2.5"/>
      <path id="Pfad_21310" data-name="Pfad 21310" class="cls-2" d="M46.3-14.1c0-1.4,1.1-2.5,2.5-2.5s2.5,1.1,2.5,2.5-1.1,2.5-2.5,2.5c-1.4,0-2.5-1.1-2.5-2.5"/>
      <path id="Pfad_21313" data-name="Pfad 21313" class="cls-2" d="M149.2,69.7c0-1.4,1.1-2.5,2.5-2.5s2.5,1.1,2.5,2.5-1.1,2.5-2.5,2.5c-1.4,0-2.5-1.1-2.5-2.5"/>
      <path id="Pfad_21314" data-name="Pfad 21314" class="cls-2" d="M145.8,65c0-1.4,1.1-2.5,2.5-2.5s2.5,1.1,2.5,2.5c0,1.4-1.1,2.5-2.5,2.5h0c-1.4,0-2.5-1.1-2.5-2.5"/>
      <path id="Pfad_21315" data-name="Pfad 21315" class="cls-2" d="M56.3-15.2c0-1.4,1.1-2.5,2.5-2.5h0c1.4,0,2.5,1.1,2.5,2.5h0c0,1.4-1.1,2.5-2.5,2.5s-2.5-1.1-2.5-2.5"/>
      <path id="Pfad_21318" data-name="Pfad 21318" class="cls-2" d="M71.5-12.7c0-1.4,1.1-2.5,2.5-2.5s2.5,1.1,2.5,2.5-1.1,2.5-2.5,2.5-2.5-1.1-2.5-2.5"/>
      <path id="Pfad_21324" data-name="Pfad 21324" class="cls-2" d="M177.2,93.4c0-1.4,1.1-2.5,2.5-2.5s2.5,1.1,2.5,2.5-1.1,2.5-2.5,2.5-2.5-1.1-2.5-2.5"/>
      <path id="Pfad_21335" data-name="Pfad 21335" class="cls-2" d="M181.8,89.6c0-1.4,1.1-2.5,2.5-2.5s2.5,1.1,2.5,2.5c0,1.4-1.1,2.5-2.5,2.5-1.4,0-2.5-1.1-2.5-2.5"/>
      <path id="Pfad_21336" data-name="Pfad 21336" class="cls-2" d="M149.8,41.8c0-1.4,1.1-2.5,2.5-2.5,1.4,0,2.5,1.1,2.5,2.5h0c0,1.4-1.1,2.5-2.5,2.5s-2.5-1.1-2.5-2.5"/>
      <path id="Pfad_21337" data-name="Pfad 21337" class="cls-2" d="M146.1,37.4c0-1.4,1.1-2.5,2.5-2.5s2.5,1.1,2.5,2.5-1.1,2.5-2.5,2.5-2.5-1.1-2.5-2.5"/>
      <path id="Pfad_21338" data-name="Pfad 21338" class="cls-2" d="M142.3,33.1c0-1.4,1.1-2.5,2.5-2.5h0c1.4,0,2.5,1.1,2.5,2.5h0c0,1.4-1.1,2.5-2.5,2.5h0c-1.4,0-2.5-1.1-2.5-2.5h0"/>
      <path id="Pfad_21351" data-name="Pfad 21351" class="cls-2" d="M151.1,34.4c0-1.4,1.1-2.5,2.5-2.5h0c1.4,0,2.5,1.1,2.5,2.5,0,1.4-1.1,2.5-2.5,2.5-1.4,0-2.5-1.1-2.5-2.5"/>
      <path id="Pfad_21364" data-name="Pfad 21364" class="cls-2" d="M186.1,73.9c0-1.4,1.1-2.5,2.5-2.5s2.5,1.1,2.5,2.5-1.1,2.5-2.5,2.5-2.5-1.1-2.5-2.5"/>
      <path id="Pfad_21365" data-name="Pfad 21365" class="cls-2" d="M119.7-5.4c0-1.4,1.1-2.5,2.5-2.5s2.5,1.1,2.5,2.5c0,1.4-1.1,2.5-2.5,2.5-1.4,0-2.5-1.1-2.5-2.5"/>
      <path id="Pfad_21366" data-name="Pfad 21366" class="cls-2" d="M106.3-16.4c0-1.4,1.1-2.5,2.5-2.5s2.5,1.1,2.5,2.5-1.1,2.5-2.5,2.5c-1.4,0-2.5-1.1-2.5-2.5"/>
      <path id="Pfad_21378" data-name="Pfad 21378" class="cls-2" d="M157.5,24.1c0-1.4,1.1-2.5,2.5-2.5s2.5,1.1,2.5,2.5-1.1,2.5-2.5,2.5h0c-1.4,0-2.5-1.1-2.5-2.5h0"/>
      <path id="Pfad_21379" data-name="Pfad 21379" class="cls-2" d="M141.8,7.2c0-1.4,1.1-2.5,2.5-2.5s2.5,1.1,2.5,2.5-1.1,2.5-2.5,2.5-2.5-1.1-2.5-2.5"/>
      <path id="Pfad_21380" data-name="Pfad 21380" class="cls-2" d="M129.2-4.8c0-1.4,1.1-2.5,2.5-2.5s2.5,1.1,2.5,2.5c0,1.4-1.1,2.5-2.5,2.5-1.4,0-2.5-1.1-2.5-2.5"/>
      <path id="Pfad_21381" data-name="Pfad 21381" class="cls-2" d="M124.9-8.6c0-1.4,1.1-2.5,2.5-2.5s2.5,1.1,2.5,2.5-1.1,2.5-2.5,2.5-2.5-1.1-2.5-2.5"/>
      <path id="Pfad_21390" data-name="Pfad 21390" class="cls-2" d="M179.8,43.2c0-1.4,1.1-2.5,2.5-2.5,1.4,0,2.5,1.1,2.5,2.5,0,1.4-1.1,2.5-2.5,2.5s-2.5-1.1-2.5-2.5"/>
      <path id="Pfad_21391" data-name="Pfad 21391" class="cls-2" d="M158.2,16.2c0-1.4,1.1-2.5,2.5-2.5,1.4,0,2.5,1.1,2.5,2.5h0c0,1.4-1.1,2.5-2.5,2.5-1.4,0-2.5-1.1-2.5-2.5"/>
      <path id="Pfad_21392" data-name="Pfad 21392" class="cls-2" d="M150.4,7.7c0-1.4,1.1-2.5,2.5-2.5s2.5,1.1,2.5,2.5-1.1,2.5-2.5,2.5-2.5-1.1-2.5-2.5"/>
      <path id="Pfad_21393" data-name="Pfad 21393" class="cls-2" d="M133.8-8.3c0-1.4,1.1-2.5,2.5-2.5,1.4,0,2.5,1.1,2.5,2.5,0,1.4-1.1,2.5-2.5,2.5-1.4,0-2.5-1.1-2.5-2.5"/>
      <path id="Pfad_21394" data-name="Pfad 21394" class="cls-2" d="M129.5-12.2c0-1.4,1.1-2.5,2.5-2.5h0c1.4,0,2.5,1.1,2.5,2.5s-1.1,2.5-2.5,2.5-2.5-1.1-2.5-2.5h0"/>
      <path id="Pfad_21397" data-name="Pfad 21397" class="cls-2" d="M209,79.5c0-1.4,1.1-2.5,2.4-2.5h0c1.4,0,2.5,1.1,2.5,2.5h0c0,1.4-1.1,2.5-2.5,2.5h0c-1.4,0-2.5-1.1-2.5-2.4h0"/>
      <path id="Pfad_21398" data-name="Pfad 21398" class="cls-2" d="M174.4,26.4c0-1.4,1.1-2.5,2.5-2.5,1.4,0,2.5,1.1,2.5,2.5,0,1.4-1.1,2.5-2.5,2.5s-2.5-1.1-2.5-2.5"/>
      <path id="Pfad_21399" data-name="Pfad 21399" class="cls-2" d="M163.2,13.2c0-1.4,1.1-2.5,2.5-2.5s2.5,1.1,2.5,2.5c0,1.4-1.1,2.5-2.5,2.5-1.4,0-2.5-1.1-2.5-2.5"/>
      <path id="Pfad_21401" data-name="Pfad 21401" class="cls-2" d="M214,76.6c0-1.4,1.1-2.5,2.5-2.5s2.5,1.1,2.5,2.5-1.1,2.5-2.5,2.5-2.5-1.1-2.5-2.5"/>
      <path id="Pfad_21402" data-name="Pfad 21402" class="cls-2" d="M199.5,51.7c0-1.4,1.1-2.5,2.5-2.5h0c1.4,0,2.5,1.1,2.5,2.5,0,1.4-1.1,2.5-2.5,2.5-1.4,0-2.5-1.1-2.5-2.5h0"/>
      <path id="Pfad_21403" data-name="Pfad 21403" class="cls-2" d="M193.1,42.1c0-1.4,1.1-2.5,2.5-2.5s2.5,1.1,2.5,2.5-1.1,2.5-2.5,2.5-2.5-1.1-2.5-2.5"/>
      <path id="Pfad_21404" data-name="Pfad 21404" class="cls-2" d="M186.4,32.7c0-1.4,1.1-2.5,2.5-2.5,1.4,0,2.5,1.1,2.5,2.5,0,1.4-1.1,2.5-2.5,2.5s-2.5-1.1-2.5-2.5"/>
      <path id="Pfad_21405" data-name="Pfad 21405" class="cls-2" d="M168.3,10.2c0-1.4,1.1-2.5,2.5-2.5s2.5,1.1,2.5,2.5-1.1,2.5-2.5,2.5-2.5-1.1-2.5-2.5"/>
      <path id="Pfad_21406" data-name="Pfad 21406" class="cls-2" d="M164.4,5.9c0-1.4,1.1-2.5,2.5-2.5s2.5,1.1,2.5,2.5-1.1,2.5-2.5,2.5h0c-1.4,0-2.5-1.1-2.5-2.5h0"/>
      <path id="Pfad_21408" data-name="Pfad 21408" class="cls-2" d="M194.8,34.4c0-1.4,1.1-2.5,2.5-2.5h0c1.4,0,2.5,1.1,2.5,2.5h0c0,1.4-1.1,2.5-2.5,2.5h0c-1.4,0-2.5-1.1-2.5-2.5"/>
      <path id="Pfad_21414" data-name="Pfad 21414" class="cls-2" d="M215,54.9c0-1.4,1.1-2.5,2.5-2.5h0c1.4,0,2.5,1.1,2.5,2.5h0c0,1.4-1.1,2.5-2.5,2.5h0c-1.4,0-2.5-1.1-2.5-2.5h0"/>
      <path id="Pfad_21420" data-name="Pfad 21420" class="cls-2" d="M220,52c0-1.4,1.1-2.5,2.5-2.5s2.5,1.1,2.5,2.5-1.1,2.5-2.5,2.5-2.5-1.1-2.5-2.5"/>
      <path id="Pfad_21421" data-name="Pfad 21421" class="cls-2" d="M217,47.1c0-1.4,1.1-2.5,2.5-2.5h0c1.4,0,2.5,1.1,2.5,2.5,0,1.4-1.1,2.5-2.5,2.5s-2.5-1.1-2.5-2.5"/>
      <path id="Pfad_21430" data-name="Pfad 21430" class="cls-2" d="M195.3,6.6c0-1.4,1.1-2.5,2.5-2.5s2.5,1.1,2.5,2.5-1.1,2.5-2.5,2.5-2.5-1.1-2.5-2.5"/>
      <path id="Pfad_21441" data-name="Pfad 21441" class="cls-2" d="M218.7,18.4c0-1.4,1.1-2.5,2.5-2.5s2.5,1.1,2.5,2.5c0,1.4-1.1,2.5-2.5,2.5-1.4,0-2.5-1.1-2.5-2.5h0"/>
      <path id="Pfad_21442" data-name="Pfad 21442" class="cls-2" d="M215.4,13.7c0-1.4,1.1-2.5,2.5-2.5s2.5,1.1,2.5,2.5-1.1,2.5-2.5,2.5-2.5-1.1-2.5-2.5"/>
      <path id="Pfad_21447" data-name="Pfad 21447" class="cls-2" d="M220.4,10.8c0-1.4,1.1-2.5,2.5-2.5h0c1.4,0,2.5,1.1,2.5,2.5,0,1.4-1.1,2.5-2.5,2.5s-2.5-1.1-2.5-2.5"/>
      <path id="Pfad_21448" data-name="Pfad 21448" class="cls-2" d="M216.9,6.2c0-1.4,1.1-2.5,2.5-2.5s2.5,1.1,2.5,2.5-1.1,2.5-2.5,2.5-2.5-1.1-2.5-2.5"/>
      <path id="Pfad_21455" data-name="Pfad 21455" class="cls-2" d="M222,3.3c0-1.4,1.1-2.5,2.5-2.5s2.5,1.1,2.5,2.5-1.1,2.5-2.5,2.5c-1.4,0-2.5-1.1-2.5-2.5"/>
      <path id="Pfad_21456" data-name="Pfad 21456" class="cls-2" d="M211.3-10.4c0-1.4,1.1-2.5,2.5-2.5h0c1.4,0,2.5,1.1,2.5,2.5h0c0,1.4-1.1,2.5-2.5,2.5s-2.5-1.1-2.5-2.5h0"/>
      <path id="Pfad_21457" data-name="Pfad 21457" class="cls-2" d="M207.6-14.8c0-1.4,1.1-2.5,2.5-2.5s2.5,1.1,2.5,2.5-1.1,2.5-2.5,2.5c-1.4,0-2.5-1.1-2.5-2.5"/>
      <path id="Pfad_21461" data-name="Pfad 21461" class="cls-2" d="M219.4-9.5c0-1.4,1.1-2.5,2.5-2.5s2.5,1.1,2.5,2.5-1.1,2.5-2.5,2.5-2.5-1.1-2.5-2.5"/>
      <path id="Pfad_21462" data-name="Pfad 21462" class="cls-2" d="M215.8-13.9c0-1.4,1.1-2.5,2.5-2.5s2.5,1.1,2.5,2.5-1.1,2.5-2.5,2.5-2.5-1.1-2.5-2.5"/>
      <line id="Linie_998" data-name="Linie 998" class="cls-1" x1="40.6" y1="48.1" x2="35.2" y2="58.3"/>
      <line id="Linie_999" data-name="Linie 999" class="cls-1" x1="35.2" y1="58.3" x2="4.7" y2="47.6"/>
      <line id="Linie_1000" data-name="Linie 1000" class="cls-1" x1="4.7" y1="47.6" x2="21.8" y2="17.3"/>
      <line id="Linie_1001" data-name="Linie 1001" class="cls-1" x1="21.8" y1="17.3" x2="40.6" y2="48.1"/>
      <line id="Linie_1002" data-name="Linie 1002" class="cls-1" x1="35.2" y1="58.3" x2="29.8" y2="68.9"/>
      <line id="Linie_1003" data-name="Linie 1003" class="cls-1" x1="56.5" y1="90.6" x2="34" y2="78.7"/>
      <line id="Linie_1007" data-name="Linie 1007" class="cls-1" x1="51.1" y1="41.3" x2="56.5" y2="90.6"/>
      <line id="Linie_1009" data-name="Linie 1009" class="cls-1" x1="144.8" y1="33.1" x2="144.2" y2="7.2"/>
      <line id="Linie_1011" data-name="Linie 1011" class="cls-1" x1="148.3" y1="65" x2="165.8" y2="40.5"/>
      <line id="Linie_1012" data-name="Linie 1012" class="cls-1" x1="165.8" y1="40.5" x2="152.2" y2="41.8"/>
      <line id="Linie_1013" data-name="Linie 1013" class="cls-1" x1="148.3" y1="65" x2="185.5" y2="68.9"/>
      <line id="Linie_1014" data-name="Linie 1014" class="cls-1" x1="155.3" y1="108.7" x2="151.6" y2="90.7"/>
      <line id="Linie_1015" data-name="Linie 1015" class="cls-1" x1="188.5" y1="73.9" x2="151.6" y2="90.7"/>
      <line id="Linie_1017" data-name="Linie 1017" class="cls-1" x1="122.2" y1="-5.5" x2="73.5" y2=".8"/>
      <line id="Linie_1018" data-name="Linie 1018" class="cls-1" x1="73.5" y1=".8" x2="74" y2="-12.8"/>
      <line id="Linie_1020" data-name="Linie 1020" class="cls-1" x1="165.8" y1="40.5" x2="182.2" y2="43.2"/>
      <line id="Linie_1021" data-name="Linie 1021" class="cls-1" x1="182.2" y1="43.2" x2="176.8" y2="26.4"/>
      <line id="Linie_1022" data-name="Linie 1022" class="cls-1" x1="176.8" y1="26.4" x2="165.8" y2="40.5"/>
      <line id="Linie_1023" data-name="Linie 1023" class="cls-1" x1="165.8" y1="40.5" x2="159.9" y2="24"/>
      <line id="Linie_1029" data-name="Linie 1029" class="cls-1" x1="179.8" y1="93.6" x2="157.7" y2="127"/>
      <line id="Linie_1030" data-name="Linie 1030" class="cls-1" x1="157.7" y1="127" x2="128.4" y2="119.7"/>
      <line id="Linie_1032" data-name="Linie 1032" class="cls-1" x1="185.5" y1="68.9" x2="217.5" y2="54.9"/>
      <line id="Linie_1033" data-name="Linie 1033" class="cls-1" x1="217.5" y1="54.9" x2="216.4" y2="76.6"/>
      <line id="Linie_1035" data-name="Linie 1035" class="cls-1" x1="53.4" y1="112.3" x2="34.2" y2="125.5"/>
      <line id="Linie_1036" data-name="Linie 1036" class="cls-1" x1="53.4" y1="112.3" x2="56.2" y2="125.1"/>
      <line id="Linie_1037" data-name="Linie 1037" class="cls-1" x1="-6.9" y1="86.8" x2="23.4" y2="92.3"/>
      <line id="Linie_1038" data-name="Linie 1038" class="cls-1" x1="47.3" y1="18.2" x2="21.8" y2="17.3"/>
      <line id="Linie_1039" data-name="Linie 1039" class="cls-1" x1="154.9" y1="74.4" x2="151.6" y2="90.7"/>
      <line id="Linie_1040" data-name="Linie 1040" class="cls-1" x1="176.8" y1="26.4" x2="198" y2="6.6"/>
      <line id="Linie_1041" data-name="Linie 1041" class="cls-1" x1="198" y1="6.6" x2="136.3" y2="-8.3"/>
      <line id="Linie_1042" data-name="Linie 1042" class="cls-1" x1="198" y1="6.6" x2="217.8" y2="13.7"/>
      <line id="Linie_1043" data-name="Linie 1043" class="cls-1" x1="198" y1="6.6" x2="210" y2="-14.8"/>
      <line id="Linie_1049" data-name="Linie 1049" class="cls-1" x1="73.5" y1=".8" x2="48.7" y2="-14.1"/>
      <path id="Pfad_21487" data-name="Pfad 21487" class="cls-2" d="M183.1,68.9c0-1.4,1.1-2.5,2.5-2.5s2.5,1.1,2.5,2.5-1.1,2.5-2.5,2.5-2.5-1.1-2.5-2.5"/>
      <path id="Pfad_21488" data-name="Pfad 21488" class="cls-2" d="M163.4,40.5c0-1.4,1.1-2.5,2.5-2.5s2.5,1.1,2.5,2.5c0,1.4-1.1,2.5-2.5,2.5-1.4,0-2.5-1.1-2.5-2.5"/>
      <path id="Pfad_21489" data-name="Pfad 21489" class="cls-2" d="M152.4,74.4c0-1.4,1.1-2.5,2.5-2.5,1.4,0,2.5,1.1,2.5,2.5,0,1.4-1.1,2.5-2.5,2.5s-2.5-1.1-2.5-2.5"/>
      <line id="Linie_1050" data-name="Linie 1050" class="cls-1" x1="221.2" y1="18.4" x2="197.2" y2="34.4"/>
      <line id="Linie_1051" data-name="Linie 1051" class="cls-1" x1="197.2" y1="34.4" x2="195.5" y2="41.8"/>
      <line id="Linie_1052" data-name="Linie 1052" class="cls-1" x1="110.8" y1="123.2" x2="101.5" y2="108.4"/>
      <line id="Linie_1053" data-name="Linie 1053" class="cls-1" x1="110.8" y1="123.2" x2="90.2" y2="122.6"/>
      <line id="Linie_1054" data-name="Linie 1054" class="cls-1" x1="152.8" y1="7.6" x2="153.6" y2="34.4"/>
      <line id="Linie_1055" data-name="Linie 1055" class="cls-1" x1="152.8" y1="7.6" x2="166.9" y2="5.9"/>
      <line id="Linie_1056" data-name="Linie 1056" class="cls-1" x1="152.8" y1="7.6" x2="160.6" y2="16.2"/>
      <line id="Linie_1062" data-name="Linie 1062" class="cls-1" x1="43.3" y1="-10.8" x2="42.8" y2="2.2"/>
      <line id="Linie_1063" data-name="Linie 1063" class="cls-1" x1="26.4" y1="109.6" x2="16.6" y2="116.1"/>
      <line id="Linie_1065" data-name="Linie 1065" class="cls-1" x1="35.7" y1="110.4" x2="45.4" y2="103.9"/>
      <line id="Linie_1066" data-name="Linie 1066" class="cls-1" x1="45.4" y1="103.9" x2="62" y2="113.7"/>
      <line id="Linie_1067" data-name="Linie 1067" class="cls-1" x1="32.6" y1="92.3" x2="-5.8" y2="55.4"/>
      <path id="Pfad_21490" data-name="Pfad 21490" class="cls-2" d="M71,.8c0-1.4,1.1-2.5,2.5-2.5,1.4,0,2.5,1.1,2.5,2.5,0,1.4-1.1,2.5-2.5,2.5s-2.5-1.1-2.5-2.5"/>
      <line id="Linie_1077" data-name="Linie 1077" class="cls-1" x1="213.7" y1="-10.5" x2="219.4" y2="5.9"/>
      <line id="Linie_1078" data-name="Linie 1078" class="cls-1" x1="197.2" y1="34.4" x2="188.5" y2="32.7"/>
      <line id="Linie_1098" data-name="Linie 1098" class="cls-1" x1="1.4" y1="126.4" x2="-13.4" y2="123"/>
      <line id="Linie_1099" data-name="Linie 1099" class="cls-1" x1="-13.4" y1="123" x2="-17.8" y2="113.7"/>
      <line id="Linie_1106" data-name="Linie 1106" class="cls-1" x1="8.1" y1="102.6" x2="-12.4" y2="103.3"/>
      <line id="Linie_1107" data-name="Linie 1107" class="cls-1" x1="-12.4" y1="103.3" x2="-6.7" y2="93.2"/>
      <line id="Linie_1108" data-name="Linie 1108" class="cls-1" x1="2.2" y1="112.3" x2="6.2" y2="122.8"/>
    </g>
  </g>
  <g>
    <circle class="cls-2" cx="108.6" cy="41.2" r="1.9"/>
    <circle class="cls-2" cx="116.4" cy="49" r="1.9"/>
    <g>
      <g>
        <circle class="cls-2" cx="104.7" cy="52.9" r="1.9"/>
        <circle class="cls-2" cx="97" cy="37.3" r="1.9"/>
        <circle class="cls-2" cx="81.4" cy="41.2" r="1.9"/>
        <circle class="cls-2" cx="97" cy="41.2" r="1.9"/>
        <circle class="cls-2" cx="81.4" cy="45.1" r="1.9"/>
        <circle class="cls-2" cx="97" cy="45.1" r="1.9"/>
        <circle class="cls-2" cx="81.4" cy="49" r="1.9"/>
        <circle class="cls-2" cx="85.3" cy="49" r="1.9"/>
        <circle class="cls-2" cx="89.2" cy="49" r="1.9"/>
        <circle class="cls-2" cx="97" cy="49" r="1.9"/>
        <circle class="cls-2" cx="100.8" cy="49" r="1.9"/>
        <circle class="cls-2" cx="104.7" cy="49" r="1.9"/>
        <circle class="cls-2" cx="108.6" cy="49" r="1.9"/>
        <circle class="cls-2" cx="89.2" cy="52.9" r="1.9"/>
        <circle class="cls-2" cx="100.8" cy="52.9" r="1.9"/>
        <circle class="cls-2" cx="108.6" cy="52.9" r="1.9"/>
        <circle class="cls-2" cx="89.2" cy="56.8" r="1.9"/>
        <circle class="cls-2" cx="97" cy="56.8" r="1.9"/>
        <circle class="cls-2" cx="100.8" cy="56.8" r="1.9"/>
        <circle class="cls-2" cx="104.7" cy="56.8" r="1.9"/>
        <circle class="cls-2" cx="108.6" cy="56.8" r="1.9"/>
        <circle class="cls-2" cx="89.2" cy="60.6" r="1.9"/>
        <circle class="cls-2" cx="97" cy="60.6" r="1.9"/>
        <circle class="cls-2" cx="100.8" cy="60.6" r="1.9"/>
        <circle class="cls-2" cx="108.6" cy="60.6" r="1.9"/>
        <circle class="cls-2" cx="108.6" cy="64.5" r="1.9"/>
        <circle class="cls-2" cx="112.5" cy="64.5" r="1.9"/>
        <circle class="cls-2" cx="116.4" cy="64.5" r="1.9"/>
        <circle class="cls-2" cx="120.2" cy="64.5" r="1.9"/>
        <circle class="cls-2" cx="97" cy="68.4" r="1.9"/>
        <circle class="cls-2" cx="100.8" cy="68.4" r="1.9"/>
        <circle class="cls-2" cx="85.3" cy="72.3" r="1.9"/>
        <circle class="cls-2" cx="89.2" cy="72.3" r="1.9"/>
        <circle class="cls-2" cx="93.1" cy="72.3" r="1.9"/>
        <circle class="cls-2" cx="97" cy="72.3" r="1.9"/>
        <circle class="cls-2" cx="100.8" cy="72.3" r="1.9"/>
        <circle class="cls-2" cx="104.7" cy="72.3" r="1.9"/>
        <circle class="cls-2" cx="85.3" cy="76.2" r="1.9"/>
      </g>
      <circle class="cls-2" cx="97" cy="33.5" r="1.9"/>
      <circle class="cls-2" cx="81.4" cy="37.3" r="1.9"/>
      <circle class="cls-2" cx="93.1" cy="37.3" r="1.9"/>
      <circle class="cls-2" cx="100.8" cy="37.3" r="1.9"/>
      <circle class="cls-2" cx="77.5" cy="41.2" r="1.9"/>
      <circle class="cls-2" cx="85.3" cy="41.2" r="1.9"/>
      <circle class="cls-2" cx="112.5" cy="41.2" r="1.9"/>
      <circle class="cls-2" cx="104.7" cy="45.1" r="1.9"/>
      <circle class="cls-2" cx="108.6" cy="45.1" r="1.9"/>
      <circle class="cls-2" cx="112.5" cy="45.1" r="1.9"/>
      <circle class="cls-2" cx="116.4" cy="45.1" r="1.9"/>
      <circle class="cls-2" cx="112.5" cy="49" r="1.9"/>
      <circle class="cls-2" cx="97" cy="52.9" r="1.9"/>
      <circle class="cls-2" cx="112.5" cy="52.9" r="1.9"/>
      <circle class="cls-2" cx="93.1" cy="56.8" r="1.9"/>
      <circle class="cls-2" cx="93.1" cy="60.6" r="1.9"/>
      <circle class="cls-2" cx="104.7" cy="60.6" r="1.9"/>
      <circle class="cls-2" cx="120.2" cy="60.6" r="1.9"/>
      <circle class="cls-2" cx="93.1" cy="64.5" r="1.9"/>
      <circle class="cls-2" cx="97" cy="64.5" r="1.9"/>
      <circle class="cls-2" cx="100.8" cy="64.5" r="1.9"/>
      <circle class="cls-2" cx="124.1" cy="64.5" r="1.9"/>
      <circle class="cls-2" cx="120.2" cy="68.4" r="1.9"/>
      <circle class="cls-2" cx="81.4" cy="76.2" r="1.9"/>
      <circle class="cls-2" cx="89.2" cy="76.2" r="1.9"/>
      <circle class="cls-2" cx="85.3" cy="80.1" r="1.9"/>
    </g>
  </g>
</svg>