<svg width="511" height="349" viewBox="0 0 511 349" fill="none" xmlns="http://www.w3.org/2000/svg">
<g clip-path="url(#clip0_345_4821)">
<path d="M327.049 314.985L304.553 349L287.501 304.785L327.049 314.985Z" fill="#2E6C59"/>
<path d="M299.287 335.352C299.287 335.352 232.351 362.209 185.043 306.835C185.043 306.835 243.909 339.614 292.896 318.775L299.287 335.352Z" fill="#2E6C59"/>
<path d="M509.843 240.09L490.15 208.661C490.101 208.596 490.052 208.531 490.004 208.466C489.906 208.336 489.792 208.206 489.678 208.092C489.596 208.011 489.514 207.946 489.433 207.881C489.384 207.848 489.335 207.783 489.27 207.75C489.188 207.685 489.091 207.669 488.993 207.62C488.928 207.588 488.879 207.539 488.814 207.506L417.069 176.452C416.319 176.127 415.471 176.127 414.721 176.452L342.977 207.506C342.977 207.506 342.879 207.571 342.813 207.604C342.716 207.653 342.618 207.685 342.52 207.75C342.455 207.783 342.422 207.848 342.357 207.897C342.276 207.962 342.194 208.027 342.129 208.092C341.998 208.206 341.901 208.336 341.786 208.466C341.738 208.531 341.689 208.58 341.656 208.629C341.656 208.629 341.656 208.629 341.64 208.661L321.947 240.09C321.507 240.806 321.376 241.668 321.621 242.481C321.849 243.295 322.42 243.962 323.186 244.319L341.2 252.86V296.521C341.2 297.644 341.835 298.652 342.83 299.157L414.575 334.864C414.689 334.912 414.803 334.945 414.933 334.994C415.015 335.026 415.08 335.059 415.161 335.075C415.406 335.14 415.65 335.173 415.895 335.173C416.14 335.173 416.4 335.14 416.629 335.075C416.71 335.059 416.775 335.026 416.857 334.994C416.971 334.961 417.085 334.929 417.199 334.864L488.944 299.157C489.938 298.652 490.574 297.644 490.574 296.521V252.86L508.571 244.319C509.338 243.962 509.908 243.295 510.136 242.481C510.381 241.684 510.251 240.806 509.81 240.106L509.843 240.09ZM436.81 271.828L420.117 242.676L486.515 213.932L503.11 240.415L436.827 271.828H436.81ZM345.34 213.932L411.722 242.676L395.012 271.828L328.729 240.415L345.324 213.932H345.34ZM415.911 182.373L480.239 210.223L415.911 238.073L351.584 210.223L415.911 182.373ZM347.134 255.642L394.963 278.302C395.371 278.497 395.795 278.579 396.235 278.579C397.262 278.579 398.256 278.042 398.794 277.098L412.977 252.339V327.446L347.134 294.683V255.642ZM484.705 294.683L418.862 327.446V252.356L433.045 277.114C433.583 278.058 434.577 278.595 435.604 278.595C436.028 278.595 436.468 278.497 436.876 278.318L484.722 255.642V294.683H484.705Z" fill="#C4C4C4"/>
<path d="M188.32 240.09L168.627 208.661C168.579 208.596 168.53 208.531 168.481 208.466C168.383 208.336 168.269 208.206 168.155 208.092C168.073 208.011 167.992 207.946 167.91 207.881C167.861 207.848 167.812 207.783 167.747 207.75C167.666 207.685 167.568 207.669 167.47 207.62C167.405 207.588 167.356 207.539 167.291 207.506L95.5459 176.452C94.796 176.127 93.9483 176.127 93.1984 176.452L21.4537 207.506C21.4537 207.506 21.3559 207.571 21.2907 207.604C21.1928 207.653 21.095 207.685 20.9972 207.75C20.932 207.783 20.8994 207.848 20.8342 207.897C20.7527 207.962 20.6712 208.027 20.606 208.092C20.4756 208.206 20.3777 208.336 20.2636 208.466C20.2147 208.531 20.1658 208.58 20.1332 208.629C20.1332 208.629 20.1332 208.629 20.1169 208.661L0.456797 240.09C0.0166451 240.806 -0.11377 241.668 0.130759 242.481C0.358985 243.295 0.929552 243.962 1.69574 244.319L19.7094 252.86V296.521C19.7094 297.644 20.3451 298.652 21.3396 299.157L93.0843 334.864C93.1984 334.912 93.3125 334.945 93.443 334.994C93.5245 335.026 93.5897 335.059 93.6712 335.075C93.9157 335.14 94.1602 335.173 94.4048 335.173C94.6493 335.173 94.9101 335.14 95.1384 335.075C95.2199 335.059 95.2851 335.026 95.3666 334.994C95.4807 334.961 95.5948 334.929 95.7089 334.864L167.454 299.157C168.448 298.652 169.084 297.644 169.084 296.521V252.86L187.081 244.319C187.847 243.962 188.418 243.295 188.646 242.481C188.891 241.684 188.76 240.806 188.32 240.106V240.09ZM115.271 271.828L98.5781 242.676L164.976 213.932L181.571 240.415L115.288 271.828H115.271ZM23.8011 213.932L90.1826 242.676L73.4731 271.828L7.18949 240.415L23.7848 213.932H23.8011ZM94.3885 182.373L158.716 210.223L94.3885 238.073L30.0611 210.223L94.3885 182.373ZM25.5944 255.642L73.4242 278.302C73.8317 278.497 74.2556 278.579 74.6957 278.579C75.7228 278.579 76.7172 278.042 77.2551 277.098L91.4378 252.339V327.446L25.5944 294.683V255.642ZM163.183 294.683L97.3391 327.446V252.356L111.522 277.114C112.06 278.058 113.054 278.595 114.081 278.595C114.505 278.595 114.945 278.497 115.353 278.318L163.199 255.642V294.683H163.183Z" fill="#C4C4C4"/>
<path d="M182.32 186.245L204.817 152.23L221.869 196.445L182.32 186.245Z" fill="#2E6C59"/>
<path d="M210.082 165.878C210.082 165.878 277.018 139.021 324.326 194.395C324.326 194.395 265.46 161.616 216.472 182.455L210.082 165.878Z" fill="#2E6C59"/>
<path d="M137.8 304.671C146.947 304.671 154.363 297.272 154.363 288.144C154.363 279.016 146.947 271.616 137.8 271.616C128.653 271.616 121.237 279.016 121.237 288.144C121.237 297.272 128.653 304.671 137.8 304.671Z" fill="#06192D" stroke="#06192D" stroke-width="0.2" stroke-miterlimit="10"/>
<path d="M142.202 281.1C142.202 281.588 141.811 281.979 141.322 281.979C140.833 281.979 140.441 281.588 140.441 281.1C140.441 280.612 140.833 280.222 141.322 280.222C141.811 280.222 142.202 280.612 142.202 281.1Z" fill="#F24BA0"/>
<path d="M145.739 284.614C145.739 285.102 145.348 285.492 144.859 285.492C144.37 285.492 143.979 285.102 143.979 284.614C143.979 284.126 144.37 283.735 144.859 283.735C145.348 283.735 145.739 284.126 145.739 284.614Z" fill="#F24BA0"/>
<path d="M140.441 286.387C140.441 286.875 140.05 287.265 139.561 287.265C139.072 287.265 138.681 286.875 138.681 286.387C138.681 285.899 139.072 285.509 139.561 285.509C140.05 285.509 140.441 285.899 140.441 286.387Z" fill="#00A877"/>
<path d="M136.92 279.343C136.92 279.831 136.529 280.222 136.039 280.222C135.55 280.222 135.159 279.831 135.159 279.343C135.159 278.855 135.55 278.465 136.039 278.465C136.529 278.465 136.92 278.855 136.92 279.343Z" fill="#00A877"/>
<path d="M129.861 281.1C129.861 281.588 129.47 281.979 128.981 281.979C128.492 281.979 128.101 281.588 128.101 281.1C128.101 280.612 128.492 280.222 128.981 280.222C129.47 280.222 129.861 280.612 129.861 281.1Z" fill="#00A877"/>
<path d="M136.92 281.1C136.92 281.588 136.529 281.979 136.039 281.979C135.55 281.979 135.159 281.588 135.159 281.1C135.159 280.612 135.55 280.222 136.039 280.222C136.529 280.222 136.92 280.612 136.92 281.1Z" fill="#00A877"/>
<path d="M129.861 282.857C129.861 283.345 129.47 283.735 128.981 283.735C128.492 283.735 128.101 283.345 128.101 282.857C128.101 282.369 128.492 281.979 128.981 281.979C129.47 281.979 129.861 282.369 129.861 282.857Z" fill="#00A877"/>
<path d="M136.92 282.857C136.92 283.345 136.529 283.735 136.039 283.735C135.55 283.735 135.159 283.345 135.159 282.857C135.159 282.369 135.55 281.979 136.039 281.979C136.529 281.979 136.92 282.369 136.92 282.857Z" fill="#00A877"/>
<path d="M129.861 284.614C129.861 285.102 129.47 285.492 128.981 285.492C128.492 285.492 128.101 285.102 128.101 284.614C128.101 284.126 128.492 283.735 128.981 283.735C129.47 283.735 129.861 284.126 129.861 284.614Z" fill="#00A877"/>
<path d="M131.622 284.614C131.622 285.102 131.231 285.492 130.742 285.492C130.253 285.492 129.861 285.102 129.861 284.614C129.861 284.126 130.253 283.735 130.742 283.735C131.231 283.735 131.622 284.126 131.622 284.614Z" fill="#00A877"/>
<path d="M133.383 284.614C133.383 285.102 132.991 285.492 132.502 285.492C132.013 285.492 131.622 285.102 131.622 284.614C131.622 284.126 132.013 283.735 132.502 283.735C132.991 283.735 133.383 284.126 133.383 284.614Z" fill="#00A877"/>
<path d="M136.92 284.614C136.92 285.102 136.529 285.492 136.039 285.492C135.55 285.492 135.159 285.102 135.159 284.614C135.159 284.126 135.55 283.735 136.039 283.735C136.529 283.735 136.92 284.126 136.92 284.614Z" fill="#00A877"/>
<path d="M138.681 284.614C138.681 285.102 138.289 285.492 137.8 285.492C137.311 285.492 136.92 285.102 136.92 284.614C136.92 284.126 137.311 283.735 137.8 283.735C138.289 283.735 138.681 284.126 138.681 284.614Z" fill="#00A877"/>
<path d="M140.441 284.614C140.441 285.102 140.05 285.492 139.561 285.492C139.072 285.492 138.681 285.102 138.681 284.614C138.681 284.126 139.072 283.735 139.561 283.735C140.05 283.735 140.441 284.126 140.441 284.614Z" fill="#00A877"/>
<path d="M142.202 284.614C142.202 285.102 141.811 285.492 141.322 285.492C140.833 285.492 140.441 285.102 140.441 284.614C140.441 284.126 140.833 283.735 141.322 283.735C141.811 283.735 142.202 284.126 142.202 284.614Z" fill="#00A877"/>
<path d="M133.383 286.387C133.383 286.875 132.991 287.265 132.502 287.265C132.013 287.265 131.622 286.875 131.622 286.387C131.622 285.899 132.013 285.509 132.502 285.509C132.991 285.509 133.383 285.899 133.383 286.387Z" fill="#00A877"/>
<path d="M138.681 286.387C138.681 286.875 138.289 287.265 137.8 287.265C137.311 287.265 136.92 286.875 136.92 286.387C136.92 285.899 137.311 285.509 137.8 285.509C138.289 285.509 138.681 285.899 138.681 286.387Z" fill="#00A877"/>
<path d="M142.202 286.387C142.202 286.875 141.811 287.265 141.322 287.265C140.833 287.265 140.441 286.875 140.441 286.387C140.441 285.899 140.833 285.509 141.322 285.509C141.811 285.509 142.202 285.899 142.202 286.387Z" fill="#00A877"/>
<path d="M133.383 288.144C133.383 288.632 132.991 289.022 132.502 289.022C132.013 289.022 131.622 288.632 131.622 288.144C131.622 287.656 132.013 287.265 132.502 287.265C132.991 287.265 133.383 287.656 133.383 288.144Z" fill="#00A877"/>
<path d="M136.92 288.144C136.92 288.632 136.529 289.022 136.039 289.022C135.55 289.022 135.159 288.632 135.159 288.144C135.159 287.656 135.55 287.265 136.039 287.265C136.529 287.265 136.92 287.656 136.92 288.144Z" fill="#00A877"/>
<path d="M138.681 288.144C138.681 288.632 138.289 289.022 137.8 289.022C137.311 289.022 136.92 288.632 136.92 288.144C136.92 287.656 137.311 287.265 137.8 287.265C138.289 287.265 138.681 287.656 138.681 288.144Z" fill="#00A877"/>
<path d="M140.441 288.144C140.441 288.632 140.05 289.022 139.561 289.022C139.072 289.022 138.681 288.632 138.681 288.144C138.681 287.656 139.072 287.265 139.561 287.265C140.05 287.265 140.441 287.656 140.441 288.144Z" fill="#00A877"/>
<path d="M142.202 288.144C142.202 288.632 141.811 289.022 141.322 289.022C140.833 289.022 140.441 288.632 140.441 288.144C140.441 287.656 140.833 287.265 141.322 287.265C141.811 287.265 142.202 287.656 142.202 288.144Z" fill="#00A877"/>
<path d="M133.383 289.901C133.383 290.389 132.991 290.779 132.502 290.779C132.013 290.779 131.622 290.389 131.622 289.901C131.622 289.413 132.013 289.022 132.502 289.022C132.991 289.022 133.383 289.413 133.383 289.901Z" fill="#00A877"/>
<path d="M136.92 289.901C136.92 290.389 136.529 290.779 136.039 290.779C135.55 290.779 135.159 290.389 135.159 289.901C135.159 289.413 135.55 289.022 136.039 289.022C136.529 289.022 136.92 289.413 136.92 289.901Z" fill="#00A877"/>
<path d="M138.681 289.901C138.681 290.389 138.289 290.779 137.8 290.779C137.311 290.779 136.92 290.389 136.92 289.901C136.92 289.413 137.311 289.022 137.8 289.022C138.289 289.022 138.681 289.413 138.681 289.901Z" fill="#00A877"/>
<path d="M142.202 289.901C142.202 290.389 141.811 290.779 141.322 290.779C140.833 290.779 140.441 290.389 140.441 289.901C140.441 289.413 140.833 289.022 141.322 289.022C141.811 289.022 142.202 289.413 142.202 289.901Z" fill="#00A877"/>
<path d="M142.202 291.658C142.202 292.146 141.811 292.536 141.322 292.536C140.833 292.536 140.441 292.146 140.441 291.658C140.441 291.17 140.833 290.779 141.322 290.779C141.811 290.779 142.202 291.17 142.202 291.658Z" fill="#00A877"/>
<path d="M143.978 291.658C143.978 292.146 143.587 292.536 143.098 292.536C142.609 292.536 142.218 292.146 142.218 291.658C142.218 291.17 142.609 290.779 143.098 290.779C143.587 290.779 143.978 291.17 143.978 291.658Z" fill="#00A877"/>
<path d="M145.739 291.658C145.739 292.146 145.348 292.536 144.859 292.536C144.37 292.536 143.979 292.146 143.979 291.658C143.979 291.17 144.37 290.779 144.859 290.779C145.348 290.779 145.739 291.17 145.739 291.658Z" fill="#00A877"/>
<path d="M147.5 291.658C147.5 292.146 147.109 292.536 146.62 292.536C146.131 292.536 145.739 292.146 145.739 291.658C145.739 291.17 146.131 290.779 146.62 290.779C147.109 290.779 147.5 291.17 147.5 291.658Z" fill="#00A877"/>
<path d="M136.92 293.415C136.92 293.903 136.529 294.293 136.039 294.293C135.55 294.293 135.159 293.903 135.159 293.415C135.159 292.927 135.55 292.536 136.039 292.536C136.529 292.536 136.92 292.927 136.92 293.415Z" fill="#00A877"/>
<path d="M138.681 293.415C138.681 293.903 138.289 294.293 137.8 294.293C137.311 294.293 136.92 293.903 136.92 293.415C136.92 292.927 137.311 292.536 137.8 292.536C138.289 292.536 138.681 292.927 138.681 293.415Z" fill="#00A877"/>
<path d="M131.622 295.188C131.622 295.676 131.231 296.066 130.742 296.066C130.253 296.066 129.861 295.676 129.861 295.188C129.861 294.7 130.253 294.309 130.742 294.309C131.231 294.309 131.622 294.7 131.622 295.188Z" fill="#00A877"/>
<path d="M133.383 295.188C133.383 295.676 132.991 296.066 132.502 296.066C132.013 296.066 131.622 295.676 131.622 295.188C131.622 294.7 132.013 294.309 132.502 294.309C132.991 294.309 133.383 294.7 133.383 295.188Z" fill="#00A877"/>
<path d="M135.159 295.188C135.159 295.676 134.768 296.066 134.279 296.066C133.79 296.066 133.398 295.676 133.398 295.188C133.398 294.7 133.79 294.309 134.279 294.309C134.768 294.309 135.159 294.7 135.159 295.188Z" fill="#00A877"/>
<path d="M136.92 295.188C136.92 295.676 136.529 296.066 136.039 296.066C135.55 296.066 135.159 295.676 135.159 295.188C135.159 294.7 135.55 294.309 136.039 294.309C136.529 294.309 136.92 294.7 136.92 295.188Z" fill="#00A877"/>
<path d="M138.681 295.188C138.681 295.676 138.289 296.066 137.8 296.066C137.311 296.066 136.92 295.676 136.92 295.188C136.92 294.7 137.311 294.309 137.8 294.309C138.289 294.309 138.681 294.7 138.681 295.188Z" fill="#00A877"/>
<path d="M140.441 295.188C140.441 295.676 140.05 296.066 139.561 296.066C139.072 296.066 138.681 295.676 138.681 295.188C138.681 294.7 139.072 294.309 139.561 294.309C140.05 294.309 140.441 294.7 140.441 295.188Z" fill="#00A877"/>
<path d="M131.622 296.945C131.622 297.433 131.231 297.823 130.742 297.823C130.253 297.823 129.861 297.433 129.861 296.945C129.861 296.457 130.253 296.066 130.742 296.066C131.231 296.066 131.622 296.457 131.622 296.945Z" fill="#00A877"/>
<path d="M136.92 277.57C136.92 278.058 136.529 278.449 136.039 278.449C135.55 278.449 135.159 278.058 135.159 277.57C135.159 277.082 135.55 276.692 136.039 276.692C136.529 276.692 136.92 277.082 136.92 277.57Z" fill="#00A877"/>
<path d="M129.861 279.343C129.861 279.831 129.47 280.222 128.981 280.222C128.492 280.222 128.101 279.831 128.101 279.343C128.101 278.855 128.492 278.465 128.981 278.465C129.47 278.465 129.861 278.855 129.861 279.343Z" fill="#00A877"/>
<path d="M135.159 279.343C135.159 279.831 134.768 280.222 134.279 280.222C133.79 280.222 133.398 279.831 133.398 279.343C133.398 278.855 133.79 278.465 134.279 278.465C134.768 278.465 135.159 278.855 135.159 279.343Z" fill="#00A877"/>
<path d="M138.681 279.343C138.681 279.831 138.289 280.222 137.8 280.222C137.311 280.222 136.92 279.831 136.92 279.343C136.92 278.855 137.311 278.465 137.8 278.465C138.289 278.465 138.681 278.855 138.681 279.343Z" fill="#00A877"/>
<path d="M128.1 281.1C128.1 281.588 127.709 281.979 127.22 281.979C126.731 281.979 126.34 281.588 126.34 281.1C126.34 280.612 126.731 280.222 127.22 280.222C127.709 280.222 128.1 280.612 128.1 281.1Z" fill="#00A877"/>
<path d="M131.622 281.1C131.622 281.588 131.231 281.979 130.742 281.979C130.253 281.979 129.861 281.588 129.861 281.1C129.861 280.612 130.253 280.222 130.742 280.222C131.231 280.222 131.622 280.612 131.622 281.1Z" fill="#00A877"/>
<path d="M143.978 281.1C143.978 281.588 143.587 281.979 143.098 281.979C142.609 281.979 142.218 281.588 142.218 281.1C142.218 280.612 142.609 280.222 143.098 280.222C143.587 280.222 143.978 280.612 143.978 281.1Z" fill="#00A877"/>
<path d="M140.441 282.857C140.441 283.345 140.05 283.735 139.561 283.735C139.072 283.735 138.681 283.345 138.681 282.857C138.681 282.369 139.072 281.979 139.561 281.979C140.05 281.979 140.441 282.369 140.441 282.857Z" fill="#00A877"/>
<path d="M142.202 282.857C142.202 283.345 141.811 283.735 141.322 283.735C140.833 283.735 140.441 283.345 140.441 282.857C140.441 282.369 140.833 281.979 141.322 281.979C141.811 281.979 142.202 282.369 142.202 282.857Z" fill="#00A877"/>
<path d="M143.978 282.857C143.978 283.345 143.587 283.735 143.098 283.735C142.609 283.735 142.218 283.345 142.218 282.857C142.218 282.369 142.609 281.979 143.098 281.979C143.587 281.979 143.978 282.369 143.978 282.857Z" fill="#00A877"/>
<path d="M145.739 282.857C145.739 283.345 145.348 283.735 144.859 283.735C144.37 283.735 143.979 283.345 143.979 282.857C143.979 282.369 144.37 281.979 144.859 281.979C145.348 281.979 145.739 282.369 145.739 282.857Z" fill="#00A877"/>
<path d="M143.978 284.614C143.978 285.102 143.587 285.492 143.098 285.492C142.609 285.492 142.218 285.102 142.218 284.614C142.218 284.126 142.609 283.735 143.098 283.735C143.587 283.735 143.978 284.126 143.978 284.614Z" fill="#00A877"/>
<path d="M136.92 286.387C136.92 286.875 136.529 287.265 136.039 287.265C135.55 287.265 135.159 286.875 135.159 286.387C135.159 285.899 135.55 285.509 136.039 285.509C136.529 285.509 136.92 285.899 136.92 286.387Z" fill="#00A877"/>
<path d="M143.978 286.387C143.978 286.875 143.587 287.265 143.098 287.265C142.609 287.265 142.218 286.875 142.218 286.387C142.218 285.899 142.609 285.509 143.098 285.509C143.587 285.509 143.978 285.899 143.978 286.387Z" fill="#00A877"/>
<path d="M135.159 288.144C135.159 288.632 134.768 289.022 134.279 289.022C133.79 289.022 133.398 288.632 133.398 288.144C133.398 287.656 133.79 287.265 134.279 287.265C134.768 287.265 135.159 287.656 135.159 288.144Z" fill="#00A877"/>
<path d="M135.159 289.901C135.159 290.389 134.768 290.779 134.279 290.779C133.79 290.779 133.398 290.389 133.398 289.901C133.398 289.413 133.79 289.022 134.279 289.022C134.768 289.022 135.159 289.413 135.159 289.901Z" fill="#00A877"/>
<path d="M140.441 289.901C140.441 290.389 140.05 290.779 139.561 290.779C139.072 290.779 138.681 290.389 138.681 289.901C138.681 289.413 139.072 289.022 139.561 289.022C140.05 289.022 140.441 289.413 140.441 289.901Z" fill="#00A877"/>
<path d="M147.5 289.901C147.5 290.389 147.109 290.779 146.62 290.779C146.131 290.779 145.739 290.389 145.739 289.901C145.739 289.413 146.131 289.022 146.62 289.022C147.109 289.022 147.5 289.413 147.5 289.901Z" fill="#00A877"/>
<path d="M135.159 291.658C135.159 292.146 134.768 292.536 134.279 292.536C133.79 292.536 133.398 292.146 133.398 291.658C133.398 291.17 133.79 290.779 134.279 290.779C134.768 290.779 135.159 291.17 135.159 291.658Z" fill="#00A877"/>
<path d="M136.92 291.658C136.92 292.146 136.529 292.536 136.039 292.536C135.55 292.536 135.159 292.146 135.159 291.658C135.159 291.17 135.55 290.779 136.039 290.779C136.529 290.779 136.92 291.17 136.92 291.658Z" fill="#00A877"/>
<path d="M138.681 291.658C138.681 292.146 138.289 292.536 137.8 292.536C137.311 292.536 136.92 292.146 136.92 291.658C136.92 291.17 137.311 290.779 137.8 290.779C138.289 290.779 138.681 291.17 138.681 291.658Z" fill="#00A877"/>
<path d="M149.261 291.658C149.261 292.146 148.869 292.536 148.38 292.536C147.891 292.536 147.5 292.146 147.5 291.658C147.5 291.17 147.891 290.779 148.38 290.779C148.869 290.779 149.261 291.17 149.261 291.658Z" fill="#00A877"/>
<path d="M147.5 293.415C147.5 293.903 147.109 294.293 146.62 294.293C146.131 294.293 145.739 293.903 145.739 293.415C145.739 292.927 146.131 292.536 146.62 292.536C147.109 292.536 147.5 292.927 147.5 293.415Z" fill="#00A877"/>
<path d="M129.861 296.945C129.861 297.433 129.47 297.823 128.981 297.823C128.492 297.823 128.101 297.433 128.101 296.945C128.101 296.457 128.492 296.066 128.981 296.066C129.47 296.066 129.861 296.457 129.861 296.945Z" fill="#00A877"/>
<path d="M133.383 296.945C133.383 297.433 132.991 297.823 132.502 297.823C132.013 297.823 131.622 297.433 131.622 296.945C131.622 296.457 132.013 296.066 132.502 296.066C132.991 296.066 133.383 296.457 133.383 296.945Z" fill="#00A877"/>
<path d="M131.622 298.701C131.622 299.189 131.231 299.58 130.742 299.58C130.253 299.58 129.861 299.189 129.861 298.701C129.861 298.213 130.253 297.823 130.742 297.823C131.231 297.823 131.622 298.213 131.622 298.701Z" fill="#00A877"/>
<path d="M374.39 304.671C383.537 304.671 390.953 297.272 390.953 288.144C390.953 279.016 383.537 271.616 374.39 271.616C365.243 271.616 357.827 279.016 357.827 288.144C357.827 297.272 365.243 304.671 374.39 304.671Z" fill="#06192D" stroke="#06192D" stroke-width="0.2" stroke-miterlimit="10"/>
<path d="M378.807 281.1C378.807 281.588 378.416 281.979 377.927 281.979C377.438 281.979 377.047 281.588 377.047 281.1C377.047 280.612 377.438 280.222 377.927 280.222C378.416 280.222 378.807 280.612 378.807 281.1Z" fill="#F24BA0"/>
<path d="M382.329 284.614C382.329 285.102 381.938 285.492 381.449 285.492C380.96 285.492 380.568 285.102 380.568 284.614C380.568 284.126 380.96 283.735 381.449 283.735C381.938 283.735 382.329 284.126 382.329 284.614Z" fill="#F24BA0"/>
<path d="M377.047 286.387C377.047 286.875 376.655 287.265 376.166 287.265C375.677 287.265 375.286 286.875 375.286 286.387C375.286 285.899 375.677 285.509 376.166 285.509C376.655 285.509 377.047 285.899 377.047 286.387Z" fill="#00A877"/>
<path d="M373.51 279.343C373.51 279.831 373.118 280.222 372.629 280.222C372.14 280.222 371.749 279.831 371.749 279.343C371.749 278.855 372.14 278.465 372.629 278.465C373.118 278.465 373.51 278.855 373.51 279.343Z" fill="#00A877"/>
<path d="M366.468 281.1C366.468 281.588 366.076 281.979 365.587 281.979C365.098 281.979 364.707 281.588 364.707 281.1C364.707 280.612 365.098 280.222 365.587 280.222C366.076 280.222 366.468 280.612 366.468 281.1Z" fill="#00A877"/>
<path d="M373.51 281.1C373.51 281.588 373.118 281.979 372.629 281.979C372.14 281.979 371.749 281.588 371.749 281.1C371.749 280.612 372.14 280.222 372.629 280.222C373.118 280.222 373.51 280.612 373.51 281.1Z" fill="#00A877"/>
<path d="M366.468 282.857C366.468 283.345 366.076 283.735 365.587 283.735C365.098 283.735 364.707 283.345 364.707 282.857C364.707 282.369 365.098 281.979 365.587 281.979C366.076 281.979 366.468 282.369 366.468 282.857Z" fill="#00A877"/>
<path d="M373.51 282.857C373.51 283.345 373.118 283.735 372.629 283.735C372.14 283.735 371.749 283.345 371.749 282.857C371.749 282.369 372.14 281.979 372.629 281.979C373.118 281.979 373.51 282.369 373.51 282.857Z" fill="#00A877"/>
<path d="M366.468 284.614C366.468 285.102 366.076 285.492 365.587 285.492C365.098 285.492 364.707 285.102 364.707 284.614C364.707 284.126 365.098 283.735 365.587 283.735C366.076 283.735 366.468 284.126 366.468 284.614Z" fill="#00A877"/>
<path d="M368.227 284.614C368.227 285.102 367.836 285.492 367.347 285.492C366.858 285.492 366.467 285.102 366.467 284.614C366.467 284.126 366.858 283.735 367.347 283.735C367.836 283.735 368.227 284.126 368.227 284.614Z" fill="#00A877"/>
<path d="M369.988 284.614C369.988 285.102 369.597 285.492 369.108 285.492C368.619 285.492 368.228 285.102 368.228 284.614C368.228 284.126 368.619 283.735 369.108 283.735C369.597 283.735 369.988 284.126 369.988 284.614Z" fill="#00A877"/>
<path d="M373.51 284.614C373.51 285.102 373.118 285.492 372.629 285.492C372.14 285.492 371.749 285.102 371.749 284.614C371.749 284.126 372.14 283.735 372.629 283.735C373.118 283.735 373.51 284.126 373.51 284.614Z" fill="#00A877"/>
<path d="M375.27 284.614C375.27 285.102 374.879 285.492 374.39 285.492C373.901 285.492 373.51 285.102 373.51 284.614C373.51 284.126 373.901 283.735 374.39 283.735C374.879 283.735 375.27 284.126 375.27 284.614Z" fill="#00A877"/>
<path d="M377.047 284.614C377.047 285.102 376.655 285.492 376.166 285.492C375.677 285.492 375.286 285.102 375.286 284.614C375.286 284.126 375.677 283.735 376.166 283.735C376.655 283.735 377.047 284.126 377.047 284.614Z" fill="#00A877"/>
<path d="M378.807 284.614C378.807 285.102 378.416 285.492 377.927 285.492C377.438 285.492 377.047 285.102 377.047 284.614C377.047 284.126 377.438 283.735 377.927 283.735C378.416 283.735 378.807 284.126 378.807 284.614Z" fill="#00A877"/>
<path d="M369.988 286.387C369.988 286.875 369.597 287.265 369.108 287.265C368.619 287.265 368.228 286.875 368.228 286.387C368.228 285.899 368.619 285.509 369.108 285.509C369.597 285.509 369.988 285.899 369.988 286.387Z" fill="#00A877"/>
<path d="M375.27 286.387C375.27 286.875 374.879 287.265 374.39 287.265C373.901 287.265 373.51 286.875 373.51 286.387C373.51 285.899 373.901 285.509 374.39 285.509C374.879 285.509 375.27 285.899 375.27 286.387Z" fill="#00A877"/>
<path d="M378.807 286.387C378.807 286.875 378.416 287.265 377.927 287.265C377.438 287.265 377.047 286.875 377.047 286.387C377.047 285.899 377.438 285.509 377.927 285.509C378.416 285.509 378.807 285.899 378.807 286.387Z" fill="#00A877"/>
<path d="M369.988 288.144C369.988 288.632 369.597 289.022 369.108 289.022C368.619 289.022 368.228 288.632 368.228 288.144C368.228 287.656 368.619 287.265 369.108 287.265C369.597 287.265 369.988 287.656 369.988 288.144Z" fill="#00A877"/>
<path d="M373.51 288.144C373.51 288.632 373.118 289.022 372.629 289.022C372.14 289.022 371.749 288.632 371.749 288.144C371.749 287.656 372.14 287.265 372.629 287.265C373.118 287.265 373.51 287.656 373.51 288.144Z" fill="#00A877"/>
<path d="M375.27 288.144C375.27 288.632 374.879 289.022 374.39 289.022C373.901 289.022 373.51 288.632 373.51 288.144C373.51 287.656 373.901 287.265 374.39 287.265C374.879 287.265 375.27 287.656 375.27 288.144Z" fill="#00A877"/>
<path d="M377.047 288.144C377.047 288.632 376.655 289.022 376.166 289.022C375.677 289.022 375.286 288.632 375.286 288.144C375.286 287.656 375.677 287.265 376.166 287.265C376.655 287.265 377.047 287.656 377.047 288.144Z" fill="#00A877"/>
<path d="M378.807 288.144C378.807 288.632 378.416 289.022 377.927 289.022C377.438 289.022 377.047 288.632 377.047 288.144C377.047 287.656 377.438 287.265 377.927 287.265C378.416 287.265 378.807 287.656 378.807 288.144Z" fill="#00A877"/>
<path d="M369.988 289.901C369.988 290.389 369.597 290.779 369.108 290.779C368.619 290.779 368.228 290.389 368.228 289.901C368.228 289.413 368.619 289.022 369.108 289.022C369.597 289.022 369.988 289.413 369.988 289.901Z" fill="#00A877"/>
<path d="M373.51 289.901C373.51 290.389 373.118 290.779 372.629 290.779C372.14 290.779 371.749 290.389 371.749 289.901C371.749 289.413 372.14 289.022 372.629 289.022C373.118 289.022 373.51 289.413 373.51 289.901Z" fill="#00A877"/>
<path d="M375.27 289.901C375.27 290.389 374.879 290.779 374.39 290.779C373.901 290.779 373.51 290.389 373.51 289.901C373.51 289.413 373.901 289.022 374.39 289.022C374.879 289.022 375.27 289.413 375.27 289.901Z" fill="#00A877"/>
<path d="M378.807 289.901C378.807 290.389 378.416 290.779 377.927 290.779C377.438 290.779 377.047 290.389 377.047 289.901C377.047 289.413 377.438 289.022 377.927 289.022C378.416 289.022 378.807 289.413 378.807 289.901Z" fill="#00A877"/>
<path d="M378.807 291.658C378.807 292.146 378.416 292.536 377.927 292.536C377.438 292.536 377.047 292.146 377.047 291.658C377.047 291.17 377.438 290.779 377.927 290.779C378.416 290.779 378.807 291.17 378.807 291.658Z" fill="#00A877"/>
<path d="M380.568 291.658C380.568 292.146 380.177 292.536 379.688 292.536C379.199 292.536 378.808 292.146 378.808 291.658C378.808 291.17 379.199 290.779 379.688 290.779C380.177 290.779 380.568 291.17 380.568 291.658Z" fill="#00A877"/>
<path d="M382.329 291.658C382.329 292.146 381.938 292.536 381.449 292.536C380.96 292.536 380.568 292.146 380.568 291.658C380.568 291.17 380.96 290.779 381.449 290.779C381.938 290.779 382.329 291.17 382.329 291.658Z" fill="#00A877"/>
<path d="M384.09 291.658C384.09 292.146 383.698 292.536 383.209 292.536C382.72 292.536 382.329 292.146 382.329 291.658C382.329 291.17 382.72 290.779 383.209 290.779C383.698 290.779 384.09 291.17 384.09 291.658Z" fill="#00A877"/>
<path d="M373.51 293.415C373.51 293.903 373.118 294.293 372.629 294.293C372.14 294.293 371.749 293.903 371.749 293.415C371.749 292.927 372.14 292.536 372.629 292.536C373.118 292.536 373.51 292.927 373.51 293.415Z" fill="#00A877"/>
<path d="M375.27 293.415C375.27 293.903 374.879 294.293 374.39 294.293C373.901 294.293 373.51 293.903 373.51 293.415C373.51 292.927 373.901 292.536 374.39 292.536C374.879 292.536 375.27 292.927 375.27 293.415Z" fill="#00A877"/>
<path d="M368.227 295.188C368.227 295.676 367.836 296.066 367.347 296.066C366.858 296.066 366.467 295.676 366.467 295.188C366.467 294.7 366.858 294.309 367.347 294.309C367.836 294.309 368.227 294.7 368.227 295.188Z" fill="#00A877"/>
<path d="M369.988 295.188C369.988 295.676 369.597 296.066 369.108 296.066C368.619 296.066 368.228 295.676 368.228 295.188C368.228 294.7 368.619 294.309 369.108 294.309C369.597 294.309 369.988 294.7 369.988 295.188Z" fill="#00A877"/>
<path d="M371.749 295.188C371.749 295.676 371.358 296.066 370.869 296.066C370.38 296.066 369.988 295.676 369.988 295.188C369.988 294.7 370.38 294.309 370.869 294.309C371.358 294.309 371.749 294.7 371.749 295.188Z" fill="#00A877"/>
<path d="M373.51 295.188C373.51 295.676 373.118 296.066 372.629 296.066C372.14 296.066 371.749 295.676 371.749 295.188C371.749 294.7 372.14 294.309 372.629 294.309C373.118 294.309 373.51 294.7 373.51 295.188Z" fill="#00A877"/>
<path d="M375.27 295.188C375.27 295.676 374.879 296.066 374.39 296.066C373.901 296.066 373.51 295.676 373.51 295.188C373.51 294.7 373.901 294.309 374.39 294.309C374.879 294.309 375.27 294.7 375.27 295.188Z" fill="#00A877"/>
<path d="M377.047 295.188C377.047 295.676 376.655 296.066 376.166 296.066C375.677 296.066 375.286 295.676 375.286 295.188C375.286 294.7 375.677 294.309 376.166 294.309C376.655 294.309 377.047 294.7 377.047 295.188Z" fill="#00A877"/>
<path d="M368.227 296.945C368.227 297.433 367.836 297.823 367.347 297.823C366.858 297.823 366.467 297.433 366.467 296.945C366.467 296.457 366.858 296.066 367.347 296.066C367.836 296.066 368.227 296.457 368.227 296.945Z" fill="#00A877"/>
<path d="M373.51 277.57C373.51 278.058 373.118 278.449 372.629 278.449C372.14 278.449 371.749 278.058 371.749 277.57C371.749 277.082 372.14 276.692 372.629 276.692C373.118 276.692 373.51 277.082 373.51 277.57Z" fill="#00A877"/>
<path d="M366.468 279.343C366.468 279.831 366.076 280.222 365.587 280.222C365.098 280.222 364.707 279.831 364.707 279.343C364.707 278.855 365.098 278.465 365.587 278.465C366.076 278.465 366.468 278.855 366.468 279.343Z" fill="#00A877"/>
<path d="M371.749 279.343C371.749 279.831 371.358 280.222 370.869 280.222C370.38 280.222 369.988 279.831 369.988 279.343C369.988 278.855 370.38 278.465 370.869 278.465C371.358 278.465 371.749 278.855 371.749 279.343Z" fill="#00A877"/>
<path d="M375.27 279.343C375.27 279.831 374.879 280.222 374.39 280.222C373.901 280.222 373.51 279.831 373.51 279.343C373.51 278.855 373.901 278.465 374.39 278.465C374.879 278.465 375.27 278.855 375.27 279.343Z" fill="#00A877"/>
<path d="M364.69 281.1C364.69 281.588 364.299 281.979 363.81 281.979C363.321 281.979 362.93 281.588 362.93 281.1C362.93 280.612 363.321 280.222 363.81 280.222C364.299 280.222 364.69 280.612 364.69 281.1Z" fill="#00A877"/>
<path d="M368.227 281.1C368.227 281.588 367.836 281.979 367.347 281.979C366.858 281.979 366.467 281.588 366.467 281.1C366.467 280.612 366.858 280.222 367.347 280.222C367.836 280.222 368.227 280.612 368.227 281.1Z" fill="#00A877"/>
<path d="M380.568 281.1C380.568 281.588 380.177 281.979 379.688 281.979C379.199 281.979 378.808 281.588 378.808 281.1C378.808 280.612 379.199 280.222 379.688 280.222C380.177 280.222 380.568 280.612 380.568 281.1Z" fill="#00A877"/>
<path d="M377.047 282.857C377.047 283.345 376.655 283.735 376.166 283.735C375.677 283.735 375.286 283.345 375.286 282.857C375.286 282.369 375.677 281.979 376.166 281.979C376.655 281.979 377.047 282.369 377.047 282.857Z" fill="#00A877"/>
<path d="M378.807 282.857C378.807 283.345 378.416 283.735 377.927 283.735C377.438 283.735 377.047 283.345 377.047 282.857C377.047 282.369 377.438 281.979 377.927 281.979C378.416 281.979 378.807 282.369 378.807 282.857Z" fill="#00A877"/>
<path d="M380.568 282.857C380.568 283.345 380.177 283.735 379.688 283.735C379.199 283.735 378.808 283.345 378.808 282.857C378.808 282.369 379.199 281.979 379.688 281.979C380.177 281.979 380.568 282.369 380.568 282.857Z" fill="#00A877"/>
<path d="M382.329 282.857C382.329 283.345 381.938 283.735 381.449 283.735C380.96 283.735 380.568 283.345 380.568 282.857C380.568 282.369 380.96 281.979 381.449 281.979C381.938 281.979 382.329 282.369 382.329 282.857Z" fill="#00A877"/>
<path d="M380.568 284.614C380.568 285.102 380.177 285.492 379.688 285.492C379.199 285.492 378.808 285.102 378.808 284.614C378.808 284.126 379.199 283.735 379.688 283.735C380.177 283.735 380.568 284.126 380.568 284.614Z" fill="#00A877"/>
<path d="M373.51 286.387C373.51 286.875 373.118 287.265 372.629 287.265C372.14 287.265 371.749 286.875 371.749 286.387C371.749 285.899 372.14 285.509 372.629 285.509C373.118 285.509 373.51 285.899 373.51 286.387Z" fill="#00A877"/>
<path d="M380.568 286.387C380.568 286.875 380.177 287.265 379.688 287.265C379.199 287.265 378.808 286.875 378.808 286.387C378.808 285.899 379.199 285.509 379.688 285.509C380.177 285.509 380.568 285.899 380.568 286.387Z" fill="#00A877"/>
<path d="M371.749 288.144C371.749 288.632 371.358 289.022 370.869 289.022C370.38 289.022 369.988 288.632 369.988 288.144C369.988 287.656 370.38 287.265 370.869 287.265C371.358 287.265 371.749 287.656 371.749 288.144Z" fill="#00A877"/>
<path d="M371.749 289.901C371.749 290.389 371.358 290.779 370.869 290.779C370.38 290.779 369.988 290.389 369.988 289.901C369.988 289.413 370.38 289.022 370.869 289.022C371.358 289.022 371.749 289.413 371.749 289.901Z" fill="#00A877"/>
<path d="M377.047 289.901C377.047 290.389 376.655 290.779 376.166 290.779C375.677 290.779 375.286 290.389 375.286 289.901C375.286 289.413 375.677 289.022 376.166 289.022C376.655 289.022 377.047 289.413 377.047 289.901Z" fill="#00A877"/>
<path d="M384.09 289.901C384.09 290.389 383.698 290.779 383.209 290.779C382.72 290.779 382.329 290.389 382.329 289.901C382.329 289.413 382.72 289.022 383.209 289.022C383.698 289.022 384.09 289.413 384.09 289.901Z" fill="#00A877"/>
<path d="M371.749 291.658C371.749 292.146 371.358 292.536 370.869 292.536C370.38 292.536 369.988 292.146 369.988 291.658C369.988 291.17 370.38 290.779 370.869 290.779C371.358 290.779 371.749 291.17 371.749 291.658Z" fill="#00A877"/>
<path d="M373.51 291.658C373.51 292.146 373.118 292.536 372.629 292.536C372.14 292.536 371.749 292.146 371.749 291.658C371.749 291.17 372.14 290.779 372.629 290.779C373.118 290.779 373.51 291.17 373.51 291.658Z" fill="#00A877"/>
<path d="M375.27 291.658C375.27 292.146 374.879 292.536 374.39 292.536C373.901 292.536 373.51 292.146 373.51 291.658C373.51 291.17 373.901 290.779 374.39 290.779C374.879 290.779 375.27 291.17 375.27 291.658Z" fill="#00A877"/>
<path d="M385.866 291.658C385.866 292.146 385.475 292.536 384.986 292.536C384.497 292.536 384.105 292.146 384.105 291.658C384.105 291.17 384.497 290.779 384.986 290.779C385.475 290.779 385.866 291.17 385.866 291.658Z" fill="#00A877"/>
<path d="M384.09 293.415C384.09 293.903 383.698 294.293 383.209 294.293C382.72 294.293 382.329 293.903 382.329 293.415C382.329 292.927 382.72 292.536 383.209 292.536C383.698 292.536 384.09 292.927 384.09 293.415Z" fill="#00A877"/>
<path d="M366.468 296.945C366.468 297.433 366.076 297.823 365.587 297.823C365.098 297.823 364.707 297.433 364.707 296.945C364.707 296.457 365.098 296.066 365.587 296.066C366.076 296.066 366.468 296.457 366.468 296.945Z" fill="#00A877"/>
<path d="M369.988 296.945C369.988 297.433 369.597 297.823 369.108 297.823C368.619 297.823 368.228 297.433 368.228 296.945C368.228 296.457 368.619 296.066 369.108 296.066C369.597 296.066 369.988 296.457 369.988 296.945Z" fill="#00A877"/>
<path d="M368.227 298.701C368.227 299.189 367.836 299.58 367.347 299.58C366.858 299.58 366.467 299.189 366.467 298.701C366.467 298.213 366.858 297.823 367.347 297.823C367.836 297.823 368.227 298.213 368.227 298.701Z" fill="#00A877"/>
<path d="M96.736 132.839L98.8552 108.763C98.8226 108.341 97.8771 108.129 97.5348 108.324C96.6545 108.812 95.5622 108.991 94.4537 108.682C92.8724 108.243 91.6987 106.876 91.5357 105.25C91.2585 102.631 93.4267 100.548 95.9209 100.76C96.7686 100.841 97.5348 101.167 98.1543 101.671C98.5455 101.996 99.4095 101.866 99.5073 101.459L101.643 77.2861L125.77 79.4009C126.226 79.4334 126.373 80.3932 126.031 80.7999C125.525 81.4018 125.183 82.1663 125.118 83.0285C124.906 85.5174 126.992 87.681 129.617 87.4044C131.247 87.2418 132.617 86.0705 133.057 84.4926C133.366 83.3864 133.187 82.2965 132.698 81.418C132.502 81.0602 132.747 80.0191 133.187 80.0516L157.314 82.1663L155.178 106.307C155.211 106.73 156.156 106.942 156.499 106.746C157.379 106.258 158.471 106.079 159.58 106.388C161.161 106.828 162.335 108.194 162.498 109.821C162.775 112.44 160.607 114.522 158.113 114.311C157.265 114.229 156.499 113.904 155.879 113.4C155.488 113.074 154.624 113.204 154.526 113.611L152.407 137.719L128.28 135.605C127.824 135.572 127.661 134.677 128.003 134.271C128.508 133.669 128.851 132.904 128.916 132.042C129.128 129.553 127.041 127.39 124.417 127.666C122.786 127.829 121.417 129 120.977 130.578C120.667 131.684 120.847 132.774 121.336 133.653C121.531 134.01 121.303 134.986 120.847 134.938L96.7197 132.823L96.736 132.839Z" fill="white" stroke="#07182B" stroke-width="0.75" stroke-miterlimit="10"/>
<path d="M140.295 124.022L111.082 121.452C109.664 121.322 108.604 120.069 108.734 118.654L110.968 93.3421C111.098 91.9269 112.354 90.8695 113.772 90.9996L142.985 93.5699C144.403 93.7 145.463 94.9526 145.332 96.3678L143.099 121.68C142.969 123.095 141.713 124.152 140.295 124.022ZM113.674 92.0245C112.826 91.9431 112.076 92.5775 111.995 93.4234L109.762 118.735C109.68 119.581 110.316 120.33 111.163 120.411L140.377 122.981C141.224 123.063 141.974 122.428 142.056 121.582L144.289 96.2702C144.37 95.4243 143.735 94.676 142.887 94.5947L113.674 92.0245Z" fill="#2E6C59" stroke="#2E6C59" stroke-width="0.39" stroke-miterlimit="10"/>
<path d="M111.184 96.7703L111.093 97.8074L141.752 100.5L141.844 99.4631L111.184 96.7703Z" fill="#2E6C59" stroke="#2E6C59" stroke-width="0.39" stroke-miterlimit="10"/>
<path d="M139.949 96.3003L139.857 97.3374L140.751 97.4158L140.842 96.3787L139.949 96.3003Z" fill="#2E6C59" stroke="#2E6C59" stroke-width="0.39" stroke-miterlimit="10"/>
<path d="M136.381 95.9802L136.289 97.0173L137.231 97.1001L137.322 96.063L136.381 95.9802Z" fill="#2E6C59" stroke="#2E6C59" stroke-width="0.39" stroke-miterlimit="10"/>
<path d="M132.826 95.6631L132.734 96.7002L133.676 96.7829L133.768 95.7458L132.826 95.6631Z" fill="#2E6C59" stroke="#2E6C59" stroke-width="0.39" stroke-miterlimit="10"/>
<path d="M128.383 103.859L124.211 116.874L125.205 117.191L129.377 104.176L128.383 103.859Z" fill="#2E6C59" stroke="#2E6C59" stroke-width="0.39" stroke-miterlimit="10"/>
<path d="M132.047 115.71L131.443 114.88L136.301 111.366L132.128 107.088L132.862 106.356L137.883 111.513L132.047 115.71Z" fill="#2E6C59" stroke="#2E6C59" stroke-width="0.39" stroke-miterlimit="10"/>
<path d="M120.667 114.718L115.646 109.561L121.483 105.364L122.102 106.21L117.228 109.707L121.401 114.002L120.667 114.718Z" fill="#2E6C59" stroke="#2E6C59" stroke-width="0.39" stroke-miterlimit="10"/>
<path d="M88.0957 124.868L64.5231 130.416C64.1319 130.578 64.2297 131.538 64.5231 131.815C65.273 132.498 65.7784 133.474 65.8273 134.629C65.9088 136.256 64.9633 137.801 63.4798 138.468C61.0671 139.558 58.4099 138.159 57.823 135.719C57.6274 134.889 57.7089 134.059 57.9861 133.327C58.1654 132.856 57.7741 132.075 57.3503 132.107L33.6799 137.687L28.1209 114.164C28.0231 113.725 28.8708 113.286 29.3599 113.465C30.0935 113.758 30.9249 113.823 31.7563 113.628C34.2016 113.058 35.5872 110.39 34.5113 107.983C33.8429 106.486 32.2942 105.559 30.664 105.64C29.5066 105.705 28.5448 106.193 27.8438 106.942C27.5667 107.251 26.5071 107.348 26.3929 106.909L20.834 83.3866L44.4718 77.8232C44.863 77.6605 44.7652 76.7007 44.4718 76.4242C43.7219 75.7409 43.2165 74.7649 43.1676 73.6099C43.0861 71.9832 44.0316 70.4378 45.5151 69.7708C47.9278 68.6809 50.585 70.0799 51.1719 72.52C51.3675 73.3496 51.286 74.1793 51.0088 74.9113C50.8295 75.3831 51.2208 76.1639 51.6446 76.1314L75.2498 70.5679L80.8088 94.0905C80.9066 94.5298 80.1241 94.9527 79.635 94.7738C78.9014 94.4809 78.07 94.4159 77.2386 94.6111C74.7933 95.1804 73.4077 97.8483 74.4836 100.256C75.152 101.752 76.7007 102.68 78.3309 102.598C79.4883 102.533 80.4501 102.045 81.1511 101.297C81.4282 100.988 82.4226 100.907 82.5368 101.346L88.0957 124.868Z" fill="white" stroke="#07182B" stroke-width="0.75" stroke-miterlimit="10"/>
<path d="M72.951 113.66C72.951 113.66 75.1517 113.14 74.6301 110.96C74.1084 108.78 70.359 102.712 61.5885 104.794C52.8181 106.877 52.166 113.953 52.6877 116.133C53.2093 118.313 55.3938 117.808 55.3938 117.808L72.951 113.676V113.66ZM54.921 115.596H54.8721C54.7417 115.027 54.7091 113.253 55.6546 111.432C56.5349 109.723 58.3281 107.853 62.1102 106.958C65.8922 106.063 68.3375 106.958 69.8862 108.08C71.549 109.284 72.2989 110.878 72.4456 111.448H72.4293L72.3967 111.464L54.9373 115.58L54.921 115.596ZM60.5452 100.386C62.9742 99.8167 64.474 97.3928 63.9034 94.969C63.3328 92.5451 60.9038 91.0485 58.4749 91.6179C56.0459 92.1873 54.5461 94.6111 55.1167 97.0349C55.6872 99.4588 58.1162 100.955 60.5452 100.386ZM66.0879 94.4647C66.9519 98.0923 64.7022 101.72 61.0669 102.582C57.4315 103.444 53.7962 101.199 52.9322 97.5718C52.0682 93.9441 54.3179 90.3165 57.9532 89.4543C61.5885 88.5922 65.2239 90.8371 66.0879 94.4647ZM52.8181 107.495C51.8726 107.43 50.9271 107.462 49.9979 107.592C49.4762 107.658 48.9545 107.755 48.4329 107.885C39.6624 109.951 39.0104 117.044 39.532 119.224C39.8744 120.688 40.7873 121.241 42.2381 120.899L51.4813 118.719C50.9923 118.117 50.6499 117.402 50.4869 116.637C49.9653 114.425 50.2587 111.968 51.3672 109.707C51.7422 108.943 52.2312 108.194 52.8018 107.479M48.7589 110.114C47.9275 112.375 47.7645 114.815 48.3025 117.158L41.7165 118.703C41.5861 118.134 41.5372 116.361 42.499 114.539C43.363 112.863 45.1236 111.025 48.7752 110.114H48.7589ZM38.9289 102.029C38.0649 98.4014 40.3145 94.7738 43.9498 93.9116C47.5852 93.0494 51.2205 95.2943 52.0845 98.9219C52.9485 102.55 50.6988 106.177 47.0635 107.039C43.4282 107.902 39.7929 105.657 38.9289 102.029ZM44.4715 96.0914C42.0425 96.6608 40.5427 99.0846 41.1133 101.508C41.6839 103.932 44.1129 105.429 46.5419 104.86C48.9708 104.29 50.4706 101.866 49.9001 99.4425C49.3295 97.0187 46.9005 95.5221 44.4715 96.0914Z" fill="#2E6C59"/>
<path d="M146.114 209.361L122.297 205.001C121.873 205.001 121.579 205.912 121.726 206.286C122.134 207.214 122.199 208.304 121.791 209.377C121.204 210.906 119.737 211.947 118.091 211.964C115.45 211.996 113.575 209.638 114.015 207.181C114.162 206.335 114.569 205.619 115.14 205.05C115.499 204.692 115.45 203.814 115.058 203.684L91.1436 199.308L95.4962 175.541C95.5777 175.102 96.5395 175.037 96.9144 175.411C97.4687 175.964 98.2023 176.371 99.05 176.533C101.512 176.989 103.859 175.102 103.843 172.467C103.826 170.84 102.783 169.36 101.251 168.774C100.175 168.367 99.0826 168.432 98.1534 168.839C97.7784 169.002 96.7677 168.66 96.8492 168.221L101.202 144.454L125.1 148.814C125.524 148.814 125.818 147.903 125.671 147.529C125.263 146.601 125.198 145.512 125.606 144.438C126.193 142.909 127.66 141.868 129.306 141.851C131.947 141.819 133.822 144.178 133.382 146.634C133.235 147.48 132.828 148.196 132.257 148.765C131.898 149.123 131.947 150.001 132.339 150.132L156.188 154.491L151.819 178.258C151.738 178.697 150.841 178.778 150.466 178.404C149.912 177.851 149.178 177.444 148.331 177.282C145.869 176.826 143.522 178.713 143.538 181.349C143.554 182.975 144.598 184.456 146.13 185.041C147.206 185.448 148.298 185.383 149.227 184.976C149.602 184.814 150.548 185.139 150.466 185.578L146.114 209.345V209.361Z" fill="white" stroke="#07182B" stroke-width="0.75" stroke-miterlimit="10"/>
<path d="M135.778 172.141C135.012 172.515 134.197 172.808 133.366 173.003C130.562 173.703 126.926 173.768 123.128 173.068C119.33 172.369 115.955 171.035 113.575 169.392C112.874 168.904 112.206 168.351 111.619 167.733L111.048 170.872C110.885 171.767 111.521 173.133 113.657 174.614C115.694 176.029 118.71 177.249 122.248 177.9C123.862 178.193 125.41 178.339 126.845 178.355C125.671 178.908 124.595 179.673 123.682 180.6C123.047 180.519 122.427 180.437 121.808 180.324C118.009 179.624 114.635 178.29 112.255 176.647C111.554 176.159 110.885 175.606 110.298 174.988L109.728 178.128C109.565 179.022 110.201 180.389 112.336 181.869C114.374 183.284 117.39 184.504 120.927 185.155H120.993C120.813 185.789 120.666 186.44 120.601 187.091C120.552 187.254 120.52 187.4 120.487 187.563C116.689 186.863 113.314 185.529 110.934 183.886C110.233 183.398 109.565 182.845 108.978 182.227L108.407 185.366C108.244 186.261 108.88 187.628 111.016 189.108C113.053 190.523 116.069 191.743 119.607 192.394C119.444 193.272 119.525 194.135 119.802 194.915C119.591 194.883 119.379 194.85 119.15 194.802C115.352 194.102 111.978 192.768 109.597 191.125C107.315 189.547 105.538 187.351 105.978 184.927L109.956 163.227C110.396 160.803 112.842 159.388 115.548 158.704C118.352 158.005 121.987 157.94 125.785 158.639C129.584 159.339 132.958 160.673 135.338 162.316C137.62 163.894 139.397 166.09 138.957 168.514L137.066 178.778C135.795 178.046 134.393 177.591 132.942 177.412C134.409 176.794 135.077 176.013 135.208 175.313L135.778 172.174V172.141ZM116.118 161.047C113.608 161.681 112.516 162.722 112.352 163.633C112.189 164.544 112.825 165.894 114.961 167.375C116.999 168.79 120.014 170.01 123.552 170.661C127.089 171.312 130.35 171.23 132.763 170.628C135.289 169.994 136.365 168.936 136.528 168.042C136.691 167.147 136.055 165.781 133.92 164.3C131.882 162.885 128.866 161.665 125.329 161.014C121.791 160.364 118.531 160.445 116.118 161.047Z" fill="#2E6C59"/>
<path d="M122.868 187.986C122.982 187.351 123.357 186.782 123.895 186.408C124.432 186.034 125.085 185.903 125.737 186.017L126.177 183.61C126.405 182.325 127.139 181.202 128.215 180.454C129.29 179.722 130.611 179.429 131.899 179.673C133.187 179.917 134.311 180.633 135.061 181.706C135.795 182.78 136.088 184.098 135.844 185.383L135.404 187.79C136.039 187.904 136.61 188.278 136.985 188.815C137.36 189.352 137.49 190.003 137.376 190.653L136.496 195.485C136.382 196.119 136.007 196.689 135.469 197.063C134.931 197.437 134.279 197.567 133.627 197.453L123.96 195.68C123.324 195.566 122.753 195.192 122.378 194.655C122.004 194.118 121.873 193.468 121.987 192.817L122.868 187.986ZM131.459 182.064C130.823 181.95 130.154 182.097 129.617 182.455C129.079 182.813 128.72 183.398 128.589 184.033L128.149 186.44L132.991 187.319L133.431 184.911C133.545 184.277 133.399 183.61 133.04 183.073C132.681 182.536 132.094 182.178 131.459 182.048V182.064Z" fill="#2E6C59"/>
<path d="M34.7717 208.06L31.7395 184.081C31.6254 183.675 30.6473 183.675 30.3539 183.935C29.5877 184.602 28.5606 185.009 27.4195 184.944C25.7893 184.846 24.3548 183.756 23.8331 182.194C23.0017 179.689 24.6808 177.2 27.175 176.875C28.0227 176.761 28.8378 176.94 29.5388 177.298C29.9789 177.526 30.8103 177.217 30.8266 176.794L27.7782 152.718L51.8072 149.692C52.2636 149.643 52.606 150.538 52.3614 151.01C52.0028 151.709 51.8235 152.523 51.9376 153.369C52.2473 155.841 54.7578 157.517 57.2683 156.703C58.817 156.199 59.9255 154.768 60.0233 153.125C60.0886 151.97 59.6973 150.961 59.0126 150.197C58.7355 149.887 58.7518 148.814 59.2083 148.765L83.2373 145.739L86.2857 169.782C86.3999 170.189 87.378 170.189 87.6714 169.929C88.4376 169.262 89.4646 168.855 90.6058 168.92C92.2359 169.018 93.6705 170.108 94.1922 171.669C95.0236 174.175 93.3445 176.664 90.8503 176.989C90.0026 177.103 89.1875 176.924 88.4865 176.566C88.0463 176.338 87.215 176.647 87.1987 177.07L90.2308 201.081L66.2018 204.107C65.7453 204.155 65.403 203.326 65.6475 202.87C66.0062 202.171 66.1855 201.357 66.0714 200.511C65.7616 198.039 63.2511 196.363 60.7406 197.177C59.192 197.681 58.0834 199.112 57.9856 200.755C57.9204 201.91 58.3116 202.919 58.9963 203.684C59.2735 203.993 59.2409 204.985 58.8007 205.05L34.7717 208.076V208.06Z" fill="white" stroke="#07182B" stroke-width="0.75" stroke-miterlimit="10"/>
<path d="M62.094 191.028L73 189.661C77.7276 189.059 81.151 184.862 80.5641 180.194C80.0261 175.948 76.3582 172.889 72.136 172.824C70.6525 166.204 64.1807 161.73 57.1709 162.625C53.7312 163.064 50.5686 164.723 48.2537 167.293C46.4768 169.262 45.3194 171.669 45.2215 173.963C40.983 175.476 38.1628 179.689 38.7334 184.26C39.4018 189.58 44.3902 193.272 49.7861 192.589L59.4694 191.369L62.0777 191.044L62.094 191.028Z" stroke="#2E6C59" stroke-width="0.78" stroke-miterlimit="10"/>
<path d="M57.3823 177.103C57.0889 177.135 56.877 177.412 56.9096 177.704L57.3171 180.909C57.3497 181.202 57.6268 181.413 57.9203 181.381L61.1318 180.974C61.4252 180.942 61.6371 180.665 61.6045 180.372L61.197 177.168C61.1644 176.875 60.8872 176.663 60.5938 176.696L57.3823 177.103Z" fill="#2E6C59"/>
<path d="M55.5732 171.376C55.5406 171.084 55.2635 170.872 54.97 170.905C54.6766 170.937 54.4647 171.214 54.4973 171.507L54.6929 173.101C53.2257 173.28 52.1661 174.63 52.3617 176.094L50.7642 176.289C50.4707 176.322 50.2588 176.598 50.2914 176.891C50.324 177.184 50.6011 177.395 50.8946 177.363L52.4922 177.168L52.6226 178.241L51.025 178.437C50.7315 178.469 50.5196 178.746 50.5522 179.038C50.5848 179.331 50.862 179.543 51.1554 179.51L52.753 179.315L52.8834 180.389L51.2858 180.584C50.9924 180.616 50.7805 180.893 50.8131 181.186C50.8457 181.479 51.1228 181.69 51.4162 181.657L53.0138 181.462L53.1442 182.536L51.5466 182.731C51.2532 182.764 51.0413 183.04 51.0739 183.333C51.1065 183.626 51.3836 183.837 51.6771 183.805L53.2746 183.61C53.454 185.074 54.807 186.131 56.2742 185.936L56.4698 187.53C56.5024 187.823 56.7796 188.034 57.073 188.002C57.3664 187.969 57.5784 187.693 57.5457 187.4L57.3501 185.806L58.4261 185.676L58.6217 187.27C58.6543 187.563 58.9314 187.774 59.2249 187.741C59.5183 187.709 59.7302 187.432 59.6976 187.14L59.502 185.545L60.5779 185.415L60.7735 187.009C60.8061 187.302 61.0833 187.514 61.3767 187.481C61.6701 187.449 61.8821 187.172 61.8495 186.879L61.6538 185.285L62.7298 185.155L62.9254 186.749C62.958 187.042 63.2351 187.253 63.5286 187.221C63.822 187.188 64.0339 186.912 64.0013 186.619L63.8057 185.025C65.2729 184.846 66.3325 183.496 66.1369 182.032L67.7344 181.836C68.0279 181.804 68.2398 181.527 68.2072 181.235C68.1746 180.942 67.8975 180.73 67.604 180.763L66.0064 180.958L65.876 179.884L67.4736 179.689C67.7671 179.657 67.979 179.38 67.9464 179.087C67.9138 178.794 67.6366 178.583 67.3432 178.615L65.7456 178.811L65.6152 177.737L67.2128 177.542C67.5062 177.509 67.7181 177.233 67.6855 176.94C67.6529 176.647 67.3758 176.436 67.0824 176.468L65.4848 176.663L65.3544 175.59L66.952 175.395C67.2454 175.362 67.4573 175.085 67.4247 174.793C67.3921 174.5 67.115 174.288 66.8215 174.321L65.224 174.516C65.0446 173.052 63.6916 171.995 62.2244 172.19L62.0288 170.596C61.9962 170.303 61.719 170.091 61.4256 170.124C61.1322 170.156 60.9202 170.433 60.9529 170.726L61.1485 172.32L60.0725 172.45L59.8769 170.856C59.8443 170.563 59.5672 170.352 59.2738 170.384C58.9803 170.417 58.7684 170.693 58.801 170.986L58.9966 172.58L57.9207 172.71L57.7251 171.116C57.6925 170.823 57.4153 170.612 57.1219 170.644C56.8285 170.677 56.6165 170.954 56.6491 171.246L56.8448 172.841L55.7688 172.971L55.5732 171.376ZM57.2523 176.045L60.4638 175.639C61.3441 175.525 62.1592 176.159 62.2733 177.038L62.6809 180.242C62.795 181.121 62.1592 181.934 61.2789 182.048L58.0674 182.455C57.1871 182.568 56.372 181.934 56.2579 181.056L55.8503 177.851C55.7362 176.972 56.372 176.159 57.2523 176.045Z" fill="#2E6C59"/>
<path d="M123.242 62.3528L99.0664 63.7518C98.6589 63.8494 98.5773 64.8092 98.8219 65.1183C99.4413 65.9154 99.7674 66.9728 99.6207 68.1115C99.425 69.7382 98.2187 71.0884 96.6374 71.4951C94.078 72.1458 91.6979 70.3076 91.5512 67.8187C91.5023 66.9728 91.7142 66.1594 92.1381 65.4924C92.3989 65.0695 92.1381 64.2236 91.7305 64.191L67.457 65.59L66.055 41.4655C66.0224 41.0101 66.9516 40.7172 67.4081 40.9938C68.0927 41.4005 68.8915 41.6282 69.7392 41.5794C72.2334 41.433 74.0756 39.058 73.4235 36.504C73.0159 34.9261 71.6629 33.7223 70.0327 33.5271C68.8915 33.3807 67.8482 33.706 67.0331 34.3242C66.7071 34.5682 65.6475 34.4868 65.6149 34.0314L64.2129 9.90685L88.4702 8.50786C88.8777 8.41025 88.9592 7.45048 88.7147 7.1414C88.0952 6.3443 87.7692 5.28692 87.9159 4.1482C88.1115 2.52147 89.3178 1.17128 90.8991 0.764591C93.4585 0.113897 95.8386 1.95211 95.9853 4.44102C96.0342 5.28692 95.8223 6.10029 95.3985 6.76725C95.1376 7.1902 95.3985 8.0361 95.806 8.06864L120.014 6.66964L121.416 30.7941C121.449 31.2496 120.585 31.5262 120.145 31.2659C119.46 30.8592 118.661 30.6315 117.814 30.6803C115.319 30.8267 113.477 33.2017 114.129 35.7557C114.537 37.3336 115.89 38.5374 117.52 38.7326C118.661 38.879 119.705 38.5537 120.52 37.9355C120.846 37.6915 121.84 37.7728 121.873 38.2283L123.275 62.3528H123.242Z" fill="white" stroke="#07182B" stroke-width="0.75" stroke-miterlimit="10"/>
<path d="M79.6835 30.8102C80.8083 30.2246 82.4222 29.7854 84.2643 29.6878C86.1064 29.5902 87.7529 29.8179 88.943 30.2897C90.1819 30.7614 90.671 31.3796 90.6873 31.8351C90.7036 32.2906 90.296 32.9575 89.1223 33.5757C87.9975 34.1613 86.3836 34.6005 84.5415 34.6981C82.6993 34.7957 81.0528 34.568 79.8628 34.0962C78.6239 33.6245 78.1348 33.0063 78.1185 32.5508C78.0859 32.0791 78.5097 31.4284 79.6835 30.8102ZM90.8014 33.9498L90.8992 35.5766C90.9318 36.0483 90.508 36.699 89.3342 37.3172C88.2094 37.9028 86.5955 38.342 84.7534 38.4396C82.9113 38.5372 81.2648 38.3095 80.0747 37.8377C78.8358 37.366 78.3467 36.7478 78.3304 36.2923L78.2326 34.6656C78.5913 34.8933 78.9825 35.1048 79.4063 35.2512C80.792 35.788 82.6341 36.0483 84.6067 35.9344C86.5792 35.8206 88.3887 35.3488 89.6929 34.6656C90.0841 34.4704 90.459 34.2264 90.7851 33.9498H90.8014ZM91.9425 31.7537C91.8773 30.4849 90.7199 29.6227 89.3831 29.1022C87.9975 28.5653 86.1553 28.3051 84.1828 28.4189C82.2103 28.5328 80.4008 29.0046 79.0966 29.6878C77.8414 30.3547 76.798 31.3471 76.8633 32.6159L77.5153 43.9055C77.5805 45.1743 78.738 46.0365 80.0747 46.557C81.4604 47.0939 83.3025 47.3541 85.275 47.2403C87.2476 47.1264 89.0571 46.6546 90.3612 45.9714C91.6165 45.3045 92.6598 44.3121 92.5946 43.0433L91.9425 31.7537ZM91.0296 37.7076L91.1274 39.3343C91.16 39.8061 90.7362 40.4568 89.5624 41.0749C88.4376 41.6606 86.8237 42.0998 84.9816 42.1974C83.1395 42.295 81.493 42.0672 80.303 41.5955C79.064 41.1237 78.5749 40.5056 78.5586 40.0501L78.4608 38.4234C78.8195 38.6511 79.2107 38.8626 79.6346 39.009C81.0202 39.5458 82.8624 39.8061 84.8349 39.6922C86.8074 39.5783 88.6169 39.1066 89.9211 38.4234C90.3123 38.2281 90.6873 37.9841 91.0133 37.7076H91.0296ZM91.2415 41.4816L91.3394 43.1084C91.372 43.5801 90.9481 44.2308 89.7744 44.849C88.6495 45.4346 87.0356 45.8738 85.1935 45.9714C83.3514 46.069 81.7049 45.8413 80.5149 45.3695C79.2759 44.8978 78.7869 44.2796 78.7706 43.8241L78.6728 42.1974C79.0314 42.4251 79.4227 42.6366 79.8465 42.783C81.2322 43.3198 83.0743 43.5801 85.0468 43.4662C87.0193 43.3524 88.8289 42.8806 90.133 42.1974C90.5243 41.9859 90.8992 41.7419 91.2252 41.4816H91.2415Z" fill="#285E70"/>
<path d="M97.1425 17.9916C98.2673 17.406 99.8812 16.9668 101.723 16.8692C103.565 16.7716 105.212 16.9993 106.402 17.4711C107.641 17.9428 108.13 18.561 108.146 19.0165C108.163 19.472 107.755 20.1389 106.581 20.7571C105.456 21.3427 103.843 21.7819 102 21.8795C100.158 21.9771 98.5118 21.7494 97.3218 21.2776C96.0828 20.8059 95.5938 20.1877 95.5775 19.7322C95.5612 19.2767 95.9687 18.6098 97.1425 17.9916ZM108.277 21.1312L108.374 22.758C108.407 23.2297 107.983 23.8804 106.81 24.4986C105.685 25.0842 104.071 25.5234 102.229 25.621C100.387 25.7186 98.7401 25.4909 97.55 25.0191C96.3111 24.5474 95.822 23.9292 95.8057 23.4737L95.7079 21.847C96.0665 22.0747 96.4578 22.2862 96.8816 22.4326C98.2673 22.9694 100.109 23.2297 102.082 23.1158C104.054 23.002 105.864 22.5302 107.168 21.847C107.559 21.6518 107.918 21.4078 108.26 21.1312H108.277ZM109.402 18.9351C109.336 17.6663 108.179 16.8041 106.842 16.2836C105.456 15.7467 103.614 15.4865 101.642 15.6003C99.6693 15.7142 97.8598 16.1859 96.5556 16.8692C95.3003 17.5361 94.257 18.5284 94.3222 19.7973L94.9743 31.0869C95.0395 32.3557 96.197 33.2179 97.5337 33.7384C98.9194 34.2753 100.761 34.5355 102.734 34.4217C104.707 34.3078 106.516 33.836 107.82 33.1528C109.075 32.4858 110.119 31.4935 110.054 30.2247L109.402 18.9351ZM108.489 24.889L108.586 26.5157C108.619 26.9875 108.195 27.6382 107.021 28.2563C105.897 28.842 104.283 29.2812 102.441 29.3788C100.598 29.4764 98.952 29.2486 97.7619 28.7769C96.523 28.3051 96.0339 27.687 96.0176 27.2315L95.9198 25.6047C96.2785 25.8325 96.6697 26.044 97.0936 26.1904C98.4792 26.7272 100.321 26.9875 102.294 26.8736C104.266 26.7597 106.076 26.288 107.38 25.6047C107.771 25.4095 108.13 25.1655 108.472 24.889H108.489ZM108.701 28.6467L108.798 30.2735C108.831 30.7452 108.407 31.3959 107.233 32.0141C106.109 32.5997 104.495 33.0389 102.653 33.1365C100.81 33.2341 99.1639 33.0064 97.9739 32.5346C96.7349 32.0629 96.2459 31.4447 96.2296 30.9892L96.1318 29.3625C96.4904 29.5903 96.8816 29.8017 97.3055 29.9481C98.6911 30.485 100.533 30.7452 102.506 30.6314C104.478 30.5175 106.288 30.0457 107.592 29.3625C107.983 29.151 108.358 28.907 108.684 28.6467H108.701Z" fill="#285E70"/>
<path d="M97.1102 39.2367C98.2351 38.6511 99.849 38.2119 101.691 38.1143C103.533 38.0167 105.18 38.2444 106.37 38.7162C107.609 39.1879 108.098 39.8061 108.114 40.2616C108.13 40.7171 107.723 41.384 106.549 42.0022C105.424 42.5878 103.81 43.027 101.968 43.1246C100.126 43.2222 98.4796 42.9945 97.2896 42.5227C96.0506 42.051 95.5616 41.4328 95.5453 40.9774C95.529 40.5219 95.9365 39.8549 97.1102 39.2367ZM108.244 42.3763L108.342 44.0031C108.375 44.4748 107.951 45.1255 106.777 45.7437C105.652 46.3293 104.039 46.7685 102.196 46.8661C100.354 46.9637 98.7078 46.736 97.5178 46.2642C96.2788 45.7925 95.7898 45.1743 95.7735 44.7188L95.6757 43.0921C96.0343 43.3198 96.4256 43.5313 96.8494 43.6777C98.2351 44.2146 100.077 44.4748 102.05 44.361C104.022 44.2471 105.832 43.7753 107.136 43.0921C107.527 42.8969 107.902 42.6529 108.228 42.3763H108.244ZM109.369 40.1803C109.304 38.9114 108.147 38.0492 106.81 37.5287C105.424 36.9918 103.582 36.7316 101.61 36.8454C99.637 36.9593 97.8275 37.4311 96.5234 38.1143C95.2681 38.7813 94.2248 39.7736 94.29 41.0424L94.9421 52.332C95.0073 53.6008 96.1647 54.463 97.5015 54.9835C98.8872 55.5204 100.729 55.7807 102.702 55.6668C104.674 55.5529 106.484 55.0812 107.788 54.3979C109.043 53.731 110.087 52.7387 110.021 51.4698L109.369 40.1803ZM108.456 46.1341L108.554 47.7608C108.587 48.2326 108.163 48.8833 106.989 49.5014C105.864 50.0871 104.25 50.5263 102.408 50.6239C100.566 50.7215 98.9198 50.4938 97.7297 50.022C96.4908 49.5503 96.0017 48.9321 95.9854 48.4766L95.8876 46.8499C96.2462 47.0776 96.6375 47.2891 97.0613 47.4355C98.447 47.9723 100.289 48.2326 102.262 48.1187C104.234 48.0049 106.044 47.5331 107.348 46.8499C107.739 46.6547 108.114 46.4107 108.44 46.1341H108.456ZM108.685 49.9081L108.782 51.5349C108.815 52.0066 108.391 52.6573 107.217 53.2755C106.093 53.8611 104.479 54.3003 102.637 54.3979C100.794 54.4955 99.148 54.2678 97.9579 53.796C96.719 53.3243 96.2299 52.7061 96.2136 52.2506L96.1158 50.6239C96.4745 50.8516 96.8657 51.0631 97.2896 51.2095C98.6752 51.7463 100.517 52.0066 102.49 51.8928C104.462 51.7789 106.272 51.3071 107.576 50.6239C107.967 50.4124 108.342 50.1684 108.668 49.9081H108.685Z" fill="#285E70"/>
<path d="M385.133 27.4268L409.211 24.8403C409.618 24.7264 409.651 23.7667 409.39 23.4576C408.738 22.6768 408.347 21.6519 408.445 20.5132C408.559 18.8865 409.684 17.4712 411.248 16.9832C413.775 16.2023 416.237 17.9267 416.514 20.4156C416.612 21.2615 416.433 22.0749 416.041 22.7744C415.797 23.2136 416.09 24.0432 416.514 24.0595L440.69 21.4567L443.282 45.4836C443.331 45.9391 442.418 46.2644 441.961 46.0204C441.26 45.6463 440.445 45.4673 439.598 45.5487C437.103 45.8089 435.392 48.2816 436.158 50.803C436.647 52.3647 438.049 53.4871 439.695 53.601C440.836 53.6824 441.88 53.3082 442.646 52.6575C442.956 52.3972 444.032 52.4298 444.081 52.869L446.673 76.8959L422.529 79.4987C422.122 79.6125 422.089 80.5886 422.35 80.8814C423.002 81.6622 423.393 82.6871 423.296 83.8258C423.182 85.4525 422.057 86.8678 420.492 87.3558C417.965 88.1366 415.503 86.4123 415.226 83.9234C415.128 83.0775 415.308 82.2641 415.699 81.5646C415.943 81.1254 415.65 80.2958 415.226 80.2795L391.116 82.866L388.524 58.8391C388.475 58.3836 389.306 58.0583 389.779 58.3186C390.48 58.6927 391.295 58.8716 392.143 58.7903C394.637 58.53 396.349 56.0574 395.582 53.5359C395.093 51.9743 393.691 50.8518 392.045 50.738C390.904 50.6566 389.86 51.0308 389.094 51.6815C388.784 51.9417 387.774 51.9092 387.725 51.4537L385.133 27.4268Z" fill="white" stroke="#07182B" stroke-width="0.75" stroke-miterlimit="10"/>
<path d="M432.131 65.8014L402.967 68.941C401.549 69.0874 400.261 68.0626 400.114 66.6473L397.392 41.3841C397.245 39.9688 398.272 38.7 399.69 38.5373L428.855 35.3977C430.273 35.2513 431.561 36.2761 431.707 37.6914L434.43 62.9546C434.577 64.3699 433.55 65.655 432.131 65.8014ZM399.805 39.5622C398.957 39.6598 398.337 40.4243 398.435 41.2702L401.158 66.5334C401.255 67.3793 402.022 67.9975 402.869 67.8999L432.033 64.7603C432.881 64.6627 433.501 63.8981 433.403 63.0522L430.68 37.789C430.583 36.9431 429.816 36.3249 428.969 36.4226L399.805 39.5622Z" fill="#2E6C59" stroke="#2E6C59" stroke-width="0.39" stroke-miterlimit="10"/>
<path d="M428.887 41.405L398.286 44.6953L398.398 45.7304L428.999 42.4401L428.887 41.405Z" fill="#2E6C59" stroke="#2E6C59" stroke-width="0.39" stroke-miterlimit="10"/>
<path d="M427.297 38.568L426.405 38.6638L426.517 39.6989L427.408 39.6031L427.297 38.568Z" fill="#2E6C59" stroke="#2E6C59" stroke-width="0.39" stroke-miterlimit="10"/>
<path d="M423.788 38.9404L422.848 39.0415L422.959 40.0766L423.899 39.9755L423.788 38.9404Z" fill="#2E6C59" stroke="#2E6C59" stroke-width="0.39" stroke-miterlimit="10"/>
<path d="M420.229 39.3181L419.289 39.4192L419.401 40.4543L420.341 40.3532L420.229 39.3181Z" fill="#2E6C59" stroke="#2E6C59" stroke-width="0.39" stroke-miterlimit="10"/>
<path d="M416.518 48.3287L414.953 61.9038L415.99 62.0227L417.554 48.4476L416.518 48.3287Z" fill="#2E6C59" stroke="#2E6C59" stroke-width="0.39" stroke-miterlimit="10"/>
<path d="M422.432 59.2457L421.665 58.5462L425.757 54.1702L420.834 50.7704L421.421 49.9082L427.338 53.9913L422.432 59.2457Z" fill="#2E6C59" stroke="#2E6C59" stroke-width="0.39" stroke-miterlimit="10"/>
<path d="M411.069 60.4656L405.151 56.3825L410.058 51.1282L410.824 51.8439L406.733 56.2199L411.656 59.6197L411.069 60.4656Z" fill="#2E6C59" stroke="#2E6C59" stroke-width="0.39" stroke-miterlimit="10"/>
<path d="M385.41 150.782L361.691 155.662C361.3 155.809 361.365 156.785 361.642 157.061C362.376 157.761 362.848 158.753 362.865 159.908C362.897 161.535 361.919 163.064 360.403 163.682C357.958 164.691 355.333 163.227 354.828 160.77C354.648 159.941 354.763 159.111 355.072 158.379C355.268 157.907 354.893 157.126 354.469 157.143L330.652 162.055L325.761 138.386C325.664 137.947 326.544 137.524 327.033 137.736C327.767 138.045 328.598 138.142 329.429 137.98C331.875 137.475 333.358 134.856 332.347 132.416C331.712 130.903 330.196 129.927 328.565 129.96C327.408 129.992 326.43 130.464 325.713 131.18C325.419 131.473 324.359 131.538 324.262 131.099L319.371 107.43L343.156 102.533C343.547 102.387 343.482 101.411 343.204 101.134C342.471 100.435 341.998 99.4423 341.982 98.2874C341.949 96.6606 342.927 95.1315 344.443 94.5133C346.889 93.5048 349.513 94.9688 350.019 97.4252C350.198 98.2548 350.084 99.0845 349.774 99.8165C349.579 100.288 349.953 101.069 350.377 101.053L374.129 96.1563L379.02 119.825C379.118 120.265 378.303 120.671 377.83 120.476C377.096 120.167 376.265 120.069 375.433 120.232C372.988 120.736 371.505 123.355 372.515 125.795C373.151 127.308 374.667 128.284 376.297 128.252C377.455 128.219 378.433 127.748 379.15 127.032C379.444 126.739 380.438 126.69 380.536 127.129L385.426 150.798L385.41 150.782Z" fill="white" stroke="#07182B" stroke-width="0.75" stroke-miterlimit="10"/>
<path d="M370.575 139.135C370.575 139.135 372.776 138.679 372.319 136.483C371.863 134.287 368.293 128.122 359.457 129.944C350.622 131.766 349.79 138.826 350.247 141.038C350.703 143.25 352.904 142.779 352.904 142.779L370.575 139.135ZM352.513 140.566H352.464C352.35 139.981 352.366 138.224 353.36 136.434C354.29 134.759 356.132 132.937 359.93 132.156C363.728 131.375 366.157 132.319 367.673 133.49C369.304 134.743 370.005 136.353 370.135 136.939H370.119L370.086 136.955L352.513 140.566ZM358.561 125.535C361.006 125.031 362.571 122.656 362.066 120.216C361.56 117.776 359.18 116.214 356.735 116.718C354.29 117.223 352.725 119.598 353.23 122.038C353.735 124.478 356.115 126.04 358.561 125.535ZM364.266 119.76C365.016 123.404 362.669 126.983 359.017 127.731C355.365 128.48 351.779 126.137 351.029 122.493C350.279 118.849 352.627 115.271 356.278 114.522C359.93 113.774 363.516 116.116 364.266 119.76ZM350.622 132.4C349.676 132.303 348.731 132.319 347.785 132.4C347.263 132.449 346.725 132.547 346.204 132.644C337.368 134.466 336.537 141.526 336.993 143.738C337.303 145.203 338.183 145.788 339.65 145.479L348.959 143.56C348.486 142.941 348.176 142.226 348.03 141.461C347.573 139.232 347.932 136.792 349.106 134.564C349.513 133.799 350.002 133.067 350.605 132.384M346.497 134.905C345.601 137.134 345.372 139.574 345.829 141.933L339.21 143.299C339.096 142.73 339.096 140.957 340.107 139.151C341.02 137.508 342.829 135.702 346.497 134.905ZM336.895 126.56C336.145 122.916 338.493 119.337 342.145 118.589C345.796 117.841 349.383 120.183 350.133 123.827C350.882 127.471 348.535 131.05 344.883 131.798C341.232 132.547 337.645 130.204 336.895 126.56ZM342.617 120.785C340.172 121.29 338.607 123.665 339.112 126.105C339.618 128.545 341.998 130.106 344.443 129.602C346.888 129.098 348.453 126.723 347.948 124.283C347.443 121.843 345.063 120.281 342.617 120.785Z" fill="#2E6C59"/>
<path d="M510.299 140.696L486.384 144.568C485.993 144.698 486.01 145.674 486.287 145.967C486.988 146.699 487.412 147.708 487.395 148.863C487.363 150.489 486.319 151.97 484.771 152.539C482.293 153.45 479.733 151.872 479.326 149.399C479.195 148.554 479.326 147.74 479.668 147.024C479.88 146.569 479.554 145.756 479.13 145.772L455.117 149.66L451.238 125.812C451.172 125.373 452.053 124.982 452.525 125.21C453.243 125.551 454.074 125.682 454.905 125.551C457.383 125.145 458.965 122.591 458.052 120.118C457.481 118.589 456.014 117.532 454.368 117.499C453.21 117.483 452.199 117.906 451.466 118.605C451.172 118.882 450.096 118.914 450.031 118.459L446.151 94.6109L470.132 90.723C470.523 90.5929 470.506 89.6169 470.229 89.324C469.528 88.592 469.104 87.5834 469.121 86.4285C469.153 84.8017 470.197 83.3214 471.745 82.752C474.223 81.8411 476.783 83.419 477.19 85.8916C477.321 86.7375 477.19 87.5509 476.848 88.2667C476.636 88.7221 476.962 89.5355 477.386 89.5193L501.317 85.6476L505.197 109.496C505.262 109.935 504.447 110.309 503.974 110.081C503.257 109.74 502.426 109.609 501.594 109.74C499.116 110.146 497.535 112.7 498.448 115.173C499.019 116.702 500.486 117.759 502.132 117.792C503.29 117.808 504.3 117.385 505.034 116.686C505.327 116.409 506.338 116.393 506.403 116.832L510.283 140.68L510.299 140.696Z" fill="white" stroke="#07182B" stroke-width="0.75" stroke-miterlimit="10"/>
<path d="M488.048 109.089C487.445 109.691 486.776 110.244 486.059 110.716C483.646 112.326 480.239 113.595 476.424 114.213C472.61 114.831 468.974 114.701 466.187 113.937C465.355 113.709 464.557 113.416 463.79 113.026L464.296 116.181C464.443 117.092 465.502 118.166 468.013 118.833C470.393 119.484 473.669 119.63 477.207 119.044C478.821 118.784 480.337 118.394 481.69 117.922C480.777 118.849 480.011 119.923 479.457 121.094C478.837 121.241 478.218 121.354 477.582 121.452C473.767 122.07 470.132 121.94 467.344 121.175C466.513 120.948 465.714 120.655 464.948 120.265L465.453 123.42C465.6 124.331 466.66 125.405 469.17 126.072C471.55 126.723 474.827 126.869 478.364 126.283H478.43C478.462 126.934 478.56 127.585 478.707 128.219C478.707 128.382 478.739 128.545 478.756 128.707C474.941 129.325 471.306 129.195 468.518 128.431C467.687 128.203 466.888 127.91 466.122 127.52L466.627 130.676C466.774 131.587 467.833 132.66 470.344 133.327C472.724 133.978 476.001 134.124 479.538 133.539C479.685 134.417 480.043 135.198 480.581 135.849C480.369 135.897 480.158 135.93 479.929 135.963C476.115 136.581 472.479 136.451 469.692 135.686C467.018 134.954 464.589 133.49 464.198 131.05L460.66 109.268C460.269 106.828 462.095 104.68 464.41 103.135C466.823 101.525 470.23 100.256 474.044 99.6375C477.859 99.0194 481.494 99.1495 484.282 99.9141C486.955 100.646 489.384 102.11 489.776 104.55L491.455 114.847C490.02 114.587 488.537 114.62 487.102 114.929C488.276 113.855 488.651 112.895 488.537 112.196L488.031 109.04L488.048 109.089ZM465.812 105.217C463.644 106.649 462.992 107.999 463.138 108.91C463.285 109.821 464.345 110.895 466.855 111.561C469.235 112.212 472.512 112.359 476.049 111.773C479.587 111.187 482.652 110.032 484.706 108.666C486.874 107.234 487.526 105.868 487.379 104.973C487.233 104.079 486.173 102.989 483.662 102.322C481.282 101.671 478.006 101.525 474.468 102.11C470.931 102.696 467.866 103.851 465.812 105.217Z" fill="#2E6C59"/>
<path d="M481.217 128.333C481.119 127.699 481.266 127.032 481.641 126.511C482.016 125.991 482.603 125.633 483.238 125.519L482.847 123.095C482.635 121.81 482.945 120.492 483.711 119.435C484.477 118.378 485.618 117.678 486.906 117.467C488.194 117.255 489.515 117.564 490.574 118.329C491.634 119.093 492.335 120.232 492.547 121.517L492.938 123.941C493.574 123.843 494.242 123.99 494.764 124.364C495.286 124.738 495.644 125.324 495.758 125.958L496.541 130.806C496.639 131.44 496.492 132.107 496.117 132.628C495.742 133.148 495.155 133.506 494.519 133.62L484.82 135.198C484.184 135.296 483.516 135.149 482.994 134.775C482.472 134.401 482.114 133.815 481.999 133.181L481.217 128.333ZM487.314 119.89C486.678 119.988 486.091 120.346 485.716 120.883C485.341 121.42 485.178 122.07 485.292 122.705L485.684 125.129L490.542 124.348L490.15 121.924C490.053 121.289 489.694 120.704 489.156 120.33C488.618 119.956 487.966 119.793 487.33 119.907L487.314 119.89Z" fill="#2E6C59"/>
<path d="M384.546 143.592L386.16 119.484C386.127 119.061 385.165 118.866 384.823 119.077C383.943 119.598 382.867 119.777 381.742 119.5C380.161 119.093 378.954 117.743 378.759 116.133C378.433 113.514 380.552 111.383 383.046 111.545C383.894 111.61 384.676 111.919 385.296 112.408C385.687 112.717 386.551 112.57 386.649 112.164L388.279 87.9414L412.439 89.5519C412.895 89.5844 413.058 90.5279 412.732 90.9509C412.243 91.569 411.917 92.3499 411.868 93.1958C411.705 95.6847 413.841 97.7994 416.465 97.4741C418.095 97.2789 419.448 96.0751 419.84 94.4972C420.117 93.391 419.937 92.3011 419.416 91.4226C419.204 91.0647 419.416 90.0236 419.872 90.0562L444.032 91.6666L442.402 115.856C442.434 116.279 443.396 116.474 443.738 116.263C444.619 115.742 445.695 115.563 446.819 115.84C448.401 116.247 449.607 117.597 449.803 119.207C450.129 121.826 448.009 123.957 445.515 123.795C444.668 123.73 443.885 123.421 443.266 122.933C442.874 122.623 442.01 122.77 441.912 123.177L440.299 147.317L416.139 145.707C415.683 145.674 415.503 144.796 415.829 144.389C416.318 143.771 416.645 142.99 416.693 142.144C416.856 139.655 414.721 137.541 412.096 137.866C410.466 138.061 409.113 139.265 408.722 140.843C408.445 141.949 408.624 143.039 409.146 143.917C409.358 144.275 409.146 145.251 408.689 145.219L384.53 143.608L384.546 143.592Z" fill="white" stroke="#07182B" stroke-width="0.75" stroke-miterlimit="10"/>
<path d="M414.64 132.091L425.611 132.823C430.355 133.148 434.528 129.667 434.854 124.966C435.148 120.688 432.115 116.995 427.991 116.116C427.812 109.333 422.302 103.721 415.259 103.249C411.803 103.021 408.38 104.046 405.608 106.128C403.489 107.722 401.875 109.87 401.354 112.098C396.903 112.765 393.333 116.36 393.023 120.98C392.665 126.332 396.854 130.903 402.283 131.261L412.015 131.912L414.64 132.091Z" stroke="#2E6C59" stroke-width="0.78" stroke-miterlimit="10"/>
<path d="M412.684 117.532C412.39 117.516 412.129 117.743 412.113 118.036L411.901 121.257C411.885 121.55 412.113 121.81 412.407 121.826L415.634 122.038C415.928 122.054 416.189 121.826 416.205 121.534L416.417 118.313C416.433 118.02 416.205 117.76 415.911 117.743L412.684 117.532Z" fill="#2E6C59"/>
<path d="M411.999 111.562C412.015 111.269 411.787 111.009 411.494 110.992C411.2 110.976 410.939 111.204 410.923 111.497L410.809 113.107C409.325 113.009 408.038 114.132 407.94 115.612L406.326 115.498C406.032 115.482 405.772 115.71 405.755 116.003C405.739 116.295 405.967 116.556 406.261 116.572L407.875 116.686L407.809 117.759L406.195 117.646C405.902 117.629 405.641 117.857 405.625 118.15C405.609 118.443 405.837 118.703 406.13 118.719L407.744 118.833L407.679 119.907L406.065 119.793C405.772 119.777 405.511 120.004 405.495 120.297C405.478 120.59 405.706 120.85 406 120.867L407.614 120.98L407.549 122.054L405.935 121.94C405.641 121.924 405.38 122.152 405.364 122.444C405.348 122.737 405.576 122.998 405.869 123.014L407.483 123.128C407.386 124.608 408.51 125.893 409.994 125.991L409.88 127.601C409.863 127.894 410.092 128.154 410.385 128.171C410.679 128.187 410.939 127.959 410.956 127.666L411.07 126.056L412.146 126.121L412.032 127.731C412.015 128.024 412.244 128.284 412.537 128.301C412.83 128.317 413.091 128.089 413.108 127.796L413.222 126.186L414.298 126.251L414.183 127.862C414.167 128.154 414.395 128.415 414.689 128.431C414.982 128.447 415.243 128.219 415.259 127.927L415.373 126.316L416.449 126.381L416.335 127.992C416.319 128.284 416.547 128.545 416.841 128.561C417.134 128.577 417.395 128.35 417.411 128.057L417.525 126.446C419.009 126.544 420.297 125.421 420.394 123.941L422.008 124.055C422.302 124.071 422.563 123.843 422.579 123.551C422.595 123.258 422.367 122.998 422.074 122.981L420.46 122.867L420.525 121.794L422.139 121.908C422.432 121.924 422.693 121.696 422.709 121.403C422.726 121.111 422.497 120.85 422.204 120.834L420.59 120.72L420.655 119.647L422.269 119.76C422.563 119.777 422.823 119.549 422.84 119.256C422.856 118.963 422.628 118.703 422.334 118.687L420.72 118.573L420.786 117.499L422.4 117.613C422.693 117.629 422.954 117.402 422.97 117.109C422.986 116.816 422.758 116.556 422.465 116.539L420.851 116.426C420.949 114.945 419.824 113.66 418.34 113.563L418.455 111.952C418.471 111.659 418.243 111.399 417.949 111.383C417.656 111.366 417.395 111.594 417.379 111.887L417.265 113.497L416.189 113.432L416.303 111.822C416.319 111.529 416.091 111.269 415.797 111.253C415.504 111.236 415.243 111.464 415.227 111.757L415.113 113.367L414.037 113.302L414.151 111.692C414.167 111.399 413.939 111.139 413.645 111.122C413.352 111.106 413.091 111.334 413.075 111.627L412.961 113.237L411.885 113.172L411.999 111.562ZM412.749 116.458L415.977 116.67C416.873 116.735 417.542 117.499 417.476 118.378L417.265 121.599C417.199 122.493 416.433 123.16 415.553 123.095L412.325 122.884C411.428 122.819 410.76 122.054 410.825 121.176L411.037 117.955C411.102 117.06 411.869 116.393 412.749 116.458Z" fill="#2E6C59"/>
<path d="M437.886 214.811L413.889 211.573C413.465 211.573 413.205 212.517 413.384 212.875C413.84 213.786 413.955 214.876 413.596 215.966C413.091 217.527 411.656 218.617 410.026 218.715C407.385 218.861 405.396 216.6 405.738 214.127C405.852 213.281 406.227 212.533 406.765 211.947C407.108 211.573 407.01 210.711 406.619 210.581L382.524 207.328L385.769 183.382C385.834 182.927 386.796 182.829 387.187 183.187C387.774 183.724 388.524 184.082 389.371 184.212C391.849 184.553 394.115 182.569 393.968 179.933C393.871 178.307 392.778 176.875 391.213 176.371C390.121 176.013 389.029 176.127 388.116 176.582C387.741 176.761 386.714 176.468 386.779 176.029L390.023 152.084L414.101 155.337C414.525 155.337 414.786 154.394 414.607 154.036C414.15 153.125 414.036 152.035 414.395 150.945C414.9 149.383 416.335 148.293 417.965 148.196C420.606 148.049 422.595 150.31 422.252 152.783C422.138 153.629 421.763 154.377 421.225 154.963C420.883 155.337 420.981 156.199 421.372 156.329L445.401 159.583L442.157 183.528C442.092 183.984 441.195 184.098 440.82 183.74C440.233 183.203 439.483 182.845 438.636 182.715C436.158 182.373 433.892 184.358 434.038 186.993C434.136 188.62 435.229 190.052 436.794 190.556C437.886 190.914 438.978 190.8 439.891 190.344C440.266 190.166 441.228 190.442 441.162 190.898L437.918 214.843L437.886 214.811Z" fill="white" stroke="#07182B" stroke-width="0.75" stroke-miterlimit="10"/>
<path d="M401.158 175.541C402.364 175.183 404.043 175.053 405.869 175.313C407.695 175.574 409.276 176.11 410.352 176.794C411.477 177.493 411.835 178.193 411.77 178.648C411.705 179.104 411.183 179.673 409.912 180.063C408.705 180.421 407.026 180.551 405.2 180.291C403.375 180.031 401.793 179.494 400.717 178.811C399.593 178.111 399.234 177.412 399.299 176.956C399.364 176.485 399.886 175.932 401.158 175.541ZM411.477 180.747L411.265 182.373C411.2 182.845 410.678 183.398 409.406 183.789C408.2 184.147 406.521 184.277 404.695 184.016C402.869 183.756 401.288 183.219 400.212 182.536C399.087 181.837 398.729 181.137 398.794 180.682L399.006 179.055C399.315 179.348 399.658 179.624 400.049 179.868C401.304 180.649 403.065 181.267 405.021 181.528C406.977 181.788 408.836 181.674 410.254 181.251C410.678 181.121 411.085 180.958 411.477 180.747ZM413.009 178.811C413.172 177.558 412.21 176.485 411.004 175.72C409.749 174.939 407.988 174.321 406.032 174.061C404.076 173.801 402.217 173.914 400.799 174.337C399.43 174.744 398.223 175.525 398.044 176.777L396.528 187.969C396.365 189.222 397.327 190.296 398.533 191.06C399.788 191.841 401.549 192.459 403.505 192.719C405.461 192.98 407.32 192.866 408.738 192.443C410.107 192.036 411.314 191.255 411.493 190.003L413.009 178.811ZM410.971 184.488L410.759 186.115C410.694 186.587 410.173 187.14 408.901 187.53C407.695 187.888 406.016 188.018 404.19 187.758C402.364 187.498 400.783 186.961 399.707 186.278C398.582 185.578 398.223 184.879 398.288 184.423L398.5 182.796C398.81 183.089 399.152 183.366 399.544 183.61C400.799 184.391 402.56 185.009 404.516 185.269C406.472 185.529 408.33 185.415 409.749 184.992C410.173 184.862 410.58 184.7 410.971 184.488ZM410.466 188.213L410.254 189.84C410.189 190.312 409.667 190.865 408.396 191.255C407.189 191.613 405.51 191.743 403.684 191.483C401.859 191.223 400.277 190.686 399.201 190.003C398.077 189.303 397.718 188.604 397.783 188.148L397.995 186.522C398.305 186.814 398.647 187.091 399.038 187.335C400.294 188.116 402.054 188.734 404.01 188.994C405.967 189.255 407.825 189.141 409.243 188.718C409.667 188.588 410.091 188.425 410.466 188.213Z" fill="#285E70"/>
<path d="M420.752 166.285C421.959 165.927 423.638 165.797 425.464 166.057C427.289 166.318 428.871 166.854 429.947 167.538C431.071 168.237 431.43 168.937 431.365 169.392C431.3 169.848 430.778 170.417 429.506 170.807C428.3 171.165 426.621 171.295 424.795 171.035C422.969 170.775 421.388 170.238 420.312 169.555C419.187 168.855 418.829 168.156 418.894 167.7C418.959 167.245 419.481 166.675 420.752 166.285ZM431.071 171.491L430.859 173.117C430.794 173.589 430.273 174.142 429.001 174.533C427.795 174.89 426.116 175.021 424.29 174.76C422.464 174.5 420.883 173.963 419.807 173.28C418.682 172.58 418.323 171.881 418.389 171.425L418.6 169.799C418.91 170.092 419.253 170.368 419.644 170.612C420.899 171.393 422.66 172.011 424.616 172.271C426.572 172.532 428.431 172.418 429.849 171.995C430.273 171.865 430.68 171.702 431.071 171.491ZM432.604 169.555C432.767 168.302 431.805 167.229 430.599 166.464C429.343 165.683 427.583 165.065 425.627 164.805C423.67 164.544 421.812 164.658 420.394 165.081C419.024 165.488 417.818 166.269 417.639 167.521L416.123 178.713C415.96 179.966 416.921 181.04 418.128 181.804C419.383 182.585 421.144 183.203 423.1 183.463C425.056 183.724 426.914 183.61 428.333 183.187C429.702 182.78 430.908 181.999 431.088 180.747L432.604 169.555ZM430.566 175.232L430.354 176.859C430.289 177.331 429.767 177.884 428.496 178.274C427.289 178.632 425.61 178.762 423.784 178.502C421.959 178.242 420.377 177.705 419.301 177.021C418.177 176.322 417.818 175.622 417.883 175.167L418.095 173.54C418.405 173.833 418.747 174.11 419.138 174.354C420.394 175.134 422.154 175.753 424.111 176.013C426.067 176.273 427.925 176.159 429.343 175.736C429.767 175.606 430.175 175.444 430.566 175.232ZM430.061 178.957L429.849 180.584C429.784 181.056 429.262 181.609 427.99 181.999C426.784 182.357 425.105 182.487 423.279 182.227C421.453 181.967 419.872 181.43 418.796 180.747C417.671 180.047 417.313 179.348 417.378 178.892L417.59 177.265C417.899 177.558 418.242 177.835 418.633 178.079C419.888 178.86 421.649 179.478 423.605 179.738C425.561 179.998 427.42 179.885 428.838 179.462C429.262 179.331 429.686 179.169 430.061 178.957Z" fill="#285E70"/>
<path d="M416.661 187.14C417.867 186.782 419.546 186.652 421.372 186.912C423.198 187.172 424.779 187.709 425.855 188.392C426.98 189.092 427.338 189.791 427.273 190.247C427.208 190.702 426.686 191.272 425.415 191.662C424.208 192.02 422.529 192.15 420.703 191.89C418.878 191.629 417.296 191.093 416.22 190.409C415.096 189.71 414.737 189.01 414.802 188.555C414.867 188.099 415.389 187.53 416.661 187.14ZM426.98 192.345L426.768 193.972C426.703 194.444 426.181 194.997 424.909 195.387C423.703 195.745 422.024 195.875 420.198 195.615C418.372 195.355 416.791 194.818 415.715 194.135C414.59 193.435 414.232 192.736 414.297 192.28L414.509 190.653C414.818 190.946 415.161 191.223 415.552 191.467C416.807 192.248 418.568 192.866 420.524 193.126C422.48 193.386 424.339 193.272 425.757 192.85C426.181 192.719 426.588 192.557 426.98 192.345ZM428.512 190.393C428.675 189.141 427.713 188.067 426.507 187.302C425.252 186.521 423.491 185.903 421.535 185.643C419.579 185.383 417.72 185.497 416.302 185.92C414.932 186.326 413.726 187.107 413.547 188.36L412.031 199.552C411.868 200.804 412.83 201.878 414.036 202.642C415.291 203.423 417.052 204.041 419.008 204.302C420.964 204.562 422.823 204.448 424.241 204.025C425.61 203.618 426.817 202.838 426.996 201.585L428.512 190.393ZM426.474 196.07L426.262 197.697C426.197 198.169 425.675 198.722 424.404 199.112C423.198 199.47 421.519 199.6 419.693 199.34C417.867 199.08 416.286 198.543 415.21 197.86C414.085 197.16 413.726 196.461 413.791 196.005L414.003 194.379C414.313 194.671 414.655 194.948 415.047 195.192C416.302 195.973 418.062 196.591 420.019 196.851C421.975 197.112 423.833 196.998 425.252 196.575C425.675 196.445 426.083 196.282 426.474 196.07ZM425.969 199.812L425.757 201.439C425.692 201.91 425.17 202.464 423.899 202.854C422.692 203.212 421.013 203.342 419.187 203.082C417.362 202.821 415.78 202.285 414.704 201.601C413.579 200.902 413.221 200.202 413.286 199.747L413.498 198.12C413.808 198.413 414.15 198.689 414.541 198.933C415.796 199.714 417.557 200.332 419.513 200.593C421.47 200.853 423.328 200.739 424.746 200.316C425.17 200.186 425.594 200.023 425.969 199.812Z" fill="#285E70"/>
</g>
<defs>
<clipPath id="clip0_345_4821">
<rect width="511" height="349" fill="white"/>
</clipPath>
</defs>
</svg>
