<svg width="123" height="122" viewBox="0 0 123 122" fill="none" xmlns="http://www.w3.org/2000/svg">
<path d="M61.8218 121.782C95.5201 121.782 122.832 94.7009 122.832 61.2802C122.832 27.8595 95.5201 0.798828 61.8218 0.798828C28.1234 0.798828 0.832031 27.8801 0.832031 61.3008C0.832031 94.7215 28.1439 121.803 61.8218 121.803V121.782Z" fill="#006E58"/>
<g clip-path="url(#clip0_457_68)">
<path d="M77.0428 50.9779H73.3933C73.3257 50.9779 73.168 51.0011 73.1117 51.0474C72.4696 51.5223 72.3457 52.2056 72.7737 53.0163C72.7963 53.051 72.8188 53.0858 72.8526 53.1205C73.4608 53.6417 73.8213 54.4061 73.8213 55.2284C73.8213 56.734 72.6386 57.95 71.1743 57.95C69.71 57.95 68.5272 56.734 68.5272 55.2284C68.5272 54.4871 68.8201 53.7807 69.3382 53.2711C69.3495 53.2595 69.3608 53.2363 69.372 53.2248C69.6536 52.8889 69.8113 52.5067 69.8113 52.1361C69.8113 51.835 69.7099 51.4065 69.2369 51.059C69.1805 51.0127 68.9665 50.9895 68.8989 50.9895H62.839C62.6587 50.9895 62.501 50.839 62.501 50.6421V44.0406C62.501 43.9827 62.5123 43.9132 62.5461 43.8669C62.8052 43.4268 63.1881 43.1836 63.6387 43.1836C63.9991 43.1836 64.3934 43.3457 64.7088 43.6352C64.72 43.6468 64.7426 43.6584 64.7538 43.6816C65.2607 44.2259 65.9365 44.5154 66.6574 44.5154C68.1217 44.5154 69.3044 43.2994 69.3044 41.7938C69.3044 40.2882 68.1217 39.0721 66.6574 39.0721C65.869 39.0721 65.1143 39.4311 64.6074 40.0681C64.5849 40.1029 64.5511 40.126 64.506 40.1492C64.2019 40.3229 63.909 40.404 63.6387 40.404C63.3233 40.404 62.8728 40.2766 62.5236 39.6975C62.4898 39.6396 62.4785 39.5817 62.4785 39.5238V33.2234C62.4785 33.0265 62.6249 32.876 62.8164 32.876H79.8587C80.039 32.876 80.1967 33.0265 80.1967 33.2234V46.1832" stroke="#DCE7E5" stroke-width="1.8" stroke-linecap="round" stroke-linejoin="round"/>
<path d="M93.173 42.3848L84.5786 48.1409L78.0005 45.2687C76.615 44.7127 75.0493 45.2223 74.4298 46.6005C73.968 47.6081 74.1595 48.7547 74.8128 49.5538C75.0606 49.8549 75.3647 50.0982 75.7364 50.2719L83.8802 53.8274C84.4547 54.0822 85.108 54.0822 85.6937 53.8274C87.7776 52.8777 91.4383 50.5151 91.4383 50.5151L91.382 63.3938C91.596 63.6486 87.5072 75.925 87.4396 76.3419L85.7951 87.6455C85.5248 89.1511 86.4935 90.5872 87.9465 90.8652C88.1831 90.9115 88.4083 90.9231 88.6336 90.8999C89.8276 90.8073 90.8526 89.9039 91.0891 88.6415L92.621 77.9634L96.3494 67.262C96.3494 67.262 96.8675 77.1411 96.9126 77.4306L98.6698 88.63C98.8613 89.8808 99.8525 90.8073 101.024 90.9347C101.531 90.9926 102.083 90.8999 102.601 90.6336C103.648 90.0777 104.155 88.8268 103.975 87.6224L102.308 76.9673L102.409 65.2816C102.499 64.4477 100.348 44.7475 100.348 44.7475C100.044 42.6628 97.7574 41.9795 97.7574 41.9795" stroke="#DCE7E5" stroke-width="1.8" stroke-linecap="round" stroke-linejoin="round"/>
<path d="M100.382 37.3584C100.382 40.2885 98.0619 42.6743 95.2121 42.6743C92.3624 42.6743 90.042 40.2885 90.042 37.3584C90.042 34.4283 92.3624 32.0425 95.2121 32.0425C98.0619 32.0425 100.382 34.4283 100.382 37.3584Z" stroke="#DCE7E5" stroke-width="1.8" stroke-linecap="round" stroke-linejoin="round"/>
<path d="M90.0416 44.3882L85.4121 43.9828L80.7939 41.5854" stroke="#DCE7E5" stroke-width="1.8" stroke-linecap="round" stroke-linejoin="round"/>
<path d="M34.229 43.4501C33.9474 43.4038 33.6658 43.3343 33.3955 43.2416C32.1227 42.8015 31.0976 41.8866 30.5006 40.6474C29.9037 39.4197 29.8135 38.0184 30.2416 36.7096C31.1202 34.0227 33.9699 32.5634 36.5832 33.4668C37.856 33.9069 38.881 34.8218 39.478 36.0611C40.075 37.2887 40.1651 38.6901 39.7371 39.9988C38.9486 42.4078 36.5944 43.8207 34.229 43.4501Z" stroke="#DCE7E5" stroke-width="1.8" stroke-linecap="round" stroke-linejoin="round"/>
<path d="M29.5996 50.6193L30.3092 55.4488C30.4782 56.2711 30.9851 56.9776 31.706 57.3829L40.3229 62.6641C40.6045 62.8147 40.8973 62.9189 41.2014 62.9652C42.3278 63.1506 43.488 62.5946 44.0625 61.506C44.7834 60.1278 44.2878 58.4021 42.9474 57.6609L35.4681 53.0167L34.6008 48.3262" stroke="#DCE7E5" stroke-width="1.8" stroke-linecap="round" stroke-linejoin="round"/>
<path d="M40.334 52.0207L38.0362 49.6928L37.0787 46.531C36.5944 45.2802 35.5919 43.9831 34.4092 43.4619" stroke="#DCE7E5" stroke-width="1.8" stroke-linecap="round" stroke-linejoin="round"/>
<path d="M77.4257 70.493H70.0028C69.9239 70.493 69.755 70.5162 69.6986 70.5625C69.0115 71.0837 68.8651 71.8133 69.3382 72.6935C69.3607 72.7398 69.3945 72.7746 69.4283 72.8093C70.0929 73.3768 70.4758 74.2107 70.4758 75.0909C70.4758 76.7239 69.1805 78.0442 67.6035 78.0442C66.0266 78.0442 64.7312 76.7123 64.7312 75.0909C64.7312 74.2802 65.0466 73.5274 65.6211 72.9599C65.6324 72.9483 65.6549 72.9251 65.6662 72.9136C65.9703 72.5545 66.1505 72.1376 66.1505 71.7322C66.1505 71.408 66.0379 70.9447 65.531 70.5625C65.4747 70.5162 65.2381 70.493 65.1593 70.493H58.5811C58.3784 70.493 58.2207 70.3193 58.2207 70.1224V62.9534C58.2207 62.884 58.2432 62.8145 58.277 62.7566C58.5586 62.2817 58.9754 62.0153 59.471 62.0153C59.8652 62.0153 60.2933 62.1891 60.6312 62.5133C60.6537 62.5249 60.665 62.5365 60.6762 62.5597C61.2282 63.1503 61.9603 63.4746 62.7488 63.4746C64.337 63.4746 65.6211 62.1427 65.6211 60.5213C65.6211 58.8999 64.3257 57.568 62.7488 57.568C61.8815 57.568 61.0817 57.9618 60.5298 58.6451C60.496 58.6798 60.4622 58.7146 60.4172 58.7378C60.0905 58.9231 59.7751 59.0157 59.4823 59.0157C59.1331 59.0157 58.6487 58.8883 58.277 58.2513C58.2432 58.1934 58.2207 58.1239 58.2207 58.0544V50.8623" stroke="#DCE7E5" stroke-width="1.8" stroke-linecap="round" stroke-linejoin="round"/>
<path d="M40.458 62.9419V90.9577H77.4262V70.4699" stroke="#DCE7E5" stroke-width="1.8" stroke-linecap="round" stroke-linejoin="round"/>
<path d="M58.1874 50.8394H40.458V55.1477" stroke="#DCE7E5" stroke-width="1.8" stroke-linecap="round" stroke-linejoin="round"/>
<path d="M58.1875 90.9576V85.9775" stroke="#DCE7E5" stroke-width="1.8" stroke-linecap="round" stroke-linejoin="round"/>
<path d="M58.9416 70.4932H51.6426" stroke="#DCE7E5" stroke-width="1.8" stroke-linecap="round" stroke-linejoin="round"/>
<path d="M47.2276 70.4932H40.458" stroke="#DCE7E5" stroke-width="1.8" stroke-linecap="round" stroke-linejoin="round"/>
<path d="M51.6429 70.4931C51.1811 70.2035 50.922 69.775 50.922 69.2654C50.922 68.8601 51.091 68.42 51.4064 68.0725C51.4176 68.0494 51.4289 68.0378 51.4514 68.0262C52.0259 67.4587 52.3413 66.7059 52.3413 65.8952C52.3413 64.2622 51.0459 62.9419 49.469 62.9419C47.892 62.9419 46.5967 64.2738 46.5967 65.8952C46.5967 66.787 46.9797 67.6093 47.6442 68.1768C47.678 68.2115 47.7118 68.2462 47.7343 68.2926C47.9146 68.6284 48.0047 68.9527 48.0047 69.2538C48.0047 69.6129 47.8808 70.1109 47.2613 70.4931" stroke="#DCE7E5" stroke-width="1.8" stroke-linecap="round" stroke-linejoin="round"/>
<path d="M30.7821 41.4814C30.7821 41.4814 28.1576 42.3616 27.2903 44.6432C27.2903 44.6432 22.4919 63.6949 22.5257 64.5287L21.985 76.2261L20.0364 87.6223C19.8111 89.1743 20.8586 90.6104 22.3567 90.842C22.4919 90.8652 22.6271 90.8767 22.7622 90.8767C24.1026 90.8767 25.2853 89.8691 25.4881 88.4562L27.4593 76.9094C27.4705 76.8052 27.4818 76.7125 27.4818 76.6083L27.8648 67.1693C27.9887 67.2156 30.5794 76.8978 30.5794 76.8978L31.0637 88.1551C31.1201 89.6838 32.3478 90.8883 33.8234 90.8883C33.8572 90.8883 33.891 90.8883 33.9248 90.8883C35.4454 90.8304 36.6394 89.5101 36.5831 87.9466L36.0874 76.3998C36.0874 76.2029 36.0536 76.0176 36.0086 75.8323L32.9448 63.2316C32.9223 63.1158 32.8772 63.0231 32.8322 62.9189L33.7333 58.7959" stroke="#DCE7E5" stroke-width="1.8" stroke-linecap="round" stroke-linejoin="round"/>
<path d="M91.4268 50.5149C92.4968 49.8663 93.2515 49.3799 93.2515 49.3799" stroke="#DCE7E5" stroke-width="1.8" stroke-linecap="round" stroke-linejoin="round"/>
</g>
<defs>
<clipPath id="clip0_457_68">
<rect width="86" height="61" fill="white" transform="translate(19 31)"/>
</clipPath>
</defs>
</svg>
