<svg id="Calque_1" data-name="Calque 1" xmlns="http://www.w3.org/2000/svg" viewBox="0 0 487.72 141.73"><defs><style>.cls-1{fill:red;}</style></defs><polygon class="cls-1" points="0 57.77 30.57 57.77 30.57 26.2 102.53 26.2 102.53 0 0 0 0 57.77"/><polygon class="cls-1" points="0 141.73 102.53 141.73 102.53 115.53 30.57 115.53 30.57 83.97 0 83.97 0 141.73"/><rect class="cls-1" x="30.57" y="57.76" width="65.81" height="26.2"/><path class="cls-1" d="M291.1,74.15a42.7,42.7,0,0,0-15.19-9.44q-9.33-3.57-22.63-3.57H190V202.87h30.57V145.1h32.75q13.29,0,22.63-3.58a42.56,42.56,0,0,0,15.19-9.44,35.71,35.71,0,0,0,8.53-13.47,46.39,46.39,0,0,0,0-31.08A35.85,35.85,0,0,0,291.1,74.15Zm-21.24,37.08A15,15,0,0,1,263.8,116a29.74,29.74,0,0,1-8.73,2.29,88.21,88.21,0,0,1-10.33.59H220.53V87.34h24.21a88.21,88.21,0,0,1,10.33.59,30.05,30.05,0,0,1,8.73,2.29A15.12,15.12,0,0,1,269.86,95a13.37,13.37,0,0,1,2.28,8.11A13.35,13.35,0,0,1,269.86,111.23Z" transform="translate(-61.23 -61.14)"/><polygon class="cls-1" points="415.76 115.53 415.76 0 385.19 0 385.19 141.73 487.72 141.73 487.72 115.53 415.76 115.53"/><polygon class="cls-1" points="260.53 57.77 291.1 57.77 291.1 26.2 363.06 26.2 363.06 0 260.53 0 260.53 57.77"/><rect class="cls-1" x="260.53" y="83.97" width="30.57" height="57.76"/><rect class="cls-1" x="291.1" y="57.76" width="65.81" height="26.2"/></svg>