<svg width="601" height="70" viewBox="0 0 601 70" fill="none" xmlns="http://www.w3.org/2000/svg">
<g clip-path="url(#clip0_24_3874)">
<path opacity="0.9" d="M487.612 19.2605C487.612 16.3726 485.233 14.0337 482.3 14.0337H468.134C465.201 14.0337 462.822 16.3726 462.822 19.2605C462.822 22.1483 465.201 24.4872 468.134 24.4872H482.3C485.233 24.4872 487.612 22.1483 487.612 19.2605Z" fill="white"/>
<path d="M468.134 52.3549C471.067 52.3549 473.446 50.016 473.446 47.1281C473.446 44.2403 471.067 41.9014 468.134 41.9014C465.201 41.9014 462.822 44.2403 462.822 47.1281C462.822 50.016 465.201 52.3549 468.134 52.3549Z" fill="#006E58"/>
<path d="M482.3 52.3549C485.233 52.3549 487.612 50.016 487.612 47.1281C487.612 44.2403 485.233 41.9014 482.3 41.9014C479.368 41.9014 476.989 44.2403 476.989 47.1281C476.989 50.016 479.368 52.3549 482.3 52.3549Z" fill="#006E58"/>
<path d="M468.134 24.4809C471.067 24.4809 473.446 22.1419 473.446 19.2541C473.446 16.3663 471.067 14.0273 468.134 14.0273C465.201 14.0273 462.822 16.3663 462.822 19.2541C462.822 22.1419 465.201 24.4809 468.134 24.4809Z" fill="#FBBD00"/>
<path opacity="0.85" d="M482.3 24.4809C485.233 24.4809 487.612 22.1419 487.612 19.2541C487.612 16.3663 485.233 14.0273 482.3 14.0273C479.368 14.0273 476.989 16.3663 476.989 19.2541C476.989 22.1419 479.368 24.4809 482.3 24.4809Z" fill="#2C3461"/>
<path opacity="0.9" d="M482.3 38.415C485.233 38.415 487.612 36.076 487.612 33.1882C487.612 30.3004 485.233 27.9614 482.3 27.9614C479.368 27.9614 476.989 30.3004 476.989 33.1882C476.989 36.076 479.368 38.415 482.3 38.415Z" fill="white"/>
<path opacity="0.9" d="M538.96 10.547C541.892 10.547 544.271 8.20809 544.271 5.32027C544.271 2.43245 541.892 0.0935059 538.96 0.0935059C536.027 0.0935059 533.648 2.43245 533.648 5.32027C533.648 8.20809 536.027 10.547 538.96 10.547Z" fill="white"/>
<path opacity="0.9" d="M567.356 10.547C570.288 10.547 572.667 8.20809 572.667 5.32027C572.667 2.43245 570.288 0.0935059 567.356 0.0935059C564.423 0.0935059 562.044 2.43245 562.044 5.32027C562.044 8.20809 564.423 10.547 567.356 10.547Z" fill="white"/>
<path opacity="0.9" d="M595.688 10.547C598.621 10.547 601 8.20809 601 5.32027C601 2.43245 598.621 0.0935059 595.688 0.0935059C592.756 0.0935059 590.377 2.43245 590.377 5.32027C590.377 8.20809 592.756 10.547 595.688 10.547Z" fill="white"/>
<path opacity="0.9" d="M496.46 52.3549C499.393 52.3549 501.772 50.016 501.772 47.1281C501.772 44.2403 499.393 41.9014 496.46 41.9014C493.528 41.9014 491.149 44.2403 491.149 47.1281C491.149 50.016 493.528 52.3549 496.46 52.3549Z" fill="white"/>
<path opacity="0.9" d="M553.195 38.415C556.128 38.415 558.507 36.076 558.507 33.1882C558.507 30.3004 556.128 27.9614 553.195 27.9614C550.263 27.9614 547.884 30.3004 547.884 33.1882C547.884 36.076 550.263 38.415 553.195 38.415Z" fill="white"/>
<path opacity="0.9" d="M544.271 19.2605V5.32662C544.271 2.4388 541.892 0.0998535 538.96 0.0998535C536.027 0.0998535 533.648 2.4388 533.648 5.32662V19.2605C533.648 22.1483 536.027 24.4873 538.96 24.4873C541.892 24.4873 544.271 22.1483 544.271 19.2605Z" fill="white"/>
<path opacity="0.9" d="M572.673 47.1282V33.1943C572.673 30.3065 570.295 27.9675 567.362 27.9675C564.429 27.9675 562.05 30.3065 562.05 33.1943V47.1282C562.05 50.016 564.429 52.3549 567.362 52.3549C570.295 52.3549 572.673 50.016 572.673 47.1282Z" fill="white"/>
<path d="M113.476 5.54488C113.476 2.65706 115.855 0.318115 118.788 0.318115H132.954C135.887 0.318115 138.266 2.65706 138.266 5.54488V19.223C138.266 22.1109 135.887 24.4498 132.954 24.4498H118.788C115.855 24.4498 113.476 22.1109 113.476 19.223V5.54488Z" fill="#006E58"/>
<path d="M127.485 47.1157C127.485 44.2279 129.864 41.8889 132.797 41.8889H146.963C149.896 41.8889 152.275 44.2279 152.275 47.1157V60.7938C152.275 63.6817 149.896 66.0206 146.963 66.0206H132.797C129.864 66.0206 127.485 63.6817 127.485 60.7938V47.1157Z" fill="#006E58"/>
<path d="M562.044 5.22677C562.044 2.33895 564.423 0 567.356 0H581.522C584.455 0 586.834 2.33895 586.834 5.22677V18.9049C586.834 21.7927 584.455 24.1317 581.522 24.1317H567.356C564.423 24.1317 562.044 21.7927 562.044 18.9049V5.22677Z" fill="#006E58"/>
<path d="M28.421 47.465C28.421 44.5772 30.7999 42.2383 33.7326 42.2383H47.899C50.8317 42.2383 53.2106 44.5772 53.2106 47.465V61.1432C53.2106 64.031 50.8317 66.37 47.899 66.37H33.7326C30.7999 66.37 28.421 64.031 28.421 61.1432V47.465Z" fill="#006E58"/>
<path d="M70.9265 33.3379C70.9265 30.45 73.3054 28.1111 76.2381 28.1111H90.4046C93.3373 28.1111 95.7162 30.45 95.7162 33.3379V47.016C95.7162 49.9038 93.3373 52.2428 90.4046 52.2428H76.2381C73.3054 52.2428 70.9265 49.9038 70.9265 47.016V33.3379Z" fill="#006E58"/>
<path opacity="0.85" d="M453.968 24.4809C456.9 24.4809 459.279 22.1419 459.279 19.2541C459.279 16.3663 456.9 14.0273 453.968 14.0273C451.035 14.0273 448.656 16.3663 448.656 19.2541C448.656 22.1419 451.035 24.4809 453.968 24.4809Z" fill="#2C3461"/>
<path opacity="0.85" d="M510.627 24.4809C513.56 24.4809 515.939 22.1419 515.939 19.2541C515.939 16.3663 513.56 14.0273 510.627 14.0273C507.694 14.0273 505.315 16.3663 505.315 19.2541C505.315 22.1419 507.694 24.4809 510.627 24.4809Z" fill="#2C3461"/>
<path d="M524.793 24.4809C527.726 24.4809 530.105 22.1419 530.105 19.2541C530.105 16.3663 527.726 14.0273 524.793 14.0273C521.861 14.0273 519.482 16.3663 519.482 19.2541C519.482 22.1419 521.861 24.4809 524.793 24.4809Z" fill="#3578E6"/>
<path d="M538.96 24.4809C541.892 24.4809 544.271 22.1419 544.271 19.2541C544.271 16.3663 541.892 14.0273 538.96 14.0273C536.027 14.0273 533.648 16.3663 533.648 19.2541C533.648 22.1419 536.027 24.4809 538.96 24.4809Z" fill="#202048"/>
<path opacity="0.85" d="M496.46 10.547C499.393 10.547 501.772 8.20809 501.772 5.32027C501.772 2.43245 499.393 0.0935059 496.46 0.0935059C493.528 0.0935059 491.149 2.43245 491.149 5.32027C491.149 8.20809 493.528 10.547 496.46 10.547Z" fill="#C1C6DB"/>
<path opacity="0.85" d="M510.627 10.547C513.56 10.547 515.939 8.20809 515.939 5.32027C515.939 2.43245 513.56 0.0935059 510.627 0.0935059C507.694 0.0935059 505.315 2.43245 505.315 5.32027C505.315 8.20809 507.694 10.547 510.627 10.547Z" fill="#2C3461"/>
<path d="M524.793 10.547C527.726 10.547 530.105 8.20809 530.105 5.32027C530.105 2.43245 527.726 0.0935059 524.793 0.0935059C521.861 0.0935059 519.482 2.43245 519.482 5.32027C519.482 8.20809 521.861 10.547 524.793 10.547Z" fill="#795ADF"/>
<path d="M553.12 10.547C556.053 10.547 558.432 8.20809 558.432 5.32027C558.432 2.43245 556.053 0.0935059 553.12 0.0935059C550.187 0.0935059 547.808 2.43245 547.808 5.32027C547.808 8.20809 550.187 10.547 553.12 10.547Z" fill="#F86E14"/>
<path d="M595.682 10.547C598.615 10.547 600.994 8.20809 600.994 5.32027C600.994 2.43245 598.615 0.0935059 595.682 0.0935059C592.749 0.0935059 590.37 2.43245 590.37 5.32027C590.37 8.20809 592.749 10.547 595.682 10.547Z" fill="#795ADF"/>
<path opacity="0.85" d="M510.627 52.3549C513.56 52.3549 515.939 50.016 515.939 47.1281C515.939 44.2403 513.56 41.9014 510.627 41.9014C507.694 41.9014 505.315 44.2403 505.315 47.1281C505.315 50.016 507.694 52.3549 510.627 52.3549Z" fill="#2C3461"/>
<path d="M553.12 52.3549C556.053 52.3549 558.432 50.016 558.432 47.1281C558.432 44.2403 556.053 41.9014 553.12 41.9014C550.187 41.9014 547.808 44.2403 547.808 47.1281C547.808 50.016 550.187 52.3549 553.12 52.3549Z" fill="#FF35A1"/>
<path opacity="0.85" d="M567.356 52.3549C570.288 52.3549 572.667 50.016 572.667 47.1281C572.667 44.2403 570.288 41.9014 567.356 41.9014C564.423 41.9014 562.044 44.2403 562.044 47.1281C562.044 50.016 564.423 52.3549 567.356 52.3549Z" fill="#2C3461"/>
<path d="M595.688 52.3549C598.621 52.3549 601 50.016 601 47.1281C601 44.2403 598.621 41.9014 595.688 41.9014C592.756 41.9014 590.377 44.2403 590.377 47.1281C590.377 50.016 592.756 52.3549 595.688 52.3549Z" fill="#006E58"/>
<path d="M482.3 66.2826C485.233 66.2826 487.612 63.9437 487.612 61.0559C487.612 58.168 485.233 55.8291 482.3 55.8291C479.368 55.8291 476.989 58.168 476.989 61.0559C476.989 63.9437 479.368 66.2826 482.3 66.2826Z" fill="#F86E14"/>
<path d="M510.627 66.2826C513.56 66.2826 515.939 63.9437 515.939 61.0559C515.939 58.168 513.56 55.8291 510.627 55.8291C507.694 55.8291 505.315 58.168 505.315 61.0559C505.315 63.9437 507.694 66.2826 510.627 66.2826Z" fill="#3578E6"/>
<path d="M524.793 66.2826C527.726 66.2826 530.105 63.9437 530.105 61.0559C530.105 58.168 527.726 55.8291 524.793 55.8291C521.861 55.8291 519.482 58.168 519.482 61.0559C519.482 63.9437 521.861 66.2826 524.793 66.2826Z" fill="#006E58"/>
<path opacity="0.9" d="M453.968 38.415C456.9 38.415 459.279 36.076 459.279 33.1882C459.279 30.3004 456.9 27.9614 453.968 27.9614C451.035 27.9614 448.656 30.3004 448.656 33.1882C448.656 36.076 451.035 38.415 453.968 38.415Z" fill="white"/>
<path opacity="0.85" d="M496.46 38.415C499.393 38.415 501.772 36.076 501.772 33.1882C501.772 30.3004 499.393 27.9614 496.46 27.9614C493.528 27.9614 491.149 30.3004 491.149 33.1882C491.149 36.076 493.528 38.415 496.46 38.415Z" fill="#2C3461"/>
<path opacity="0.85" d="M553.12 38.415C556.053 38.415 558.432 36.076 558.432 33.1882C558.432 30.3004 556.053 27.9614 553.12 27.9614C550.187 27.9614 547.808 30.3004 547.808 33.1882C547.808 36.076 550.187 38.415 553.12 38.415Z" fill="#2C3461"/>
<path d="M567.356 38.415C570.288 38.415 572.667 36.076 572.667 33.1882C572.667 30.3004 570.288 27.9614 567.356 27.9614C564.423 27.9614 562.044 30.3004 562.044 33.1882C562.044 36.076 564.423 38.415 567.356 38.415Z" fill="#202048"/>
<path opacity="0.9" d="M90.4172 66.2826C93.3499 66.2826 95.7288 63.9437 95.7288 61.0559C95.7288 58.168 93.3499 55.8291 90.4172 55.8291C87.4844 55.8291 85.1055 58.168 85.1055 61.0559C85.1055 63.9437 87.4844 66.2826 90.4172 66.2826Z" fill="white"/>
<path d="M61.971 66.2826C64.9037 66.2826 67.2826 63.9437 67.2826 61.0559C67.2826 58.168 64.9037 55.8291 61.971 55.8291C59.0383 55.8291 56.6594 58.168 56.6594 61.0559C56.6594 63.9437 59.0383 66.2826 61.971 66.2826Z" fill="#FBBD00"/>
<path opacity="0.9" d="M147.077 38.415C150.009 38.415 152.388 36.076 152.388 33.1882C152.388 30.3004 150.009 27.9614 147.077 27.9614C144.144 27.9614 141.765 30.3004 141.765 33.1882C141.765 36.076 144.144 38.415 147.077 38.415Z" fill="white"/>
<path opacity="0.9" d="M56.6594 19.2605V33.1943C56.6594 36.0822 59.0383 38.4211 61.971 38.4211C64.9037 38.4211 67.2826 36.0822 67.2826 33.1943V19.2605C67.2826 16.3726 64.9037 14.0337 61.971 14.0337C59.0383 14.0337 56.6594 16.3726 56.6594 19.2605Z" fill="white"/>
<path opacity="0.9" d="M141.765 19.2605C141.765 22.1483 144.144 24.4872 147.077 24.4872H161.243C164.176 24.4872 166.555 22.1483 166.555 19.2605C166.555 16.3726 164.176 14.0337 161.243 14.0337H147.077C144.144 14.0337 141.765 16.3726 141.765 19.2605Z" fill="white"/>
<path opacity="0.9" d="M453.949 41.9077C451.035 41.9077 448.675 44.2467 448.675 47.1282V61.0559C448.675 63.9375 451.035 66.2764 453.949 66.2764C456.862 66.2764 459.222 63.9375 459.222 61.0559V47.1282C459.222 44.2467 456.862 41.9077 453.949 41.9077Z" fill="white"/>
<path d="M439.625 52.3549C442.558 52.3549 444.936 50.016 444.936 47.1281C444.936 44.2403 442.558 41.9014 439.625 41.9014C436.692 41.9014 434.313 44.2403 434.313 47.1281C434.313 50.016 436.692 52.3549 439.625 52.3549Z" fill="white"/>
<path opacity="0.85" d="M118.744 52.3549C121.676 52.3549 124.055 50.016 124.055 47.1281C124.055 44.2403 121.676 41.9014 118.744 41.9014C115.811 41.9014 113.432 44.2403 113.432 47.1281C113.432 50.016 115.811 52.3549 118.744 52.3549Z" fill="#2C3461"/>
<path d="M104.584 52.3549C107.516 52.3549 109.895 50.016 109.895 47.1281C109.895 44.2403 107.516 41.9014 104.584 41.9014C101.651 41.9014 99.272 44.2403 99.272 47.1281C99.272 50.016 101.651 52.3549 104.584 52.3549Z" fill="#3578E6"/>
<path d="M439.625 66.2826C442.558 66.2826 444.936 63.9437 444.936 61.0559C444.936 58.168 442.558 55.8291 439.625 55.8291C436.692 55.8291 434.313 58.168 434.313 61.0559C434.313 63.9437 436.692 66.2826 439.625 66.2826Z" fill="white"/>
<path opacity="0.85" d="M118.744 66.2826C121.676 66.2826 124.055 63.9437 124.055 61.0559C124.055 58.168 121.676 55.8291 118.744 55.8291C115.811 55.8291 113.432 58.168 113.432 61.0559C113.432 63.9437 115.811 66.2826 118.744 66.2826Z" fill="#2C3461"/>
<path d="M104.584 66.2826C107.516 66.2826 109.895 63.9437 109.895 61.0559C109.895 58.168 107.516 55.8291 104.584 55.8291C101.651 55.8291 99.272 58.168 99.272 61.0559C99.272 63.9437 101.651 66.2826 104.584 66.2826Z" fill="#795ADF"/>
<path d="M76.2507 66.2826C79.1835 66.2826 81.5624 63.9437 81.5624 61.0559C81.5624 58.168 79.1835 55.8291 76.2507 55.8291C73.318 55.8291 70.9391 58.168 70.9391 61.0559C70.9391 63.9437 73.318 66.2826 76.2507 66.2826Z" fill="#202048"/>
<path d="M5.31162 66.2826C8.24434 66.2826 10.6232 63.9437 10.6232 61.0559C10.6232 58.168 8.24434 55.8291 5.31162 55.8291C2.3789 55.8291 0 58.168 0 61.0559C0 63.9437 2.3789 66.2826 5.31162 66.2826Z" fill="#02BACE"/>
<path d="M439.625 24.4809C442.558 24.4809 444.936 22.1419 444.936 19.2541C444.936 16.3663 442.558 14.0273 439.625 14.0273C436.692 14.0273 434.313 16.3663 434.313 19.2541C434.313 22.1419 436.692 24.4809 439.625 24.4809Z" fill="white"/>
<path d="M161.237 24.4809C164.169 24.4809 166.548 22.1419 166.548 19.2541C166.548 16.3663 164.169 14.0273 161.237 14.0273C158.304 14.0273 155.925 16.3663 155.925 19.2541C155.925 22.1419 158.304 24.4809 161.237 24.4809Z" fill="white"/>
<path d="M147.077 24.4809C150.009 24.4809 152.388 22.1419 152.388 19.2541C152.388 16.3663 150.009 14.0273 147.077 14.0273C144.144 14.0273 141.765 16.3663 141.765 19.2541C141.765 22.1419 144.144 24.4809 147.077 24.4809Z" fill="#006E58"/>
<path d="M104.584 24.4809C107.516 24.4809 109.895 22.1419 109.895 19.2541C109.895 16.3663 107.516 14.0273 104.584 14.0273C101.651 14.0273 99.272 16.3663 99.272 19.2541C99.272 22.1419 101.651 24.4809 104.584 24.4809Z" fill="#F86E14"/>
<path d="M90.4172 24.4809C93.3499 24.4809 95.7288 22.1419 95.7288 19.2541C95.7288 16.3663 93.3499 14.0273 90.4172 14.0273C87.4844 14.0273 85.1055 16.3663 85.1055 19.2541C85.1055 22.1419 87.4844 24.4809 90.4172 24.4809Z" fill="#202048"/>
<path d="M70.9454 19.2605C70.9454 22.1483 73.3243 24.4872 76.257 24.4872C79.1897 24.4872 81.5686 22.1483 81.5686 19.2605C81.5686 16.3726 79.1897 14.0337 76.257 14.0337C73.3243 14.0337 70.9454 16.3726 70.9454 19.2605Z" fill="#FF35A1"/>
<path opacity="0.85" d="M61.971 24.4809C64.9037 24.4809 67.2826 22.1419 67.2826 19.2541C67.2826 16.3663 64.9037 14.0273 61.971 14.0273C59.0383 14.0273 56.6594 16.3663 56.6594 19.2541C56.6594 22.1419 59.0383 24.4809 61.971 24.4809Z" fill="#2C3461"/>
<path d="M33.6382 24.4809C36.5709 24.4809 38.9498 22.1419 38.9498 19.2541C38.9498 16.3663 36.5709 14.0273 33.6382 14.0273C30.7055 14.0273 28.3266 16.3663 28.3266 19.2541C28.3266 22.1419 30.7055 24.4809 33.6382 24.4809Z" fill="#006E58"/>
<path d="M439.625 10.547C442.558 10.547 444.936 8.20809 444.936 5.32027C444.936 2.43245 442.558 0.0935059 439.625 0.0935059C436.692 0.0935059 434.313 2.43245 434.313 5.32027C434.313 8.20809 436.692 10.547 439.625 10.547Z" fill="white"/>
<path opacity="0.85" d="M33.6445 10.5471C36.5772 10.5471 38.9561 8.2082 38.9561 5.32038C38.9561 2.43256 36.5772 0.0998535 33.6445 0.0998535C30.7118 0.0998535 28.3329 2.4388 28.3329 5.32662C28.3329 8.21444 30.7118 10.5534 33.6445 10.5534V10.5471Z" fill="#2C3461"/>
<path d="M104.584 10.5471C107.516 10.5471 109.895 8.2082 109.895 5.32038C109.895 2.43256 107.516 0.0998535 104.584 0.0998535C101.651 0.0998535 99.272 2.4388 99.272 5.32662C99.272 8.21444 101.651 10.5534 104.584 10.5534V10.5471Z" fill="#006E58"/>
<path opacity="0.85" d="M439.625 38.415C442.558 38.415 444.936 36.076 444.936 33.1882C444.936 30.3004 442.558 27.9614 439.625 27.9614C436.692 27.9614 434.313 30.3004 434.313 33.1882C434.313 36.076 436.692 38.415 439.625 38.415Z" fill="white"/>
<path opacity="0.85" d="M132.91 38.415C135.843 38.415 138.222 36.076 138.222 33.1882C138.222 30.3004 135.843 27.9614 132.91 27.9614C129.977 27.9614 127.599 30.3004 127.599 33.1882C127.599 36.076 129.977 38.415 132.91 38.415Z" fill="#2C3461"/>
<path d="M118.744 38.415C121.676 38.415 124.055 36.076 124.055 33.1882C124.055 30.3004 121.676 27.9614 118.744 27.9614C115.811 27.9614 113.432 30.3004 113.432 33.1882C113.432 36.076 115.811 38.415 118.744 38.415Z" fill="#02BACE"/>
<path d="M104.584 38.415C107.516 38.415 109.895 36.076 109.895 33.1882C109.895 30.3004 107.516 27.9614 104.584 27.9614C101.651 27.9614 99.272 30.3004 99.272 33.1882C99.272 36.076 101.651 38.415 104.584 38.415Z" fill="#3578E6"/>
<path d="M61.971 38.415C64.9037 38.415 67.2826 36.076 67.2826 33.1882C67.2826 30.3004 64.9037 27.9614 61.971 27.9614C59.0383 27.9614 56.6594 30.3004 56.6594 33.1882C56.6594 36.076 59.0383 38.415 61.971 38.415Z" fill="#202048"/>
<path d="M76.5654 36.8432L76.5276 36.0573C76.5276 35.5771 76.7227 35.1155 77.0626 34.7787C77.4024 34.4419 77.8681 34.2485 78.3527 34.2485H81.7008C82.1854 34.2485 82.6448 34.4419 82.9909 34.7787L83.7462 35.5272C84.086 35.864 84.5517 36.0573 85.0363 36.0573H88.6676C88.9193 36.0573 89.1711 36.1072 89.4039 36.2133C89.6368 36.313 89.8445 36.4627 90.0144 36.6499C90.1843 36.837 90.3165 37.0553 90.3983 37.2923C90.4801 37.5293 90.5116 37.785 90.4864 38.0345L89.9074 44.359C89.8633 44.8081 89.6556 45.226 89.3221 45.5316C88.9885 45.8372 88.548 46.0056 88.0949 46.0056H78.6611C78.208 46.0056 77.7674 45.8372 77.4339 45.5316C77.1003 45.226 76.8864 44.8081 76.8486 44.359L76.2696 38.0345C76.2318 37.6166 76.3388 37.1987 76.5843 36.8494L76.5654 36.8432ZM78.0695 36.9617C77.9437 36.9617 77.8178 36.9867 77.7045 37.0366C77.5912 37.0865 77.4842 37.1613 77.3961 37.2549C77.308 37.3484 77.2451 37.4545 77.2073 37.573C77.1696 37.6915 77.1507 37.8162 77.1633 37.941L77.7423 44.2655C77.7611 44.49 77.8681 44.6958 78.0381 44.8518C78.208 45.0015 78.4219 45.0888 78.6548 45.0888H88.0886C88.3152 45.0888 88.5354 45.0015 88.7053 44.8518C88.8753 44.7021 88.976 44.49 89.0011 44.2655L89.5801 37.941C89.5927 37.8162 89.5801 37.6915 89.5361 37.573C89.4983 37.4545 89.4291 37.3422 89.3473 37.2549C89.2592 37.1613 89.1585 37.0865 89.0389 37.0366C88.9256 36.9867 88.7997 36.9617 88.6739 36.9617H78.0821H78.0695ZM82.3427 35.4211C82.2609 35.34 82.1602 35.2714 82.0469 35.2278C81.9337 35.1841 81.8204 35.1592 81.6945 35.1592H78.3464C78.1073 35.1592 77.8807 35.2527 77.7108 35.4149C77.5409 35.5833 77.4402 35.8078 77.4402 36.0448V36.1696C77.6416 36.101 77.8493 36.0636 78.0695 36.0636H82.9909L82.349 35.4274L82.3427 35.4211Z" fill="white"/>
<path d="M580.056 8.69476C579.753 8.91306 579.433 9.10018 579.093 9.24987C577.947 9.76132 576.412 10.0669 574.738 10.0669C573.064 10.0669 571.522 9.76132 570.383 9.24987C570.043 9.10018 569.722 8.91306 569.42 8.69476V10.0669C569.42 10.4599 569.797 10.99 570.823 11.4516C571.799 11.8882 573.183 12.1751 574.738 12.1751C575.449 12.1751 576.116 12.119 576.733 12.0129C576.273 12.3373 575.877 12.7427 575.562 13.2043C575.285 13.223 575.015 13.2292 574.738 13.2292C573.064 13.2292 571.522 12.9236 570.383 12.4121C570.043 12.2624 569.722 12.0753 569.42 11.857V13.2292C569.42 13.6221 569.797 14.1523 570.823 14.6139C571.799 15.0505 573.183 15.3374 574.738 15.3374H574.769C574.738 15.618 574.731 15.8987 574.75 16.1794C574.744 16.248 574.738 16.3228 574.738 16.3915C573.064 16.3915 571.522 16.0858 570.383 15.5744C570.043 15.4247 569.722 15.2376 569.42 15.0193V16.3915C569.42 16.7844 569.797 17.3146 570.823 17.7761C571.799 18.2127 573.183 18.4996 574.738 18.4996C574.738 18.8801 574.838 19.2419 575.021 19.5537C574.926 19.5537 574.832 19.5537 574.738 19.5537C573.064 19.5537 571.522 19.2481 570.383 18.7366C569.288 18.2439 568.356 17.4518 568.356 16.3915V6.90469C568.356 5.84436 569.288 5.05224 570.383 4.5595C571.528 4.04805 573.064 3.74243 574.738 3.74243C576.412 3.74243 577.954 4.04805 579.093 4.5595C580.188 5.05224 581.119 5.84436 581.119 6.90469V11.3892C580.521 11.1772 579.886 11.0898 579.256 11.1273C579.829 10.753 580.056 10.3726 580.056 10.0669V8.69476ZM570.817 5.52003C569.791 5.98158 569.413 6.50551 569.413 6.90469C569.413 7.30387 569.791 7.82779 570.817 8.28934C571.792 8.72595 573.177 9.01286 574.731 9.01286C576.286 9.01286 577.677 8.72595 578.646 8.28934C579.672 7.82779 580.049 7.29763 580.049 6.90469C580.049 6.51174 579.672 5.98158 578.646 5.52003C577.67 5.08343 576.286 4.79652 574.731 4.79652C573.177 4.79652 571.786 5.08343 570.817 5.52003Z" fill="white"/>
<path d="M575.801 16.3915C575.801 16.1109 575.915 15.8427 576.116 15.6431C576.317 15.4435 576.588 15.3312 576.871 15.3312V14.2771C576.871 13.7158 577.098 13.1794 577.494 12.7864C577.891 12.3935 578.432 12.1689 578.998 12.1689C579.565 12.1689 580.106 12.3935 580.502 12.7864C580.899 13.1794 581.125 13.7158 581.125 14.2771V15.3312C581.409 15.3312 581.679 15.4435 581.881 15.6431C582.082 15.8427 582.195 16.1109 582.195 16.3915V18.4997C582.195 18.7804 582.082 19.0486 581.881 19.2482C581.679 19.4477 581.409 19.56 581.125 19.56H576.871C576.588 19.56 576.317 19.4477 576.116 19.2482C575.915 19.0486 575.801 18.7804 575.801 18.4997V16.3915ZM578.992 13.2293C578.709 13.2293 578.438 13.3415 578.237 13.5411C578.035 13.7407 577.922 14.0089 577.922 14.2896V15.3437H580.049V14.2896C580.049 14.0089 579.936 13.7407 579.735 13.5411C579.533 13.3415 579.263 13.2293 578.979 13.2293H578.992Z" fill="white"/>
<path opacity="0.28" d="M33.0655 61.8794L37.6219 57.9624H44.1859V61.7234L33.0655 61.8794Z" fill="#BFBFBF"/>
<path opacity="0.28" d="M44.0034 50.6399V61.7233L48.7864 57.7066V46.7229L44.0034 50.6399Z" fill="#BFBFBF"/>
<path opacity="0.28" d="M37.4394 46.8788V50.6399H44.0034L48.5661 46.7229L37.4394 46.8788Z" fill="#BFBFBF"/>
<path opacity="0.28" d="M37.4394 58.1182L32.8452 61.7233V50.8956L37.4394 46.7229V58.1182Z" fill="#BFBFBF"/>
<path d="M49.0381 57.875C49.0381 57.875 49.0444 57.8501 49.0444 57.8376C49.0444 57.8376 49.0444 57.8376 49.0444 57.8313V46.5919C49.0444 46.5794 49.0444 46.5607 49.0381 46.5483C49.0381 46.5483 49.0381 46.542 49.0381 46.5358C49.0381 46.5233 49.0255 46.5171 49.0192 46.5046C49.0192 46.5046 49.0129 46.4984 49.0066 46.4921C49.0003 46.4859 48.9878 46.4797 48.9815 46.4734C48.9815 46.4734 48.9752 46.4734 48.9689 46.4672C48.9563 46.4672 48.9374 46.4609 48.9248 46.4609H37.5841C37.5841 46.4609 37.5527 46.4609 37.5338 46.4734C37.5338 46.4734 37.5212 46.4796 37.5149 46.4859C37.5086 46.4859 37.5023 46.4921 37.496 46.4984L32.6375 50.671C32.6375 50.671 32.6375 50.6773 32.6312 50.6835C32.6249 50.6898 32.6186 50.7022 32.6124 50.7085C32.6124 50.7085 32.6124 50.7147 32.6124 50.7209C32.6124 50.7334 32.6061 50.7459 32.6061 50.7584C32.6061 50.7584 32.6061 50.7584 32.6061 50.7646V62.004C32.6061 62.0165 32.6061 62.0352 32.6124 62.0477C32.6124 62.0477 32.6124 62.0539 32.6124 62.0602C32.6124 62.0726 32.6249 62.0789 32.6312 62.0913C32.6312 62.0913 32.6375 62.0976 32.6438 62.1038C32.6501 62.1101 32.6627 62.1163 32.669 62.1225C32.669 62.1225 32.6753 62.1225 32.6816 62.1288C32.6942 62.1288 32.7131 62.135 32.7256 62.135H44.0663C44.0663 62.135 44.0978 62.135 44.1167 62.1225C44.1167 62.1225 44.1293 62.1225 44.1356 62.1163C44.1418 62.1163 44.1481 62.1101 44.1544 62.1038L49.0129 57.9311C49.0129 57.9311 49.0129 57.9249 49.0192 57.9187C49.0255 57.9124 49.0318 57.8999 49.0381 57.8937C49.0381 57.8937 49.0381 57.8875 49.0381 57.8812V57.875ZM32.8452 50.8956H37.4457V57.7752L32.8452 61.7233V50.8956ZM37.7037 50.8956H43.9216V57.7004H37.7037V50.8956ZM44.1859 50.827L48.7864 46.8788V57.7066H44.1859V50.827ZM48.5661 46.7229L44.0097 50.6399H37.71V46.7229H48.5724H48.5661ZM37.4394 46.8788V50.6399H33.0592L37.4394 46.8788ZM33.0655 61.8793L37.6219 57.9623H43.9216V61.8793H33.0592H33.0655ZM44.1859 61.7233V57.9623H48.5661L44.1859 61.7233Z" fill="#BFBFBF" stroke="white" stroke-miterlimit="10"/>
<path d="M132.218 51.2883C132.809 51.0201 133.659 50.8392 134.616 50.8392C135.572 50.8392 136.416 51.0201 137.013 51.2883C137.643 51.5752 137.869 51.8933 137.869 52.1365C137.869 52.3798 137.636 52.6979 137.013 52.9848C136.422 53.253 135.572 53.4339 134.616 53.4339C133.659 53.4339 132.816 53.253 132.218 52.9848C131.589 52.6979 131.362 52.3798 131.362 52.1365C131.362 51.8933 131.595 51.5752 132.218 51.2883ZM137.876 53.228V54.0701C137.876 54.3133 137.643 54.6314 137.02 54.9183C136.428 55.1865 135.579 55.3674 134.622 55.3674C133.665 55.3674 132.822 55.1865 132.224 54.9183C131.595 54.6314 131.368 54.3133 131.368 54.0701V53.228C131.551 53.3653 131.746 53.4713 131.954 53.5649C132.658 53.8767 133.602 54.0638 134.622 54.0638C135.641 54.0638 136.598 53.8767 137.29 53.5649C137.498 53.4775 137.693 53.359 137.876 53.228ZM138.53 52.1365C138.53 51.4879 137.964 51.0014 137.284 50.6957C136.579 50.3839 135.635 50.1968 134.616 50.1968C133.596 50.1968 132.64 50.3839 131.947 50.6957C131.28 51.0014 130.701 51.4816 130.701 52.1365V57.9496C130.701 58.6045 131.268 59.0848 131.947 59.3904C132.652 59.7023 133.596 59.8894 134.616 59.8894C135.635 59.8894 136.592 59.7023 137.284 59.3904C137.951 59.0848 138.53 58.6045 138.53 57.9496V52.1365ZM137.876 55.1678V56.0098C137.876 56.2531 137.643 56.5712 137.02 56.8581C136.428 57.1263 135.579 57.3072 134.622 57.3072C133.665 57.3072 132.822 57.1263 132.224 56.8581C131.595 56.5712 131.368 56.2531 131.368 56.0098V55.1678C131.551 55.2988 131.746 55.4111 131.954 55.5046C132.658 55.8165 133.602 56.0036 134.622 56.0036C135.641 56.0036 136.598 55.8165 137.29 55.5046C137.498 55.4173 137.693 55.2988 137.876 55.1678ZM137.876 57.1013V57.9434C137.876 58.1866 137.643 58.5047 137.02 58.7916C136.428 59.0598 135.579 59.2407 134.622 59.2407C133.665 59.2407 132.822 59.0598 132.224 58.7916C131.595 58.5047 131.368 58.1866 131.368 57.9434V57.1013C131.551 57.2386 131.746 57.3446 131.954 57.4382C132.658 57.75 133.602 57.9371 134.622 57.9371C135.641 57.9371 136.598 57.75 137.29 57.4382C137.498 57.3384 137.706 57.2323 137.876 57.1013Z" fill="white"/>
<path d="M141.633 45.2133C142.231 44.9451 143.074 44.7643 144.031 44.7643C144.987 44.7643 145.83 44.9451 146.428 45.2133C147.058 45.5002 147.284 45.8183 147.284 46.0616C147.284 46.3048 147.051 46.6229 146.428 46.9099C145.837 47.1781 144.987 47.3589 144.031 47.3589C143.074 47.3589 142.231 47.1781 141.633 46.9099C141.003 46.6229 140.777 46.3048 140.777 46.0616C140.777 45.8183 141.01 45.5002 141.633 45.2133ZM147.297 47.1656V48.0076C147.297 48.2508 147.064 48.5689 146.441 48.8559C145.849 49.1241 145 49.3049 144.043 49.3049C143.087 49.3049 142.243 49.1241 141.645 48.8559C141.016 48.5689 140.789 48.2508 140.789 48.0076V47.1656C140.972 47.2966 141.167 47.4088 141.375 47.5024C142.08 47.8142 143.024 48.0014 144.043 48.0014C145.063 48.0014 146.019 47.8142 146.712 47.5024C146.919 47.4151 147.114 47.2966 147.297 47.1656ZM147.945 46.0616C147.945 45.4129 147.379 44.9264 146.699 44.6208C145.994 44.3089 145.05 44.1218 144.031 44.1218C143.011 44.1218 142.054 44.3089 141.362 44.6208C140.695 44.9264 140.116 45.4067 140.116 46.0616V51.8747C140.116 52.5296 140.682 53.0098 141.362 53.3154C142.067 53.6273 143.011 53.8144 144.031 53.8144C145.05 53.8144 146 53.6273 146.699 53.3154C147.366 53.0098 147.945 52.5296 147.945 51.8747V46.0616ZM147.297 49.0991V49.9411C147.297 50.1844 147.064 50.5025 146.441 50.7894C145.849 51.0576 145 51.2385 144.043 51.2385C143.087 51.2385 142.243 51.0576 141.645 50.7894C141.016 50.5025 140.789 50.1844 140.789 49.9411V49.0991C140.972 49.2301 141.167 49.3424 141.375 49.4359C142.08 49.7478 143.024 49.9349 144.043 49.9349C145.063 49.9349 146.019 49.7478 146.712 49.4359C146.919 49.3486 147.114 49.2301 147.297 49.0991ZM147.297 51.0389V51.8809C147.297 52.1241 147.064 52.4422 146.441 52.7292C145.849 52.9974 145 53.1782 144.043 53.1782C143.087 53.1782 142.243 52.9974 141.645 52.7292C141.016 52.4422 140.789 52.1241 140.789 51.8809V51.0389C140.972 51.1699 141.167 51.2821 141.375 51.3757C142.08 51.6875 143.024 51.8747 144.043 51.8747C145.063 51.8747 146.019 51.6875 146.712 51.3757C146.919 51.2759 147.127 51.1699 147.297 51.0389Z" fill="white"/>
<path d="M140.978 56.1285C141.576 55.8603 142.419 55.6794 143.376 55.6794C144.333 55.6794 145.176 55.8603 145.774 56.1285C146.403 56.4154 146.63 56.7335 146.63 56.9767C146.63 57.22 146.397 57.5381 145.774 57.825C145.176 58.0932 144.333 58.2741 143.376 58.2741C142.419 58.2741 141.576 58.0932 140.978 57.825C140.349 57.5381 140.122 57.22 140.122 56.9767C140.122 56.7335 140.355 56.4154 140.978 56.1285ZM146.636 58.0807V58.9227C146.636 59.166 146.403 59.4841 145.78 59.771C145.189 60.0392 144.339 60.2201 143.382 60.2201C142.426 60.2201 141.582 60.0392 140.985 59.771C140.355 59.4841 140.129 59.166 140.129 58.9227V58.0807C140.311 58.2117 140.506 58.324 140.714 58.4175C141.419 58.7294 142.363 58.9165 143.382 58.9165C144.402 58.9165 145.358 58.7294 146.051 58.4175C146.258 58.3302 146.454 58.2117 146.636 58.0807ZM147.297 56.983C147.297 56.3281 146.73 55.8478 146.051 55.5422C145.346 55.2303 144.402 55.0432 143.382 55.0432C142.363 55.0432 141.406 55.2303 140.714 55.5422C140.047 55.8478 139.468 56.3281 139.468 56.983V62.796C139.468 63.4447 140.034 63.9312 140.714 64.2368C141.419 64.5487 142.363 64.7358 143.382 64.7358C144.402 64.7358 145.358 64.5487 146.051 64.2368C146.718 63.9312 147.297 63.4509 147.297 62.796V56.983ZM146.636 60.0143V60.8563C146.636 61.0995 146.403 61.4176 145.78 61.7045C145.189 61.9727 144.339 62.1536 143.382 62.1536C142.426 62.1536 141.582 61.9727 140.985 61.7045C140.355 61.4176 140.129 61.0995 140.129 60.8563V60.0143C140.311 60.1452 140.506 60.2575 140.714 60.3511C141.419 60.6629 142.363 60.85 143.382 60.85C144.402 60.85 145.358 60.6629 146.051 60.3511C146.258 60.2637 146.454 60.1452 146.636 60.0143ZM146.636 61.954V62.796C146.636 63.0393 146.403 63.3574 145.78 63.6443C145.189 63.9125 144.339 64.0934 143.382 64.0934C142.426 64.0934 141.582 63.9125 140.985 63.6443C140.355 63.3574 140.129 63.0393 140.129 62.796V61.954C140.311 62.085 140.506 62.1973 140.714 62.2908C141.419 62.6027 142.363 62.7898 143.382 62.7898C144.402 62.7898 145.358 62.6027 146.051 62.2908C146.258 62.191 146.466 62.085 146.636 61.954Z" fill="white"/>
<path d="M125.396 20.2458H120.191C117.126 20.2458 114.64 17.832 114.64 14.8818C114.64 12.4119 116.34 10.2975 118.788 9.68C119.027 8.51989 119.795 7.33482 120.89 6.38676C122.331 5.1518 124.188 4.47195 126.088 4.45947C129.933 4.45947 133.112 7.19136 133.558 10.8464C135.849 11.2642 137.542 13.2352 137.542 15.5055C137.542 18.1127 135.339 20.2458 132.646 20.2458H125.383H125.402H125.396ZM126.101 4.98963C124.313 4.98963 122.595 5.63206 121.242 6.79218C120.179 7.69658 119.467 8.85045 119.285 9.94196L119.253 10.1166L119.077 10.1603C116.78 10.6655 115.169 12.6115 115.169 14.8943C115.169 17.57 117.428 19.7406 120.198 19.7406H132.658C135.062 19.7406 137.032 17.8507 137.032 15.5305C137.032 13.4473 135.421 11.6572 133.3 11.3578L133.093 11.3329L133.074 11.127C132.74 7.64044 129.745 5.01458 126.107 5.01458V4.99587L126.101 4.98963Z" fill="white" stroke="white" stroke-width="0.25" stroke-miterlimit="10"/>
<path d="M125.239 12.3557C125.081 12.3557 124.949 12.4805 124.949 12.6426V14.3454C124.949 14.5013 125.075 14.6323 125.239 14.6323H126.957C127.114 14.6323 127.246 14.5075 127.246 14.3454V12.6426C127.246 12.4867 127.12 12.3557 126.957 12.3557H125.239Z" fill="white"/>
<path d="M124.666 9.231C124.666 9.07507 124.54 8.94409 124.376 8.94409C124.213 8.94409 124.087 9.06884 124.087 9.231V10.0855C123.3 10.0855 122.652 10.7217 122.652 11.5076H121.79C121.632 11.5076 121.5 11.6323 121.5 11.7945C121.5 11.9567 121.626 12.0814 121.79 12.0814H122.652V12.649H121.79C121.632 12.649 121.5 12.7737 121.5 12.9359C121.5 13.0981 121.626 13.2228 121.79 13.2228H122.652V13.7904H121.79C121.632 13.7904 121.5 13.9151 121.5 14.0773C121.5 14.2395 121.626 14.3642 121.79 14.3642H122.652V14.9318H121.79C121.632 14.9318 121.5 15.0565 121.5 15.2187C121.5 15.3809 121.626 15.5056 121.79 15.5056H122.652C122.652 16.2853 123.294 16.9277 124.087 16.9277V17.7822C124.087 17.9381 124.213 18.0691 124.376 18.0691C124.54 18.0691 124.666 17.9444 124.666 17.7822V16.9277H125.239V17.7822C125.239 17.9381 125.364 18.0691 125.528 18.0691C125.692 18.0691 125.818 17.9444 125.818 17.7822V16.9277H126.39V17.7822C126.39 17.9381 126.516 18.0691 126.68 18.0691C126.843 18.0691 126.969 17.9444 126.969 17.7822V16.9277H127.542V17.7822C127.542 17.9381 127.668 18.0691 127.831 18.0691C127.995 18.0691 128.121 17.9444 128.121 17.7822V16.9277C128.908 16.9277 129.556 16.2915 129.556 15.5056H130.418C130.575 15.5056 130.707 15.3809 130.707 15.2187C130.707 15.0565 130.582 14.9318 130.418 14.9318H129.556V14.3642H130.418C130.575 14.3642 130.707 14.2395 130.707 14.0773C130.707 13.9151 130.582 13.7904 130.418 13.7904H129.556V13.2228H130.418C130.575 13.2228 130.707 13.0981 130.707 12.9359C130.707 12.7737 130.582 12.649 130.418 12.649H129.556V12.0814H130.418C130.575 12.0814 130.707 11.9567 130.707 11.7945C130.707 11.6323 130.582 11.5076 130.418 11.5076H129.556C129.556 10.7279 128.914 10.0855 128.121 10.0855V9.231C128.121 9.07507 127.995 8.94409 127.831 8.94409C127.668 8.94409 127.542 9.06884 127.542 9.231V10.0855H126.969V9.231C126.969 9.07507 126.843 8.94409 126.68 8.94409C126.516 8.94409 126.39 9.06884 126.39 9.231V10.0855H125.818V9.231C125.818 9.07507 125.692 8.94409 125.528 8.94409C125.364 8.94409 125.239 9.06884 125.239 9.231V10.0855H124.666V9.231ZM125.239 11.7883H126.957C127.429 11.7883 127.819 12.1687 127.819 12.6427V14.3455C127.819 14.8133 127.435 15.2 126.957 15.2H125.239C124.767 15.2 124.376 14.8195 124.376 14.3455V12.6427C124.376 12.175 124.76 11.7883 125.239 11.7883Z" fill="white"/>
<path d="M510.627 38.2028C513.56 38.2028 515.939 35.8639 515.939 32.976C515.939 30.0882 513.56 27.7493 510.627 27.7493C507.694 27.7493 505.315 30.0882 505.315 32.976C505.315 35.8639 507.694 38.2028 510.627 38.2028Z" fill="#02BACE"/>
<path d="M462.74 19.3415C462.74 16.4537 465.119 14.1147 468.052 14.1147H482.218C485.151 14.1147 487.53 16.4537 487.53 19.3415V33.0197C487.53 35.9075 485.151 38.2464 482.218 38.2464H468.052C465.119 38.2464 462.74 35.9075 462.74 33.0197V19.3415Z" fill="#006E58"/>
<path d="M482.923 33.8493H467.737C467.001 33.8493 466.391 33.2568 466.391 32.5146V19.4414C466.391 18.7117 466.988 18.1191 467.737 18.1191H482.923C483.66 18.1191 484.27 18.7117 484.27 19.4414V32.5146C484.27 33.2443 483.672 33.8493 482.923 33.8493ZM467.737 18.6493C467.297 18.6493 466.932 19.0048 466.932 19.4477V32.5208C466.932 32.9574 467.291 33.3192 467.737 33.3192H482.923C483.364 33.3192 483.729 32.9637 483.729 32.5208V19.4477C483.729 19.0111 483.37 18.6493 482.923 18.6493H467.737Z" fill="white"/>
<path d="M482.609 21.1941H466.668V21.7305H482.609V21.1941Z" fill="white"/>
<path d="M481.942 19.6536H481.476V20.19H481.942V19.6536Z" fill="white"/>
<path d="M480.117 19.6536H479.626V20.19H480.117V19.6536Z" fill="white"/>
<path d="M478.266 19.6536H477.775V20.19H478.266V19.6536Z" fill="white"/>
<path d="M475.843 24.0259L474.283 30.8806L474.811 30.9991L476.372 24.1444L475.843 24.0259Z" fill="white"/>
<path d="M478.285 29.9635L477.939 29.558L480.286 27.5497L477.939 25.5351L478.285 25.1296L481.105 27.5497L478.285 29.9635Z" fill="white"/>
<path d="M472.363 29.9635L469.544 27.5497L472.363 25.1296L472.722 25.5351L470.374 27.5497L472.722 29.558L472.363 29.9635Z" fill="white"/>
<path d="M519.582 33.1196C519.582 30.2318 521.961 27.8928 524.894 27.8928H539.06C541.993 27.8928 544.372 30.2318 544.372 33.1196V46.7977C544.372 49.6856 541.993 52.0245 539.06 52.0245H524.894C521.961 52.0245 519.582 49.6856 519.582 46.7977V33.1196Z" fill="#006E58"/>
<path d="M539.438 45.6064C539.438 45.6064 540.432 45.6064 540.432 44.6209C540.432 43.6354 539.438 40.6728 535.454 40.6728C531.471 40.6728 530.476 43.6354 530.476 44.6209C530.476 45.6064 531.471 45.6064 531.471 45.6064H539.438ZM531.496 44.6209H531.477C531.477 44.359 531.641 43.598 532.232 42.9182C532.78 42.282 533.749 41.6582 535.461 41.6582C537.172 41.6582 538.135 42.282 538.689 42.9182C539.281 43.598 539.444 44.3589 539.444 44.6147H539.438H539.426H531.502L531.496 44.6209ZM535.454 38.6956C536.556 38.6956 537.443 37.8099 537.443 36.7246C537.443 35.6394 536.549 34.7537 535.454 34.7537C534.359 34.7537 533.466 35.6394 533.466 36.7246C533.466 37.8099 534.359 38.6956 535.454 38.6956ZM538.444 36.7246C538.444 38.3588 537.103 39.6873 535.454 39.6873C533.806 39.6873 532.465 38.3588 532.465 36.7246C532.465 35.0905 533.806 33.762 535.454 33.762C537.103 33.762 538.444 35.0905 538.444 36.7246ZM531.408 40.9472C531.011 40.8225 530.596 40.7414 530.181 40.704C529.948 40.679 529.715 40.6728 529.476 40.6728C525.492 40.6728 524.498 43.6354 524.498 44.6209C524.498 45.2758 524.831 45.6064 525.492 45.6064H529.69C529.545 45.3008 529.469 44.9577 529.476 44.6209C529.476 43.623 529.853 42.6063 530.558 41.758C530.797 41.4649 531.08 41.1967 531.401 40.9534M529.4 41.6582C528.809 42.5377 528.494 43.5668 528.481 44.6209H525.492C525.492 44.3652 525.656 43.6042 526.247 42.9182C526.788 42.2882 527.732 41.677 529.394 41.6582H529.4ZM525.995 37.2174C525.995 35.5832 527.336 34.2547 528.985 34.2547C530.634 34.2547 531.974 35.5832 531.974 37.2174C531.974 38.8515 530.634 40.18 528.985 40.18C527.336 40.18 525.995 38.8515 525.995 37.2174ZM528.985 35.2402C527.883 35.2402 526.996 36.1259 526.996 37.2111C526.996 38.2964 527.89 39.1821 528.985 39.1821C530.08 39.1821 530.973 38.2964 530.973 37.2111C530.973 36.1259 530.08 35.2402 528.985 35.2402Z" fill="white"/>
<path d="M453.968 52.3549C456.9 52.3549 459.279 50.016 459.279 47.1281C459.279 44.2403 456.9 41.9014 453.968 41.9014C451.035 41.9014 448.656 44.2403 448.656 47.1281C448.656 50.016 451.035 52.3549 453.968 52.3549Z" fill="#3578E6"/>
<path d="M453.968 66.2826C456.9 66.2826 459.279 63.9437 459.279 61.0559C459.279 58.168 456.9 55.8291 453.968 55.8291C451.035 55.8291 448.656 58.168 448.656 61.0559C448.656 63.9437 451.035 66.2826 453.968 66.2826Z" fill="#FF35A1"/>
<path d="M268.262 28.6972C268.262 30.506 266.783 31.9655 264.964 31.9655C263.146 31.9655 261.667 30.4998 261.667 28.6972C261.667 26.8947 263.146 25.429 264.964 25.429C266.783 25.429 268.262 26.8947 268.262 28.6972Z" fill="#01192D"/>
<path d="M268.262 22.1545C268.262 23.9633 266.783 25.4228 264.964 25.4228C263.146 25.4228 261.667 23.9571 261.667 22.1545C261.667 20.352 263.146 18.8862 264.964 18.8862C266.783 18.8862 268.262 20.352 268.262 22.1545Z" fill="#01192D"/>
<path d="M195.92 31.6164C195.215 31.5103 194.51 31.4542 193.855 31.4542C188.972 31.4542 186.744 34.2547 186.744 39.1509V51.6315H180.444V25.4291H186.58V29.6267C187.826 26.7763 190.759 25.1047 194.233 25.1047C194.994 25.1047 195.643 25.2108 195.913 25.2669V31.6164" fill="#01192D"/>
<path d="M218.293 35.6455C218.186 32.5768 216.121 29.8325 211.779 29.8325C207.814 29.8325 205.536 32.845 205.316 35.6455H218.293ZM224.315 44.1468C222.906 48.7187 218.721 52.436 212.371 52.436C205.202 52.436 198.852 47.2716 198.852 38.3899C198.852 30.1007 205.039 24.6182 211.722 24.6182C219.866 24.6182 224.643 29.9447 224.643 38.234C224.643 39.2569 224.536 40.1176 224.479 40.2236H205.152C205.316 44.2029 208.462 47.0596 212.371 47.0596C216.279 47.0596 218.123 45.0699 218.997 42.4877L224.315 44.153" fill="#01192D"/>
<path d="M236.965 51.6315H230.665V25.429H236.801V28.9281C238.538 25.9155 241.685 24.6743 244.618 24.6743C251.081 24.6743 254.171 29.3023 254.171 35.0592V51.6315H247.872V36.132C247.872 32.9012 246.405 30.319 242.44 30.319C238.859 30.319 236.959 33.0633 236.959 36.5063V51.6252" fill="#01192D"/>
<path d="M275.732 36.5126L286.809 51.6315H279.099L271.333 40.9223L268.073 44.3091V51.6253H261.83V41.7144L278.225 25.4229H286.588L275.732 36.5063" fill="#01192D"/>
<path d="M300.818 52.38C294.518 52.38 290.83 47.752 290.83 41.9389V25.4229H297.13V40.81C297.13 44.0409 298.653 46.7852 302.448 46.7852C306.243 46.7852 307.986 44.3652 307.986 40.9223V25.4229H314.286V46.8351C314.286 48.987 314.449 50.6523 314.556 51.6253H308.527C308.42 51.0328 308.307 49.7978 308.307 48.7188C307.004 51.0889 303.908 52.38 300.818 52.38Z" fill="#01192D"/>
<path d="M343.418 10.8529C343.418 11.907 344.28 12.7615 345.344 12.7615C346.407 12.7615 347.269 11.907 347.269 10.8529V3.25599C347.269 2.20191 346.407 1.34741 345.344 1.34741C344.28 1.34741 343.418 2.20191 343.418 3.25599V10.8529Z" fill="#FBBD00"/>
<path d="M416.566 60.4636C416.566 61.5176 417.428 62.3721 418.492 62.3721C419.555 62.3721 420.418 61.5176 420.418 60.4636V52.8292C420.418 51.7751 419.555 50.9207 418.492 50.9207C417.428 50.9207 416.566 51.7751 416.566 52.8292V60.4636Z" fill="#FBBD00"/>
<path d="M406.937 5.13332C408.001 5.13332 408.863 4.27883 408.863 3.22474C408.863 2.17066 408.001 1.31616 406.937 1.31616H399.234C398.17 1.31616 397.308 2.17066 397.308 3.22474C397.308 4.27883 398.17 5.13332 399.234 5.13332H406.937Z" fill="#FBBD00"/>
<path d="M395.389 5.13332C394.325 5.13332 393.463 4.27883 393.463 3.22474C393.463 2.17066 394.325 1.31616 395.389 1.31616C396.452 1.31616 397.314 2.17066 397.314 3.22474C397.314 4.27883 396.452 5.13332 395.389 5.13332Z" fill="#01192D"/>
<path d="M399.24 1.31616C398.177 1.31616 397.314 2.17066 397.314 3.22474C397.314 4.27883 398.177 5.13332 399.24 5.13332C400.304 5.13332 401.166 4.27883 401.166 3.22474C401.166 2.17066 400.304 1.31616 399.24 1.31616Z" fill="#006E58"/>
<path d="M403.092 5.13332C402.028 5.13332 401.166 4.27883 401.166 3.22474C401.166 2.17066 402.028 1.31616 403.092 1.31616C404.155 1.31616 405.018 2.17066 405.018 3.22474C405.018 4.27883 404.155 5.13332 403.092 5.13332Z" fill="#FBBD00"/>
<path d="M406.937 1.31616C405.873 1.31616 405.011 2.17066 405.011 3.22474C405.011 4.27883 405.873 5.13332 406.937 5.13332C408.001 5.13332 408.863 4.27883 408.863 3.22474C408.863 2.17066 408.001 1.31616 406.937 1.31616Z" fill="#3578E6"/>
<path d="M410.789 5.13332C409.725 5.13332 408.863 4.27883 408.863 3.22474C408.863 2.17066 409.725 1.31616 410.789 1.31616C411.852 1.31616 412.714 2.17066 412.714 3.22474C412.714 4.27883 411.852 5.13332 410.789 5.13332Z" fill="#01192D"/>
<path d="M414.64 1.31616C413.577 1.31616 412.714 2.17066 412.714 3.22474C412.714 4.27883 413.577 5.13332 414.64 5.13332C415.704 5.13332 416.566 4.27883 416.566 3.22474C416.566 2.17066 415.704 1.31616 414.64 1.31616Z" fill="#01192D"/>
<path d="M391.537 5.1333C390.474 5.1333 389.611 5.9878 389.611 7.04188C389.611 8.09597 390.474 8.95046 391.537 8.95046C392.601 8.95046 393.463 8.09597 393.463 7.04188C393.463 5.9878 392.601 5.1333 391.537 5.1333Z" fill="#01192D"/>
<path d="M395.389 8.95046C394.325 8.95046 393.463 8.09597 393.463 7.04188C393.463 5.9878 394.325 5.1333 395.389 5.1333C396.452 5.1333 397.314 5.9878 397.314 7.04188C397.314 8.09597 396.452 8.95046 395.389 8.95046Z" fill="#01192D"/>
<path d="M399.24 5.1333C398.177 5.1333 397.314 5.9878 397.314 7.04188C397.314 8.09597 398.177 8.95046 399.24 8.95046C400.304 8.95046 401.166 8.09597 401.166 7.04188C401.166 5.9878 400.304 5.1333 399.24 5.1333Z" fill="#01192D"/>
<path d="M403.092 8.95046C402.028 8.95046 401.166 8.09597 401.166 7.04188C401.166 5.9878 402.028 5.1333 403.092 5.1333C404.155 5.1333 405.018 5.9878 405.018 7.04188C405.018 8.09597 404.155 8.95046 403.092 8.95046Z" fill="#01192D"/>
<path d="M406.937 5.1333C405.873 5.1333 405.011 5.9878 405.011 7.04188C405.011 8.09597 405.873 8.95046 406.937 8.95046C408.001 8.95046 408.863 8.09597 408.863 7.04188C408.863 5.9878 408.001 5.1333 406.937 5.1333Z" fill="#01192D"/>
<path d="M410.789 8.95046C409.725 8.95046 408.863 8.09597 408.863 7.04188C408.863 5.9878 409.725 5.1333 410.789 5.1333C411.852 5.1333 412.714 5.9878 412.714 7.04188C412.714 8.09597 411.852 8.95046 410.789 8.95046Z" fill="#01192D"/>
<path d="M414.64 5.1333C413.577 5.1333 412.714 5.9878 412.714 7.04188C412.714 8.09597 413.577 8.95046 414.64 8.95046C415.704 8.95046 416.566 8.09597 416.566 7.04188C416.566 5.9878 415.704 5.1333 414.64 5.1333Z" fill="#01192D"/>
<path d="M418.492 8.95046C417.428 8.95046 416.566 8.09597 416.566 7.04188C416.566 5.9878 417.428 5.1333 418.492 5.1333C419.555 5.1333 420.418 5.9878 420.418 7.04188C420.418 8.09597 419.555 8.95046 418.492 8.95046Z" fill="#01192D"/>
<path d="M391.537 8.95044C390.474 8.95044 389.611 9.80493 389.611 10.859C389.611 11.9131 390.474 12.7676 391.537 12.7676C392.601 12.7676 393.463 11.9131 393.463 10.859C393.463 9.80493 392.601 8.95044 391.537 8.95044Z" fill="#01192D"/>
<path d="M395.389 12.7676C394.325 12.7676 393.463 11.9131 393.463 10.859C393.463 9.80493 394.325 8.95044 395.389 8.95044C396.452 8.95044 397.314 9.80493 397.314 10.859C397.314 11.9131 396.452 12.7676 395.389 12.7676Z" fill="#01192D"/>
<path d="M414.64 8.95044C413.577 8.95044 412.714 9.80493 412.714 10.859C412.714 11.9131 413.577 12.7676 414.64 12.7676C415.704 12.7676 416.566 11.9131 416.566 10.859C416.566 9.80493 415.704 8.95044 414.64 8.95044Z" fill="#01192D"/>
<path d="M418.492 12.7676C417.428 12.7676 416.566 11.9131 416.566 10.859C416.566 9.80493 417.428 8.95044 418.492 8.95044C419.555 8.95044 420.418 9.80493 420.418 10.859C420.418 11.9131 419.555 12.7676 418.492 12.7676Z" fill="#01192D"/>
<path d="M391.537 12.7676C390.474 12.7676 389.611 13.6221 389.611 14.6762C389.611 15.7302 390.474 16.5847 391.537 16.5847C392.601 16.5847 393.463 15.7302 393.463 14.6762C393.463 13.6221 392.601 12.7676 391.537 12.7676Z" fill="#01192D"/>
<path d="M395.389 16.5847C394.325 16.5847 393.463 15.7302 393.463 14.6762C393.463 13.6221 394.325 12.7676 395.389 12.7676C396.452 12.7676 397.314 13.6221 397.314 14.6762C397.314 15.7302 396.452 16.5847 395.389 16.5847Z" fill="#01192D"/>
<path d="M414.64 12.7676C413.577 12.7676 412.714 13.6221 412.714 14.6762C412.714 15.7302 413.577 16.5847 414.64 16.5847C415.704 16.5847 416.566 15.7302 416.566 14.6762C416.566 13.6221 415.704 12.7676 414.64 12.7676Z" fill="#01192D"/>
<path d="M418.492 16.5847C417.428 16.5847 416.566 15.7302 416.566 14.6762C416.566 13.6221 417.428 12.7676 418.492 12.7676C419.555 12.7676 420.418 13.6221 420.418 14.6762C420.418 15.7302 419.555 16.5847 418.492 16.5847Z" fill="#006E58"/>
<path d="M391.537 16.5847C390.474 16.5847 389.611 17.4392 389.611 18.4933C389.611 19.5474 390.474 20.4019 391.537 20.4019C392.601 20.4019 393.463 19.5474 393.463 18.4933C393.463 17.4392 392.601 16.5847 391.537 16.5847Z" fill="#01192D"/>
<path d="M395.389 20.3958C394.325 20.3958 393.463 19.5413 393.463 18.4872C393.463 17.4331 394.325 16.5786 395.389 16.5786C396.452 16.5786 397.314 17.4331 397.314 18.4872C397.314 19.5413 396.452 20.3958 395.389 20.3958Z" fill="#01192D"/>
<path d="M414.64 16.5847C413.577 16.5847 412.714 17.4392 412.714 18.4933C412.714 19.5474 413.577 20.4019 414.64 20.4019C415.704 20.4019 416.566 19.5474 416.566 18.4933C416.566 17.4392 415.704 16.5847 414.64 16.5847Z" fill="#01192D"/>
<path d="M418.492 20.3958C417.428 20.3958 416.566 19.5413 416.566 18.4872C416.566 17.4331 417.428 16.5786 418.492 16.5786C419.555 16.5786 420.418 17.4331 420.418 18.4872C420.418 19.5413 419.555 20.3958 418.492 20.3958Z" fill="#01192D"/>
<path d="M391.537 20.3958C390.474 20.3958 389.611 21.2502 389.611 22.3043C389.611 23.3584 390.474 24.2129 391.537 24.2129C392.601 24.2129 393.463 23.3584 393.463 22.3043C393.463 21.2502 392.601 20.3958 391.537 20.3958Z" fill="#01192D"/>
<path d="M395.389 24.2129C394.325 24.2129 393.463 23.3584 393.463 22.3043C393.463 21.2502 394.325 20.3958 395.389 20.3958C396.452 20.3958 397.314 21.2502 397.314 22.3043C397.314 23.3584 396.452 24.2129 395.389 24.2129Z" fill="#01192D"/>
<path d="M414.64 20.3958C413.577 20.3958 412.714 21.2502 412.714 22.3043C412.714 23.3584 413.577 24.2129 414.64 24.2129C415.704 24.2129 416.566 23.3584 416.566 22.3043C416.566 21.2502 415.704 20.3958 414.64 20.3958Z" fill="#01192D"/>
<path d="M418.492 24.2129C417.428 24.2129 416.566 23.3584 416.566 22.3043C416.566 21.2502 417.428 20.3958 418.492 20.3958C419.555 20.3958 420.418 21.2502 420.418 22.3043C420.418 23.3584 419.555 24.2129 418.492 24.2129Z" fill="#01192D"/>
<path d="M391.537 24.2129C390.474 24.2129 389.611 25.0674 389.611 26.1215C389.611 27.1756 390.474 28.0301 391.537 28.0301C392.601 28.0301 393.463 27.1756 393.463 26.1215C393.463 25.0674 392.601 24.2129 391.537 24.2129Z" fill="#01192D"/>
<path d="M395.389 28.0301C394.325 28.0301 393.463 27.1756 393.463 26.1215C393.463 25.0674 394.325 24.2129 395.389 24.2129C396.452 24.2129 397.314 25.0674 397.314 26.1215C397.314 27.1756 396.452 28.0301 395.389 28.0301Z" fill="#F9E450"/>
<path d="M414.64 24.2129C413.577 24.2129 412.714 25.0674 412.714 26.1215C412.714 27.1756 413.577 28.0301 414.64 28.0301C415.704 28.0301 416.566 27.1756 416.566 26.1215C416.566 25.0674 415.704 24.2129 414.64 24.2129Z" fill="#01192D"/>
<path d="M418.492 28.0301C417.428 28.0301 416.566 27.1756 416.566 26.1215C416.566 25.0674 417.428 24.2129 418.492 24.2129C419.555 24.2129 420.418 25.0674 420.418 26.1215C420.418 27.1756 419.555 28.0301 418.492 28.0301Z" fill="#01192D"/>
<path d="M391.537 28.03C390.474 28.03 389.611 28.8845 389.611 29.9386C389.611 30.9927 390.474 31.8472 391.537 31.8472C392.601 31.8472 393.463 30.9927 393.463 29.9386C393.463 28.8845 392.601 28.03 391.537 28.03Z" fill="#01192D"/>
<path d="M395.389 31.8472C394.325 31.8472 393.463 30.9927 393.463 29.9386C393.463 28.8845 394.325 28.03 395.389 28.03C396.452 28.03 397.314 28.8845 397.314 29.9386C397.314 30.9927 396.452 31.8472 395.389 31.8472Z" fill="#F9E450"/>
<path d="M414.64 28.03C413.577 28.03 412.714 28.8845 412.714 29.9386C412.714 30.9927 413.577 31.8472 414.64 31.8472C415.704 31.8472 416.566 30.9927 416.566 29.9386C416.566 28.8845 415.704 28.03 414.64 28.03Z" fill="#01192D"/>
<path d="M418.492 31.8472C417.428 31.8472 416.566 30.9927 416.566 29.9386C416.566 28.8845 417.428 28.03 418.492 28.03C419.555 28.03 420.418 28.8845 420.418 29.9386C420.418 30.9927 419.555 31.8472 418.492 31.8472Z" fill="#01192D"/>
<path d="M391.537 31.8472C390.474 31.8472 389.611 32.7017 389.611 33.7557C389.611 34.8098 390.474 35.6643 391.537 35.6643C392.601 35.6643 393.463 34.8098 393.463 33.7557C393.463 32.7017 392.601 31.8472 391.537 31.8472Z" fill="#01192D"/>
<path d="M395.389 35.6582C394.325 35.6582 393.463 34.8037 393.463 33.7496C393.463 32.6956 394.325 31.8411 395.389 31.8411C396.452 31.8411 397.314 32.6956 397.314 33.7496C397.314 34.8037 396.452 35.6582 395.389 35.6582Z" fill="#01192D"/>
<path d="M414.64 31.8472C413.577 31.8472 412.714 32.7017 412.714 33.7557C412.714 34.8098 413.577 35.6643 414.64 35.6643C415.704 35.6643 416.566 34.8098 416.566 33.7557C416.566 32.7017 415.704 31.8472 414.64 31.8472Z" fill="#01192D"/>
<path d="M418.492 35.6582C417.428 35.6582 416.566 34.8037 416.566 33.7496C416.566 32.6956 417.428 31.8411 418.492 31.8411C419.555 31.8411 420.418 32.6956 420.418 33.7496C420.418 34.8037 419.555 35.6582 418.492 35.6582Z" fill="#01192D"/>
<path d="M391.537 35.6582C390.474 35.6582 389.611 36.5127 389.611 37.5668C389.611 38.6209 390.474 39.4754 391.537 39.4754C392.601 39.4754 393.463 38.6209 393.463 37.5668C393.463 36.5127 392.601 35.6582 391.537 35.6582Z" fill="#01192D"/>
<path d="M395.389 39.4754C394.325 39.4754 393.463 38.6209 393.463 37.5668C393.463 36.5127 394.325 35.6582 395.389 35.6582C396.452 35.6582 397.314 36.5127 397.314 37.5668C397.314 38.6209 396.452 39.4754 395.389 39.4754Z" fill="#01192D"/>
<path d="M414.64 35.6582C413.577 35.6582 412.714 36.5127 412.714 37.5668C412.714 38.6209 413.577 39.4754 414.64 39.4754C415.704 39.4754 416.566 38.6209 416.566 37.5668C416.566 36.5127 415.704 35.6582 414.64 35.6582Z" fill="#01192D"/>
<path d="M418.492 39.4754C417.428 39.4754 416.566 38.6209 416.566 37.5668C416.566 36.5127 417.428 35.6582 418.492 35.6582C419.555 35.6582 420.418 36.5127 420.418 37.5668C420.418 38.6209 419.555 39.4754 418.492 39.4754Z" fill="#01192D"/>
<path d="M391.537 39.4753C390.474 39.4753 389.611 40.3298 389.611 41.3839C389.611 42.438 390.474 43.2925 391.537 43.2925C392.601 43.2925 393.463 42.438 393.463 41.3839C393.463 40.3298 392.601 39.4753 391.537 39.4753Z" fill="#01192D"/>
<path d="M395.389 43.2925C394.325 43.2925 393.463 42.438 393.463 41.3839C393.463 40.3298 394.325 39.4753 395.389 39.4753C396.452 39.4753 397.314 40.3298 397.314 41.3839C397.314 42.438 396.452 43.2925 395.389 43.2925Z" fill="#F9E450"/>
<path d="M414.64 39.4753C413.577 39.4753 412.714 40.3298 412.714 41.3839C412.714 42.438 413.577 43.2925 414.64 43.2925C415.704 43.2925 416.566 42.438 416.566 41.3839C416.566 40.3298 415.704 39.4753 414.64 39.4753Z" fill="#F9E450"/>
<path d="M418.492 43.2925C417.428 43.2925 416.566 42.438 416.566 41.3839C416.566 40.3298 417.428 39.4753 418.492 39.4753C419.555 39.4753 420.418 40.3298 420.418 41.3839C420.418 42.438 419.555 43.2925 418.492 43.2925Z" fill="#01192D"/>
<path d="M391.537 43.2925C390.474 43.2925 389.611 44.147 389.611 45.2011C389.611 46.2551 390.474 47.1096 391.537 47.1096C392.601 47.1096 393.463 46.2551 393.463 45.2011C393.463 44.147 392.601 43.2925 391.537 43.2925Z" fill="#01192D"/>
<path d="M395.389 47.1096C394.325 47.1096 393.463 46.2551 393.463 45.2011C393.463 44.147 394.325 43.2925 395.389 43.2925C396.452 43.2925 397.314 44.147 397.314 45.2011C397.314 46.2551 396.452 47.1096 395.389 47.1096Z" fill="#01192D"/>
<path d="M414.64 43.2925C413.577 43.2925 412.714 44.147 412.714 45.2011C412.714 46.2551 413.577 47.1096 414.64 47.1096C415.704 47.1096 416.566 46.2551 416.566 45.2011C416.566 44.147 415.704 43.2925 414.64 43.2925Z" fill="#01192D"/>
<path d="M418.492 47.1096C417.428 47.1096 416.566 46.2551 416.566 45.2011C416.566 44.147 417.428 43.2925 418.492 43.2925C419.555 43.2925 420.418 44.147 420.418 45.2011C420.418 46.2551 419.555 47.1096 418.492 47.1096Z" fill="#01192D"/>
<path d="M391.537 47.1096C390.474 47.1096 389.611 47.9641 389.611 49.0182C389.611 50.0723 390.474 50.9268 391.537 50.9268C392.601 50.9268 393.463 50.0723 393.463 49.0182C393.463 47.9641 392.601 47.1096 391.537 47.1096Z" fill="#01192D"/>
<path d="M395.389 50.9204C394.325 50.9204 393.463 50.0659 393.463 49.0119C393.463 47.9578 394.325 47.1033 395.389 47.1033C396.452 47.1033 397.314 47.9578 397.314 49.0119C397.314 50.0659 396.452 50.9204 395.389 50.9204Z" fill="#01192D"/>
<path d="M414.64 47.1096C413.577 47.1096 412.714 47.9641 412.714 49.0182C412.714 50.0723 413.577 50.9268 414.64 50.9268C415.704 50.9268 416.566 50.0723 416.566 49.0182C416.566 47.9641 415.704 47.1096 414.64 47.1096Z" fill="#01192D"/>
<path d="M418.492 50.9204C417.428 50.9204 416.566 50.0659 416.566 49.0119C416.566 47.9578 417.428 47.1033 418.492 47.1033C419.555 47.1033 420.418 47.9578 420.418 49.0119C420.418 50.0659 419.555 50.9204 418.492 50.9204Z" fill="#01192D"/>
<path d="M391.537 50.9207C390.474 50.9207 389.611 51.7751 389.611 52.8292C389.611 53.8833 390.474 54.7378 391.537 54.7378C392.601 54.7378 393.463 53.8833 393.463 52.8292C393.463 51.7751 392.601 50.9207 391.537 50.9207Z" fill="#01192D"/>
<path d="M395.389 54.7378C394.325 54.7378 393.463 53.8833 393.463 52.8292C393.463 51.7751 394.325 50.9207 395.389 50.9207C396.452 50.9207 397.314 51.7751 397.314 52.8292C397.314 53.8833 396.452 54.7378 395.389 54.7378Z" fill="#1DBB91"/>
<path d="M414.64 50.9207C413.577 50.9207 412.714 51.7751 412.714 52.8292C412.714 53.8833 413.577 54.7378 414.64 54.7378C415.704 54.7378 416.566 53.8833 416.566 52.8292C416.566 51.7751 415.704 50.9207 414.64 50.9207Z" fill="#01192D"/>
<path d="M418.492 54.7378C417.428 54.7378 416.566 53.8833 416.566 52.8292C416.566 51.7751 417.428 50.9207 418.492 50.9207C419.555 50.9207 420.418 51.7751 420.418 52.8292C420.418 53.8833 419.555 54.7378 418.492 54.7378Z" fill="#FF5790"/>
<path d="M391.537 54.7378C390.474 54.7378 389.611 55.5923 389.611 56.6464C389.611 57.7005 390.474 58.555 391.537 58.555C392.601 58.555 393.463 57.7005 393.463 56.6464C393.463 55.5923 392.601 54.7378 391.537 54.7378Z" fill="#01192D"/>
<path d="M395.389 58.555C394.325 58.555 393.463 57.7005 393.463 56.6464C393.463 55.5923 394.325 54.7378 395.389 54.7378C396.452 54.7378 397.314 55.5923 397.314 56.6464C397.314 57.7005 396.452 58.555 395.389 58.555Z" fill="#01192D"/>
<path d="M414.64 54.7378C413.577 54.7378 412.714 55.5923 412.714 56.6464C412.714 57.7005 413.577 58.555 414.64 58.555C415.704 58.555 416.566 57.7005 416.566 56.6464C416.566 55.5923 415.704 54.7378 414.64 54.7378Z" fill="#01192D"/>
<path d="M418.492 58.555C417.428 58.555 416.566 57.7005 416.566 56.6464C416.566 55.5923 417.428 54.7378 418.492 54.7378C419.555 54.7378 420.418 55.5923 420.418 56.6464C420.418 57.7005 419.555 58.555 418.492 58.555Z" fill="#FBBD00"/>
<path d="M391.537 58.5549C390.474 58.5549 389.611 59.4094 389.611 60.4635C389.611 61.5176 390.474 62.3721 391.537 62.3721C392.601 62.3721 393.463 61.5176 393.463 60.4635C393.463 59.4094 392.601 58.5549 391.537 58.5549Z" fill="#01192D"/>
<path d="M395.389 62.3721C394.325 62.3721 393.463 61.5176 393.463 60.4635C393.463 59.4094 394.325 58.5549 395.389 58.5549C396.452 58.5549 397.314 59.4094 397.314 60.4635C397.314 61.5176 396.452 62.3721 395.389 62.3721Z" fill="#01192D"/>
<path d="M414.64 58.5549C413.577 58.5549 412.714 59.4094 412.714 60.4635C412.714 61.5176 413.577 62.3721 414.64 62.3721C415.704 62.3721 416.566 61.5176 416.566 60.4635C416.566 59.4094 415.704 58.5549 414.64 58.5549Z" fill="#795ADF"/>
<path d="M418.492 62.3721C417.428 62.3721 416.566 61.5176 416.566 60.4635C416.566 59.4094 417.428 58.5549 418.492 58.5549C419.555 58.5549 420.418 59.4094 420.418 60.4635C420.418 61.5176 419.555 62.3721 418.492 62.3721Z" fill="#1DBB91"/>
<path d="M391.537 62.3721C390.474 62.3721 389.611 63.2266 389.611 64.2806C389.611 65.3347 390.474 66.1892 391.537 66.1892C392.601 66.1892 393.463 65.3347 393.463 64.2806C393.463 63.2266 392.601 62.3721 391.537 62.3721Z" fill="#01192D"/>
<path d="M395.389 66.1892C394.325 66.1892 393.463 65.3347 393.463 64.2806C393.463 63.2266 394.325 62.3721 395.389 62.3721C396.452 62.3721 397.314 63.2266 397.314 64.2806C397.314 65.3347 396.452 66.1892 395.389 66.1892Z" fill="#01192D"/>
<path d="M399.24 62.3721C398.177 62.3721 397.314 63.2266 397.314 64.2806C397.314 65.3347 398.177 66.1892 399.24 66.1892C400.304 66.1892 401.166 65.3347 401.166 64.2806C401.166 63.2266 400.304 62.3721 399.24 62.3721Z" fill="#01192D"/>
<path d="M403.092 66.1892C402.028 66.1892 401.166 65.3347 401.166 64.2806C401.166 63.2266 402.028 62.3721 403.092 62.3721C404.155 62.3721 405.018 63.2266 405.018 64.2806C405.018 65.3347 404.155 66.1892 403.092 66.1892Z" fill="#01192D"/>
<path d="M406.937 62.3721C405.873 62.3721 405.011 63.2266 405.011 64.2806C405.011 65.3347 405.873 66.1892 406.937 66.1892C408.001 66.1892 408.863 65.3347 408.863 64.2806C408.863 63.2266 408.001 62.3721 406.937 62.3721Z" fill="#01192D"/>
<path d="M410.789 66.1892C409.725 66.1892 408.863 65.3347 408.863 64.2806C408.863 63.2266 409.725 62.3721 410.789 62.3721C411.852 62.3721 412.714 63.2266 412.714 64.2806C412.714 65.3347 411.852 66.1892 410.789 66.1892Z" fill="#01192D"/>
<path d="M414.64 62.3721C413.577 62.3721 412.714 63.2266 412.714 64.2806C412.714 65.3347 413.577 66.1892 414.64 66.1892C415.704 66.1892 416.566 65.3347 416.566 64.2806C416.566 63.2266 415.704 62.3721 414.64 62.3721Z" fill="#01192D"/>
<path d="M418.492 66.1892C417.428 66.1892 416.566 65.3347 416.566 64.2806C416.566 63.2266 417.428 62.3721 418.492 62.3721C419.555 62.3721 420.418 63.2266 420.418 64.2806C420.418 65.3347 419.555 66.1892 418.492 66.1892Z" fill="#01192D"/>
<path d="M395.389 70C394.325 70 393.463 69.1455 393.463 68.0914C393.463 67.0374 394.325 66.1829 395.389 66.1829C396.452 66.1829 397.314 67.0374 397.314 68.0914C397.314 69.1455 396.452 70 395.389 70Z" fill="#01192D"/>
<path d="M399.24 66.1892C398.177 66.1892 397.314 67.0437 397.314 68.0978C397.314 69.1519 398.177 70.0064 399.24 70.0064C400.304 70.0064 401.166 69.1519 401.166 68.0978C401.166 67.0437 400.304 66.1892 399.24 66.1892Z" fill="#01192D"/>
<path d="M403.092 70C402.028 70 401.166 69.1455 401.166 68.0914C401.166 67.0374 402.028 66.1829 403.092 66.1829C404.155 66.1829 405.018 67.0374 405.018 68.0914C405.018 69.1455 404.155 70 403.092 70Z" fill="#01192D"/>
<path d="M406.937 66.1892C405.873 66.1892 405.011 67.0437 405.011 68.0978C405.011 69.1519 405.873 70.0064 406.937 70.0064C408.001 70.0064 408.863 69.1519 408.863 68.0978C408.863 67.0437 408.001 66.1892 406.937 66.1892Z" fill="#01192D"/>
<path d="M410.789 70C409.725 70 408.863 69.1455 408.863 68.0914C408.863 67.0374 409.725 66.1829 410.789 66.1829C411.852 66.1829 412.714 67.0374 412.714 68.0914C412.714 69.1455 411.852 70 410.789 70Z" fill="#01192D"/>
<path d="M414.64 66.1892C413.577 66.1892 412.714 67.0437 412.714 68.0978C412.714 69.1519 413.577 70.0064 414.64 70.0064C415.704 70.0064 416.566 69.1519 416.566 68.0978C416.566 67.0437 415.704 66.1892 414.64 66.1892Z" fill="#01192D"/>
<path d="M345.312 5.13332C344.249 5.13332 343.386 4.27883 343.386 3.22474C343.386 2.17066 344.249 1.31616 345.312 1.31616C346.376 1.31616 347.238 2.17066 347.238 3.22474C347.238 4.27883 346.376 5.13332 345.312 5.13332Z" fill="#3578E6"/>
<path d="M349.157 1.31616C348.094 1.31616 347.232 2.17066 347.232 3.22474C347.232 4.27883 348.094 5.13332 349.157 5.13332C350.221 5.13332 351.083 4.27883 351.083 3.22474C351.083 2.17066 350.221 1.31616 349.157 1.31616Z" fill="#01192D"/>
<path d="M353.009 5.13332C351.945 5.13332 351.083 4.27883 351.083 3.22474C351.083 2.17066 351.945 1.31616 353.009 1.31616C354.072 1.31616 354.935 2.17066 354.935 3.22474C354.935 4.27883 354.072 5.13332 353.009 5.13332Z" fill="#01192D"/>
<path d="M356.86 1.31616C355.797 1.31616 354.935 2.17066 354.935 3.22474C354.935 4.27883 355.797 5.13332 356.86 5.13332C357.924 5.13332 358.786 4.27883 358.786 3.22474C358.786 2.17066 357.924 1.31616 356.86 1.31616Z" fill="#01192D"/>
<path d="M360.712 5.13332C359.648 5.13332 358.786 4.27883 358.786 3.22474C358.786 2.17066 359.648 1.31616 360.712 1.31616C361.776 1.31616 362.638 2.17066 362.638 3.22474C362.638 4.27883 361.776 5.13332 360.712 5.13332Z" fill="#01192D"/>
<path d="M364.564 1.31616C363.5 1.31616 362.638 2.17066 362.638 3.22474C362.638 4.27883 363.5 5.13332 364.564 5.13332C365.627 5.13332 366.489 4.27883 366.489 3.22474C366.489 2.17066 365.627 1.31616 364.564 1.31616Z" fill="#01192D"/>
<path d="M341.461 5.1333C340.397 5.1333 339.535 5.9878 339.535 7.04188C339.535 8.09597 340.397 8.95046 341.461 8.95046C342.524 8.95046 343.386 8.09597 343.386 7.04188C343.386 5.9878 342.524 5.1333 341.461 5.1333Z" fill="#01192D"/>
<path d="M345.312 8.95046C344.249 8.95046 343.386 8.09597 343.386 7.04188C343.386 5.9878 344.249 5.1333 345.312 5.1333C346.376 5.1333 347.238 5.9878 347.238 7.04188C347.238 8.09597 346.376 8.95046 345.312 8.95046Z" fill="#01192D"/>
<path d="M349.157 5.1333C348.094 5.1333 347.232 5.9878 347.232 7.04188C347.232 8.09597 348.094 8.95046 349.157 8.95046C350.221 8.95046 351.083 8.09597 351.083 7.04188C351.083 5.9878 350.221 5.1333 349.157 5.1333Z" fill="#01192D"/>
<path d="M353.009 8.95046C351.945 8.95046 351.083 8.09597 351.083 7.04188C351.083 5.9878 351.945 5.1333 353.009 5.1333C354.072 5.1333 354.935 5.9878 354.935 7.04188C354.935 8.09597 354.072 8.95046 353.009 8.95046Z" fill="#01192D"/>
<path d="M356.86 5.1333C355.797 5.1333 354.935 5.9878 354.935 7.04188C354.935 8.09597 355.797 8.95046 356.86 8.95046C357.924 8.95046 358.786 8.09597 358.786 7.04188C358.786 5.9878 357.924 5.1333 356.86 5.1333Z" fill="#01192D"/>
<path d="M360.712 8.95046C359.648 8.95046 358.786 8.09597 358.786 7.04188C358.786 5.9878 359.648 5.1333 360.712 5.1333C361.776 5.1333 362.638 5.9878 362.638 7.04188C362.638 8.09597 361.776 8.95046 360.712 8.95046Z" fill="#01192D"/>
<path d="M364.564 5.1333C363.5 5.1333 362.638 5.9878 362.638 7.04188C362.638 8.09597 363.5 8.95046 364.564 8.95046C365.627 8.95046 366.489 8.09597 366.489 7.04188C366.489 5.9878 365.627 5.1333 364.564 5.1333Z" fill="#01192D"/>
<path d="M368.409 8.95046C367.345 8.95046 366.483 8.09597 366.483 7.04188C366.483 5.9878 367.345 5.1333 368.409 5.1333C369.472 5.1333 370.335 5.9878 370.335 7.04188C370.335 8.09597 369.472 8.95046 368.409 8.95046Z" fill="#01192D"/>
<path d="M341.461 8.95044C340.397 8.95044 339.535 9.80493 339.535 10.859C339.535 11.9131 340.397 12.7676 341.461 12.7676C342.524 12.7676 343.386 11.9131 343.386 10.859C343.386 9.80493 342.524 8.95044 341.461 8.95044Z" fill="#01192D"/>
<path d="M345.312 12.7676C344.249 12.7676 343.386 11.9131 343.386 10.859C343.386 9.80493 344.249 8.95044 345.312 8.95044C346.376 8.95044 347.238 9.80493 347.238 10.859C347.238 11.9131 346.376 12.7676 345.312 12.7676Z" fill="#FF5790"/>
<path d="M364.564 8.95044C363.5 8.95044 362.638 9.80493 362.638 10.859C362.638 11.9131 363.5 12.7676 364.564 12.7676C365.627 12.7676 366.489 11.9131 366.489 10.859C366.489 9.80493 365.627 8.95044 364.564 8.95044Z" fill="#01192D"/>
<path d="M368.409 12.7676C367.345 12.7676 366.483 11.9131 366.483 10.859C366.483 9.80493 367.345 8.95044 368.409 8.95044C369.472 8.95044 370.335 9.80493 370.335 10.859C370.335 11.9131 369.472 12.7676 368.409 12.7676Z" fill="#01192D"/>
<path d="M364.564 12.7676C363.5 12.7676 362.638 13.6221 362.638 14.6762C362.638 15.7302 363.5 16.5847 364.564 16.5847C365.627 16.5847 366.489 15.7302 366.489 14.6762C366.489 13.6221 365.627 12.7676 364.564 12.7676Z" fill="#01192D"/>
<path d="M368.409 16.5847C367.345 16.5847 366.483 15.7302 366.483 14.6762C366.483 13.6221 367.345 12.7676 368.409 12.7676C369.472 12.7676 370.335 13.6221 370.335 14.6762C370.335 15.7302 369.472 16.5847 368.409 16.5847Z" fill="#3578E6"/>
<path d="M364.564 16.5847C363.5 16.5847 362.638 17.4392 362.638 18.4933C362.638 19.5474 363.5 20.4019 364.564 20.4019C365.627 20.4019 366.489 19.5474 366.489 18.4933C366.489 17.4392 365.627 16.5847 364.564 16.5847Z" fill="#01192D"/>
<path d="M368.409 20.3958C367.345 20.3958 366.483 19.5413 366.483 18.4872C366.483 17.4331 367.345 16.5786 368.409 16.5786C369.472 16.5786 370.335 17.4331 370.335 18.4872C370.335 19.5413 369.472 20.3958 368.409 20.3958Z" fill="#01192D"/>
<path d="M364.564 20.3958C363.5 20.3958 362.638 21.2502 362.638 22.3043C362.638 23.3584 363.5 24.2129 364.564 24.2129C365.627 24.2129 366.489 23.3584 366.489 22.3043C366.489 21.2502 365.627 20.3958 364.564 20.3958Z" fill="#01192D"/>
<path d="M368.409 24.2129C367.345 24.2129 366.483 23.3584 366.483 22.3043C366.483 21.2502 367.345 20.3958 368.409 20.3958C369.472 20.3958 370.335 21.2502 370.335 22.3043C370.335 23.3584 369.472 24.2129 368.409 24.2129Z" fill="#01192D"/>
<path d="M364.564 24.2129C363.5 24.2129 362.638 25.0674 362.638 26.1215C362.638 27.1756 363.5 28.0301 364.564 28.0301C365.627 28.0301 366.489 27.1756 366.489 26.1215C366.489 25.0674 365.627 24.2129 364.564 24.2129Z" fill="#01192D"/>
<path d="M368.409 28.0301C367.345 28.0301 366.483 27.1756 366.483 26.1215C366.483 25.0674 367.345 24.2129 368.409 24.2129C369.472 24.2129 370.335 25.0674 370.335 26.1215C370.335 27.1756 369.472 28.0301 368.409 28.0301Z" fill="#01192D"/>
<path d="M360.712 31.8472C359.648 31.8472 358.786 30.9927 358.786 29.9386C358.786 28.8845 359.648 28.03 360.712 28.03C361.776 28.03 362.638 28.8845 362.638 29.9386C362.638 30.9927 361.776 31.8472 360.712 31.8472Z" fill="#01192D"/>
<path d="M364.564 28.03C363.5 28.03 362.638 28.8845 362.638 29.9386C362.638 30.9927 363.5 31.8472 364.564 31.8472C365.627 31.8472 366.489 30.9927 366.489 29.9386C366.489 28.8845 365.627 28.03 364.564 28.03Z" fill="#01192D"/>
<path d="M356.86 31.8472C355.797 31.8472 354.935 32.7017 354.935 33.7557C354.935 34.8098 355.797 35.6643 356.86 35.6643C357.924 35.6643 358.786 34.8098 358.786 33.7557C358.786 32.7017 357.924 31.8472 356.86 31.8472Z" fill="#01192D"/>
<path d="M360.712 35.6582C359.648 35.6582 358.786 34.8037 358.786 33.7496C358.786 32.6956 359.648 31.8411 360.712 31.8411C361.776 31.8411 362.638 32.6956 362.638 33.7496C362.638 34.8037 361.776 35.6582 360.712 35.6582Z" fill="#01192D"/>
<path d="M353.009 39.4754C351.945 39.4754 351.083 38.6209 351.083 37.5668C351.083 36.5127 351.945 35.6582 353.009 35.6582C354.072 35.6582 354.935 36.5127 354.935 37.5668C354.935 38.6209 354.072 39.4754 353.009 39.4754Z" fill="#01192D"/>
<path d="M356.86 35.6582C355.797 35.6582 354.935 36.5127 354.935 37.5668C354.935 38.6209 355.797 39.4754 356.86 39.4754C357.924 39.4754 358.786 38.6209 358.786 37.5668C358.786 36.5127 357.924 35.6582 356.86 35.6582Z" fill="#01192D"/>
<path d="M349.157 39.4753C348.094 39.4753 347.232 40.3298 347.232 41.3839C347.232 42.438 348.094 43.2925 349.157 43.2925C350.221 43.2925 351.083 42.438 351.083 41.3839C351.083 40.3298 350.221 39.4753 349.157 39.4753Z" fill="#01192D"/>
<path d="M353.009 43.2925C351.945 43.2925 351.083 42.438 351.083 41.3839C351.083 40.3298 351.945 39.4753 353.009 39.4753C354.072 39.4753 354.935 40.3298 354.935 41.3839C354.935 42.438 354.072 43.2925 353.009 43.2925Z" fill="#01192D"/>
<path d="M345.312 47.1096C344.249 47.1096 343.386 46.2551 343.386 45.2011C343.386 44.147 344.249 43.2925 345.312 43.2925C346.376 43.2925 347.238 44.147 347.238 45.2011C347.238 46.2551 346.376 47.1096 345.312 47.1096Z" fill="#01192D"/>
<path d="M349.157 43.2925C348.094 43.2925 347.232 44.147 347.232 45.2011C347.232 46.2551 348.094 47.1096 349.157 47.1096C350.221 47.1096 351.083 46.2551 351.083 45.2011C351.083 44.147 350.221 43.2925 349.157 43.2925Z" fill="#01192D"/>
<path d="M341.461 47.1096C340.397 47.1096 339.535 47.9641 339.535 49.0182C339.535 50.0723 340.397 50.9268 341.461 50.9268C342.524 50.9268 343.386 50.0723 343.386 49.0182C343.386 47.9641 342.524 47.1096 341.461 47.1096Z" fill="#01192D"/>
<path d="M345.312 50.9204C344.249 50.9204 343.386 50.0659 343.386 49.0119C343.386 47.9578 344.249 47.1033 345.312 47.1033C346.376 47.1033 347.238 47.9578 347.238 49.0119C347.238 50.0659 346.376 50.9204 345.312 50.9204Z" fill="#01192D"/>
<path d="M341.461 50.9207C340.397 50.9207 339.535 51.7751 339.535 52.8292C339.535 53.8833 340.397 54.7378 341.461 54.7378C342.524 54.7378 343.386 53.8833 343.386 52.8292C343.386 51.7751 342.524 50.9207 341.461 50.9207Z" fill="#01192D"/>
<path d="M345.312 54.7378C344.249 54.7378 343.386 53.8833 343.386 52.8292C343.386 51.7751 344.249 50.9207 345.312 50.9207C346.376 50.9207 347.238 51.7751 347.238 52.8292C347.238 53.8833 346.376 54.7378 345.312 54.7378Z" fill="#01192D"/>
<path d="M341.461 54.7378C340.397 54.7378 339.535 55.5923 339.535 56.6464C339.535 57.7005 340.397 58.555 341.461 58.555C342.524 58.555 343.386 57.7005 343.386 56.6464C343.386 55.5923 342.524 54.7378 341.461 54.7378Z" fill="#01192D"/>
<path d="M345.312 58.555C344.249 58.555 343.386 57.7005 343.386 56.6464C343.386 55.5923 344.249 54.7378 345.312 54.7378C346.376 54.7378 347.238 55.5923 347.238 56.6464C347.238 57.7005 346.376 58.555 345.312 58.555Z" fill="#01192D"/>
<path d="M341.461 58.5549C340.397 58.5549 339.535 59.4094 339.535 60.4635C339.535 61.5176 340.397 62.3721 341.461 62.3721C342.524 62.3721 343.386 61.5176 343.386 60.4635C343.386 59.4094 342.524 58.5549 341.461 58.5549Z" fill="#01192D"/>
<path d="M345.312 62.3721C344.249 62.3721 343.386 61.5176 343.386 60.4635C343.386 59.4094 344.249 58.5549 345.312 58.5549C346.376 58.5549 347.238 59.4094 347.238 60.4635C347.238 61.5176 346.376 62.3721 345.312 62.3721Z" fill="#01192D"/>
<path d="M364.564 58.5549C363.5 58.5549 362.638 59.4094 362.638 60.4635C362.638 61.5176 363.5 62.3721 364.564 62.3721C365.627 62.3721 366.489 61.5176 366.489 60.4635C366.489 59.4094 365.627 58.5549 364.564 58.5549Z" fill="#01192D"/>
<path d="M368.409 62.3721C367.345 62.3721 366.483 61.5176 366.483 60.4635C366.483 59.4094 367.345 58.5549 368.409 58.5549C369.472 58.5549 370.335 59.4094 370.335 60.4635C370.335 61.5176 369.472 62.3721 368.409 62.3721Z" fill="#01192D"/>
<path d="M341.461 62.3721C340.397 62.3721 339.535 63.2266 339.535 64.2806C339.535 65.3347 340.397 66.1892 341.461 66.1892C342.524 66.1892 343.386 65.3347 343.386 64.2806C343.386 63.2266 342.524 62.3721 341.461 62.3721Z" fill="#3578E6"/>
<path d="M345.312 66.1892C344.249 66.1892 343.386 65.3347 343.386 64.2806C343.386 63.2266 344.249 62.3721 345.312 62.3721C346.376 62.3721 347.238 63.2266 347.238 64.2806C347.238 65.3347 346.376 66.1892 345.312 66.1892Z" fill="#01192D"/>
<path d="M349.157 62.3721C348.094 62.3721 347.232 63.2266 347.232 64.2806C347.232 65.3347 348.094 66.1892 349.157 66.1892C350.221 66.1892 351.083 65.3347 351.083 64.2806C351.083 63.2266 350.221 62.3721 349.157 62.3721Z" fill="#01192D"/>
<path d="M353.009 66.1892C351.945 66.1892 351.083 65.3347 351.083 64.2806C351.083 63.2266 351.945 62.3721 353.009 62.3721C354.072 62.3721 354.935 63.2266 354.935 64.2806C354.935 65.3347 354.072 66.1892 353.009 66.1892Z" fill="#01192D"/>
<path d="M356.86 62.3721C355.797 62.3721 354.935 63.2266 354.935 64.2806C354.935 65.3347 355.797 66.1892 356.86 66.1892C357.924 66.1892 358.786 65.3347 358.786 64.2806C358.786 63.2266 357.924 62.3721 356.86 62.3721Z" fill="#01192D"/>
<path d="M360.712 66.1892C359.648 66.1892 358.786 65.3347 358.786 64.2806C358.786 63.2266 359.648 62.3721 360.712 62.3721C361.776 62.3721 362.638 63.2266 362.638 64.2806C362.638 65.3347 361.776 66.1892 360.712 66.1892Z" fill="#01192D"/>
<path d="M364.564 62.3721C363.5 62.3721 362.638 63.2266 362.638 64.2806C362.638 65.3347 363.5 66.1892 364.564 66.1892C365.627 66.1892 366.489 65.3347 366.489 64.2806C366.489 63.2266 365.627 62.3721 364.564 62.3721Z" fill="#01192D"/>
<path d="M368.409 66.1892C367.345 66.1892 366.483 65.3347 366.483 64.2806C366.483 63.2266 367.345 62.3721 368.409 62.3721C369.472 62.3721 370.335 63.2266 370.335 64.2806C370.335 65.3347 369.472 66.1892 368.409 66.1892Z" fill="#01192D"/>
<path d="M345.312 70C344.249 70 343.386 69.1455 343.386 68.0914C343.386 67.0374 344.249 66.1829 345.312 66.1829C346.376 66.1829 347.238 67.0374 347.238 68.0914C347.238 69.1455 346.376 70 345.312 70Z" fill="#01192D"/>
<path d="M349.157 66.1892C348.094 66.1892 347.232 67.0437 347.232 68.0978C347.232 69.1519 348.094 70.0064 349.157 70.0064C350.221 70.0064 351.083 69.1519 351.083 68.0978C351.083 67.0437 350.221 66.1892 349.157 66.1892Z" fill="#01192D"/>
<path d="M353.009 70C351.945 70 351.083 69.1455 351.083 68.0914C351.083 67.0374 351.945 66.1829 353.009 66.1829C354.072 66.1829 354.935 67.0374 354.935 68.0914C354.935 69.1455 354.072 70 353.009 70Z" fill="#01192D"/>
<path d="M356.86 66.1892C355.797 66.1892 354.935 67.0437 354.935 68.0978C354.935 69.1519 355.797 70.0064 356.86 70.0064C357.924 70.0064 358.786 69.1519 358.786 68.0978C358.786 67.0437 357.924 66.1892 356.86 66.1892Z" fill="#01192D"/>
<path d="M360.712 70C359.648 70 358.786 69.1455 358.786 68.0914C358.786 67.0374 359.648 66.1829 360.712 66.1829C361.776 66.1829 362.638 67.0374 362.638 68.0914C362.638 69.1455 361.776 70 360.712 70Z" fill="#01192D"/>
<path d="M364.564 66.1892C363.5 66.1892 362.638 67.0437 362.638 68.0978C362.638 69.1519 363.5 70.0064 364.564 70.0064C365.627 70.0064 366.489 69.1519 366.489 68.0978C366.489 67.0437 365.627 66.1892 364.564 66.1892Z" fill="#01192D"/>
<path d="M368.409 70C367.345 70 366.483 69.1455 366.483 68.0914C366.483 67.0374 367.345 66.1829 368.409 66.1829C369.472 66.1829 370.335 67.0374 370.335 68.0914C370.335 69.1455 369.472 70 368.409 70Z" fill="#01192D"/>
<path d="M372.254 62.3721C371.191 62.3721 370.328 63.2266 370.328 64.2806C370.328 65.3347 371.191 66.1892 372.254 66.1892C373.318 66.1892 374.18 65.3347 374.18 64.2806C374.18 63.2266 373.318 62.3721 372.254 62.3721Z" fill="white"/>
<path d="M376.106 66.1892C375.042 66.1892 374.18 65.3347 374.18 64.2806C374.18 63.2266 375.042 62.3721 376.106 62.3721C377.169 62.3721 378.031 63.2266 378.031 64.2806C378.031 65.3347 377.169 66.1892 376.106 66.1892Z" fill="#01192D"/>
<path d="M372.254 66.1892C371.191 66.1892 370.328 67.0437 370.328 68.0978C370.328 69.1519 371.191 70.0064 372.254 70.0064C373.318 70.0064 374.18 69.1519 374.18 68.0978C374.18 67.0437 373.318 66.1892 372.254 66.1892Z" fill="white"/>
<path d="M387.667 62.3721C386.603 62.3721 385.741 63.2266 385.741 64.2806C385.741 65.3347 386.603 66.1892 387.667 66.1892C388.73 66.1892 389.592 65.3347 389.592 64.2806C389.592 63.2266 388.73 62.3721 387.667 62.3721Z" fill="white"/>
<path d="M387.667 66.1892C386.603 66.1892 385.741 67.0437 385.741 68.0978C385.741 69.1519 386.603 70.0064 387.667 70.0064C388.73 70.0064 389.592 69.1519 389.592 68.0978C389.592 67.0437 388.73 66.1892 387.667 66.1892Z" fill="white"/>
<path d="M376.106 70C375.042 70 374.18 69.1455 374.18 68.0914C374.18 67.0374 375.042 66.1829 376.106 66.1829C377.169 66.1829 378.031 67.0374 378.031 68.0914C378.031 69.1455 377.169 70 376.106 70Z" fill="#01192D"/>
<path d="M379.963 62.3721C378.9 62.3721 378.038 63.2266 378.038 64.2806C378.038 65.3347 378.9 66.1892 379.963 66.1892C381.027 66.1892 381.889 65.3347 381.889 64.2806C381.889 63.2266 381.027 62.3721 379.963 62.3721Z" fill="#01192D"/>
<path d="M383.809 66.1892C382.745 66.1892 381.883 65.3347 381.883 64.2806C381.883 63.2266 382.745 62.3721 383.809 62.3721C384.872 62.3721 385.735 63.2266 385.735 64.2806C385.735 65.3347 384.872 66.1892 383.809 66.1892Z" fill="#01192D"/>
<path d="M379.963 66.1892C378.9 66.1892 378.038 67.0437 378.038 68.0978C378.038 69.1519 378.9 70.0064 379.963 70.0064C381.027 70.0064 381.889 69.1519 381.889 68.0978C381.889 67.0437 381.027 66.1892 379.963 66.1892Z" fill="#01192D"/>
<path d="M383.809 70.0003C382.745 70.0003 381.883 69.1458 381.883 68.0917C381.883 67.0376 382.745 66.1831 383.809 66.1831C384.872 66.1831 385.735 67.0376 385.735 68.0917C385.735 69.1458 384.872 70.0003 383.809 70.0003Z" fill="#01192D"/>
<path d="M376.106 62.3782C375.042 62.3782 374.18 61.5237 374.18 60.4696C374.18 59.4155 375.042 58.561 376.106 58.561C377.169 58.561 378.031 59.4155 378.031 60.4696C378.031 61.5237 377.169 62.3782 376.106 62.3782Z" fill="#01192D"/>
<path d="M379.963 58.5674C378.9 58.5674 378.038 59.4219 378.038 60.476C378.038 61.53 378.9 62.3845 379.963 62.3845C381.027 62.3845 381.889 61.53 381.889 60.476C381.889 59.4219 381.027 58.5674 379.963 58.5674Z" fill="#01192D"/>
<path d="M383.809 62.3782C382.745 62.3782 381.883 61.5237 381.883 60.4696C381.883 59.4155 382.745 58.561 383.809 58.561C384.872 58.561 385.735 59.4155 385.735 60.4696C385.735 61.5237 384.872 62.3782 383.809 62.3782Z" fill="#01192D"/>
</g>
<defs>
<clipPath id="clip0_24_3874">
<rect width="601" height="70" fill="white"/>
</clipPath>
</defs>
</svg>
