<svg width="24" height="24" viewBox="0 0 24 24" fill="none" xmlns="http://www.w3.org/2000/svg">
<path fill-rule="evenodd" clip-rule="evenodd" d="M6.58683 10.5168C7.6135 6.21923 11.8389 3 15.8922 3H16.1123C18.0288 3 18.0288 4.47811 18.0288 5.70367V7.66457H20.7191C22.2807 7.66457 22.8485 8.11023 22.8485 8.65245C22.8485 9.19467 22.2807 9.64033 20.7191 9.64033H18.0288V15.3596H20.7191C22.2807 15.3596 22.8485 15.8053 22.8485 16.3475C22.8485 16.8897 22.2807 17.3354 20.7191 17.3354H18.0288V19.2963C18.0288 20.5219 18.0288 22 16.1123 22H15.8993C11.8398 22 7.61364 18.7808 6.58686 14.4832H1V10.5168H6.58683ZM15.1069 7.09658C15.0703 6.9896 15.0031 6.8999 14.9161 6.84212V6.84111C14.8292 6.78336 14.7276 6.76097 14.628 6.77757C14.5284 6.79417 14.4367 6.84879 14.3678 6.93251L9.6204 12.688C9.56077 12.7602 9.52096 12.8507 9.50589 12.9484C9.49083 13.0461 9.50116 13.1466 9.53562 13.2377C9.57009 13.3287 9.62716 13.4063 9.69981 13.4608C9.77246 13.5152 9.8575 13.5442 9.94443 13.5442H11.7159L10.7055 17.2867C10.6759 17.3964 10.6796 17.5143 10.7162 17.6212C10.7528 17.7281 10.82 17.8177 10.907 17.8754C10.9939 17.9331 11.0954 17.9556 11.1949 17.939C11.2945 17.9225 11.3862 17.868 11.4551 17.7844L16.2034 12.0289C16.263 11.9567 16.3028 11.8662 16.3179 11.7685C16.3329 11.6709 16.3226 11.5703 16.2881 11.4792C16.2537 11.3882 16.1966 11.3106 16.124 11.2562C16.0513 11.2017 15.9663 11.1727 15.8793 11.1727H14.1079L15.1173 7.43118C15.1471 7.32151 15.1434 7.20356 15.1069 7.09658Z" fill="white"/>
</svg>
