<svg width="23" height="20" viewBox="0 0 23 20" fill="none" xmlns="http://www.w3.org/2000/svg">
<g clip-path="url(#clip0_205_25)">
<path d="M15.6821 0C10.7787 0 5.63599 4.47399 5.63599 10.0039C5.63599 15.5338 10.7787 20.0078 15.6896 20.0078C16.6613 20.0078 15.9139 20.0078 15.9139 20.0078C17.9321 20.0078 17.9321 18.4513 17.9321 17.1607V2.84709C17.9321 1.55651 17.9321 0 15.9139 0C15.9064 0 16.6539 0 15.6821 0Z" fill="white"/>
<path d="M15.5998 6.99267C13.9554 6.99267 14.1049 6.52337 14.1049 5.95239C14.1049 5.38141 13.9554 4.91211 15.5998 4.91211H20.7649C22.4094 4.91211 23.0074 5.38141 23.0074 5.95239C23.0074 6.52337 22.4094 6.99267 20.7649 6.99267H15.5998Z" fill="white"/>
<path d="M15.5998 15.0957C13.9554 15.0957 14.1049 14.6264 14.1049 14.0554C14.1049 13.4844 13.9554 13.0151 15.5998 13.0151H20.7649C22.4094 13.0151 23.0074 13.4844 23.0074 14.0554C23.0074 14.6264 22.4094 15.0957 20.7649 15.0957H15.5998V15.0957Z" fill="white"/>
<path d="M11.2645 7.91553H0V12.0923H11.2645V7.91553Z" fill="white"/>
<path d="M14.6543 4.04601C14.7459 4.10686 14.8167 4.20131 14.8551 4.31396C14.8936 4.42662 14.8975 4.55082 14.8661 4.66632L13.8031 8.60632H15.6686C15.7601 8.60628 15.8497 8.63682 15.9262 8.69418C16.0027 8.75154 16.0628 8.8332 16.0991 8.92908C16.1353 9.02497 16.1462 9.13088 16.1304 9.23374C16.1145 9.3366 16.0726 9.43191 16.0098 9.5079L11.0096 15.5687C10.9371 15.6567 10.8405 15.7141 10.7357 15.7315C10.6309 15.7489 10.524 15.7253 10.4324 15.6646C10.3409 15.6038 10.2701 15.5094 10.2316 15.3968C10.1931 15.2843 10.1891 15.1601 10.2203 15.0447L11.2843 11.1036H9.41884C9.3273 11.1036 9.23775 11.0731 9.16125 11.0157C9.08475 10.9584 9.02464 10.8767 8.98835 10.7808C8.95206 10.6849 8.94118 10.579 8.95704 10.4762C8.97291 10.3733 9.01483 10.278 9.07763 10.202L14.0768 4.1412C14.1494 4.05303 14.246 3.99551 14.3508 3.97803C14.4557 3.96055 14.5627 3.98414 14.6543 4.04494V4.04601Z" fill="#009568"/>
</g>
<defs>
<clipPath id="clip0_205_25">
<rect width="23" height="20" fill="white"/>
</clipPath>
</defs>
</svg>
