<?xml version="1.0" encoding="UTF-8"?>
<!DOCTYPE svg PUBLIC "-//W3C//DTD SVG 1.1//EN" "http://www.w3.org/Graphics/SVG/1.1/DTD/svg11.dtd">
<svg xmlns="http://www.w3.org/2000/svg" version="1.1" width="180px" height="180px" style="shape-rendering:geometricPrecision; text-rendering:geometricPrecision; image-rendering:optimizeQuality; fill-rule:evenodd; clip-rule:evenodd" xmlns:xlink="http://www.w3.org/1999/xlink">
<g><path style="opacity:0.93" fill="#03a776" d="M 70.5,-0.5 C 74.1667,-0.5 77.8333,-0.5 81.5,-0.5C 84.1296,4.02 84.1296,8.52 81.5,13C 83.451,14.2838 85.451,13.9504 87.5,12C 90.5984,11.7287 93.4317,12.5621 96,14.5C 96.4243,16.5155 97.2576,18.3488 98.5,20C 97.3528,22.444 96.0194,24.7773 94.5,27C 90.2291,28.0083 86.2291,27.5083 82.5,25.5C 81.6919,25.8076 81.0253,26.3076 80.5,27C 84.4322,31.7374 84.4322,36.4041 80.5,41C 84.5,45.6667 84.5,50.3333 80.5,55C 81.0253,55.6924 81.6919,56.1924 82.5,56.5C 87.1667,52.5 91.8333,52.5 96.5,56.5C 97.3081,56.1924 97.9747,55.6924 98.5,55C 95.1966,51.205 94.6966,47.0383 97,42.5C 101.463,38.545 105.963,38.545 110.5,42.5C 111.522,42.1445 112.189,41.4778 112.5,40.5C 115.833,40.5 119.167,40.5 122.5,40.5C 123.36,42.9701 124.694,43.1368 126.5,41C 125.956,40.2828 125.289,39.7828 124.5,39.5C 124.5,36.1667 124.5,32.8333 124.5,29.5C 127.578,25.98 131.245,25.1467 135.5,27C 140.815,31.7255 140.815,36.3922 135.5,41C 137.448,44.1179 139.281,43.9513 141,40.5C 150.652,39.1489 154.319,43.1489 152,52.5C 151.292,53.3805 150.458,54.0472 149.5,54.5C 146.167,54.5 142.833,54.5 139.5,54.5C 138.275,51.8494 137.275,52.0161 136.5,55C 136.57,55.7648 136.903,56.2648 137.5,56.5C 137.5,59.8333 137.5,63.1667 137.5,66.5C 137.196,67.1499 136.863,67.8165 136.5,68.5C 139.722,72.1644 140.222,76.1644 138,80.5C 133.333,84.5 128.667,84.5 124,80.5C 123.308,81.0253 122.808,81.6919 122.5,82.5C 126.5,87.1667 126.5,91.8333 122.5,96.5C 124.077,98.5583 125.077,100.892 125.5,103.5C 124.466,106.236 123.633,108.903 123,111.5C 123.333,111.833 123.667,112.167 124,112.5C 128.667,107.167 133.333,107.167 138,112.5C 142.667,107.167 147.333,107.167 152,112.5C 154,111.167 154,109.833 152,108.5C 149.514,97.3174 153.681,93.484 164.5,97C 168.739,101.704 168.405,106.038 163.5,110C 163.833,110.333 164.167,110.667 164.5,111C 167.161,110.592 169.827,109.759 172.5,108.5C 174.97,109.237 177.304,110.237 179.5,111.5C 179.5,115.167 179.5,118.833 179.5,122.5C 177.471,124.07 175.138,125.07 172.5,125.5C 169.649,124.713 166.983,123.88 164.5,123C 164.167,123.333 163.833,123.667 163.5,124C 169.205,129.814 168.538,134.814 161.5,139C 154.62,140.575 151.286,137.909 151.5,131C 151.654,128.621 152.32,126.454 153.5,124.5C 153.291,123.914 152.957,123.414 152.5,123C 150.017,123.88 147.351,124.713 144.5,125.5C 142.023,125.174 139.856,124.174 138,122.5C 133.333,126.5 128.667,126.5 124,122.5C 117.891,126.906 112.891,125.906 109,119.5C 108.381,115.692 109.547,112.526 112.5,110C 112.167,109.667 111.833,109.333 111.5,109C 109.053,110.03 106.386,110.863 103.5,111.5C 100.724,111.195 98.2237,110.195 96,108.5C 95.5,109 95,109.5 94.5,110C 96.1101,112.311 97.4435,114.811 98.5,117.5C 97.1667,119.833 95.8333,122.167 94.5,124.5C 96.1097,126.495 97.4431,128.661 98.5,131C 92.4438,139.447 94.1105,141.28 103.5,136.5C 111.512,138.538 113.512,143.205 109.5,150.5C 105.269,154.255 100.936,154.255 96.5,150.5C 94.2487,151.695 91.9154,152.695 89.5,153.5C 87.0846,152.695 84.7513,151.695 82.5,150.5C 80.2487,151.695 77.9154,152.695 75.5,153.5C 73.1716,152.783 71.0049,151.783 69,150.5C 66.6496,151.504 64.3163,152.504 62,153.5C 59.0933,152.569 56.26,151.569 53.5,150.5C 53.2837,152.681 54.117,154.347 56,155.5C 57.3326,162.167 54.6659,166.167 48,167.5C 45.4024,166.699 43.0691,165.366 41,163.5C 40.6667,163.833 40.3333,164.167 40,164.5C 40.88,166.983 41.7133,169.649 42.5,172.5C 42.0699,175.138 41.0699,177.471 39.5,179.5C 35.8333,179.5 32.1667,179.5 28.5,179.5C 27.3124,177.278 26.3124,174.945 25.5,172.5C 26.5785,169.793 27.5785,167.126 28.5,164.5C 25.4961,165.089 22.6627,166.089 20,167.5C 11.5055,164.863 9.67215,159.863 14.5,152.5C 19.0601,150.976 23.3934,151.309 27.5,153.5C 27.8333,153 28.1667,152.5 28.5,152C 24.3976,146.065 25.3976,141.065 31.5,137C 35.0859,136.208 38.2526,137.041 41,139.5C 45.6667,135.5 50.3333,135.5 55,139.5C 56.9993,137.722 59.3327,136.722 62,136.5C 64.6785,137.28 67.1785,138.113 69.5,139C 69.8333,138.667 70.1667,138.333 70.5,138C 68.4076,136.147 67.4076,133.814 67.5,131C 67.8417,127.864 68.8417,125.031 70.5,122.5C 67.7729,123.577 64.9396,124.577 62,125.5C 57.0501,125.049 54.2168,122.383 53.5,117.5C 54.3232,114.364 55.3232,111.364 56.5,108.5C 53.9692,110.158 51.1359,111.158 48,111.5C 41.1923,110.893 38.5256,107.227 40,100.5C 40.6355,99.0337 41.4688,97.7003 42.5,96.5C 38.5,91.8333 38.5,87.1667 42.5,82.5C 40.6794,80.5247 39.6794,78.1914 39.5,75.5C 40.1365,72.6137 40.9699,69.947 42,67.5C 41.6667,67.1667 41.3333,66.8333 41,66.5C 36.3333,71.8333 31.6667,71.8333 27,66.5C 23.8615,70.5765 20.0281,71.4099 15.5,69C 10.1667,64.3333 10.1667,59.6667 15.5,55C 10.1667,50.3333 10.1667,45.6667 15.5,41C 14.9747,40.3076 14.3081,39.8076 13.5,39.5C 8.80009,43.4856 4.13342,43.4856 -0.5,39.5C -0.5,35.8333 -0.5,32.1667 -0.5,28.5C 1.72208,27.3124 4.05541,26.3124 6.5,25.5C 8.9154,26.3052 11.2487,27.3052 13.5,28.5C 13.8333,28 14.1667,27.5 14.5,27C 9.44084,19.3914 11.2742,14.2247 20,11.5C 25.1068,12.1178 27.6068,14.9511 27.5,20C 27.6953,22.7927 27.0287,25.2927 25.5,27.5C 26,27.8333 26.5,28.1667 27,28.5C 30.6967,25.9367 34.53,25.4367 38.5,27C 44.2051,32.8143 43.5384,37.8143 36.5,42C 33.039,42.8737 30.039,42.0403 27.5,39.5C 25.1992,40.2688 25.0325,41.2688 27,42.5C 27.1667,44.3333 27.3333,46.1667 27.5,48C 27.0623,50.6732 26.5623,53.1732 26,55.5C 26.414,55.9574 26.914,56.2907 27.5,56.5C 31.9963,52.5849 36.4963,52.5849 41,56.5C 44.9841,53.2167 49.1507,52.8834 53.5,55.5C 57.3594,59.9105 57.3594,64.4105 53.5,69C 57.4101,73.5941 57.4101,78.2608 53.5,83C 53.8333,83.5 54.1667,84 54.5,84.5C 56.8333,83.1667 59.1667,81.8333 61.5,80.5C 64.1886,81.5565 66.6886,82.8899 69,84.5C 69.5,84 70,83.5 70.5,83C 66.5387,78.2022 66.5387,73.3689 70.5,68.5C 66.5366,64.0447 66.5366,59.5447 70.5,55C 66.5021,50.3248 66.5021,45.6581 70.5,41C 66.5387,36.4639 66.5387,31.9639 70.5,27.5C 69.4209,25.1236 68.0875,24.957 66.5,27C 55.8655,29.6995 52.0322,25.8662 55,15.5C 59.6667,10.1667 64.3333,10.1667 69,15.5C 69.3333,15.1667 69.6667,14.8333 70,14.5C 68.9699,12.053 68.1365,9.38632 67.5,6.5C 67.6946,3.78193 68.6946,1.4486 70.5,-0.5 Z M 124.5,39.5 C 125.289,39.7828 125.956,40.2828 126.5,41C 124.694,43.1368 123.36,42.9701 122.5,40.5C 122.842,39.6618 123.508,39.3284 124.5,39.5 Z M 108.5,53.5 C 113.833,54.5 113.833,55.5 108.5,56.5C 108.5,55.5 108.5,54.5 108.5,53.5 Z M 122.5,53.5 C 123.5,53.5 124.5,53.5 125.5,53.5C 125.5,54.5 125.5,55.5 125.5,56.5C 124.5,56.5 123.5,56.5 122.5,56.5C 122.5,55.5 122.5,54.5 122.5,53.5 Z M 109.5,66.5 C 112.428,67.637 112.762,68.9704 110.5,70.5C 108.358,69.5629 108.024,68.2296 109.5,66.5 Z M 123.5,66.5 C 125.104,67.287 125.771,68.6203 125.5,70.5C 124.5,70.5 123.5,70.5 122.5,70.5C 122.433,69.0413 122.766,67.7079 123.5,66.5 Z M 81.5,67.5 C 84.2933,67.74 84.7933,68.74 83,70.5C 80.8424,69.9498 80.3424,68.9498 81.5,67.5 Z M 95.5,67.5 C 99.0507,68.1855 99.2173,69.1855 96,70.5C 94.2716,69.6477 94.105,68.6477 95.5,67.5 Z M 109.5,80.5 C 111.852,81.5426 112.019,82.8759 110,84.5C 108.489,83.436 108.323,82.1026 109.5,80.5 Z M 81.5,81.5 C 83.337,81.6395 83.6704,82.3061 82.5,83.5C 81.7025,83.0431 81.3691,82.3764 81.5,81.5 Z M 95.5,81.5 C 97.337,81.6395 97.6704,82.3061 96.5,83.5C 95.7025,83.0431 95.3691,82.3764 95.5,81.5 Z M 53.5,94.5 C 56.5688,94.963 57.0688,96.2963 55,98.5C 53.8118,97.4366 53.3118,96.1033 53.5,94.5 Z M 68.5,94.5 C 70.8586,95.3887 71.0253,96.722 69,98.5C 67.2317,97.3181 67.0651,95.9848 68.5,94.5 Z M 109.5,94.5 C 111.852,95.5426 112.019,96.8759 110,98.5C 108.666,97.1221 108.499,95.7887 109.5,94.5 Z M 81.5,95.5 C 83.337,95.6395 83.6704,96.3061 82.5,97.5C 81.7025,97.0431 81.3691,96.3764 81.5,95.5 Z M 95.5,95.5 C 97.337,95.6395 97.6704,96.3061 96.5,97.5C 95.7025,97.0431 95.3691,96.3764 95.5,95.5 Z M 67.5,108.5 C 70.5688,108.963 71.0688,110.296 69,112.5C 66.988,111.434 66.488,110.1 67.5,108.5 Z M 82.5,108.5 C 85.1247,109.466 85.1247,110.466 82.5,111.5C 79.9548,110.451 79.9548,109.451 82.5,108.5 Z M 81.5,122.5 C 82.9953,122.415 83.9953,123.081 84.5,124.5C 81.6232,125.911 80.6232,125.244 81.5,122.5 Z M 81.5,136.5 C 84.6741,136.952 85.0075,137.952 82.5,139.5C 80.4807,138.867 80.1474,137.867 81.5,136.5 Z M 40.5,149.5 C 42.8519,150.543 43.0185,151.876 41,153.5C 39.2317,152.318 39.0651,150.985 40.5,149.5 Z"/></g>
<g><path style="opacity:0.942" fill="#ee4c9f" d="M 124.5,29.5 C 124.5,32.8333 124.5,36.1667 124.5,39.5C 123.508,39.3284 122.842,39.6618 122.5,40.5C 119.167,40.5 115.833,40.5 112.5,40.5C 106.344,33.5029 107.844,28.5029 117,25.5C 119.963,26.0256 122.463,27.359 124.5,29.5 Z"/></g>
<g><path style="opacity:0.941" fill="#e9509c" d="M 139.5,54.5 C 142.833,54.5 146.167,54.5 149.5,54.5C 153.44,58.5466 153.94,62.8799 151,67.5C 146.218,71.5809 141.718,71.2475 137.5,66.5C 137.5,63.1667 137.5,59.8333 137.5,56.5C 138.833,56.5 139.5,55.8333 139.5,54.5 Z"/></g>
</svg>
