<?xml version="1.0" encoding="UTF-8" standalone="no"?>
<!DOCTYPE svg PUBLIC "-//W3C//DTD SVG 1.1//EN" "http://www.w3.org/Graphics/SVG/1.1/DTD/svg11.dtd">
<svg xmlns="http://www.w3.org/2000/svg" xmlns:xl="http://www.w3.org/1999/xlink" version="1.1" viewBox="-46 -8.5 531 531" width="531pt" height="531pt" xmlns:dc="http://purl.org/dc/elements/1.1/">
  <metadata> Produced by OmniGraffle 7.6.1 
    <dc:date>2018-02-05 13:48:06 +0000</dc:date>
  </metadata>
  <defs/>
  <g stroke="none" stroke-opacity="1" stroke-dasharray="none" fill="none" fill-opacity="1">
    <title>Canvas 1</title>
    <g>
      <title>Layer 1</title>
      <path d="M 143.14573 509.842 C 96.52239 509.83825 53.442686 484.9614 30.134433 444.58246 C 6.826181 404.2035 6.830487 354.45695 30.14573 314.08202 L 107.52573 180.01202 C 119.06273 160.02447 140.3875 147.7111 163.46573 147.7111 C 186.54396 147.7111 207.86873 160.02447 219.40573 180.01202 L 142.01573 314.01202 C 130.41855 334.0038 130.38716 358.66858 141.93343 378.6898 C 153.4797 398.71105 174.8437 411.03707 197.95573 411.012 L 352.74573 411.012 C 396.78853 411.02327 437.4891 387.5282 459.5055 349.38314 C 481.52196 311.2381 481.5068 264.24285 459.46573 226.11202 C 493.2595 284.6404 493.2579 356.75247 459.4615 415.2793 C 425.66516 473.8062 363.20965 509.85423 295.62573 509.842 Z" fill="#262262"/>
      <path d="M 296.79573 314.07202 L 219.40573 180.01202 C 207.86873 160.02447 186.54396 147.7111 163.46573 147.7111 C 140.3875 147.7111 119.06273 160.02447 107.52573 180.01202 L 30.12573 314.08202 C 6.810487 354.45695 6.806181 404.2035 30.114433 444.58246 C 53.422686 484.9614 96.50239 509.83825 143.12573 509.842 C 75.553 509.8369 13.11587 473.78285 -20.6665 415.26084 C -54.44887 356.73884 -54.44421 284.63966 -20.65427 226.12202 L 56.73573 92.07202 C 78.86403 53.567835 119.20182 29.11151 163.57457 27.2969 C 207.94732 25.482286 250.14734 46.56325 275.34573 83.13202 L 352.73573 217.13202 C 364.2698 237.1179 364.26757 261.73848 352.72982 281.72225 C 341.19208 301.70602 319.87106 314.0181 296.79573 314.02202 Z" fill="#5561a6"/>
      <path d="M 56.73573 92.07202 C 90.28847 33.957755 152.29593 -1.8420239 219.40073 -1.8420239 C 286.50553 -1.8420239 348.513 33.957755 382.06573 92.07202 L 459.45573 226.07202 C 481.5164 264.20376 481.54354 311.21163 459.5269 349.36882 C 437.5103 387.526 396.79914 411.02796 352.74573 411.012 L 197.95573 411.012 C 174.87779 411.01427 153.55203 398.7033 142.01298 378.71725 C 130.47392 358.7312 130.47497 334.10707 142.01573 314.12202 L 296.79573 314.12202 C 319.87367 314.12427 341.19943 301.8133 352.7385 281.82725 C 364.27754 261.8412 364.2765 237.21707 352.73573 217.23202 L 275.34573 83.23202 C 250.14734 46.66325 207.94732 25.582286 163.57457 27.3969 C 119.20182 29.21151 78.86403 53.667835 56.73573 92.17202 Z" fill="#8dc63f"/>
    </g>
  </g>
</svg>
