<?xml version="1.0" encoding="utf-8"?>
<!-- Generator: Adobe Illustrator 28.0.0, SVG Export Plug-In . SVG Version: 6.00 Build 0)  -->
<svg version="1.1" id="Renku_Frog" xmlns="http://www.w3.org/2000/svg" xmlns:xlink="http://www.w3.org/1999/xlink" x="0px" y="0px"
	 viewBox="0 0 234.8 234.89" style="enable-background:new 0 0 234.8 234.89;" xml:space="preserve">
<style type="text/css">
	.st0{fill:#f24ba0;}
	.st1{fill:#00a877;}
</style>
<circle class="st0" cx="142.12" cy="67.99" r="6.18"/>
<circle class="st0" cx="166.83" cy="92.72" r="6.18"/>
<g>
	<g>
		<circle class="st1" cx="129.76" cy="105.08" r="6.18"/>
		<circle class="st1" cx="105.04" cy="55.63" r="6.18"/>
		<circle class="st1" cx="55.62" cy="67.99" r="6.18"/>
		<circle class="st1" cx="105.04" cy="67.99" r="6.18"/>
		<circle class="st1" cx="55.62" cy="80.36" r="6.18"/>
		<circle class="st1" cx="105.04" cy="80.36" r="6.18"/>
		<circle class="st1" cx="55.62" cy="92.72" r="6.18"/>
		<circle class="st1" cx="67.97" cy="92.72" r="6.18"/>
		<circle class="st1" cx="80.33" cy="92.72" r="6.18"/>
		<circle class="st1" cx="105.04" cy="92.72" r="6.18"/>
		<circle class="st1" cx="117.4" cy="92.72" r="6.18"/>
		<circle class="st1" cx="129.76" cy="92.72" r="6.18"/>
		<circle class="st1" cx="142.12" cy="92.72" r="6.18"/>
		<circle class="st1" cx="80.33" cy="105.08" r="6.18"/>
		<circle class="st1" cx="117.4" cy="105.08" r="6.18"/>
		<circle class="st1" cx="142.12" cy="105.08" r="6.18"/>
		<circle class="st1" cx="80.33" cy="117.44" r="6.18"/>
		<circle class="st1" cx="105.04" cy="117.44" r="6.18"/>
		<circle class="st1" cx="117.4" cy="117.44" r="6.18"/>
		<circle class="st1" cx="129.76" cy="117.44" r="6.18"/>
		<circle class="st1" cx="142.12" cy="117.44" r="6.18"/>
		<circle class="st1" cx="80.33" cy="129.81" r="6.18"/>
		<circle class="st1" cx="105.04" cy="129.81" r="6.18"/>
		<circle class="st1" cx="117.4" cy="129.81" r="6.18"/>
		<circle class="st1" cx="142.12" cy="129.81" r="6.18"/>
		<circle class="st1" cx="142.12" cy="142.17" r="6.18"/>
		<circle class="st1" cx="154.47" cy="142.17" r="6.18"/>
		<circle class="st1" cx="166.83" cy="142.17" r="6.18"/>
		<circle class="st1" cx="179.19" cy="142.17" r="6.18"/>
		<circle class="st1" cx="105.04" cy="154.53" r="6.18"/>
		<circle class="st1" cx="117.4" cy="154.53" r="6.18"/>
		<circle class="st1" cx="67.97" cy="166.89" r="6.18"/>
		<circle class="st1" cx="80.33" cy="166.89" r="6.18"/>
		<circle class="st1" cx="92.69" cy="166.89" r="6.18"/>
		<circle class="st1" cx="105.04" cy="166.89" r="6.18"/>
		<circle class="st1" cx="117.4" cy="166.89" r="6.18"/>
		<circle class="st1" cx="129.76" cy="166.89" r="6.18"/>
		<circle class="st1" cx="67.97" cy="179.26" r="6.18"/>
	</g>
	<circle class="st1" cx="105.04" cy="43.27" r="6.18"/>
	<circle class="st1" cx="55.62" cy="55.63" r="6.18"/>
	<circle class="st1" cx="92.69" cy="55.63" r="6.18"/>
	<circle class="st1" cx="117.4" cy="55.63" r="6.18"/>
	<circle class="st1" cx="43.26" cy="67.99" r="6.18"/>
	<circle class="st1" cx="67.97" cy="67.99" r="6.18"/>
	<circle class="st1" cx="154.47" cy="67.99" r="6.18"/>
	<circle class="st1" cx="129.76" cy="80.36" r="6.18"/>
	<circle class="st1" cx="142.12" cy="80.36" r="6.18"/>
	<circle class="st1" cx="154.47" cy="80.36" r="6.18"/>
	<circle class="st1" cx="166.83" cy="80.36" r="6.18"/>
	<circle class="st1" cx="154.47" cy="92.72" r="6.18"/>
	<circle class="st1" cx="105.04" cy="105.08" r="6.18"/>
	<circle class="st1" cx="154.47" cy="105.08" r="6.18"/>
	<circle class="st1" cx="92.69" cy="117.44" r="6.18"/>
	<circle class="st1" cx="92.69" cy="129.81" r="6.18"/>
	<circle class="st1" cx="129.76" cy="129.81" r="6.18"/>
	<circle class="st1" cx="179.19" cy="129.81" r="6.18"/>
	<circle class="st1" cx="92.69" cy="142.17" r="6.18"/>
	<circle class="st1" cx="105.04" cy="142.17" r="6.18"/>
	<circle class="st1" cx="117.4" cy="142.17" r="6.18"/>
	<circle class="st1" cx="191.54" cy="142.17" r="6.18"/>
	<circle class="st1" cx="179.19" cy="154.53" r="6.18"/>
	<circle class="st1" cx="55.62" cy="179.26" r="6.18"/>
	<circle class="st1" cx="80.33" cy="179.26" r="6.18"/>
	<circle class="st1" cx="67.97" cy="191.62" r="6.18"/>
</g>
</svg>
