<svg width="17" height="19" viewBox="0 0 17 19" fill="none" xmlns="http://www.w3.org/2000/svg">
<g clip-path="url(#clip0_548_1374)">
<path d="M12.4318 10.8449C13.3393 10.8449 14.16 11.2109 14.7551 11.798C15.3502 12.3875 15.7171 13.1981 15.7171 14.0996C15.7171 14.7554 15.5188 15.3695 15.1816 15.8805L16.6023 17.4157L15.6229 18.3025L14.2518 16.809C13.7311 17.1529 13.1038 17.3543 12.4318 17.3543C11.5268 17.3543 10.7036 16.9883 10.1086 16.4012C9.5135 15.8117 9.14654 15.0011 9.14654 14.0996C9.14654 13.1981 9.51598 12.3875 10.1086 11.798C10.7036 11.2084 11.5219 10.8449 12.4318 10.8449ZM3.4636 8.87732C3.25532 8.87732 3.08176 8.69063 3.08176 8.46219C3.08176 8.23375 3.25037 8.04706 3.4636 8.04706H6.7365C6.94477 8.04706 7.11833 8.23375 7.11833 8.46219C7.11833 8.69063 6.94973 8.87732 6.7365 8.87732H3.4636ZM12.8757 3.21781H14.2493C14.5171 3.21781 14.7675 3.32589 14.9411 3.50275C15.1196 3.67961 15.2287 3.92279 15.2287 4.18808V9.49142C15.1989 9.79601 14.4476 9.79846 14.3832 9.49142V4.18808C14.3832 4.14878 14.3683 4.11439 14.3435 4.08982C14.3187 4.06526 14.284 4.05052 14.2443 4.05052H12.8707V9.49387C12.7963 9.76899 12.1715 9.81075 12.0302 9.49387V1.67028C12.0302 1.63098 12.0153 1.59659 11.9905 1.57203C11.9657 1.54747 11.931 1.53273 11.8913 1.53273H1.57673C1.53705 1.53273 1.50234 1.54747 1.47755 1.57203C1.45275 1.59659 1.43788 1.63098 1.43788 1.67028V13.2128C1.43788 13.2521 1.45275 13.2865 1.47755 13.3111C1.50234 13.3357 1.53705 13.3504 1.57673 13.3504H7.7258C8.14979 13.3946 8.16219 14.1192 7.7258 14.1831H3.79089V15.7306C3.79089 15.7699 3.80577 15.8043 3.83056 15.8289C3.85536 15.8535 3.89007 15.8682 3.92974 15.8682H7.7258C8.03326 15.9026 8.13244 16.5928 7.7258 16.7009H3.9347C3.66692 16.7009 3.41649 16.5928 3.24293 16.416C3.06441 16.2391 2.95531 15.9959 2.95531 15.7306V14.1831H1.58168C1.3139 14.1831 1.06348 14.075 0.889913 13.8982C0.711391 13.7213 0.602295 13.4781 0.602295 13.2128V1.67028C0.602295 1.40499 0.711391 1.15936 0.889913 0.984953C1.07091 0.808093 1.3139 0.700012 1.58168 0.700012H11.8938C12.1616 0.700012 12.412 0.808093 12.5856 0.984953C12.7641 1.16181 12.8732 1.40499 12.8732 1.67028V3.21781H12.8757ZM3.45864 4.43126C3.25037 4.43126 3.0768 4.24458 3.0768 4.01613C3.0768 3.78769 3.24541 3.601 3.45864 3.601H10.0044C10.2127 3.601 10.3863 3.78769 10.3863 4.01613C10.3863 4.24458 10.2177 4.43126 10.0044 4.43126H3.45864ZM3.45864 6.65429C3.25037 6.65429 3.0768 6.4676 3.0768 6.23916C3.0768 6.01072 3.24541 5.82403 3.45864 5.82403H10.0044C10.2127 5.82403 10.3863 6.01072 10.3863 6.23916C10.3863 6.4676 10.2177 6.65429 10.0044 6.65429H3.45864ZM14.1774 12.3678C13.7311 11.9257 13.1137 11.6506 12.4318 11.6506C11.75 11.6506 11.1326 11.9257 10.6863 12.3678C10.24 12.81 9.96228 13.4216 9.96228 14.0971C9.96228 14.7726 10.24 15.3843 10.6863 15.8264C11.1326 16.2686 11.75 16.5437 12.4318 16.5437C13.1137 16.5437 13.7311 16.2686 14.1774 15.8264C14.6237 15.3843 14.9014 14.7726 14.9014 14.0971C14.9014 13.4216 14.6237 12.81 14.1774 12.3678Z" fill="#CA4E86"/>
</g>
<defs>
<clipPath id="clip0_548_1374">
<rect width="16" height="17.6" fill="white" transform="translate(0.602295 0.700012)"/>
</clipPath>
</defs>
</svg>
