<svg width="26" height="27" viewBox="0 0 26 27" fill="none" xmlns="http://www.w3.org/2000/svg">
<ellipse cx="13" cy="13.5773" rx="13" ry="12.5979" fill="#009E6C"/>
<g clip-path="url(#clip0_6_69)">
<path d="M14.75 15.6972C14.75 15.9315 14.5543 16.1211 14.3125 16.1211H11.6875C11.4469 16.1211 11.25 15.9304 11.25 15.6972V14.4253H6V18.241C6 18.9193 6.61277 19.5129 7.3125 19.5129H18.6875C19.3872 19.5129 20 18.9191 20 18.241V14.4253H14.75V15.6972ZM18.6875 9.33764H16.5V8.06573C16.5 7.38765 15.8875 6.79382 15.1875 6.79382H10.8125C10.1125 6.79382 9.5 7.38765 9.5 8.06573V9.33764H7.3125C6.61277 9.33764 6 9.93119 6 10.6095V13.5773H20V10.6095C20 9.93119 19.3875 9.33764 18.6875 9.33764ZM15.1875 9.33764H10.8125V8.06573H15.1875V9.33764Z" fill="white"/>
</g>
<defs>
<clipPath id="clip0_6_69">
<rect width="14" height="13.567" fill="white" transform="translate(6 6.79382)"/>
</clipPath>
</defs>
</svg>
