<svg xmlns="http://www.w3.org/2000/svg" viewBox="0 0 192.22 114.82"><defs><style>.cls-1{fill:#063e3e;}.cls-2{fill:#d26a98;}.cls-3{fill:#fff;}</style></defs><g id="Layer_2" data-name="Layer 2"><g id="Renku_Black_Magenta" data-name="Renku Black / Magenta"><path class="cls-1" d="M162.08.15l18.25,31.61A84.6,84.6,0,0,0,192.22,3.82,84.45,84.45,0,0,0,162.08.15Z"/><path class="cls-2" d="M125,11.29h0L105.37,22.63h0L65.68,45.54l6,10.47h0l15,26.07h0l6,10.46,59.33-34.25h0a83.91,83.91,0,0,0,28.18-26.53L162.08.15A83.89,83.89,0,0,0,125,11.29Zm38.18,21.39a14.82,14.82,0,0,1-14.29,11,15,15,0,0,1-3.86-.51,14.82,14.82,0,1,1,18.15-10.48Z"/><path class="cls-2" d="M67.09,90.37a12.5,12.5,0,0,1-4.54,1.55L32.9,95.82,51.1,72.1a12.31,12.31,0,0,1,3.62-3.16,12.47,12.47,0,0,1,4.93-1.59,21.72,21.72,0,0,0-21.31.23A21.46,21.46,0,0,0,32,73.13L0,114.82,52.1,108A21.75,21.75,0,0,0,70.93,86.89,12.49,12.49,0,0,1,67.09,90.37Z"/><path class="cls-3" d="M63.45,67.56a12.31,12.31,0,0,0-8.73,1.38A12.31,12.31,0,0,0,51.1,72.1L32.9,95.82l29.65-3.9a12.36,12.36,0,0,0,10.1-8.42Z"/><path class="cls-3" d="M153,38h0c.31-.14.61-.29.91-.46s.59-.36.86-.56l0,0c.26-.19.52-.4.76-.61l0,0a10,10,0,0,0,2.84-10.6s0,0,0,0a7.82,7.82,0,0,0-.36-.91v0c-.14-.31-.29-.61-.46-.91l0,0a10.93,10.93,0,0,0-.65-1,3.25,3.25,0,0,0-.23-.29,7.73,7.73,0,0,0-.6-.67l-.23-.24a10.18,10.18,0,0,0-1.91-1.44l-.23-.12c-.3-.16-.6-.31-.91-.44l-.19-.08a9.88,9.88,0,0,0-2.33-.61l-.23,0c-.34,0-.68-.06-1-.07h-.21a8.06,8.06,0,0,0-1.2.08h-.05a10.52,10.52,0,0,0-1.09.22l-.34.09q-.41.12-.81.27l-.36.14a10.52,10.52,0,0,0-1,.5l-.07,0a9.18,9.18,0,0,0-1.73,1.27A10,10,0,0,0,139.35,32a10.45,10.45,0,0,0,2,3.5h0a9.8,9.8,0,0,0,4,2.73l.1,0,.82.26.72.16.22,0a7.52,7.52,0,0,0,.94.11h0a9.91,9.91,0,0,0,3.82-.48h0C152.36,38.26,152.66,38.14,153,38Z"/><path class="cls-1" d="M141.47,16a14.82,14.82,0,1,0,14.82,25.67A14.82,14.82,0,0,0,141.47,16Zm6.71,22.85h0a7.52,7.52,0,0,1-.94-.11l-.22,0-.72-.16-.82-.26-.1,0a9.8,9.8,0,0,1-4-2.73h0a10.45,10.45,0,0,1-2-3.5,10,10,0,0,1,2.78-10.58,9.18,9.18,0,0,1,1.73-1.27l.07,0a10.52,10.52,0,0,1,1-.5l.36-.14q.4-.15.81-.27l.34-.09a10.52,10.52,0,0,1,1.09-.22h.05a8.06,8.06,0,0,1,1.2-.08H149c.34,0,.68,0,1,.07l.23,0a9.88,9.88,0,0,1,2.33.61l.19.08c.31.13.61.28.91.44l.23.12a10.18,10.18,0,0,1,1.91,1.44l.23.24a7.73,7.73,0,0,1,.6.67,3.25,3.25,0,0,1,.23.29,10.93,10.93,0,0,1,.65,1l0,0c.17.3.32.6.46.91v0a7.82,7.82,0,0,1,.36.91s0,0,0,0a10,10,0,0,1-2.84,10.6l0,0c-.24.21-.5.42-.76.61l0,0c-.27.2-.56.38-.86.56s-.6.32-.91.46h0c-.31.13-.61.25-.93.36h0A9.91,9.91,0,0,1,148.18,38.86Z"/><polygon class="cls-1" points="105.37 22.63 79.48 22.63 69.77 28.24 48 40.8 65.69 45.54 105.37 22.63 105.37 22.63"/><polygon class="cls-1" points="109.85 97.66 119.56 92.06 132.51 69.63 92.82 92.54 88.08 110.23 109.85 97.66"/><polygon class="cls-1" points="71.72 56.01 71.72 56.01 56.77 56.01 63.45 67.56 72.65 83.5 79.3 95.03 86.78 82.08 86.78 82.08 71.72 56.01"/></g></g></svg>