<svg xmlns="http://www.w3.org/2000/svg" viewBox="0 0 244.59 115"><defs><style>.cls-1{fill:#d26a98;}.cls-2{fill:#fff;}.cls-3{fill:#063e3e;}</style></defs><g id="Layer_2" data-name="Layer 2"><g id="Renku_Black_Magenta" data-name="Renku Black / Magenta"><rect class="cls-1" x="101.76" y="28.46" width="41.06" height="58.06"/><rect class="cls-2" x="106.61" y="75.6" width="15.69" height="4.79"/><rect class="cls-2" x="106.61" y="61.96" width="31.37" height="4.79"/><rect class="cls-2" x="106.61" y="48.32" width="31.37" height="4.79"/><rect class="cls-2" x="106.61" y="34.67" width="31.37" height="4.79"/><path class="cls-1" d="M177.27,1.19l-4.62,1.24,2.8,10.48A116.09,116.09,0,0,0,122.4,0h-.21A116.1,116.1,0,0,0,69.13,12.91L71.94,2.43,67.32,1.19,62.45,19.35l18.16,4.87,1.24-4.62-10-2.69A111.25,111.25,0,0,1,122.2,4.79h.19a111.31,111.31,0,0,1,50.38,12.12l-10,2.69L164,24.22l18.17-4.87Z"/><path class="cls-3" d="M164,90.78l-1.23,4.63,10,2.69a111.4,111.4,0,0,1-50.37,12.12h-.21A111.37,111.37,0,0,1,71.82,98.1l10-2.69-1.24-4.63L62.45,95.65l4.87,18.16,4.62-1.23L69.13,102.1A116.08,116.08,0,0,0,122.18,115h.22a116.08,116.08,0,0,0,53-12.9l-2.8,10.48,4.62,1.23,4.87-18.16Z"/><circle class="cls-2" cx="31.74" cy="36.35" r="18.72"/><path class="cls-1" d="M31.74,22.42A13.93,13.93,0,1,1,17.81,36.35,13.94,13.94,0,0,1,31.74,22.42m0-4.79A18.72,18.72,0,1,0,50.45,36.35,18.72,18.72,0,0,0,31.74,17.63Z"/><path class="cls-1" d="M63.47,73A13.4,13.4,0,0,0,50.08,59.6H13.39A13.4,13.4,0,0,0,0,73V86.52H63.47Z"/><path class="cls-3" d="M244.59,73a13.41,13.41,0,0,0-13.4-13.39H194.51A13.41,13.41,0,0,0,181.11,73V86.52h63.48Z"/><circle class="cls-2" cx="212.85" cy="36.35" r="18.72"/><path class="cls-3" d="M212.85,22.42a13.93,13.93,0,1,1-13.93,13.93,13.95,13.95,0,0,1,13.93-13.93m0-4.79a18.72,18.72,0,1,0,18.72,18.72,18.71,18.71,0,0,0-18.72-18.72Z"/></g></g></svg>