<svg xmlns="http://www.w3.org/2000/svg" viewBox="0 0 114.87 114.87"><defs><style>.cls-1{isolation:isolate;}.cls-2{fill:#fff;}.cls-3,.cls-4{fill:#d26a98;}.cls-3{mix-blend-mode:multiply;}.cls-5{fill:#063e3e;}</style></defs><g class="cls-1"><g id="Layer_2" data-name="Layer 2"><g id="Renku_Black_Magenta" data-name="Renku Black / Magenta"><rect class="cls-2" x="33.89" y="33.89" width="47.09" height="47.09"/><polygon class="cls-3" points="80.98 85.76 32.49 85.76 8.17 110.08 80.98 110.08 80.98 85.76"/><polygon class="cls-4" points="29.1 33.89 4.79 33.89 4.79 106.69 29.1 82.38 29.1 33.89"/><polygon class="cls-4" points="29.1 29.1 29.1 8.17 8.17 29.1 29.1 29.1"/><polygon class="cls-3" points="33.89 29.1 82.38 29.1 94.54 16.94 106.69 4.79 33.89 4.79 33.89 29.1"/><polygon class="cls-3" points="85.76 85.76 85.76 106.69 106.69 85.76 85.76 85.76"/><polygon class="cls-3" points="85.76 80.98 110.08 80.98 110.08 8.17 85.76 32.49 85.76 80.98"/><path class="cls-5" d="M114.53,84.56a1.43,1.43,0,0,0,.15-.27c0-.06,0-.12,0-.17a2.29,2.29,0,0,0,.09-.28,2.42,2.42,0,0,0,.05-.47v-81c0-.05,0-.1,0-.14a1,1,0,0,0,0-.17,1.8,1.8,0,0,0-.06-.32c0-.05,0-.09,0-.14a.56.56,0,0,1,0-.12v0h0a2.42,2.42,0,0,0-.21-.39v0c0-.05-.07-.08-.1-.13l-.1-.11a2.08,2.08,0,0,0-.21-.21l-.12-.1-.13-.1h0a2.56,2.56,0,0,0-.4-.22h0l-.12,0L113.1.09,112.78,0l-.16,0H31.5A2.61,2.61,0,0,0,31,.05l-.27.08-.17,0a1.73,1.73,0,0,0-.27.15l-.15.08a2.17,2.17,0,0,0-.29.24L29.8.7.7,29.8h0a2,2,0,0,0-.37.5.83.83,0,0,0-.07.13A2,2,0,0,0,.05,31v0a2.14,2.14,0,0,0,0,.45v81a.09.09,0,0,0,0,0,2,2,0,0,0,0,.42c0,.07,0,.14.06.22s0,.15.07.23l.12.22c0,.07.06.13.1.19a3.17,3.17,0,0,0,.28.34s0,0,0,0,0,0,0,0a2.91,2.91,0,0,0,.33.26l.19.11a1.51,1.51,0,0,0,.22.11l.24.08.2.06a2.56,2.56,0,0,0,.47,0h81a2.42,2.42,0,0,0,.47-.05l.19-.06.26-.08a1,1,0,0,0,.23-.13,1.51,1.51,0,0,0,.18-.09,2.51,2.51,0,0,0,.31-.26.1.1,0,0,0,0,0l29.1-29.1s0,0,0,0a2.78,2.78,0,0,0,.26-.32A.61.61,0,0,0,114.53,84.56Zm-20-67.62L82.38,29.1H33.89V4.79h72.8Zm-60.65,17H81V81H33.89ZM29.1,29.1H8.17L29.1,8.17ZM4.79,33.89H29.1V82.38L4.79,106.69Zm27.7,51.87H81v24.32H8.17Zm53.27,0H106.7L85.76,106.69ZM110.08,81H85.76V32.49L110.08,8.17Z"/></g></g></g></svg>