<svg xmlns="http://www.w3.org/2000/svg" viewBox="0 0 110.51 113.62"><defs><style>.cls-1{fill:#d26a98;}.cls-2{fill:#fff;}.cls-3{fill:#063e3e;}</style></defs><g id="Layer_2" data-name="Layer 2"><g id="Renku_Black_Magenta" data-name="Renku Black / Magenta"><ellipse class="cls-1" cx="75.83" cy="18.54" rx="29.89" ry="13.75"/><path class="cls-1" d="M104.6,29l-.26.2-.91.67-.4.27-.93.6-.36.22c-.44.26-.88.51-1.35.76l-.28.14c-.38.2-.77.39-1.17.58l-.48.22-1.12.49-.45.19c-.52.21-1.06.42-1.6.61l-.28.1-1.42.46L93,34.7l-1.29.37-.52.14-1.82.44-.24.05c-.54.12-1.1.23-1.66.33l-.61.11-1.43.23-.58.09-2,.25h-.15c-.63.07-1.27.12-1.92.17l-.64,0L78.62,37,78,37q-1.08,0-2.16,0t-2.16,0L73,37l-1.55-.08-.64,0c-.64,0-1.28-.1-1.92-.17h-.14l-2-.25-.58-.09-1.44-.23-.6-.11c-.56-.1-1.12-.21-1.67-.33l-.23-.05-1.82-.44-.52-.14-1.29-.37-.56-.17-1.41-.46-.28-.1c-.55-.19-1.08-.4-1.6-.61l-.45-.19c-.38-.16-.76-.32-1.12-.49-.16-.07-.33-.14-.48-.22l-1.18-.58-.28-.14c-.46-.25-.91-.5-1.34-.76l-.36-.22-.93-.6-.4-.27-.91-.67-.26-.2c-.36-.29-.71-.58-1.05-.89l-.08-.06v6.61c0,6.64,12,13.75,29.9,13.75s29.89-7.11,29.89-13.75V28.07l-.07.06C105.31,28.44,105,28.73,104.6,29Z"/><path class="cls-1" d="M75.75,58.73l.06,5.85h0c17.88,0,29.89-7.11,29.89-13.76V44.21a.27.27,0,0,1-.08.07c-.33.3-.68.6-1,.88l-.27.21-.9.66-.41.28-.92.59-.37.23c-.43.25-.87.51-1.33.75l-.3.15c-.38.2-.76.39-1.15.57l-.5.23q-.54.26-1.11.48l-.46.2c-.52.21-1,.41-1.59.6l-.3.1c-.45.16-.92.32-1.39.46l-.56.18-1.28.36-.53.14c-.6.16-1.2.31-1.82.44l-.25.05c-.55.12-1.09.23-1.65.33l-.61.11-1.43.23-.58.09c-.67.09-1.33.18-2,.25h-.15c-.63.07-1.27.12-1.92.17l-.64,0c-.51,0-1,.06-1.55.09l-.63,0c-.72,0-1.44,0-2.16,0s-1.45,0-2.16,0l-.64,0-1.55-.09-.64,0c-.64-.05-1.28-.1-1.92-.17h-.14c-.68-.07-1.35-.16-2-.25l-.59-.09-1.42-.23-.61-.11q-.84-.15-1.65-.33l-.25-.05c-.62-.13-1.22-.28-1.82-.44l-.53-.14-1.28-.36-.56-.18c-.47-.14-.94-.3-1.4-.46l-.3-.1q-.81-.28-1.59-.6l-.46-.2-1.11-.48-.49-.23c-.39-.18-.78-.37-1.15-.57l-.3-.15c-.46-.24-.91-.5-1.34-.75-.12-.08-.24-.16-.37-.23l-.92-.59-.4-.28-.9-.66-.27-.21c-.37-.28-.71-.58-1.05-.88l-.08-.07v6.61A6.17,6.17,0,0,0,46.37,53H70.05A5.7,5.7,0,0,1,75.75,58.73Z"/><path class="cls-1" d="M104.6,61.31l-.26.19-.91.67-.4.28-.93.6-.36.22c-.44.26-.88.51-1.35.76l-.28.14c-.38.2-.77.39-1.17.58l-.48.22-1.12.49-.45.19c-.52.21-1.06.41-1.6.61l-.28.09-1.42.47L93,67l-1.29.37-.52.14-1.82.44-.24,0-1.66.34-.61.11-1.43.23-.58.08c-.66.1-1.33.18-2,.25l-.15,0-1.92.17-.64,0-1.55.08-.62,0v0H75.85L76,80.72c17.82,0,29.77-7.13,29.77-13.75V60.36l-.07.06C105.31,60.72,105,61,104.6,61.31Z"/><path class="cls-2" d="M75.83,0C56.38,0,41.15,8.14,41.15,18.54V53h5.22a6.17,6.17,0,0,1-.44-2.21V44.21l.08.07c.34.3.68.6,1.05.88l.27.21.9.66.4.28.92.59c.13.07.25.15.37.23.43.25.88.51,1.34.75l.3.15c.37.2.76.39,1.15.57l.49.23,1.11.48.46.2q.78.32,1.59.6l.3.1c.46.16.93.32,1.4.46l.56.18,1.28.36.53.14c.6.16,1.2.31,1.82.44l.25.05q.81.18,1.65.33l.61.11,1.42.23.59.09c.66.09,1.33.18,2,.25h.14c.64.07,1.28.12,1.92.17l.64,0,1.55.09.64,0c.71,0,1.43,0,2.16,0s1.44,0,2.16,0l.63,0c.52,0,1,0,1.55-.09l.64,0c.65-.05,1.29-.1,1.92-.17h.15c.68-.07,1.34-.16,2-.25l.58-.09,1.43-.23.61-.11c.56-.1,1.1-.21,1.65-.33l.25-.05c.62-.13,1.22-.28,1.82-.44l.53-.14L93,50.85l.56-.18c.47-.14.94-.3,1.39-.46l.3-.1c.55-.19,1.07-.39,1.59-.6l.46-.2q.57-.23,1.11-.48l.5-.23c.39-.18.77-.37,1.15-.57l.3-.15c.46-.24.9-.5,1.33-.75l.37-.23.92-.59.41-.28.9-.66.27-.21c.36-.28.71-.58,1-.88a.27.27,0,0,0,.08-.07v6.61c0,6.65-12,13.76-29.89,13.76H0v4.78H16.05V80.72H0v4.79H16.05V96.86H0v4.79H16.05V113h4.79V101.65H36.49v12h4.79v-12H56.94v12h4.78v-12H78V96.86H61.72V85.51H78v0c18.4-.58,32.51-8.5,32.51-18.5V18.54C110.51,8.14,95.28,0,75.83,0ZM36.49,96.86H20.84V85.51H36.49Zm0-16.14H20.84V69.36H36.49ZM56.94,96.86H41.28V85.51H56.94Zm0-16.14H41.28V69.36H56.94ZM105.72,67c0,6.62-12,13.71-29.77,13.75H61.72V69.36H78v0l.62,0,1.55-.08.64,0L82.73,69l.15,0c.68-.07,1.35-.15,2-.25l.58-.08,1.43-.23.61-.11L89.17,68l.24,0,1.82-.44.52-.14L93,67l.55-.17L95,66.35l.28-.09c.54-.2,1.08-.4,1.6-.61l.45-.19L98.46,65l.48-.22c.4-.19.79-.38,1.17-.58l.28-.14c.47-.25.91-.5,1.35-.76l.36-.22.93-.6.4-.28.91-.67.26-.19c.36-.29.71-.59,1.05-.89l.07-.06Zm0-32.29c0,6.64-12,13.75-29.89,13.75s-29.9-7.11-29.9-13.75V28.07l.08.06c.34.31.69.6,1.05.89l.26.2.91.67.4.27.93.6.36.22c.43.26.88.51,1.34.76l.28.14,1.18.58c.15.08.32.15.48.22.36.17.74.33,1.12.49l.45.19c.52.21,1,.42,1.6.61l.28.1,1.41.46.56.17,1.29.37.52.14,1.82.44.23.05c.55.12,1.11.23,1.67.33l.6.11,1.44.23.58.09,2,.25h.14c.64.07,1.28.12,1.92.17l.64,0L73,37l.64,0q1.06,0,2.16,0T78,37l.63,0,1.55-.08.64,0c.65,0,1.29-.1,1.92-.17h.15l2-.25.58-.09,1.43-.23.61-.11c.56-.1,1.12-.21,1.66-.33l.24-.05,1.82-.44.52-.14L93,34.7l.55-.17L95,34.07l.28-.1c.54-.19,1.08-.4,1.6-.61l.45-.19,1.12-.49.48-.22c.4-.19.79-.38,1.17-.58l.28-.14c.47-.25.91-.5,1.35-.76l.36-.22.93-.6.4-.27.91-.67.26-.2c.36-.29.71-.58,1.05-.89l.07-.06ZM75.83,32.29c-17.88,0-29.9-7.11-29.9-13.75S58,4.79,75.83,4.79s29.89,7.11,29.89,13.75S93.71,32.29,75.83,32.29Z"/><rect class="cls-3" x="41.28" y="101.65" width="15.66" height="11.39"/><path class="cls-3" d="M61.72,113H70.5a5.7,5.7,0,0,0,5.7-5.7l0-5.69H61.72Z"/><polygon class="cls-3" points="61.72 96.86 76.1 96.86 76 85.51 61.72 85.51 61.72 96.86"/><rect class="cls-3" x="41.28" y="85.51" width="15.66" height="11.36"/><rect class="cls-3" x="20.84" y="69.36" width="15.66" height="11.36"/><rect class="cls-3" x="20.84" y="85.51" width="15.66" height="11.36"/><polygon class="cls-3" points="16.05 85.51 1.37 85.51 1.48 96.86 16.05 96.86 16.05 85.51"/><rect class="cls-3" x="20.84" y="101.65" width="15.66" height="11.39"/><polygon class="cls-3" points="16.05 69.36 1.23 69.36 1.33 80.72 16.05 80.72 16.05 69.36"/><path class="cls-3" d="M1.52,101.65l.05,5.69A5.71,5.71,0,0,0,7.28,113h8.77V101.65Z"/><path class="cls-3" d="M75.81,64.58l-.06-5.85a5.7,5.7,0,0,0-5.7-5.7H6.83a5.7,5.7,0,0,0-5.7,5.7l.05,5.85Z"/><polygon class="cls-3" points="61.72 69.36 61.72 80.72 75.95 80.72 75.95 80.72 75.85 69.36 61.72 69.36"/><rect class="cls-3" x="41.28" y="69.36" width="15.66" height="11.36"/></g></g></svg>