<svg width="347" height="197" viewBox="0 0 347 197" fill="none" xmlns="http://www.w3.org/2000/svg">
<path d="M140.043 150.257H151.433C149.533 138.147 139.048 129.712 125.404 129.712C109.259 129.712 97.1438 141.582 97.1438 161.461C97.1438 180.986 108.714 193.096 125.734 193.096C141.008 193.096 151.943 183.271 151.943 167.366V159.957H126.909V168.691H141.128C140.948 177.491 135.074 183.061 125.794 183.061C115.464 183.061 108.384 175.321 108.384 161.341C108.384 147.452 115.584 139.742 125.554 139.742C132.994 139.742 138.083 143.717 140.043 150.257Z" fill="#171321"/>
<path d="M159.473 192.251H170.378V146.002H159.473V192.251ZM164.973 138.652C168.438 138.652 171.268 135.997 171.268 132.747C171.268 129.497 168.438 126.812 164.973 126.812C161.508 126.812 158.648 129.462 158.648 132.747C158.648 136.032 161.458 138.652 164.953 138.652H164.973Z" fill="#171321"/>
<path d="M203.033 146.002H193.903V134.892H182.998V146.002H176.433V154.437H182.998V180.166C182.938 188.871 189.268 193.166 197.458 192.911C199.64 192.868 201.803 192.502 203.878 191.826L202.038 183.296C200.996 183.567 199.925 183.709 198.848 183.721C196.103 183.721 193.903 182.756 193.903 178.356V154.412H203.033V146.002Z" fill="#171321"/>
<path d="M211.473 192.251H249.823V182.881H222.653V130.552H211.473V192.251Z" fill="#171321"/>
<path d="M270.712 193.186C277.972 193.186 282.307 189.781 284.297 185.896H284.657V192.251H295.157V161.281C295.157 149.052 285.187 145.377 276.357 145.377C266.627 145.377 259.158 149.712 256.748 158.147L266.932 159.597C268.012 156.432 271.087 153.722 276.432 153.722C281.497 153.722 284.267 156.312 284.267 160.861V161.041C284.267 164.171 280.982 164.326 272.817 165.196C263.842 166.161 255.258 168.841 255.258 179.266C255.228 188.366 261.883 193.186 270.712 193.186ZM274.297 185.186C269.747 185.186 266.492 183.106 266.492 179.101C266.492 174.911 270.137 173.166 274.992 172.471C277.857 172.081 283.582 171.356 284.992 170.216V175.666C285.022 180.801 280.862 185.171 274.297 185.171V185.186Z" fill="#171321"/>
<path d="M303.187 192.251H313.912V184.961H314.542C316.262 188.336 319.847 193.066 327.802 193.066C338.707 193.066 346.872 184.416 346.872 169.176C346.872 153.752 338.467 145.377 327.772 145.377C319.607 145.377 316.202 150.287 314.542 153.632H314.082V130.552H303.187V192.251ZM313.882 169.116C313.882 160.117 317.737 154.322 324.757 154.322C332.017 154.322 335.757 160.497 335.757 169.116C335.757 177.736 331.962 184.116 324.757 184.116C317.797 184.116 313.882 178.091 313.882 169.116Z" fill="#171321"/>
<path d="M76.584 151.687L76.479 151.407L65.879 123.757C65.6645 123.214 65.2827 122.753 64.7891 122.442C64.4207 122.206 64.0022 122.06 63.5671 122.015C63.1321 121.97 62.6925 122.027 62.2837 122.183C61.8749 122.339 61.5083 122.588 61.2131 122.911C60.918 123.233 60.7025 123.621 60.5841 124.042L53.4291 145.947H24.4544L17.2994 124.042C17.1801 123.621 16.9641 123.235 16.6688 122.912C16.3735 122.59 16.0071 122.342 15.5986 122.186C15.1901 122.031 14.751 121.973 14.3162 122.017C13.8815 122.062 13.4631 122.207 13.0945 122.442C12.6008 122.753 12.219 123.214 12.0045 123.757L1.40955 151.412L1.29955 151.687C-0.225804 155.673 -0.413722 160.047 0.764127 164.15C1.94198 168.253 4.42174 171.861 7.82951 174.431L7.86951 174.461L7.9595 174.531L24.0844 186.616L32.0843 192.661L36.9443 196.336C37.5145 196.767 38.2096 197 38.9243 197C39.6389 197 40.334 196.767 40.9042 196.336L45.7642 192.661L53.7641 186.616L70.004 174.461L70.049 174.426C73.4566 171.857 75.9367 168.25 77.1154 164.148C78.2941 160.047 78.1076 155.673 76.584 151.687V151.687Z" fill="#E24329"/>
<path d="M76.584 151.687L76.479 151.407C71.3145 152.466 66.4483 154.655 62.2291 157.817L38.9543 175.416L53.7741 186.616L70.014 174.461L70.059 174.426C73.4649 171.856 75.9429 168.248 77.1198 164.146C78.2967 160.045 78.1086 155.672 76.584 151.687V151.687Z" fill="#FC6D26"/>
<path d="M24.0844 186.616L32.0843 192.661L36.9443 196.336C37.5145 196.767 38.2096 197 38.9243 197C39.6389 197 40.334 196.767 40.9042 196.336L45.7642 192.661L53.7641 186.616L38.9443 175.416L24.0844 186.616Z" fill="#FCA326"/>
<path d="M15.6544 157.817C11.4368 154.657 6.57219 152.47 1.40955 151.412L1.29955 151.687C-0.225804 155.673 -0.413723 160.047 0.764127 164.15C1.94198 168.253 4.42174 171.861 7.82951 174.431L7.86951 174.461L7.95951 174.531L24.0844 186.616L38.9143 175.416L15.6544 157.817Z" fill="#FC6D26"/>
<g clip-path="url(#clip0_5_2)">
<path d="M212.06 31.31C214.122 33.7766 215.261 36.8848 215.28 40.1C215.28 49.76 207.71 55.42 196.75 55.42C194.432 55.4492 192.121 55.1838 189.87 54.63L187 59.21L195.52 59.74C210.58 60.74 219.46 61.13 219.46 72.74C219.46 82.74 210.67 88.41 195.52 88.41C179.77 88.41 173.77 84.41 173.77 77.53C173.77 73.61 175.51 71.53 178.55 68.65C177.381 68.2295 176.378 67.4449 175.689 66.4115C174.999 65.3782 174.66 64.1508 174.72 62.91C174.837 60.8774 175.745 58.9714 177.25 57.6C178.82 55.95 180.56 54.29 182.64 52.38C178.38 50.29 175.16 45.76 175.16 39.32C175.16 29.32 181.78 22.44 195.09 22.44C197.784 22.3705 200.474 22.6631 203.09 23.31H220.09V30.71L212.09 31.32M186.3 71C185.17 72.39 184.04 73.87 184.04 75.61C184.04 79.09 188.47 80.13 194.57 80.13C199.62 80.13 206.49 79.78 206.49 75.13C206.49 72.34 203.18 72.13 199 71.9L186.3 71ZM195.87 31C191.08 31 187.52 33.36 187.52 39C187.52 43.27 189.87 46.23 195.62 46.23C200.49 46.23 203.79 43.36 203.79 38.83C203.79 33.74 200.83 31.04 195.87 31.04V31Z" fill="#413000"/>
<path d="M224.15 67.79V60.92L228.59 60.31C229.81 60.14 229.98 59.88 229.98 58.57V32.98C229.98 31.98 229.72 31.42 228.85 31.16L224.15 29.5L225.15 22.5H243.15V58.57C243.15 59.97 243.24 60.14 244.55 60.31L248.99 60.92V67.79H224.15ZM235.38 15.49C230.38 15.49 227.55 12.62 227.55 7.66C227.55 2.7 230.42 0 235.38 0C240.34 0 243.3 2.7 243.3 7.66C243.3 12.62 240.43 15.49 235.38 15.49Z" fill="#413000"/>
<mask id="mask0_5_2" style="mask-type:alpha" maskUnits="userSpaceOnUse" x="65" y="0" width="219" height="92">
<path d="M283.37 0.789993H65.06V92H283.37V0.789993Z" fill="white"/>
</mask>
<g mask="url(#mask0_5_2)">
<path d="M283.37 64.42C278.94 66.5736 274.103 67.7599 269.18 67.9C258.83 67.9 254.91 63.73 254.91 53.9V31.09C254.91 30.57 254.91 30.22 254.21 30.22H248.12V22.47C255.78 21.6 258.83 17.77 259.79 8.28H268.05V20.64C268.05 21.25 268.05 21.52 268.75 21.52H281V30.21H268V51.01C268 56.14 269.22 58.14 273.92 58.14C276.342 58.0956 278.738 57.6286 281 56.76L283.35 64.42" fill="#413000"/>
<path d="M154.42 41.58L114.63 1.78999C113.529 0.689593 112.036 0.0714264 110.48 0.0714264C108.924 0.0714264 107.431 0.689593 106.33 1.78999L98.06 10.05L108.55 20.54C109.784 20.1347 111.106 20.0806 112.369 20.3839C113.632 20.6872 114.786 21.3359 115.701 22.2574C116.616 23.179 117.257 24.3369 117.552 25.6019C117.847 26.8668 117.784 28.1888 117.37 29.42L127.48 39.52C128.994 38.9992 130.641 39.0132 132.146 39.5595C133.651 40.1059 134.923 41.1517 135.75 42.5225C136.577 43.8933 136.91 45.5062 136.692 47.0924C136.474 48.6786 135.719 50.1421 134.552 51.2389C133.386 52.3357 131.879 52.9995 130.282 53.1196C128.686 53.2397 127.096 52.8089 125.779 51.899C124.461 50.9891 123.496 49.655 123.043 48.1194C122.59 46.5837 122.677 44.9391 123.29 43.46L113.87 34.04V58.83C114.553 59.1682 115.178 59.6139 115.72 60.15C116.702 61.1279 117.371 62.3751 117.643 63.7337C117.916 65.0923 117.779 66.5012 117.25 67.7819C116.721 69.0626 115.824 70.1575 114.672 70.9278C113.52 71.6982 112.166 72.1095 110.78 72.1095C109.394 72.1095 108.04 71.6982 106.888 70.9278C105.736 70.1575 104.839 69.0626 104.31 67.7819C103.781 66.5012 103.644 65.0923 103.917 63.7337C104.189 62.3751 104.858 61.1279 105.84 60.15C106.497 59.499 107.275 58.9827 108.13 58.63V33.63C107.279 33.2784 106.505 32.7624 105.854 32.1114C105.203 31.4605 104.686 30.6874 104.334 29.8365C103.982 28.9855 103.801 28.0735 103.802 27.1526C103.803 26.2318 103.986 25.3201 104.34 24.47L94 14.11L66.72 41.4C65.6196 42.5008 65.0014 43.9935 65.0014 45.55C65.0014 47.1065 65.6196 48.5992 66.72 49.7L106.51 89.49C107.611 90.5904 109.104 91.2086 110.66 91.2086C112.216 91.2086 113.709 90.5904 114.81 89.49L154.42 49.88C155.52 48.7792 156.139 47.2865 156.139 45.73C156.139 44.1735 155.52 42.6808 154.42 41.58" fill="#F05133"/>
</g>
</g>
<defs>
<clipPath id="clip0_5_2">
<rect width="218.37" height="91.21" fill="white" transform="translate(65)"/>
</clipPath>
</defs>
</svg>
