<svg xmlns="http://www.w3.org/2000/svg" viewBox="0 0 123.79 114.87"><defs><style>.cls-1{fill:none;}.cls-2{fill:#063e3e;}.cls-3{fill:#d26a98;}</style></defs><g id="Layer_2" data-name="Layer 2"><g id="Renku_Black_Magenta" data-name="Renku Black / Magenta"><path class="cls-1" d="M58.17,18.49,36,12.62,57.89,36.46A15.17,15.17,0,0,1,64,34.12V26A8.2,8.2,0,0,1,58.17,18.49Z"/><path class="cls-1" d="M68.75,26v8.08a15.19,15.19,0,0,1,7.19,3.17l27.28-24.81L74.53,18.83A8.22,8.22,0,0,1,68.75,26Z"/><path class="cls-1" d="M79.16,40.83a15.15,15.15,0,0,1,1.92,12.59l28.4,13.18a8.2,8.2,0,0,1,3.22-2.2l-3.1-48.22a8.05,8.05,0,0,1-2.31-.93Z"/><path class="cls-1" d="M66.36,64.55A15.53,15.53,0,0,1,62.24,64L45.51,100.53a9.13,9.13,0,0,1,.69.7l61.26-28.07a7.88,7.88,0,0,1-.08-1.09,8.34,8.34,0,0,1,.09-1.13L79.08,57.77A15.3,15.3,0,0,1,66.36,64.55Z"/><path class="cls-1" d="M16.41,72.07a8.18,8.18,0,0,1-1.13,4.14L36.52,99.28a8.16,8.16,0,0,1,3.55-.82,7.88,7.88,0,0,1,1.09.08L57.88,62a15.29,15.29,0,0,1-4.72-5L16.38,71.43C16.39,71.64,16.41,71.85,16.41,72.07Z"/><path class="cls-1" d="M14.63,67,51.4,52.53a15.52,15.52,0,0,1-.36-3.3,15.23,15.23,0,0,1,3.33-9.52L32.25,15.6a8.17,8.17,0,0,1-3.53.81H28.6L12.88,65.33A8.52,8.52,0,0,1,14.63,67Z"/><path class="cls-2" d="M35.78,12.36l.23.26,22.16,5.87A8.2,8.2,0,0,0,64,26v8.08a13.76,13.76,0,0,1,4.79,0V26a8.22,8.22,0,0,0,5.78-7.21l28.69-6.35.85-.77a8.23,8.23,0,0,1-.79-3.5c0-.22,0-.44,0-.65L73.5,14.16a8.19,8.19,0,0,0-14.11-.3l-22.48-6c0,.1,0,.2,0,.31A8.12,8.12,0,0,1,35.78,12.36Z"/><path class="cls-2" d="M36.52,99.28,15.28,76.21a8.18,8.18,0,0,0,1.13-4.14c0-.22,0-.43,0-.64L53.16,57a15.16,15.16,0,0,1-1.76-4.45L14.63,67a8.52,8.52,0,0,0-1.75-1.64L28.6,16.4A8.14,8.14,0,0,1,24,14.94L8.33,63.87H8.21a8.21,8.21,0,1,0,3.55,15.6L33,102.52A8.23,8.23,0,0,1,36.52,99.28Z"/><path class="cls-3" d="M45.51,100.53,62.24,64a15.53,15.53,0,0,0,4.12.57,15.31,15.31,0,0,0,12.8-23.72l28.13-25.58a8.05,8.05,0,0,0,2.31.93,7.81,7.81,0,0,0,1.88.23,8.21,8.21,0,1,0-8.17-8.85c0,.21,0,.43,0,.65a8.23,8.23,0,0,0,.79,3.5l-.85.77L75.94,37.29a15.19,15.19,0,0,0-7.19-3.17,13.76,13.76,0,0,0-4.79,0,15.17,15.17,0,0,0-6.07,2.34L36,12.62l-.23-.26a8.12,8.12,0,0,0,1.14-4.15c0-.11,0-.21,0-.31a8.2,8.2,0,1,0-8.31,8.5h.12a8.17,8.17,0,0,0,3.53-.81L54.37,39.71A15.23,15.23,0,0,0,51,49.23a15.52,15.52,0,0,0,.36,3.3A15.5,15.5,0,0,0,57.88,62L41.16,98.54a7.88,7.88,0,0,0-1.09-.08,8.21,8.21,0,1,0,8.21,8.21,9.63,9.63,0,0,0-.08-1.09,8.22,8.22,0,0,0-2-4.35A9.13,9.13,0,0,0,45.51,100.53Z"/><path class="cls-2" d="M117.47,64.09l-3.09-48.21a8.2,8.2,0,0,1-2.9.53,7.81,7.81,0,0,1-1.88-.23l3.1,48.22a8.2,8.2,0,0,0-3.22,2.2L81.08,53.42a15.25,15.25,0,0,1-2,4.35l28.39,13.17a8.34,8.34,0,0,0-.09,1.13,7.88,7.88,0,0,0,.08,1.09L46.2,101.23a8.22,8.22,0,0,1,2,4.35l61.26-28.07a8.2,8.2,0,1,0,8-13.42Z"/></g></g></svg>