<svg id="Layer_1" data-name="Layer 1" xmlns="http://www.w3.org/2000/svg" xmlns:xlink="http://www.w3.org/1999/xlink" viewBox="0 0 112.04 121"><defs><style>.cls-1{fill:#fff;}.cls-2{fill:#d26b99;}.cls-3{fill:#f5f6f6;}.cls-4{fill:#0a3f3f;}.cls-5{fill:url(#radial-gradient);}.cls-6{opacity:0.25;isolation:isolate;fill:url(#linear-gradient);}.cls-7{fill:#e6b359;}.cls-8{fill:#4e4e4e;}.cls-9{fill:#767677;}.cls-10{fill:#f37726;}.cls-11{fill:#9e9e9e;}.cls-12{fill:#616262;}</style><radialGradient id="radial-gradient" cx="97.39" cy="774.15" r="36.46" gradientTransform="translate(0 -667.89)" gradientUnits="userSpaceOnUse"><stop offset="0" stop-color="#8bd5e9"/><stop offset="0.7" stop-color="#3971b8"/><stop offset="1" stop-color="#2c4ca0"/></radialGradient><linearGradient id="linear-gradient" x1="96.59" y1="725.59" x2="96.68" y2="757.42" gradientTransform="translate(0 -667.89)" gradientUnits="userSpaceOnUse"><stop offset="0" stop-color="#fff" stop-opacity="0.83"/><stop offset="0.56" stop-color="#fff" stop-opacity="0.37"/><stop offset="1" stop-color="#fff" stop-opacity="0"/></linearGradient></defs><g id="Layer_2" data-name="Layer 2"><g id="Renku_Black_Magenta" data-name="Renku Black Magenta"><path class="cls-1" d="M35.9,46.7H53.3L50.6,44l2.5-2.5a3.5,3.5,0,0,1,5,0l3.5,3.4a1.05,1.05,0,0,0,.5-.9V29.8a3.5,3.5,0,0,1,7,0V36a3.08,3.08,0,0,1,1-.1,4,4,0,0,1,2.3.8,3.61,3.61,0,0,1,5.5,1.2,3.08,3.08,0,0,1,1.3-.3,3.48,3.48,0,0,1,3.5,3.5v5.4h3.7V6.2H35.9Zm5.2-35.8H81.2V16H41.1Zm0,10.3H62.3v5.1H41.1Zm0,10.2H51.9v5.1H41.1Z" transform="translate(-9.86 -3.6)"/><path class="cls-2" d="M35.9,6.2H86.4v-1l5.1,3.2a5.13,5.13,0,0,0-5.1-4.8H35.9a5.12,5.12,0,0,0-5.1,5.1l5.1-3.5Z" transform="translate(-9.86 -3.6)"/><path class="cls-2" d="M35.9,46.7v.6l-5.1-3.2a3.4,3.4,0,0,0,.1,1c.1.3.2.7.3,1s.1.3.2.5a5.58,5.58,0,0,0,.5.8,1.38,1.38,0,0,1,.3.4,5.72,5.72,0,0,0,1.6,1.1,4.48,4.48,0,0,0,2,.4h20l-2.6-2.6Z" transform="translate(-9.86 -3.6)"/><path class="cls-2" d="M86.4,46.7H82.7v2.5h3.7a4.48,4.48,0,0,0,2-.4A5.72,5.72,0,0,0,90,47.7a1.38,1.38,0,0,0,.3-.4,3.51,3.51,0,0,0,.5-.8A.76.76,0,0,0,91,46c.1-.3.2-.6.3-1a3.4,3.4,0,0,0,.1-1v-.4l-5.1,3.6Z" transform="translate(-9.86 -3.6)"/><polygon class="cls-2" points="26.04 43.1 26.04 2.6 26.04 1.6 20.93 5.2 20.93 40.5 26.04 43.7 26.04 43.1"/><path class="cls-2" d="M91.5,8.4,86.4,5.2V47.3l5.1-3.6V8.4ZM89,27.9a1.69,1.69,0,0,1-1.7-1.7,1.7,1.7,0,0,1,3.4,0A1.75,1.75,0,0,1,89,27.9Z" transform="translate(-9.86 -3.6)"/><rect class="cls-2" x="31.24" y="7.3" width="40.1" height="5.1"/><rect class="cls-2" x="31.24" y="17.6" width="21.2" height="5.1"/><rect class="cls-2" x="31.24" y="27.8" width="10.8" height="5.1"/><path class="cls-3" d="M80.1,41.3a1,1,0,0,0-1.9-.1v2.4H75.6v-4a1,1,0,0,0-1-.9.9.9,0,0,0-.9.9v4H71.1v-4a1,1,0,0,0-1-.9.9.9,0,0,0-.9.9v4H66.6V29.8a1,1,0,0,0-1-.9.9.9,0,0,0-.9.9V44a3.48,3.48,0,0,1-3.5,3.5h-.5l-4.3-4.3a1,1,0,0,0-1.4,0l-.8.8,9.6,9.6a3.58,3.58,0,0,1,1.1,2.5v2l1.5.1H77.3l1.6-1.6a4.2,4.2,0,0,0,1.2-2.8Z" transform="translate(-9.86 -3.6)"/><path class="cls-4" d="M82.7,41.3a3.48,3.48,0,0,0-3.5-3.5,2.77,2.77,0,0,0-1.3.3,3.56,3.56,0,0,0-3.2-2,4,4,0,0,0-2.3.8,3.57,3.57,0,0,0-2.3-.8,3.4,3.4,0,0,0-1,.1V30a3.5,3.5,0,0,0-7,0h0V44a1.05,1.05,0,0,1-.5.9l-3.5-3.5a3.5,3.5,0,0,0-5,0l-2.5,2.5,2.7,2.7,2.6,2.6,6.2,6.2a.91.91,0,0,1,.3.7v2.1H60.7v7H82.8v-7H81.1a6.56,6.56,0,0,0,1.7-4.4C82.7,53.7,82.7,41.3,82.7,41.3ZM79,56.6l-1.6,1.6h-11l-1.5-.1v-2a3.25,3.25,0,0,0-1.1-2.5L54.2,44l.7-.7a1,1,0,0,1,1.4,0l4.3,4.3h.5a3.48,3.48,0,0,0,3.5-3.5V29.8a1,1,0,0,1,1-.9.9.9,0,0,1,.9.9V43.5h2.6v-4a1,1,0,0,1,1-.9.9.9,0,0,1,.9.9v4h2.6v-4a1,1,0,0,1,1-.9.9.9,0,0,1,.9.9v4h2.6V41.2a1,1,0,1,1,1.9-.1V53.7A3.83,3.83,0,0,1,79,56.6Zm1.2,6h-17V60.8h17Z" transform="translate(-9.86 -3.6)"/><rect class="cls-3" x="53.24" y="57.1" width="17" height="1.8"/><path class="cls-1" d="M89,24.6a1.69,1.69,0,0,0-1.7,1.7,1.7,1.7,0,0,0,3.4,0h0A1.75,1.75,0,0,0,89,24.6Z" transform="translate(-9.86 -3.6)"/></g></g><path class="cls-5" d="M120.3,81.8l-3.6-2.1c-5-3.7-13.8-8.2-20-11.6-7.1,4.1-14.5,8.4-20.2,11.6l-3.5,2v27.4l23.7,13.7,23.7-13.7-.1-27.3Z" transform="translate(-9.86 -3.6)"/><path class="cls-6" d="M96.6,89.5c8.8,0,16.4-3.9,19.8-9.5L96.7,68.6h0L76.9,80C80.3,85.6,87.8,89.5,96.6,89.5Z" transform="translate(-9.86 -3.6)"/><path class="cls-1" d="M121.9,109.9V80.8l-2-1.2-19.1-11-4.1-2.4-4.1,2.4-19.1,11-2,1.2v29.1l2,1.2,19.3,11.2,3.9,2.3,3.9-2.3,19.3-11.2Zm-48.5-1.1V82l3.4-2L96.6,68.6h0L116.3,80l3.5,2v26.8L96.6,122.2Z" transform="translate(-9.86 -3.6)"/><path class="cls-7" d="M83.9,109.6Z" transform="translate(-9.86 -3.6)"/><path class="cls-1" d="M92,97.7a2.82,2.82,0,0,0,1.5.4c.9,0,1.4-.5,1.4-1.1s-.4-1-1.2-1.3c-1.1-.4-1.7-1-1.7-1.9A1.94,1.94,0,0,1,94.1,92a3.21,3.21,0,0,1,1.4.3l-.2.7a2.66,2.66,0,0,0-1.2-.3c-.9,0-1.2.5-1.2,1s.4.9,1.3,1.3c1.1.4,1.7,1,1.7,1.9s-.7,1.9-2.3,1.9a4.26,4.26,0,0,1-1.7-.4Z" transform="translate(-9.86 -3.6)"/><path class="cls-1" d="M97.9,92.8v1.1h1.2v.7H97.9v2.6q0,.9.6.9A.9.9,0,0,0,99,98v.7a2,2,0,0,1-.8.1,1,1,0,0,1-.9-.4,2.13,2.13,0,0,1-.3-1.2V94.6h-.7v-.7H97v-.8Z" transform="translate(-9.86 -3.6)"/><path class="cls-1" d="M104,97.4v1.3h-.8v-.8h0a1.7,1.7,0,0,1-1.6.9c-.7,0-1.6-.4-1.6-2.1V93.9h.9v2.6c0,.9.3,1.5,1.1,1.5a1.11,1.11,0,0,0,1.1-.8.6.6,0,0,0,.1-.4V93.9h.9l-.1,3.5Z" transform="translate(-9.86 -3.6)"/><path class="cls-1" d="M109.5,91.8v6.9h-.8v-.8h0a1.77,1.77,0,0,1-1.6.9,2.18,2.18,0,0,1-2-2.4,2.23,2.23,0,0,1,2.1-2.5,1.49,1.49,0,0,1,1.4.7h0V91.8Zm-.8,4.1v-.4a1.19,1.19,0,0,0-1.2-1c-.9,0-1.4.8-1.4,1.8s.5,1.8,1.4,1.8a1.38,1.38,0,0,0,1.3-1v-.4l-.1-.8Z" transform="translate(-9.86 -3.6)"/><path class="cls-1" d="M111.9,92.7a.5.5,0,1,1-1,0h0a.47.47,0,0,1,.5-.5h0c.3-.1.5.1.5.5Zm-.9,6V94h.9v4.7Z" transform="translate(-9.86 -3.6)"/><path class="cls-1" d="M117.6,96.3a2.28,2.28,0,0,1-2.4,2.5,2.23,2.23,0,0,1-2.3-2.4,2.26,2.26,0,0,1,2.3-2.5A2.31,2.31,0,0,1,117.6,96.3Zm-3.8.1a1.44,1.44,0,1,0,2.8,0c0-.8-.4-1.8-1.4-1.8s-1.4.9-1.4,1.8Z" transform="translate(-9.86 -3.6)"/><path class="cls-1" d="M83.1,88.1a7.4,7.4,0,1,0,0,14.8,7.3,7.3,0,0,0,7.3-7.4h0A7.36,7.36,0,0,0,83.1,88.1Zm3.3,10.4H85.2l-2-3H82.1v2.4h1.1v.6H80.5v-.6h.9V92.6l-.9-.1v-.6a3.4,3.4,0,0,0,1,.1c.6,0,1.1-.1,1.7-.1,1.1,0,2.1.5,2.1,1.7a1.92,1.92,0,0,1-1.4,1.8l1.7,2.5h.8v.6Z" transform="translate(-9.86 -3.6)"/><path class="cls-1" d="M84.6,93.6c0-.8-.6-1.2-1.4-1.2a3.75,3.75,0,0,0-1.1.1v2.3h.6C84,94.9,84.6,94.3,84.6,93.6Z" transform="translate(-9.86 -3.6)"/><path class="cls-1" d="M117.1,92.1a.5.5,0,1,0,.5.5h0A.54.54,0,0,0,117.1,92.1Zm.4.6a.4.4,0,1,1-.4-.4h0C117.3,92.2,117.5,92.4,117.5,92.7Z" transform="translate(-9.86 -3.6)"/><path class="cls-1" d="M117.3,92.9l-.1-.2c.1,0,.1-.1.1-.2a.22.22,0,0,0-.2-.2h-.3v.1h.1v.4h-.1v.1h.2v-.1h-.1v-.2h.1l.3.3Zm-.1-.4h0c-.1.1-.1.1-.2.1h0v-.2l.2.1Z" transform="translate(-9.86 -3.6)"/><path class="cls-1" d="M96.5,120.9l.3.3.2.2h0a.37.37,0,0,0-.1-.3l-.1-.4.1-.1.3.3.2.2h0c0-.1-.1-.2-.1-.3l-.1-.4.1-.1.2.9-.1.1-.3-.3-.2-.2h0c0,.1.1.2.1.3l.1.4-.1.1-.5-.7Z" transform="translate(-9.86 -3.6)"/><path class="cls-1" d="M97.6,120.3l.3.3.2.2h0a.37.37,0,0,0-.1-.3l-.1-.4.1-.1.3.3.2.2h0c0-.1-.1-.2-.1-.3l-.1-.4.1-.1.2.9-.1.1-.3-.3-.2-.2h0c0,.1.1.2.1.3l.1.4-.1.1-.5-.7Z" transform="translate(-9.86 -3.6)"/><path class="cls-1" d="M98.7,119.6l.3.3.2.2h0a.37.37,0,0,0-.1-.3l-.1-.4.1-.1.3.3.2.2h0c0-.1-.1-.2-.1-.3l-.1-.4.1-.1.2.9-.1.1-.3-.3-.2-.2h0c0,.1.1.2.1.3l.1.4-.1.1-.5-.7Z" transform="translate(-9.86 -3.6)"/><path class="cls-1" d="M100.1,119.7h0c.1.1,0,.1,0,0Z" transform="translate(-9.86 -3.6)"/><path class="cls-1" d="M100.2,119.1a.35.35,0,0,0-.1-.2l.1-.1.1.1h0a.37.37,0,0,1,.1-.3h0l.1.1h0a.37.37,0,0,0-.1.3v.1l.2.4-.1.1Z" transform="translate(-9.86 -3.6)"/><path class="cls-1" d="M100.8,119.2h.2c.1-.1.1-.1.1-.2s-.1-.1-.2-.1-.3,0-.3-.1,0-.3.1-.4.1-.1.2-.1v.1h-.2c-.1,0-.1.1-.1.2h0c0,.1.1.1.2,0s.3,0,.3.1,0,.3-.1.4a.35.35,0,0,0-.2.1Z" transform="translate(-9.86 -3.6)"/><path class="cls-1" d="M101.1,117.9l.1.2.2-.1.1.1-.2.1.2.4c.1.1.1.1.2.1l.1-.1.1.1-.1.1h-.2c-.1,0-.1-.1-.2-.2l-.2-.4-.1.1-.1-.1.1-.1v-.2Z" transform="translate(-9.86 -3.6)"/><path class="cls-1" d="M102.5,118.1c0,.1.1.1.1.2l-.1.1-.1-.1h0c0,.1-.1.2-.2.3s-.3.1-.4-.2l-.2-.4.1-.1.2.4c.1.1.2.2.3.1s.1-.1.1-.2v-.1l-.3-.4.1-.1Z" transform="translate(-9.86 -3.6)"/><path class="cls-1" d="M102.8,116.8l.5.9c0,.1.1.1.1.2l-.1.1-.1-.1h0c0,.1-.1.2-.2.3a.37.37,0,0,1-.5-.2c-.1-.2-.1-.5.1-.6a.19.19,0,0,1,.3,0h0l-.2-.4Zm.3.7h0c-.1-.1-.2-.2-.3-.1s-.1.2-.1.4.2.2.4.1.1-.2,0-.4Z" transform="translate(-9.86 -3.6)"/><path class="cls-1" d="M103.3,116.7h0c-.1-.1-.1,0,0,0Zm.4,1-.4-.7.1-.1.3.8Z" transform="translate(-9.86 -3.6)"/><path class="cls-1" d="M104.5,116.8a.43.43,0,0,1-.1.6c-.2.1-.4.1-.6-.2s-.1-.5.1-.6S104.3,116.5,104.5,116.8Zm-.6.3a.4.4,0,0,0,.4.2c.1,0,.2-.2.1-.4a.52.52,0,0,0-.4-.2c-.2,0-.2.3-.1.4Z" transform="translate(-9.86 -3.6)"/><path class="cls-1" d="M104.7,117h0c0-.1.1-.1.2-.1v.2c-.1,0-.1-.1-.2-.1Z" transform="translate(-9.86 -3.6)"/><path class="cls-1" d="M105.6,116.6c0,.1-.1.1-.2.2s-.4.1-.6-.2-.1-.5.1-.6h0c.1,0,.1-.1.2-.1v.1c-.1,0-.1,0-.2.1a.29.29,0,1,0,.3.5c.2,0,.3-.1.4,0Z" transform="translate(-9.86 -3.6)"/><path class="cls-1" d="M106.2,115.7a.43.43,0,0,1-.1.6c-.2.1-.4.1-.6-.2s-.1-.5.1-.6S106.1,115.5,106.2,115.7Zm-.6.4a.4.4,0,0,0,.4.2c.1,0,.2-.2.1-.4a.52.52,0,0,0-.4-.2C105.5,115.7,105.6,116,105.6,116.1Z" transform="translate(-9.86 -3.6)"/><path class="cls-1" d="M106.3,115.5c0-.1-.1-.1-.1-.2l.1-.1.1.1h0c0-.1.1-.2.2-.3s.2,0,.3,0h0v-.1a.1.1,0,0,1,.1-.1c.1-.1.3-.1.4.2l.2.4-.1.1-.2-.4c-.1-.1-.2-.2-.3-.1s-.1.1-.1.2v.1l.3.4-.1.1-.2-.4c-.1-.1-.2-.2-.3-.1s-.1.1-.1.2v.1l.3.4-.1.1Z" transform="translate(-9.86 -3.6)"/><g id="Canvas"><g id="Group"><g id="Group-2" data-name="Group"><g id="Group-3" data-name="Group"><g id="g"><g id="path"><g id="path9_fill" data-name="path9 fill"><path id="path0_fill" data-name="path0 fill" class="cls-8" d="M11.61,95.27c0,1.56-.12,2.07-.45,2.44a1.94,1.94,0,0,1-1.3.5l.13.89a3,3,0,0,0,2-.74,3.5,3.5,0,0,0,.66-1.25,3.41,3.41,0,0,0,.12-1.42V89.8H11.61v5.47Z" transform="translate(-9.86 -3.6)"/></g></g><g id="path-2" data-name="path"><g id="path10_fill" data-name="path10 fill"><path id="path1_fill" data-name="path1 fill" class="cls-8" d="M20.51,94.57c0,.67,0,1.26,0,1.78H19.5l-.07-1.06a2.41,2.41,0,0,1-.92.9,2.46,2.46,0,0,1-1.24.31c-1,0-2.27-.56-2.27-2.85v-3.8h1.2v3.56c0,1.24.38,2.07,1.46,2.07a1.73,1.73,0,0,0,.64-.12,1.62,1.62,0,0,0,.55-.37,1.63,1.63,0,0,0,.49-1.19v-4h1.19v4.73Z" transform="translate(-9.86 -3.6)"/></g></g><g id="path-3" data-name="path"><g id="path11_fill" data-name="path11 fill"><path id="path2_fill" data-name="path2 fill" class="cls-8" d="M22.77,92c0-.83,0-1.5-.06-2.12h1.07L23.84,91a2.51,2.51,0,0,1,1-.95,2.6,2.6,0,0,1,1.34-.31C27.75,89.7,29,91,29,93c0,2.34-1.44,3.49-3,3.49a2.26,2.26,0,0,1-1.14-.24,2.36,2.36,0,0,1-.88-.78h0V99H22.77V92Zm1.17,1.74a2.63,2.63,0,0,0,.06.48,1.84,1.84,0,0,0,1.78,1.38c1.25,0,2-1,2-2.51,0-1.3-.69-2.42-1.95-2.42a2.07,2.07,0,0,0-1.31.62,2.14,2.14,0,0,0-.57,1.33Z" transform="translate(-9.86 -3.6)"/></g></g><g id="path-4" data-name="path"><g id="path12_fill" data-name="path12 fill"><path id="path3_fill" data-name="path3 fill" class="cls-8" d="M31.07,89.85l1.44,3.83c.15.43.31.95.41,1.33.13-.39.26-.89.42-1.35l1.3-3.81H35.9l-1.78,4.62c-.89,2.23-1.44,3.38-2.26,4.07a3.22,3.22,0,0,1-1.46.77l-.29-1a3,3,0,0,0,1-.58,3.5,3.5,0,0,0,1-1.31,1,1,0,0,0,.1-.29,1.09,1.09,0,0,0-.08-.31l-2.43-6h1.3Z" transform="translate(-9.86 -3.6)"/></g></g><g id="path-5" data-name="path"><g id="path13_fill" data-name="path13 fill"><path id="path4_fill" data-name="path4 fill" class="cls-8" d="M39.06,88v1.87h1.71v.89H39.06v3.51c0,.8.24,1.26.9,1.26a2.71,2.71,0,0,0,.69-.08l.05.89a2.94,2.94,0,0,1-1.06.16,1.71,1.71,0,0,1-.7-.11,1.64,1.64,0,0,1-.59-.39,2.37,2.37,0,0,1-.46-1.69V90.73h-1v-.89h1V88.25Z" transform="translate(-9.86 -3.6)"/></g></g><g id="path-6" data-name="path"><g id="path14_fill" data-name="path14 fill"><path id="path5_fill" data-name="path5 fill" class="cls-8" d="M43,93.31a2.26,2.26,0,0,0,.12.89,2.18,2.18,0,0,0,1.24,1.24,2.26,2.26,0,0,0,.89.12A4.31,4.31,0,0,0,47,95.22l.21.89a5.25,5.25,0,0,1-2.18.4,2.94,2.94,0,0,1-1.28-.19,2.9,2.9,0,0,1-1.09-.71,3,3,0,0,1-.85-2.37c0-2,1.16-3.51,3.07-3.51,2.13,0,2.67,1.87,2.67,3.06a5,5,0,0,1,0,.55H43Zm3.49-.89a1.6,1.6,0,0,0-.05-.72,1.64,1.64,0,0,0-.34-.62,1.72,1.72,0,0,0-.57-.43,1.66,1.66,0,0,0-.69-.16,2,2,0,0,0-1.29.61A2,2,0,0,0,43,92.42Z" transform="translate(-9.86 -3.6)"/></g></g><g id="path-7" data-name="path"><g id="path15_fill" data-name="path15 fill"><path id="path6_fill" data-name="path6 fill" class="cls-8" d="M49.36,91.87c0-.77,0-1.42-.06-2h1.07v1.27h.06a2,2,0,0,1,1.78-1.42,1,1,0,0,1,.34,0V90.8h-.41a1.67,1.67,0,0,0-1.6,1.51,3.53,3.53,0,0,0,0,.56v3.46H49.31V91.88Z" transform="translate(-9.86 -3.6)"/></g></g></g></g><g id="g-2" data-name="g"><g id="path-8" data-name="path"><g id="path16_fill" data-name="path16 fill"><path id="path7_fill" data-name="path7 fill" class="cls-9" d="M48.84,72a3,3,0,0,1-1.71,2.91,3,3,0,0,1-1.73.27,3.09,3.09,0,0,1-1.6-.75,3,3,0,0,1,3.05-5.09,3,3,0,0,1,1,.59,3.21,3.21,0,0,1,.7.94A3,3,0,0,1,48.84,72Z" transform="translate(-9.86 -3.6)"/></g></g><g id="path-9" data-name="path"><g id="path17_fill" data-name="path17 fill"><path id="path8_fill" data-name="path8 fill" class="cls-10" d="M31.23,106.83c-8,0-15-2.88-18.7-7.12a19.94,19.94,0,0,0,37.4,0C46.29,104,39.28,106.83,31.23,106.83Z" transform="translate(-9.86 -3.6)"/></g></g><g id="path-10" data-name="path"><g id="path18_fill" data-name="path18 fill"><path id="path9_fill-2" data-name="path9 fill" class="cls-10" d="M31.23,79.21c8,0,15.06,2.88,18.7,7.13a19.94,19.94,0,0,0-37.4,0C16.18,82.08,23.18,79.21,31.23,79.21Z" transform="translate(-9.86 -3.6)"/></g></g><g id="path-11" data-name="path"><g id="path19_fill" data-name="path19 fill"><path id="path10_fill-2" data-name="path10 fill" class="cls-11" d="M20.2,115.09a3.8,3.8,0,0,1-6.33,3.07,3.83,3.83,0,0,1-1.15-1.9,3.82,3.82,0,0,1,1.43-4,3.84,3.84,0,0,1,2.09-.74,4,4,0,0,1,1.45.21,3.88,3.88,0,0,1,1.27.75,3.8,3.8,0,0,1,.88,1.18,3.92,3.92,0,0,1,.36,1.42Z" transform="translate(-9.86 -3.6)"/></g></g><g id="path-12" data-name="path"><g id="path20_fill" data-name="path20 fill"><path id="path11_fill-2" data-name="path11 fill" class="cls-12" d="M13.45,78.25a2.22,2.22,0,0,1-1.23-.34,2.25,2.25,0,0,1-.83-1,2.19,2.19,0,0,1-.17-1.26,2.23,2.23,0,0,1,.56-1.14,2.26,2.26,0,0,1,1.1-.63,2.2,2.2,0,0,1,1.27.07,2.25,2.25,0,0,1,1,.77A2.18,2.18,0,0,1,15,77.54,2.24,2.24,0,0,1,13.45,78.25Z" transform="translate(-9.86 -3.6)"/></g></g></g></g></g></g></svg>