<svg xmlns="http://www.w3.org/2000/svg" viewBox="0 0 242.28 135.79"><defs><style>.cls-1{fill:#d26a98;}.cls-2{fill:#063e3e;}.cls-3{fill:#fff;}</style></defs><g id="Layer_2" data-name="Layer 2"><g id="Renku_Black_Magenta" data-name="Renku Black / Magenta"><path class="cls-1" d="M10.88,22.9h4.79v6.47L24.41,33a24.4,24.4,0,0,1,3.34-4.48V27.24c0-5,12.42-9,27.74-9s27.75,4,27.75,9V28.5A24.4,24.4,0,0,1,86.58,33L111,22.9,55.49,0,0,22.9l10.88,4.49Z"/><path class="cls-2" d="M83.24,27.24c0-5-12.42-9-27.75-9s-27.74,4-27.74,9V28.5a24.42,24.42,0,0,0-6.64,16.75V85.47h20a30.44,30.44,0,0,0,28.83,0h20V45.25A24.36,24.36,0,0,0,83.24,28.5ZM55.49,84.31a25.61,25.61,0,0,1-10-49.18,116.14,116.14,0,0,0,19.68,13,10.61,10.61,0,0,0-7.27,10.05h4.79a5.78,5.78,0,0,1,1.72-4.11,3.81,3.81,0,0,0-.16,1.08,4.25,4.25,0,0,0,8.5,0,4.2,4.2,0,0,0-.15-1.08,5.77,5.77,0,0,1,1.71,4.11h4.79a10.52,10.52,0,0,0-.87-4.2c.86.33,1.74.63,2.62.93A25.59,25.59,0,0,1,55.49,84.31Z"/><path class="cls-3" d="M78.21,54a10.52,10.52,0,0,1,.87,4.2H74.29a5.77,5.77,0,0,0-1.71-4.11,4.2,4.2,0,0,1,.15,1.08,4.25,4.25,0,0,1-8.5,0,3.81,3.81,0,0,1,.16-1.08,5.78,5.78,0,0,0-1.72,4.11H57.88a10.61,10.61,0,0,1,7.27-10.05,116.14,116.14,0,0,1-19.68-13A25.63,25.63,0,1,0,80.83,54.94C80,54.64,79.07,54.34,78.21,54ZM38.26,55.18a4.2,4.2,0,0,1,.15-1.08,5.77,5.77,0,0,0-1.71,4.11H31.91a10.6,10.6,0,0,1,21.2,0H48.32A5.78,5.78,0,0,0,46.6,54.1a3.81,3.81,0,0,1,.16,1.08,4.25,4.25,0,0,1-8.5,0ZM55.5,76.86A40.25,40.25,0,0,1,43.34,75l1.44-4.56a36.09,36.09,0,0,0,21.43,0L67.65,75A40.24,40.24,0,0,1,55.5,76.86Z"/><path class="cls-2" d="M44.78,70.44,43.34,75a40.65,40.65,0,0,0,24.31,0l-1.44-4.56A36.09,36.09,0,0,1,44.78,70.44Z"/><polygon class="cls-2" points="10.88 22.9 10.88 27.39 10.88 64.24 15.66 64.24 15.66 29.37 15.66 22.9 10.88 22.9"/><path class="cls-2" d="M83.68,94.42H81.22L70.55,111.6l-15.06-13-15.05,13L29.77,94.42H27.31A20.6,20.6,0,0,0,6.73,115v20.79h97.53V115A20.6,20.6,0,0,0,83.68,94.42Z"/><polygon class="cls-1" points="55.49 98.63 70.55 111.6 81.22 94.42 29.77 94.42 40.44 111.6 55.49 98.63"/><path class="cls-2" d="M46.76,55.18a3.81,3.81,0,0,0-.16-1.08,5.78,5.78,0,0,1,1.72,4.11h4.79a10.6,10.6,0,0,0-21.2,0H36.7a5.77,5.77,0,0,1,1.71-4.11,4.2,4.2,0,0,0-.15,1.08,4.25,4.25,0,0,0,8.5,0Z"/><path class="cls-1" d="M142.17,22.9H147v6.47L155.7,33A24.4,24.4,0,0,1,159,28.5V27.24c0-5,12.42-9,27.75-9s27.74,4,27.74,9V28.5A24.4,24.4,0,0,1,217.87,33L242.28,22.9,186.79,0l-55.5,22.9,10.88,4.49Z"/><path class="cls-2" d="M214.53,27.24c0-5-12.42-9-27.74-9s-27.75,4-27.75,9V28.5a24.36,24.36,0,0,0-6.63,16.75V59.43a16,16,0,0,0,.74,4.81h3.75a30.19,30.19,0,0,0,3.89,10.22l.28.45h0c.43.67.88,1.34,1.35,2a30.61,30.61,0,0,0,5,5.27c.75.62,1.53,1.2,2.34,1.75a30,30,0,0,0,3.82,2.19c.44.22.89.42,1.34.61a29.35,29.35,0,0,0,4.24,1.43c.48.13,1,.24,1.47.34a29.68,29.68,0,0,0,3,.46,29,29,0,0,0,3.11.16,30.54,30.54,0,0,0,4.62-.35,28.93,28.93,0,0,0,3-.61c1-.25,1.93-.54,2.86-.88a32.64,32.64,0,0,0,4-1.83c.43-.23.85-.48,1.27-.73a30.42,30.42,0,0,0,14.12-20.46h3.75a16,16,0,0,0,.75-4.81V45.25a24.42,24.42,0,0,0-6.64-16.75ZM186.79,84.31a25.61,25.61,0,0,1-10-49.18,116.8,116.8,0,0,0,19.68,13,10.59,10.59,0,0,0-7.25,10H194a5.78,5.78,0,0,1,1.72-4.11,4.2,4.2,0,0,0-.16,1.08,4.26,4.26,0,0,0,8.51,0,4.2,4.2,0,0,0-.16-1.08,5.78,5.78,0,0,1,1.72,4.11h4.78a10.47,10.47,0,0,0-.87-4.19c.86.32,1.74.62,2.61.92a25.59,25.59,0,0,1-25.33,29.37Z"/><path class="cls-3" d="M209.51,54a10.47,10.47,0,0,1,.87,4.19H205.6a5.78,5.78,0,0,0-1.72-4.11,4.2,4.2,0,0,1,.16,1.08,4.26,4.26,0,0,1-8.51,0,4.2,4.2,0,0,1,.16-1.08A5.78,5.78,0,0,0,194,58.21h-4.78a10.59,10.59,0,0,1,7.25-10,116.8,116.8,0,0,1-19.68-13,25.63,25.63,0,1,0,35.36,19.81C211.25,54.64,210.37,54.34,209.51,54Zm-39.95,1.16a4.2,4.2,0,0,1,.15-1.08A5.81,5.81,0,0,0,168,58.21h-4.79a10.6,10.6,0,0,1,21.2,0h-4.79a5.77,5.77,0,0,0-1.71-4.11,4.2,4.2,0,0,1,.15,1.08,4.25,4.25,0,1,1-8.5,0Zm17.23,21.68A40.25,40.25,0,0,1,174.63,75l1.44-4.56a36.09,36.09,0,0,0,21.43,0L198.94,75A40.24,40.24,0,0,1,186.79,76.86Z"/><path class="cls-2" d="M176.07,70.44,174.63,75a40.65,40.65,0,0,0,24.31,0l-1.44-4.56A36.09,36.09,0,0,1,176.07,70.44Z"/><polygon class="cls-2" points="142.17 22.9 142.17 27.39 142.17 64.24 146.96 64.24 146.96 29.37 146.96 22.9 142.17 22.9"/><path class="cls-1" d="M215,94.42h-2.46L201.84,111.6l-15.05-13-15.06,13L161.06,94.42H158.6A20.6,20.6,0,0,0,138,115v20.79h97.53V115A20.6,20.6,0,0,0,215,94.42Z"/><polygon class="cls-2" points="186.78 98.63 201.84 111.6 212.51 94.42 161.06 94.42 171.73 111.6 186.78 98.63"/><path class="cls-2" d="M178.06,55.18a4.2,4.2,0,0,0-.15-1.08,5.77,5.77,0,0,1,1.71,4.11h4.79a10.6,10.6,0,0,0-21.2,0H168a5.81,5.81,0,0,1,1.71-4.11,4.2,4.2,0,0,0-.15,1.08,4.25,4.25,0,1,0,8.5,0Z"/></g></g></svg>