<svg id="Layer_1" data-name="Layer 1" xmlns="http://www.w3.org/2000/svg" xmlns:xlink="http://www.w3.org/1999/xlink" viewBox="0 0 218.37 91.21"><defs><style>.cls-1{fill:none;}.cls-2{fill:#413000;}.cls-3{clip-path:url(#clip-path);}.cls-4{fill:#f05133;}</style><clipPath id="clip-path" transform="translate(0 -0.79)"><rect class="cls-1" x="0.06" y="0.79" width="218.31" height="91.21"/></clipPath></defs><path class="cls-2" d="M147.06,32.1a13.83,13.83,0,0,1,3.22,8.79c0,9.66-7.57,15.32-18.53,15.32a27.35,27.35,0,0,1-6.88-.79L122,60l8.52.53c15.06,1,23.94,1.39,23.94,13,0,10-8.79,15.67-23.94,15.67-15.75,0-21.75-4-21.75-10.88,0-3.92,1.74-6,4.78-8.88a5.8,5.8,0,0,1-3.83-5.74,7.79,7.79,0,0,1,2.53-5.31c1.57-1.65,3.31-3.31,5.39-5.22-4.26-2.09-7.48-6.62-7.48-13.06,0-10,6.62-16.88,19.93-16.88a30.09,30.09,0,0,1,8,.87h17v7.4l-8,.61M121.3,71.79c-1.13,1.39-2.26,2.87-2.26,4.61,0,3.48,4.43,4.52,10.53,4.52,5.05,0,11.92-.35,11.92-5,0-2.79-3.31-3-7.49-3.23Zm9.57-40c-4.79,0-8.35,2.36-8.35,8,0,4.27,2.35,7.23,8.1,7.23,4.87,0,8.17-2.87,8.17-7.4C138.79,34.53,135.83,31.83,130.87,31.83Z" transform="translate(0 -0.79)"/><path class="cls-2" d="M159.15,68.58V61.71l4.44-.61c1.22-.17,1.39-.43,1.39-1.74V33.77c0-1-.26-1.56-1.13-1.82l-4.7-1.66,1-7h18V59.36c0,1.4.09,1.57,1.4,1.74l4.44.61v6.87H159.15m11.23-52.3c-5,0-7.83-2.87-7.83-7.83S165.42.79,170.38.79s7.92,2.7,7.92,7.66S175.43,16.28,170.38,16.28Z" transform="translate(0 -0.79)"/><g class="cls-3"><path class="cls-2" d="M218.37,65.21a34.71,34.71,0,0,1-14.19,3.48c-10.35,0-14.27-4.17-14.27-14V31.88c0-.52,0-.87-.7-.87h-6.09V23.26c7.66-.87,10.71-4.7,11.67-14.19h8.26V21.43c0,.61,0,.88.7.88H216V31h-13v20.8c0,5.13,1.22,7.13,5.92,7.13A20.81,20.81,0,0,0,216,57.55l2.35,7.66" transform="translate(0 -0.79)"/><path class="cls-4" d="M89.42,42.37,49.63,2.58a5.87,5.87,0,0,0-8.3,0l-8.27,8.26L43.55,21.33a7,7,0,0,1,8.82,8.88l10.11,10.1a7,7,0,1,1-4.19,3.94l-9.42-9.42V59.62a7.13,7.13,0,0,1,1.85,1.32,7,7,0,1,1-9.88,0,7.1,7.1,0,0,1,2.29-1.52v-25a7,7,0,0,1-3.79-9.16L29,14.9,1.72,42.19a5.87,5.87,0,0,0,0,8.3L41.51,90.28a5.87,5.87,0,0,0,8.3,0L89.42,50.67a5.87,5.87,0,0,0,0-8.3" transform="translate(0 -0.79)"/></g></svg>