<svg xmlns="http://www.w3.org/2000/svg" viewBox="0 0 115.47 114.73"><defs><style>.cls-1{fill:#d26a98;}.cls-2{fill:#063e3e;}.cls-3{fill:#fff;}</style></defs><g id="Layer_2" data-name="Layer 2"><g id="Renku_Black_Magenta" data-name="Renku Black / Magenta"><path class="cls-1" d="M115.47,42.3V26h-7a28.42,28.42,0,0,0-2.2-5.34l4.93-4.93L99.71,4.26,94.78,9.19A28.18,28.18,0,0,0,89.44,7V0H73.17V7a28.18,28.18,0,0,0-5.34,2.21L62.9,4.26,51.39,15.76l4.93,4.93A28.42,28.42,0,0,0,54.12,26h-7V42.3h7a28.52,28.52,0,0,0,2.2,5.35l-4.93,4.93L62.9,64.08l4.93-4.93a27.51,27.51,0,0,0,5.34,2.2v7H89.44v-7a27.51,27.51,0,0,0,5.34-2.2l4.93,4.93,11.51-11.5-4.93-4.93a28.52,28.52,0,0,0,2.2-5.35ZM81.3,50.16a16,16,0,1,1,16-16A16,16,0,0,1,81.3,50.16Z"/><path class="cls-2" d="M81.3,18.18a16,16,0,1,0,16,16A16,16,0,0,0,81.3,18.18ZM81.3,44a9.81,9.81,0,1,1,9.81-9.8A9.8,9.8,0,0,1,81.3,44Z"/><path class="cls-1" d="M46.59,73.94a22.21,22.21,0,0,0,1.74-4.21h5.5V56.91h-5.5a22.21,22.21,0,0,0-1.74-4.21l3.89-3.88-9.06-9.06-3.89,3.88a21.94,21.94,0,0,0-4.21-1.74V36.4H20.51v5.5a22.21,22.21,0,0,0-4.21,1.74l-3.89-3.88L3.35,48.82,7.24,52.7A22.21,22.21,0,0,0,5.5,56.91H0V69.73H5.5a22.21,22.21,0,0,0,1.74,4.21L3.35,77.82l9.06,9.06L16.3,83a22.18,22.18,0,0,0,4.21,1.73v5.5H33.32v-5.5A21.91,21.91,0,0,0,37.53,83l3.89,3.88,9.06-9.06Zm-19.67,2a12.6,12.6,0,1,1,12.59-12.6A12.6,12.6,0,0,1,26.92,75.92Z"/><path class="cls-2" d="M26.92,50.72a12.6,12.6,0,1,0,12.59,12.6A12.6,12.6,0,0,0,26.92,50.72Zm0,20.32a7.73,7.73,0,1,1,7.72-7.72A7.72,7.72,0,0,1,26.92,71Z"/><path class="cls-1" d="M90.49,90l4.24-1.75-4.1-9.89L86.4,80.11a18.49,18.49,0,0,0-2.7-2.68l1.76-4.25-9.89-4.1-1.76,4.25a18.57,18.57,0,0,0-3.8,0l-1.76-4.24-9.89,4.1,1.76,4.24a18.49,18.49,0,0,0-2.69,2.69l-4.24-1.75-4.1,9.89L53.33,90a18.66,18.66,0,0,0,0,3.81l-4.24,1.75,4.1,9.89,4.23-1.75a18.49,18.49,0,0,0,2.7,2.68l-1.76,4.25,9.89,4.1L70,110.48a18.57,18.57,0,0,0,3.8,0l1.76,4.24,9.89-4.1-1.76-4.24a18.49,18.49,0,0,0,2.69-2.69l4.24,1.75,4.1-9.89-4.24-1.75A18.66,18.66,0,0,0,90.49,90ZM74.63,102.07a10.52,10.52,0,1,1,7.45-12.89A10.52,10.52,0,0,1,74.63,102.07Z"/><path class="cls-2" d="M69.19,81.74a10.52,10.52,0,1,0,12.89,7.44A10.51,10.51,0,0,0,69.19,81.74Zm4.39,16.4a6.45,6.45,0,1,1,4.56-7.9A6.45,6.45,0,0,1,73.58,98.14Z"/><circle class="cls-3" cx="81.3" cy="34.17" r="9.81"/><circle class="cls-3" cx="26.92" cy="63.32" r="7.72" transform="translate(-13.83 7.88) rotate(-13.28)"/><path class="cls-3" d="M70.24,85.67a6.45,6.45,0,1,0,7.9,4.57A6.45,6.45,0,0,0,70.24,85.67Z"/></g></g></svg>