<svg width="1475" height="233" viewBox="0 0 1475 233" fill="none" xmlns="http://www.w3.org/2000/svg">
<path opacity="0.9" d="M396.316 165.267V213.99C396.316 224.088 404.636 232.267 414.893 232.267C425.15 232.267 433.47 224.088 433.47 213.99V165.267C433.47 155.169 425.15 146.99 414.893 146.99C404.636 146.99 396.316 155.169 396.316 165.267Z" fill="#7DCCA1"/>
<path opacity="0.9" d="M1276.24 165.267V116.544C1276.24 106.446 1267.92 98.2671 1257.66 98.2671C1247.41 98.2671 1239.09 106.446 1239.09 116.544V165.267C1239.09 175.365 1247.41 183.544 1257.66 183.544C1267.92 183.544 1276.24 175.365 1276.24 165.267Z" fill="#7DCCA1"/>
<path opacity="0.9" d="M1078.08 67.8202V19.097C1078.08 8.99901 1069.76 0.820312 1059.51 0.820312C1049.25 0.820312 1040.93 8.99901 1040.93 19.097V67.8202C1040.93 77.9181 1049.25 86.0968 1059.51 86.0968C1069.76 86.0968 1078.08 77.9181 1078.08 67.8202Z" fill="#7DCCA1"/>
<path opacity="0.9" d="M879.925 165.267C879.925 155.169 871.605 146.99 861.348 146.99H811.803C801.546 146.99 793.227 155.169 793.227 165.267C793.227 175.365 801.546 183.544 811.803 183.544H861.348C871.605 183.544 879.925 175.365 879.925 165.267Z" fill="#7DCCA1"/>
<path opacity="0.9" d="M991.386 116.544C991.386 126.642 999.706 134.82 1009.96 134.82H1059.51C1069.76 134.82 1078.08 126.642 1078.08 116.544C1078.08 106.446 1069.76 98.2671 1059.51 98.2671H1009.96C999.706 98.2671 991.386 106.446 991.386 116.544Z" fill="#7DCCA1"/>
<path opacity="0.9" d="M879.925 67.8206C879.925 57.7226 871.605 49.5439 861.348 49.5439H811.803C801.546 49.5439 793.227 57.7226 793.227 67.8206C793.227 77.9186 801.546 86.0972 811.803 86.0972H861.348C871.605 86.0972 879.925 77.9186 879.925 67.8206Z" fill="#7DCCA1"/>
<path d="M1059.51 37.3521C1069.76 37.3521 1078.08 29.1734 1078.08 19.0755C1078.08 8.97752 1069.76 0.798828 1059.51 0.798828C1049.25 0.798828 1040.93 8.97752 1040.93 19.0755C1040.93 29.1734 1049.25 37.3521 1059.51 37.3521Z" fill="#FBBD00"/>
<path opacity="0.9" d="M1257.64 37.3521C1267.9 37.3521 1276.22 29.1734 1276.22 19.0755C1276.22 8.97752 1267.9 0.798828 1257.64 0.798828C1247.39 0.798828 1239.07 8.97752 1239.07 19.0755C1239.07 29.1734 1247.39 37.3521 1257.64 37.3521Z" fill="white"/>
<path opacity="0.9" d="M1356.73 37.3521C1366.99 37.3521 1375.31 29.1734 1375.31 19.0755C1375.31 8.97752 1366.99 0.798828 1356.73 0.798828C1346.48 0.798828 1338.16 8.97752 1338.16 19.0755C1338.16 29.1734 1346.48 37.3521 1356.73 37.3521Z" fill="white"/>
<path opacity="0.9" d="M910.894 183.544C921.151 183.544 929.471 175.365 929.471 165.267C929.471 155.169 921.151 146.99 910.894 146.99C900.637 146.99 892.317 155.169 892.317 165.267C892.317 175.365 900.637 183.544 910.894 183.544Z" fill="white"/>
<path opacity="0.9" d="M861.348 134.82C871.605 134.82 879.925 126.642 879.925 116.544C879.925 106.446 871.605 98.2671 861.348 98.2671C851.091 98.2671 842.771 106.446 842.771 116.544C842.771 126.642 851.091 134.82 861.348 134.82Z" fill="white"/>
<path d="M1059.51 134.82C1069.76 134.82 1078.08 126.642 1078.08 116.544C1078.08 106.446 1069.76 98.2671 1059.51 98.2671C1049.25 98.2671 1040.93 106.446 1040.93 116.544C1040.93 126.642 1049.25 134.82 1059.51 134.82Z" fill="#FBBD00"/>
<path opacity="0.9" d="M1208.12 134.82C1218.38 134.82 1226.7 126.642 1226.7 116.544C1226.7 106.446 1218.38 98.2671 1208.12 98.2671C1197.86 98.2671 1189.54 106.446 1189.54 116.544C1189.54 126.642 1197.86 134.82 1208.12 134.82Z" fill="white"/>
<path opacity="0.85" d="M762.281 86.0753C772.537 86.0753 780.857 77.8966 780.857 67.7986C780.857 57.7007 772.537 49.522 762.281 49.522C752.024 49.522 743.704 57.7007 743.704 67.7986C743.704 77.8966 752.024 86.0753 762.281 86.0753Z" fill="#C1C6DB"/>
<path d="M811.803 86.0753C822.06 86.0753 830.38 77.8966 830.38 67.7986C830.38 57.7007 822.06 49.522 811.803 49.522C801.546 49.522 793.227 57.7007 793.227 67.7986C793.227 77.8966 801.546 86.0753 811.803 86.0753Z" fill="#FBBD00"/>
<path opacity="0.85" d="M861.348 86.0753C871.605 86.0753 879.925 77.8966 879.925 67.7986C879.925 57.7007 871.605 49.522 861.348 49.522C851.091 49.522 842.771 57.7007 842.771 67.7986C842.771 77.8966 851.091 86.0753 861.348 86.0753Z" fill="#2C3461"/>
<path opacity="0.85" d="M960.416 86.0753C970.673 86.0753 978.993 77.8966 978.993 67.7986C978.993 57.7007 970.673 49.522 960.416 49.522C950.16 49.522 941.84 57.7007 941.84 67.7986C941.84 77.8966 950.16 86.0753 960.416 86.0753Z" fill="#C1C6DB"/>
<path d="M1009.96 86.0753C1020.22 86.0753 1028.54 77.8966 1028.54 67.7986C1028.54 57.7007 1020.22 49.522 1009.96 49.522C999.706 49.522 991.386 57.7007 991.386 67.7986C991.386 77.8966 999.706 86.0753 1009.96 86.0753Z" fill="#3578E6"/>
<path d="M1059.51 86.0753C1069.76 86.0753 1078.08 77.8966 1078.08 67.7986C1078.08 57.7007 1069.76 49.522 1059.51 49.522C1049.25 49.522 1040.93 57.7007 1040.93 67.7986C1040.93 77.8966 1049.25 86.0753 1059.51 86.0753Z" fill="#202048"/>
<path opacity="0.85" d="M762.281 37.3521C772.537 37.3521 780.857 29.1734 780.857 19.0755C780.857 8.97752 772.537 0.798828 762.281 0.798828C752.024 0.798828 743.704 8.97752 743.704 19.0755C743.704 29.1734 752.024 37.3521 762.281 37.3521Z" fill="#C1C6DB"/>
<path opacity="0.85" d="M960.416 37.3521C970.673 37.3521 978.993 29.1734 978.993 19.0755C978.993 8.97752 970.673 0.798828 960.416 0.798828C950.16 0.798828 941.84 8.97752 941.84 19.0755C941.84 29.1734 950.16 37.3521 960.416 37.3521Z" fill="#C1C6DB"/>
<path d="M1009.96 37.3521C1020.22 37.3521 1028.54 29.1734 1028.54 19.0755C1028.54 8.97752 1020.22 0.798828 1009.96 0.798828C999.706 0.798828 991.386 8.97752 991.386 19.0755C991.386 29.1734 999.706 37.3521 1009.96 37.3521Z" fill="#795ADF"/>
<path d="M1109.03 37.3521C1119.29 37.3521 1127.61 29.1734 1127.61 19.0755C1127.61 8.97752 1119.29 0.798828 1109.03 0.798828C1098.77 0.798828 1090.45 8.97752 1090.45 19.0755C1090.45 29.1734 1098.77 37.3521 1109.03 37.3521Z" fill="#202048"/>
<path d="M1158.57 37.3521C1168.83 37.3521 1177.15 29.1734 1177.15 19.0755C1177.15 8.97752 1168.83 0.798828 1158.57 0.798828C1148.32 0.798828 1140 8.97752 1140 19.0755C1140 29.1734 1148.32 37.3521 1158.57 37.3521Z" fill="#F86E14"/>
<path d="M1455.8 37.3521C1466.06 37.3521 1474.38 29.1734 1474.38 19.0755C1474.38 8.97752 1466.06 0.798828 1455.8 0.798828C1445.54 0.798828 1437.22 8.97752 1437.22 19.0755C1437.22 29.1734 1445.54 37.3521 1455.8 37.3521Z" fill="#202048"/>
<path d="M762.281 183.544C772.537 183.544 780.857 175.365 780.857 165.267C780.857 155.169 772.537 146.99 762.281 146.99C752.024 146.99 743.704 155.169 743.704 165.267C743.704 175.365 752.024 183.544 762.281 183.544Z" fill="#1DBB91"/>
<path d="M811.803 183.544C822.06 183.544 830.38 175.365 830.38 165.267C830.38 155.169 822.06 146.99 811.803 146.99C801.546 146.99 793.227 155.169 793.227 165.267C793.227 175.365 801.546 183.544 811.803 183.544Z" fill="#006E58"/>
<path d="M861.348 183.544C871.605 183.544 879.925 175.365 879.925 165.267C879.925 155.169 871.605 146.99 861.348 146.99C851.091 146.99 842.771 155.169 842.771 165.267C842.771 175.365 851.091 183.544 861.348 183.544Z" fill="#006E58"/>
<path opacity="0.85" d="M960.416 183.544C970.673 183.544 978.993 175.365 978.993 165.267C978.993 155.169 970.673 146.99 960.416 146.99C950.16 146.99 941.84 155.169 941.84 165.267C941.84 175.365 950.16 183.544 960.416 183.544Z" fill="#2C3461"/>
<path d="M1009.96 183.544C1020.22 183.544 1028.54 175.365 1028.54 165.267C1028.54 155.169 1020.22 146.99 1009.96 146.99C999.706 146.99 991.386 155.169 991.386 165.267C991.386 175.365 999.706 183.544 1009.96 183.544Z" fill="#202048"/>
<path d="M1059.51 183.544C1069.76 183.544 1078.08 175.365 1078.08 165.267C1078.08 155.169 1069.76 146.99 1059.51 146.99C1049.25 146.99 1040.93 155.169 1040.93 165.267C1040.93 175.365 1049.25 183.544 1059.51 183.544Z" fill="#202048"/>
<path d="M1109.03 183.544C1119.29 183.544 1127.61 175.365 1127.61 165.267C1127.61 155.169 1119.29 146.99 1109.03 146.99C1098.77 146.99 1090.45 155.169 1090.45 165.267C1090.45 175.365 1098.77 183.544 1109.03 183.544Z" fill="#FF35A1"/>
<path opacity="0.85" d="M1257.64 183.544C1267.9 183.544 1276.22 175.365 1276.22 165.267C1276.22 155.169 1267.9 146.99 1257.64 146.99C1247.39 146.99 1239.07 155.169 1239.07 165.267C1239.07 175.365 1247.39 183.544 1257.64 183.544Z" fill="#2C3461"/>
<path d="M1356.73 183.544C1366.99 183.544 1375.31 175.365 1375.31 165.267C1375.31 155.169 1366.99 146.99 1356.73 146.99C1346.48 146.99 1338.16 155.169 1338.16 165.267C1338.16 175.365 1346.48 183.544 1356.73 183.544Z" fill="#006E58"/>
<path d="M762.281 232.245C772.537 232.245 780.857 224.066 780.857 213.968C780.857 203.87 772.537 195.691 762.281 195.691C752.024 195.691 743.704 203.87 743.704 213.968C743.704 224.066 752.024 232.245 762.281 232.245Z" fill="#006E58"/>
<path d="M861.348 232.245C871.605 232.245 879.925 224.066 879.925 213.968C879.925 203.87 871.605 195.691 861.348 195.691C851.091 195.691 842.771 203.87 842.771 213.968C842.771 224.066 851.091 232.245 861.348 232.245Z" fill="#F86E14"/>
<path d="M960.416 232.245C970.673 232.245 978.993 224.066 978.993 213.968C978.993 203.87 970.673 195.691 960.416 195.691C950.16 195.691 941.84 203.87 941.84 213.968C941.84 224.066 950.16 232.245 960.416 232.245Z" fill="#3578E6"/>
<path d="M1009.96 232.245C1020.22 232.245 1028.54 224.066 1028.54 213.968C1028.54 203.87 1020.22 195.691 1009.96 195.691C999.706 195.691 991.386 203.87 991.386 213.968C991.386 224.066 999.706 232.245 1009.96 232.245Z" fill="#006E58"/>
<path d="M762.281 134.82C772.537 134.82 780.857 126.642 780.857 116.544C780.857 106.446 772.537 98.2671 762.281 98.2671C752.024 98.2671 743.704 106.446 743.704 116.544C743.704 126.642 752.024 134.82 762.281 134.82Z" fill="#202048"/>
<path opacity="0.85" d="M910.894 134.82C921.151 134.82 929.471 126.642 929.471 116.544C929.471 106.446 921.151 98.2671 910.894 98.2671C900.637 98.2671 892.317 106.446 892.317 116.544C892.317 126.642 900.637 134.82 910.894 134.82Z" fill="#C1C6DB"/>
<path d="M960.416 134.82C970.673 134.82 978.993 126.642 978.993 116.544C978.993 106.446 970.673 98.2671 960.416 98.2671C950.16 98.2671 941.84 106.446 941.84 116.544C941.84 126.642 950.16 134.82 960.416 134.82Z" fill="#02BACE"/>
<path d="M1009.96 134.82C1020.22 134.82 1028.54 126.642 1028.54 116.544C1028.54 106.446 1020.22 98.2671 1009.96 98.2671C999.706 98.2671 991.386 106.446 991.386 116.544C991.386 126.642 999.706 134.82 1009.96 134.82Z" fill="#3578E6"/>
<path opacity="0.85" d="M1109.03 134.82C1119.29 134.82 1127.61 126.642 1127.61 116.544C1127.61 106.446 1119.29 98.2671 1109.03 98.2671C1098.77 98.2671 1090.45 106.446 1090.45 116.544C1090.45 126.642 1098.77 134.82 1109.03 134.82Z" fill="#C1C6DB"/>
<path d="M1257.64 134.82C1267.9 134.82 1276.22 126.642 1276.22 116.544C1276.22 106.446 1267.9 98.2671 1257.64 98.2671C1247.39 98.2671 1239.07 106.446 1239.07 116.544C1239.07 126.642 1247.39 134.82 1257.64 134.82Z" fill="#202048"/>
<path opacity="0.9" d="M414.871 232.245C425.127 232.245 433.447 224.066 433.447 213.968C433.447 203.87 425.127 195.691 414.871 195.691C404.614 195.691 396.294 203.87 396.294 213.968C396.294 224.066 404.614 232.245 414.871 232.245Z" fill="white"/>
<path opacity="0.9" d="M216.736 232.245C226.993 232.245 235.312 224.066 235.312 213.968C235.312 203.87 226.993 195.691 216.736 195.691C206.479 195.691 198.159 203.87 198.159 213.968C198.159 224.066 206.479 232.245 216.736 232.245Z" fill="white"/>
<path opacity="0.9" d="M117.645 232.245C127.902 232.245 136.222 224.066 136.222 213.968C136.222 203.87 127.902 195.691 117.645 195.691C107.388 195.691 99.0684 203.87 99.0684 213.968C99.0684 224.066 107.388 232.245 117.645 232.245Z" fill="white"/>
<path opacity="0.9" d="M563.484 86.0753C573.741 86.0753 582.061 77.8966 582.061 67.7986C582.061 57.7007 573.741 49.522 563.484 49.522C553.227 49.522 544.907 57.7007 544.907 67.7986C544.907 77.8966 553.227 86.0753 563.484 86.0753Z" fill="white"/>
<path opacity="0.9" d="M613.03 134.82C623.287 134.82 631.606 126.642 631.606 116.544C631.606 106.446 623.287 98.2671 613.03 98.2671C602.773 98.2671 594.453 106.446 594.453 116.544C594.453 126.642 602.773 134.82 613.03 134.82Z" fill="white"/>
<path opacity="0.9" d="M414.871 134.82C425.127 134.82 433.447 126.642 433.447 116.544C433.447 106.446 425.127 98.2671 414.871 98.2671C404.614 98.2671 396.294 106.446 396.294 116.544C396.294 126.642 404.614 134.82 414.871 134.82Z" fill="white"/>
<path opacity="0.9" d="M266.258 134.82C276.515 134.82 284.835 126.642 284.835 116.544C284.835 106.446 276.515 98.2671 266.258 98.2671C256.002 98.2671 247.682 106.446 247.682 116.544C247.682 126.642 256.002 134.82 266.258 134.82Z" fill="white"/>
<path opacity="0.9" d="M594.453 165.267C594.453 175.365 602.773 183.544 613.03 183.544H662.575C672.832 183.544 681.151 175.365 681.151 165.267C681.151 155.169 672.832 146.99 662.575 146.99H613.03C602.773 146.99 594.453 155.169 594.453 165.267Z" fill="#7DCCA1"/>
<path opacity="0.9" d="M482.992 116.544C482.992 106.446 474.672 98.2671 464.416 98.2671H414.871C404.614 98.2671 396.294 106.446 396.294 116.544C396.294 126.642 404.614 134.82 414.871 134.82H464.416C474.672 134.82 482.992 126.642 482.992 116.544Z" fill="#7DCCA1"/>
<path opacity="0.9" d="M198.159 67.8206V116.544C198.159 126.642 206.479 134.82 216.736 134.82C226.993 134.82 235.312 126.642 235.312 116.544V67.8206C235.312 57.7226 226.993 49.5439 216.736 49.5439C206.479 49.5439 198.159 57.7226 198.159 67.8206Z" fill="#7DCCA1"/>
<path opacity="0.9" d="M594.453 67.8206C594.453 77.9186 602.773 86.0972 613.03 86.0972H662.575C672.832 86.0972 681.151 77.9186 681.151 67.8206C681.151 57.7226 672.832 49.5439 662.575 49.5439H613.03C602.773 49.5439 594.453 57.7226 594.453 67.8206Z" fill="#7DCCA1"/>
<path opacity="0.85" d="M712.097 183.544C722.354 183.544 730.674 175.365 730.674 165.267C730.674 155.169 722.354 146.99 712.097 146.99C701.84 146.99 693.521 155.169 693.521 165.267C693.521 175.365 701.84 183.544 712.097 183.544Z" fill="#C1C6DB"/>
<path d="M662.551 183.544C672.808 183.544 681.128 175.365 681.128 165.267C681.128 155.169 672.808 146.99 662.551 146.99C652.294 146.99 643.975 155.169 643.975 165.267C643.975 175.365 652.294 183.544 662.551 183.544Z" fill="#FBBD00"/>
<path opacity="0.85" d="M613.03 183.544C623.287 183.544 631.606 175.365 631.606 165.267C631.606 155.169 623.287 146.99 613.03 146.99C602.773 146.99 594.453 155.169 594.453 165.267C594.453 175.365 602.773 183.544 613.03 183.544Z" fill="#2C3461"/>
<path opacity="0.85" d="M513.939 183.544C524.196 183.544 532.516 175.365 532.516 165.267C532.516 155.169 524.196 146.99 513.939 146.99C503.682 146.99 495.362 155.169 495.362 165.267C495.362 175.365 503.682 183.544 513.939 183.544Z" fill="#C1C6DB"/>
<path d="M464.416 183.544C474.672 183.544 482.992 175.365 482.992 165.267C482.992 155.169 474.672 146.99 464.416 146.99C454.159 146.99 445.839 155.169 445.839 165.267C445.839 175.365 454.159 183.544 464.416 183.544Z" fill="#3578E6"/>
<path d="M414.871 183.544C425.127 183.544 433.447 175.365 433.447 165.267C433.447 155.169 425.127 146.99 414.871 146.99C404.614 146.99 396.294 155.169 396.294 165.267C396.294 175.365 404.614 183.544 414.871 183.544Z" fill="#202048"/>
<path opacity="0.85" d="M712.097 232.245C722.354 232.245 730.674 224.066 730.674 213.968C730.674 203.87 722.354 195.691 712.097 195.691C701.84 195.691 693.521 203.87 693.521 213.968C693.521 224.066 701.84 232.245 712.097 232.245Z" fill="#C1C6DB"/>
<path opacity="0.85" d="M513.939 232.245C524.196 232.245 532.516 224.066 532.516 213.968C532.516 203.87 524.196 195.691 513.939 195.691C503.682 195.691 495.362 203.87 495.362 213.968C495.362 224.066 503.682 232.245 513.939 232.245Z" fill="#C1C6DB"/>
<path d="M464.416 232.245C474.672 232.245 482.992 224.066 482.992 213.968C482.992 203.87 474.672 195.691 464.416 195.691C454.159 195.691 445.839 203.87 445.839 213.968C445.839 224.066 454.159 232.245 464.416 232.245Z" fill="#795ADF"/>
<path d="M365.327 232.245C375.583 232.245 383.903 224.066 383.903 213.968C383.903 203.87 375.583 195.691 365.327 195.691C355.07 195.691 346.75 203.87 346.75 213.968C346.75 224.066 355.07 232.245 365.327 232.245Z" fill="#202048"/>
<path d="M315.803 232.245C326.06 232.245 334.38 224.066 334.38 213.968C334.38 203.87 326.06 195.691 315.803 195.691C305.546 195.691 297.227 203.87 297.227 213.968C297.227 224.066 305.546 232.245 315.803 232.245Z" fill="#202048"/>
<path d="M18.5766 232.245C28.8334 232.245 37.1533 224.066 37.1533 213.968C37.1533 203.87 28.8334 195.691 18.5766 195.691C8.31987 195.691 0 203.87 0 213.968C0 224.066 8.31987 232.245 18.5766 232.245Z" fill="#202048"/>
<path d="M712.097 86.0753C722.354 86.0753 730.674 77.8966 730.674 67.7986C730.674 57.7007 722.354 49.522 712.097 49.522C701.84 49.522 693.521 57.7007 693.521 67.7986C693.521 77.8966 701.84 86.0753 712.097 86.0753Z" fill="#1DBB91"/>
<path d="M662.551 86.0753C672.808 86.0753 681.128 77.8966 681.128 67.7986C681.128 57.7007 672.808 49.522 662.551 49.522C652.294 49.522 643.975 57.7007 643.975 67.7986C643.975 77.8966 652.294 86.0753 662.551 86.0753Z" fill="#006E58"/>
<path d="M613.03 86.0753C623.287 86.0753 631.606 77.8966 631.606 67.7986C631.606 57.7007 623.287 49.522 613.03 49.522C602.773 49.522 594.453 57.7007 594.453 67.7986C594.453 77.8966 602.773 86.0753 613.03 86.0753Z" fill="#006E58"/>
<path opacity="0.85" d="M513.939 86.0753C524.196 86.0753 532.516 77.8966 532.516 67.7986C532.516 57.7007 524.196 49.522 513.939 49.522C503.682 49.522 495.362 57.7007 495.362 67.7986C495.362 77.8966 503.682 86.0753 513.939 86.0753Z" fill="#2C3461"/>
<path d="M464.416 86.0753C474.672 86.0753 482.992 77.8966 482.992 67.7986C482.992 57.7007 474.672 49.522 464.416 49.522C454.159 49.522 445.839 57.7007 445.839 67.7986C445.839 77.8966 454.159 86.0753 464.416 86.0753Z" fill="#F86E14"/>
<path d="M414.871 86.0753C425.127 86.0753 433.447 77.8966 433.447 67.7986C433.447 57.7007 425.127 49.522 414.871 49.522C404.614 49.522 396.294 57.7007 396.294 67.7986C396.294 77.8966 404.614 86.0753 414.871 86.0753Z" fill="#202048"/>
<path d="M346.771 67.8206C346.771 77.9186 355.091 86.0972 365.348 86.0972C375.605 86.0972 383.925 77.9186 383.925 67.8206C383.925 57.7226 375.605 49.5439 365.348 49.5439C355.091 49.5439 346.771 57.7226 346.771 67.8206Z" fill="#FF35A1"/>
<path opacity="0.85" d="M216.736 86.0753C226.993 86.0753 235.312 77.8966 235.312 67.7986C235.312 57.7007 226.993 49.522 216.736 49.522C206.479 49.522 198.159 57.7007 198.159 67.7986C198.159 77.8966 206.479 86.0753 216.736 86.0753Z" fill="#2C3461"/>
<path d="M117.645 86.0753C127.902 86.0753 136.222 77.8966 136.222 67.7986C136.222 57.7007 127.902 49.522 117.645 49.522C107.388 49.522 99.0684 57.7007 99.0684 67.7986C99.0684 77.8966 107.388 86.0753 117.645 86.0753Z" fill="#006E58"/>
<path d="M712.097 37.3521C722.354 37.3521 730.674 29.1734 730.674 19.0755C730.674 8.97752 722.354 0.798828 712.097 0.798828C701.84 0.798828 693.521 8.97752 693.521 19.0755C693.521 29.1734 701.84 37.3521 712.097 37.3521Z" fill="#006E58"/>
<path opacity="0.85" d="M613.03 37.3521C623.287 37.3521 631.606 29.1734 631.606 19.0755C631.606 8.97752 623.287 0.798828 613.03 0.798828C602.773 0.798828 594.453 8.97752 594.453 19.0755C594.453 29.1734 602.773 37.3521 613.03 37.3521Z" fill="#C1C6DB"/>
<path d="M513.939 37.3521C524.196 37.3521 532.516 29.1734 532.516 19.0755C532.516 8.97752 524.196 0.798828 513.939 0.798828C503.682 0.798828 495.362 8.97752 495.362 19.0755C495.362 29.1734 503.682 37.3521 513.939 37.3521Z" fill="#3578E6"/>
<path d="M464.416 37.3521C474.672 37.3521 482.992 29.1734 482.992 19.0755C482.992 8.97752 474.672 0.798828 464.416 0.798828C454.159 0.798828 445.839 8.97752 445.839 19.0755C445.839 29.1734 454.159 37.3521 464.416 37.3521Z" fill="#006E58"/>
<path d="M712.097 134.82C722.354 134.82 730.674 126.642 730.674 116.544C730.674 106.446 722.354 98.2671 712.097 98.2671C701.84 98.2671 693.521 106.446 693.521 116.544C693.521 126.642 701.84 134.82 712.097 134.82Z" fill="#202048"/>
<path opacity="0.85" d="M563.484 134.82C573.741 134.82 582.061 126.642 582.061 116.544C582.061 106.446 573.741 98.2671 563.484 98.2671C553.227 98.2671 544.907 106.446 544.907 116.544C544.907 126.642 553.227 134.82 563.484 134.82Z" fill="#2C3461"/>
<path d="M513.939 134.82C524.196 134.82 532.516 126.642 532.516 116.544C532.516 106.446 524.196 98.2671 513.939 98.2671C503.682 98.2671 495.362 106.446 495.362 116.544C495.362 126.642 503.682 134.82 513.939 134.82Z" fill="#02BACE"/>
<path d="M464.416 134.82C474.672 134.82 482.992 126.642 482.992 116.544C482.992 106.446 474.672 98.2671 464.416 98.2671C454.159 98.2671 445.839 106.446 445.839 116.544C445.839 126.642 454.159 134.82 464.416 134.82Z" fill="#3578E6"/>
<path opacity="0.85" d="M365.327 134.82C375.583 134.82 383.903 126.642 383.903 116.544C383.903 106.446 375.583 98.2671 365.327 98.2671C355.07 98.2671 346.75 106.446 346.75 116.544C346.75 126.642 355.07 134.82 365.327 134.82Z" fill="#C1C6DB"/>
<path d="M216.736 134.82C226.993 134.82 235.312 126.642 235.312 116.544C235.312 106.446 226.993 98.2671 216.736 98.2671C206.479 98.2671 198.159 106.446 198.159 116.544C198.159 126.642 206.479 134.82 216.736 134.82Z" fill="#202048"/>
</svg>
