<svg width="470" height="271" viewBox="0 0 470 271" fill="none" xmlns="http://www.w3.org/2000/svg">
<g clip-path="url(#clip0_434_7027)">
<path d="M398.74 129.34C398.74 119.97 402.46 110.98 409.09 104.35C415.72 97.72 424.7 94 434.08 94C443.46 94 452.44 97.72 459.07 104.35C465.7 110.98 469.42 119.96 469.42 129.34C469.42 138.72 465.7 147.7 459.07 154.33C452.44 160.96 443.46 164.68 434.08 164.68C424.7 164.68 415.72 160.96 409.09 154.33C402.46 147.7 398.74 138.72 398.74 129.34ZM431.87 98.76C428.91 99.66 425.97 102.38 423.54 106.95C422.74 108.47 422.05 110.05 421.47 111.67H431.87V98.76ZM416.81 111.67C417.55 109.32 418.49 107.05 419.64 104.87C420.4 103.43 421.29 102.05 422.28 100.75C416.81 103.02 412.1 106.81 408.71 111.67H416.82H416.81ZM414.24 127.13C414.37 123.26 414.85 119.54 415.62 116.09H406.14C404.49 119.56 403.51 123.3 403.24 127.13H414.24ZM420.15 116.09C419.28 119.71 418.78 123.41 418.66 127.13H431.87V116.09H420.15ZM436.29 116.09V127.13H449.5C449.38 123.41 448.88 119.71 448.01 116.09H436.29ZM418.66 131.55C418.78 135.27 419.28 138.97 420.15 142.59H431.87V131.55H418.66ZM436.29 131.55V142.59H448.01C448.84 139.21 449.36 135.49 449.5 131.55H436.29ZM421.47 147.01C422.08 148.71 422.77 150.3 423.54 151.73C425.98 156.3 428.92 159.02 431.87 159.92V147.01H421.47ZM422.27 157.93C421.28 156.63 420.4 155.25 419.63 153.81C418.49 151.63 417.54 149.36 416.8 147.01H408.69C412.08 151.87 416.79 155.66 422.26 157.93H422.27ZM415.61 142.59C414.81 138.96 414.35 135.26 414.23 131.55H403.23C403.5 135.48 404.52 139.2 406.13 142.59H415.61ZM445.88 157.93C451.35 155.66 456.06 151.87 459.45 147.01H451.34C450.6 149.36 449.66 151.63 448.51 153.81C447.75 155.25 446.86 156.63 445.87 157.93H445.88ZM436.29 147.01V159.92C439.25 159.02 442.19 156.3 444.62 151.73C445.38 150.3 446.08 148.72 446.69 147.01H436.29ZM452.54 142.59H462.02C463.63 139.2 464.64 135.48 464.92 131.55H453.92C453.8 135.27 453.34 138.96 452.54 142.59ZM464.92 127.13C464.65 123.3 463.67 119.56 462.02 116.09H452.54C453.31 119.54 453.79 123.26 453.92 127.13H464.92ZM448.52 104.87C449.61 106.92 450.56 109.2 451.35 111.67H459.46C456.07 106.81 451.36 103.02 445.89 100.75C446.85 102 447.74 103.39 448.53 104.87H448.52ZM446.69 111.67C446.12 110.05 445.43 108.47 444.62 106.95C442.18 102.38 439.24 99.66 436.29 98.76V111.67H446.69Z" fill="#2E6C59"/>
<path d="M52.15 155.32H76.85C87.55 155.32 96.38 146.89 96.38 136.29C96.38 126.64 89.06 118.78 79.67 117.46C78.24 102.25 65.07 90.46 49.21 90.46C41.43 90.48 33.91 93.29 28.02 98.37C23.5 102.26 20.23 107.33 19.39 112.42C9.51004 114.6 2.04004 123.21 2.04004 133.61C2.04004 145.69 12.11 155.32 24.33 155.32H52.16H52.15Z" stroke="#007A6C" stroke-width="2.87" stroke-miterlimit="10"/>
<path d="M45.5694 122.88C44.8994 122.88 44.3594 123.42 44.3594 124.09V131.34C44.3594 132.01 44.8994 132.55 45.5694 132.55H52.8194C53.4894 132.55 54.0294 132.01 54.0294 131.34V124.09C54.0294 123.42 53.4894 122.88 52.8194 122.88H45.5694Z" fill="#007A6C"/>
<path d="M43.1498 109.58C43.1498 108.91 42.6098 108.37 41.9398 108.37C41.2698 108.37 40.7298 108.91 40.7298 109.58V113.21C37.3898 113.21 34.6798 115.92 34.6798 119.26H31.0498C30.3798 119.26 29.8398 119.8 29.8398 120.47C29.8398 121.14 30.3798 121.68 31.0498 121.68H34.6798V124.1H31.0498C30.3798 124.1 29.8398 124.64 29.8398 125.31C29.8398 125.98 30.3798 126.52 31.0498 126.52H34.6798V128.94H31.0498C30.3798 128.94 29.8398 129.48 29.8398 130.15C29.8398 130.82 30.3798 131.36 31.0498 131.36H34.6798V133.78H31.0498C30.3798 133.78 29.8398 134.32 29.8398 134.99C29.8398 135.66 30.3798 136.2 31.0498 136.2H34.6798C34.6798 139.54 37.3898 142.25 40.7298 142.25V145.88C40.7298 146.55 41.2698 147.09 41.9398 147.09C42.6098 147.09 43.1498 146.55 43.1498 145.88V142.25H45.5698V145.88C45.5698 146.55 46.1098 147.09 46.7798 147.09C47.4498 147.09 47.9898 146.55 47.9898 145.88V142.25H50.4098V145.88C50.4098 146.55 50.9498 147.09 51.6198 147.09C52.2898 147.09 52.8298 146.55 52.8298 145.88V142.25H55.2498V145.88C55.2498 146.55 55.7898 147.09 56.4598 147.09C57.1298 147.09 57.6698 146.55 57.6698 145.88V142.25C61.0098 142.25 63.7198 139.54 63.7198 136.2H67.3498C68.0198 136.2 68.5598 135.66 68.5598 134.99C68.5598 134.32 68.0198 133.78 67.3498 133.78H63.7198V131.36H67.3498C68.0198 131.36 68.5598 130.82 68.5598 130.15C68.5598 129.48 68.0198 128.94 67.3498 128.94H63.7198V126.52H67.3498C68.0198 126.52 68.5598 125.98 68.5598 125.31C68.5598 124.64 68.0198 124.1 67.3498 124.1H63.7198V121.68H67.3498C68.0198 121.68 68.5598 121.14 68.5598 120.47C68.5598 119.8 68.0198 119.26 67.3498 119.26H63.7198C63.7198 115.92 61.0098 113.21 57.6698 113.21V109.58C57.6698 108.91 57.1298 108.37 56.4598 108.37C55.7898 108.37 55.2498 108.91 55.2498 109.58V113.21H52.8298V109.58C52.8298 108.91 52.2898 108.37 51.6198 108.37C50.9498 108.37 50.4098 108.91 50.4098 109.58V113.21H47.9898V109.58C47.9898 108.91 47.4498 108.37 46.7798 108.37C46.1098 108.37 45.5698 108.91 45.5698 109.58V113.21H43.1498V109.58ZM45.5698 120.47H52.8198C54.8198 120.47 56.4498 122.09 56.4498 124.1V131.35C56.4498 133.35 54.8298 134.98 52.8198 134.98H45.5698C43.5698 134.98 41.9398 133.36 41.9398 131.35V124.1C41.9398 122.1 43.5598 120.47 45.5698 120.47Z" fill="#007A6C"/>
<path d="M103.61 53.7197L103.44 49.9297C103.44 47.6197 104.36 45.3997 105.99 43.7697C107.62 42.1397 109.84 41.2197 112.15 41.2197H128.15C130.46 41.2197 132.68 42.1397 134.31 43.7697L137.92 47.3797C139.55 49.0097 141.77 49.9297 144.08 49.9297H161.43C162.64 49.9297 163.84 50.1797 164.95 50.6697C166.06 51.1597 167.05 51.8697 167.87 52.7697C168.69 53.6597 169.31 54.7197 169.69 55.8697C170.07 57.0197 170.22 58.2297 170.11 59.4397L167.33 89.9397C167.13 92.0997 166.13 94.1197 164.53 95.5797C162.93 97.0497 160.83 97.8597 158.66 97.8597H113.58C111.41 97.8597 109.31 97.0497 107.71 95.5797C106.11 94.1097 105.11 92.0997 104.91 89.9397L102.13 59.4397C101.94 57.4197 102.47 55.3997 103.62 53.7297L103.61 53.7197ZM110.79 54.2897C110.18 54.2897 109.59 54.4197 109.03 54.6597C108.48 54.8997 107.98 55.2597 107.57 55.7097C107.16 56.1597 106.85 56.6797 106.66 57.2597C106.47 57.8297 106.39 58.4397 106.45 59.0397L109.23 89.5397C109.33 90.6197 109.83 91.6297 110.63 92.3597C111.43 93.0897 112.48 93.4997 113.57 93.4997H158.65C159.74 93.4997 160.78 93.0897 161.59 92.3597C162.39 91.6297 162.89 90.6197 162.99 89.5397L165.77 59.0397C165.82 58.4397 165.75 57.8297 165.56 57.2597C165.37 56.6897 165.06 56.1597 164.65 55.7097C164.24 55.2597 163.75 54.9097 163.19 54.6597C162.64 54.4197 162.04 54.2897 161.43 54.2897H110.81H110.79ZM131.23 46.8497C130.82 46.4397 130.34 46.1197 129.81 45.8997C129.28 45.6797 128.71 45.5697 128.14 45.5697H112.14C111 45.5697 109.9 46.0197 109.09 46.8197C108.28 47.6197 107.81 48.7097 107.79 49.8497L107.82 50.4597C108.75 50.1197 109.75 49.9397 110.8 49.9397H134.31L131.23 46.8597V46.8497Z" fill="#212E47"/>
<path d="M133.29 95.9798C133.29 99.6598 132.79 122.79 133.69 124.05C134.69 124.55 135.68 124.71 136.78 124.81C140.3 125.11 143.98 124.88 147.5 124.88L167.67 124.85L167.74 151.69L129.95 151.66C125.07 151.69 115.35 151.03 111.11 152.26C109.95 153.45 110.55 169.68 110.55 172.36L88.7497 172.29V183.1C84.8397 183.03 76.6697 181.91 73.6897 184.89C72.6597 185.92 72.1997 187.05 72.0297 188.47C71.6697 191.62 71.8597 195.01 71.8597 198.19L71.8897 214.38V262.35C71.8897 265.04 72.1897 267.06 74.1797 268.98C75.2697 270.04 76.6297 270.71 78.1897 270.84C80.9097 271.07 83.7597 270.94 86.4797 270.94H149.28L305.1 270.91L381.83 270.88H406.38C410.29 270.88 414.44 271.18 418.29 270.81C419.68 270.68 421.01 269.98 422.01 268.99C423.1 267.9 423.5 265.9 423.64 264.41C423.91 261.62 423.71 258.64 423.71 255.82V240.1C423.71 227.19 424.07 214.19 423.81 201.29C423.81 200.83 423.71 200.29 423.48 199.9C423.41 199.5 423.35 199.27 423.08 198.97C421.06 196.48 406.79 182.08 404.6 180.62C404.5 180.52 404.27 180.42 404.14 180.35L384.6 180.42C384.87 179.92 385 179.49 385.03 178.93C385.33 174.72 385 170.37 385 166.12C385 162.9 385.6 155.54 384.93 152.78C384.86 152.48 384.76 152.18 384.63 151.92C383.67 151.49 382.61 151.39 381.54 151.32C375.6 150.92 369.43 151.25 363.49 151.25L328.56 151.32V124.88C334.47 125.05 340.4 124.88 346.31 124.88C350.59 124.88 355.03 125.15 359.31 124.85C360.24 124.78 361.2 124.72 362.03 124.25C362.39 123.49 362.49 122.72 362.56 121.89C362.76 119 362.69 97.2698 362.43 96.4098C362.4 96.2098 362.3 96.0498 362.2 95.8798L384.92 95.8498C388.77 95.8498 393.05 96.1798 396.86 95.6798C398.19 95.5098 399.71 95.2198 400.71 94.2498C401.74 93.2498 402.4 91.8298 402.63 90.4298C403.19 86.6798 402.76 77.6598 402.76 73.4098V34.9898C402.76 32.1398 402.86 29.8098 400.7 27.6598C400 26.9598 399.31 26.3998 398.31 26.1998C393.77 25.2698 388.36 25.8398 383.71 25.8398H356.21C356.64 24.0198 354.92 21.1598 353.95 19.6398C350.7 14.3698 345.66 10.5198 339.55 9.11981C333.84 7.82981 327.91 8.91981 323 12.0398C317.79 15.3198 314.14 20.5698 312.78 26.5698C311.52 32.0798 312.48 38.0498 315.47 42.8598C314.74 45.8098 312.02 54.7698 312.65 57.2898C313.01 57.8898 313.35 58.2898 314.04 58.4498C314.47 58.5498 315 58.5798 315.47 58.6198C316.13 59.6798 315.77 62.8698 315.77 64.1298C315.7 68.3798 315.04 88.2498 316.2 91.2698C317 93.3898 319.19 95.2498 321.38 95.7198C324.86 96.4498 331.43 95.9198 335.25 95.9198C342.71 95.8898 350.21 96.0898 357.68 95.8498C358.21 97.4398 358.28 118.87 357.71 120.07C357.64 120.24 357.61 120.27 357.54 120.4H327.28C326.12 117.61 324.33 115.59 321.47 114.43C320.41 114 319.35 113.8 318.19 113.7C310.99 113.17 302.6 113.6 295.27 113.6L250.25 113.63L250.22 77.2698L276.26 77.1998C280.17 77.1998 284.69 77.6598 288.53 77.0298C290.62 76.6998 292.44 76.0698 293.97 74.5398C295.36 73.1798 296.46 71.2898 296.82 69.3598C297.45 65.8798 296.99 55.8898 296.99 51.8798L296.96 12.4398C296.93 9.0198 296.43 6.0698 293.87 3.5498C292.18 1.8898 290.55 1.1898 288.2 0.859805C284.95 0.359805 281.37 0.629805 278.05 0.629805L260.67 0.659805C243.15 0.689805 225.54 0.299805 208.02 0.729805H207.89C204.9 1.2898 202.52 2.5498 200.72 5.1798C199.63 6.8098 199.26 8.2998 199.06 10.2198C198.63 14.3998 198.89 18.7798 198.89 22.9898V46.4098L198.86 61.2398C198.86 63.9898 198.56 67.1498 199.09 69.8698C199.55 72.3198 201.28 74.4798 203.34 75.8098C204.57 76.6098 205.79 77.0398 207.25 77.1998C211.36 77.6998 215.88 77.3298 220.02 77.3298H245.76L245.69 113.62L197.75 113.59H184.88C182.06 113.59 179.07 113.36 176.29 113.86C174.23 114.22 172.14 115.45 170.68 116.91C169.68 117.91 168.95 119.1 168.32 120.36C158.1 120.36 147.85 120.63 137.67 120.29L137.64 96.0098L133.26 95.9798H133.29Z" fill="#212E47"/>
<path d="M132.93 187.37C135.45 187.4 141.85 186.31 143.71 188.07C144.44 188.77 144.27 189.76 144.27 190.69L132.96 190.72L132.93 187.37Z" fill="#FDFDFD"/>
<path d="M76.0694 190.96C76.0394 189.96 75.8994 188.97 76.6994 188.21C78.5894 186.35 86.0594 187.38 88.7394 187.35V190.93L76.0694 190.96Z" fill="#FDFDFD"/>
<path d="M404.859 187.67H405.129C406.089 187.74 413.849 195.76 414.949 197.03C415.449 197.59 415.809 197.86 415.779 198.62C412.859 199.05 407.819 198.62 404.729 198.59C404.759 198.56 404.759 198.52 404.799 198.46C405.559 197.07 405.359 189.44 404.869 187.68L404.859 187.67Z" fill="#2E6C59"/>
<path d="M341.93 256.05C343.02 256.95 344.88 256.75 346.28 256.65C346.51 256.62 346.45 256.65 346.68 256.52C346.78 256.72 346.88 256.92 346.95 257.12C347.41 258.51 347.35 265.18 346.68 266.44H334.37C336.13 265.61 337.49 264.28 338.72 262.79C340.08 261.2 342.14 258.25 341.94 256.06L341.93 256.05Z" fill="#CCD2D2"/>
<path d="M316.449 32.2497C316.379 27.6697 317.739 23.2297 320.629 19.6397C323.649 15.9197 328.129 13.3397 332.899 12.9097C337.639 12.4797 342.549 13.9697 346.199 17.0197C347.629 18.2097 350.379 20.8997 350.579 22.7897C350.509 22.7597 350.449 22.7597 350.409 22.7597C349.549 22.3997 348.419 20.7397 347.619 20.0697C342.779 15.9197 336.269 13.8997 330.039 15.8897C325.789 17.2197 321.709 20.9697 319.719 24.9097C318.489 27.3297 317.989 29.9897 317.659 32.6397L317.299 32.9097L316.439 32.2497H316.449Z" fill="white"/>
<path d="M203.39 12.94C203.36 10.65 203.42 8.43003 205.15 6.70003C205.71 6.14003 206.64 5.44003 207.44 5.31003C210.13 4.85003 213.11 5.04003 215.83 5.08003L228.9 5.11003L274.71 5.08003C277.76 5.08003 285.89 4.62003 288.54 5.25003C289.44 5.45003 290.36 6.05003 290.99 6.71003C292.32 8.14003 292.55 9.86003 292.55 11.72C291.09 10.03 290 8.73003 287.61 8.57003C283.53 8.30003 279.32 8.50003 275.2 8.47003L247.9 8.54003H221.23C217.18 8.57003 212.87 8.27003 208.86 8.64003C207.73 8.74003 206.77 9.20003 205.91 9.93003C204.98 10.83 204.18 11.92 203.39 12.95V12.94Z" fill="#CCD2D2"/>
<path d="M172.27 123.05C172.7 121.36 173.4 119.93 174.96 119.04C176.05 118.41 177.41 118.11 178.68 118.08C189.56 117.72 200.54 118.11 211.42 118.08L276.34 118.01H303.51C307.16 118.01 315.72 117.48 318.94 118.41C320.67 118.91 322.09 119.94 322.92 121.53C323.28 122.23 323.52 122.92 323.68 123.69C323.61 123.79 323.45 123.89 323.35 123.96C322.89 123.36 322.42 122.7 321.86 122.2C320.8 121.24 319.41 120.81 318.01 120.71C315.36 120.54 312.64 120.68 310.01 120.64L293.95 120.61H200.66C193.96 120.61 185.5 120.21 178.93 120.71C174.92 121.04 174.92 121.97 172.56 124.76C172.23 124.43 172.29 123.6 172.26 123.07L172.27 123.05Z" fill="#FDFDFD"/>
<path d="M93.0498 176.82L128.61 176.75L128.54 191.08H93.0098L93.0398 176.81L93.0498 176.82Z" fill="#007A6C"/>
<path d="M102.18 181.27C102.91 181.44 103.64 181.73 104.1 182.33C104.5 182.83 104.66 183.42 104.56 184.06C104.39 185.02 103.8 185.49 103.03 185.98C102.13 185.85 101.3 185.62 100.77 184.85C100.44 184.39 100.31 183.85 100.41 183.32C100.58 182.29 101.31 181.79 102.17 181.26L102.18 181.27Z" fill="white"/>
<path d="M119.589 181.57C119.789 181.57 119.949 181.57 120.149 181.6C121.009 181.67 121.709 181.93 122.239 182.66C122.569 183.09 122.699 183.62 122.639 184.15C122.509 185.15 121.839 185.61 121.079 186.14C120.219 186.01 119.349 185.81 118.719 185.14C118.359 184.74 118.159 184.24 118.189 183.68C118.289 182.68 118.889 182.15 119.579 181.56L119.589 181.57Z" fill="white"/>
<path d="M110.339 181.54C111.399 181.47 112.259 181.47 113.089 182.24C113.489 182.6 113.719 183.1 113.719 183.63C113.749 184.69 113.119 185.26 112.429 185.95C111.569 185.98 110.699 185.88 109.979 185.32C109.549 184.99 109.279 184.49 109.249 183.93C109.179 182.93 109.709 182.24 110.339 181.54Z" fill="white"/>
<path d="M235.44 228.28L260.25 228.31C261.18 235.08 262.84 241.81 264.03 248.55H231.22C232.71 241.82 234.07 235.05 235.43 228.28H235.44Z" fill="#CCD2D2"/>
<path d="M76.2302 257.54L144.21 257.51C144.18 259.87 144.91 263.71 143.28 265.64C142.62 266.4 142.02 266.47 141.09 266.5C131.5 266.9 121.02 266.5 111.37 266.5C101.09 266.5 90.6402 266.93 80.3802 266.47C79.4502 266.44 77.9302 266.54 77.2602 265.87C75.5702 264.24 76.2002 259.67 76.2302 257.54Z" fill="#CCD2D2"/>
<path d="M157.409 252.96L337.809 253.03C338.169 253.93 337.939 254.95 337.539 255.82C337.369 256.22 337.209 256.45 336.879 256.68C330.149 256.88 323.379 256.68 316.639 256.68L279.519 256.71L158.559 256.74C158.059 255.51 157.699 254.29 157.399 252.96H157.409Z" fill="#ABE7DF"/>
<path d="M351.42 185.08C351.65 185.54 351.75 185.91 351.75 186.44C352.02 192.84 352.02 255.15 351.62 256.17C351.55 256.3 351.52 256.37 351.45 256.5L391.06 256.4C400.28 256.4 409.54 256.67 418.73 256.47C419.46 257.56 419.26 259.22 419.29 260.52C419.36 262.21 419.56 264.93 418.26 266.23C418.06 266.43 417.66 266.43 417.43 266.46C415.11 266.69 412.65 266.53 410.33 266.53H396.33L351.28 266.5C351.68 265.84 351.58 265.01 351.61 264.24C351.81 247.55 351.54 230.8 351.54 214.11V195.4C351.51 192.02 351.67 188.47 351.41 185.08H351.42Z" fill="#CCD2D2"/>
<path d="M292.57 45.1196C292.77 49.5296 292.7 53.9396 292.7 58.3596C292.7 61.3496 292.93 64.5596 292.5 67.5496C292.33 68.7796 291.94 70.1996 291.14 71.1696C290.05 72.4596 287.72 72.7596 286.13 72.8296C280.89 73.0996 275.55 72.8596 270.27 72.8596H219.35C215.63 72.8596 211.75 73.1296 208.04 72.7896C206.85 72.6896 205.82 72.4296 204.92 71.5996C203.03 69.8396 203.33 66.7196 203.36 64.3996C212.38 64.1996 221.44 64.3696 230.43 64.3296L292.43 64.3996C292.46 57.9996 292.16 51.4596 292.56 45.1296L292.57 45.1196Z" fill="#2E6C59"/>
<path d="M172.27 123.05C172.3 123.55 172.24 124.41 172.57 124.78C174.93 121.99 174.93 121.06 178.94 120.73C185.48 120.2 193.94 120.63 200.67 120.63H244.33L294.03 120.66L310.09 120.69C312.74 120.69 315.46 120.56 318.09 120.76C319.48 120.86 320.88 121.29 321.94 122.25C322.5 122.75 322.97 123.41 323.43 124.01C323.53 123.94 323.7 123.84 323.76 123.74C323.96 124.34 323.99 125.17 324.12 125.83L219.25 125.8L190.06 125.77C185.52 125.77 180.27 125.31 175.79 125.84C174.36 126.01 173.34 126.9 172.24 127.76C172.14 126.13 172.01 124.61 172.27 123.05Z" fill="#CCD2D2"/>
<path d="M316.45 32.2499L317.28 32.8799L317.64 32.6099C317.97 29.9199 318.47 27.2999 319.7 24.8799C321.69 20.9299 325.77 17.1799 330.02 15.8599C336.26 13.8999 342.76 15.8899 347.6 20.0399C348.36 20.6999 349.52 22.3599 350.39 22.7299C350.46 22.7599 350.52 22.7599 350.56 22.7599C351.92 23.8499 352.65 26.9699 352.85 28.6699C353.41 33.5099 351.85 38.4199 348.84 42.2399C345.85 45.9899 341.51 48.6799 336.73 49.2099C333.18 49.6099 329.56 48.9799 326.31 47.4199C323.52 48.8799 320.67 50.2699 317.92 51.8299C318.52 48.6499 319.21 45.4599 319.91 42.2799C318.05 39.1299 316.89 35.9799 316.46 32.2599L316.45 32.2499Z" fill="#2E6C59"/>
<path d="M341.76 36.2598C342.09 36.6198 342.39 37.0198 342.69 37.4198C342.56 38.4198 342.19 39.0098 341.4 39.6798C339.38 41.3698 336.26 42.0698 333.67 41.7698C331.78 41.5398 329.52 40.8398 328.33 39.2798C327.67 38.4498 327.04 37.3898 327.17 36.2898C328.36 37.4798 329.39 38.4098 330.99 39.0098C333.35 39.9398 336.36 40.0398 338.72 39.0098C339.81 38.5098 341.34 37.3798 341.77 36.2598H341.76Z" fill="#2E6C59"/>
<path d="M327.17 36.2999C326.14 34.4799 325.44 32.9499 325.41 30.7899C325.34 28.3999 326.31 25.9799 327.96 24.2499C329.69 22.4599 332.07 21.4999 334.53 21.4299C337.02 21.3999 339.54 22.3299 341.3 24.1199C342.99 25.8499 343.92 28.3299 343.89 30.7199C343.86 32.7099 343.23 34.8299 341.77 36.2599C341.34 37.3899 339.81 38.5199 338.72 39.0099C336.36 40.0399 333.35 39.9699 330.99 39.0099C329.4 38.3799 328.37 37.4499 327.17 36.2899V36.2999Z" fill="#212E47"/>
<path d="M333.24 25.6096C334.6 25.4796 335.79 25.5396 337.02 26.2396C338.28 26.9396 339.21 28.1296 339.54 29.5596C339.84 30.7896 339.64 32.1496 338.94 33.2096C338.08 34.5396 336.85 35.1996 335.36 35.4996C334.66 35.7996 333.67 35.6296 332.94 35.4296C331.78 35.0996 330.85 34.3396 330.29 33.2696C329.63 32.0096 329.46 30.5196 329.86 29.1196C330.42 27.2596 331.65 26.4996 333.24 25.5996V25.6096Z" fill="#FDFDFD"/>
<path d="M158.57 256.78L279.53 256.75L316.65 256.72C323.38 256.72 330.15 256.92 336.89 256.72C336.92 256.95 336.99 257.12 336.89 257.35C335.8 260.7 331.68 263.65 328.66 265.15C326.87 266.05 324.35 266.24 322.36 266.31C316.32 266.58 310.18 266.28 304.11 266.28H266.79L201.87 266.31L183.66 266.28C179.98 266.28 176.16 266.51 172.51 266.21C171.02 266.08 169.56 265.81 168.13 265.31C163.65 263.78 160.67 261 158.58 256.78H158.57Z" fill="#2E6C59"/>
<path d="M172.34 207.58L324.02 207.75C324.02 212.43 325.11 218.1 322.03 221.98C320.11 223.74 318.45 223.97 315.89 223.97L225.69 223.9H194.24C188.93 223.9 183.43 224.2 178.15 223.83C176.52 223.7 175.26 223.53 174.07 222.34C171.22 219.42 172.31 211.36 172.34 207.58Z" fill="#CCD2D2"/>
<path d="M247.02 212.16C247.52 212.13 248.05 212.09 248.55 212.23C249.45 212.46 250.37 213.03 250.84 213.86C251.34 214.72 251.37 215.75 251.11 216.68C250.71 217.94 249.78 218.5 248.72 219.1C248.32 219.1 247.86 219.1 247.46 219.03C246.5 218.83 245.57 218.33 245.01 217.5C244.51 216.77 244.35 215.84 244.58 214.95C244.91 213.52 245.84 212.89 247.03 212.16H247.02Z" fill="#212E47"/>
<path d="M328.49 155.79L380.08 155.76C380.68 157.22 380.78 178.55 380.25 179.88C380.18 180.08 380.08 180.24 379.95 180.44L360.97 180.47C357.85 180.47 354.34 180.14 351.25 180.67C350.12 180.87 349.19 181.23 348.4 182.06C347.7 182.82 347.27 183.65 347.11 184.65C346.48 188.47 347.04 193.08 347.04 196.96L347.07 235.71C347.07 242.15 347.4 248.78 347.04 255.18C347.01 255.68 346.91 256.08 346.68 256.51C346.45 256.61 346.51 256.61 346.28 256.64C344.92 256.74 343.03 256.97 341.93 256.04C342.76 254.65 343.16 252.36 342.79 250.77C342.56 249.87 342.13 249.31 341.36 248.85C338.54 248.42 335.52 248.62 332.67 248.62H318.84L268.58 248.59C267.45 241.92 266.32 234.92 264.5 228.42H302.15C306.89 228.42 315.62 228.92 319.83 228.15C321.82 227.79 323.71 226.62 325.14 225.2C326.87 223.47 327.86 221.52 328.29 219.13C329.09 214.55 328.49 205.26 328.49 200.09V155.8V155.79Z" fill="#FDFDFD"/>
<path d="M114.95 156.06H167.66L167.63 212.13C167.6 216.71 167.17 221.65 170.68 225.17C172.14 226.63 174.06 227.72 176.09 228.12C180.27 228.92 189 228.39 193.61 228.39H231.03L227.02 248.59L204.59 248.62L157.71 248.55C156.28 248.55 154.62 248.42 153.6 249.55C152.87 250.35 152.7 251.37 152.77 252.44C153.17 258.21 156.85 262.99 161.06 266.57H148.65L148.52 214.62L148.55 197.14C148.55 194.15 148.78 190.94 148.42 187.95C148.29 186.79 147.52 185.46 146.69 184.63C143.9 181.91 136.8 182.94 133.09 182.97V172.29L115.08 172.26L114.95 156.07V156.06Z" fill="#FDFDFD"/>
<path d="M356.89 30.5597C358.28 30.0297 395.37 29.9597 397.03 30.4897C397.46 30.8497 397.69 31.0197 397.76 31.6197V31.8197L398.12 32.2497C398.72 35.0397 398.29 45.1597 398.29 48.7697L398.36 73.9797C398.36 78.3297 398.49 82.7397 398.33 87.0797C398.3 88.0797 398.26 89.7697 397.7 90.6297C397.4 91.0897 396.9 91.1597 396.41 91.2597C393.66 91.8597 390.37 91.5297 387.55 91.5297L371.83 91.4997C356.01 91.4697 340.11 91.8597 324.32 91.4997C323.29 91.4697 322.06 91.4697 321.14 90.8697C320.41 90.0397 320.31 88.6797 320.21 87.6197C319.91 83.9397 320.18 80.0197 320.21 76.3097V55.7097C322.37 54.4197 324.69 53.3197 326.94 52.1897C331.09 53.8497 336.03 54.1097 340.34 52.9497C346.15 51.3897 351.12 47.5797 354.11 42.3697C355.74 39.4197 357.83 33.9097 356.9 30.5597H356.89Z" fill="white"/>
<path d="M356.89 30.5597C358.28 30.0297 395.37 29.9597 397.03 30.4897C397.46 30.8497 397.69 31.0197 397.76 31.6197V31.8197L397.69 32.0497C397.62 32.0797 397.56 32.1197 397.49 32.1497C397.22 32.2797 362.89 32.3497 359.5 32.3797C358.94 32.3797 358.34 32.3097 357.84 32.1097C357.18 31.8097 357.08 31.1497 356.88 30.5497L356.89 30.5597Z" fill="#FDFDFD"/>
<path d="M144.24 190.69L144.21 257.5L76.2296 257.53C75.9596 235.34 76.4996 213.14 76.0596 190.98L88.7296 190.91V195.55L132.89 195.58L132.92 190.77L144.23 190.67L144.24 190.69Z" fill="white"/>
<path d="M351.42 185.08C354.8 184.35 362.73 184.85 366.51 184.85L400.38 184.88C400.41 184.95 400.41 184.98 400.45 185.05C401.71 188.2 399.49 201.67 401.64 202.8C402.97 203.5 416.47 203.07 418.82 203.03C419.12 203.56 419.18 203.99 419.22 204.59C419.62 214.84 419.22 225.22 419.22 235.48C419.22 238.57 419.65 253.99 419.12 255.78C419.05 256.05 418.89 256.28 418.76 256.48C409.54 256.68 400.28 256.41 391.09 256.41L351.48 256.51C351.55 256.38 351.61 256.31 351.65 256.18C352.05 255.18 352.05 192.85 351.78 186.45C351.75 185.92 351.65 185.52 351.42 185.09V185.08Z" fill="#FDFDFD"/>
<path d="M203.39 12.9396C204.15 11.9096 204.98 10.8196 205.91 9.94962C206.74 9.18962 207.73 8.75962 208.86 8.65962C212.87 8.29962 217.19 8.55962 221.23 8.55962H247.9L275.2 8.48962C279.28 8.48962 283.53 8.28962 287.61 8.58962C290 8.75962 291.09 10.0496 292.55 11.7396C292.52 22.8496 292.75 33.9996 292.55 45.1496C292.15 51.4896 292.45 58.0196 292.45 64.3596L230.45 64.2896C221.43 64.3196 212.37 64.1596 203.38 64.3596C203.15 47.2396 203.35 30.0896 203.38 12.9396H203.39Z" fill="#06192D" stroke="#06192D" stroke-width="0.57" stroke-miterlimit="10"/>
<path d="M175.89 130.35C180.67 129.82 185.94 130.25 190.79 130.25L221.31 130.28L323.99 130.31V203.26L320.34 203.23L172.28 203.1L172.31 154.27C172.31 150.32 171.71 136.75 172.48 133.64C172.88 131.98 174.54 131.12 175.9 130.36L175.89 130.35Z" fill="#06192D" stroke="#06192D" stroke-width="0.57" stroke-miterlimit="10"/>
<path d="M226.81 205.35C246.471 205.35 262.41 189.411 262.41 169.75C262.41 150.089 246.471 134.15 226.81 134.15C207.149 134.15 191.21 150.089 191.21 169.75C191.21 189.411 207.149 205.35 226.81 205.35Z" fill="#06192D" stroke="#06192D" stroke-width="0.69" stroke-miterlimit="10"/>
<path d="M237.241 153.06C237.241 154.21 236.311 155.15 235.151 155.15C233.991 155.15 233.061 154.22 233.061 153.06C233.061 151.9 233.991 150.97 235.151 150.97C236.311 150.97 237.241 151.9 237.241 153.06Z" fill="#F24BA0"/>
<path d="M245.59 161.41C245.59 162.56 244.66 163.5 243.5 163.5C242.34 163.5 241.41 162.57 241.41 161.41C241.41 160.25 242.34 159.32 243.5 159.32C244.66 159.32 245.59 160.25 245.59 161.41Z" fill="#F24BA0"/>
<path d="M233.071 165.58C233.071 166.73 232.141 167.67 230.981 167.67C229.821 167.67 228.891 166.74 228.891 165.58C228.891 164.42 229.821 163.49 230.981 163.49C232.141 163.49 233.071 164.42 233.071 165.58Z" fill="#00A877"/>
<path d="M224.731 148.88C224.731 150.03 223.801 150.97 222.641 150.97C221.481 150.97 220.551 150.04 220.551 148.88C220.551 147.72 221.481 146.79 222.641 146.79C223.801 146.79 224.731 147.72 224.731 148.88Z" fill="#00A877"/>
<path d="M208.04 153.06C208.04 154.21 207.11 155.15 205.95 155.15C204.79 155.15 203.86 154.22 203.86 153.06C203.86 151.9 204.79 150.97 205.95 150.97C207.11 150.97 208.04 151.9 208.04 153.06Z" fill="#00A877"/>
<path d="M224.731 153.06C224.731 154.21 223.801 155.15 222.641 155.15C221.481 155.15 220.551 154.22 220.551 153.06C220.551 151.9 221.481 150.97 222.641 150.97C223.801 150.97 224.731 151.9 224.731 153.06Z" fill="#00A877"/>
<path d="M208.04 157.23C208.04 158.38 207.11 159.32 205.95 159.32C204.79 159.32 203.86 158.39 203.86 157.23C203.86 156.07 204.79 155.14 205.95 155.14C207.11 155.14 208.04 156.07 208.04 157.23Z" fill="#00A877"/>
<path d="M224.731 157.23C224.731 158.38 223.801 159.32 222.641 159.32C221.481 159.32 220.551 158.39 220.551 157.23C220.551 156.07 221.481 155.14 222.641 155.14C223.801 155.14 224.731 156.07 224.731 157.23Z" fill="#00A877"/>
<path d="M208.04 161.41C208.04 162.56 207.11 163.5 205.95 163.5C204.79 163.5 203.86 162.57 203.86 161.41C203.86 160.25 204.79 159.32 205.95 159.32C207.11 159.32 208.04 160.25 208.04 161.41Z" fill="#00A877"/>
<path d="M212.21 161.41C212.21 162.56 211.28 163.5 210.12 163.5C208.96 163.5 208.03 162.57 208.03 161.41C208.03 160.25 208.96 159.32 210.12 159.32C211.28 159.32 212.21 160.25 212.21 161.41Z" fill="#00A877"/>
<path d="M216.38 161.41C216.38 162.56 215.45 163.5 214.29 163.5C213.13 163.5 212.2 162.57 212.2 161.41C212.2 160.25 213.13 159.32 214.29 159.32C215.45 159.32 216.38 160.25 216.38 161.41Z" fill="#00A877"/>
<path d="M224.731 161.41C224.731 162.56 223.801 163.5 222.641 163.5C221.481 163.5 220.551 162.57 220.551 161.41C220.551 160.25 221.481 159.32 222.641 159.32C223.801 159.32 224.731 160.25 224.731 161.41Z" fill="#00A877"/>
<path d="M228.901 161.41C228.901 162.56 227.971 163.5 226.811 163.5C225.651 163.5 224.721 162.57 224.721 161.41C224.721 160.25 225.651 159.32 226.811 159.32C227.971 159.32 228.901 160.25 228.901 161.41Z" fill="#00A877"/>
<path d="M233.071 161.41C233.071 162.56 232.141 163.5 230.981 163.5C229.821 163.5 228.891 162.57 228.891 161.41C228.891 160.25 229.821 159.32 230.981 159.32C232.141 159.32 233.071 160.25 233.071 161.41Z" fill="#00A877"/>
<path d="M237.241 161.41C237.241 162.56 236.311 163.5 235.151 163.5C233.991 163.5 233.061 162.57 233.061 161.41C233.061 160.25 233.991 159.32 235.151 159.32C236.311 159.32 237.241 160.25 237.241 161.41Z" fill="#00A877"/>
<path d="M216.38 165.58C216.38 166.73 215.45 167.67 214.29 167.67C213.13 167.67 212.2 166.74 212.2 165.58C212.2 164.42 213.13 163.49 214.29 163.49C215.45 163.49 216.38 164.42 216.38 165.58Z" fill="#00A877"/>
<path d="M228.901 165.58C228.901 166.73 227.971 167.67 226.811 167.67C225.651 167.67 224.721 166.74 224.721 165.58C224.721 164.42 225.651 163.49 226.811 163.49C227.971 163.49 228.901 164.42 228.901 165.58Z" fill="#00A877"/>
<path d="M237.241 165.58C237.241 166.73 236.311 167.67 235.151 167.67C233.991 167.67 233.061 166.74 233.061 165.58C233.061 164.42 233.991 163.49 235.151 163.49C236.311 163.49 237.241 164.42 237.241 165.58Z" fill="#00A877"/>
<path d="M216.38 169.75C216.38 170.9 215.45 171.84 214.29 171.84C213.13 171.84 212.2 170.91 212.2 169.75C212.2 168.59 213.13 167.66 214.29 167.66C215.45 167.66 216.38 168.59 216.38 169.75Z" fill="#00A877"/>
<path d="M224.731 169.75C224.731 170.9 223.801 171.84 222.641 171.84C221.481 171.84 220.551 170.91 220.551 169.75C220.551 168.59 221.481 167.66 222.641 167.66C223.801 167.66 224.731 168.59 224.731 169.75Z" fill="#00A877"/>
<path d="M228.901 169.75C228.901 170.9 227.971 171.84 226.811 171.84C225.651 171.84 224.721 170.91 224.721 169.75C224.721 168.59 225.651 167.66 226.811 167.66C227.971 167.66 228.901 168.59 228.901 169.75Z" fill="#00A877"/>
<path d="M233.071 169.75C233.071 170.9 232.141 171.84 230.981 171.84C229.821 171.84 228.891 170.91 228.891 169.75C228.891 168.59 229.821 167.66 230.981 167.66C232.141 167.66 233.071 168.59 233.071 169.75Z" fill="#00A877"/>
<path d="M237.241 169.75C237.241 170.9 236.311 171.84 235.151 171.84C233.991 171.84 233.061 170.91 233.061 169.75C233.061 168.59 233.991 167.66 235.151 167.66C236.311 167.66 237.241 168.59 237.241 169.75Z" fill="#00A877"/>
<path d="M216.38 173.93C216.38 175.08 215.45 176.02 214.29 176.02C213.13 176.02 212.2 175.09 212.2 173.93C212.2 172.77 213.13 171.84 214.29 171.84C215.45 171.84 216.38 172.77 216.38 173.93Z" fill="#00A877"/>
<path d="M224.731 173.93C224.731 175.08 223.801 176.02 222.641 176.02C221.481 176.02 220.551 175.09 220.551 173.93C220.551 172.77 221.481 171.84 222.641 171.84C223.801 171.84 224.731 172.77 224.731 173.93Z" fill="#00A877"/>
<path d="M228.901 173.93C228.901 175.08 227.971 176.02 226.811 176.02C225.651 176.02 224.721 175.09 224.721 173.93C224.721 172.77 225.651 171.84 226.811 171.84C227.971 171.84 228.901 172.77 228.901 173.93Z" fill="#00A877"/>
<path d="M237.241 173.93C237.241 175.08 236.311 176.02 235.151 176.02C233.991 176.02 233.061 175.09 233.061 173.93C233.061 172.77 233.991 171.84 235.151 171.84C236.311 171.84 237.241 172.77 237.241 173.93Z" fill="#00A877"/>
<path d="M237.241 178.1C237.241 179.25 236.311 180.19 235.151 180.19C233.991 180.19 233.061 179.26 233.061 178.1C233.061 176.94 233.991 176.01 235.151 176.01C236.311 176.01 237.241 176.94 237.241 178.1Z" fill="#00A877"/>
<path d="M241.41 178.1C241.41 179.25 240.48 180.19 239.32 180.19C238.16 180.19 237.23 179.26 237.23 178.1C237.23 176.94 238.16 176.01 239.32 176.01C240.48 176.01 241.41 176.94 241.41 178.1Z" fill="#00A877"/>
<path d="M245.59 178.1C245.59 179.25 244.66 180.19 243.5 180.19C242.34 180.19 241.41 179.26 241.41 178.1C241.41 176.94 242.34 176.01 243.5 176.01C244.66 176.01 245.59 176.94 245.59 178.1Z" fill="#00A877"/>
<path d="M249.76 178.1C249.76 179.25 248.83 180.19 247.67 180.19C246.51 180.19 245.58 179.26 245.58 178.1C245.58 176.94 246.51 176.01 247.67 176.01C248.83 176.01 249.76 176.94 249.76 178.1Z" fill="#00A877"/>
<path d="M224.731 182.27C224.731 183.42 223.801 184.36 222.641 184.36C221.481 184.36 220.551 183.43 220.551 182.27C220.551 181.11 221.481 180.18 222.641 180.18C223.801 180.18 224.731 181.11 224.731 182.27Z" fill="#00A877"/>
<path d="M228.901 182.27C228.901 183.42 227.971 184.36 226.811 184.36C225.651 184.36 224.721 183.43 224.721 182.27C224.721 181.11 225.651 180.18 226.811 180.18C227.971 180.18 228.901 181.11 228.901 182.27Z" fill="#00A877"/>
<path d="M212.21 186.45C212.21 187.6 211.28 188.54 210.12 188.54C208.96 188.54 208.03 187.61 208.03 186.45C208.03 185.29 208.96 184.36 210.12 184.36C211.28 184.36 212.21 185.29 212.21 186.45Z" fill="#00A877"/>
<path d="M216.38 186.45C216.38 187.6 215.45 188.54 214.29 188.54C213.13 188.54 212.2 187.61 212.2 186.45C212.2 185.29 213.13 184.36 214.29 184.36C215.45 184.36 216.38 185.29 216.38 186.45Z" fill="#00A877"/>
<path d="M220.55 186.45C220.55 187.6 219.62 188.54 218.46 188.54C217.3 188.54 216.37 187.61 216.37 186.45C216.37 185.29 217.3 184.36 218.46 184.36C219.62 184.36 220.55 185.29 220.55 186.45Z" fill="#00A877"/>
<path d="M224.731 186.45C224.731 187.6 223.801 188.54 222.641 188.54C221.481 188.54 220.551 187.61 220.551 186.45C220.551 185.29 221.481 184.36 222.641 184.36C223.801 184.36 224.731 185.29 224.731 186.45Z" fill="#00A877"/>
<path d="M228.901 186.45C228.901 187.6 227.971 188.54 226.811 188.54C225.651 188.54 224.721 187.61 224.721 186.45C224.721 185.29 225.651 184.36 226.811 184.36C227.971 184.36 228.901 185.29 228.901 186.45Z" fill="#00A877"/>
<path d="M233.071 186.45C233.071 187.6 232.141 188.54 230.981 188.54C229.821 188.54 228.891 187.61 228.891 186.45C228.891 185.29 229.821 184.36 230.981 184.36C232.141 184.36 233.071 185.29 233.071 186.45Z" fill="#00A877"/>
<path d="M212.21 190.62C212.21 191.77 211.28 192.71 210.12 192.71C208.96 192.71 208.03 191.78 208.03 190.62C208.03 189.46 208.96 188.53 210.12 188.53C211.28 188.53 212.21 189.46 212.21 190.62Z" fill="#00A877"/>
<path d="M224.731 144.71C224.731 145.86 223.801 146.8 222.641 146.8C221.481 146.8 220.551 145.87 220.551 144.71C220.551 143.55 221.481 142.62 222.641 142.62C223.801 142.62 224.731 143.55 224.731 144.71Z" fill="#00A877"/>
<path d="M208.04 148.88C208.04 150.03 207.11 150.97 205.95 150.97C204.79 150.97 203.86 150.04 203.86 148.88C203.86 147.72 204.79 146.79 205.95 146.79C207.11 146.79 208.04 147.72 208.04 148.88Z" fill="#00A877"/>
<path d="M220.55 148.88C220.55 150.03 219.62 150.97 218.46 150.97C217.3 150.97 216.37 150.04 216.37 148.88C216.37 147.72 217.3 146.79 218.46 146.79C219.62 146.79 220.55 147.72 220.55 148.88Z" fill="#00A877"/>
<path d="M228.901 148.88C228.901 150.03 227.971 150.97 226.811 150.97C225.651 150.97 224.721 150.04 224.721 148.88C224.721 147.72 225.651 146.79 226.811 146.79C227.971 146.79 228.901 147.72 228.901 148.88Z" fill="#00A877"/>
<path d="M203.87 153.06C203.87 154.21 202.94 155.15 201.78 155.15C200.62 155.15 199.69 154.22 199.69 153.06C199.69 151.9 200.62 150.97 201.78 150.97C202.94 150.97 203.87 151.9 203.87 153.06Z" fill="#00A877"/>
<path d="M212.21 153.06C212.21 154.21 211.28 155.15 210.12 155.15C208.96 155.15 208.03 154.22 208.03 153.06C208.03 151.9 208.96 150.97 210.12 150.97C211.28 150.97 212.21 151.9 212.21 153.06Z" fill="#00A877"/>
<path d="M241.41 153.06C241.41 154.21 240.48 155.15 239.32 155.15C238.16 155.15 237.23 154.22 237.23 153.06C237.23 151.9 238.16 150.97 239.32 150.97C240.48 150.97 241.41 151.9 241.41 153.06Z" fill="#00A877"/>
<path d="M233.071 157.23C233.071 158.38 232.141 159.32 230.981 159.32C229.821 159.32 228.891 158.39 228.891 157.23C228.891 156.07 229.821 155.14 230.981 155.14C232.141 155.14 233.071 156.07 233.071 157.23Z" fill="#00A877"/>
<path d="M237.241 157.23C237.241 158.38 236.311 159.32 235.151 159.32C233.991 159.32 233.061 158.39 233.061 157.23C233.061 156.07 233.991 155.14 235.151 155.14C236.311 155.14 237.241 156.07 237.241 157.23Z" fill="#00A877"/>
<path d="M241.41 157.23C241.41 158.38 240.48 159.32 239.32 159.32C238.16 159.32 237.23 158.39 237.23 157.23C237.23 156.07 238.16 155.14 239.32 155.14C240.48 155.14 241.41 156.07 241.41 157.23Z" fill="#00A877"/>
<path d="M245.59 157.23C245.59 158.38 244.66 159.32 243.5 159.32C242.34 159.32 241.41 158.39 241.41 157.23C241.41 156.07 242.34 155.14 243.5 155.14C244.66 155.14 245.59 156.07 245.59 157.23Z" fill="#00A877"/>
<path d="M241.41 161.41C241.41 162.56 240.48 163.5 239.32 163.5C238.16 163.5 237.23 162.57 237.23 161.41C237.23 160.25 238.16 159.32 239.32 159.32C240.48 159.32 241.41 160.25 241.41 161.41Z" fill="#00A877"/>
<path d="M224.731 165.58C224.731 166.73 223.801 167.67 222.641 167.67C221.481 167.67 220.551 166.74 220.551 165.58C220.551 164.42 221.481 163.49 222.641 163.49C223.801 163.49 224.731 164.42 224.731 165.58Z" fill="#00A877"/>
<path d="M241.41 165.58C241.41 166.73 240.48 167.67 239.32 167.67C238.16 167.67 237.23 166.74 237.23 165.58C237.23 164.42 238.16 163.49 239.32 163.49C240.48 163.49 241.41 164.42 241.41 165.58Z" fill="#00A877"/>
<path d="M220.55 169.75C220.55 170.9 219.62 171.84 218.46 171.84C217.3 171.84 216.37 170.91 216.37 169.75C216.37 168.59 217.3 167.66 218.46 167.66C219.62 167.66 220.55 168.59 220.55 169.75Z" fill="#00A877"/>
<path d="M220.55 173.93C220.55 175.08 219.62 176.02 218.46 176.02C217.3 176.02 216.37 175.09 216.37 173.93C216.37 172.77 217.3 171.84 218.46 171.84C219.62 171.84 220.55 172.77 220.55 173.93Z" fill="#00A877"/>
<path d="M233.071 173.93C233.071 175.08 232.141 176.02 230.981 176.02C229.821 176.02 228.891 175.09 228.891 173.93C228.891 172.77 229.821 171.84 230.981 171.84C232.141 171.84 233.071 172.77 233.071 173.93Z" fill="#00A877"/>
<path d="M249.76 173.93C249.76 175.08 248.83 176.02 247.67 176.02C246.51 176.02 245.58 175.09 245.58 173.93C245.58 172.77 246.51 171.84 247.67 171.84C248.83 171.84 249.76 172.77 249.76 173.93Z" fill="#00A877"/>
<path d="M220.55 178.1C220.55 179.25 219.62 180.19 218.46 180.19C217.3 180.19 216.37 179.26 216.37 178.1C216.37 176.94 217.3 176.01 218.46 176.01C219.62 176.01 220.55 176.94 220.55 178.1Z" fill="#00A877"/>
<path d="M224.731 178.1C224.731 179.25 223.801 180.19 222.641 180.19C221.481 180.19 220.551 179.26 220.551 178.1C220.551 176.94 221.481 176.01 222.641 176.01C223.801 176.01 224.731 176.94 224.731 178.1Z" fill="#00A877"/>
<path d="M228.901 178.1C228.901 179.25 227.971 180.19 226.811 180.19C225.651 180.19 224.721 179.26 224.721 178.1C224.721 176.94 225.651 176.01 226.811 176.01C227.971 176.01 228.901 176.94 228.901 178.1Z" fill="#00A877"/>
<path d="M253.93 178.1C253.93 179.25 253 180.19 251.84 180.19C250.68 180.19 249.75 179.26 249.75 178.1C249.75 176.94 250.68 176.01 251.84 176.01C253 176.01 253.93 176.94 253.93 178.1Z" fill="#00A877"/>
<path d="M249.76 182.27C249.76 183.42 248.83 184.36 247.67 184.36C246.51 184.36 245.58 183.43 245.58 182.27C245.58 181.11 246.51 180.18 247.67 180.18C248.83 180.18 249.76 181.11 249.76 182.27Z" fill="#00A877"/>
<path d="M208.04 190.62C208.04 191.77 207.11 192.71 205.95 192.71C204.79 192.71 203.86 191.78 203.86 190.62C203.86 189.46 204.79 188.53 205.95 188.53C207.11 188.53 208.04 189.46 208.04 190.62Z" fill="#00A877"/>
<path d="M216.38 190.62C216.38 191.77 215.45 192.71 214.29 192.71C213.13 192.71 212.2 191.78 212.2 190.62C212.2 189.46 213.13 188.53 214.29 188.53C215.45 188.53 216.38 189.46 216.38 190.62Z" fill="#00A877"/>
<path d="M212.21 194.8C212.21 195.95 211.28 196.89 210.12 196.89C208.96 196.89 208.03 195.96 208.03 194.8C208.03 193.64 208.96 192.71 210.12 192.71C211.28 192.71 212.21 193.64 212.21 194.8Z" fill="#00A877"/>
<path d="M268.88 55.3097H232.43C230.66 55.3097 229.21 53.8697 229.21 52.0897V20.4397C229.21 18.6697 230.65 17.2197 232.43 17.2197H268.88C270.65 17.2197 272.1 18.6597 272.1 20.4397V52.0897C272.1 53.8597 270.66 55.3097 268.88 55.3097ZM232.43 18.5097C231.37 18.5097 230.5 19.3697 230.5 20.4397V52.0897C230.5 53.1497 231.36 54.0197 232.43 54.0197H268.88C269.94 54.0197 270.81 53.1597 270.81 52.0897V20.4397C270.81 19.3797 269.95 18.5097 268.88 18.5097H232.43Z" fill="white" stroke="white" stroke-width="1.05" stroke-miterlimit="10"/>
<path d="M268.12 24.6499H229.85V25.9399H268.12V24.6499Z" fill="white" stroke="white" stroke-width="1.05" stroke-miterlimit="10"/>
<path d="M266.53 20.9297H265.42V22.2197H266.53V20.9297Z" fill="white" stroke="white" stroke-width="1.05" stroke-miterlimit="10"/>
<path d="M262.14 20.9297H260.97V22.2197H262.14V20.9297Z" fill="white" stroke="white" stroke-width="1.05" stroke-miterlimit="10"/>
<path d="M257.7 20.9297H256.53V22.2197H257.7V20.9297Z" fill="white" stroke="white" stroke-width="1.05" stroke-miterlimit="10"/>
<path d="M251.906 31.5987L248.161 48.2017L249.42 48.4855L253.164 31.8825L251.906 31.5987Z" fill="white" stroke="white" stroke-width="1.05" stroke-miterlimit="10"/>
<path d="M257.75 45.8997L256.91 44.9197L262.55 40.0497L256.91 35.1797L257.75 34.1997L264.53 40.0497L257.75 45.8997Z" fill="white" stroke="white" stroke-width="1.05" stroke-miterlimit="10"/>
<path d="M243.55 45.8997L236.78 40.0497L243.55 34.1997L244.4 35.1797L238.76 40.0497L244.4 44.9197L243.55 45.8997Z" fill="white" stroke="white" stroke-width="1.05" stroke-miterlimit="10"/>
<path d="M413.4 219.24C413.4 220.07 412.61 221.18 410.48 222.15C408.45 223.07 405.56 223.67 402.32 223.67C399.08 223.67 396.19 223.07 394.16 222.15C392.03 221.18 391.24 220.07 391.24 219.24C391.24 218.41 392.03 217.3 394.16 216.33C396.19 215.41 399.08 214.81 402.32 214.81C405.56 214.81 408.45 215.41 410.48 216.33C412.61 217.3 413.4 218.41 413.4 219.24ZM393.24 224.17C395.62 225.25 398.83 225.89 402.32 225.89C405.81 225.89 409.02 225.25 411.4 224.17C412.12 223.84 412.8 223.45 413.4 223.01V225.9C413.4 226.73 412.61 227.84 410.48 228.81C408.45 229.73 405.56 230.33 402.32 230.33C399.08 230.33 396.19 229.73 394.16 228.81C392.03 227.84 391.24 226.73 391.24 225.9V223.01C391.86 223.47 392.54 223.86 393.24 224.17ZM389.02 239.19C389.02 241.42 390.96 243.08 393.24 244.12C395.62 245.2 398.83 245.84 402.32 245.84C405.81 245.84 409.02 245.2 411.4 244.12C413.68 243.08 415.62 241.42 415.62 239.19V219.24C415.62 217.01 413.68 215.35 411.4 214.31C409.02 213.23 405.81 212.59 402.32 212.59C398.83 212.59 395.62 213.23 393.24 214.31C390.96 215.35 389.02 217.01 389.02 219.24V239.19ZM393.24 230.82C395.62 231.9 398.83 232.54 402.32 232.54C405.81 232.54 409.02 231.9 411.4 230.82C412.12 230.49 412.8 230.1 413.4 229.66V232.55C413.4 233.38 412.61 234.49 410.48 235.46C408.45 236.38 405.56 236.98 402.32 236.98C399.08 236.98 396.19 236.38 394.16 235.46C392.03 234.49 391.24 233.38 391.24 232.55V229.66C391.86 230.12 392.54 230.51 393.24 230.82ZM393.24 237.47C395.62 238.55 398.83 239.19 402.32 239.19C405.81 239.19 409.02 238.55 411.4 237.47C412.12 237.14 412.8 236.75 413.4 236.31V239.2C413.4 240.03 412.61 241.14 410.48 242.11C408.45 243.03 405.56 243.63 402.32 243.63C399.08 243.63 396.19 243.03 394.16 242.11C392.03 241.14 391.24 240.03 391.24 239.2V236.31C391.84 236.76 392.53 237.15 393.24 237.47Z" fill="#2E6C59"/>
<path d="M381.38 198.42C381.38 199.25 380.59 200.36 378.46 201.33C376.43 202.25 373.54 202.85 370.3 202.85C367.06 202.85 364.17 202.25 362.14 201.33C360.01 200.36 359.22 199.25 359.22 198.42C359.22 197.59 360.01 196.48 362.14 195.51C364.17 194.59 367.06 193.99 370.3 193.99C373.54 193.99 376.43 194.59 378.46 195.51C380.59 196.48 381.38 197.59 381.38 198.42ZM361.22 203.35C363.6 204.43 366.81 205.07 370.3 205.07C373.79 205.07 377 204.43 379.38 203.35C380.1 203.02 380.78 202.63 381.38 202.19V205.08C381.38 205.91 380.59 207.02 378.46 207.99C376.43 208.91 373.54 209.51 370.3 209.51C367.06 209.51 364.17 208.91 362.14 207.99C360.01 207.02 359.22 205.91 359.22 205.08V202.19C359.85 202.65 360.52 203.04 361.22 203.35ZM357 218.37C357 220.6 358.94 222.26 361.22 223.3C363.6 224.38 366.81 225.02 370.3 225.02C373.79 225.02 377 224.38 379.38 223.3C381.66 222.26 383.6 220.6 383.6 218.37V198.42C383.6 196.19 381.66 194.53 379.38 193.49C377 192.41 373.79 191.77 370.3 191.77C366.81 191.77 363.6 192.41 361.22 193.49C358.94 194.53 357 196.19 357 198.42V218.37ZM361.22 210C363.6 211.08 366.81 211.72 370.3 211.72C373.79 211.72 377 211.08 379.38 210C380.1 209.67 380.78 209.28 381.38 208.84V211.73C381.38 212.56 380.59 213.67 378.46 214.64C376.43 215.56 373.54 216.16 370.3 216.16C367.06 216.16 364.17 215.56 362.14 214.64C360.01 213.67 359.22 212.56 359.22 211.73V208.84C359.85 209.3 360.52 209.69 361.22 210ZM361.22 216.65C363.6 217.73 366.81 218.37 370.3 218.37C373.79 218.37 377 217.73 379.38 216.65C380.1 216.32 380.78 215.93 381.38 215.49V218.38C381.38 219.21 380.59 220.32 378.46 221.29C376.43 222.21 373.54 222.81 370.3 222.81C367.06 222.81 364.17 222.21 362.14 221.29C360.01 220.32 359.22 219.21 359.22 218.38V215.49C359.82 215.94 360.51 216.33 361.22 216.65Z" fill="#2E6C59"/>
<path d="M383.6 235.87C383.6 236.7 382.81 237.81 380.68 238.78C378.65 239.7 375.76 240.3 372.52 240.3C369.28 240.3 366.39 239.7 364.36 238.78C362.23 237.81 361.44 236.7 361.44 235.87C361.44 235.04 362.23 233.93 364.36 232.96C366.39 232.04 369.28 231.44 372.52 231.44C375.76 231.44 378.65 232.04 380.68 232.96C382.81 233.93 383.6 235.04 383.6 235.87ZM363.44 240.79C365.82 241.87 369.03 242.51 372.52 242.51C376.01 242.51 379.22 241.87 381.6 240.79C382.32 240.46 383 240.07 383.6 239.63V242.52C383.6 243.35 382.81 244.46 380.68 245.43C378.65 246.35 375.76 246.95 372.52 246.95C369.28 246.95 366.39 246.35 364.36 245.43C362.23 244.46 361.44 243.35 361.44 242.52V239.63C362.06 240.09 362.74 240.48 363.44 240.79ZM359.21 255.82C359.21 258.05 361.15 259.71 363.43 260.75C365.81 261.83 369.02 262.47 372.51 262.47C376 262.47 379.21 261.83 381.59 260.75C383.87 259.71 385.81 258.05 385.81 255.82V235.87C385.81 233.64 383.87 231.98 381.59 230.94C379.21 229.86 376 229.22 372.51 229.22C369.02 229.22 365.81 229.86 363.43 230.94C361.15 231.98 359.21 233.64 359.21 235.87V255.82ZM363.44 247.44C365.82 248.52 369.03 249.16 372.52 249.16C376.01 249.16 379.22 248.52 381.6 247.44C382.32 247.11 383 246.72 383.6 246.28V249.17C383.6 250 382.81 251.11 380.68 252.08C378.65 253 375.76 253.6 372.52 253.6C369.28 253.6 366.39 253 364.36 252.08C362.23 251.11 361.44 250 361.44 249.17V246.28C362.06 246.74 362.74 247.13 363.44 247.44ZM363.44 254.09C365.82 255.17 369.03 255.81 372.52 255.81C376.01 255.81 379.22 255.17 381.6 254.09C382.32 253.76 383 253.37 383.6 252.93V255.82C383.6 256.65 382.81 257.76 380.68 258.73C378.65 259.65 375.76 260.25 372.52 260.25C369.28 260.25 366.39 259.65 364.36 258.73C362.23 257.76 361.44 256.65 361.44 255.82V252.93C362.04 253.38 362.73 253.77 363.44 254.09Z" fill="#2E6C59"/>
<path opacity="0.28" d="M88.8096 252.02L102.14 240.47H121.34V251.56L88.8096 252.02Z" fill="#007A6C"/>
<path opacity="0.28" d="M120.819 218.84V251.56L134.789 239.7V207.29L120.819 218.84Z" fill="#007A6C"/>
<path opacity="0.28" d="M101.619 207.74V218.84H120.819L134.149 207.29L101.619 207.74Z" fill="#007A6C"/>
<path opacity="0.28" d="M101.619 240.92L88.1592 251.56V219.61L101.619 207.29V240.92Z" fill="#007A6C"/>
<path d="M135.539 240.21C135.539 240.21 135.559 240.14 135.559 240.11V240.09V206.91C135.559 206.87 135.559 206.82 135.539 206.78C135.539 206.77 135.529 206.76 135.519 206.75C135.499 206.72 135.489 206.69 135.459 206.67C135.449 206.66 135.439 206.65 135.429 206.64C135.409 206.62 135.379 206.6 135.349 206.59C135.339 206.59 135.329 206.58 135.309 206.57C135.269 206.55 135.219 206.54 135.179 206.54H101.999C101.999 206.54 101.899 206.55 101.859 206.57C101.839 206.57 101.829 206.59 101.809 206.6C101.789 206.61 101.769 206.62 101.749 206.64L87.5294 218.96C87.5294 218.96 87.5294 218.96 87.5194 218.97C87.5094 218.97 87.4994 218.99 87.4894 219C87.4694 219.02 87.4494 219.05 87.4394 219.08C87.4394 219.09 87.4294 219.11 87.4194 219.12C87.4094 219.15 87.3994 219.19 87.3994 219.22V219.24V252.42C87.3994 252.46 87.3994 252.51 87.4194 252.55C87.4194 252.56 87.4294 252.57 87.4394 252.58C87.4594 252.61 87.4694 252.64 87.4994 252.66C87.5094 252.67 87.5194 252.68 87.5294 252.69C87.5494 252.71 87.5794 252.73 87.6094 252.74C87.6194 252.74 87.6294 252.75 87.6494 252.76C87.6894 252.78 87.7394 252.79 87.7794 252.79H120.959C120.959 252.79 121.059 252.78 121.099 252.76C121.119 252.76 121.129 252.74 121.149 252.73C121.169 252.72 121.189 252.71 121.209 252.69L135.429 240.37C135.429 240.37 135.429 240.37 135.439 240.36C135.449 240.36 135.459 240.34 135.469 240.33C135.489 240.31 135.509 240.28 135.519 240.25C135.519 240.24 135.529 240.22 135.539 240.21ZM88.1594 219.61H101.609V239.91L88.1594 251.57V219.62V219.61ZM102.379 219.61H120.569V239.7H102.379V219.61ZM121.339 219.4L134.789 207.74V239.69H121.339V219.39V219.4ZM134.149 207.29L120.819 218.85H102.389V207.29H134.159H134.149ZM101.619 207.74V218.84H88.8094L101.619 207.74ZM88.8094 252.02L102.139 240.46H120.569V252.02H88.7994H88.8094ZM121.339 251.56V240.46H134.149L121.339 251.56Z" fill="#007A6C" stroke="#007A6C" stroke-width="0.87" stroke-miterlimit="10"/>
<path d="M379.489 60.3497C378.749 60.8897 377.949 61.3497 377.119 61.7297C374.299 63.0097 370.489 63.7697 366.359 63.7697C362.229 63.7697 358.419 63.0097 355.599 61.7297C354.759 61.3497 353.969 60.8897 353.229 60.3497V63.7697C353.229 64.7497 354.159 66.0697 356.689 67.2197C359.099 68.3097 362.509 69.0197 366.359 69.0197C368.109 69.0197 369.769 68.8697 371.289 68.6097C370.159 69.4197 369.179 70.4298 368.399 71.5798C367.719 71.6198 367.049 71.6397 366.369 71.6397C362.239 71.6397 358.429 70.8797 355.609 69.5997C354.769 69.2197 353.979 68.7598 353.239 68.2197V71.6397C353.239 72.6197 354.169 73.9397 356.699 75.0897C359.109 76.1797 362.519 76.8897 366.369 76.8897H366.439C366.359 77.5897 366.349 78.2897 366.399 78.9897C366.379 79.1597 366.369 79.3397 366.369 79.5197C362.239 79.5197 358.429 78.7597 355.609 77.4797C354.769 77.0997 353.979 76.6397 353.239 76.0997V79.5197C353.239 80.4997 354.169 81.8197 356.699 82.9697C359.109 84.0597 362.519 84.7697 366.369 84.7697C366.369 85.7197 366.619 86.6197 367.069 87.3897C366.839 87.3897 366.609 87.3897 366.369 87.3897C362.239 87.3897 358.429 86.6297 355.609 85.3497C352.909 84.1197 350.609 82.1598 350.609 79.5098V55.8697C350.609 53.2297 352.909 51.2597 355.609 50.0297C358.429 48.7497 362.239 47.9897 366.369 47.9897C370.499 47.9897 374.309 48.7497 377.129 50.0297C379.829 51.2597 382.129 53.2197 382.129 55.8697V67.0497C380.649 66.5297 379.089 66.3097 377.529 66.3997C378.949 65.4697 379.509 64.5097 379.509 63.7597V60.3397L379.489 60.3497ZM356.689 52.4497C354.159 53.5997 353.229 54.9097 353.229 55.8997C353.229 56.8897 354.159 58.1997 356.689 59.3497C359.099 60.4397 362.509 61.1497 366.359 61.1497C370.209 61.1497 373.619 60.4397 376.029 59.3497C378.559 58.1997 379.489 56.8797 379.489 55.8997C379.489 54.9197 378.559 53.5997 376.029 52.4497C373.619 51.3597 370.209 50.6497 366.359 50.6497C362.509 50.6497 359.099 51.3597 356.689 52.4597V52.4497Z" fill="#2E6C59"/>
<path d="M368.989 79.5295C368.989 78.8295 369.269 78.1695 369.759 77.6695C370.249 77.1795 370.919 76.8995 371.619 76.8995V74.2695C371.619 72.8795 372.169 71.5395 373.159 70.5595C374.139 69.5795 375.479 69.0195 376.869 69.0195C378.259 69.0195 379.599 69.5695 380.579 70.5595C381.559 71.5395 382.119 72.8795 382.119 74.2695V76.8995C382.819 76.8995 383.479 77.1795 383.979 77.6695C384.479 78.1595 384.749 78.8295 384.749 79.5295V84.7795C384.749 85.4795 384.469 86.1395 383.979 86.6395C383.489 87.1395 382.819 87.4095 382.119 87.4095H371.619C370.919 87.4095 370.259 87.1295 369.759 86.6395C369.269 86.1495 368.989 85.4795 368.989 84.7795V79.5295ZM376.869 71.6495C376.169 71.6495 375.509 71.9295 375.009 72.4195C374.509 72.9095 374.239 73.5795 374.239 74.2795V76.9095H379.489V74.2795C379.489 73.5795 379.209 72.9195 378.719 72.4195C378.229 71.9195 377.559 71.6495 376.859 71.6495H376.869Z" fill="#2E6C59"/>
<path d="M288.65 186.28C299.989 186.28 309.18 177.088 309.18 165.75C309.18 154.411 299.989 145.22 288.65 145.22C277.312 145.22 268.12 154.411 268.12 165.75C268.12 177.088 277.312 186.28 288.65 186.28Z" fill="#FDFDFD"/>
<path d="M281.8 152.18C284.18 152.53 298.53 162.86 300.69 164.94C301.13 165.38 301.44 165.56 301.48 166.22C299.58 168.52 295.92 170.37 293.45 172C289.83 174.52 286.17 177.16 282.28 179.28L282.19 178.97L281.97 179.32L282.06 178.97C281.4 178.04 281.49 155 281.8 152.18Z" fill="#2E6C59"/>
</g>
<defs>
<clipPath id="clip0_434_7027">
<rect width="468.82" height="270.46" fill="white" transform="translate(0.589844 0.529785)"/>
</clipPath>
</defs>
</svg>
