<svg xmlns="http://www.w3.org/2000/svg" width="99.789" height="90.454" viewBox="0 0 99.789 90.454">
  <g id="Group_14168" data-name="Group 14168" transform="translate(98.007 -923.543)">
    <path id="Path_38960" data-name="Path 38960" d="M-59.524,947.044l-13.785,23.877h50.392L-36.7,947.044V933.116H-59.524Z" fill="none"/>
    <path id="Path_38961" data-name="Path 38961" d="M-.28,990.984l-26.85-46.5V933.116H-36.7v13.928l13.785,23.877h5.526l12.966,22.457A10.555,10.555,0,0,1-8.289,1007.8a10.5,10.5,0,0,1-5.277,1.415H-82.66a10.51,10.51,0,0,1-5.278-1.415A10.555,10.555,0,0,1-91.8,993.378l12.965-22.457h5.527l13.785-23.877V933.116H-69.1V944.48l-26.85,46.505a15.24,15.24,0,0,0-1.532,11.64,15.235,15.235,0,0,0,7.147,9.315A15.32,15.32,0,0,0-82.677,1014h69.122a15.326,15.326,0,0,0,7.659-2.056,15.239,15.239,0,0,0,7.149-9.316A15.243,15.243,0,0,0-.28,990.984Z" fill="#d26a98"/>
    <path id="Path_38962" data-name="Path 38962" d="M-87.656,995.771a5.731,5.731,0,0,0-.576,4.377,5.73,5.73,0,0,0,2.687,3.5,5.75,5.75,0,0,0,2.874.775h69.112a5.751,5.751,0,0,0,2.877-.774,5.729,5.729,0,0,0,2.688-3.5,5.734,5.734,0,0,0-.576-4.378l-14.347-24.849H-73.309Z" fill="#009568" style="mix-blend-mode: multiply;isolation: isolate"/>
    <path id="Path_38963" data-name="Path 38963" d="M-7.994,1000.148a5.729,5.729,0,0,1-2.688,3.5,5.751,5.751,0,0,1-2.877.774H-82.671a5.75,5.75,0,0,1-2.874-.775,5.73,5.73,0,0,1-2.687-3.5,5.731,5.731,0,0,1,.576-4.377l14.347-24.85h-5.527L-91.8,993.378a10.555,10.555,0,0,0,3.863,14.418,10.51,10.51,0,0,0,5.278,1.415h69.094a10.5,10.5,0,0,0,5.277-1.415,10.555,10.555,0,0,0,3.864-14.418l-12.966-22.457h-5.526L-8.57,995.77A5.734,5.734,0,0,1-7.994,1000.148Z" fill="#d26a98"/>
    <path id="Path_38964" data-name="Path 38964" d="M-7.994,1000.148a5.729,5.729,0,0,1-2.688,3.5,5.751,5.751,0,0,1-2.877.774H-82.671a5.75,5.75,0,0,1-2.874-.775,5.73,5.73,0,0,1-2.687-3.5,5.731,5.731,0,0,1,.576-4.377l14.347-24.85h-5.527L-91.8,993.378a10.555,10.555,0,0,0,3.863,14.418,10.51,10.51,0,0,0,5.278,1.415h69.094a10.5,10.5,0,0,0,5.277-1.415,10.555,10.555,0,0,0,3.864-14.418l-12.966-22.457h-5.526L-8.57,995.77A5.734,5.734,0,0,1-7.994,1000.148Z" fill="#009568" style="mix-blend-mode: multiply;isolation: isolate"/>
    <rect id="Rectangle_425" data-name="Rectangle 425" width="11.405" height="9.572" transform="translate(-80.501 923.543)" fill="#d1bb4c" style="mix-blend-mode: multiply;isolation: isolate"/>
    <rect id="Rectangle_426" data-name="Rectangle 426" width="12.332" height="9.572" transform="translate(-27.13 923.543)" fill="#d1bb4c" style="mix-blend-mode: multiply;isolation: isolate"/>
    <rect id="Rectangle_427" data-name="Rectangle 427" width="22.822" height="9.572" transform="translate(-59.524 923.543)" fill="#d1bb4c" style="mix-blend-mode: multiply;isolation: isolate"/>
    <rect id="Rectangle_428" data-name="Rectangle 428" width="9.572" height="9.572" transform="translate(-36.702 923.543)" fill="#d26a98"/>
    <rect id="Rectangle_429" data-name="Rectangle 429" width="9.572" height="9.572" transform="translate(-36.702 923.543)" fill="#d1bb4c" style="mix-blend-mode: multiply;isolation: isolate"/>
    <rect id="Rectangle_430" data-name="Rectangle 430" width="9.572" height="9.572" transform="translate(-69.096 923.543)" fill="#d26a98"/>
    <rect id="Rectangle_431" data-name="Rectangle 431" width="9.572" height="9.572" transform="translate(-69.096 923.543)" fill="#d1bb4c" style="mix-blend-mode: multiply;isolation: isolate"/>
  </g>
</svg>
