<svg xmlns="http://www.w3.org/2000/svg" width="95.282" height="91.897" viewBox="0 0 95.282 91.897">
  <g id="Group_14167" data-name="Group 14167" transform="translate(216.722 -921.144)">
    <rect id="Rectangle_417" data-name="Rectangle 417" width="7.658" height="84.239" transform="translate(-216.722 921.144)" fill="#009568" style="mix-blend-mode: multiply;isolation: isolate"/>
    <rect id="Rectangle_418" data-name="Rectangle 418" width="84.239" height="7.658" transform="translate(-209.064 1005.383)" fill="#009568" style="mix-blend-mode: multiply;isolation: isolate"/>
    <rect id="Rectangle_419" data-name="Rectangle 419" width="7.658" height="7.658" transform="translate(-216.722 1005.383)" fill="#009568" style="mix-blend-mode: multiply;isolation: isolate"/>
    <rect id="Rectangle_420" data-name="Rectangle 420" width="7.658" height="7.658" transform="translate(-216.722 1005.383)" fill="#009568" style="mix-blend-mode: multiply;isolation: isolate"/>
    <rect id="Rectangle_421" data-name="Rectangle 421" width="27.705" height="9.573" transform="matrix(0.707, -0.707, 0.707, 0.707, -147.8, 960.322)" fill="#d1bb4c" style="mix-blend-mode: multiply;isolation: isolate"/>
    <path id="Path_38958" data-name="Path 38958" d="M-178.431,960.324l-26.359,26.357,6.769,6.77,19.59-19.59,15.316,15.316,15.316-15.316-6.769-6.769-8.547,8.548Z" fill="#d1bb4c" style="mix-blend-mode: multiply;isolation: isolate"/>
    <rect id="Rectangle_422" data-name="Rectangle 422" width="9.573" height="16.874" transform="matrix(0.707, -0.707, 0.707, 0.707, -147.8, 973.862)" fill="#d26a98" style="mix-blend-mode: multiply;isolation: isolate"/>
    <path id="Path_38959" data-name="Path 38959" d="M-174.6,933.52l-30.187,30.188,6.769,6.77,23.419-23.42,20.035,20.035,6.769-6.769Z" fill="#d26a98" style="mix-blend-mode: multiply;isolation: isolate"/>
    <rect id="Rectangle_423" data-name="Rectangle 423" width="9.573" height="9.572" transform="translate(-154.568 967.092) rotate(-45)" fill="#d1bb4c" style="mix-blend-mode: multiply;isolation: isolate"/>
    <rect id="Rectangle_424" data-name="Rectangle 424" width="9.573" height="9.572" transform="translate(-154.568 967.092) rotate(-45)" fill="#d26a98" style="mix-blend-mode: multiply;isolation: isolate"/>
  </g>
</svg>
