<?xml version="1.0" encoding="utf-8"?>
<!-- Generator: Adobe Illustrator 28.0.0, SVG Export Plug-In . SVG Version: 6.00 Build 0)  -->
<svg version="1.1" id="Layer_1" xmlns="http://www.w3.org/2000/svg" xmlns:xlink="http://www.w3.org/1999/xlink" x="0px" y="0px"
	 viewBox="0 0 2290 2151.1" style="enable-background:new 0 0 2290 2151.1;" xml:space="preserve">
<style type="text/css">
	
		.st0{fill:none;stroke:#01192D;stroke-width:9.1183;stroke-linecap:round;stroke-linejoin:round;stroke-miterlimit:10;stroke-dasharray:43.1599;}
	
		.st1{fill:none;stroke:#01192D;stroke-width:9.1183;stroke-linecap:round;stroke-linejoin:round;stroke-miterlimit:10;stroke-dasharray:50.1505;}
	
		.st2{fill:none;stroke:#01192D;stroke-width:9.1183;stroke-linecap:round;stroke-linejoin:round;stroke-miterlimit:10;stroke-dasharray:49.2387;}
	.st3{fill:#DDF1FF;}
	.st4{fill:#FFFFFF;stroke:#01192D;stroke-width:9.1183;stroke-linecap:round;stroke-linejoin:round;stroke-miterlimit:10;}
	.st5{fill:none;stroke:#01192D;stroke-width:9.1183;stroke-linecap:round;stroke-linejoin:round;stroke-miterlimit:10;}
	.st6{fill:#009966;stroke:#009568;stroke-width:9.1183;stroke-linecap:round;stroke-linejoin:round;stroke-miterlimit:10;}
	.st7{fill:#009966;stroke:#FFFFFF;stroke-width:7;stroke-miterlimit:10;}
	.st8{fill:#B0832F;}
	.st9{fill:#CA4E86;}
	.st10{fill:#01192D;}
	.st11{fill:#FFFFFF;}
	.st12{fill:none;stroke:#009568;stroke-width:9.1183;stroke-linecap:round;stroke-linejoin:round;stroke-miterlimit:10;}
</style>
<g id="_x2014_ÎÓÈ_x5F_1">
	<g>
		<g>
			<g>
				<g>
					<path class="st0" d="M1133.5,2023c-174.4-2-337.9-49.3-479.4-130.6"/>
					<path class="st1" d="M1690.9,215.1c265.5,176.8,440.4,478.8,440.4,821.6c0,101.2-15.2,198.8-43.6,290.8"/>
					<path class="st2" d="M165.8,1156.6c-4.8-39.3-7.2-79.3-7.2-119.9c0-398.1,235.8-741,575.3-896.9"/>
					<circle class="st3" cx="1145" cy="1036.7" r="724.2"/>
				</g>
				<g>
					<path class="st4" d="M1550.5,770.9V164.7c0-20.2-16.4-36.6-36.6-36.6H908.8c-20.2,0-36.6,16.4-36.6,36.6v605.1
						c0,20.2,16.4,36.6,36.6,36.6H1515C1534.6,806.4,1550.5,790.5,1550.5,770.9z"/>
					<g>
						<polyline class="st5" points="990.9,419.2 1022.9,387.2 1022.9,475.5 						"/>
						<polyline class="st5" points="1256.5,419.2 1288.5,387.2 1288.5,475.5 						"/>
						<path class="st5" d="M1139.7,477.2L1139.7,477.2c-14.7,0-26.6-11.9-26.6-26.6v-39.1c0-14.7,11.9-26.6,26.6-26.6l0,0
							c14.7,0,26.6,11.9,26.6,26.6v39.1C1166.2,465.3,1154.3,477.2,1139.7,477.2z"/>
						<path class="st5" d="M1420.2,477.2h-29.7c-6.5,0-11.7-5.2-11.7-11.7v-68.8c0-6.5,5.2-11.7,11.7-11.7h29.7
							c6.5,0,11.7,5.2,11.7,11.7v68.8C1431.9,472,1426.6,477.2,1420.2,477.2z"/>
						<polyline class="st5" points="990.9,563.7 1022.9,531.7 1022.9,620 						"/>
						<polyline class="st5" points="1389.3,563.7 1421.3,531.7 1421.3,620 						"/>
						<path class="st5" d="M1139.7,621.7L1139.7,621.7c-14.7,0-26.6-11.9-26.6-26.6V556c0-14.7,11.9-26.6,26.6-26.6l0,0
							c14.7,0,26.6,11.9,26.6,26.6v39.1C1166.2,609.8,1154.3,621.7,1139.7,621.7z"/>
						<path class="st5" d="M1272.5,621.7L1272.5,621.7c-14.7,0-26.6-11.9-26.6-26.6V556c0-14.7,11.9-26.6,26.6-26.6l0,0
							c14.7,0,26.6,11.9,26.6,26.6v39.1C1299,609.8,1287.2,621.7,1272.5,621.7z"/>
					</g>
					<path class="st6" d="M872.2,241.1h678.4v-76.4c0-20.2-16.4-36.6-36.6-36.6H908.8c-20.2,0-36.6,16.4-36.6,36.6V241.1z"/>
					<g>
						<path class="st7" d="M1695.8,710.5v132.7c0,14.9-12.1,26.9-26.9,26.9h-298.8c-14.9,0-26.9-12.1-26.9-26.9V710.5"/>
						<line class="st5" x1="1240" y1="813.8" x2="1240" y2="673.9"/>
						<path class="st7" d="M1189.7,850.9c0-27.8,22.5-50.4,50.4-50.4c27.8,0,50.4,22.5,50.4,50.4c0,27.8-50.4,109-50.4,109
							S1189.7,878.7,1189.7,850.9z"/>
						<path class="st7" d="M1246,665.9l271.1-79.9c1.5-0.5,3.2-0.5,4.7,0l271.1,79.9c8,2.4,8,13.7,0,16l-271.1,79.9
							c-1.5,0.5-3.2,0.5-4.7,0L1246,681.9C1238,679.6,1238,668.3,1246,665.9z"/>
					</g>
				</g>
				<g>
					<rect x="280.6" y="991.9" class="st6" width="515.3" height="429.4"/>
					<path class="st4" d="M868.5,1051c0,40.3,33,72.9,73.6,72.9s73.6-32.6,73.6-72.9c0-40.3-33-72.9-73.6-72.9
						S868.5,1010.7,868.5,1051z"/>
					<path class="st4" d="M1010.3,1363.5v73.4c0,12.2,10,22.1,22.3,22.1h15.8c11.9,0,21.6-9.6,21.6-21.4V1251
						c0-45.1-36.9-81.7-82.5-81.7H697.3c-15.4,0-27.9,12.4-27.9,27.6v0.8c0,14.6,10.7,26.8,24.7,28.2l162.8,16.4V1676v52
						c0,39.6,75.5,39.6,75.5,0l1.2-254.7l-1.2,262.8c0,33.9,77.9,33.9,77.9,0V1676v-371.6"/>
					<line class="st5" x1="660.8" y1="1194.6" x2="524.5" y2="1118.6"/>
					<path class="st4" d="M755.7,1431.4c0-47-38.1-85.2-85.2-85.2c-47,0-85.2,38.1-85.2,85.2s38.1,85.2,85.2,85.2
						C717.5,1516.6,755.7,1478.5,755.7,1431.4z"/>
					<path class="st4" d="M549,1717.4v-68.8c0-53.3,43.2-96.4,96.4-96.4h50.2c53.2,0,96.4,43.2,96.4,96.4v68.8"/>
					<path class="st4" d="M512.6,1431.4c0-47-38.1-85.2-85.2-85.2c-47,0-85.2,38.1-85.2,85.2s38.1,85.2,85.2,85.2
						S512.6,1478.5,512.6,1431.4z"/>
					<path class="st4" d="M305.9,1717.4v-68.8c0-53.3,43.2-96.4,96.4-96.4h50.2c53.2,0,96.4,43.2,96.4,96.4v68.8"/>
					<polyline class="st5" points="492.3,1561.2 423.5,1684.9 362.6,1561.2 					"/>
					<rect x="382.4" y="1671.7" class="st8" width="73.2" height="89.8"/>
					<polyline class="st5" points="729.5,1561.2 660.7,1684.9 599.8,1561.2 					"/>
					<rect x="619.6" y="1671.7" class="st9" width="73.2" height="89.8"/>
					<polygon class="st7" points="910.4,1362.3 937.5,1385.8 964.5,1362.3 964.5,1201.2 910.4,1201.2 					"/>
				</g>
				<g>
					<g>
						<g>
							<path class="st4" d="M1973.7,1486.3v-205.2v-28.9v-117.3c0-12-9.7-21.7-21.7-21.7h-590.3h-1.1c-15.5,0-28,12.5-28,28v345.1"
								/>
							<g>
								<g>
									<path class="st10" d="M1827.5,1549.4h152c16.5,0,29.9-13.5,29.9-29.9v-3.2c0-16.5-13.5-29.9-29.9-29.9h-153.2"/>
								</g>
							</g>
						</g>
						<g>
							<path class="st9" d="M1762.5,1402.9v-23.2c0-31.5,24.5-56.4,55.8-57.4l45.2-1c30.9,1.4,55.8,27.2,55.8,58.4v23.2"/>
						</g>
						<g>
							<path class="st7" d="M1684.2,1380.2H1383c-3.7,0-6.7-3-6.7-6.7v-211.8c0-3.7,3-6.7,6.7-6.7h301.3c3.7,0,6.7,3,6.7,6.7v211.8
								C1690.9,1377.2,1687.9,1380.2,1684.2,1380.2z"/>
							<path class="st4" d="M1585.3,1251c12.1,7,12.1,24.4,0,31.4l-38.5,22.2l-38.5,22.2c-12.1,7-27.2-1.7-27.2-15.7v-44.5v-44.5
								c0-14,15.1-22.7,27.2-15.7l38.5,22.2L1585.3,1251z"/>
						</g>
					</g>
					<polygon class="st11" points="1841.4,1444.7 1350.8,1444.7 1332.5,1850.7 1841.4,1850.7 					"/>
					<polyline class="st5" points="1540.6,1850.7 1841.4,1850.7 1841.4,1444.7 1332.5,1444.7 					"/>
					<path class="st8" d="M1411.6,1808c54.9,2.6,101.2,39.8,117.2,90.2c6.1,19.3-8.3,39-28.5,39H1218c-17.3,0-30-16.4-25.6-33
						c14.4-53.9,62.9-94.3,120.8-96.2H1411.6z"/>
					<line class="st12" x1="1780" y1="1572" x2="1645.6" y2="1572"/>
					<polyline class="st12" points="1537.7,1565.5 1566,1593.4 1609.4,1549.5 					"/>
					<line class="st12" x1="1780" y1="1711" x2="1645.6" y2="1711"/>
					<polyline class="st12" points="1537.7,1706.1 1566,1734.1 1609.4,1690.1 					"/>
					<path class="st4" d="M1457.1,1590.7v-11.1c0-45.9-37.2-83.1-83.1-83.1h-34.3c-45.9,0-83.1,37.2-83.1,83.1v11.1
						c-22.8,0.3-41.2,18.9-41.2,41.7s18.4,41.4,41.2,41.7v3.4c0,50.1,40.6,90.8,90.8,90.8h18.8c50.1,0,90.8-40.6,90.8-90.8v-3.4
						c23.1,0,41.8-18.7,41.8-41.8C1498.9,1609.4,1480.2,1590.7,1457.1,1590.7z"/>
					<path class="st4" d="M1889.6,1200.9v-5.4c0-22.4-18.1-40.5-40.5-40.5h-16.7c-22.4,0-40.5,18.1-40.5,40.5v5.4
						c-11.1,0.2-20.1,9.2-20.1,20.3s9,20.2,20.1,20.3v1.7c0,24.4,19.8,44.2,44.2,44.2h9.2c24.4,0,44.2-19.8,44.2-44.2v-1.6
						c11.2,0,20.4-9.1,20.4-20.4C1909.9,1210,1900.8,1200.9,1889.6,1200.9z"/>
				</g>
			</g>
		</g>
	</g>
</g>
<g id="del">
</g>
</svg>
